<svg width="702.580078" height="191.448975" viewBox="0 0 702.58 191.449" fill="none" xmlns="http://www.w3.org/2000/svg" xmlns:xlink="http://www.w3.org/1999/xlink">
	<desc>
			Created with Pixso.
	</desc>
	<defs/>
	<path id="Vector" d="M84.2094 8.92429C84.6624 8.92429 84.6624 8.22009 84.2094 8.22009C83.7563 8.22009 83.7563 8.92429 84.2094 8.92429Z" fill-rule="nonzero" fill="#FEFADE"/>
	<path id="Vector" d="M166.878 155.003C166.878 155.003 173.523 156.343 174.012 155.981L167.115 152.975C167.115 152.975 167.153 154.611 166.878 155.003Z" fill-rule="nonzero" fill="#231F20"/>
	<path id="Vector" d="M34.3317 188.982C30.1911 188.064 31.0079 188.052 29.5456 188.881C28.0692 189.71 26.4871 190.369 24.8182 190.646C10.0749 193.076 -6.15424 176.133 2.3476 157.35C10.0279 140.384 22.6 147.611 26.9988 150.888C27.3743 151.165 27.6982 151.411 27.9447 151.618C28.3555 151.958 28.5809 152.165 28.5809 152.165C28.5809 152.165 36.3903 145.543 43.2654 148.919C45.0541 149.794 46.7817 151.348 48.2886 153.869C49.0703 155.174 49.7932 156.744 50.4411 158.608C59.0556 183.567 37.4559 189.677 34.334 188.982L34.3317 188.982Z" fill-rule="nonzero" fill="#FEB053"/>
	<path id="Vector" d="M25.6656 154.59C25.6656 154.59 19.6824 136.795 23.2104 136.335C26.7384 135.875 26.5858 139.25 26.5858 142.931C26.5858 146.611 32.7216 155.665 25.6656 154.59Z" fill-rule="nonzero" fill="#000000"/>
	<path id="Vector" d="M48.2864 153.869C44.4581 159.662 31.8508 154.409 28.9519 153.099C28.5646 152.928 28.351 152.822 28.351 152.822C28.351 152.822 28.1398 152.381 27.9449 151.616C27.5623 150.064 27.2736 147.163 29.0622 143.846C30.7264 140.759 39.4935 142.87 44.7937 146.487C44.3829 147.339 43.8759 148.163 43.2656 148.916C45.0543 149.792 46.7819 151.346 48.2888 153.867L48.2864 153.869Z" fill-rule="nonzero" fill="#43305E"/>
	<path id="Vector" d="M44.7914 146.489C44.3806 147.341 43.8736 148.165 43.2633 148.919C40.7282 152.04 36.3599 154.064 28.9496 153.099C28.527 153.045 28.0975 152.982 27.6562 152.904C27.6562 152.904 27.3276 152.123 26.9966 150.888C26.2032 147.923 25.3911 142.36 29.0599 138.792C34.2521 133.729 46.066 132.194 46.066 132.194C46.066 132.194 47.7842 140.309 44.7891 146.489L44.7914 146.489Z" fill-rule="nonzero" fill="#FFC600"/>
	<path id="Vector" d="M27.656 152.904C27.656 152.904 29.616 143.316 46.0681 132.192" stroke="#000000"/>
	<path id="Vector" d="M22.1777 68.2378L22.1777 122.385" stroke="#231F20"/>
	<path id="Vector" d="M35.3176 42.5397L35.3176 96.6868" stroke="#231F20"/>
	<path id="Vector" d="M10.8333 50.375L10.8333 104.522" stroke="#231F20"/>
	<path id="Vector" d="M60.2413 153.817C60.2413 153.817 52.5305 164.509 59.3634 171.302C66.1987 178.095 85.4816 184.046 85.4816 184.046L87.1647 157.775C87.1647 157.775 64.0815 145.212 60.2413 153.817Z" fill-rule="nonzero" fill="#FFFFFF"/>
	<path id="Vector" d="M108.126 35.8405C108.126 35.8405 97.4666 45.8587 95.8235 55.4802C94.1804 65.1017 90.3121 86.7202 101.976 91.8373C101.976 91.8373 110.431 96.4262 120.625 92.8536L125.604 123.185C125.604 123.185 143.448 115.754 138.164 99.4073L133.622 72.7116C133.622 72.7116 141.563 73.5003 142.635 62.5221C142.635 62.5221 132.375 28.1086 108.128 35.8381L108.126 35.8405Z" fill-rule="nonzero" fill="#FFFFFF"/>
	<path id="Vector" d="M123.503 98.9449C123.503 98.9449 124.409 94.4476 129.613 92.2177C129.613 92.2177 135.274 88.5183 133.263 84.0491C131.249 79.5799 126.399 80.1737 124.587 84.2627C124.587 84.2627 120.508 92.0181 120.641 92.8303C120.775 93.6424 105.175 96.1071 100.471 90.5816C100.471 90.5816 96.4432 93.0744 97.3423 96.661C97.3423 96.661 99.5816 99.8205 104.311 99.7501C104.311 99.7501 97.4691 102.1 103.729 105.484C103.729 105.484 98.6591 108.735 103.729 110.663C103.729 110.663 100.504 113.848 105.248 115.374C105.248 115.374 109.687 117.683 115.118 114.763C115.118 114.763 111.093 137.511 112.848 144.529C112.848 144.529 112.224 180.999 136.014 183.445C136.014 183.445 157.764 183.597 164.435 164.228L166.897 153.118C166.897 153.118 157.062 148.02 145.124 151.12C145.124 151.12 131.106 117.345 130.955 116.601C130.805 115.857 123.507 98.9426 123.507 98.9426L123.503 98.9449Z" fill-rule="nonzero" fill="#FFFFFF"/>
	<path id="Vector" d="M139.626 14.0671C140.262 13.769 141.039 13.8676 141.635 14.215C142.267 14.5835 142.652 15.2525 142.76 15.9661C142.872 16.7172 142.671 17.635 142.074 18.1443C141.532 18.6068 140.722 18.6349 140.063 18.4612C139.082 18.2007 138.272 17.5082 137.509 16.8698C137.211 16.6186 136.807 16.6515 136.586 16.9895C136.023 17.8486 135.345 18.6138 134.57 19.2898C134.331 19.4987 134.357 19.9072 134.57 20.1208C134.807 20.3578 135.159 20.3297 135.401 20.1208C136.248 19.3814 136.983 18.5246 137.601 17.5834L136.678 17.7031C137.579 18.4589 138.516 19.2382 139.666 19.5739C140.673 19.8696 141.856 19.7804 142.711 19.1326C144.56 17.7265 144.248 14.6258 142.438 13.3465C141.443 12.6423 140.126 12.5461 139.032 13.0602C138.746 13.1939 138.673 13.6071 138.821 13.8629C138.992 14.1563 139.335 14.208 139.624 14.0742L139.626 14.0671Z" fill-rule="nonzero" fill="#231F20"/>
	<path id="Vector" d="M133.62 21.4329C133.62 21.8516 133.28 22.191 132.861 22.191C132.443 22.191 132.103 21.8516 132.103 21.4329C132.103 21.0141 132.443 20.6747 132.861 20.6747C133.28 20.6747 133.62 21.0141 133.62 21.4329Z" fill-rule="evenodd" fill="#231F20"/>
	<path id="Vector" d="M95.9998 56.3418C95.9998 56.3418 74.487 64.3953 75.9822 44.2603C77.0737 29.5781 93.1878 28.7401 100.591 28.9889C103.023 29.071 105.443 28.3645 107.333 26.8294C109.466 25.0971 113.569 23.177 121.198 23.4352C134.775 23.8953 142.483 35.2867 144.553 39.5423C146.624 43.8002 155.715 50.4736 151.802 59.5623C147.889 68.6509 140.64 74.7491 140.64 79.5822C140.64 80.784 138.758 85.5725 135.671 83.9576L133.967 73.369C133.967 73.369 141.356 72.1038 142.725 65.3154C142.725 65.3154 144.356 58.621 135.814 59.4731C135.814 59.4731 132.636 59.9167 131.371 63.3296C130.106 66.7426 129.817 70.801 126.773 69.8997C126.773 69.8997 125.308 68.05 126.118 64.7568C126.928 61.4635 127.754 58.8721 127.754 58.8721C127.754 58.8721 116.358 61.6278 110.551 44.7744L109.483 41.9107C109.236 41.2534 108.318 41.2182 108.027 41.8567C106.351 45.5372 102.107 53.4382 97.2181 51.6613L95.9975 56.3418L95.9998 56.3418Z" fill-rule="nonzero" fill="#000000"/>
	<path id="Vector" d="M84.2422 114.714C84.2422 114.714 64.701 142.94 57.6451 159.202C50.5892 175.464 81.0076 182.226 81.0076 182.226" stroke="#000000"/>
	<path id="Vector" d="M103.713 105.51C95.8212 109.71 86.1364 164.253 86.1364 164.253L81.8384 162.559L69.9236 157.871L62.8677 155.094L56.4761 152.578L66.168 133.337C85.6387 101.999 103.715 105.51 103.715 105.51L103.713 105.51Z" fill-rule="nonzero" fill="#E6E7E8"/>
	<path id="Vector" d="M85.6718 126.551C83.2423 131.927 82.0076 158.589 81.8386 162.559L69.9238 157.871C71.9519 149.355 85.6718 126.551 85.6718 126.551Z" fill-rule="nonzero" fill="#000000"/>
	<path id="Vector" d="M129.237 181.63C135.066 184.191 142.154 182.877 147.581 181.161C153.412 179.321 158.874 172.544 158.836 173.809L158.836 190.947L80.8762 190.947C80.8762 190.947 79.8974 150.914 83.5803 130.666C86.2609 115.93 96.2462 109.965 101.492 107.808C101.333 108.656 101.798 109.613 103.715 110.531C103.715 110.531 99.8164 113.437 106.29 115.653C106.724 115.801 107.161 115.911 107.591 115.988C111.501 116.7 115.1 114.789 115.1 114.789C115.1 114.789 104.253 170.65 129.237 181.628L129.237 181.63Z" fill-rule="nonzero" fill="#E6E7E8"/>
	<path id="Vector" d="M174.012 155.982L166.878 152.862L165.303 152.109C165.284 152.097 165.261 152.09 165.237 152.078C161.944 150.714 154.111 148.203 145.673 150.855C145.18 151.015 144.657 150.702 144.549 150.191C143.06 142.604 137.251 130.159 131.531 117.74C135.683 115.446 140.645 107.811 138.342 100.522C138.342 100.522 153.994 97.3769 162.503 110.496C171.019 123.61 175.622 143.325 174.012 155.979L174.012 155.982Z" fill-rule="nonzero" fill="#E6E7E8"/>
	<path id="Vector" d="M96.7648 51.6613C96.7648 51.6613 87.9485 82.575 100.19 90.4172" stroke="#000000"/>
	<path id="Vector" d="M93.3567 43.9152C93.3567 43.9152 97.3259 53.0414 104.617 45.8705C105.574 44.9269 106.396 43.8542 107.114 42.7181L109.119 39.5446C109.119 39.5446 112.802 60.8297 127.758 58.8744C127.758 58.8744 123.5 70.7259 127.528 69.9207C131.556 69.1156 129.369 59.1045 137.652 59.3345C145.936 59.5645 143.635 71.3009 133.969 73.3712L138.342 100.525" stroke="#000000"/>
	<path id="Vector" d="M106.288 115.808C99.814 113.594 103.71 110.688 103.71 110.688C98.6473 108.273 103.71 105.51 103.71 105.51C97.7272 101.597 104.293 99.7758 104.293 99.7758C91.291 99.0857 100.187 90.4172 100.187 90.4172C107.135 97.1844 120.623 92.8537 120.623 92.8537C120.623 92.8537 125.916 75.3641 132.589 82.4975C132.589 82.4975 135.58 87.3305 130.979 91.2411C130.979 91.2411 122.235 96.0742 123.615 100.215C124.953 104.229 142.354 139.304 144.551 150.494C144.652 151.005 145.175 151.317 145.673 151.163C156.804 147.663 166.876 153.141 166.876 153.141C164.486 177.039 148.546 182.196 140.476 183.266C136.664 183.771 132.753 183.344 129.237 181.783C104.288 170.715 115.099 114.942 115.099 114.942C115.099 114.942 111.496 116.855 107.588 116.141L107.591 116.146C107.159 116.068 106.722 115.956 106.288 115.808Z" stroke="#000000"/>
	<path id="Vector" d="M141.725 141.377C141.725 141.377 145.093 150.533 145.401 154.599" stroke="#000000"/>
	<path id="Vector" d="M101.41 62.5268C101.41 63.3682 100.728 64.0502 99.8869 64.0502C99.0456 64.0502 98.3635 63.3682 98.3635 62.5268C98.3635 61.6855 99.0456 61.0034 99.8869 61.0034C100.728 61.0034 101.41 61.6855 101.41 62.5268Z" fill-rule="evenodd" fill="#000000"/>
	<path id="Vector" d="M114.872 62.5268C114.872 63.3682 114.19 64.0502 113.349 64.0502C112.507 64.0502 111.825 63.3682 111.825 62.5268C111.825 61.6855 112.507 61.0034 113.349 61.0034C114.19 61.0034 114.872 61.6855 114.872 62.5268Z" fill-rule="evenodd" fill="#000000"/>
	<path id="Vector" d="M106.161 81.3778C106.161 81.3778 102.823 80.0657 105.189 79.5282C107.555 78.993 117.325 80.7323 117.325 80.7323" stroke="#000000"/>
	<path id="Vector" d="M106.128 60.4072C106.128 60.4072 101.891 72.3737 102.659 73.3713C103.426 74.3689 106.818 75.0965 106.818 75.0965" stroke="#000000"/>
	<path id="Vector" d="M109.792 58.7195C109.792 58.7195 115.036 55.6657 118.707 58.7195" stroke="#000000"/>
	<path id="Vector" d="M95.9998 58.7195C95.9998 58.7195 98.84 52.5063 103.213 59.027" stroke="#000000"/>
	<path id="Vector" d="M139.61 66.6745C139.61 66.6745 135.007 61.0786 131.326 69.3528" stroke="#000000"/>
	<path id="Vector" d="M102.821 99.6538C102.821 99.6538 108.083 100.407 112.801 98.9707" stroke="#000000"/>
	<path id="Vector" d="M103.281 105.355C103.281 105.355 108.776 107.196 114.297 105.153" stroke="#000000"/>
	<path id="Vector" d="M103.443 110.555C103.443 110.555 107.91 112.115 111.736 110.362" stroke="#000000"/>
	<path id="Vector" d="M99.0464 5.62634C98.7718 4.54895 99.0887 3.36826 99.7952 2.51855C100.589 1.5632 101.79 1.12192 103.016 1.1759C104.241 1.22989 105.567 1.80966 106.203 2.87769C106.839 3.94571 106.635 5.3212 106.081 6.37277C105.349 7.76239 104.07 8.76468 102.868 9.7294C102.621 9.92657 102.661 10.3561 102.868 10.5603C103.983 11.6518 104.931 12.8818 105.706 14.2362C106.081 14.8911 107.095 14.3019 106.72 13.6447C105.901 12.2081 104.879 10.8866 103.699 9.7294L103.699 10.5603C104.959 9.54865 106.262 8.4877 107.053 7.0488C107.844 5.60992 108.062 3.89172 107.309 2.44812C106.555 1.00455 104.933 0.211182 103.384 0.0351257C101.835 -0.14093 100.274 0.347321 99.1943 1.44348C98.0441 2.61243 97.5113 4.34238 97.9174 5.94324C98.1028 6.6756 99.2343 6.36575 99.0488 5.63104L99.0464 5.62634Z" fill-rule="nonzero" fill="#231F20"/>
	<path id="Vector" d="M109.26 17.5576C109.26 18.1837 108.752 18.6913 108.126 18.6913C107.5 18.6913 106.992 18.1837 106.992 17.5576C106.992 16.9314 107.5 16.4238 108.126 16.4238C108.752 16.4238 109.26 16.9314 109.26 17.5576Z" fill-rule="evenodd" fill="#231F20"/>
	<path id="Vector" d="M122.592 5.2038C123.151 4.48788 123.991 4.09354 124.9 4.09824C125.808 4.10294 126.679 4.57709 127.252 5.3024C127.824 6.02771 128.181 7.13562 127.928 8.08157C127.688 8.97589 126.867 9.55801 126.015 9.81152C124.677 10.2106 123.247 9.84909 121.933 9.5369C121.529 9.44064 121.233 9.71997 121.191 10.1026C121.048 11.3607 120.712 12.5907 120.231 13.762C120.111 14.0554 120.362 14.4075 120.642 14.485C120.977 14.5765 121.242 14.3699 121.365 14.0742C121.888 12.7996 122.21 11.4711 122.365 10.1026L121.623 10.6683C123.085 11.0157 124.63 11.3654 126.125 10.9992C127.334 10.7035 128.46 9.92419 128.942 8.74585C129.423 7.56754 129.141 6.02066 128.43 4.93622C127.719 3.85178 126.658 3.12177 125.395 2.95981C124.057 2.78845 122.606 3.29547 121.766 4.37286C121.571 4.62167 121.522 4.95969 121.766 5.2038C121.968 5.40567 122.4 5.45496 122.597 5.2038L122.592 5.2038Z" fill-rule="nonzero" fill="#231F20"/>
	<path id="Vector" d="M120.348 16.9872C120.348 17.5018 119.931 17.919 119.416 17.919C118.902 17.919 118.484 17.5018 118.484 16.9872C118.484 16.4725 118.902 16.0553 119.416 16.0553C119.931 16.0553 120.348 16.4725 120.348 16.9872Z" fill-rule="evenodd" fill="#231F20"/>
	<path id="Vector" d="M172.744 156.256C173.563 156.122 174.012 155.981 174.012 155.981C164.435 151.212 159.348 150.177 157.027 150.015C160.641 150.562 167.021 153.118 167.021 153.118L166.733 156.298C169.416 156.643 171.505 156.46 172.742 156.258L172.744 156.256Z" fill-rule="nonzero" fill="#000000"/>
	<path id="Vector" d="M26.0366 190.949L158.836 190.949" stroke="#231F20"/>
	<path id="Vector" d="M655.747 61.7076C655.747 61.7076 670.974 51.3585 672.811 48.5018C674.649 45.6452 677.243 44.9973 677.243 44.9973C677.243 44.9973 683.949 49.605 687.128 52.5391C690.306 55.4732 696.04 59.1984 698.897 66.9632C701.016 72.7234 705.502 83.5796 699.789 92.4077C698.815 93.9123 695.383 96.0742 693.622 96.4146L685.576 97.6304L685.82 113.723L663.305 108.205L664.169 88.6474C664.169 88.6474 652.113 91.6331 651.709 88.2507C651.306 84.8683 646.951 72.829 647.39 71.5451C647.829 70.2611 655.742 61.7053 655.742 61.7053L655.747 61.7076Z" fill-rule="nonzero" fill="#FFFFFF"/>
</svg>
