<svg width="204.921082" height="175.514282" viewBox="0 0 204.921 175.514" fill="none" xmlns="http://www.w3.org/2000/svg" xmlns:xlink="http://www.w3.org/1999/xlink">
	<desc>
			Created with Pixso.
	</desc>
	<defs/>
	<path id="Vector" d="M130.183 175.014L203.976 175.014" stroke="#000000"/>
	<path id="Vector" d="M139.91 13.8264L130.469 26.5486C130.469 26.5486 127.305 42.0665 129.685 55.8474C129.685 55.8474 133.072 72.7737 146.461 69.9921L146.461 90.167C146.461 90.167 148.484 101.469 166.019 93.3711C166.019 93.3711 168.885 85.1251 169.662 72.3958L168.751 52.4298C168.751 52.4298 180.032 52.5659 179.701 45.0241C179.37 37.4846 174.729 32.9168 173.821 33.1539C172.912 33.391 157.805 12.1176 139.907 13.824L139.91 13.8264Z" fill-rule="nonzero" fill="#FFFFFF"/>
	<path id="Vector" d="M51.9292 122.116C51.9292 122.116 40.6105 123.487 38.2328 118.576C35.9864 113.933 33.2752 114.778 28.2544 116.318C22.9003 117.954 20.3511 109.539 21.7313 108.021C23.1115 106.502 17.3866 100.965 14.6708 105.199C12.2319 108.992 0.000244141 94.3499 0.000244141 94.3499C0.000244141 94.3499 2.96478 91.8923 18.0249 94.7771C22.9143 95.7113 27.684 98.2112 32.0336 101.352L32.0383 101.352C43.1925 109.391 51.5559 121.578 51.9151 122.102C51.9268 122.111 51.9268 122.118 51.9268 122.118L51.9292 122.116Z" fill-rule="nonzero" fill="#FEB053"/>
	<path id="Vector" d="M51.9293 122.116C51.9293 122.116 45.7394 118.75 42.4321 117.633C39.1295 116.511 39.8314 113.391 39.7094 111.943C39.5873 110.502 37.6296 107.809 33.8387 107.276C23.8088 105.87 32.0361 101.352 32.0361 101.352L32.0408 101.352C43.1951 109.391 51.5584 121.578 51.9175 122.102C51.9293 122.111 51.9293 122.118 51.9293 122.118L51.9293 122.116Z" fill-rule="nonzero" fill="#000000"/>
	<path id="Vector" d="M51.8962 121.846L51.8962 122.128C51.8962 122.128 51.753 122.05 51.5065 121.912C51.1356 121.696 50.5183 121.325 49.8 120.834C47.4997 119.264 44.1736 116.461 44.6243 113.652C45.2651 109.631 43.1267 108.955 39.1786 107.685C34.9722 106.33 37.1177 99.7275 38.6997 99.3684C40.2818 99.0022 39.0659 92.8312 35.3994 94.3476C32.1109 95.7066 30.7917 80.7005 30.7917 80.7005C30.7917 80.7005 33.8245 80.4493 42.277 89.1131C43.8638 90.7421 45.19 92.6904 46.2979 94.8217L46.3331 94.8945L46.9199 96.0869L46.9622 96.1761C51.6896 106.373 51.8985 119.752 51.8985 121.848L51.8962 121.846Z" fill-rule="nonzero" fill="#FEB053"/>
	<path id="Vector" d="M91.962 99.6031C91.962 99.6031 82.4954 111.318 80.5237 108.356C78.3219 105.044 73.8762 109.492 74.9818 110.673C76.092 111.854 74.1884 118.534 69.9398 117.306C65.9612 116.156 63.8063 115.529 62.0951 119.222C60.2806 123.13 51.3235 122.193 51.3235 122.193C51.3235 122.193 52.4408 120.48 54.3937 117.996C56.4547 115.353 59.4662 111.842 63.0458 108.607C67.3226 104.744 72.4255 101.279 77.7398 100.171C89.5912 97.6995 91.9595 99.6055 91.9595 99.6055L91.962 99.6031Z" fill-rule="nonzero" fill="#FEB053"/>
	<path id="Vector" d="M49.0913 101.756C49.0913 101.756 46.7604 107.985 48.6218 114.497C49.6687 118.158 50.1054 121.036 50.1054 121.036L51.9011 122.125C51.9011 122.125 52.1169 108.408 52.0887 108.084C52.0606 107.76 50.3048 106.377 50.3048 106.377L49.0937 101.758L49.0913 101.756Z" fill-rule="nonzero" fill="#000000"/>
	<path id="Vector" d="M66.0104 111.732C65.6302 113.328 60.7291 113.764 61.2173 116.651C61.5694 118.722 52.1897 121.975 51.9338 122.109C52.0066 121.984 53.0323 120.24 54.3961 117.996C56.457 115.353 59.4685 111.842 63.0482 108.607C63.0482 108.607 66.4728 109.797 66.0104 111.734L66.0104 111.732Z" fill-rule="nonzero" fill="#000000"/>
	<path id="Vector" d="M51.8964 121.846L51.5067 121.912C51.1358 121.696 50.5185 121.325 49.8002 120.834C49.082 118.978 47.7275 115.616 46.96 114.412C45.8826 112.71 46.9482 110.955 46.96 107.833C46.9717 104.706 46.1691 107.049 46.2958 102.824C46.4272 98.6008 46.96 96.1737 46.96 96.1737C51.6874 106.37 51.8964 119.75 51.8964 121.846Z" fill-rule="nonzero" fill="#000000"/>
	<path id="Vector" d="M51.6357 122.149C51.6357 122.149 46.3895 93.7162 56.633 78.8837C65.3484 66.267 69.1817 65.9431 69.1817 65.9431C69.1817 65.9431 70.7308 84.9585 66.332 83.9608C61.4286 82.8482 61.2266 90.8102 63.2782 90.9252C65.3297 91.0403 69.4117 98.8286 64.4448 101.413C59.7878 103.835 57.2645 105.136 58.917 110.02C60.6658 115.184 51.6357 122.149 51.6357 122.149Z" fill-rule="nonzero" fill="#FEB053"/>
	<path id="Vector" d="M74.7565 118.581L74.7565 131.12L68.076 131.12L62.2689 159.372L34.3879 159.372L29.1276 131.12L21.5693 131.12L21.5693 118.581L74.7565 118.581Z" fill-rule="nonzero" fill="#FFC600"/>
	<path id="Vector" d="M55.9827 39.0432C55.9827 45.0415 51.1202 49.9041 45.1219 49.9041C39.1236 49.9041 34.261 45.0415 34.261 39.0432C34.261 33.045 39.1236 28.1824 45.1219 28.1824C51.1202 28.1824 55.9827 33.045 55.9827 39.0432Z" fill-rule="evenodd" fill="#FFC600"/>
	<path id="Vector" d="" fill-rule="nonzero" fill="#FFC600"/>
	<path id="Vector" d="M44.3777 52.4275L44.3777 60.9904" stroke="#000000"/>
	<path id="Vector" d="" fill-rule="nonzero" fill="#FFC600"/>
	<path id="Vector" d="M32.1392 46.226L25.1841 51.2233" stroke="#000000"/>
	<path id="Vector" d="" fill-rule="nonzero" fill="#FFC600"/>
	<path id="Vector" d="M56.3489 46.9747L62.5951 52.8336" stroke="#000000"/>
	<path id="Vector" d="M68.076 131.12L51.8398 131.416L59.1352 159.372L62.2689 159.372L68.076 131.12Z" fill-rule="nonzero" fill="#000000"/>
	<path id="Vector" d="M68.076 131.12L28.8577 131.12" stroke="#000000"/>
	<path id="Vector" d="M67.1487 175.014L112.418 175.014L175.297 175.014L190.494 173.575L112.418 153.804" fill-rule="nonzero" fill="#231F20"/>
	<path id="Vector" d="M67.1487 175.014L112.418 175.014L175.297 175.014L190.494 173.575L112.418 153.804" stroke="#231F20"/>
	<path id="Vector" d="M146.466 75.4096C146.466 75.4096 143.05 91.2937 156.782 90.782C170.194 90.282 169.723 72.776 169.723 72.776C169.723 72.776 198.998 80.5713 200.709 104.542C202.082 123.787 202.887 159.6 202.887 159.6L116.629 158.743L119.554 101.779C119.819 96.622 121.404 91.5895 124.321 87.3315C128.065 81.8694 130.861 76.5528 146.466 75.412L146.466 75.4096Z" fill-rule="nonzero" fill="#E6E7E8"/>
	<path id="Vector" d="M169.744 73.7948L168.842 57.9506C167.873 52.688 168.298 52.3265 168.753 52.4321C170.274 52.7795 173.11 52.681 176.039 50.897C183.6 46.2917 178.323 38.3766 172.92 40.0479C169.943 40.968 170.924 43.9584 168.392 45.8738C165.995 47.6859 168.392 33.9543 168.392 33.9543C169.556 21.0607 158.632 16.1385 152.163 14.3639C149.022 13.5025 145.696 13.6785 142.677 14.9014C137.647 16.9389 130.406 21.5654 129.286 31.5061C127.826 44.4796 127.61 62.4856 137.187 68.1965C147.862 74.5623 158.766 63.746 162.106 61.1406" stroke="#000000"/>
	<path id="Vector" d="M146.466 69.9921L146.466 76.5504" stroke="#231F20"/>
	<path id="Vector" d="M168.359 55.4601C168.38 55.561 168.394 55.6643 168.403 55.7652C168.934 61.387 172.462 59.4552 172.462 59.4552C189.501 51.3453 187.557 22.1216 187.557 22.1216C183.459 -6.96353 155.705 6.44177 155.705 6.44177C134.945 -9.17233 128.699 8.50739 128.699 8.50739C121.584 10.6974 119.254 17.6759 125.887 24.3821C132.52 31.0883 140.342 20.3142 140.342 20.3142C140.342 20.3142 146.231 28.6588 160.843 25.206C162 24.9337 163.218 24.9924 164.321 25.4337C165.972 26.0909 167.911 27.4453 167.465 30.1306C166.711 34.6561 165.711 45.2823 167.673 46.1015C169.556 46.8878 169.917 43.5852 171.413 41.36C172.898 39.1512 176.408 39.1582 178.715 42.0712C181.356 45.4043 178.274 49.8407 174.617 51.6364C174.617 51.6364 173.002 52.8264 168.563 52.425C168.124 52.3851 168.218 54.7935 168.359 55.4554L168.359 55.4601Z" fill-rule="nonzero" fill="#000000"/>
	<path id="Vector" d="M171.981 124.804L173.88 174.606L203.977 174.716L203.977 119.097L171.981 124.804Z" fill-rule="nonzero" fill="#FFFFFF"/>
	<path id="Vector" d="M182.959 82.0103C182.959 82.0103 168.026 80.8037 165.913 98.9553C163.8 117.107 164.556 136.277 164.556 136.277L204.796 136.277C204.796 136.277 207.92 86.8058 182.959 82.0103Z" fill-rule="nonzero" fill="#E6E7E8"/>
	<path id="Vector" d="M138.762 76.5504C138.762 76.5504 116.296 80.1676 107.787 93.033C100.558 103.962 110.719 118.863 110.719 118.863L143.795 120.121L140.445 88.4582L138.762 76.5504Z" fill-rule="nonzero" fill="#E6E7E8"/>
	<path id="Vector" d="M176.466 43.9045C176.466 43.9045 172.823 43.8012 171.18 48.6788" stroke="#000000"/>
	<path id="Vector" d="M135.323 36.1959C135.323 36.9815 134.686 37.6183 133.901 37.6183C133.115 37.6183 132.478 36.9815 132.478 36.1959C132.478 35.4103 133.115 34.7734 133.901 34.7734C134.686 34.7734 135.323 35.4103 135.323 36.1959Z" fill-rule="evenodd" fill="#231F20"/>
	<path id="Vector" d="M153.348 37.6184C153.348 38.404 152.711 39.0408 151.926 39.0408C151.14 39.0408 150.503 38.404 150.503 37.6184C150.503 36.8328 151.14 36.1959 151.926 36.1959C152.711 36.1959 153.348 36.8328 153.348 37.6184Z" fill-rule="evenodd" fill="#231F20"/>
	<path id="Vector" d="M148.823 33.1632C148.823 33.1632 151.768 31.5835 155.026 33.7101" stroke="#231F20"/>
	<path id="Vector" d="M131.847 31.0155C131.847 31.0155 134.643 27.8654 137.732 32.107" stroke="#231F20"/>
	<path id="Vector" d="M140.607 36.1959L137.394 48.6788L142.25 48.6788" stroke="#000000"/>
	<path id="Vector" d="M142.321 60.251C142.321 60.251 149.346 64.4174 151.928 56.9789" stroke="#000000"/>
	<path id="Vector" d="M171.981 136.193L171.981 173.575" stroke="#000000"/>
	<path id="Vector" d="M203.976 175.014L203.976 136.193L164.042 136.277C164.042 136.277 163.988 110.387 165.796 100.002" stroke="#000000"/>
	<path id="Vector" d="M65.4424 148.286L50.5676 174.606L67.1489 175.014C67.1489 175.014 95.0299 158.741 112.334 174.294L120.451 171.998L128.141 175.014C128.141 175.014 137.943 158.924 173.882 174.606L190.496 174.714L175.408 147.765C175.408 147.765 158.963 138.305 145.13 138.974C145.13 138.974 129.263 139.486 120.533 149.542C120.533 149.542 102.583 130.181 72.1251 144.497L65.4447 148.286L65.4424 148.286Z" fill-rule="nonzero" fill="#FFFFFF"/>
	<path id="Vector" d="M59.377 166.764L72.1204 144.497C72.1204 144.497 101.527 129.115 120.448 149.689L120.348 170.864L120.348 170.867C120.348 170.867 109.078 146.253 59.377 166.764Z" stroke="#000000"/>
	<path id="Vector" d="M59.3793 166.764L50.5676 174.606L66.8743 174.69C66.8743 174.69 96.8279 159.062 112.782 174.714L120.449 171.996" stroke="#000000"/>
	<path id="Vector" d="M72.1227 144.5L65.4423 148.286L50.4033 174.716" stroke="#000000"/>
	<path id="Vector" d="M181.52 166.705L168.777 144.439C168.777 144.439 139.37 129.057 120.448 149.631L120.62 170.679L120.62 170.681C120.62 170.681 131.819 146.194 181.52 166.705Z" stroke="#000000"/>
	<path id="Vector" d="M181.518 166.705L190.329 174.547L174.023 174.632C174.023 174.632 144.069 159.003 128.115 174.655L120.448 171.937" stroke="#000000"/>
	<path id="Vector" d="M168.777 144.441L175.457 148.227L190.494 174.655" stroke="#000000"/>
	<path id="Vector" d="M94.0205 140.202L111.843 158.74L122.681 136.789L94.0205 140.202Z" fill-rule="nonzero" fill="#FFFFFF"/>
	<path id="Vector" d="M111.843 158.74L122.681 136.789L94.0205 140.202L111.843 158.74Z" stroke="#231F20"/>
	<path id="Vector" d="M123.812 138.974L123.728 139.108L94.0016 143.016L83.6313 66.7271C83.5421 66.0698 83.4976 65.4126 83.4976 64.7624C83.4976 59.7861 86.0631 55.0869 90.3845 52.4203C94.2035 50.0543 98.9075 49.5919 103.121 51.174L104.874 51.8312C109.919 53.7231 113.496 58.2487 114.177 63.5887L123.812 138.976L123.812 138.974Z" fill-rule="nonzero" fill="#FEB053"/>
	<path id="Vector" d="M83.8121 68.9993L114.625 67.0698L114.198 62.3189C114.198 62.3189 111.778 51.7162 99.567 50.0473C99.567 50.0473 85.2275 48.9933 83.291 64.3047L83.8121 68.9969L83.8121 68.9993Z" fill-rule="nonzero" fill="#000000"/>
	<path id="Vector" d="M106.285 152.821L115.371 151.595L111.844 158.74L106.285 152.821Z" fill-rule="nonzero" fill="#231F20"/>
	<path id="Vector" d="M115.371 151.595L111.844 158.74L106.285 152.821L115.371 151.595Z" stroke="#231F20"/>
	<path id="Vector" d="" fill-rule="nonzero" fill="#231F20"/>
	<path id="Vector" d="M93.2036 74.9542L100.628 131.395" stroke="#231F20"/>
	<path id="Vector" d="" fill-rule="nonzero" fill="#231F20"/>
	<path id="Vector" d="M100.363 74.973L107.787 131.416" stroke="#231F20"/>
	<path id="Vector" d="" fill-rule="nonzero" fill="#231F20"/>
	<path id="Vector" d="M107.787 74.5623L115.212 131.003" stroke="#231F20"/>
	<path id="Vector" d="M95.1483 110.017L85.4614 111.265C84.7426 111.357 84.235 112.015 84.3275 112.734L84.8484 116.778C84.941 117.496 85.5988 118.004 86.3175 117.911L96.0045 116.664C96.7233 116.571 97.2308 115.913 97.1382 115.195L96.6173 111.151C96.5247 110.432 95.8671 109.924 95.1483 110.017Z" fill-rule="nonzero" fill="#FFFFFF"/>
	<path id="Vector" d="M95.1483 110.017C95.8671 109.924 96.5247 110.432 96.6173 111.151L97.1382 115.195C97.2308 115.913 96.7233 116.571 96.0045 116.664L86.3175 117.911C85.5988 118.004 84.941 117.496 84.8484 116.778L84.3275 112.734C84.235 112.015 84.7426 111.357 85.4614 111.265L95.1483 110.017Z" stroke="#231F20"/>
	<path id="Vector" d="M94.6439 89.8544L81.5579 91.54C80.8392 91.6326 80.3317 92.2903 80.4243 93.009L80.9451 97.0528C81.0377 97.7716 81.6954 98.2792 82.4141 98.1866L95.5001 96.5009C96.2188 96.4084 96.7263 95.7507 96.6337 95.032L96.1129 90.9881C96.0203 90.2694 95.3626 89.7618 94.6439 89.8544Z" fill-rule="nonzero" fill="#FFFFFF"/>
	<path id="Vector" d="M94.6439 89.8544C95.3626 89.7618 96.0203 90.2694 96.1129 90.9881L96.6337 95.032C96.7263 95.7507 96.2188 96.4084 95.5001 96.5009L82.4141 98.1866C81.6954 98.2792 81.0377 97.7716 80.9451 97.0528L80.4243 93.009C80.3317 92.2903 80.8392 91.6326 81.5579 91.54L94.6439 89.8544Z" stroke="#231F20"/>
	<path id="Vector" d="M96.2565 103.236L83.685 104.855C82.9662 104.948 82.4586 105.606 82.5512 106.324L83.0721 110.368C83.1647 111.087 83.8224 111.594 84.5411 111.502L97.1126 109.883C97.8314 109.79 98.3389 109.132 98.2463 108.414L97.7255 104.37C97.6329 103.651 96.9752 103.143 96.2565 103.236Z" fill-rule="nonzero" fill="#FFFFFF"/>
	<path id="Vector" d="M96.2565 103.236C96.9752 103.143 97.6329 103.651 97.7255 104.37L98.2463 108.414C98.3389 109.132 97.8314 109.79 97.1126 109.883L84.5411 111.502C83.8224 111.594 83.1647 111.087 83.0721 110.368L82.5512 106.324C82.4586 105.606 82.9662 104.948 83.685 104.855L96.2565 103.236Z" stroke="#231F20"/>
	<path id="Vector" d="M97.4916 96.2318L82.4128 98.1742C81.694 98.2667 81.1864 98.9244 81.279 99.6432L81.7999 103.687C81.8925 104.406 82.5502 104.913 83.2689 104.821L98.3477 102.878C99.0665 102.786 99.574 102.128 99.4814 101.409L98.9605 97.3656C98.8679 96.6468 98.2103 96.1392 97.4916 96.2318Z" fill-rule="nonzero" fill="#FFFFFF"/>
	<path id="Vector" d="M97.4916 96.2318C98.2103 96.1392 98.8679 96.6468 98.9605 97.3656L99.4814 101.409C99.574 102.128 99.0665 102.786 98.3477 102.878L83.2689 104.821C82.5502 104.913 81.8925 104.406 81.7999 103.687L81.279 99.6432C81.1864 98.9244 81.694 98.2667 82.4128 98.1742L97.4916 96.2318Z" stroke="#231F20"/>
	<path id="Vector" d="M111.843 158.741L100.494 153.368C99.5272 152.91 98.4029 152.936 97.457 153.436C95.6613 154.386 93.5674 154.602 91.6168 154.039L88.9833 153.276C87.6241 152.882 86.1712 152.947 84.852 153.461L83.1948 154.107C80.817 155.034 78.1833 155.06 75.7867 154.18C75.1319 153.938 74.4043 153.987 73.7846 154.311L68.0759 157.302" stroke="#000000"/>
	<path id="Vector" d="M165.796 100.005L149.125 127.501L159.127 127.501L159.127 141.197C159.127 141.197 167.812 143.418 171.981 146.255L171.981 136.193L164.042 136.277C164.042 136.277 165.211 103.887 165.796 100.002L165.796 100.005Z" fill-rule="nonzero" fill="#000000"/>
	<path id="Vector" d="M203.977 175.014L9.25537 175.014" stroke="#231F20"/>
</svg>
