<svg width="204.934265" height="188.907379" viewBox="0 0 204.934 188.907" fill="none" xmlns="http://www.w3.org/2000/svg" xmlns:xlink="http://www.w3.org/1999/xlink">
	<desc>
			Created with Pixso.
	</desc>
	<defs/>
	<path id="Vector" d="M45.2604 96.2081C45.2604 96.2081 20.1797 91.3539 12.4689 124.415C4.75806 157.477 4.75806 188.137 4.75806 188.137L93.2037 188.52C93.2037 188.52 93.9454 110.224 79.5636 102.259C65.1818 94.2951 45.2604 96.2081 45.2604 96.2081Z" fill-rule="nonzero" fill="#E6E7E8"/>
	<path id="Vector" d="M35.2187 122.115C35.2187 122.115 40.0259 146.017 41.0939 154.364C42.1596 162.711 30.8997 165.659 30.8997 165.659C30.8997 165.659 26.9938 158.763 27.069 158.054C27.144 157.345 29.9608 122.113 29.9608 122.113L35.2211 122.113L35.2187 122.115Z" fill-rule="nonzero" fill="#000000"/>
	<path id="Vector" d="M0.450684 164.519C0.450684 164.519 6.76721 146.257 37.6011 149.853C37.6011 149.853 30.28 168.03 0.450684 164.519Z" fill-rule="nonzero" fill="#000000"/>
	<path id="Vector" d="M72.7823 133.147C72.7823 133.147 74.179 137.349 76.991 136.166C79.803 134.981 82.601 132.732 82.601 132.732C82.601 132.732 86.0093 130.453 87.697 134.082C87.697 134.082 88.9786 136.694 84.0634 140.487C84.0634 140.487 86.3848 143.759 81.9907 146.149C81.9907 146.149 81.871 150.51 76.876 151.186C76.876 151.186 78.3548 153.097 75.9676 153.799C73.5804 154.501 69.691 154.198 67.0573 153.864C67.0573 153.864 65.0809 152.872 64.1514 154.301C63.2219 155.731 59.5272 184.593 38.4088 187.252C30.6087 188.233 16.8513 188.999 11.0417 179.325C11.0417 179.325 5.03271 170.014 4.6853 149.381C4.6853 149.381 2.9718 123.822 8.99963 116.137C8.99963 116.137 15.1801 104.313 23.7499 104.745C23.7499 104.745 26.0245 108.266 26.5362 112.01C27.0479 115.754 28.4656 123.904 28.4656 123.904C28.4656 123.904 30.1017 155.32 31.0312 156.287C31.9608 157.254 33.1578 159.869 36.3431 157.543C39.5284 155.216 55.9077 143.184 55.9077 143.184C55.9077 143.184 58.5953 139.839 59.1892 138.206C59.7808 136.572 65.0574 130.007 72.7823 133.154L72.7823 133.147Z" fill-rule="nonzero" fill="#FFFFFF"/>
	<path id="Vector" d="M59.114 138.309C59.114 138.309 62.48 133.725 63.3508 132.929C64.2217 132.133 66.9023 127.035 76.9534 129.678C87.0044 132.321 69.8176 136.182 69.8176 136.182L59.1163 138.309L59.114 138.309Z" fill-rule="nonzero" fill="#FFFFFF"/>
	<path id="Vector" d="M76.4159 129.525C76.4159 129.525 68.7098 125.307 60.7806 135.88L55.6988 143.299L35.0662 157.834C35.0662 157.834 31.3058 159.256 30.8998 154.885C30.4937 150.515 27.4446 109.351 25.4118 106.909C23.3791 104.471 21.5505 104.752 21.5505 104.752" stroke="#000000"/>
	<path id="Vector" d="M94.8959 52.8256C94.8959 52.8256 96.2433 72.3104 93.1543 80.4296C93.1543 80.4296 89.6498 96.5555 76.4135 100.203L67.4539 101.353C67.4539 101.353 69.6674 111.66 65.008 114.679C61.1256 117.195 54.6307 120.164 47.5959 114.442C45.035 112.36 43.1454 109.566 42.0187 106.466C40.9719 103.583 39.6855 99.6445 39.7184 97.7972L43.0726 96.8747L48.5066 83.2698C48.6428 82.9201 48.6991 82.5351 48.6263 82.1666C48.5348 81.6995 48.2461 81.2324 47.4058 81.4883C46.9692 81.6221 42.7886 80.554 43.1172 74.7328C43.4482 68.9115 45.7509 61.8133 53.4007 68.719C53.4007 68.719 54.4335 70.7424 54.0439 74.0732C54.0439 74.0732 53.6213 76.3899 55.0226 75.7562C56.424 75.1224 57.9662 74.4112 58.9943 65.6324C58.9943 65.6324 91.8116 70.9184 94.8912 52.8232L94.8959 52.8256Z" fill-rule="nonzero" fill="#FFFFFF"/>
	<path id="Vector" d="M94.5509 48.2249C94.5509 48.2249 100.919 69.8926 58.999 65.6347C58.999 65.6347 58.2056 75.5519 55.3161 75.7585C52.4243 75.9674 55.1682 73.3009 54.1049 70.01C53.0416 66.7191 44.8354 61.2311 43.2557 72.4042C42.4248 78.2771 44.6219 80.9366 46.9551 81.4882C47.6616 81.6549 49.0019 80.6221 48.5887 83.4482L43.0773 97.2056" stroke="#000000"/>
	<path id="Vector" d="M94.8959 52.8256C94.8959 52.8256 101.062 99.5365 69.949 101.165C66.2591 101.358 62.663 99.7642 60.4026 97.7549C57.7455 95.3959 56.0109 90.2764 55.0273 82.8895" stroke="#000000"/>
	<path id="Vector" d="M65.9844 100.722L64.2498 105.834" stroke="#000000"/>
	<path id="Vector" d="M87.4669 75.822C87.4669 76.5726 86.8585 77.1811 86.1078 77.1811C85.3572 77.1811 84.7488 76.5726 84.7488 75.822C84.7488 75.0714 85.3572 74.4629 86.1078 74.4629C86.8585 74.4629 87.4669 75.0714 87.4669 75.822Z" fill-rule="evenodd" fill="#231F20"/>
	<path id="Vector" d="M71.9606 74.4628C71.9606 75.2134 71.3521 75.8219 70.6015 75.8219C69.8509 75.8219 69.2424 75.2134 69.2424 74.4628C69.2424 73.7122 69.8509 73.1038 70.6015 73.1038C71.3521 73.1038 71.9606 73.7122 71.9606 74.4628Z" fill-rule="evenodd" fill="#231F20"/>
	<path id="Vector" d="M90.1591 72.8925C90.1591 72.8925 90.1803 68.874 85.2815 69.9208" stroke="#231F20"/>
	<path id="Vector" d="M73.456 68.8083C73.456 68.8083 71.2261 65.4634 67.7498 69.0712" stroke="#231F20"/>
	<path id="Vector" d="M81.338 75.3431L80.8545 87.6335L76.4158 86.3026" stroke="#000000"/>
	<path id="Vector" d="M94.3186 70.1955C91.9854 71.4208 88.8143 61.9448 88.8143 61.9448C82.4578 68.0196 59.0014 65.6324 59.0014 65.6324C59.0014 65.6324 57.6917 72.1813 56.9593 74.3713C56.2269 76.5613 54.0251 75.3431 54.0251 75.3431C54.0251 75.3431 54.1331 72.2775 54.105 70.0077C54.0792 67.7402 50.1498 66.4258 50.1498 66.4258C43.3497 63.0081 43.1197 73.646 43.3145 77.3406C43.5093 81.0352 48.2344 81.4859 48.2344 81.4859C48.6546 82.5352 48.6452 83.7088 48.2086 84.751L43.73 95.572C43.73 95.572 32.0194 95.3959 28.4915 90.2225C25.3742 85.6523 27.813 80.6855 31.6086 78.9884C35.4042 77.2913 38.3829 65.8319 41.094 52.8233C43.8051 39.8123 57.6823 36.5988 67.4563 35.1482C72.9373 34.3361 79.2068 35.6998 83.7747 37.1082C88.9363 38.6996 93.5229 41.8286 96.6941 46.2039C98.6916 48.962 100.234 52.2341 99.6423 55.3419C98.2269 62.8016 102.867 90.185 98.4217 98.9802C96.3772 103.027 78.005 99.4943 78.005 99.4943C78.005 99.4943 91.0395 95.3419 94.2975 75.1999L94.3163 70.1955L94.3186 70.1955Z" fill-rule="nonzero" fill="#000000"/>
	<path id="Vector" d="M84.3545 96.7809C76.6155 97.2667 70.414 103.71 70.2004 111.461C70.0432 117.165 73.043 122.178 77.5779 124.89L69.5126 142.119C68.2052 144.91 69.6511 148.215 72.5876 149.151C75.3198 150.022 78.2328 148.473 79.0403 145.719L84.5212 127.004C84.7911 127.019 85.061 127.028 85.3357 127.028C93.6967 127.028 100.476 120.249 100.476 111.888C100.476 103.527 93.1615 96.2245 84.3569 96.7785L84.3545 96.7809Z" fill-rule="nonzero" fill="#FEB053"/>
	<path id="Vector" d="M86.0983 122.944C91.617 122.944 96.0907 118.47 96.0907 112.951C96.0907 107.433 91.617 102.959 86.0983 102.959C80.5797 102.959 76.106 107.433 76.106 112.951C76.106 118.47 80.5797 122.944 86.0983 122.944Z" fill-rule="nonzero" fill="#FFC600"/>
	<path id="Vector" d="M86.0983 122.944C80.5797 122.944 76.106 118.47 76.106 112.951C76.106 107.433 80.5797 102.959 86.0983 102.959C91.617 102.959 96.0907 107.433 96.0907 112.951C96.0907 118.47 91.617 122.944 86.0983 122.944Z" stroke="#000000"/>
	<path id="Vector" d="M73.078 133.337C73.078 133.337 73.6531 137.187 76.4135 136.246C79.1762 135.304 82.4953 133.272 82.8356 132.661C83.1736 132.051 86.8307 131.058 87.8494 134.605C87.8494 134.605 88.0536 138.084 84.3285 140.454C84.3285 140.454 86.096 143.806 81.993 146.264C81.993 146.264 82.4531 149.682 76.9534 151.404C76.9534 151.404 78.1153 153.127 75.5286 153.806C72.9442 154.482 64.6841 153.806 64.6841 153.806C64.6841 153.806 59.5272 145.132 63.6607 139.168C67.7943 133.206 73.0803 133.34 73.0803 133.34L73.078 133.337Z" fill-rule="nonzero" fill="#FFFFFF"/>
	<path id="Vector" d="M76.5826 151.242C77.8713 151.691 77.5638 152.4 77.1108 152.895C76.7798 153.256 76.3573 153.517 75.8949 153.684C74.5898 154.148 71.0008 155.071 65.6302 153.693C64.8814 153.501 64.1279 153.972 63.9918 154.733C62.6797 162.056 54.9759 194.477 22.2266 187.374C2.97888 183.198 4.7276 149.771 4.7276 133.842C4.7276 117.913 13.2717 106.923 21.9473 104.785" stroke="#231F20"/>
	<path id="Vector" d="M81.9906 146.259C81.9906 146.259 82.0798 150.353 76.3219 151.287C74.7281 151.545 73.0967 151.421 71.5381 151.003C70.1298 150.625 68.32 150.055 67.4233 149.426" stroke="#231F20"/>
	<path id="Vector" d="M84.2747 140.344C84.2747 140.344 86.3121 144.245 81.9907 146.257C77.6694 148.268 72.6815 149.428 66.3015 144.952" stroke="#231F20"/>
	<path id="Vector" d="M73.1486 133.368C73.8387 138.008 78.8712 136.431 82.0541 133.07C84.6432 130.338 89.2274 133.049 87.5538 136.825C85.8802 140.602 76.0381 146.501 69.7849 140.816" stroke="#231F20"/>
	<path id="Vector" d="M67.231 90.2249C67.231 90.2249 70.9021 97.1 76.6882 92.3069" stroke="#000000"/>
	<path id="Vector" d="M88.0304 108.719L82.7913 112.881C82.6715 112.977 82.7607 113.17 82.9109 113.139L90.8635 111.557C91.0208 111.526 91.1077 111.731 90.9762 111.822L82.3828 117.73" stroke="#000000"/>
	<path id="Vector" d="M33.7281 97.2057C33.7281 97.2057 6.49969 101.173 3.28156 117.73C0.0634155 134.288 0.467163 163.937 0.467163 163.937C0.467163 163.937 8.64508 147.158 37.6012 149.853L33.7281 97.2057Z" fill-rule="nonzero" fill="#E6E7E8"/>
	<path id="Vector" d="M0.464844 163.939C0.464844 163.939 6.76495 148.041 37.5989 149.855L36.1248 127.866C36.1248 124.735 33.4911 110.606 26.069 108.013" stroke="#000000"/>
	<path id="Vector" d="M58.2455 38.7748C58.2455 38.7748 54.9194 18.4614 49.6122 23.8226C44.305 29.1861 38.3523 36.8359 46.1547 38.7748C53.957 40.7136 58.2455 41.9366 58.2455 41.9366L58.2455 38.7748Z" fill-rule="nonzero" fill="#000000"/>
	<path id="Vector" d="M202.27 118.456C199.869 94.0017 170.462 90.5887 170.462 90.5887C169.979 95.9687 169.955 101.457 166.948 104.731C161.709 110.437 157.212 110.574 153.059 109.628C142.457 107.21 145.518 95.565 145.518 95.565C122.639 110.907 121.547 134.596 121.326 150.933C121.326 150.933 124.843 154.202 124.861 155.547L124.861 188.515L202.467 188.515C202.467 188.515 203.385 129.805 202.27 118.453L202.27 118.456Z" fill-rule="nonzero" fill="#E6E7E8"/>
	<path id="Vector" d="M167.533 65.8436C167.533 65.8436 163.355 64.2686 161.573 68.4468" stroke="#000000"/>
	<path id="Vector" d="M169.035 42.2817C166.643 33.7869 152.806 25.8272 141.025 26.4164C141.025 26.4164 127.725 27.5854 120.505 38.357C120.505 38.357 108.299 43.0328 109.25 56.1846C109.25 56.1846 108.935 65.2264 112.616 68.4468C116.298 71.6673 118.58 70.8598 118.58 70.8598C118.58 70.8598 117.052 59.6798 117.667 52.4196L117.88 49.1287C118.385 52.5417 122.289 65.2146 152.325 59.6469C152.693 59.5905 153.038 59.5272 153.353 59.4544C153.357 59.4544 153.362 59.4544 153.369 59.4521C153.505 59.4192 153.641 59.3863 153.766 59.3511C153.766 59.3511 154.449 67.6159 156.777 69.2309C156.777 69.2309 158.688 69.8716 158.74 69.0595C158.791 68.2497 157.627 64.1302 159.359 62.4354C161.089 60.7407 163.2 59.5154 165.812 59.6328C165.812 59.6328 171.427 50.7812 169.035 42.284L169.035 42.2817ZM117.998 47.2931C118.049 47.3588 118.073 47.4809 118.085 47.6429C118.04 47.7391 117.998 47.8353 117.956 47.9339L117.998 47.2931Z" fill-rule="nonzero" fill="#000000"/>
	<path id="Vector" d="M117.869 46.5372C117.869 46.5372 116.522 66.022 119.611 74.1413C119.611 74.1413 122.857 90.1826 136.093 93.8326L141.438 94.8443L145.736 94.5133C145.736 94.5133 143.097 105.374 147.757 108.393C151.639 110.909 158.134 113.878 165.169 108.156C167.73 106.074 169.619 103.28 170.746 100.18C171.793 97.2972 173.079 93.3585 173.046 91.5112L169.692 90.5887L164.258 76.9838C164.122 76.6341 164.066 76.2491 164.139 75.8806C164.23 75.4135 164.519 74.9464 165.359 75.2022C165.796 75.336 169.976 74.268 169.648 68.4468C169.317 62.6255 167.014 55.5273 159.364 62.433C159.364 62.433 158.331 64.4564 158.721 67.7872C158.721 67.7872 159.143 70.1039 157.742 69.4702C156.339 68.8388 154.799 68.1252 153.771 59.3463C153.771 59.3463 120.953 64.6324 117.874 46.5372L117.869 46.5372Z" fill-rule="nonzero" fill="#FFFFFF"/>
	<path id="Vector" d="M118.214 41.9366C118.214 41.9366 111.846 63.6044 153.766 59.3464C153.766 59.3464 154.559 69.2637 157.449 69.4703C160.341 69.6792 157.597 67.0126 158.66 63.7218C159.723 60.4309 167.929 54.9429 169.509 66.116C170.34 71.9889 168.143 74.6484 165.81 75.2C165.103 75.3666 163.763 74.3338 164.176 77.16L169.688 90.9174" stroke="#000000"/>
	<path id="Vector" d="M117.869 46.5372C117.869 46.5372 111.05 93.1989 142.163 94.8279C145.853 95.0204 150.341 93.4571 152.491 90.5887C154.623 87.7461 156.754 83.9905 157.737 76.6012" stroke="#000000"/>
	<path id="Vector" d="M118.58 70.8575C107.917 70.6673 108.557 56.1165 110.144 49.4033C111.731 42.6901 120.505 38.357 120.505 38.357C120.505 38.357 137.035 12.9547 165.815 36.2492C165.815 36.2492 174.436 44.6477 165.815 59.6304" stroke="#000000"/>
	<path id="Vector" d="M146.644 94.0321L148.987 100.94" stroke="#000000"/>
	<path id="Vector" d="M128.016 69.536C128.016 70.2866 127.408 70.8951 126.657 70.8951C125.907 70.8951 125.298 70.2866 125.298 69.536C125.298 68.7854 125.907 68.1769 126.657 68.1769C127.408 68.1769 128.016 68.7854 128.016 69.536Z" fill-rule="evenodd" fill="#231F20"/>
	<path id="Vector" d="M143.522 68.1768C143.522 68.9274 142.914 69.5359 142.163 69.5359C141.413 69.5359 140.804 68.9274 140.804 68.1768C140.804 67.4262 141.413 66.8177 142.163 66.8177C142.914 66.8177 143.522 67.4262 143.522 68.1768Z" fill-rule="evenodd" fill="#231F20"/>
	<path id="Vector" d="M122.606 66.6065C122.606 66.6065 122.585 62.588 127.483 63.6348" stroke="#231F20"/>
	<path id="Vector" d="M139.311 62.5223C139.311 62.5223 141.541 59.1774 145.018 62.7852" stroke="#231F20"/>
	<path id="Vector" d="M131.429 69.0571L131.913 81.3475L136.351 80.0166" stroke="#000000"/>
	<path id="Vector" d="M139.581 85.4435C139.581 85.4435 147.144 87.3261 147.466 79.8195" stroke="#000000"/>
	<path id="Vector" d="M174.035 147.355L202.467 147.355L202.467 188.175L174.035 188.175L174.035 147.355Z" fill-rule="evenodd" fill="#FFFFFF"/>
	<path id="Vector" d="M174.035 147.355L174.035 188.177" stroke="#000000"/>
	<path id="Vector" d="M202.467 147.698L202.467 188.517" stroke="#000000"/>
	<path id="Vector" d="M118.251 0.5L88.3071 0.5C85.1876 0.5 82.6572 3.02802 82.6572 6.1499L82.6572 24.062C82.6572 27.1816 85.1852 29.7119 88.3071 29.7119L101.245 29.7119L100.173 35.498L111.644 29.7119L118.249 29.7119C121.369 29.7119 123.899 27.1839 123.899 24.062L123.899 6.1499C123.899 3.03036 121.369 0.5 118.249 0.5L118.251 0.5Z" fill-rule="nonzero" fill="#FFFFFF"/>
	<path id="Vector" d="M88.3071 0.5C85.1876 0.5 82.6572 3.02802 82.6572 6.1499L82.6572 24.062C82.6572 27.1816 85.1852 29.7119 88.3071 29.7119L101.245 29.7119L100.173 35.498L111.644 29.7119L118.249 29.7119C121.369 29.7119 123.899 27.1839 123.899 24.062L123.899 6.1499C123.899 3.03036 121.369 0.5 118.249 0.5L118.251 0.5L88.3071 0.5Z" stroke="#231F20"/>
	<path id="Vector" d="M91.408 11.0628C91.462 11.6708 91.2508 12.267 91.1757 12.8702C91.0982 13.4758 91.2038 14.18 91.7108 14.5227C92.3376 14.9452 93.2272 14.5579 93.6873 13.9594C94.1473 13.3608 94.3398 12.6003 94.7036 11.9384C95.0674 11.2764 95.7294 10.6638 96.4805 10.76C97.7621 10.9267 97.9124 12.7177 98.7034 13.7411C99.5836 14.8795 101.569 14.8748 102.445 13.734C103.135 12.835 103.417 11.2976 104.548 11.2741C106.238 11.2389 106.097 14.6166 107.78 14.7715C108.752 14.8607 109.339 13.7575 109.722 12.8609C110.104 11.9642 110.914 10.9267 111.827 11.2717C112.271 11.4384 112.534 11.8844 112.747 12.3069C112.961 12.7294 113.184 13.1871 113.599 13.4125C114.015 13.6401 114.67 13.4664 114.728 12.997L91.408 11.0628Z" fill-rule="nonzero" fill="#FFFFFF"/>
	<path id="Vector" d="M91.2601 11.0629C91.3141 11.9008 90.9197 12.6989 91.0254 13.5393C91.1005 14.1331 91.4385 14.7012 92.0652 14.8232C92.692 14.9453 93.3445 14.5908 93.7388 14.1261C94.2599 13.5111 94.4454 12.706 94.828 12.0112C95.1918 11.3563 95.9242 10.6568 96.7316 10.9737C97.2668 11.1826 97.5438 11.767 97.7668 12.2576C98.0156 12.7975 98.2245 13.3702 98.5954 13.842C98.9662 14.3138 99.4944 14.5908 100.062 14.6917C100.63 14.7927 101.241 14.7223 101.767 14.4641C102.292 14.2059 102.651 13.7458 102.933 13.2271C103.215 12.7083 103.445 12.0698 103.905 11.6731C104.288 11.3445 104.837 11.3351 105.217 11.6661C105.56 11.9619 105.757 12.4102 105.942 12.8116C106.144 13.2505 106.323 13.7059 106.593 14.1073C106.813 14.4406 107.104 14.7387 107.494 14.8608C108.031 15.0274 108.564 14.8138 108.947 14.4288C109.416 13.9524 109.649 13.3327 109.935 12.7435C110.221 12.1544 110.773 11.2905 111.529 11.3492C112.355 11.4126 112.583 12.4384 112.972 13.0041C113.306 13.4876 113.864 13.8327 114.449 13.5604C114.67 13.4571 114.827 13.274 114.874 13.0322C114.909 12.8468 114.627 12.7693 114.59 12.9548C114.524 13.2975 114.139 13.4172 113.829 13.3421C113.421 13.2411 113.179 12.8139 112.998 12.4689C112.712 11.9267 112.433 11.2906 111.792 11.1004C111.219 10.9291 110.672 11.2577 110.297 11.6684C109.841 12.1661 109.63 12.7764 109.327 13.3632C109.045 13.9054 108.616 14.5955 107.933 14.6237C107.468 14.6448 107.111 14.3444 106.865 13.9782C106.365 13.2411 106.182 12.3116 105.597 11.6262C104.98 10.9032 104.004 11.0183 103.44 11.7483C103.09 12.2013 102.879 12.7435 102.595 13.2365C102.264 13.8092 101.806 14.2176 101.152 14.3725C100.558 14.5134 99.9028 14.4359 99.3747 14.1261C98.8466 13.8162 98.5578 13.2811 98.309 12.7388C97.9077 11.8633 97.4828 10.5864 96.3115 10.5981C95.5744 10.6051 94.9759 11.1849 94.6238 11.7835C94.1848 12.5299 94.0205 13.4876 93.3657 14.0932C92.7108 14.6988 91.6756 14.7551 91.3798 13.7904C91.1052 12.889 91.6169 11.9713 91.5582 11.0582C91.5465 10.8704 91.2531 10.8704 91.2648 11.0582L91.2601 11.0629Z" fill-rule="nonzero" fill="#231F20"/>
	<path id="Vector" d="M91.3421 18.3112C91.3961 18.9192 91.1849 19.5154 91.1097 20.1186C91.0323 20.7242 91.1379 21.4284 91.6449 21.7711C92.2717 22.1936 93.1613 21.8063 93.6213 21.2078C94.0814 20.6092 94.2739 19.8487 94.6377 19.1868C95.0015 18.5248 95.6635 17.9122 96.4146 18.0084C97.6962 18.1751 97.8464 19.9661 98.6375 20.9895C99.5177 22.1279 101.503 22.1232 102.379 20.9825C103.069 20.0834 103.351 18.546 104.482 18.5225C106.172 18.4873 106.031 21.865 107.714 22.02C108.686 22.1091 109.273 21.0059 109.656 20.1093C110.038 19.2126 110.848 18.1751 111.761 18.5201C112.205 18.6868 112.468 19.1328 112.681 19.5553C112.895 19.9778 113.118 20.4355 113.533 20.6609C113.949 20.8862 114.604 20.7149 114.662 20.2454L91.3421 18.3112Z" fill-rule="nonzero" fill="#FFFFFF"/>
	<path id="Vector" d="M91.1942 18.3113C91.2482 19.1492 90.8538 19.9473 90.9595 20.7877C91.0346 21.3815 91.3726 21.9496 91.9993 22.0716C92.626 22.1937 93.2786 21.8392 93.6729 21.3745C94.194 20.7595 94.3795 19.9544 94.7621 19.2596C95.1259 18.6047 95.8583 17.9052 96.6657 18.2221C97.2009 18.431 97.4779 19.0155 97.7009 19.506C97.9497 20.0459 98.1586 20.6186 98.5295 21.0905C98.9003 21.5623 99.4285 21.8392 99.9965 21.9402C100.565 22.0411 101.175 21.9707 101.701 21.7125C102.226 21.4543 102.586 20.9942 102.867 20.4755C103.149 19.9567 103.379 19.3183 103.839 18.9216C104.222 18.5929 104.771 18.5835 105.151 18.9145C105.494 19.2103 105.691 19.6586 105.876 20.06C106.078 20.4989 106.257 20.9543 106.527 21.3557C106.747 21.689 107.038 21.9871 107.428 22.1092C107.966 22.2758 108.498 22.0622 108.881 21.6773C109.35 21.2008 109.583 20.5811 109.869 19.9919C110.156 19.4028 110.707 18.539 111.463 18.5976C112.289 18.661 112.517 19.6868 112.907 20.2525C113.24 20.736 113.799 21.0811 114.383 20.8088C114.604 20.7055 114.761 20.5224 114.808 20.2806C114.843 20.0952 114.561 20.0178 114.524 20.2032C114.458 20.5459 114.073 20.6656 113.763 20.5905C113.355 20.4895 113.113 20.0623 112.932 19.7173C112.646 19.1751 112.367 18.539 111.726 18.3488C111.153 18.1775 110.606 18.5061 110.231 18.9169C109.775 19.4145 109.564 20.0248 109.261 20.6116C108.98 21.1538 108.55 21.8439 107.867 21.8721C107.402 21.8932 107.045 21.5928 106.799 21.2266C106.299 20.4896 106.116 19.56 105.531 18.8746C104.914 18.1517 103.938 18.2667 103.374 18.9967C103.025 19.4497 102.813 19.9919 102.529 20.4849C102.198 21.0576 101.741 21.466 101.086 21.6209C100.492 21.7618 99.8369 21.6843 99.3088 21.3745C98.7806 21.0647 98.4919 20.5295 98.2431 19.9872C97.8417 19.1117 97.4169 17.8348 96.2455 17.8465C95.5085 17.8536 94.91 18.4333 94.5579 19.0319C94.1189 19.7783 93.9546 20.736 93.2997 21.3416C92.6448 21.9472 91.6097 22.0035 91.3139 21.0388C91.0393 20.1375 91.551 19.2197 91.4923 18.3066C91.4806 18.1188 91.1871 18.1188 91.1989 18.3066L91.1942 18.3113Z" fill-rule="nonzero" fill="#231F20"/>
	<path id="Vector" d="M197.604 108.257C195.263 103.931 190.473 101.506 185.579 101.978C182.339 102.29 178.621 103.137 177.004 105.313C173.849 109.555 171.861 111.937 171.821 122.282C171.781 132.626 171.842 147.078 171.842 147.078L203.146 147.078C203.146 147.078 204.592 121.167 197.604 108.254L197.604 108.257Z" fill-rule="nonzero" fill="#E6E7E8"/>
	<path id="Vector" d="M203.148 147.355L171.849 147.355C171.849 147.355 171.713 135.574 171.849 119.956C171.985 104.339 181.738 102.736 181.738 102.736" stroke="#3F3F3F"/>
	<path id="Vector" d="M55.2292 188.517L98.4286 188.517L158.43 188.517L172.931 187.144L98.4286 168.279L55.2292 188.517Z" fill-rule="nonzero" fill="#000000"/>
	<path id="Vector" d="M53.6003 163.012L39.4062 188.128L55.2293 188.517C55.2293 188.517 81.8358 172.988 98.3465 187.83L106.09 185.64L113.428 188.517C113.428 188.517 122.782 173.161 157.078 188.128L172.931 188.231L158.533 162.514C158.533 162.514 142.839 153.486 129.641 154.127C129.641 154.127 114.498 154.616 106.168 164.211C106.168 164.211 89.0396 145.736 59.9731 159.397L53.5979 163.012L53.6003 163.012Z" fill-rule="nonzero" fill="#FFFFFF"/>
	<path id="Vector" d="M47.8142 180.644L59.9731 159.397C59.9731 159.397 88.0349 144.719 106.09 164.352L105.994 184.56C105.994 184.56 95.241 161.073 47.8142 180.644Z" stroke="#000000"/>
	<path id="Vector" d="M47.8142 180.645L39.4062 188.128L54.9664 188.21C54.9664 188.21 83.5493 173.298 98.7737 188.231L106.09 185.637" stroke="#000000"/>
	<path id="Vector" d="M59.9755 159.397L53.6003 163.012L39.249 188.233" stroke="#000000"/>
	<path id="Vector" d="M164.366 180.588L152.207 159.341C152.207 159.341 124.145 144.663 106.09 164.296L106.254 184.381L106.252 184.381C106.252 184.381 116.939 161.014 164.366 180.588Z" stroke="#000000"/>
	<path id="Vector" d="M164.366 180.588L172.774 188.071L157.214 188.153C157.214 188.153 128.631 173.241 113.407 188.175L106.09 185.581" stroke="#000000"/>
	<path id="Vector" d="M152.207 159.341L158.58 162.955L172.931 188.177" stroke="#000000"/>
	<path id="Vector" d="M122.279 167.333L74.9558 167.333L79.8875 162.301L80.3616 161.815L85.8942 156.165L86.3683 155.679L86.7861 155.252L91.7131 150.224L92.1872 149.738L96.3818 145.457C97.6094 144.205 99.621 144.205 100.849 145.457L105.043 149.738L105.517 150.224L110.444 155.252L110.862 155.679L111.336 156.165L116.869 161.815L117.343 162.301L122.275 167.333L122.279 167.333Z" fill-rule="nonzero" fill="#FEB053"/>
	<path id="Vector" d="M105.52 150.226L91.7153 150.226L92.1895 149.74L105.046 149.74L105.52 150.226Z" fill-rule="nonzero" fill="#000000"/>
	<path id="Vector" d="M111.339 156.165L85.894 156.165L86.3705 155.681L110.864 155.681L111.339 156.165Z" fill-rule="nonzero" fill="#000000"/>
	<path id="Vector" d="M117.348 162.301L79.8875 162.301L80.3616 161.815L116.871 161.815L117.348 162.301Z" fill-rule="nonzero" fill="#000000"/>
	<path id="Vector" d="M135.539 167.516L99.1562 167.516L102.947 163.646L103.313 163.272L107.567 158.93L107.933 158.557L108.254 158.228L112.043 154.362L112.409 153.989L115.634 150.698C116.578 149.736 118.125 149.736 119.068 150.698L122.293 153.989L122.66 154.362L126.448 158.228L126.77 158.557L127.136 158.93L131.389 163.272L131.755 163.646L135.546 167.516L135.539 167.516Z" fill-rule="nonzero" fill="#FFC600"/>
	<path id="Vector" d="M122.655 154.364L112.041 154.364L112.404 153.991L122.289 153.991L122.655 154.364Z" fill-rule="nonzero" fill="#000000"/>
	<path id="Vector" d="M127.129 158.93L107.567 158.93L107.93 158.557L126.763 158.557L127.129 158.93Z" fill-rule="nonzero" fill="#000000"/>
	<path id="Vector" d="M131.746 163.646L102.947 163.646L103.313 163.275L131.382 163.275L131.746 163.646Z" fill-rule="nonzero" fill="#000000"/>
	<path id="Vector" d="M0.464844 188.233L204.934 188.233" stroke="#000000"/>
</svg>
