<svg width="240.536926" height="173.526245" viewBox="0 0 240.537 173.526" fill="none" xmlns="http://www.w3.org/2000/svg" xmlns:xlink="http://www.w3.org/1999/xlink">
	<desc>
			Created with Pixso.
	</desc>
	<defs/>
	<path id="Vector" d="M112.296 29.0369L117.355 65.4081L92.0441 65.2508C92.0441 65.2508 91.1733 66.8563 88.8894 65.962L86.6054 65.0701L59.9591 64.1898L55.0181 24.2837L112.296 29.0369Z" fill-rule="nonzero" fill="#010101"/>
	<path id="Vector" d="M86.5843 30.6144C86.5843 30.6144 91.7412 21.1712 111.933 23.0866L114.839 55.0355L113.613 61.014C113.613 61.014 106.154 57.6504 92.2741 62.4928C92.2741 62.4928 89.4761 62.9552 88.5302 62.7275C87.5842 62.4999 85.3942 60.8286 83.7863 60.3333C82.1784 59.838 77.066 57.9062 69.5406 62.1008L63.3485 58.4719L57.9146 23.0632L63.3767 17.6667C63.3767 17.6667 75.0497 15.3382 86.5796 30.6167L86.5843 30.6144Z" fill-rule="nonzero" fill="#FFFFFF"/>
	<path id="Vector" d="M111.928 23.2626L114.86 54.4768C101.022 51.2305 90.3446 58.9507 90.3446 58.9507C79.8358 52.7327 68.2731 56.1668 68.2731 56.1668L63.4001 17.108" stroke="#000000"/>
	<path id="Vector" d="M111.932 23.0561L114.864 54.2703L113.616 60.9812C113.616 60.9812 106.982 57.3851 91.8374 62.6102C91.8374 62.6102 88.5982 62.9435 87.5865 62.4693C86.5748 61.9952 81.0423 56.1857 69.5453 62.0679L63.3531 58.4391L57.9192 23.0303L63.3813 17.6339C63.3813 17.6339 74.6271 14.9228 86.5842 30.5839C86.5842 30.5839 92.4712 21.237 111.932 23.0561Z" stroke="#000000"/>
	<path id="Vector" d="M86.6616 30.4899L90.3445 58.953" stroke="#000000"/>
	<path id="Vector" d="M68.4515 56.087L63.4307 58.3428" stroke="#000000"/>
	<path id="Vector" d="M176.67 22.6101C176.67 22.6101 162.944 15.0213 156.993 14.8265C151.041 14.6293 151.799 8.41141 147.604 14.5167C143.412 20.6196 140.069 35.4263 140.069 35.4263C140.069 35.4263 128.061 64.1335 145.679 70.7435L155.073 72.9053L154.899 78.1445C154.899 78.1445 142.886 93.6107 148.266 95.6294C153.646 97.648 186.245 97.2866 186.663 91.3573C187.083 85.4257 176.659 80.426 176.659 80.426L176.767 54.7186C176.767 54.7186 182.942 56.7419 185.358 55.6152C187.773 54.4886 196.137 44.2779 190.914 40.4307C185.691 36.5835 176.673 22.6125 176.673 22.6125L176.67 22.6101Z" fill-rule="nonzero" fill="#FFFFFF"/>
	<path id="Vector" d="M31.1555 58.2935L48.1404 115.116L60.128 109.934L51.5768 89.449L37.2326 55.3734C37.2326 55.3734 46.2368 51.6178 44.8167 40.9447C43.3942 30.2716 40.27 15.6504 40.27 15.6504L0 27.3234C0 27.3234 11.0956 49.7893 15.0836 53.9792C19.0717 58.1691 31.1508 58.2935 31.1508 58.2935L31.1555 58.2935Z" fill-rule="nonzero" fill="#FEB053"/>
	<path id="Vector" d="M61.2876 95.4252C61.2876 95.4252 64.7451 84.9258 63.7147 82.2241C62.4777 78.9872 60.2923 76.9122 54.3607 77.607C48.4291 78.3041 40.2583 82.0363 39.8757 85.8342C39.4931 89.6297 41.9061 90.8363 43.6501 90.7447C45.3941 90.6532 48.4432 88.665 49.354 87.942C50.2647 87.2167 54.1213 84.0526 54.4359 84.4117C54.7527 84.7685 55.187 84.2779 54.8044 85.4938C54.6143 86.0971 53.9218 86.1276 53.3209 86.529C52.2177 87.2684 51.0253 88.1322 51.0253 88.1322L59.9144 110.14L51.1544 113.931L85.5514 136.613C85.5514 136.613 93.5627 140.441 101.41 139.211C108.944 138.033 121.47 129.475 131.955 122.637C139.638 117.626 145.98 113.952 146.503 113.734C147.74 113.218 136.358 87.9444 135.764 87.7777C135.429 87.6839 124.279 95.2914 114.275 102.721C105.82 109.002 98.3676 110.509 96.6189 110.523C92.666 110.556 92.997 110.556 83.6806 108.685L61.2852 95.4252L61.2876 95.4252Z" fill-rule="nonzero" fill="#FFFFFF"/>
	<path id="Vector" d="M50.7906 88.2941L54.8021 85.4915C55.1495 80.0317 44.1032 97.2232 40.1128 87.942C37.8125 82.5926 49.0841 76.5343 58.877 77.8628C68.6722 79.1914 61.2853 95.4252 61.2853 95.4252L80.6222 106.842C89.7578 112.236 101.199 111.812 109.909 105.753L136.011 87.6017L146.752 113.185L112.275 135.2C103.205 140.991 91.5699 140.876 82.6174 134.906L51.1544 113.926L59.9145 110.136L59.9145 110.138L50.7906 88.2941Z" stroke="#000000"/>
	<path id="Vector" d="M12.1025 33.4873C13.3161 32.7362 15.6516 31.1236 16.7948 31.9405C17.9355 32.7573 24.6652 44.8599 23.8249 46.2847C22.9845 47.7095 21.0034 47.7752 21.0034 47.7752C21.0034 47.7752 10.889 34.2384 12.1025 33.4873Z" stroke="#000000"/>
	<path id="Vector" d="M21.6254 30.0744C22.9422 29.5252 25.5055 28.3022 26.5031 29.2904C27.5006 30.2786 32.2257 43.2967 31.1695 44.5689C30.1155 45.8411 28.1461 45.5923 28.1461 45.5923L28.1485 45.5923C28.1485 45.5923 20.3086 30.6237 21.6254 30.0744Z" stroke="#000000"/>
	<path id="Vector" d="M31.8644 26.9572C33.2774 26.7577 36.066 26.2249 36.7819 27.4337C37.4978 28.6426 38.7678 42.4305 37.4251 43.3952C36.0825 44.36 34.2422 43.6206 34.2422 43.6206L34.2422 43.6229C34.2422 43.6229 30.4513 27.1567 31.8644 26.9572Z" stroke="#000000"/>
	<path id="Vector" d="M149.639 117.865C149.172 121.13 138.419 127.39 128.272 132.62C119.333 137.223 110.862 141.035 110.318 141.279L110.289 141.289L97.9919 108.784L138.187 84.292C156.688 86.4257 150.536 111.619 149.639 117.863L149.639 117.865Z" fill-rule="nonzero" fill="#000000"/>
	<path id="Vector" d="M206.849 173.026L110.874 173.247C110.874 173.247 123.488 106.72 130.495 90.9324C134.213 82.5386 152.296 78.6092 154.538 79.2195C154.538 79.2195 142.884 94.4698 164.61 92.8478C164.61 92.8478 175.293 91.7329 177.572 80.6983C186.771 83.3671 199.862 88.8129 202.387 96.1763C205.131 104.164 206.852 173.029 206.852 173.029L206.849 173.026Z" fill-rule="nonzero" fill="#E5E6E8"/>
	<path id="Vector" d="M169.688 98.1245C169.688 98.1245 166.082 107.262 170.694 115.114C174.251 121.165 179.513 141.817 179.513 141.817L208.467 139.836L169.688 98.1245Z" fill-rule="nonzero" fill="#000000"/>
	<path id="Vector" d="M178.954 128.818C178.231 128.411 171.683 124.538 162.599 125.484C162.577 125.484 162.559 125.489 162.535 125.494C161.89 125.635 151.149 129.158 152.17 136.244C152.172 136.266 152.043 135.242 152.048 135.263C152.13 135.597 152.834 139.181 155.606 138.5C158.547 137.777 164.336 133.691 165.493 132.7C166.404 131.921 168.819 134.005 168.004 135.759C167.188 137.512 164.998 141.972 158.97 142.857L156.62 142.767L152.721 140.958L151.322 141.965C151.083 142 150.468 144.23 150.444 144.472C150.318 145.758 150.332 148.598 152.674 150.448C153.465 151.072 154.554 151.29 155.303 151.387C156.493 151.539 157.341 151.1 157.817 151.084C158.059 151.077 158.27 151.229 158.338 151.462C158.632 152.459 159.573 154.931 161.606 154.516C163.15 154.201 164.354 153.685 165.059 153.328C165.382 153.164 165.77 153.372 165.814 153.734C165.967 154.985 166.542 157.22 168.713 156.739C171.467 156.131 172.969 155.893 174.166 153.915C174.326 153.652 174.673 153.572 174.922 153.753C175.725 154.34 177.37 155.323 178.255 154.262C179.454 152.823 180.222 150.833 180.361 150.117C180.499 149.401 181.731 145.368 186.449 146.403C188.684 146.894 195.174 153.157 205.413 159.487C211.143 163.032 217.978 164.794 224.022 166.409C227.571 167.358 234.097 163.02 237.421 158.142C239.369 155.281 241.73 148.183 236.538 139.434C236.529 139.42 236.519 139.406 236.51 139.392L207.925 98.9296C207.871 98.8545 207.803 98.7959 207.718 98.7559C205.594 97.7724 176.978 84.6582 173.434 89.6532C169.751 94.8407 171.284 100.441 171.683 101.399C172.058 102.298 191.498 125.846 193.897 128.75C194.043 128.926 194.282 128.984 194.496 128.9L196.047 128.285C196.228 128.214 196.432 128.247 196.583 128.372L201.092 132.47C201.512 132.824 201.251 133.777 200.714 133.662L179.952 129.219C179.9 129.207 179.001 128.841 178.957 128.815L178.954 128.818Z" fill-rule="nonzero" fill="#FFFFFF"/>
	<path id="Vector" d="M163.199 72.0533C113.7 79.3815 147.322 17.2161 147.322 17.2161" stroke="#000000"/>
	<path id="Vector" d="M155.073 72.9053L154.679 84.8389" stroke="#000000"/>
	<path id="Vector" d="M177.1 67.0629C184.738 72.065 186.52 67.645 187.421 65.3353C187.651 64.7461 187.642 64.11 187.548 63.4833C187.231 61.3614 191.738 56.81 202.136 40.9916C213.612 23.5372 188.651 15.8734 185.83 15.7818C183.008 15.6903 176.905 7.01472 167.035 1.25919C157.165 -4.49634 152.177 11.3455 152.177 11.3455C152.177 11.3455 133.305 4.97963 131.525 11.6084C129.746 18.2371 139.41 24.948 136.103 24.5419C132.793 24.1358 125.65 28.936 132.119 31.2481C138.588 33.5578 144.78 36.1187 145.201 28.3327C145.621 20.5468 149.693 16.5893 151.264 17.3498C152.834 18.1103 149.395 34.7972 155.322 34.0625C155.322 34.0625 160.554 34.1211 160.937 26.9995C160.937 26.9995 158.646 37.4989 165.829 37.7125C173.011 37.9284 172.868 38.8861 172.868 38.8861C172.868 38.8861 169.389 50.0169 174.891 49.9019C174.891 49.9019 180.487 38.02 185.281 41.3649C189.639 44.4069 188.923 50.9723 186.116 53.2069C181.447 56.925 176.347 53.5848 176.518 54.9157C176.518 54.9157 176.943 59.5751 177.1 67.0653L177.1 67.0629Z" fill-rule="nonzero" fill="#000000"/>
	<path id="Vector" d="M158.355 151.053C158.233 151.06 158.622 158.412 168.572 151.661C174.931 147.347 173.882 141.817 173.882 141.817" stroke="#000000"/>
	<path id="Vector" d="M166.047 153.192C164.612 157.039 172.549 160.067 175.997 150.462C178.837 142.547 177.062 141.378 177.062 141.378" stroke="#000000"/>
	<path id="Vector" d="M174.582 153.379C174.582 153.379 178.922 157.814 180.523 149.92C181.011 147.518 183.276 145.802 185.696 146.185C185.818 146.204 185.942 146.23 186.069 146.258C192.573 147.779 200.174 160.011 222.304 166.02C232.876 168.89 247.474 152.938 235.097 136.794C225.865 124.752 211.939 105.307 200.254 91.8689C194.374 85.1064 185.541 83.6699 179.809 90.5592C177.037 93.89 174.532 100.066 176.8 104.61C182.731 116.497 196.432 128.334 201.235 132.256C201.66 132.604 201.331 133.284 200.796 133.174L179.908 128.886C179.908 128.886 168.861 122.87 160.643 126.081C153.36 128.928 152.637 132.367 152.508 132.714C150.865 137.134 154.691 141.662 164.657 133.162C166.493 131.597 168.899 134.033 167.972 136.261C167.955 136.298 167.941 136.336 167.925 136.373C166.275 140.15 159.82 145.232 154.693 141.664C149.567 138.096 147.423 151.427 156.209 151.293C164.998 151.159 171.683 140.653 171.683 140.653" stroke="#000000"/>
	<path id="Vector" d="M176.842 54.6364L176.661 80.0434" stroke="#000000"/>
	<path id="Vector" d="M145.747 39.8579C145.747 40.6578 145.099 41.3062 144.299 41.3062C143.499 41.3062 142.851 40.6578 142.851 39.8579C142.851 39.0581 143.499 38.4097 144.299 38.4097C145.099 38.4097 145.747 39.0581 145.747 39.8579Z" fill-rule="evenodd" fill="#000000"/>
	<path id="Vector" d="M161.167 43.2662C161.167 44.066 160.518 44.7144 159.719 44.7144C158.919 44.7144 158.27 44.066 158.27 43.2662C158.27 42.4663 158.919 41.8179 159.719 41.8179C160.518 41.8179 161.167 42.4663 161.167 43.2662Z" fill-rule="evenodd" fill="#000000"/>
	<path id="Vector" d="M147.552 35.6751C147.552 35.6751 145.693 32.8466 142.175 35.4967" stroke="#000000"/>
	<path id="Vector" d="M162.409 40.0081C162.409 40.0081 161.416 36.7735 157.296 38.3321" stroke="#000000"/>
	<path id="Vector" d="M148.449 40.5527L144.372 50.524L149.031 52.9088" stroke="#000000"/>
	<path id="Vector" d="M148.707 62.7064C148.707 62.7064 150.66 59.946 153.852 61.0938" stroke="#000000"/>
	<path id="Vector" d="M181.036 82.7709C181.036 82.7709 166.976 90.3503 169.91 102.727C171.053 107.544 176.053 112.849 180.79 117.982C187.747 125.522 194.921 132.181 194.921 132.181C194.921 132.181 210.943 126.29 218.058 110.26C218.058 110.26 202.664 85.1065 190.564 82.2428C190.564 82.2428 184.64 80.7123 181.039 82.7732L181.036 82.7709Z" fill-rule="nonzero" fill="#E5E6E8"/>
	<path id="Vector" d="M169.688 98.1245C169.688 98.1245 167.807 103.664 176.863 113.626C185.917 123.588 194.902 132.104 194.902 132.104C194.902 132.104 209.54 127.632 218.039 110.183" stroke="#000000"/>
	<path id="Vector" d="M185.686 45.5735C185.686 45.5735 185.63 51.7398 178.816 51.0685" stroke="#000000"/>
	<path id="Vector" d="M136.633 137.348C135.854 137.406 135.452 136.42 136.058 135.928C140.182 132.578 163.542 137.495 158.667 140.763C153.287 144.371 134.922 145.446 133.997 145.239C133.072 145.033 134.349 141.951 138.75 141.383C164.34 138.082 143.529 136.831 136.631 137.35L136.633 137.348Z" fill-rule="nonzero" fill="#FEB053"/>
	<path id="Vector" d="M17.7947 148.483C17.7947 148.483 19.3626 172.322 62.3672 172.705C105.372 173.087 127.598 165.426 127.598 165.426C127.598 165.426 150.536 159.248 144.229 137.277L17.797 148.485L17.7947 148.483Z" fill-rule="nonzero" fill="#FEB053"/>
	<path id="Vector" d="M25.1933 155.889C25.1933 155.889 -0.603333 160.703 4.77664 153.032C10.159 145.359 22.8953 146.964 22.8953 146.964C22.8953 146.964 6.3681 152.077 13.4991 152.124C20.6325 152.173 26.1463 151.558 25.6674 153.722L25.1886 155.889L25.1933 155.889Z" fill-rule="nonzero" fill="#FEB053"/>
	<path id="Vector" d="M145.344 139.19C145.811 145.627 117.641 152.916 82.4245 155.471C47.2079 158.026 18.2806 154.88 17.8136 148.444C17.3466 142.007 45.5167 134.718 80.7333 132.163C115.95 129.607 144.877 132.754 145.344 139.19Z" fill-rule="evenodd" fill="#43305E"/>
	<path id="Vector" d="M135.312 139.359C134.206 139.176 128.645 134.235 124.413 136.324C120.183 138.413 122.885 142.07 118.237 138.796C113.59 135.521 109.787 129.153 105.996 131.407C102.205 133.66 98.0907 136.606 94.889 134.709C91.6873 132.813 90.9409 122.046 84.6454 125.341C78.3524 128.637 67.0009 137.528 64.2053 132.245C61.4073 126.961 45.4153 111.718 42.7253 121.14C40.0353 130.562 45.9035 136.81 40.9273 138.218C37.0285 139.322 30.8011 138.214 29.5453 140.613C29.4209 140.566 29.3529 140.538 29.3529 140.538C29.3529 140.538 27.5337 143.488 28.543 146.64C29.5524 149.795 31.4724 149.077 31.51 151.309C31.5475 153.539 31.3175 155.623 32.5428 156.4C33.7681 157.18 45.9059 158.001 49.8024 157.924C50.2719 157.914 50.6873 157.858 51.0535 157.764C68.3342 158.372 103.428 157.971 136.394 147.051C136.394 147.051 150.24 141.829 135.312 139.357L135.312 139.359Z" fill-rule="nonzero" fill="#FFC600"/>
	<path id="Vector" d="M28.2729 173.026L235.329 173.026" stroke="#231F20"/>
	<path id="Vector" d="M61.4565 141.289L60.75 144.31C60.75 144.31 62.8719 147.422 64.1442 146.432C65.4164 145.441 66.5478 144.875 66.5478 144.875L63.6489 142.406L61.4565 141.286L61.4565 141.289Z" fill-rule="nonzero" fill="#FEB053"/>
	<path id="Vector" d="M75.6436 125.961L74.937 128.982C74.937 128.982 77.059 132.094 78.3312 131.104C79.6034 130.113 80.7348 129.547 80.7348 129.547L77.8359 127.078L75.6436 125.958L75.6436 125.961Z" fill-rule="nonzero" fill="#FEB053"/>
	<path id="Vector" d="M85.2603 142.406L84.5537 145.427C84.5537 145.427 86.6757 148.539 87.9479 147.549C89.2201 146.558 90.3515 145.993 90.3515 145.993L87.4526 143.523L85.2603 142.404L85.2603 142.406Z" fill-rule="nonzero" fill="#43305E"/>
	<path id="Vector" d="M41.2817 150.194L40.5752 153.215C40.5752 153.215 42.6971 156.328 43.9694 155.337C45.2416 154.347 46.373 153.781 46.373 153.781L43.4741 151.312L41.2817 150.192L41.2817 150.194Z" fill-rule="nonzero" fill="#43305E"/>
	<path id="Vector" d="M113.54 143.958L112.834 146.979C112.834 146.979 114.956 150.091 116.228 149.1C117.5 148.11 118.632 147.544 118.632 147.544L115.733 145.075L113.54 143.955L113.54 143.958Z" fill-rule="nonzero" fill="#43305E"/>
	<path id="Vector" d="M74.2258 151.288L73.5193 154.309C73.5193 154.309 75.6412 157.422 76.9135 156.431C78.1857 155.44 79.3171 154.875 79.3171 154.875L76.4182 152.405L74.2258 151.286L74.2258 151.288Z" fill-rule="nonzero" fill="#FEB053"/>
	<path id="Vector" d="M67.05 24.1617C67.2519 25.2931 67.4913 26.4151 67.7683 27.53C67.9091 28.0957 68.0617 28.6591 68.2213 29.2201C68.3551 29.6848 68.4537 30.2083 68.6767 30.6402C68.841 30.957 69.1602 31.1354 69.5124 31.0228C69.8926 30.9007 70.1485 30.5533 70.3339 30.2177C70.7447 29.4712 70.9137 28.6238 71.078 27.7976C71.2775 26.7977 71.4794 25.7508 72.146 24.9456L71.9019 24.88C72.7164 26.9338 73.7093 28.9126 74.8712 30.7904C74.9369 30.896 75.1059 30.8796 75.1388 30.7552C75.4651 29.5534 75.8735 28.3774 76.3687 27.2319L76.1012 27.1967C76.6762 29.1684 77.5541 31.0416 78.709 32.741C78.7724 32.8349 78.8991 32.8372 78.9625 32.741C79.5822 31.7974 79.9953 30.7411 80.1761 29.6285L79.892 29.6285C80.2066 30.4172 80.5211 31.2059 80.8356 31.9945C81.1103 32.6823 81.3333 33.4311 81.6948 34.0813C81.9131 34.4756 82.3426 34.8817 82.8238 34.6705C83.1899 34.5108 83.4458 34.0367 83.1242 33.7128C82.9904 33.579 82.7839 33.7855 82.9177 33.9193C83.1031 34.1071 82.8426 34.3747 82.6501 34.424C82.4341 34.4803 82.2323 34.3231 82.1032 34.1658C81.7886 33.7832 81.6454 33.2292 81.4647 32.7762C81.0352 31.7011 80.6079 30.6261 80.1784 29.551C80.1314 29.4337 79.9225 29.3914 79.8944 29.551C79.716 30.6402 79.317 31.6683 78.709 32.5931L78.9625 32.5931C77.8217 30.9125 76.9509 29.0675 76.3852 27.1192C76.3523 27.0089 76.1693 26.962 76.1176 27.084C75.6153 28.2506 75.1928 29.4501 74.8595 30.6754L75.127 30.6402C73.9769 28.7835 72.9934 26.8282 72.1883 24.7978C72.153 24.7062 72.0216 24.6382 71.9441 24.7321C70.9278 25.962 70.9231 27.6051 70.4865 29.0722C70.3715 29.4571 70.2259 29.8304 70.0217 30.1754C69.7823 30.5791 69.1954 31.0838 68.9114 30.4313C68.719 29.99 68.611 29.4923 68.4795 29.0299C68.334 28.5229 68.1979 28.0135 68.0711 27.5018C67.7871 26.3705 67.543 25.2273 67.3387 24.0795C67.3059 23.8941 67.0219 23.9715 67.0547 24.157L67.05 24.1617Z" fill-rule="nonzero" fill="#000000"/>
	<path id="Vector" d="M71.057 38.1772C70.7683 37.6632 70.8951 36.9801 71.3716 36.6187L71.1697 36.567C71.611 37.5059 72.0171 38.4589 72.3903 39.426C72.571 39.8978 72.7447 40.3743 72.909 40.8508C73.0287 41.1982 73.1062 41.6559 73.3527 41.9423C73.5522 42.1747 73.848 42.231 74.1273 42.1089C74.47 41.9611 74.6296 41.6184 74.7258 41.278C75.0098 40.2828 75.2211 39.2617 75.4676 38.2547L75.2234 38.3204C75.9041 39.0481 76.1131 40.0527 76.5004 40.9423C76.7867 41.5996 77.4698 42.6817 78.2749 41.9634C78.6059 41.6676 78.7162 41.2452 78.8265 40.8344C78.8899 40.602 78.9556 40.3602 79.1082 40.1678C79.4485 39.7382 79.6786 40.3766 79.8006 40.6395C80.0635 41.2052 80.3264 41.7686 80.5917 42.3343C80.7231 42.616 80.8546 42.9 80.986 43.1817C81.0776 43.3788 81.1691 43.5948 81.3687 43.7051C81.824 43.9563 82.2066 43.4399 82.378 43.0878C82.615 42.5995 82.9155 41.6677 83.6408 41.8789C83.8215 41.9329 83.899 41.6489 83.7183 41.5949C83.3286 41.4822 82.9437 41.6489 82.6737 41.9399C82.3333 42.3061 82.2512 42.8202 81.9648 43.2192C81.8334 43.4023 81.6151 43.5736 81.4062 43.3483C81.3287 43.2638 81.2865 43.1371 81.2395 43.0338C81.0987 42.7333 80.9602 42.4329 80.8194 42.1324C80.5635 41.5855 80.31 41.0386 80.0542 40.4917C79.911 40.1865 79.7396 39.6584 79.3124 39.7006C78.9157 39.7382 78.7092 40.217 78.6059 40.5433C78.4651 40.987 78.4017 41.6324 77.9158 41.8507C77.3571 42.0996 76.9909 41.3156 76.8079 40.9165C76.3712 39.9635 76.1671 38.9002 75.4323 38.1115C75.3572 38.0317 75.2141 38.0716 75.1883 38.1772C74.9793 39.027 74.7728 39.8767 74.5639 40.7241C74.4723 41.0973 74.4066 41.7099 73.9794 41.8554C73.5123 42.0127 73.3925 41.3484 73.2893 41.0362C72.7588 39.4612 72.1344 37.919 71.4279 36.4144C71.3974 36.3487 71.2871 36.3158 71.226 36.3628C70.6205 36.8205 70.4326 37.6538 70.8059 38.3228C70.8974 38.4871 71.1509 38.3392 71.0594 38.1749L71.057 38.1772Z" fill-rule="nonzero" fill="#000000"/>
	<path id="Vector" d="M90.9526 32.1823C91.0137 31.9452 90.7132 31.7903 90.556 31.9851C90.3541 32.2339 90.6639 32.8254 90.7602 33.0766C90.9198 33.4873 91.1123 33.884 91.3447 34.2596C91.577 34.6352 91.8305 35.0342 92.1544 35.3182C92.3821 35.5178 92.7014 35.6022 92.9408 35.3746C93.1802 35.1469 93.1826 34.7455 93.206 34.438C93.2835 33.3371 93.361 32.2362 93.4361 31.133L93.1638 31.2081C93.6873 32.018 94.2107 32.8254 94.7341 33.6352C95.0111 34.0648 95.4618 35.1046 96.1425 34.8652C96.4007 34.7737 96.5439 34.5201 96.6331 34.2784C96.7786 33.8864 96.8584 33.4639 96.9664 33.0602C97.2105 32.14 97.4523 31.2222 97.6964 30.3021L97.4288 30.3373C97.7668 30.9007 98.1048 31.4616 98.4428 32.025C98.7527 32.5414 99.032 33.1094 99.3982 33.5906C99.6188 33.8817 100.02 34.222 100.398 33.9826C100.558 33.8817 100.64 33.7127 100.696 33.539C100.79 33.255 100.863 32.9639 100.95 32.6775C101.135 32.0766 101.339 31.4804 101.562 30.8913C101.621 30.734 101.677 30.5744 101.745 30.4218C101.823 30.2505 101.893 30.126 102.098 30.1472C102.37 30.1753 102.647 30.5579 102.842 30.734C103.283 31.133 103.75 31.5062 104.238 31.8489C104.597 32.1001 105.062 32.4311 105.478 32.0978C105.665 31.9475 105.769 31.7199 105.872 31.5086C106.034 31.1776 106.198 30.8467 106.36 30.5157C106.694 29.8373 107.027 29.1566 107.363 28.4782C107.445 28.3092 107.194 28.1614 107.109 28.3304C106.586 29.396 106.088 30.4828 105.534 31.5344C105.381 31.8231 105.217 32.032 104.86 31.8912C104.597 31.7879 104.356 31.5767 104.13 31.41C103.67 31.072 103.231 30.7035 102.818 30.3115C102.56 30.0673 102.227 29.6894 101.83 29.8772C101.478 30.0439 101.365 30.5885 101.243 30.9171C101.041 31.4546 100.856 31.9992 100.687 32.5461C100.605 32.8113 100.53 33.0789 100.452 33.3442C100.422 33.4498 100.396 33.5718 100.321 33.6563C100.142 33.8512 99.938 33.7291 99.7878 33.5859C99.5625 33.3747 99.424 33.0789 99.2667 32.816C99.0977 32.5343 98.9287 32.2527 98.7597 31.971C98.4006 31.3748 98.0438 30.7786 97.6847 30.1847C97.6213 30.0791 97.4499 30.0955 97.4171 30.2199C97.2223 30.9546 97.0274 31.6917 96.835 32.4264C96.7387 32.7949 96.6401 33.1611 96.5439 33.5296C96.4641 33.8277 96.4171 34.2713 96.1824 34.4967C95.8326 34.8323 95.5017 34.2666 95.3397 34.0178C95.1308 33.6939 94.9219 33.37 94.7107 33.0461C94.2811 32.3818 93.8516 31.7198 93.4243 31.0556C93.3422 30.9288 93.1614 30.9852 93.152 31.1307C93.1051 31.8138 93.0558 32.4968 93.0089 33.1822C92.9854 33.5249 92.9619 33.8653 92.9361 34.208C92.9197 34.4544 92.9666 34.9356 92.7718 35.1257C92.3751 35.513 91.6474 34.1892 91.4831 33.8958C91.3282 33.6211 91.1897 33.3348 91.0724 33.0414C91.0184 32.9029 90.9667 32.7644 90.9221 32.6236C90.901 32.5602 90.8822 32.4991 90.8634 32.4358C90.8494 32.3888 90.8353 32.3419 90.8236 32.2926C90.8236 32.2386 90.7907 32.2081 90.7297 32.201L90.6921 32.0579L90.6804 32.1024C90.6334 32.2855 90.9151 32.363 90.9644 32.1799L90.9526 32.1823Z" fill-rule="nonzero" fill="#000000"/>
	<path id="Vector" d="M92.1497 40.7334C92.5346 41.6793 93.0182 42.5807 93.6097 43.414C93.8984 43.8201 94.2106 44.2121 94.5439 44.5829C94.7739 44.8388 95.1237 45.2425 95.5086 45.0195C95.8208 44.8364 95.9617 44.3506 96.072 44.029C96.2198 43.5947 96.3091 43.1464 96.4194 42.7004C96.5297 42.2544 96.6517 41.7967 96.8794 41.3906C96.985 41.2005 97.1118 41.0057 97.2785 40.8602C97.6259 40.5527 97.917 40.7968 98.1916 41.0526C98.5789 41.4118 98.9122 41.8249 99.1798 42.2826C99.3629 42.5971 99.5389 42.9774 99.938 43.0502C100.288 43.1135 100.595 42.8812 100.792 42.6136C101.046 42.2709 101.1 41.8812 101.177 41.4728C101.262 41.0245 101.417 40.4681 101.966 40.44C102.55 40.4095 102.954 40.9259 103.259 41.3507C103.614 41.846 104.348 42.691 105.039 42.2333C105.449 41.961 105.506 41.2921 105.628 40.8578C105.797 40.2546 105.978 39.649 106.229 39.0739C106.682 38.0411 107.402 37.0646 108.473 36.6209C108.644 36.5505 108.569 36.2665 108.395 36.3369C106.59 37.081 105.853 38.9776 105.358 40.7264C105.247 41.1137 105.165 42.0549 104.635 42.0549C104.179 42.0549 103.809 41.6136 103.567 41.278C103.135 40.6771 102.44 39.8461 101.595 40.2264C100.797 40.5855 101.011 41.5784 100.684 42.2286C100.591 42.4164 100.447 42.6206 100.25 42.7145C99.9544 42.8553 99.7314 42.6417 99.5858 42.4C99.3464 42.0033 99.1164 41.616 98.8089 41.2639C98.5507 40.9681 98.2127 40.5644 97.8277 40.4376C97.4428 40.3109 97.1142 40.5691 96.8865 40.8531C96.356 41.5174 96.1987 42.3765 96.0039 43.184C95.8912 43.6558 95.7739 44.1816 95.5063 44.5947C95.2387 45.0078 94.9312 44.5782 94.7199 44.3388C94.5415 44.1393 94.3678 43.9327 94.2035 43.7215C93.4735 42.7896 92.8797 41.7521 92.436 40.6559C92.3656 40.4822 92.0816 40.5597 92.152 40.7334L92.1497 40.7334Z" fill-rule="nonzero" fill="#000000"/>
</svg>
