<svg width="259.506775" height="159.081772" viewBox="0 0 259.507 159.082" fill="none" xmlns="http://www.w3.org/2000/svg" xmlns:xlink="http://www.w3.org/1999/xlink">
	<desc>
			Created with Pixso.
	</desc>
	<defs/>
	<path id="Vector" d="M253.624 101.867C253.225 98.2597 251.61 95.7082 249.855 93.9548C247.367 91.4714 244.597 90.5935 244.597 90.5935C244.597 90.5935 192.497 86.6125 187.013 92.9267C181.53 99.2385 187.572 158.578 187.572 158.578C187.572 158.578 202.954 158.425 223.354 158.578L249 158.578L253.263 112.522C253.732 107.656 253.833 103.785 253.622 101.865L253.624 101.867Z" fill-rule="nonzero" fill="#E5E6E8"/>
	<path id="Vector" d="M242.559 139.729C228.025 120.381 209.305 125.899 209.305 125.899C209.305 125.899 248.439 147.555 242.559 139.729Z" fill-rule="nonzero" fill="#000000"/>
	<path id="Vector" d="M132.514 94.95C132.477 94.8021 132.441 94.6543 132.404 94.5064C133.343 94.1238 134.253 93.6261 135.228 93.3773C141.413 91.7906 147.612 90.2601 153.806 88.7109C154.203 88.6123 154.602 88.5114 154.98 88.4175C155.039 87.549 155.088 86.7979 155.14 86.0233C153.198 85.237 151.644 84.1126 151.058 82.0024C150.001 78.2045 151.797 74.5099 155.642 72.618C158.524 71.1979 162.022 71.787 164.271 74.0709C166.622 76.4581 167.097 79.5237 165.524 82.547C165.259 83.0563 165.205 83.3803 165.59 83.8497C165.956 84.2957 166.259 84.4107 166.836 84.2628C172.986 82.6902 179.141 81.1386 185.304 79.6223C186.304 79.3758 187.354 79.3382 188.459 79.1927C188.419 79.6598 188.41 79.9603 188.368 80.256C186.905 90.6709 185.527 101.1 183.952 111.496C182.089 123.807 179.586 136.027 178.537 148.459C178.464 149.327 177.953 149.47 177.296 149.632C168.111 151.916 158.93 154.214 149.746 156.503C149.389 156.592 149.025 156.646 148.703 156.709C146.483 147.82 144.288 139.034 142.084 130.206C143.861 129.657 145.527 129.166 147.175 128.622C147.781 128.422 148.391 128.164 148.919 127.814C152.379 125.509 154.194 120.484 152.651 116.646C151.952 114.904 150.727 113.275 149.419 111.904C147.987 110.405 145.966 110.043 143.91 110.433C141.873 110.82 140.166 111.855 138.713 113.322C138.495 113.543 138.267 113.752 137.918 114.09C137.774 113.517 137.688 113.149 137.591 112.785C136.547 108.855 135.535 104.914 134.441 100.999C133.873 98.9615 133.16 96.9663 132.512 94.9523L132.514 94.95Z" fill-rule="nonzero" fill="#FFC600"/>
	<path id="Vector" d="M208.266 79.8053L207.106 93.058C207.106 93.058 209.453 106.926 226.844 94.9734L225.257 76.1693C225.257 76.1693 214.383 69.6181 208.266 79.8053Z" fill-rule="nonzero" fill="#FFFFFF"/>
	<path id="Vector" d="M207.106 93.058C207.106 93.058 209.453 106.926 226.844 94.9734L225.257 76.1693C225.257 76.1693 214.383 69.6181 208.266 79.8053L207.106 93.058Z" stroke="#000000"/>
	<path id="Vector" d="M193.738 38.1716C193.738 38.1716 181.861 79.2115 206.935 82.169C217.505 83.4154 225.199 76.7538 229.163 72.1579C230.147 71.0194 230.912 69.7355 231.565 68.3975C232.1 67.3013 233.745 65.7451 238.778 65.9657C246.449 66.299 243.85 58.1141 239.391 56.417C234.931 54.7199 232.612 58.7502 232.612 58.7502C232.612 58.7502 228.253 58.7502 229.417 54.6683C230.581 50.5887 231.302 47.617 222.924 49.8798C214.549 52.1426 213.366 43.0797 210.136 35.8055C206.907 28.5313 198.564 34.5497 198.564 34.5497C198.564 34.5497 194.975 36.9134 193.738 38.1739L193.738 38.1716Z" fill-rule="nonzero" fill="#FFFFFF"/>
	<path id="Vector" d="M206.935 82.169C217.505 83.4154 225.199 76.7538 229.163 72.1579C230.147 71.0194 230.912 69.7355 231.565 68.3975C232.1 67.3013 233.745 65.7451 238.778 65.9657C246.449 66.299 243.85 58.1141 239.391 56.417C234.931 54.7199 232.612 58.7502 232.612 58.7502C232.612 58.7502 228.253 58.7502 229.417 54.6683C230.581 50.5887 231.302 47.617 222.924 49.8798C214.549 52.1426 213.366 43.0797 210.136 35.8055C206.907 28.5313 198.564 34.5497 198.564 34.5497C198.564 34.5497 194.975 36.9134 193.738 38.1739L193.738 38.1716C193.738 38.1716 181.861 79.2115 206.935 82.169Z" stroke="#000000"/>
	<path id="Vector" d="M224.122 89.2906L223.399 77.7209C230.687 72.3949 231.565 68.3951 231.997 67.7449C232.126 67.5501 232.518 67.3201 233.004 67.0971C234.438 66.4328 236.015 66.0971 237.611 66.0361C242.738 65.8413 242.646 64.9047 243.322 64.0409C244.071 63.0832 243.625 57.5859 239.391 56.4146C235.156 55.2433 233.14 58.0295 232.612 58.7478C232.083 59.466 229.694 57.4896 229.433 57.0413C229.171 56.5906 230.062 51.9454 229.734 49.8774C229.405 47.8095 220.866 50.2201 220.866 50.2201C215.11 51.2999 212.772 42.5562 210.803 37.3899C208.834 32.2235 205.569 32.2258 205.569 32.2258C198.304 32.8502 193.738 38.1715 193.738 38.1715L192.227 44.8871L190.926 42.4741C190.926 42.4741 186.328 25.9398 198.743 22.5386C211.16 19.1374 215.972 23.9939 215.972 23.9939C215.972 23.9939 241.285 11.0158 244.742 37.7795C248.2 64.5432 242.099 71.6508 247.425 82.3051L224.122 89.2883L224.122 89.2906Z" fill-rule="nonzero" fill="#000000"/>
	<path id="Vector" d="M199.982 51.485C200.675 51.5152 201.213 52.0742 201.184 52.7334C201.156 53.3926 200.571 53.9025 199.878 53.8723C199.185 53.842 198.646 53.2831 198.675 52.6239C198.704 51.9646 199.289 51.4547 199.982 51.485Z" fill-rule="evenodd" fill="#000000"/>
	<path id="Vector" d="M217.546 55.3509C218.239 55.3811 218.778 55.94 218.749 56.5993C218.72 57.2585 218.135 57.7684 217.442 57.7381C216.749 57.7079 216.211 57.1489 216.24 56.4897C216.268 55.8305 216.853 55.3206 217.546 55.3509Z" fill-rule="evenodd" fill="#000000"/>
	<path id="Vector" d="M206.383 54.1307L202.709 63.8273L208.383 65.9047" stroke="#000000"/>
	<path id="Vector" d="M215.239 52.5158C215.239 52.5158 216.817 50.8234 219.974 52.7224" stroke="#000000"/>
	<path id="Vector" d="M197.733 47.2837C197.733 47.2837 199.311 45.5914 202.468 47.4903" stroke="#000000"/>
	<path id="Vector" d="M207.89 72.7635C207.89 72.7635 210.784 74.3291 215.378 71.9607" stroke="#000000"/>
	<path id="Vector" d="M240.688 62.2453C240.688 62.2453 238.766 58.8534 236.318 60.7876C233.87 62.7218 233.975 63.6419 233.975 63.6419" stroke="#000000"/>
	<path id="Vector" d="M184.912 120.866C184.912 120.866 182.164 115.169 179.377 113.961C176.591 112.752 170.904 110.933 167.688 115.238C167.688 115.238 166.85 118.869 171.275 119.397C171.275 119.397 178.305 119.737 177.943 120.707C177.582 121.676 176.202 125.155 177.112 127.028C178.023 128.903 178.894 131.004 180.769 130.955L179.861 130.537L178.929 135.25L180.002 136.236C180.002 136.236 198.513 153.153 210.035 157.662C210.035 157.662 218.009 160.383 222.729 156.463L238.24 134.52C238.24 134.52 227.314 123.667 217.357 125.871L210.683 135.551L184.912 120.869L184.912 120.866Z" fill-rule="nonzero" fill="#FFFFFF"/>
	<path id="Vector" d="M178.927 135.248C178.927 135.248 201.059 155.442 211.474 158.047C215.462 159.045 218.64 158.496 220.992 157.514C223.398 156.512 225.405 152.881 226.842 150.707C237.069 135.243 247.23 124.594 250.453 107.738C253.622 91.1756 238.44 91.3774 229.032 107.205C219.624 123.033 210.62 135.466 210.62 135.466L184.91 120.862C184.91 120.862 181.053 112.817 175.842 112.592C170.632 112.364 166.404 113.813 167.913 117.061C169.725 120.967 178.448 119.04 177.882 120.627C177.317 122.214 175.697 125.57 177.962 128.824C180.227 132.077 184.713 131.389 184.713 131.389" stroke="#000000"/>
	<path id="Vector" d="M209.303 125.901C209.303 125.901 230.278 120.805 242.853 140.175C242.853 140.175 256.906 108.327 252.376 99.8324C247.845 91.3352 238.775 90.6662 234.924 92.483C228.358 95.5791 209.303 125.901 209.303 125.901Z" fill-rule="nonzero" fill="#E5E6E8"/>
	<path id="Vector" d="M242.855 140.175C230.027 120.803 209.305 125.901 209.305 125.901C209.305 125.901 219.906 107.928 225.647 102.158C231.386 96.3912 233.17 93.6237 238.949 93.9875" stroke="#000000"/>
	<path id="Vector" d="M73.832 104.057C73.832 104.057 77.0313 103.804 80.0171 106.754C83.0028 109.705 96.4692 125.122 99.1921 126.242C99.1921 126.242 99.915 127.429 100.727 125.239C101.539 123.049 108.875 101.227 108.875 101.227C108.875 101.227 109.553 98.1517 107.49 95.0509C107.49 95.0509 105.013 90.7038 105.664 86.3777C106.314 82.0517 107.849 75.4652 108.088 75.0356C108.328 74.6061 109.015 73.1649 111.586 74.1437C111.586 74.1437 113.799 74.7798 113.095 78.0402C112.391 81.3005 111.546 83.6736 110.288 84.5726L112.072 84.9341C112.072 84.9341 118.994 72.0476 119.635 71.1462C120.278 70.2425 122.519 67.2826 123.74 67.9656C124.958 68.6463 127.305 70.5617 125.794 73.1602C125.794 73.1602 123.677 75.5497 123.327 75.944C123.327 75.944 120.956 78.9556 120.116 80.8287L119.475 82.8756C119.475 82.8756 122.54 83.5211 123.116 84.9388C123.691 86.3566 124.287 86.0538 124.545 86.5115C124.803 86.9716 126.324 88.4316 126.315 89.1663C126.306 89.901 127.486 89.6076 127.369 90.9385C127.251 92.2694 127.749 96.2574 124.216 96.1541C124.216 96.1541 126.186 99.8887 121.095 102.311C121.095 102.311 120.292 103.849 120.127 105.597C119.963 107.346 119.473 131.1 119.473 131.1C119.473 131.1 120.907 143.966 110.288 150.041C110.288 150.041 104.215 153.944 92.9436 147.607C92.9436 147.607 81.179 139.919 79.6439 138.797C78.1088 137.675 66.7033 128.211 65.7973 125.786C65.7973 125.786 62.5439 120.899 64.1753 117.74C65.8066 114.578 69.8956 105.278 73.8344 104.062L73.832 104.057Z" fill-rule="nonzero" fill="#FFFFFF"/>
	<path id="Vector" d="M112.069 84.9318C112.069 84.9318 120.256 67.583 123.061 67.8271C125.866 68.0713 127.688 72.1602 124.39 74.9136C121.092 77.6669 119.132 83.061 119.132 83.061" stroke="#000000"/>
	<path id="Vector" d="M124.214 96.1494C124.214 96.1494 125.97 99.9121 121.39 102.076C117.815 103.764 122.083 135.997 116.771 143.844C110.555 153.024 102.535 154.092 89.425 145.449C76.3131 136.809 59.2295 125.385 64.9897 115.949C70.75 106.513 72.1865 97.7244 83.3126 110.041C94.4364 122.357 99.3118 127.673 100.305 126.183C101.053 125.059 105.997 109.728 108.584 102.325C109.393 100.008 109.044 97.4639 107.713 95.4053C106.41 93.3937 105.063 90.0488 105.795 85.3402C106.288 82.169 107.088 76.5473 108.328 74.6061C109.152 73.3151 113.691 73.1226 113.095 78.0401C112.499 82.9577 110.562 84.521 110.562 84.521C110.562 84.521 115.48 85.3097 116.074 87.9316" stroke="#000000"/>
	<path id="Vector" d="M126.136 89.2742C126.136 89.2742 127.822 89.8586 127.425 92.5064C127.028 95.1518 126.341 95.9569 124.791 96.2174C123.245 96.478 123.392 94.1049 123.392 94.1049" stroke="#000000"/>
	<path id="Vector" d="M123.601 85.7932C123.601 85.7932 127.524 88.9362 125.935 91.3821C124.345 93.8303 119.672 97.5789 118.402 94.565" stroke="#000000"/>
	<path id="Vector" d="M119.001 82.7864C119.001 82.7864 124.684 83.4554 123.602 88.0443C122.531 92.5886 120.656 95.0392 117.628 94.4923C115.255 94.0651 114.341 90.1381 118.426 88.7719C121.559 87.7251 119.543 85.6665 119.001 85.751" stroke="#000000"/>
	<path id="Vector" d="M59.2342 99.3863C62.6401 90.9971 73.5949 88.9808 79.7729 95.6025C81.0264 96.9475 82.3807 98.5554 83.8994 100.492C91.9271 110.724 96.5184 118.04 96.5184 118.04L83.9534 149.398L61.335 126.066C55.7954 120.352 54.1523 111.907 57.1451 104.532L59.2342 99.384L59.2342 99.3863Z" fill-rule="nonzero" fill="#000000"/>
	<path id="Vector" d="M19.9477 91.2225C19.9477 91.2225 69.4964 85.6383 74.9046 91.8657C80.3127 98.093 80.2963 158.604 80.2963 158.604C80.2963 158.604 50.2511 158.352 26.1985 158.355C9.12197 158.355 10.0938 110.94 11.0444 102.344C11.9927 93.7482 19.9477 91.2225 19.9477 91.2225Z" fill-rule="nonzero" fill="#E5E6E8"/>
	<path id="Vector" d="M55.7837 80.5799L56.9268 93.6543C56.9268 93.6543 54.6101 107.332 37.4585 95.5438L39.0218 76.9956C39.0218 76.9956 49.7488 70.5335 55.7837 80.5799Z" fill-rule="nonzero" fill="#FFFFFF"/>
	<path id="Vector" d="M56.9268 93.6543C56.9268 93.6543 54.6101 107.332 37.4585 95.5438L39.0218 76.9956C39.0218 76.9956 49.7488 70.5335 55.7837 80.5799L56.9268 93.6543Z" stroke="#000000"/>
	<path id="Vector" d="M70.1139 39.5141C70.1139 39.5141 81.8292 79.9954 57.0983 82.913C46.674 84.143 39.0829 77.5706 35.1723 73.038C34.2029 71.9137 33.447 70.6485 32.8039 69.3293C32.2757 68.2472 30.6538 66.7121 25.6893 66.9304C18.1216 67.2614 20.6872 59.1867 25.0836 57.5131C29.4825 55.8395 31.7711 59.8134 31.7711 59.8134C31.7711 59.8134 36.0713 59.8134 34.9235 55.7878C33.7757 51.7646 33.0644 48.8328 41.3269 51.0651C49.5893 53.2974 50.7536 44.3589 53.9412 37.1809C57.1264 30.0053 65.356 35.9416 65.356 35.9416C65.356 35.9416 68.8957 38.2724 70.1163 39.5165L70.1139 39.5141Z" fill-rule="nonzero" fill="#FFFFFF"/>
	<path id="Vector" d="M57.0983 82.913C46.674 84.143 39.0829 77.5706 35.1723 73.038C34.2029 71.9137 33.447 70.6485 32.8039 69.3293C32.2757 68.2472 30.6538 66.7121 25.6893 66.9304C18.1216 67.2614 20.6872 59.1867 25.0836 57.5131C29.4825 55.8395 31.7711 59.8134 31.7711 59.8134C31.7711 59.8134 36.0713 59.8134 34.9235 55.7878C33.7757 51.7646 33.0644 48.8328 41.3269 51.0651C49.5893 53.2974 50.7536 44.3589 53.9412 37.1809C57.1264 30.0053 65.356 35.9416 65.356 35.9416C65.356 35.9416 68.8957 38.2724 70.1163 39.5165L70.1139 39.5141C70.1139 39.5141 81.8292 79.9954 57.0983 82.913Z" stroke="#000000"/>
	<path id="Vector" d="M65.3222 53.6913C65.3505 54.3414 64.8203 54.8926 64.1377 54.9224C63.4552 54.9522 62.8789 54.4493 62.8505 53.7992C62.8221 53.149 63.3524 52.5978 64.0349 52.568C64.7175 52.5382 65.2938 53.0411 65.3222 53.6913Z" fill-rule="evenodd" fill="#000000"/>
	<path id="Vector" d="M47.9967 57.5066C48.0251 58.1567 47.4948 58.7079 46.8122 58.7377C46.1297 58.7675 45.5534 58.2646 45.525 57.6145C45.4966 56.9643 46.0269 56.4131 46.7094 56.3833C47.392 56.3535 47.9683 56.8564 47.9967 57.5066Z" fill-rule="evenodd" fill="#000000"/>
	<path id="Vector" d="M57.6428 55.255L61.267 64.8202L55.6687 66.8694" stroke="#000000"/>
	<path id="Vector" d="M48.9063 53.6613C48.9063 53.6613 47.35 51.9924 44.2375 53.8655" stroke="#000000"/>
	<path id="Vector" d="M66.1751 48.5019C66.1751 48.5019 64.6188 46.833 61.5063 48.7061" stroke="#000000"/>
	<path id="Vector" d="M56.1546 73.6343C56.1546 73.6343 53.3003 75.1788 48.77 72.8433" stroke="#000000"/>
	<path id="Vector" d="M23.802 63.2593C23.802 63.2593 25.6963 59.9121 28.114 61.8205C30.5293 63.7288 30.4237 64.6372 30.4237 64.6372" stroke="#000000"/>
	<path id="Vector" d="M19.8023 39.1269C19.8023 39.1269 13.3637 26.076 6.43684 31.2166C-0.489983 36.3571 -2.05562 44.6266 2.86194 45.2956C7.7795 45.9669 19.8046 43.507 19.8046 43.507L19.8046 39.1246L19.8023 39.1269Z" fill-rule="nonzero" fill="#000000"/>
	<path id="Vector" d="M13.46 95.2692C13.46 95.2692 4.37598 95.9522 5.19283 119.179C6.00969 142.405 5.38767 158.58 5.38767 158.58L28.2244 158.58L28.2244 102.299C28.2244 102.299 26.0461 92.4149 13.46 95.2692Z" fill-rule="nonzero" fill="#FFFFFF"/>
	<path id="Vector" d="M5.19283 119.179C6.00969 142.405 5.38767 158.58 5.38767 158.58L28.2244 158.58L28.2244 102.299C28.2244 102.299 26.0461 92.4149 13.46 95.2692C13.46 95.2692 4.37598 95.9522 5.19283 119.179Z" stroke="#000000"/>
	<path id="Vector" d="M32.3931 97.8043C28.6328 90.1944 16.11 88.8963 9.90146 94.6871C5.01676 99.2408 1.37377 107.848 1.50053 120.082C1.7376 143.135 1.98878 138.483 1.98878 138.483L36.1605 138.49C36.1605 138.49 40.2941 113.794 32.3931 97.8066L32.3931 97.8043Z" fill-rule="nonzero" fill="#E5E6E8"/>
	<path id="Vector" d="M65.1775 24.0949C52.9294 20.7406 48.1832 25.5291 48.1832 25.5291C48.1832 25.5291 23.2152 12.7294 19.8046 39.1269C19.8046 39.1269 9.79105 47.11 14.9316 57.7127C18.7436 65.5761 20.2576 67.1816 21.0439 69.6486C21.105 69.8388 19.7529 71.5335 19.8046 71.7354C17.8633 73.6883 15.8987 75.9487 16.0489 79.4884C16.2719 84.7393 18.7342 86.8143 27.5576 87.6406C36.3811 88.4668 38.0477 85.366 38.0477 85.366C38.0477 85.366 38.6814 80.9743 38.9279 78.4415C40.118 78.5073 40.8574 78.5237 40.8574 78.5237C40.1931 78.0378 39.5828 77.5637 39.0218 77.1036C39.0218 77.066 39.0218 77.0285 39.0218 76.9956C39.0194 76.674 38.2918 76.1201 37.1534 75.4488C33.3296 71.78 32.7123 69.1956 32.3743 68.6862C32.2452 68.4938 31.8602 68.2684 31.3814 68.0478C29.966 67.3929 28.4121 67.0619 26.8371 67.0009C21.781 66.8084 21.8702 65.8859 21.2036 65.0315C20.4642 64.0856 20.9031 58.6633 25.0813 57.5085C29.2595 56.3536 31.2476 59.1023 31.7687 59.8088C32.2898 60.5177 34.6464 58.5694 34.9046 58.1258C35.1628 57.6822 34.285 53.1003 34.6065 51.0581C34.9281 49.016 43.3549 51.3962 43.3549 51.3962C49.0329 52.4618 51.338 43.8356 53.2815 38.7396C55.2227 33.6437 58.4455 33.646 58.4455 33.646C65.6118 34.261 70.1162 39.5119 70.1162 39.5119L71.6068 46.1359L72.8907 43.7557C72.8907 43.7557 77.4257 27.4468 65.1799 24.0926L65.1775 24.0949Z" fill-rule="nonzero" fill="#000000"/>
	<path id="Vector" d="M1.98877 138.483L30.0576 138.483C30.0576 138.483 33.7757 110.451 26.7198 98.7126" stroke="#000000"/>
	<path id="Vector" d="M116.888 20.642C119.052 20.6819 121.153 20.7194 123.242 20.757C123.057 21.2124 122.834 21.6654 122.684 22.1442C122.282 23.4212 122.773 24.5455 123.946 25.1253C125.439 25.8623 127.444 25.4351 128.524 24.1371C129.153 23.3789 129.204 22.5315 128.829 21.6419C128.711 21.3626 128.547 21.1044 128.385 20.8063L134.873 20.8063C134.894 21.2875 134.927 21.7663 134.932 22.2451C134.944 23.8225 134.943 25.4023 134.951 26.9796C134.951 27.2214 134.887 27.4913 135.19 27.6181C135.509 27.7519 135.821 27.8387 136.136 27.597C136.509 27.3106 136.896 27.0688 137.385 27.0477C137.925 27.0242 138.389 27.2026 138.751 27.6064C139.525 28.4702 139.786 29.4748 139.392 30.5968C139.018 31.6601 137.99 32.1319 136.842 31.801C136.61 31.7352 136.392 31.6272 136.164 31.5427C135.742 31.3855 135.382 31.4606 135.075 31.8221C134.713 32.2493 134.57 32.7563 134.58 33.2985C134.615 35.3735 134.671 37.4485 134.72 39.5235C134.72 39.547 134.72 39.5704 134.72 39.5939C134.725 40.3145 134.683 40.3568 134.002 40.3615C130.93 40.3826 127.859 40.4037 124.787 40.4296C124.608 40.4296 124.453 40.399 124.524 40.1878C124.679 39.716 124.531 39.2747 124.442 38.8287C124.226 37.7443 123.742 36.7772 123.2 35.8336C121.846 33.4769 120.435 31.1531 119.174 28.7448C118.128 26.7473 117.407 24.5995 117.064 22.3391C116.977 21.771 116.945 21.1912 116.891 20.642L116.888 20.642Z" fill-rule="nonzero" fill="#FFC600"/>
	<path id="Vector" d="M134.289 19.1867L134.289 19.2383L134.033 19.121C133.953 19.1797 133.847 19.2196 133.713 19.2383C133.507 19.2689 133.293 19.2759 133.084 19.2736C131.369 19.2665 129.65 19.2571 127.932 19.2477C127.371 19.2454 127.258 19.3839 127.383 19.9402C127.418 20.0998 127.488 20.2547 127.552 20.4073C127.667 20.6819 127.801 20.9519 127.906 21.2312C128.263 22.1912 127.897 23.1606 126.984 23.6231C126.702 23.7662 126.388 23.8437 126.09 23.9517L125.36 23.9517C125.275 23.9282 125.193 23.9024 125.106 23.8836C124.235 23.7052 123.608 23.0597 123.547 22.2969C123.505 21.7805 123.665 21.3157 123.869 20.858C123.996 20.5763 124.13 20.2923 124.207 19.9942C124.341 19.4801 124.141 19.2524 123.613 19.2454C121.897 19.2219 120.179 19.1984 118.463 19.1679C118.153 19.1632 117.846 19.1186 117.536 19.0975C117.32 19.0834 117.238 18.9825 117.226 18.7595C117.135 16.9427 117.271 15.1494 117.79 13.403C118.505 10.9947 119.35 8.63097 121.071 6.72732C121.921 5.78606 122.836 4.88707 123.81 4.07491C126.482 1.84734 129.538 0.450699 133.019 0.0493088C133.263 0.0211487 133.509 0.00939178 133.756 0L133.756 0.636131C133.732 0.751152 133.721 0.882584 133.721 1.03281C133.704 3.46694 133.697 5.89872 133.69 8.33286C133.401 8.2507 133.096 8.20612 132.779 8.20612C130.946 8.20612 129.46 9.69196 129.46 11.5252C129.46 13.3584 130.946 14.8442 132.779 14.8442C133.169 14.8442 133.542 14.7785 133.89 14.6541C133.951 16.0578 134.016 17.4638 134.077 18.8675C134.084 19.0459 134.124 19.1515 134.289 19.182L134.289 19.1867Z" fill-rule="nonzero" fill="#FFC600"/>
	<path id="Vector" d="M153.266 19.8839C153.205 19.675 153.142 19.5483 153.137 19.4168C153.132 19.1891 153.184 18.9614 153.177 18.7361C153.079 16.147 152.881 13.5838 151.729 11.1896C150.9 9.46667 150.015 7.78601 148.821 6.27905C147.471 4.57728 145.736 3.37078 143.851 2.35676C141.476 1.07748 138.939 0.39679 136.225 0.464859C135.467 0.483643 135.204 0.751221 135.199 1.51644C135.183 3.99517 135.176 6.47388 135.169 8.95261C135.169 8.97843 135.169 9.00662 135.169 9.03479C135.169 9.27891 135.18 9.52068 135.188 9.76244C134.72 9.40331 134.136 9.18969 133.502 9.18969C131.969 9.18969 130.725 10.4338 130.725 11.9665C130.725 13.4993 131.969 14.7434 133.502 14.7434C134.202 14.7434 134.838 14.4828 135.326 14.058C135.331 14.2317 135.333 14.396 135.342 14.5603C135.347 14.6518 135.352 14.7457 135.354 14.8373C135.42 16.3419 135.49 17.8465 135.554 19.3534C135.563 19.5647 135.615 19.675 135.871 19.6774C137.971 19.6985 140.072 19.736 142.173 19.7689C142.229 19.7689 142.286 19.7501 142.384 19.7337C142.276 19.6468 142.206 19.5905 142.14 19.5318C140.978 18.4967 141.19 16.7292 142.553 15.9898C143.293 15.5884 144.081 15.5344 144.887 15.6518C146.3 15.856 147.173 16.863 147.154 18.2925C147.147 18.8089 147.015 19.3253 146.931 19.905C149.027 19.898 151.14 19.891 153.266 19.8839Z" fill-rule="nonzero" fill="#FFC600"/>
	<path id="Vector" d="M125.148 43.0797L149.063 43.0797C149.702 43.0797 150.22 43.5978 150.22 44.2369L150.22 46.4528C150.22 47.0919 149.702 47.61 149.063 47.61L125.148 47.61C124.509 47.61 123.991 47.0919 123.991 46.4528L123.991 44.2369C123.991 43.5978 124.509 43.0797 125.148 43.0797Z" fill-rule="evenodd" fill="#FEB053"/>
	<path id="Vector" d="M126.59 48.8L146.856 48.8C147.495 48.8 148.013 49.3182 148.013 49.9573L148.013 52.1731C148.013 52.8122 147.495 53.3303 146.856 53.3303L126.59 53.3303C125.951 53.3303 125.432 52.8122 125.432 52.1731L125.432 49.9573C125.432 49.3182 125.951 48.8 126.59 48.8Z" fill-rule="evenodd" fill="#FEB053"/>
	<path id="Vector" d="M131.186 54.302L141.582 54.302C142.221 54.302 142.739 54.8201 142.739 55.4592L142.739 57.675C142.739 58.3142 142.221 58.8322 141.582 58.8322L131.186 58.8322C130.546 58.8322 130.028 58.3142 130.028 57.675L130.028 55.4592C130.028 54.8201 130.546 54.302 131.186 54.302Z" fill-rule="evenodd" fill="#FEB053"/>
	<path id="Vector" d="M5.14111 158.58L259.507 158.58" stroke="#231F20"/>
</svg>
