<svg width="213.361877" height="199.289474" viewBox="0 0 213.362 199.289" fill="none" xmlns="http://www.w3.org/2000/svg" xmlns:xlink="http://www.w3.org/1999/xlink">
	<desc>
			Created with Pixso.
	</desc>
	<defs/>
	<path id="Vector" d="M102.316 118.55C102.316 118.55 135.135 94.9246 142.151 76.5336" stroke="#0D0E0F"/>
	<path id="Vector" d="M176.706 104.281L176.309 79.7236C176.309 79.7236 179.83 83.2375 182.912 76.536C182.912 76.536 186.245 68.2055 179.609 65.2667C179.609 65.2667 175.006 64.0296 171.542 70.6818L168.948 75.137C168.948 75.137 165.408 75.0595 166.706 70.3415C166.706 70.3415 172.887 56.9784 171.326 54.5232C169.763 52.0679 160.754 48.878 159.747 48.7888C158.737 48.6996 140.72 45.7654 139.292 50.3849C137.865 55.0043 132.76 65.7737 132.76 65.7737C132.76 65.7737 119.712 99.5793 147.569 100.098L147.569 104.283C147.569 104.283 145.069 108.37 147.003 114.6C148.935 120.829 152.179 122.982 159.744 123.13C159.744 123.13 173.262 124.071 176.708 104.283L176.706 104.281Z" fill-rule="nonzero" fill="#FFFFFF"/>
	<path id="Vector" d="M106.116 145.337L106.116 198.79L200.059 198.79L200.561 183.37L200.561 183.342L200.789 176.15L200.977 170.376L200.981 170.164L201.005 169.519C202.068 169.948 203.167 170.416 204.303 170.937C204.307 170.941 204.319 170.948 204.331 170.953C204.88 171.2 205.434 171.455 206 171.737C207.27 172.343 208.584 173.007 209.95 173.739C210.07 173.803 210.19 173.871 210.31 173.934C210.31 173.934 211.305 171.744 213.288 141.161C215.267 110.586 176.699 104.286 176.699 104.286C176.699 104.286 171.488 124.101 158.498 123.099C143.616 121.949 146.309 107.976 147.56 103.506C147.799 102.65 147.989 102.14 147.989 102.14C147.846 102.14 147.703 102.14 147.56 102.152C143.907 102.239 139.607 103.513 136.131 104.804C132.396 106.199 129.612 107.612 129.612 107.612L130.687 110.328L132.03 113.712L141.842 138.434L106.109 145.34L106.116 145.337Z" fill-rule="nonzero" fill="#E6E7E8"/>
	<path id="Vector" d="M150.116 99.8985C150.116 99.8985 140.666 101.598 134.436 95.0842C121.425 81.4817 138.152 54.5208 138.152 54.5208C138.152 54.5208 145.867 58.2718 147.426 50.4859C147.426 50.4859 151.249 46.6621 152.947 50.4859C152.947 50.4859 155.669 59.821 164.714 53.427C165.76 52.6852 167.077 52.4271 168.328 52.7111C170.417 53.1852 172.894 54.5678 171.211 58.5558C168.521 64.9263 165.69 74.7239 168.946 75.1347C168.946 75.1347 175.884 60.3961 181.264 67.4755C186.644 74.5549 180.98 82.7657 176.593 80.5006L176.708 104.281" stroke="#231F20"/>
	<path id="Vector" d="M163.707 92.8919C163.707 92.8919 159.064 98.232 150.116 99.9009" stroke="#231F20"/>
	<path id="Vector" d="M157.23 68.0318C157.23 68.9121 156.517 69.6256 155.637 69.6256C154.756 69.6256 154.043 68.9121 154.043 68.0318C154.043 67.1516 154.756 66.438 155.637 66.438C156.517 66.438 157.23 67.1516 157.23 68.0318Z" fill-rule="evenodd" fill="#231F20"/>
	<path id="Vector" d="M141.271 63.6729C141.271 64.5532 140.558 65.2667 139.677 65.2667C138.797 65.2667 138.083 64.5532 138.083 63.6729C138.083 62.7927 138.797 62.0791 139.677 62.0791C140.558 62.0791 141.271 62.7927 141.271 63.6729Z" fill-rule="evenodd" fill="#231F20"/>
	<path id="Vector" d="M147.566 67.053C147.566 67.053 141.949 71.2288 139.687 74.0057C139.105 74.7216 139.17 75.7638 139.837 76.4022L143.32 79.726" stroke="#231F20"/>
	<path id="Vector" d="M153.684 85.5285C153.684 85.5285 154.505 92.2535 147.001 89.4227" stroke="#231F20"/>
	<path id="Vector" d="M156.911 61.058C156.911 61.058 162.646 59.5018 162.575 66.438" stroke="#231F20"/>
	<path id="Vector" d="M145.797 58.9831C145.797 58.9831 142.459 55.5443 138.506 58.2742" stroke="#231F20"/>
	<path id="Vector" d="M147.566 100.096L147.566 106.49" stroke="#231F20"/>
	<path id="Vector" d="M179.846 75.137C179.846 75.137 176.731 69.9119 172.767 75.137" stroke="#231F20"/>
	<path id="Vector" d="M137.152 43.7491C137.358 43.573 137.499 43.4721 137.527 43.444L137.534 43.444C137.64 43.2374 137.612 42.9792 137.417 42.8102C135.258 40.8784 128.988 34.3107 135.955 28.4683C144.238 21.5344 152.449 30.3109 152.097 36.0477C152.097 36.0477 161.512 27.1256 167.389 34.9843C167.389 34.9843 169.702 38.0663 167.479 41.1765C167.272 41.4652 167.561 41.8408 167.885 41.7046C171.26 40.308 179.196 37.8128 182.607 43.4768C186.675 50.2276 181.105 53.4434 180.253 53.8917C181.551 53.3049 194.36 47.8052 196.993 58.5581C196.993 58.5581 197.646 66.7877 190.719 66.4121C189.21 66.33 188.043 67.8392 188.67 69.2124C188.905 69.7171 189.287 70.2218 189.897 70.663C192.944 72.8531 195.209 82.1976 185.154 84.005C177.722 85.3429 178.027 83.559 178.027 83.559L176.694 86.5354L176.588 80.5005C176.588 80.5005 176.6 80.5052 176.619 80.5122C176.842 80.5897 178.168 81.0239 179.595 80.5709C179.607 80.5709 179.619 80.5639 179.63 80.5592C180.699 80.2118 181.813 79.3738 182.565 77.5312C183.011 76.4632 183.327 75.0548 183.445 73.2051C183.452 73.1535 183.457 73.1042 183.457 73.0526C183.457 73.0526 183.44 72.8577 183.386 72.5291C183.386 72.4939 183.382 72.4587 183.374 72.4235C183.269 71.8179 183.057 70.8391 182.635 69.7992C182.623 69.7687 182.612 69.7476 182.6 69.7171C182.259 68.8885 181.778 68.027 181.121 67.2923L181.109 67.2806C180.422 66.5224 179.548 65.9004 178.422 65.5788L178.415 65.5718C178.415 65.5718 178.396 65.5718 178.384 65.5671C178.055 65.4849 175.208 64.9803 171.579 70.6091L171.537 70.6795L169.061 74.8999L169.018 74.9773L168.988 74.9773L168.953 75.1065L168.941 75.137C168.941 75.137 164.298 75.7707 167.995 65.6211L170.624 57.5136C170.948 56.5207 170.654 55.4127 169.838 54.7602C169.821 54.7485 169.802 54.7297 169.779 54.7179C168.417 53.6664 166.474 53.9081 165.235 55.1052C163.122 57.1591 158.702 60.0486 153.705 55.1287C153.705 55.1287 151.991 52.7509 151.604 50.4553C151.604 50.4553 150.412 49.6924 149.496 50.2792L149.489 50.2863C147.001 56.2789 142.75 57.8938 137.854 54.9996C137.196 54.6053 136.527 54.1358 135.847 53.5842C135.84 53.5772 135.835 53.5725 135.828 53.5678C130.931 49.5586 135.71 44.9556 137.142 43.7467L137.152 43.7491Z" fill-rule="nonzero" fill="#231F20"/>
	<path id="Vector" d="M179.429 150.175L170.882 176.58L181.687 176.918L179.429 150.175Z" fill-rule="nonzero" fill="#231F20"/>
	<path id="Vector" d="M123.406 179.615L128.57 181.722" stroke="#231F20"/>
	<path id="Vector" d="M76.8477 69.6232C76.8477 69.6232 83.0046 119.916 115.827 123.134C148.649 126.352 176.032 76.5336 176.032 76.5336" stroke="#0D0E0F"/>
	<path id="Vector" d="M75.9135 127.456C75.9135 127.456 74.7587 110.98 93.152 106.405C97.7855 105.253 102.619 105.192 107.325 106.004C114.191 107.189 128.802 108.468 134.246 99.2929L138.424 111.468L82.9225 130.972C82.9225 130.972 81.0118 127.305 75.9135 127.458L75.9135 127.456Z" fill-rule="nonzero" fill="#FFFFFF"/>
	<path id="Vector" d="M93.152 106.405C97.7855 105.253 102.619 105.192 107.325 106.004C114.191 107.189 128.802 108.468 134.246 99.2929L138.424 111.468L82.9225 130.972C82.9225 130.972 81.0118 127.305 75.9135 127.458L75.9135 127.456C75.9135 127.456 74.7587 110.98 93.152 106.405Z" stroke="#000000"/>
	<path id="Vector" d="M80.7889 113.562C80.7889 113.562 76.1975 99.875 54.6776 99.2906L50.2859 102.786L71.0311 128.97C71.0311 128.97 73.3667 127.181 75.9159 127.456C75.9159 127.456 77.789 116.398 80.7912 113.562L80.7889 113.562Z" fill-rule="nonzero" fill="#FFFFFF"/>
	<path id="Vector" d="M54.6776 99.2906L50.2859 102.786L71.0312 128.97C71.0312 128.97 73.3667 127.181 75.9159 127.456C75.9159 127.456 77.789 116.398 80.7912 113.562L80.7889 113.562C80.7889 113.562 76.1975 99.875 54.6776 99.2906Z" stroke="#000000"/>
	<path id="Vector" d="M171.321 180.605L140.471 106.788L81.7818 127.995C81.7818 127.995 77.9581 121.482 69.8881 126.721L48.1545 99.2906L80.8593 173.338L105.494 198.682L171.319 180.607L171.321 180.605Z" fill-rule="nonzero" fill="#FEB053"/>
	<path id="Vector" d="M69.8904 126.721L101.525 194.59L105.499 198.679L110.745 197.238L81.7841 127.993C81.7841 127.993 78.4579 121.019 69.8904 126.719L69.8904 126.721Z" fill-rule="nonzero" fill="#000000"/>
	<path id="Vector" d="M209.861 174.451C209.861 174.451 194.66 181.427 176.706 167.129C176.706 167.129 183.665 161.24 209.861 174.451Z" fill-rule="nonzero" fill="#000000"/>
	<path id="Vector" d="M179.33 166.977C179.33 166.977 175.474 175.047 167.615 174.742L149.034 171.218C147.564 170.887 146.478 168.986 146.351 167.484C146.212 165.822 145.844 163.524 144.9 161.209C144.9 161.209 141.21 152.586 136.919 153.384C136.919 153.384 133.159 154.973 134.664 159.569C134.664 159.569 136.401 162.275 137.034 163.376C137.668 164.477 138.713 167.463 137.922 168.019C137.131 168.575 122.188 160.109 122.188 160.109C122.188 160.109 117.728 157.649 115.834 160.235C115.834 160.235 114.336 162.287 118.101 165.421C118.101 165.421 114.336 166.704 116.259 169.082C118.181 171.462 119.735 171.911 119.735 171.911C119.735 171.911 117.54 173.798 118.118 175.152C118.695 176.504 120.725 178.403 124.484 179.922C124.484 179.922 119.73 179.316 119.491 180.802C119.251 182.288 119.791 183.215 122.552 184.671C125.312 186.126 144.299 194.154 152.022 195.266C152.022 195.266 171.758 200.78 183.06 197.801C183.06 197.801 194.015 197.372 203.709 177.692L206.028 172.155C206.028 172.155 194.883 162.932 179.33 166.984L179.33 166.977Z" fill-rule="nonzero" fill="#FFFFFF"/>
	<path id="Vector" d="M117.89 165.521C117.89 165.521 113.245 167.007 117.89 170.831C122.535 174.655 131.314 176.92 131.314 176.92" stroke="#231F20"/>
	<path id="Vector" d="M119.524 172.009C119.524 172.009 114.184 175.453 124.27 180.018C124.27 180.018 118.428 178.953 119.334 182.121C120.463 186.065 165.434 203.676 185.043 197.304C204.653 190.931 210.314 155.973 210.314 155.973C210.314 155.973 210.514 155.297 210.669 154.175C213.044 136.96 187.377 132.742 184.039 149.795C181.222 164.188 176.516 176.866 165.239 174.448C146.55 170.441 146.517 171.974 146.32 167.641C146.121 163.263 142.215 153.766 137.614 153.412C134.225 153.151 132.943 158.437 135.49 161.623C138.039 164.808 138.746 167.219 137.685 167.852C136.624 168.486 120.033 156.703 116.59 159.287C112.909 162.047 116.733 166.895 132.093 171.373" stroke="#231F20"/>
	<path id="Vector" d="M206.746 127.242C206.746 127.242 188.2 121.153 183.457 134.887C178.713 148.621 176.703 167.129 176.703 167.129C176.703 167.129 192.726 164.179 209.859 174.451C209.859 174.451 216.372 129.364 206.746 127.242Z" fill-rule="nonzero" fill="#E6E7E8"/>
	<path id="Vector" d="M95.3536 11.6478L110.052 70.7852L68.2567 74.9469C68.2567 74.9469 67.1017 77.7472 63.1771 76.6722L59.2525 75.5995L15.1235 78.7988L0 13.8073L95.3536 11.6478Z" fill-rule="nonzero" fill="#010101"/>
	<path id="Vector" d="M53.1965 18.7412C53.1965 18.7412 60.0554 2.25621 93.713 1.89005L104.088 54.1053L103.109 64.1846C103.109 64.1846 90.2109 59.9383 68.1534 70.3532C68.1534 70.3532 63.6162 71.6043 62.0153 71.3954C60.4145 71.1865 56.5085 68.8087 53.7692 68.2712C51.03 67.736 42.2535 65.438 30.5711 73.6746L19.7196 68.7665L4.56787 11.2839L12.6402 1.42293C12.6402 1.42293 31.4959 -4.45935 53.1942 18.7412L53.1965 18.7412Z" fill-rule="nonzero" fill="#FFFFFF"/>
	<path id="Vector" d="M93.7341 2.18575L104.022 53.1875C80.6198 50.2464 64.3485 64.8511 64.3485 64.8511C45.92 56.4244 27.4374 64.1094 27.4374 64.1094L12.5745 0.502731" stroke="#000000"/>
	<path id="Vector" d="M93.7084 1.8409L103.996 52.8427L103.107 64.1355C103.107 64.1355 91.5324 59.3611 67.4516 70.6257C67.4516 70.6257 62.1632 71.7406 60.4098 71.135C58.6563 70.5294 48.5138 61.9079 30.5664 73.6232L19.715 68.715L4.56323 11.2324L12.6356 1.37144C12.6356 1.37144 30.719 -5.0648 53.1896 18.6897L53.1919 18.692C53.1919 18.692 61.2737 2.23994 93.7084 1.8409Z" stroke="#000000"/>
	<path id="Vector" d="M53.3022 18.5229L64.3509 64.8488" stroke="#000000"/>
	<path id="Vector" d="M27.7216 63.9451L19.8276 68.5458" stroke="#000000"/>
	<path id="Vector" d="M83.4516 14.9799C91.0253 18.6021 94.2177 27.7009 90.5821 35.3026C86.9464 42.9043 77.8595 46.1304 70.2859 42.5082C62.7122 38.886 59.5198 29.7872 63.1554 22.1855C66.791 14.5837 75.8779 11.3577 83.4516 14.9799Z" fill-rule="evenodd" fill="#FFC600"/>
	<path id="Vector" d="M71.2025 29.2312L69.4702 22.9968C69.2566 22.2246 69.9584 21.5086 70.7331 21.7105L77.0003 23.3278L83.2676 24.9451C84.0446 25.1446 84.3121 26.1117 83.7511 26.6821L79.2186 31.2992L74.6859 35.9163C74.1249 36.489 73.1532 36.2378 72.9396 35.4656L71.2072 29.2312L71.2025 29.2312Z" fill-rule="nonzero" fill="#FEB053"/>
	<path id="Vector" d="M69.4702 22.9968C69.2566 22.2246 69.9584 21.5086 70.7331 21.7105L77.0003 23.3278L83.2676 24.9451C84.0446 25.1446 84.3121 26.1117 83.7511 26.6821L79.2186 31.2992L74.6859 35.9163C74.1249 36.489 73.1532 36.2378 72.9396 35.4656L71.2072 29.2312L71.2025 29.2312L69.4702 22.9968Z" stroke="#231F20"/>
	<path id="Vector" d="M188.261 72.8132C188.261 79.5673 182.786 85.0426 176.032 85.0426C169.278 85.0426 163.803 79.5673 163.803 72.8132C163.803 66.0592 169.278 60.5839 176.032 60.5839C182.786 60.5839 188.261 66.0592 188.261 72.8132Z" fill-rule="evenodd" fill="#FEB053"/>
	<path id="Vector" d="M167.882 41.707C169.342 41.146 171.624 40.4723 171.624 40.4723C171.624 40.4723 172.999 34.1722 179.652 41.3384C187.907 50.2346 177.882 62.0814 177.882 62.0814L185.309 64.8488C185.309 64.8488 195.761 47.5024 189.329 37.395C182.898 27.2876 172.309 26.0999 167.885 41.707L167.882 41.707Z" fill-rule="nonzero" fill="#FEB053"/>
	<path id="Vector" d="M54.0181 198.789L200.059 198.789" stroke="#000000"/>
</svg>
