<svg width="184.534637" height="182.239197" viewBox="0 0 184.535 182.239" fill="none" xmlns="http://www.w3.org/2000/svg" xmlns:xlink="http://www.w3.org/1999/xlink">
	<desc>
			Created with Pixso.
	</desc>
	<defs/>
	<path id="Vector" d="M146.813 123.629C146.813 123.629 133.136 131.617 129.03 152.099C129.03 152.099 146.17 141.935 146.813 123.629Z" fill-rule="nonzero" fill="#000000"/>
	<path id="Vector" d="M123.965 93.1025C123.965 93.1025 120.876 91.7435 122.822 83.7674C124.767 75.7914 128.901 71.0076 130.765 72.7023C132.626 74.397 157.176 85.7039 157.176 85.7039L180.518 87.6263C184.187 94.3513 182.651 98.2149 182.651 98.2149L123.967 93.1002L123.965 93.1025Z" fill-rule="nonzero" fill="#FFFFFF"/>
	<path id="Vector" d="M122.822 83.7674C124.767 75.7914 128.901 71.0076 130.765 72.7023C132.626 74.397 157.176 85.7039 157.176 85.7039L180.518 87.6263C184.187 94.3513 182.651 98.2149 182.651 98.2149L123.967 93.1002L123.965 93.1025C123.965 93.1025 120.876 91.7435 122.822 83.7674Z" stroke="#231F20"/>
	<path id="Vector" d="M149.283 96.2456C153.364 97.3629 175.328 109.595 175.328 109.595C175.328 109.595 183.48 106.696 184.011 98.6938L129.251 79.5259C129.251 79.5259 128.303 89.8938 123.962 93.1002C123.962 93.1002 145.198 95.1283 149.283 96.2432L149.283 96.2456Z" fill-rule="nonzero" fill="#FFFFFF"/>
	<path id="Vector" d="M175.328 109.595C175.328 109.595 183.48 106.696 184.011 98.6938L129.251 79.5259C129.251 79.5259 128.303 89.8938 123.962 93.1002C123.962 93.1002 145.198 95.1283 149.283 96.2432L149.283 96.2456C153.364 97.3629 175.328 109.595 175.328 109.595Z" stroke="#231F20"/>
	<path id="Vector" d="M131.021 72.8994C131.021 72.8994 131.593 75.0049 130.847 80.0844" stroke="#231F20"/>
	<path id="Vector" d="M149.224 96.5179C149.224 96.5179 153.127 91.0675 153.268 83.8918L158.831 85.8401C158.831 85.8401 158.965 92.9735 154.252 98.9121L149.224 96.5179Z" fill-rule="nonzero" fill="#FFC600"/>
	<path id="Vector" d="M153.268 83.8918L158.831 85.8401C158.831 85.8401 158.965 92.9735 154.252 98.9121L149.224 96.5179C149.224 96.5179 153.127 91.0675 153.268 83.8918Z" stroke="#000000"/>
	<path id="Vector" d="M126.547 89.5722C126.547 89.5722 123.676 90.0651 123.77 86.009C123.899 80.4788 126.774 76.6316 126.774 76.6316C126.774 76.6316 127.476 78.4977 130.957 79.2676" stroke="#231F20"/>
	<path id="Vector" d="M144.137 124.972L146.82 126.976C146.82 126.976 147.919 109.879 147.616 108.968C147.311 108.057 141.044 100.067 141.044 100.067C141.044 100.067 135.98 94.0133 136.405 93.2481C136.83 92.4829 138.68 87.4057 141.602 86.2461C141.602 86.2461 144.215 84.4223 144.41 86.2461C144.602 88.07 143.91 92.6941 144.072 93.1025C144.233 93.511 144.672 94.187 146.337 94.2198C148.001 94.2527 154.712 93.687 155.953 97.3277C157.195 100.968 157.209 100.088 157.209 100.088L162.223 103.163C162.223 103.163 166.617 114.146 168.286 120.047C169.957 125.948 173.215 138.527 173.112 147.569C173.009 156.611 169.718 162.873 164.164 164.62C157.845 166.605 148.836 162.657 142.867 158.902C136.898 155.146 129.544 149.555 129.544 149.555C129.544 149.555 130.692 136.483 144.137 124.972Z" fill-rule="nonzero" fill="#FFFFFF"/>
	<path id="Vector" d="M161.967 102.346C161.967 102.346 187.855 163.333 161.127 165.199C143.931 166.399 114.224 134.882 113.878 136.525C113.878 136.525 100.309 118.362 109.719 107.851C119.129 97.3394 146.823 126.979 146.823 126.979" stroke="#000000"/>
	<path id="Vector" d="M92.2976 100.823C92.2976 100.823 109.721 97.9989 128.753 109.806C147.776 121.608 146.813 123.629 146.813 123.629C146.813 123.629 131.873 131.328 129.03 152.099L106.076 139.1C106.076 139.1 85.5914 118.087 92.2976 100.823Z" fill-rule="nonzero" fill="#E6E7E8"/>
	<path id="Vector" d="M146.813 123.629C146.813 123.629 132.699 131.307 129.03 152.099" stroke="#000000"/>
	<path id="Vector" d="M148.944 75.9114L146.545 86.7567C146.428 87.2871 146.763 87.8121 147.293 87.9294L150.183 88.5685C150.714 88.6858 151.239 88.351 151.356 87.8206L153.754 76.9753C153.872 76.4449 153.537 75.9199 153.007 75.8026L150.116 75.1635C149.586 75.0462 149.061 75.3811 148.944 75.9114Z" fill-rule="nonzero" fill="#FFFFFF"/>
	<path id="Vector" d="M148.944 75.9114C149.061 75.3811 149.586 75.0462 150.116 75.1635L153.007 75.8026C153.537 75.9199 153.872 76.4449 153.754 76.9753L151.356 87.8206C151.239 88.351 150.714 88.6858 150.183 88.5685L147.293 87.9294C146.763 87.8121 146.428 87.2871 146.545 86.7567L148.944 75.9114Z" stroke="#000000"/>
	<path id="Vector" d="M153.531 79.4256L151.411 89.0104C151.294 89.5408 151.629 90.0658 152.159 90.1831L155.049 90.8222C155.58 90.9395 156.105 90.6046 156.222 90.0743L158.342 80.4895C158.459 79.9591 158.124 79.4341 157.594 79.3168L154.704 78.6777C154.173 78.5604 153.648 78.8953 153.531 79.4256Z" fill-rule="nonzero" fill="#FFFFFF"/>
	<path id="Vector" d="M153.531 79.4256C153.648 78.8953 154.173 78.5604 154.704 78.6777L157.594 79.3168C158.124 79.4341 158.459 79.9591 158.342 80.4895L156.222 90.0743C156.105 90.6046 155.58 90.9395 155.049 90.8222L152.159 90.1831C151.629 90.0658 151.294 89.5408 151.411 89.0104L153.531 79.4256Z" stroke="#000000"/>
	<path id="Vector" d="M158.34 80.4894L156.22 90.0741C156.103 90.6045 156.438 91.1295 156.968 91.2468L159.858 91.8859C160.389 92.0032 160.914 91.6684 161.031 91.138L163.151 81.5532C163.268 81.0229 162.933 80.4978 162.403 80.3806L159.513 79.7414C158.982 79.6241 158.457 79.959 158.34 80.4894Z" fill-rule="nonzero" fill="#FFFFFF"/>
	<path id="Vector" d="M158.34 80.4894C158.457 79.959 158.982 79.6241 159.513 79.7414L162.403 80.3806C162.933 80.4978 163.268 81.0229 163.151 81.5532L161.031 91.138C160.914 91.6684 160.389 92.0032 159.858 91.8859L156.968 91.2468C156.438 91.1295 156.103 90.6045 156.22 90.0741L158.34 80.4894Z" stroke="#000000"/>
	<path id="Vector" d="M163.458 80.1561L161.338 89.7409C161.221 90.2712 161.556 90.7963 162.086 90.9135L164.976 91.5527C165.507 91.67 166.032 91.3351 166.149 90.8047L168.268 81.22C168.386 80.6896 168.051 80.1646 167.521 80.0473L164.63 79.4082C164.1 79.2909 163.575 79.6257 163.458 80.1561Z" fill-rule="nonzero" fill="#FFFFFF"/>
	<path id="Vector" d="M163.458 80.1561C163.575 79.6257 164.1 79.2909 164.63 79.4082L167.521 80.0473C168.051 80.1646 168.386 80.6896 168.268 81.22L166.149 90.8047C166.032 91.3351 165.507 91.67 164.976 91.5527L162.086 90.9135C161.556 90.7963 161.221 90.2712 161.338 89.7409L163.458 80.1561Z" stroke="#000000"/>
	<path id="Vector" d="M155.731 105.827C157.482 102.985 158.209 99.2477 154.881 95.7949C151.552 92.3443 143.626 95.6986 144.065 92.3889C144.501 89.0769 145.377 84.9973 143.189 85.2884C141.001 85.5795 135.605 91.3585 136.919 94.1283C137.884 96.1634 143.438 102.837 146.32 106.24C147.424 107.543 147.956 109.226 147.799 110.928C146.909 120.617 144.374 153.637 150.916 155.378" stroke="#000000"/>
	<path id="Vector" d="M110.691 65.8531C107.548 63.0809 105.766 54.7129 105.766 54.7129C102.668 59.4239 98.3819 57.4052 98.3819 57.4052C98.3819 57.4052 79.1436 73.2893 78.1389 75.9018C77.6366 77.2069 75.3292 81.2724 74.0382 85.9716C72.7496 81.2724 70.4398 77.2069 69.9375 75.9018C68.9329 73.2893 49.3448 57.3536 49.3448 57.3536C49.3448 57.3536 46.2863 59.6516 42.5682 55.0532C42.5682 55.0532 40.5261 63.0833 37.3831 65.8554C34.2401 68.6276 24.2735 80.526 34.4466 86.7533C34.4466 86.7533 31.8106 96.1588 36.2775 99.8581C40.3618 103.241 49.6429 103.832 53.2601 97.0015C53.2601 97.0015 64.8369 107.538 72.0101 99.8581C72.9186 98.884 73.5781 97.8136 74.0382 96.6823C74.4983 97.8136 75.1578 98.884 76.0663 99.8581C83.2396 107.538 94.8163 97.0015 94.8163 97.0015C98.4335 103.834 107.478 102.933 111.799 99.8581C116.01 96.863 113.63 86.7533 113.63 86.7533C123.801 80.5236 113.834 68.6252 110.693 65.8554L110.691 65.8531Z" fill-rule="nonzero" fill="#000000"/>
	<path id="Vector" d="M100.543 43.6312C96.4474 44.5537 95.6869 49.4502 95.6799 49.4877C95.3771 48.8633 95.0555 48.2531 94.7081 47.6615C94.7081 47.6615 86.671 34.2656 81.0446 34.3994C75.4182 34.5332 60.8157 30.6484 54.3842 44.7157L50.7411 53.8185C50.7411 53.8185 50.6003 54.194 50.3867 54.8606L52.288 48.3094C52.288 48.3094 50.3585 43.0984 46.7625 43.4552C46.7625 43.4552 40.3896 44.6242 40.2206 49.4948C40.0516 54.363 44.3566 59.4472 49.5886 57.6093C47.6897 64.8952 45.8776 78.6903 57.2596 86.2321C57.2596 86.2321 63.5198 89.2695 65.8553 89.6802L64.4399 99.5435C64.4399 99.5435 70.6156 107.717 77.9743 105.421C77.9743 105.421 83.4717 104.116 86.2086 98.4637L84.7791 89.0112C84.7791 89.0112 100.576 84.2369 99.9872 68.5617C99.9872 68.5617 99.8533 63.4399 98.452 57.5388C105.109 59.2101 107.973 52.8537 107.923 50.0487C107.876 47.2437 104.656 42.704 100.543 43.6312Z" fill-rule="nonzero" fill="#FFFFFF"/>
	<path id="Vector" d="M65.8555 89.6802L64.4424 100.823" stroke="#000000"/>
	<path id="Vector" d="M84.7815 89.0112L86.6406 100.222" stroke="#000000"/>
	<path id="Vector" d="M86.2109 98.4639L91.7528 99.485C110.487 102.935 124.084 119.265 124.084 138.314L124.084 181.264L28.8081 181.264L28.8081 138.839C28.8081 118.524 40.223 100.091 64.4422 99.546C64.4422 99.546 76.4979 114.059 86.2109 98.4662L86.2109 98.4639Z" fill-rule="nonzero" fill="#E6E7E8"/>
	<path id="Vector" d="M63.0503 165.559L76.174 115.968L119.115 118.981C119.115 118.981 100.63 156.05 100.628 161.059L100.628 166.066L63.0503 165.559Z" fill-rule="nonzero" fill="#43305E"/>
	<path id="Vector" d="M63.1584 125.493L95.2247 125.493L87.8566 168.713L60.5952 168.713C60.5952 168.713 63.5153 128.117 63.1584 125.493Z" fill-rule="nonzero" fill="#FFC600"/>
	<path id="Vector" d="M19.7548 152.998L16.6658 151.285C16.6658 151.285 19.4872 149.01 29.6016 148.811C29.6016 148.811 40.4531 148.459 46.7626 151.289L42.4882 153.001C42.4882 153.001 26.3835 154.712 19.7524 153.001L19.7548 152.998Z" fill-rule="nonzero" fill="#000000"/>
	<path id="Vector" d="M60.9214 30.4911C60.9214 30.4911 41.77 63.447 50.2578 78.7184C55.9922 89.037 67.299 90.5463 74.0381 90.4431C80.7748 90.5463 92.084 89.037 97.8184 78.7184C106.306 63.447 87.1547 30.4911 87.1547 30.4911L60.9214 30.4911Z" stroke="#000000"/>
	<path id="Vector" d="M95.6799 48.9079C95.6799 48.9079 97.6658 40.4694 104.564 44.556C113.151 49.6402 103.13 60.9096 98.3629 57.4778" stroke="#000000"/>
	<path id="Vector" d="M104.564 48.3749C104.564 48.3749 100.21 45.4948 98.2009 51.3231" stroke="#000000"/>
	<path id="Vector" d="M52.4642 48.9079C52.4642 48.9079 50.4785 40.4694 43.5798 44.556C34.9934 49.6402 45.014 60.9096 49.7813 57.4778" stroke="#000000"/>
	<path id="Vector" d="M43.5798 48.3749C43.5798 48.3749 47.934 45.4948 49.9433 51.3231" stroke="#000000"/>
	<path id="Vector" d="M42.7346 150.123L41.5305 163.674L80.6761 164.023C80.6761 164.023 86.1688 157.195 89.9878 156.644C89.9878 156.644 99.4332 152.958 100.771 157.392C101.63 160.233 100.447 160.54 98.4263 160.796C96.4053 161.052 91.4267 161.566 91.2976 163.279C91.2014 164.559 91.0629 165.422 92.2975 165.753C93.5298 166.084 96.2551 165.943 97.8066 165.676C99.3605 165.408 107.132 163.793 107.132 163.793C107.132 163.793 112.376 163.298 112.287 165.15C112.198 167.002 110.94 168.361 110.94 168.361C110.94 168.361 115.864 168.284 115.768 170.992C115.768 170.992 115.895 173.805 111.005 174.021C111.005 174.021 111.315 174.42 111.414 175.37C111.512 176.321 111.057 178.013 109.632 177.872C108.207 177.729 106.196 178.199 106.196 178.199C106.196 178.199 108.578 179.288 108.637 179.931C108.698 180.574 108.172 181.398 107.247 181.539C106.323 181.677 89.9526 181.539 89.9526 181.539L23.548 181.539C23.548 181.539 18.9003 181.363 18.1562 171.605L20.0881 150.674C20.0881 150.674 25.86 146.837 42.7346 150.123Z" fill-rule="nonzero" fill="#FFFFFF"/>
	<path id="Vector" d="M110.381 168.436C110.381 168.436 114.806 168.427 115.456 169.441C116.399 170.91 115.336 173.126 113.665 173.528C111.994 173.929 94.3772 174.265 94.3772 174.265" stroke="#000000"/>
	<path id="Vector" d="M110.848 173.765C110.848 173.765 112.395 175.936 110.921 177.41C109.447 178.884 93.9971 177.828 93.9971 177.828" stroke="#000000"/>
	<path id="Vector" d="M106.196 178.203C106.196 178.203 109.848 179.21 108.44 180.828C107.034 182.445 84.7229 181.264 84.7229 181.264C84.7229 181.264 31.5851 181.919 23.5809 181.264C16.6071 180.694 18.3488 165.913 18.3488 165.913C18.3488 165.913 19.1516 152.425 23.5809 130.657C23.5809 130.657 35.6295 118.934 44.4717 130.657L41.5657 163.397L80.7114 163.746C80.7114 163.746 86.5045 156.749 92.6356 155.576C94.8608 155.148 99.6023 154.773 100.806 157.115C101.459 158.383 101.342 161.47 96.1401 161.333C92.7412 161.244 91.7647 162.392 91.3352 163.005C90.6263 164.016 91.2624 165.664 92.2999 165.758C99.5154 166.413 112.458 160.509 112.463 165.69C112.468 171.69 92.2999 170.044 92.2999 170.044" stroke="#000000"/>
	<path id="Vector" d="M52.4617 102.661L46.7625 151.015C30.1649 145.792 16.5413 151.015 16.5413 151.015L18.1585 139.86C22.4728 105.454 52.4641 102.661 52.4641 102.661L52.4617 102.661Z" fill-rule="nonzero" fill="#E6E7E8"/>
	<path id="Vector" d="M46.7625 151.017C46.7625 151.017 31.6132 145.74 16.5413 151.017" stroke="#000000"/>
	<path id="Vector" d="M46.7626 163.211C46.7626 163.211 44.1407 143.931 40.2208 137.077C36.3008 130.223 28.8059 119.507 28.8059 119.507L79.5706 114.684C79.5706 114.684 83.0493 137.912 82.9202 149.613C82.7911 161.312 80.709 163.516 80.709 163.516L46.7603 163.211L46.7626 163.211Z" fill-rule="nonzero" fill="#FEB053"/>
	<path id="Vector" d="M44.2676 128.117C44.4037 128.88 44.6595 129.617 45.0375 130.295C45.3145 130.793 45.69 131.34 46.2863 131.462C47.3848 131.687 47.9669 130.392 48.1359 129.525C48.3049 128.659 48.3824 126.782 49.6945 126.889C50.2884 126.939 50.6663 127.509 50.9057 127.993C51.1639 128.514 51.2766 129.087 51.5254 129.61C51.9526 130.514 52.9525 131.509 53.9548 130.692C54.4806 130.263 54.7411 129.549 55.0322 128.962C55.2106 128.605 55.3867 128.246 55.5651 127.889C55.666 127.685 55.7693 127.481 55.8702 127.277C55.9617 127.091 56.0674 126.69 56.3561 126.746C56.5063 126.777 56.7011 126.955 56.8232 127.042C57.0133 127.178 57.2011 127.317 57.3842 127.462C57.687 127.702 57.9804 127.955 58.2621 128.218C58.5438 128.481 58.7949 128.756 59.0602 129.023C59.2761 129.241 59.5296 129.441 59.8512 129.455C60.4263 129.483 60.8699 128.964 61.0906 128.49C61.2173 128.218 61.2877 127.925 61.3863 127.641C61.4379 127.493 61.4919 127.345 61.5647 127.204C61.6281 127.084 61.7501 126.831 61.891 126.782C62.1163 126.704 62.4355 127.073 62.5482 127.218C62.7102 127.427 62.8369 127.662 62.9778 127.885C63.2642 128.335 63.6186 128.788 64.1843 128.866C64.8016 128.953 65.4213 128.601 65.7828 128.117C66.264 127.472 66.3367 126.622 66.4025 125.847L66.1818 125.974C67.2193 126.751 68.2568 127.528 69.2919 128.305C69.3577 128.354 69.4516 128.312 69.4938 128.253C70.0666 127.408 70.6393 126.561 71.212 125.716L70.982 125.746C71.9139 126.556 73.4443 126.451 74.233 125.488C74.3527 125.343 74.1461 125.134 74.0264 125.282C73.3434 126.113 72.0101 126.251 71.1909 125.54C71.1158 125.474 71.0149 125.488 70.9609 125.57C70.3881 126.415 69.8154 127.263 69.2427 128.108L69.4445 128.056C68.407 127.279 67.3695 126.502 66.3344 125.725C66.2358 125.652 66.1208 125.753 66.1138 125.852C66.0527 126.577 65.9917 127.399 65.5199 127.99C65.1326 128.476 64.3885 128.805 63.8204 128.42C63.1092 127.939 62.9801 126.751 62.0764 126.514C61.8441 126.453 61.7337 126.509 61.5694 126.69C61.3816 126.894 61.2619 127.145 61.1633 127.401C60.9356 127.997 60.8276 128.793 60.1774 129.096C59.7784 129.281 59.4709 129.025 59.2057 128.749C58.9404 128.472 58.6776 128.197 58.3959 127.939C57.8748 127.46 57.3138 126.99 56.7176 126.608C56.5275 126.486 56.2974 126.371 56.0721 126.476C55.7998 126.603 55.6942 126.983 55.5721 127.23C55.2177 127.946 54.8608 128.662 54.5064 129.375C54.2341 129.922 53.882 130.68 53.1732 130.701C52.5746 130.718 52.1521 130.152 51.8939 129.68C51.3916 128.756 51.3235 127.554 50.4245 126.875C50.0677 126.605 49.6077 126.514 49.1804 126.666C48.7532 126.819 48.4551 127.211 48.2744 127.624C47.8143 128.676 48.0631 130.129 47.1289 130.948C46.4975 131.502 45.8121 130.981 45.4482 130.396C44.9976 129.678 44.7089 128.868 44.5587 128.035C44.5258 127.85 44.2418 127.927 44.2746 128.112L44.2676 128.117Z" fill-rule="nonzero" fill="#FFFFFF"/>
	<path id="Vector" d="M45.9692 135.213C46.1054 135.976 46.3612 136.713 46.7391 137.391C47.0161 137.889 47.3917 138.436 47.9879 138.558C49.0864 138.783 49.6686 137.487 49.8376 136.621C50.0066 135.755 50.084 133.877 51.3962 133.985C51.9901 134.034 52.3679 134.605 52.6074 135.088C52.8655 135.61 52.9782 136.182 53.2271 136.706C53.6542 137.609 54.6542 138.605 55.6565 137.788C56.1823 137.358 56.4428 136.645 56.7339 136.058C56.9123 135.701 57.0883 135.342 57.2667 134.985C57.3676 134.781 57.4709 134.577 57.5718 134.372C57.6634 134.187 57.769 133.786 58.0577 133.842C58.2079 133.872 58.4028 134.051 58.5248 134.138C58.715 134.274 58.9028 134.412 59.0859 134.558C59.3887 134.797 59.6821 135.051 59.9637 135.314C60.2454 135.577 60.4966 135.851 60.7618 136.119C60.9778 136.337 61.2313 136.537 61.5529 136.551C62.1279 136.579 62.5716 136.06 62.7922 135.586C62.9189 135.314 62.9894 135.02 63.088 134.736C63.1396 134.588 63.1936 134.441 63.2664 134.3C63.3297 134.18 63.4518 133.927 63.5927 133.877C63.818 133.8 64.1372 134.168 64.2499 134.314C64.4119 134.523 64.5386 134.757 64.6794 134.98C64.9658 135.431 65.3203 135.884 65.8859 135.962C66.5033 136.048 67.1229 135.696 67.4844 135.213C67.9656 134.567 68.0384 133.718 68.1041 132.943L67.8835 133.07C68.921 133.847 69.9585 134.624 70.9936 135.401C71.0593 135.45 71.1533 135.408 71.1955 135.349C71.7682 134.504 72.3409 133.657 72.9137 132.812L72.6837 132.842C73.6155 133.652 75.1459 133.546 75.9346 132.584C76.0544 132.438 75.8478 132.229 75.7281 132.377C75.045 133.208 73.7118 133.347 72.8926 132.636C72.8174 132.57 72.7166 132.584 72.6625 132.666C72.0898 133.511 71.5171 134.358 70.9443 135.203L71.1462 135.152C70.1087 134.375 69.0712 133.598 68.0361 132.821C67.9374 132.748 67.8224 132.849 67.8154 132.948C67.7544 133.673 67.6934 134.495 67.2216 135.086C66.8342 135.572 66.0901 135.901 65.5221 135.516C64.8109 135.034 64.6818 133.847 63.7781 133.61C63.5457 133.549 63.4354 133.605 63.2711 133.786C63.0833 133.99 62.9636 134.241 62.865 134.497C62.6373 135.093 62.5293 135.889 61.8791 136.192C61.4801 136.377 61.1726 136.121 60.9073 135.844C60.6421 135.567 60.3792 135.293 60.0975 135.034C59.5764 134.556 59.0154 134.086 58.4193 133.704C58.2291 133.581 57.9991 133.466 57.7737 133.572C57.5015 133.699 57.3958 134.079 57.2737 134.326C56.9193 135.041 56.5625 135.757 56.2081 136.471C55.9358 137.018 55.5837 137.776 54.8748 137.797C54.2762 137.814 53.8538 137.248 53.5956 136.776C53.0933 135.851 53.0251 134.649 52.1262 133.971C51.7693 133.701 51.3093 133.61 50.8821 133.762C50.4549 133.915 50.1568 134.307 49.9761 134.72C49.516 135.771 49.7648 137.224 48.8306 138.044C48.1992 138.598 47.5137 138.076 47.1499 137.492C46.6992 136.774 46.4105 135.964 46.2603 135.131C46.2274 134.945 45.9434 135.023 45.9763 135.208L45.9692 135.213Z" fill-rule="nonzero" fill="#FFFFFF"/>
	<path id="Vector" d="M48.0488 143.75C48.185 144.513 48.4408 145.25 48.8187 145.928C49.0957 146.426 49.4713 146.973 50.0675 147.095C51.166 147.32 51.7482 146.024 51.9172 145.158C52.0862 144.292 52.1636 142.414 53.4758 142.522C54.0696 142.572 54.4475 143.142 54.687 143.625C54.9451 144.147 55.0578 144.719 55.3066 145.243C55.7338 146.146 56.7338 147.142 57.7361 146.325C58.2618 145.895 58.5224 145.182 58.8135 144.595C58.9919 144.238 59.1679 143.879 59.3463 143.522C59.4472 143.318 59.5505 143.114 59.6514 142.91C59.743 142.724 59.8486 142.323 60.1373 142.379C60.2875 142.41 60.4824 142.588 60.6044 142.675C60.7946 142.811 60.9824 142.95 61.1655 143.095C61.4683 143.334 61.7617 143.588 62.0433 143.851C62.325 144.114 62.5762 144.388 62.8414 144.656C63.0574 144.874 63.3109 145.074 63.6324 145.088C64.2075 145.116 64.6511 144.597 64.8718 144.123C64.9985 143.851 65.069 143.557 65.1675 143.273C65.2192 143.126 65.2732 142.978 65.3459 142.837C65.4093 142.717 65.5314 142.464 65.6722 142.414C65.8976 142.337 66.2168 142.705 66.3295 142.851C66.4915 143.06 66.6182 143.295 66.759 143.518C67.0454 143.968 67.3998 144.421 67.9655 144.499C68.5829 144.586 69.2025 144.233 69.564 143.75C70.0452 143.104 70.118 142.255 70.1837 141.48L69.9631 141.607C71.0005 142.384 72.038 143.161 73.0732 143.938C73.1389 143.987 73.2328 143.945 73.2751 143.886C73.8478 143.041 74.4205 142.194 74.9933 141.349L74.7632 141.379C75.6951 142.189 77.2255 142.083 78.0142 141.121C78.134 140.975 77.9274 140.767 77.8077 140.914C77.1246 141.745 75.7914 141.884 74.9722 141.173C74.897 141.107 74.7961 141.121 74.7421 141.203C74.1694 142.048 73.5967 142.896 73.0239 143.741L73.2258 143.689C72.1883 142.912 71.1508 142.135 70.1157 141.358C70.017 141.285 69.902 141.386 69.895 141.485C69.834 142.21 69.7729 143.032 69.3011 143.623C68.9138 144.109 68.1697 144.438 67.6017 144.053C66.8904 143.572 66.7614 142.384 65.8577 142.147C65.6253 142.086 65.515 142.142 65.3506 142.323C65.1628 142.527 65.0432 142.778 64.9446 143.034C64.7169 143.63 64.6089 144.426 63.9587 144.729C63.5597 144.914 63.2522 144.658 62.9869 144.381C62.7217 144.104 62.4588 143.83 62.1771 143.571C61.656 143.093 61.095 142.623 60.4988 142.241C60.3087 142.119 60.0787 142.004 59.8533 142.109C59.5811 142.236 59.4754 142.616 59.3533 142.863C58.9989 143.579 58.6421 144.294 58.2877 145.008C58.0154 145.555 57.6633 146.313 56.9544 146.334C56.3558 146.351 55.9333 145.785 55.6752 145.313C55.1729 144.388 55.1047 143.187 54.2057 142.508C53.8489 142.238 53.3889 142.147 52.9617 142.299C52.5345 142.452 52.2364 142.844 52.0557 143.257C51.5956 144.309 51.8444 145.762 50.9102 146.581C50.2787 147.135 49.5933 146.614 49.2295 146.029C48.7788 145.311 48.4901 144.501 48.3399 143.668C48.307 143.482 48.023 143.56 48.0558 143.745L48.0488 143.75Z" fill-rule="nonzero" fill="#FFFFFF"/>
	<path id="Vector" d="M85.7111 27.2331C80.6879 25.4962 74.376 24.5432 70.1462 26.0032C70.1298 26.0032 70.1204 26.0079 70.1204 26.0079C70.1204 26.0079 52.0252 23.0385 46.765 38.486L44.4106 44.1148C44.4106 44.1148 50.2108 40.6408 52.4665 48.908C52.4665 48.908 62.3486 45.0537 68.0595 39.9061C71.9279 43.9575 83.9811 54.8302 96.0955 47.6615C96.0955 47.6615 97.7972 42.9811 101.384 43.4388C104.567 43.8449 95.7786 30.7118 85.7111 27.2331Z" fill-rule="nonzero" fill="#000000"/>
	<path id="Vector" d="M65.5925 58.1187C65.5925 58.9561 64.9136 59.635 64.0762 59.635C63.2387 59.635 62.5598 58.9561 62.5598 58.1187C62.5598 57.2812 63.2387 56.6023 64.0762 56.6023C64.9136 56.6023 65.5925 57.2812 65.5925 58.1187Z" fill-rule="evenodd" fill="#231F20"/>
	<path id="Vector" d="M87.2273 59.0107C87.2273 59.8482 86.5484 60.5271 85.7109 60.5271C84.8735 60.5271 84.1946 59.8482 84.1946 59.0107C84.1946 58.1733 84.8735 57.4944 85.7109 57.4944C86.5484 57.4944 87.2273 58.1733 87.2273 59.0107Z" fill-rule="evenodd" fill="#231F20"/>
	<path id="Vector" d="M73.2258 58.5505L72.0991 71.0898L77.35 71.0898" stroke="#231F20"/>
	<path id="Vector" d="M66.4117 54.7128C66.4117 54.7128 62.8015 51.95 59.959 55.4498" stroke="#231F20"/>
	<path id="Vector" d="M88.9363 54.8629C88.9363 54.8629 85.3262 52.1002 82.4836 55.6" stroke="#231F20"/>
	<path id="Vector" d="M83.6055 77.2139C78.8147 83.9952 72.0991 79.4016 72.0991 79.4016L83.6055 77.2139Z" fill-rule="nonzero" fill="#000000"/>
	<path id="Vector" d="M46.7627 38.486L99.8324 38.486L98.7738 23.8554L118.092 16.4873L76.2962 0L34.5005 16.4873L49.9432 22.7006L46.7627 38.486Z" fill-rule="nonzero" fill="#FFC600"/>
	<path id="Vector" d="M49.9431 22.7006L74.7257 31.571L98.7736 23.8554" stroke="#000000"/>
	<path id="Vector" d="M68.6721 11.4454C68.6721 11.4454 24.2874 8.0136 22.7921 33.0145C21.2993 58.0154 17.9239 68.3177 11.2153 70.9419" stroke="#000000"/>
	<path id="Vector" d="M0 76.0872C0 76.0872 10.5933 67.4844 12.8678 70.3598C15.7502 74.0005 7.8775 84.8449 7.8775 84.8449C7.8775 84.8449 0.969421 80.8991 0.00231934 76.0872L0 76.0872Z" fill-rule="nonzero" fill="#FEB053"/>
	<path id="Vector" d="M21.783 181.68L150.165 181.68" stroke="#000000"/>
</svg>
