<svg width="263.130341" height="149.414185" viewBox="0 0 263.13 149.414" fill="none" xmlns="http://www.w3.org/2000/svg" xmlns:xlink="http://www.w3.org/1999/xlink">
	<desc>
			Created with Pixso.
	</desc>
	<defs/>
	<path id="Vector" d="M74.9744 93.2694C74.9744 93.2694 78.223 93.0112 81.2557 96.0063C84.2884 99.0015 97.9636 114.658 100.729 115.796C100.729 115.796 101.463 117.003 102.287 114.78C103.111 112.555 110.562 90.394 110.562 90.394C110.562 90.394 111.249 87.2721 109.155 84.1244C109.155 84.1244 106.642 79.7115 107.301 75.3174C107.961 70.9232 109.519 64.2358 109.763 63.7992C110.005 63.3626 110.705 61.898 113.315 62.8932C113.315 62.8932 115.561 63.5387 114.848 66.8507C114.134 70.1627 113.275 72.571 111.996 73.4841L113.808 73.8503C113.808 73.8503 120.838 60.7642 121.488 59.8488C122.141 58.9333 124.418 55.9265 125.657 56.6189C126.894 57.3114 129.279 59.2549 127.741 61.8933C127.741 61.8933 125.591 64.3204 125.237 64.7194C125.237 64.7194 122.828 67.7779 121.976 69.6792L121.326 71.7565C121.326 71.7565 124.439 72.4114 125.023 73.8503C125.608 75.2892 126.213 74.9817 126.474 75.4488C126.734 75.9159 128.281 77.3994 128.272 78.1435C128.262 78.8876 129.459 78.5918 129.34 79.9438C129.22 81.2959 129.727 85.345 126.138 85.2393C126.138 85.2393 128.138 89.0326 122.967 91.4925C122.967 91.4925 122.152 93.0535 121.986 94.8304C121.819 96.6072 121.321 120.728 121.321 120.728C121.321 120.728 122.777 133.793 111.993 139.962C111.993 139.962 105.827 143.926 94.3817 137.49C94.3817 137.49 82.4364 129.683 80.8778 128.544C79.3192 127.406 67.7377 117.794 66.8152 115.331C66.8152 115.331 63.5102 110.369 65.1674 107.161C66.8246 103.952 70.9746 94.504 74.9767 93.2717L74.9744 93.2694Z" fill-rule="nonzero" fill="#FFFFFF"/>
	<path id="Vector" d="M113.805 73.8503C113.805 73.8503 122.12 56.2316 124.967 56.4804C127.95 56.7409 129.664 60.8792 126.316 63.6772C122.967 66.4752 120.979 71.949 120.979 71.949" stroke="#000000"/>
	<path id="Vector" d="M126.136 85.2395C126.136 85.2395 127.917 89.0609 123.267 91.2579C119.636 92.9715 123.971 125.702 118.577 133.671C112.266 142.994 104.121 144.076 90.8067 135.302C77.4929 126.528 60.1442 114.928 65.9936 105.346C71.843 95.7647 73.3031 86.8404 84.5982 99.3467C95.8957 111.853 100.844 117.252 101.853 115.74C102.614 114.599 107.634 99.0321 110.261 91.5138C111.083 89.1618 110.731 86.5775 109.376 84.486C108.055 82.4439 106.686 79.0473 107.428 74.2659C107.928 71.0455 108.74 65.3392 110 63.3652C110.836 62.0554 115.446 61.8605 114.843 66.8532C114.237 71.8459 112.27 73.4326 112.27 73.4326C112.27 73.4326 117.263 74.2331 117.869 76.8972" stroke="#000000"/>
	<path id="Vector" d="M128.086 78.2585C128.086 78.2585 129.798 78.8524 129.394 81.54C128.99 84.2277 128.291 85.0445 126.72 85.3074C125.148 85.5703 125.3 83.162 125.3 83.162" stroke="#000000"/>
	<path id="Vector" d="M125.514 74.7236C125.514 74.7236 129.497 77.9136 127.882 80.3994C126.267 82.8852 121.523 86.6924 120.232 83.6316" stroke="#000000"/>
	<path id="Vector" d="M120.843 71.6697C120.843 71.6697 126.612 72.3504 125.516 77.0098C124.429 81.6245 122.526 84.1127 119.451 83.5587C117.042 83.1245 116.113 79.1364 120.263 77.7492C123.443 76.6859 121.399 74.5944 120.847 74.6813" stroke="#000000"/>
	<path id="Vector" d="M60.1515 88.528C63.609 80.0074 74.7352 77.9629 81.0071 84.6855C82.2793 86.0493 83.6549 87.6854 85.197 89.6524C93.3468 100.041 98.0108 107.473 98.0108 107.473L85.251 139.316L62.2828 115.623C56.6588 109.82 54.9899 101.243 58.0296 93.7578L60.1515 88.5304L60.1515 88.528Z" fill-rule="nonzero" fill="#000000"/>
	<path id="Vector" d="M20.2569 80.2374C20.2569 80.2374 70.5708 74.5663 76.0634 80.8899C81.5561 87.2135 81.5374 148.658 81.5374 148.658C81.5374 148.658 51.0274 148.405 26.6039 148.407C9.26221 148.407 10.2504 100.257 11.2151 91.5302C12.1799 82.8029 20.2569 80.2374 20.2569 80.2374Z" fill-rule="nonzero" fill="#E5E6E8"/>
	<path id="Vector" d="M56.6491 69.4303L57.811 82.7066C57.811 82.7066 55.4591 96.5978 38.0422 84.6267L39.6313 65.7897C39.6313 65.7897 50.5251 59.229 56.6515 69.4303L56.6491 69.4303Z" fill-rule="nonzero" fill="#FFFFFF"/>
	<path id="Vector" d="M57.811 82.7066C57.811 82.7066 55.4591 96.5978 38.0422 84.6267L39.6313 65.7897C39.6313 65.7897 50.5251 59.229 56.6515 69.4303L56.6491 69.4303L57.811 82.7066Z" stroke="#000000"/>
	<path id="Vector" d="M71.2 27.7285C71.2 27.7285 83.0961 68.8365 57.9825 71.7988C47.3962 73.0475 39.6877 66.3742 35.7161 61.7712C34.7326 60.6304 33.9651 59.3441 33.3102 58.0038C32.775 56.9052 31.1272 55.3467 26.0852 55.5673C18.4002 55.903 21.0057 47.7016 25.4703 46.0045C29.9371 44.3051 32.2609 48.34 32.2609 48.34C32.2609 48.34 36.6269 48.34 35.4627 44.2511C34.2984 40.1645 33.5754 37.1881 41.9646 39.4555C50.3538 41.723 51.5369 32.6438 54.7738 25.3578C58.0083 18.0718 66.3646 24.0996 66.3646 24.0996C66.3646 24.0996 69.9607 26.468 71.2 27.7285Z" fill-rule="nonzero" fill="#FFFFFF"/>
	<path id="Vector" d="M57.9825 71.7988C47.3962 73.0475 39.6877 66.3742 35.7161 61.7712C34.7326 60.6304 33.9651 59.3441 33.3102 58.0038C32.775 56.9052 31.1272 55.3467 26.0852 55.5673C18.4002 55.903 21.0057 47.7016 25.4703 46.0045C29.9371 44.3051 32.2609 48.34 32.2609 48.34C32.2609 48.34 36.6269 48.34 35.4627 44.2511C34.2984 40.1645 33.5754 37.1881 41.9646 39.4555C50.3538 41.723 51.5369 32.6438 54.7738 25.3578C58.0083 18.0718 66.3646 24.0996 66.3646 24.0996C66.3646 24.0996 69.9607 26.468 71.2 27.7285C71.2 27.7285 83.0961 68.8365 57.9825 71.7988Z" stroke="#000000"/>
	<path id="Vector" d="M66.3533 42.1024C66.3821 42.7629 65.8428 43.3229 65.1486 43.3532C64.4544 43.3835 63.8682 42.8726 63.8393 42.2121C63.8105 41.5516 64.3499 40.9915 65.0441 40.9612C65.7383 40.9309 66.3244 41.4418 66.3533 42.1024Z" fill-rule="evenodd" fill="#000000"/>
	<path id="Vector" d="M48.7609 45.9786C48.7898 46.6391 48.2504 47.1991 47.5562 47.2294C46.862 47.2598 46.2759 46.7489 46.247 46.0883C46.2182 45.4278 46.7575 44.8678 47.4518 44.8375C48.1459 44.8071 48.7321 45.3181 48.7609 45.9786Z" fill-rule="evenodd" fill="#000000"/>
	<path id="Vector" d="M58.534 43.7136L62.2145 53.4267L56.5317 55.5064" stroke="#000000"/>
	<path id="Vector" d="M49.6637 42.094C49.6637 42.094 48.0839 40.3993 44.9221 42.3006" stroke="#000000"/>
	<path id="Vector" d="M67.198 36.855C67.198 36.855 65.6183 35.1602 62.4565 37.0615" stroke="#000000"/>
	<path id="Vector" d="M57.0247 62.377C57.0247 62.377 54.1258 63.945 49.5251 61.5742" stroke="#000000"/>
	<path id="Vector" d="M24.1699 51.8399C24.1699 51.8399 26.0947 48.441 28.5476 50.3799C31.0005 52.3188 30.8926 53.2389 30.8926 53.2389" stroke="#000000"/>
	<path id="Vector" d="M20.1091 27.3366C20.1091 27.3366 13.572 14.0839 6.5372 19.3042C-0.497604 24.5246 -2.08678 32.9208 2.9059 33.6015C7.89857 34.2822 20.1091 31.7871 20.1091 31.7871L20.1091 27.339L20.1091 27.3366Z" fill-rule="nonzero" fill="#000000"/>
	<path id="Vector" d="M13.6706 84.3474C13.6706 84.3474 4.44574 85.0398 5.27434 108.625C6.10527 132.211 5.47153 148.637 5.47153 148.637L28.6603 148.637L28.6603 91.4855C28.6603 91.4855 26.4492 81.4461 13.6682 84.3474L13.6706 84.3474Z" fill-rule="nonzero" fill="#FFFFFF"/>
	<path id="Vector" d="M5.27434 108.625C6.10527 132.211 5.47153 148.637 5.47153 148.637L28.6603 148.637L28.6603 91.4855C28.6603 91.4855 26.4492 81.4461 13.6682 84.3474L13.6706 84.3474C13.6706 84.3474 4.44574 85.0398 5.27434 108.625Z" stroke="#000000"/>
	<path id="Vector" d="M32.8948 86.9201C29.0758 79.1928 16.3582 77.876 10.0558 83.7536C5.09598 88.3777 1.39664 97.119 1.52574 109.541C1.76517 132.95 2.02104 128.225 2.02104 128.225L36.7209 128.232C36.7209 128.232 40.9202 103.156 32.8948 86.9201Z" fill-rule="nonzero" fill="#E5E6E8"/>
	<path id="Vector" d="M66.1863 12.0699C53.7504 8.66405 48.929 13.5276 48.929 13.5276C48.929 13.5276 23.5737 0.528366 20.1115 27.3367C20.1115 27.3367 9.94307 35.4442 15.1634 46.2088C19.0341 54.1943 20.5716 55.8233 21.372 58.3302C21.433 58.5227 20.0598 60.2433 20.1138 60.4498C18.1444 62.4333 16.1469 64.7265 16.2995 68.3226C16.5272 73.6556 19.027 75.7611 27.9866 76.6014C36.9462 77.4417 38.6386 74.2917 38.6386 74.2917C38.6386 74.2917 39.2817 69.8318 39.5329 67.2592C40.7394 67.3273 41.4929 67.3414 41.4929 67.3414C40.8192 66.8485 40.1995 66.3673 39.6292 65.8979C39.6292 65.8603 39.6292 65.8204 39.6292 65.7875C39.6268 65.4613 38.8874 64.8979 37.7325 64.2172C33.8501 60.492 33.2234 57.8654 32.8784 57.349C32.7493 57.1542 32.3549 56.9241 31.869 56.6988C30.4325 56.0345 28.8528 55.6966 27.2543 55.6355C22.1208 55.4407 22.2123 54.5042 21.5339 53.6357C20.7828 52.6756 21.2288 47.1689 25.4727 45.9976C29.7142 44.8263 31.7329 47.6149 32.2634 48.3331C32.7938 49.0514 35.1857 47.075 35.4486 46.6243C35.7115 46.1736 34.8195 41.5213 35.1482 39.4486C35.4768 37.376 44.0327 39.7937 44.0327 39.7937C49.7976 40.8758 52.1402 32.1158 54.1119 26.9424C56.0836 21.769 59.3557 21.7713 59.3557 21.7713C66.6323 22.3957 71.2048 27.7263 71.2048 27.7263L72.7187 34.4537L74.0215 32.0359C74.0215 32.0359 78.627 15.4759 66.191 12.0676L66.1863 12.0699Z" fill-rule="nonzero" fill="#000000"/>
	<path id="Vector" d="M2.01855 128.228L30.5216 128.228C30.5216 128.228 34.2984 99.762 27.1321 87.8425" stroke="#000000"/>
	<path id="Vector" d="M203.016 11.7649L194.984 22.5906C194.984 22.5906 192.292 35.7941 194.317 47.5187C194.317 47.5187 197.2 61.9217 208.591 59.5532L208.591 76.7189C208.591 76.7189 210.314 86.3358 225.233 79.4465C225.233 79.4465 227.672 72.4304 228.332 61.5977L227.557 44.6104C227.557 44.6104 237.155 44.7255 236.874 38.3103C236.592 31.8952 232.644 28.0105 231.869 28.2123C231.095 28.4142 218.243 10.3143 203.014 11.7649L203.016 11.7649Z" fill-rule="nonzero" fill="#FFFFFF"/>
	<path id="Vector" d="M141.104 148.914L179.623 148.914L233.123 148.914L246.054 147.689L179.623 130.866" fill-rule="nonzero" fill="#231F20"/>
	<path id="Vector" d="M141.104 148.914L179.623 148.914L233.123 148.914L246.054 147.689L179.623 130.866" stroke="#231F20"/>
	<path id="Vector" d="M208.591 64.1633C208.591 64.1633 205.685 77.6789 217.37 77.2424C228.782 76.8175 228.379 61.9216 228.379 61.9216C228.379 61.9216 253.288 68.5527 254.746 88.9506C255.915 105.325 256.6 135.798 256.6 135.798L183.208 135.068L185.696 86.5986C185.921 82.2116 187.268 77.9301 189.752 74.3059C192.937 69.6583 195.317 65.1351 208.593 64.1656L208.591 64.1633Z" fill-rule="nonzero" fill="#E6E7E8"/>
	<path id="Vector" d="M228.4 62.7878L227.632 49.3049C226.809 44.8287 227.17 44.5212 227.557 44.608C228.851 44.9038 231.264 44.8193 233.757 43.303C240.19 39.3854 235.7 32.6487 231.102 34.0711C228.569 34.8551 229.405 37.3972 227.25 39.0286C225.21 40.5708 227.25 28.8859 227.25 28.8859C228.24 17.9147 218.945 13.7272 213.441 12.2179C210.77 11.4855 207.939 11.6358 205.371 12.6733C201.089 14.4056 194.928 18.342 193.977 26.8016C192.735 37.8385 192.55 53.1615 200.7 58.0204C209.784 63.438 219.06 54.2342 221.9 52.0161" stroke="#000000"/>
	<path id="Vector" d="M208.591 59.5532L208.591 65.1327" stroke="#231F20"/>
	<path id="Vector" d="M227.222 47.1877C227.24 47.2722 227.252 47.3614 227.262 47.4482C227.712 52.232 230.714 50.5889 230.714 50.5889C245.214 43.6879 243.559 18.8231 243.559 18.8231C240.071 -5.92429 216.457 5.48114 216.457 5.48114C198.794 -7.80449 193.479 7.23924 193.479 7.23924C187.426 9.103 185.442 15.0416 191.088 20.7479C196.73 26.4541 203.387 17.288 203.387 17.288C203.387 17.288 208.399 24.3885 220.832 21.4521C221.816 21.2197 222.853 21.2713 223.792 21.6445C225.196 22.2032 226.846 23.3557 226.466 25.6396C225.825 29.4892 224.973 38.5309 226.644 39.228C228.245 39.897 228.553 37.0873 229.827 35.1931C231.09 33.3152 234.078 33.3199 236.04 35.7987C238.287 38.6342 235.665 42.4109 232.552 43.9367C232.552 43.9367 231.179 44.9483 227.4 44.608C227.027 44.5751 227.107 46.6243 227.226 47.1877L227.222 47.1877Z" fill-rule="nonzero" fill="#000000"/>
	<path id="Vector" d="M230.301 106.189L231.918 148.567L257.525 148.658L257.525 101.337L230.301 106.189Z" fill-rule="nonzero" fill="#FFFFFF"/>
	<path id="Vector" d="M239.643 69.7803C239.643 69.7803 226.938 68.7522 225.14 84.1973C223.341 99.6424 223.985 115.954 223.985 115.954L258.222 115.954C258.222 115.954 260.882 73.8599 239.643 69.7803Z" fill-rule="nonzero" fill="#E6E7E8"/>
	<path id="Vector" d="M202.038 65.1328C202.038 65.1328 182.921 68.2101 175.682 79.1578C169.53 88.4578 178.177 101.135 178.177 101.135L206.321 102.206L203.472 75.2637L202.04 65.1328L202.038 65.1328Z" fill-rule="nonzero" fill="#E6E7E8"/>
	<path id="Vector" d="M234.12 37.3573C234.12 37.3573 231.019 37.2705 229.623 41.4181" stroke="#000000"/>
	<path id="Vector" d="M199.113 30.7967C199.113 31.4656 198.57 32.0079 197.902 32.0079C197.233 32.0079 196.69 31.4656 196.69 30.7967C196.69 30.1278 197.233 29.5854 197.902 29.5854C198.57 29.5854 199.113 30.1278 199.113 30.7967Z" fill-rule="evenodd" fill="#231F20"/>
	<path id="Vector" d="M214.448 32.0078C214.448 32.6767 213.905 33.219 213.236 33.219C212.567 33.219 212.025 32.6767 212.025 32.0078C212.025 31.3389 212.567 30.7966 213.236 30.7966C213.905 30.7966 214.448 31.3389 214.448 32.0078Z" fill-rule="evenodd" fill="#231F20"/>
	<path id="Vector" d="M210.598 28.217C210.598 28.217 213.105 26.872 215.877 28.6841" stroke="#231F20"/>
	<path id="Vector" d="M196.155 26.3884C196.155 26.3884 198.533 23.7078 201.162 27.318" stroke="#231F20"/>
	<path id="Vector" d="M203.608 30.7966L200.873 41.4181L205.005 41.4181" stroke="#000000"/>
	<path id="Vector" d="M230.301 115.881L230.301 147.689" stroke="#000000"/>
	<path id="Vector" d="M257.525 148.914L257.525 115.883L223.548 115.956C223.548 115.956 223.504 93.9267 225.039 85.0916" stroke="#000000"/>
	<path id="Vector" d="M139.652 126.172L126.995 148.567L141.104 148.914C141.104 148.914 164.828 135.068 179.551 148.302L186.456 146.349L192.998 148.917C192.998 148.917 201.338 135.225 231.918 148.569L246.054 148.661L233.217 125.73C233.217 125.73 219.224 117.681 207.455 118.252C207.455 118.252 193.953 118.688 186.527 127.244C186.527 127.244 171.253 110.771 145.337 122.951L139.652 126.174L139.652 126.172Z" fill-rule="nonzero" fill="#FFFFFF"/>
	<path id="Vector" d="M134.492 141.893L145.334 122.949C145.334 122.949 170.354 109.862 186.454 127.366L186.369 145.384C186.369 145.384 176.781 124.441 134.492 141.893Z" stroke="#000000"/>
	<path id="Vector" d="M134.494 141.894L126.997 148.565L140.872 148.637C140.872 148.637 166.359 135.34 179.933 148.656L186.456 146.344" stroke="#000000"/>
	<path id="Vector" d="M145.336 122.948L139.651 126.171L126.856 148.658" stroke="#000000"/>
	<path id="Vector" d="M238.418 141.844L227.576 122.899C227.576 122.899 202.556 109.813 186.456 127.317L186.602 145.227C186.602 145.227 196.132 124.392 238.418 141.844Z" stroke="#000000"/>
	<path id="Vector" d="M238.418 141.844L245.915 148.515L232.04 148.588C232.04 148.588 206.554 135.291 192.979 148.607L186.456 146.295" stroke="#000000"/>
	<path id="Vector" d="M227.576 122.899L233.259 126.12L246.054 148.609" stroke="#000000"/>
	<path id="Vector" d="M163.969 119.292L179.133 135.068L188.355 116.388L163.969 119.292Z" fill-rule="nonzero" fill="#FFFFFF"/>
	<path id="Vector" d="M179.133 135.068L188.355 116.388L163.969 119.292L179.133 135.068Z" stroke="#231F20"/>
	<path id="Vector" d="M189.318 118.247L189.247 118.36L163.955 121.683L155.132 56.7717C155.057 56.213 155.019 55.6544 155.019 55.1005C155.019 50.866 157.202 46.8685 160.878 44.6011C164.126 42.5871 168.129 42.1951 171.715 43.5401L173.208 44.0987C177.499 45.709 180.546 49.5609 181.123 54.1029L189.322 118.247L189.318 118.247Z" fill-rule="nonzero" fill="#FEB053"/>
	<path id="Vector" d="M155.282 58.7081L181.501 57.0674L181.137 53.0254C181.137 53.0254 179.079 44.0048 168.69 42.5847C168.69 42.5847 156.489 41.688 154.841 54.7177L155.282 58.7105L155.282 58.7081Z" fill-rule="nonzero" fill="#000000"/>
	<path id="Vector" d="M174.403 130.03L182.135 128.988L179.133 135.068L174.403 130.03Z" fill-rule="nonzero" fill="#231F20"/>
	<path id="Vector" d="M182.135 128.988L179.133 135.068L174.403 130.03L182.135 128.988Z" stroke="#231F20"/>
	<path id="Vector" d="" fill-rule="nonzero" fill="#231F20"/>
	<path id="Vector" d="M163.274 63.7737L169.591 111.799" stroke="#231F20"/>
	<path id="Vector" d="" fill-rule="nonzero" fill="#231F20"/>
	<path id="Vector" d="M169.366 63.7925L175.682 111.815" stroke="#231F20"/>
	<path id="Vector" d="" fill-rule="nonzero" fill="#231F20"/>
	<path id="Vector" d="M175.682 63.4426L181.999 111.466" stroke="#231F20"/>
	<path id="Vector" d="M164.773 93.6333L156.919 94.6451C156.2 94.7377 155.692 95.3954 155.785 96.1141L156.178 99.1662C156.271 99.885 156.928 100.393 157.647 100.3L165.502 99.2882C166.22 99.1956 166.728 98.5379 166.636 97.8192L166.242 94.7671C166.15 94.0483 165.492 93.5407 164.773 93.6333Z" fill-rule="nonzero" fill="#FFFFFF"/>
	<path id="Vector" d="M164.773 93.6333C165.492 93.5407 166.15 94.0483 166.242 94.7671L166.636 97.8192C166.728 98.5379 166.22 99.1956 165.502 99.2882L157.647 100.3C156.928 100.393 156.271 99.885 156.178 99.1662L155.785 96.1141C155.692 95.3954 156.2 94.7377 156.919 94.6451L164.773 93.6333Z" stroke="#231F20"/>
	<path id="Vector" d="M164.346 76.4767L153.599 77.8609C152.881 77.9535 152.373 78.6112 152.466 79.3299L152.859 82.382C152.951 83.1007 153.609 83.6083 154.328 83.5157L165.074 82.1315C165.793 82.0389 166.3 81.3812 166.208 80.6625L165.815 77.6104C165.722 76.8917 165.064 76.3841 164.346 76.4767Z" fill-rule="nonzero" fill="#FFFFFF"/>
	<path id="Vector" d="M164.346 76.4767C165.064 76.3841 165.722 76.8917 165.815 77.6104L166.208 80.6625C166.3 81.3812 165.793 82.0389 165.074 82.1315L154.328 83.5157C153.609 83.6083 152.951 83.1007 152.859 82.382L152.466 79.3299C152.373 78.6112 152.881 77.9535 153.599 77.8609L164.346 76.4767Z" stroke="#231F20"/>
	<path id="Vector" d="M165.715 87.8629L155.407 89.1908C154.688 89.2834 154.18 89.9411 154.273 90.6598L154.666 93.7118C154.759 94.4306 155.416 94.9382 156.135 94.8456L166.444 93.5177C167.162 93.4252 167.67 92.7674 167.577 92.0487L167.184 88.9967C167.092 88.2779 166.434 87.7703 165.715 87.8629Z" fill-rule="nonzero" fill="#FFFFFF"/>
	<path id="Vector" d="M165.715 87.8629C166.434 87.7703 167.092 88.2779 167.184 88.9967L167.577 92.0487C167.67 92.7674 167.162 93.4252 166.444 93.5177L156.135 94.8456C155.416 94.9382 154.759 94.4306 154.666 93.7118L154.273 90.6598C154.18 89.9411 154.688 89.2834 155.407 89.1908L165.715 87.8629Z" stroke="#231F20"/>
	<path id="Vector" d="M166.765 81.9048L154.324 83.5074C153.606 83.6 153.098 84.2577 153.191 84.9764L153.584 88.0285C153.676 88.7472 154.334 89.2548 155.053 89.1622L167.494 87.5597C168.213 87.4671 168.72 86.8094 168.628 86.0907L168.234 83.0386C168.142 82.3199 167.484 81.8123 166.765 81.9048Z" fill-rule="nonzero" fill="#FFFFFF"/>
	<path id="Vector" d="M166.765 81.9048C167.484 81.8123 168.142 82.3199 168.234 83.0386L168.628 86.0907C168.72 86.8094 168.213 87.4671 167.494 87.5597L155.053 89.1622C154.334 89.2548 153.676 88.7472 153.584 88.0285L153.191 84.9764C153.098 84.2577 153.606 83.6 154.324 83.5074L166.765 81.9048Z" stroke="#231F20"/>
	<path id="Vector" d="M179.133 135.068L169.476 130.497C168.654 130.108 167.697 130.129 166.892 130.556C165.364 131.366 163.582 131.549 161.922 131.07L159.681 130.422C158.523 130.087 157.289 130.143 156.167 130.58L154.756 131.129C152.733 131.918 150.491 131.939 148.454 131.19C147.895 130.986 147.278 131.026 146.75 131.303L141.893 133.847" stroke="#000000"/>
	<path id="Vector" d="M225.039 85.0894L210.854 108.485L219.365 108.485L219.365 120.139C219.365 120.139 226.755 122.029 230.301 124.444L230.301 115.881L223.546 115.954C223.546 115.954 224.541 88.3943 225.036 85.0894L225.039 85.0894Z" fill-rule="nonzero" fill="#000000"/>
	<path id="Vector" d="M211.126 47.3239C211.126 47.3239 201.988 44.9344 200.864 46.5752C199.74 48.2159 204.789 47.8685 204.789 47.8685" stroke="#000000"/>
	<path id="Vector" d="M6.65454 148.846L263.13 148.846" stroke="#231F20"/>
	<path id="Vector" d="M250.776 35.0779C251.83 34.0944 253.384 33.7306 254.786 34.017C256.288 34.3245 257.487 35.3361 258.187 36.6858C258.886 38.0355 259.116 39.9579 258.339 41.371C257.635 42.6503 256.166 43.331 254.757 43.4624C252.614 43.6619 250.544 42.7746 248.61 41.9672C248.316 41.8451 247.964 42.1033 247.887 42.378C247.356 44.2628 246.568 46.0515 245.54 47.718C245.143 48.3635 246.157 48.9527 246.554 48.3095C247.631 46.5632 248.462 44.6642 249.021 42.6878L248.298 43.0986C250.267 43.9201 252.363 44.7863 254.544 44.6525C256.337 44.5422 258.154 43.7817 259.18 42.2489C260.266 40.6222 260.187 38.3782 259.452 36.6318C258.741 34.9418 257.363 33.5522 255.588 33.0076C253.652 32.4138 251.436 32.8574 249.945 34.247C249.392 34.7634 250.222 35.592 250.776 35.0779Z" fill-rule="nonzero" fill="#231F20"/>
	<path id="Vector" d="M244.643 52.2765C244.643 53.0582 244.009 53.6919 243.228 53.6919C242.446 53.6919 241.812 53.0582 241.812 52.2765C241.812 51.4948 242.446 50.8611 243.228 50.8611C244.009 50.8611 244.643 51.4948 244.643 52.2765Z" fill-rule="evenodd" fill="#231F20"/>
	<path id="Vector" d="M101.271 27.4962C101.726 27.7309 101.956 28.0689 101.956 28.5126C101.956 28.8036 101.884 29.0102 101.738 29.1346C101.593 29.259 101.386 29.3458 101.116 29.3928C100.846 29.4421 100.511 29.4679 100.112 29.4749C99.7102 29.4819 99.2618 29.4984 98.7642 29.5265C98.5975 29.4702 97.9897 29.4162 96.9404 29.3599C96.7879 29.374 96.6423 29.3834 96.5062 29.3904C96.3677 29.3975 96.2362 29.3998 96.1118 29.3998C95.3654 29.3998 94.8536 29.2895 94.5767 29.0688C94.5086 28.5172 94.4546 28.0055 94.4217 27.5337C94.3865 27.0642 94.3701 26.6347 94.3701 26.2474C94.3701 25.6395 94.3936 25.1113 94.4429 24.6606C94.4922 24.2123 94.5157 23.8062 94.5157 23.4471C94.5157 23.0058 94.4945 22.6584 94.4546 22.4096L94.5791 20.2337C94.6331 19.7079 94.6987 19.2596 94.7762 18.8863C94.8513 18.5131 94.9452 18.2291 95.0555 18.0366C95.1377 17.9263 95.5531 17.7878 96.2995 17.6211L97.6258 17.3301C97.708 17.316 97.8817 17.2949 98.1446 17.269C98.4075 17.2409 98.6797 17.2151 98.9637 17.1869C99.2477 17.1588 99.4989 17.1376 99.7196 17.1259C99.9402 17.1118 100.044 17.1047 100.032 17.1047L100.114 17.1047C100.266 17.1047 100.421 17.208 100.581 17.4169C100.741 17.6235 100.82 17.8652 100.82 18.1422C100.82 18.2807 100.816 18.4051 100.811 18.5155C100.804 18.6258 100.759 18.7197 100.677 18.7948C100.595 18.8699 100.457 18.9286 100.262 18.9708C100.067 19.0131 99.7853 19.0413 99.4121 19.053C98.8041 19.0812 98.3887 19.1422 98.1681 19.2384L98.0647 19.2384C97.7055 19.2384 97.2573 19.3206 96.7174 19.4873C96.6611 19.5553 96.6211 19.6773 96.5929 19.8487C96.5648 20.0224 96.5437 20.2008 96.532 20.3886C96.5179 20.574 96.5085 20.7336 96.5015 20.8651C96.4944 20.9965 96.4921 21.0412 96.4921 20.9989C96.478 21.0693 96.4686 21.1374 96.4616 21.2054C96.4545 21.2735 96.4522 21.3651 96.4522 21.4754C96.4522 21.5716 96.4545 21.6796 96.4616 21.797C96.4686 21.9143 96.478 22.0434 96.4921 22.1796C96.9216 22.1373 97.269 22.0927 97.5389 22.0458C97.8089 21.9965 98.0178 21.973 98.1703 21.973C98.4614 21.973 98.7431 21.966 99.0201 21.9519C99.2971 21.9378 99.5412 21.9543 99.7572 22.0035C99.9708 22.0528 100.14 22.1491 100.264 22.2946C100.389 22.4401 100.45 22.6725 100.45 22.9894C100.45 23.3485 100.335 23.5833 100.107 23.6936C99.8792 23.8039 99.4801 23.8673 98.9144 23.879C98.2502 23.9072 97.8511 23.9353 97.7126 23.9611C97.6304 23.9611 97.5437 23.9588 97.4545 23.9517C97.3653 23.9447 97.2643 23.9424 97.154 23.9424C97.0836 23.9424 97.0061 23.94 96.9145 23.933C96.8253 23.926 96.7385 23.926 96.6563 23.933C96.5742 23.94 96.5015 23.9682 96.4381 24.0151C96.377 24.0644 96.3442 24.1489 96.3442 24.2733C96.3442 24.3555 96.3466 24.4635 96.3536 24.595C96.3607 24.7264 96.3629 24.8461 96.3629 24.9564C96.3629 25.123 96.3583 25.2874 96.3536 25.454C96.3466 25.6207 96.3394 25.7967 96.3324 25.9822C96.3254 26.1676 96.3184 26.3788 96.3113 26.6136C96.3043 26.8483 96.3019 27.1253 96.3019 27.4422C96.3841 27.4563 96.5461 27.4703 96.7902 27.4844C97.032 27.4985 97.2878 27.5126 97.5577 27.5267C97.8277 27.5408 98.0859 27.5572 98.3347 27.5783C98.5835 27.5995 98.7501 27.6159 98.8322 27.63C98.8463 27.63 98.9426 27.6229 99.1234 27.6088C99.3018 27.5947 99.5646 27.5736 99.912 27.5478C100.381 27.5055 100.755 27.4868 101.032 27.4868L101.281 27.4868L101.271 27.4962Z" fill-rule="nonzero" fill="#000000"/>
	<path id="Vector" d="M120.758 26.0034C120.592 26.0456 120.31 26.0832 119.908 26.1184C119.507 26.1536 119.045 26.1794 118.519 26.2005C117.993 26.2216 117.43 26.2357 116.829 26.2427C116.228 26.2498 115.65 26.2521 115.096 26.2521C114.641 26.2521 114.343 26.1559 114.205 25.9611C114.066 25.7686 113.998 25.5527 113.998 25.3179C113.998 25.0409 114.115 24.7851 114.35 24.5504C114.585 24.4823 115.275 24.44 116.423 24.4259C116.423 24.4119 116.526 24.4189 116.735 24.4471C116.941 24.4753 117.261 24.4893 117.688 24.4893C118.005 24.4893 118.228 24.4401 118.352 24.3438C118.587 24.3297 118.88 24.3227 119.232 24.3227C119.585 24.3227 119.995 24.3157 120.465 24.3016C121.087 24.3438 121.397 24.5856 121.397 25.0269C121.397 25.3719 121.183 25.6982 120.753 26.001L120.758 26.0034ZM120.758 22.0223C120.592 22.0646 120.399 22.0834 120.178 22.0834C119.805 22.0834 119.547 22.0764 119.401 22.0623C119.256 22.0482 119.129 22.0318 119.019 22.0106C118.908 21.9895 118.761 21.9684 118.573 21.9473C118.387 21.9261 118.066 21.9167 117.608 21.9167C117.331 21.9167 117.153 21.959 117.068 22.0411L115.036 22.1867C114.385 22.1186 114.061 21.8416 114.061 21.3581C114.061 21.013 114.254 20.6867 114.641 20.3839C114.78 20.3558 114.986 20.3276 115.263 20.3018C115.54 20.2736 115.899 20.2525 116.341 20.2408C116.409 20.2408 116.479 20.2431 116.547 20.2502C116.615 20.2572 116.7 20.2595 116.796 20.2595C117.251 20.2595 117.895 20.2384 118.723 20.1985C119 20.2126 119.289 20.2337 119.594 20.2595C119.897 20.2877 120.23 20.3206 120.589 20.3628C120.934 20.6257 121.108 20.9309 121.108 21.2759C121.108 21.5388 120.991 21.7876 120.756 22.0223L120.758 22.0223Z" fill-rule="nonzero" fill="#000000"/>
	<path id="Vector" d="M145.928 28.637C145.86 29.0102 145.548 29.1956 144.996 29.1956C144.609 29.1956 144.346 29.0642 144.208 28.8013C144.139 28.4281 144.09 28.0854 144.062 27.7755C144.034 27.4633 144.003 27.1254 143.968 26.7592C143.933 26.393 143.893 25.9752 143.844 25.5057C143.794 25.0363 143.71 24.4565 143.586 23.7641C143.557 23.5012 143.541 23.2453 143.534 22.9965C143.527 22.7477 143.517 22.5059 143.503 22.2712C143.24 22.6303 142.985 22.9636 142.736 23.2664C142.487 23.5716 142.231 23.8462 141.968 24.095C141.649 24.5786 141.18 25.0832 140.558 25.609L140.433 25.609C140.142 25.609 139.863 25.5433 139.593 25.4119C139.323 25.2804 139.147 25.1396 139.065 24.987C138.912 24.7382 138.722 24.4072 138.494 23.9917C138.267 23.5763 137.973 23.0928 137.614 22.5411L137.095 21.7524C137.027 22.1116 136.954 22.5646 136.877 23.1115C136.802 23.6584 136.715 24.3039 136.619 25.0504L136.619 25.3625C136.619 25.5691 136.612 25.8038 136.598 26.0667C136.584 26.3296 136.555 26.6254 136.515 26.9587L136.33 29.0102C136.288 29.4116 135.964 29.6111 135.356 29.6111C135.161 29.6111 135.011 29.5971 134.901 29.5689C134.79 29.5407 134.701 29.482 134.631 29.3928C134.56 29.3036 134.516 29.1745 134.497 29.0102C134.476 28.8436 134.466 28.6159 134.466 28.3272C134.466 27.4986 134.473 27.0831 134.488 27.0831L134.488 27.1042C134.542 26.9658 134.588 26.7803 134.621 26.5456C134.656 26.3108 134.682 26.0785 134.703 25.8508C134.725 25.6231 134.741 25.3367 134.755 24.9893C134.755 24.9612 134.769 24.8485 134.797 24.6467C134.825 24.4471 134.856 24.2265 134.891 23.9823C134.926 23.7406 134.957 23.5058 134.985 23.2782C135.013 23.0505 135.027 22.8956 135.027 22.8111L135.027 22.6866C135.056 22.3557 135.084 21.9895 135.11 21.5881C135.138 21.1867 135.178 20.7454 135.234 20.2619L135.628 18.478C135.849 18.2996 136.175 18.208 136.602 18.208C136.823 18.208 137.018 18.2503 137.182 18.3324C137.403 18.6493 137.621 18.9615 137.835 19.2643C138.048 19.5694 138.269 19.9004 138.499 20.2595C138.727 20.6187 138.978 21.0341 139.255 21.5036C139.532 21.9731 139.856 22.5411 140.229 23.203C140.795 22.6772 141.142 22.2641 141.266 21.959C141.309 21.9449 141.743 21.3651 142.572 20.2173L143.485 19.0554C143.595 19.0014 143.748 18.9732 143.94 18.9732C144.327 18.9732 144.679 19.0906 144.996 19.3253C145.245 20.4731 145.369 21.2877 145.369 21.7712L145.369 21.9566C145.369 22.0247 145.384 22.189 145.412 22.4449C145.44 22.7007 145.473 22.9777 145.515 23.2735C145.557 23.5716 145.595 23.8509 145.63 24.1138C145.665 24.3767 145.696 24.5551 145.724 24.6537C145.724 25.0551 145.74 25.4682 145.776 25.8977C145.811 26.3273 145.862 26.7686 145.931 27.224C145.959 27.3906 145.98 27.5432 145.991 27.6793C146.006 27.8178 146.013 27.9492 146.013 28.0736C146.013 28.184 146.006 28.2873 145.991 28.3858C145.977 28.4821 145.956 28.5666 145.931 28.6347L145.928 28.637Z" fill-rule="nonzero" fill="#000000"/>
	<path id="Vector" d="M157.662 26.1488C157.62 26.3155 157.521 26.515 157.362 26.7498C157.202 26.9845 157.005 27.2239 156.77 27.4657C156.536 27.7075 156.282 27.9257 156.014 28.1182C155.745 28.313 155.486 28.4492 155.238 28.5337C154.519 28.8529 153.709 29.0102 152.813 29.0102C152.522 29.0102 152.271 29.0032 152.057 28.9891C151.843 28.975 151.632 28.9351 151.425 28.8647C151.219 28.7966 151.01 28.6862 150.803 28.5337C150.597 28.3811 150.362 28.1605 150.099 27.8694C149.808 27.5666 149.581 27.2638 149.414 26.968C149.247 26.6699 149.123 26.3836 149.041 26.1066C148.959 25.8296 148.902 25.5643 148.874 25.3085C148.846 25.0526 148.832 24.8203 148.832 24.6137C148.832 24.1583 148.886 23.6185 148.998 22.9964C149.109 22.3744 149.407 21.6139 149.89 20.7149C150.069 20.3839 150.207 20.121 150.306 19.9262C150.402 19.7337 150.458 19.6023 150.472 19.5319L151.759 18.7431C152.2 18.4803 152.623 18.269 153.024 18.1117C153.425 17.9521 153.867 17.8723 154.35 17.8723L154.972 17.8723C155.249 17.8723 155.522 17.9028 155.791 17.9662C156.061 18.0272 156.298 18.1399 156.507 18.2972C156.714 18.4568 156.82 18.6868 156.82 18.992C156.82 19.5037 156.514 19.7995 155.907 19.884C155.921 19.884 155.878 19.8769 155.782 19.8628C155.686 19.8487 155.554 19.8347 155.388 19.8206C155.221 19.8065 155.036 19.7924 154.829 19.7783C154.622 19.7643 154.414 19.7572 154.207 19.7572C153.848 19.7572 153.484 19.8581 153.118 20.0576C152.752 20.2572 152.306 20.5998 151.78 21.0834C151.503 21.6632 151.299 22.1162 151.167 22.4425C151.036 22.7664 150.97 22.9847 150.97 23.095C150.818 23.372 150.742 23.7804 150.742 24.3179C150.742 25.3132 150.921 26.0291 151.282 26.4634C151.641 26.8976 152.132 27.1159 152.754 27.1159C153.155 27.1159 153.778 27.0056 154.62 26.7849C155.132 26.4821 155.573 25.9963 155.946 25.3343C156.181 25.0996 156.423 24.9822 156.672 24.9822C156.935 24.9822 157.169 25.0855 157.376 25.2921C157.582 25.4987 157.686 25.7357 157.686 25.9963C157.686 26.0244 157.683 26.0479 157.676 26.069C157.669 26.0901 157.667 26.1136 157.667 26.1418L157.662 26.1488Z" fill-rule="nonzero" fill="#000000"/>
	<path id="Vector" d="M164.011 21.1985C163.96 21.2196 163.911 21.236 163.859 21.2525C163.807 21.2666 163.753 21.276 163.692 21.276L163.251 21.276C163.181 21.276 163.112 21.2736 163.044 21.2689C162.979 21.2642 162.906 21.2619 162.824 21.2619C162.742 21.2619 162.662 21.2642 162.58 21.2689C162.497 21.2736 162.413 21.276 162.321 21.276C162.209 21.276 162.058 21.2478 161.866 21.1915C161.673 21.1352 161.429 21.107 161.136 21.107C161.075 21.107 161.014 21.1093 160.953 21.114C160.892 21.1187 160.826 21.1211 160.756 21.1211C160.685 21.1211 160.275 21.0553 159.523 20.9239C159.31 20.7009 159.204 20.4826 159.204 20.269C159.204 20.0976 159.239 19.9192 159.31 19.7361C159.533 19.5343 159.711 19.3559 159.843 19.2033C159.974 19.0507 160.07 18.924 160.131 18.8231C160.333 18.5179 160.54 18.2433 160.746 17.9945C160.953 17.7457 161.159 17.5062 161.361 17.2715C161.401 17.241 161.455 17.1776 161.521 17.0814C161.587 16.9852 161.659 16.8819 161.742 16.7692C161.824 16.6589 161.904 16.5439 161.986 16.4265C162.068 16.3091 162.138 16.2153 162.199 16.1448C162.462 15.8514 162.594 15.5275 162.594 15.1707C162.594 14.8139 162.415 14.6543 162.061 14.6543C161.939 14.6543 161.803 14.6731 161.65 14.7083C161.497 14.7435 161.354 14.7928 161.216 14.8538C161.08 14.9149 160.951 14.9853 160.828 15.0674C160.706 15.1496 160.615 15.234 160.554 15.3256C160.514 15.4077 160.46 15.5181 160.394 15.6613C160.328 15.8045 160.249 15.9476 160.16 16.0955C160.068 16.2434 159.967 16.3702 159.854 16.4758C159.742 16.5814 159.622 16.6354 159.488 16.6354C159.296 16.6354 159.124 16.565 158.972 16.4218C158.819 16.281 158.744 16.1026 158.744 15.889C158.744 15.788 158.786 15.6401 158.873 15.4476C158.96 15.2552 159.066 15.0603 159.193 14.8608C159.319 14.6637 159.455 14.483 159.603 14.321C159.751 14.159 159.885 14.0534 160.007 14.0017C160.667 13.6168 161.411 13.4243 162.244 13.4243C162.568 13.4243 162.84 13.4759 163.058 13.5769C163.277 13.6778 163.45 13.8093 163.584 13.9713C163.716 14.1332 163.81 14.321 163.866 14.5346C163.922 14.7482 163.95 14.9665 163.95 15.1895C163.95 15.8279 163.758 16.3608 163.373 16.7856C163.26 16.9077 163.159 17.0344 163.068 17.1659C162.976 17.2973 162.892 17.4218 162.817 17.5391C162.742 17.6565 162.671 17.7621 162.61 17.8583C162.549 17.9545 162.505 18.0226 162.474 18.0649C162.361 18.1259 162.012 18.5672 161.425 19.3887L161.03 19.7854C161.375 19.7854 161.666 19.8042 161.906 19.8395C162.143 19.8747 162.263 19.8817 162.263 19.8629C162.434 19.8629 162.645 19.8629 162.894 19.8559C163.143 19.8512 163.429 19.8488 163.753 19.8488C163.894 19.8488 164.014 19.938 164.11 20.1141C164.206 20.2925 164.256 20.4826 164.256 20.6844C164.256 20.9591 164.173 21.1304 164.011 21.2008L164.011 21.1985Z" fill-rule="nonzero" fill="#000000"/>
</svg>
