<svg width="243.415009" height="172.231476" viewBox="0 0 243.415 172.231" fill="none" xmlns="http://www.w3.org/2000/svg" xmlns:xlink="http://www.w3.org/1999/xlink">
	<desc>
			Created with Pixso.
	</desc>
	<defs/>
	<path id="Vector" d="M137.476 3.40771L242.843 0.5159L225.377 133.419L117.212 132.529L137.476 3.40771Z" fill-rule="nonzero" fill="#FFFFFF"/>
	<path id="Vector" d="M242.843 0.5159L225.377 133.419L117.212 132.529L137.476 3.40771L242.843 0.5159Z" stroke="#000000"/>
	<path id="Vector" d="M173.945 48.086C173.945 48.086 175.727 102.001 169.488 129.734" stroke="#FFC600" stroke-width="2.000000"/>
	<path id="Vector" d="M202.068 76.1617C202.068 76.1617 195.409 98.7049 193.555 112.584" stroke="#FFC600" stroke-width="2.000000"/>
	<path id="Vector" d="M199.003 71.8145C199.003 71.8145 199.165 58.9748 202.876 58.1697C206.587 57.3622 211.265 58.9772 208.037 62.8478C204.81 66.7209 201.423 71.8145 201.423 71.8145C201.423 71.8145 214.974 61.8808 216.426 66.3969C217.879 70.9131 216.377 75.5936 212.288 75.2697C208.199 74.9481 203.843 74.1641 203.843 74.1641C203.843 74.1641 216.699 80.9854 212.288 83.8537C207.875 86.7245 203.681 89.4825 203.521 85.6024C203.359 81.7224 202.068 76.1593 202.068 76.1593C202.068 76.1593 198.195 91.8673 194.163 88.4074C190.13 84.9475 188.515 80.9149 192.71 78.8164C196.904 76.7179 199.486 75.8752 199.486 75.8752C199.486 75.8752 188.13 77.5278 188.402 72.5257C188.677 67.5237 193.031 67.5494 194.806 67.7795C196.58 68.0095 199 71.8145 199 71.8145L199.003 71.8145Z" fill-rule="nonzero" fill="#FEB053"/>
	<path id="Vector" d="M170.232 46.1706C170.232 46.1706 170.469 27.2562 175.936 26.0661C181.403 24.8784 188.297 27.2539 183.541 32.9601C178.788 38.664 173.795 46.1706 173.795 46.1706C173.795 46.1706 193.761 31.533 195.9 38.1898C198.038 44.8444 195.827 51.7384 189.801 51.2619C183.776 50.7854 177.358 49.6329 177.358 49.6329C177.358 49.6329 196.301 59.6815 189.801 63.909C183.302 68.1388 177.121 72.2019 176.884 66.4863C176.647 60.7707 174.746 52.5764 174.746 52.5764C174.746 52.5764 169.042 75.7182 163.099 70.6223C157.155 65.524 154.78 59.583 160.96 56.494C167.141 53.4049 170.943 52.1585 170.943 52.1585C170.943 52.1585 154.212 54.5927 154.616 47.2222C155.019 39.8541 161.437 39.8893 164.052 40.2273C166.667 40.5653 170.232 46.1706 170.232 46.1706Z" fill-rule="nonzero" fill="#FEB053"/>
	<path id="Vector" d="M52.9994 25.2914C52.9994 25.2914 72.9958 39.3164 76.2797 47.323C79.796 55.8953 84.1196 73.3732 73.7259 77.6217L68.1534 79.3306L63.1584 79.7038L63.7077 96.63L40.6127 90.4097L41.5775 71.8075C41.5775 71.8075 28.9796 75.1383 26.8788 66.6622C24.778 58.1862 35.9722 56.7685 35.9722 56.7685C35.9722 56.7685 30.3763 49.7219 30.7166 48.9027C31.0569 48.0835 52.9994 25.2891 52.9994 25.2891L52.9994 25.2914Z" fill-rule="nonzero" fill="#FFFFFF"/>
	<path id="Vector" d="M97.9379 119.082C97.9379 119.082 111.853 125.225 125.652 116.054C125.652 116.054 129.577 104.414 138.224 102.904C138.224 102.904 145.74 102.989 145.564 105.604C145.564 105.604 146.268 109.355 143.163 109.594C140.057 109.833 136.694 109.514 136.292 112.946L137.475 113.723C137.475 113.723 144.94 115.88 148.487 113.366C152.036 110.852 157.127 106.651 159.714 111.81C159.714 111.81 160.77 114.99 157.833 116.519C157.833 116.519 160.026 121.436 155.897 123.208C155.897 123.208 159.864 126.75 154.554 128.609L149.876 129.199C149.876 129.199 152.003 133.208 148.487 133.243C144.973 133.281 136.011 132.123 133.354 130.703C133.354 130.703 118.268 138.93 112.611 140.24C106.951 141.548 94.3043 145.003 87.0817 140.24C87.0817 140.24 74.9439 131.743 78.0329 121.866C81.1196 111.988 97.9379 119.079 97.9379 119.079L97.9379 119.082Z" fill-rule="nonzero" fill="#FFFFFF"/>
	<path id="Vector" d="M136.917 113.725C136.917 113.725 146.053 116.554 151.301 111.472C156.435 106.503 163.796 112.533 157.831 116.523C151.867 120.514 144.412 119.143 144.412 119.143" stroke="#231F20"/>
	<path id="Vector" d="M157.237 116.899C157.237 116.899 160.101 119.596 156.838 122.762C153.576 125.929 144.414 123.11 144.414 123.11" stroke="#231F20"/>
	<path id="Vector" d="M155.897 123.211C155.897 123.211 158.101 124.741 156.914 126.966C155.726 129.192 147.865 131.046 142.597 126.448" stroke="#231F20"/>
	<path id="Vector" d="M149.876 129.201C149.876 129.201 152.759 133.006 147.642 133.346C142.525 133.687 133.356 130.708 133.356 130.708C133.356 130.708 121.756 137.686 113.484 140.006C86.0302 147.705 75.9557 136.637 76.289 123.213C76.6223 109.841 87.4151 109.594 87.4151 109.594C101.212 130.783 125.507 116.521 125.507 116.521C125.507 116.521 129.129 102.888 140.203 102.724C140.203 102.724 144.823 102.724 145.564 105.601C145.564 105.601 146.825 110.275 141.41 109.829C137.328 109.493 136.032 112.162 136.29 112.944C136.551 113.725 140.964 116.059 139.48 120.213" stroke="#231F20"/>
	<path id="Vector" d="M67.9304 96.4235L99.3605 116.054L86.2487 143.982L63.4072 96.001L67.9304 96.4235Z" fill-rule="nonzero" fill="#000000"/>
	<path id="Vector" d="M14.6846 100.261C16.4474 97.9516 24.8929 89.9451 30.0405 88.8301L42.1313 90.6399C54.6682 92.7595 65.9962 95.2687 69.1439 95.9799C69.6955 96.1043 70.1673 96.454 70.449 96.9446C71.6156 98.9844 81.0916 124.33 85.197 137.128C90.5135 153.728 97.0226 171.734 97.0226 171.734L0 171.734C0 171.734 9.29291 107.341 14.6846 100.266L14.6846 100.261Z" fill-rule="nonzero" fill="#E5E6E8"/>
	<path id="Vector" d="M49.4783 77.347C70.355 83.8889 77.7278 74.819 77.7278 74.819C82.8143 67.4415 80.0516 48.9191 71.2375 40.0065C67.9913 36.725 53.4334 24.9956 53.4334 24.9956C53.4334 24.9956 59.311 38.7741 36.148 49.7664C35.3335 50.1537 35.0941 51.203 35.6762 51.8931C38.0024 54.6559 42.772 60.8362 40.9083 63.038C40.9083 63.038 40.6947 63.8173 38.5892 61.7705C33.5942 56.914 25.5453 57.3998 28.0593 65.6388C31.1248 75.6805 41.4036 70.3381 41.4036 70.3381C41.4787 70.8263 41.5374 71.3169 41.5797 71.8098L40.6149 90.412" stroke="#000000"/>
	<path id="Vector" d="M63.1606 79.7061L63.663 94.8602" stroke="#000000"/>
	<path id="Vector" d="M46.6992 14.5314C25.0032 17.3036 26.2214 35.8001 26.2214 35.8001C26.2214 35.8001 10.2059 44.0814 18.7923 61.8761C22.9188 70.4273 37.4133 75.6992 37.4133 75.6992C37.4133 75.6992 24.3108 73.0844 25.6064 84.2622C25.9186 86.9522 25.414 86.4897 24.7239 88.0413C24.3319 88.9262 24.9727 92.6514 25.9092 92.4096C30.1086 91.3252 37.6246 86.4733 41.338 76.7673L41.399 70.3381C41.399 70.3381 34.0098 74.5139 29.4044 68.5706C29.4044 68.5706 23.069 54.8413 35.8712 59.7917L40.0751 62.984C41.0587 63.6201 41.4553 61.6625 41.1408 60.5335C40.7089 58.9772 39.2841 56.4821 36.9039 53.4071C36.9039 53.4071 34.2985 50.6796 36.1434 49.7665C37.9884 48.851 58.0295 39.4737 53.4288 24.9956L64.7263 34.0491C64.7263 34.0491 68.3928 11.7593 46.6968 14.5314L46.6992 14.5314Z" fill-rule="nonzero" fill="#000000"/>
	<path id="Vector" d="M52.5156 135.245C52.5156 135.245 20.9893 146.224 5.22729 126.046C5.22729 126.046 15.8722 121.671 35.2326 125.229C35.2326 125.229 49.4759 129.828 52.5156 135.243L52.5156 135.245Z" fill-rule="nonzero" fill="#000000"/>
	<path id="Vector" d="M52.2715 134.797C52.2715 134.797 33.451 116.478 5.22729 126.048C5.22729 126.048 12.2269 91.5198 27.7213 89.027C46.293 86.0389 52.9358 117.699 52.2715 134.799L52.2715 134.797Z" fill-rule="nonzero" fill="#E5E6E8"/>
	<path id="Vector" d="M44.2838 98.4258C51.1801 109.183 52.5156 134.95 52.5156 134.95C52.5156 134.95 36.9391 117.148 5.22729 126.049" stroke="#000000"/>
	<path id="Vector" d="M55.0062 51.75C55.0062 52.6017 54.3157 53.2921 53.4641 53.2921C52.6123 53.2921 51.9219 52.6017 51.9219 51.75C51.9219 50.8983 52.6123 50.2078 53.4641 50.2078C54.3157 50.2078 55.0062 50.8983 55.0062 51.75Z" fill-rule="evenodd" fill="#231F20"/>
	<path id="Vector" d="M66.4562 41.788C66.4562 42.6397 65.7657 43.3302 64.914 43.3302C64.0623 43.3302 63.3718 42.6397 63.3718 41.788C63.3718 40.9363 64.0623 40.2459 64.914 40.2459C65.7657 40.2459 66.4562 40.9363 66.4562 41.788Z" fill-rule="evenodd" fill="#231F20"/>
	<path id="Vector" d="M55.45 66.4019C55.45 66.4019 55.9124 72.9485 62.5247 68.8689" stroke="#231F20"/>
	<path id="Vector" d="M49.9525 47.3067C49.9525 47.3067 44.2134 47.7621 46.549 54.0645" stroke="#231F20"/>
	<path id="Vector" d="M67.2145 56.7709L69.4726 50.3723C64.778 48.816 60.5084 44.8209 58.5037 42.7248C57.5226 41.699 57.2151 40.1921 57.7385 38.8705C58.3606 37.2979 59.8535 35.7675 63.4236 36.8918" stroke="#231F20"/>
	<path id="Vector" d="M30.8574 60.7447C30.8574 60.7447 29.226 68.1292 37.0894 66.4016" stroke="#231F20"/>
	<path id="Vector" d="M120.61 171.731L0 171.731" stroke="#231F20"/>
	<path id="Vector" d="M155.031 84.64C153.759 84.7433 101.738 98.0594 109.761 112.038C117.782 126.016 142.682 147.787 172.417 135.393C202.15 122.999 201.078 100.801 192.184 98.3224C183.29 95.8436 171.833 96.8553 168.392 95.3437C164.951 93.832 169.216 83.4922 155.033 84.64L155.031 84.64Z" fill-rule="nonzero" fill="#FFC600"/>
	<path id="Vector" d="M134.457 106.85C134.457 106.85 133.772 101.527 140.323 100.912C146.874 100.297 150.301 99.982 148.487 102.904C146.67 105.827 143.006 105.62 142.597 106.85C142.189 108.08 137.131 110.331 134.457 106.85Z" fill-rule="nonzero" fill="#FFFFFF"/>
	<path id="Vector" d="M140.323 100.912C146.874 100.297 150.301 99.982 148.487 102.904C146.67 105.827 143.006 105.62 142.597 106.85C142.189 108.08 137.131 110.331 134.457 106.85C134.457 106.85 133.772 101.527 140.323 100.912Z" stroke="#231F20"/>
	<path id="Vector" d="M89.6684 138.278C89.6684 138.278 96.4004 132.736 94.9686 122.462C93.5344 112.188 97.0436 111.301 95.4474 109.833C90.6027 105.378 89.3234 111.049 89.0276 112.066C88.7319 113.082 87.8023 122.556 86.1663 123.053C84.5279 123.551 84.1899 127.487 85.4339 129.443C86.678 131.398 90.3069 136.203 89.6708 138.28L89.6684 138.278Z" fill-rule="nonzero" fill="#FFFFFF"/>
	<path id="Vector" d="M94.9686 122.462C93.5344 112.188 97.0436 111.301 95.4474 109.833C90.6027 105.378 89.3234 111.049 89.0276 112.066C88.7319 113.082 87.8023 122.556 86.1663 123.053C84.5279 123.551 84.1899 127.487 85.4339 129.443C86.678 131.398 90.3069 136.203 89.6708 138.28L89.6684 138.278C89.6684 138.278 96.4004 132.736 94.9686 122.462Z" stroke="#000000"/>
	<path id="Vector" d="M111.874 77.3706C112.026 78.6287 111.963 79.8516 111.721 80.9948C110.907 84.8772 108.029 87.8277 104.527 87.9756C99.9894 88.161 101.501 87.1987 101.501 87.1987C101.501 87.1987 98.6351 81.0535 101.501 78.3236C104.367 75.5937 110.921 74.3825 111.874 72.0563C112.831 69.7231 111.503 74.2722 111.874 77.3729L111.874 77.3706Z" fill-rule="nonzero" fill="#FFC600"/>
	<path id="Vector" d="M78.1083 116.899C78.1083 116.899 100.123 84.6682 102.445 85.3513C104.766 86.0344 107.496 85.7574 105.583 88.83C103.673 91.9026 88.8306 121.284 85.8097 122.631C82.7888 123.978 75.592 121.812 78.1083 116.899Z" fill-rule="nonzero" fill="#FEB053"/>
	<path id="Vector" d="M111.874 77.3706C112.026 78.6287 111.963 79.8516 111.721 80.9948C111.515 80.7882 111.346 80.5512 111.25 80.3329C110.836 79.3963 110.172 80.1497 108.383 80.7459C105.926 81.5652 106.031 80.3352 105.259 78.9034C104.487 77.4692 103.262 78.6992 101.501 78.3236C104.367 75.5937 110.921 74.3825 111.874 72.0563C112.832 69.7231 111.503 74.2722 111.874 77.3729L111.874 77.3706Z" fill-rule="nonzero" fill="#FEB053"/>
	<path id="Vector" d="M90.551 110.04C90.551 110.04 82.6853 103.611 81.3826 103.623C80.0798 103.634 78.7653 103.376 76.2795 105.677C73.7938 107.977 71.3667 111.265 71.2657 113.725C71.1649 116.185 72.7704 123.837 72.7704 123.837C72.7704 123.837 73.8619 127.509 73.0333 129.293C72.2047 131.074 67.7425 138.229 54.0766 140.902C54.0766 140.902 46.6028 142.193 44.4457 128.943C44.4457 128.943 33.2938 121.389 16.7431 123.837C16.7431 123.837 10.781 161.816 26.0383 168.56C26.0383 168.56 33.5144 173.196 43.8214 169.814C54.1282 166.434 65.5525 162.84 84.6829 147.301C84.6829 147.301 92.1284 143.787 90.7999 135.809L86.563 126.971C86.563 126.971 88.0113 125.29 89.4783 126.25C90.9478 127.211 94.1072 127.534 95.14 126.25C96.1728 124.967 95.0884 121.413 93.7316 120.741C93.7316 120.741 95.9474 120.335 95.1376 118.659C94.3302 116.983 92.1472 115.533 91.2529 115.27C91.2529 115.27 90.5487 112.066 89.7741 111.939C88.9995 111.812 88.6333 111.333 88.6333 111.333C88.6333 111.333 90.2717 112.413 90.5534 110.04L90.551 110.04Z" fill-rule="nonzero" fill="#FFFFFF"/>
	<path id="Vector" d="M78.4978 117.847C78.4978 117.847 76.2397 108.634 82.6196 110.223C89.0019 111.812 91.2529 110.991 91.2529 115.27" stroke="#231F20"/>
	<path id="Vector" d="M80.7417 119.368C80.7417 119.368 80.8779 113.855 87.293 114.481C93.7081 115.108 96.8065 118.002 94.2339 120.582" stroke="#231F20"/>
	<path id="Vector" d="M83.5022 120.582C83.5022 120.582 91.8328 117.974 94.5462 121.523C97.2596 125.072 94.5462 127.175 92.2083 127.276C90.7412 127.34 89.6263 126.922 88.9972 126.598C88.3987 126.293 87.6921 126.201 87.0724 126.462C86.5185 126.696 86.2016 127.187 87.1569 128.21C89.0676 130.257 93.9101 140.104 87.9409 144.726C81.9695 149.348 54.5133 172.513 33.5145 170.609C20.5481 169.433 11.7951 158.547 16.7432 123.835C16.7432 123.835 23.731 123.467 27.5101 123.711C36.9274 124.319 44.4458 128.938 44.4458 128.938C45.4504 136.266 48.6122 139.109 50.9196 140.212C52.166 140.808 53.5908 140.9 54.9288 140.559C62.5621 138.628 68.2214 136.405 71.6931 131.011C73.1132 128.804 73.4723 126.081 72.6883 123.577C71.4841 119.72 70.3105 114.399 71.9372 111.808C74.6553 107.475 78.5541 100.792 83.3309 104.907C88.1076 109.021 93.1636 109.604 88.9996 111.808" stroke="#231F20"/>
	<path id="Vector" d="M162.437 116.899C162.894 117.018 164.894 120.159 167.826 120.582C170.758 121.007 167.349 124.868 163.16 126.25C158.97 127.633 155.475 126.506 153.299 126.25C152.109 126.112 151.402 124.915 151.024 123.356C150.346 120.556 151.918 117.732 154.674 116.889C156.585 116.305 159.176 116.049 162.437 116.899Z" fill-rule="nonzero" fill="#FEB053"/>
	<path id="Vector" d="M159.19 118.939C158.2 118.572 157.106 118.615 156.12 118.997C154.822 119.502 153.08 120.363 153.017 121.387C152.979 122.006 153.01 122.471 153.062 122.812C153.111 123.119 153.515 123.208 153.691 122.95C154.148 122.276 154.982 121.253 156.038 120.823C157.43 120.258 161.225 119.692 159.19 118.939Z" fill-rule="nonzero" fill="#FFFFFF"/>
	<path id="Vector" d="M136.248 113.793C136.579 113.88 138.023 116.148 140.142 116.455C142.262 116.763 139.799 119.551 136.771 120.551C133.743 121.551 131.218 120.734 129.645 120.551C128.786 120.45 128.274 119.587 128.002 118.46C127.511 116.436 128.647 114.397 130.638 113.786C132.018 113.364 133.891 113.178 136.248 113.793Z" fill-rule="nonzero" fill="#FEB053"/>
	<path id="Vector" d="M133.903 115.267C133.187 115.002 132.396 115.033 131.685 115.31C130.746 115.673 129.488 116.298 129.443 117.037C129.415 117.486 129.438 117.821 129.476 118.068C129.511 118.291 129.802 118.354 129.929 118.169C130.26 117.68 130.861 116.941 131.624 116.631C132.631 116.223 135.372 115.814 133.903 115.27L133.903 115.267Z" fill-rule="nonzero" fill="#FFFFFF"/>
	<path id="Vector" d="M164.836 100.886C165.157 100.97 166.563 103.177 168.624 103.475C170.685 103.773 168.291 106.486 165.345 107.461C162.399 108.432 159.942 107.639 158.413 107.461C157.578 107.362 157.08 106.522 156.815 105.425C156.338 103.456 157.444 101.473 159.38 100.879C160.723 100.468 162.545 100.287 164.838 100.886L164.836 100.886Z" fill-rule="nonzero" fill="#FEB053"/>
	<path id="Vector" d="M162.554 102.32C161.857 102.062 161.089 102.092 160.397 102.362C159.484 102.717 158.261 103.322 158.216 104.043C158.188 104.479 158.212 104.806 158.249 105.045C158.282 105.261 158.568 105.325 158.69 105.144C159.012 104.67 159.599 103.949 160.341 103.649C161.319 103.252 163.988 102.853 162.556 102.322L162.554 102.32Z" fill-rule="nonzero" fill="#FFFFFF"/>
	<path id="Vector" d="M182.731 108.463C183.172 108.578 185.104 111.611 187.935 112.019C190.768 112.427 187.475 116.157 183.428 117.493C179.382 118.828 176.006 117.739 173.905 117.493C172.755 117.359 172.072 116.202 171.708 114.7C171.053 111.995 172.572 109.268 175.234 108.453C177.079 107.888 179.581 107.641 182.731 108.463Z" fill-rule="nonzero" fill="#FEB053"/>
	<path id="Vector" d="M187.935 112.019C190.768 112.427 187.475 116.157 183.428 117.493C179.382 118.828 176.006 117.739 173.905 117.493C172.755 117.359 172.072 116.202 171.708 114.7C171.053 111.995 172.572 109.268 175.234 108.453C177.079 107.888 179.581 107.641 182.731 108.463C183.172 108.578 185.104 111.611 187.935 112.019Z" stroke="#FEB053"/>
	<path id="Vector" d="M179.598 110.434C178.64 110.08 177.584 110.122 176.633 110.491C175.38 110.977 173.699 111.812 173.636 112.798C173.598 113.397 173.629 113.845 173.68 114.174C173.727 114.472 174.117 114.556 174.288 114.307C174.732 113.657 175.535 112.667 176.553 112.254C177.898 111.707 181.565 111.162 179.598 110.432L179.598 110.434Z" fill-rule="nonzero" fill="#FFFFFF"/>
	<path id="Vector" d="M15.5555 56.5503C15.5555 56.5503 34.3197 50.7971 39.648 34.6313C44.9763 18.4656 57.8277 4.99451 41.7019 6.34186C25.576 7.68921 18.9708 20.172 19.9848 23.7657C20.9965 27.3571 -12.7856 49.1023 15.5579 56.5526L15.5555 56.5503Z" fill-rule="nonzero" fill="#FFC600"/>
	<path id="Vector" d="M15.4569 21.2283C16.9686 24.2939 24.1254 25.329 18.8488 29.3569C18.8488 29.3569 12.3139 27.3781 11.7646 26.4721L15.4569 21.2283Z" fill-rule="nonzero" fill="#FFC600"/>
</svg>
