<svg width="287.284668" height="227.408310" viewBox="0 0 287.285 227.408" fill="none" xmlns="http://www.w3.org/2000/svg" xmlns:xlink="http://www.w3.org/1999/xlink">
	<desc>
			Created with Pixso.
	</desc>
	<defs/>
	<path id="Vector" d="M56.7423 29.8301C56.7423 29.8301 55.429 45.3877 51.826 50.9768C41.4535 67.0668 38.2078 85.3169 48.137 95.0575C58.0663 104.798 122.474 106.072 127.743 84.166C132.179 65.7234 123.398 63.5764 121.524 48.264C120.676 41.3358 118.263 26.7967 118.263 26.7967L56.7423 29.8301Z" fill-rule="evenodd" fill="#474646"/>
	<path id="sk" d="M111.7 80.4144C111.588 80.3999 110.354 100.884 86.5678 99.0983C70.1005 97.8642 64.2291 80.3839 63.8497 80.3839C65.6251 80.0063 68.6152 79.4574 69.4035 79.0367C71.9968 77.6425 75.2039 76.1923 76.0406 71.1544C76.524 68.253 75.7051 53.3966 75.957 50.4575L101.234 56.1017C100.881 62.306 98.4088 76.6899 107.073 79.2354C108.516 79.6595 110.069 80.0464 111.7 80.4144Z" fill-rule="evenodd" fill="#E98862"/>
	<g opacity="0.500000">
		<path id="sh" d="M101.59 73.36C101.194 72.0835 100.939 70.7674 100.83 69.4353C100.552 66.3954 100.607 63.3342 100.995 60.3064C95.8581 59.6126 91.0184 57.4913 87.026 54.1834C86.5567 55.9175 83.9755 63.4951 84.6904 65.1431C86.04 68.2564 92.387 73.36 101.59 73.36Z" fill-rule="evenodd" fill="#474646"/>
	</g>
	<path id="Vector" d="M97.9902 66.9759C88.0087 67.7636 75.187 63.5473 72.7518 50.2249L70.554 38.2042C68.1188 24.8817 73.1385 12.8021 85.677 10.508C98.2155 8.2139 109.561 17.2988 111.997 30.6213L112.97 35.9435C113.904 41.0553 115.799 65.5701 97.9902 66.9759Z" fill-rule="evenodd" fill="#E98862"/>
	<path id="Vector" d="M102.065 48.5498L102.09 48.5459C102.597 48.4492 103.1 48.3246 103.594 48.1726C104.332 47.94 105.299 47.5541 105.177 46.8878C105.039 46.1285 101.463 38.3188 101.056 37.4305C101.018 37.3558 100.953 37.2986 100.875 37.2709C100.796 37.2432 100.71 37.2472 100.634 37.282C100.558 37.3168 100.498 37.3798 100.468 37.4575C100.438 37.5353 100.439 37.6218 100.471 37.6989C101.996 41.0249 104.451 46.4927 104.544 47.0038C104.46 47.2398 103.235 47.6808 101.974 47.9129C101.893 47.9286 101.821 47.975 101.773 48.0423C101.725 48.1096 101.705 48.1928 101.717 48.2746C101.728 48.3564 101.771 48.4306 101.836 48.4818C101.901 48.5331 101.983 48.5574 102.065 48.5498L102.065 48.5498Z" fill-rule="evenodd" fill="#474646"/>
	<path id="Vector" d="M100.175 54.2835C102.22 54.0306 104.176 53.3006 105.887 52.1524C105.959 52.1063 106.009 52.0336 106.027 51.9502C106.045 51.8669 106.03 51.7798 105.984 51.708C105.937 51.6362 105.865 51.5857 105.781 51.5676C105.698 51.5495 105.611 51.5652 105.539 51.6113C101.838 53.9914 98.1719 54.358 94.9382 52.6703C94.8729 52.6343 94.8056 52.602 94.7366 52.5736C94.6566 52.5442 94.5681 52.5478 94.4907 52.5836C94.4133 52.6194 94.3533 52.6845 94.3239 52.7646C94.2944 52.8447 94.298 52.9332 94.3338 53.0107C94.3696 53.0881 94.4347 53.1481 94.5148 53.1776C94.5399 53.1882 94.5824 53.2109 94.6409 53.2419C96.3411 54.1321 98.2681 54.4948 100.175 54.2835L100.175 54.2835Z" fill-rule="evenodd" fill="#474646"/>
	<path id="Vector" d="M60.5096 42.3271L71.7488 40.3368C80.2725 36.9474 82.9343 22.238 82.9343 22.238C82.9343 22.238 93.2 32.3713 118.263 26.7981C118.263 26.7981 113.459 -8.15121 76.422 1.77463C64.4795 4.97491 55.849 16.9419 56.8162 33.0135C57.4939 44.2745 60.5096 42.3271 60.5096 42.3271Z" fill-rule="evenodd" fill="#474646"/>
	<path id="Vector" d="M74.2725 54.1414C70.4621 54.8387 66.6276 51.3255 65.9306 47.5135C65.2336 43.7015 67.9385 41.0336 71.7488 40.3368L74.1792 42.5317L77.5482 53.5417L74.2725 54.1414Z" fill-rule="evenodd" fill="#E98862"/>
	<path id="Vector" d="M103.857 31.3036C104.818 30.6487 105.936 30.2602 107.096 30.1773C107.679 30.1319 108.265 30.1746 108.836 30.304C109.411 30.4321 109.968 30.632 110.494 30.8988L110.51 30.9066C110.568 30.9328 110.635 30.9354 110.695 30.9138C110.755 30.8922 110.804 30.8481 110.832 30.7908C110.86 30.7335 110.865 30.6675 110.846 30.6067C110.826 30.546 110.784 30.4951 110.727 30.4651C110.171 30.1583 109.578 29.9229 108.963 29.7644C108.343 29.6022 107.703 29.5341 107.063 29.5623C105.767 29.611 104.508 30.007 103.416 30.7088C103.376 30.7354 103.341 30.7697 103.314 30.8098C103.286 30.85 103.267 30.8951 103.257 30.9426C103.247 30.9901 103.247 31.0391 103.256 31.0867C103.265 31.1344 103.283 31.1798 103.31 31.2204C103.337 31.261 103.371 31.2959 103.411 31.3232C103.451 31.3506 103.496 31.3697 103.544 31.3796C103.591 31.3895 103.64 31.3899 103.688 31.3808C103.735 31.3718 103.781 31.3534 103.821 31.3268L103.83 31.321L103.857 31.3036Z" fill-rule="evenodd" fill="#474646"/>
	<path id="Vector" d="M93.6007 32.5367C92.3327 32.2612 91.014 32.331 89.7821 32.7388C89.1731 32.9366 88.5971 33.2246 88.0735 33.5933C87.5522 33.9568 87.0789 34.3848 86.6649 34.867C86.6427 34.8905 86.6253 34.9182 86.6138 34.9484C86.6023 34.9786 86.5968 35.0108 86.5977 35.0431C86.5995 35.1084 86.6272 35.1703 86.6746 35.2152C86.722 35.2601 86.7853 35.2843 86.8506 35.2825C86.9159 35.2807 86.9778 35.253 87.0226 35.2055L87.0357 35.192C87.4346 34.7581 87.8866 34.3761 88.3809 34.0551C88.8698 33.7337 89.4044 33.4881 89.9668 33.3268C91.0837 32.9977 92.2679 32.9705 93.3987 33.248L93.4267 33.2553C93.5215 33.28 93.6223 33.2661 93.7068 33.2165C93.7913 33.167 93.8527 33.0858 93.8774 32.991C93.9022 32.8961 93.8882 32.7954 93.8387 32.7108C93.7892 32.6263 93.7081 32.5648 93.6133 32.5401L93.6007 32.5367Z" fill-rule="evenodd" fill="#474646"/>
	<path id="Vector" d="M100.591 57.3073C100.961 57.2675 101.328 57.1962 101.686 57.094C101.768 57.0709 101.838 57.0162 101.879 56.9418C101.921 56.8674 101.932 56.7794 101.909 56.6973C101.885 56.6151 101.831 56.5455 101.756 56.5037C101.682 56.462 101.594 56.4515 101.512 56.4746C99.3557 57.081 98.1366 56.2526 98.0854 56.2168C98.0159 56.1674 97.9296 56.1476 97.8456 56.1618C97.7615 56.176 97.6865 56.223 97.6371 56.2925C97.5876 56.362 97.5678 56.4483 97.582 56.5324C97.5962 56.6165 97.6432 56.6916 97.7127 56.741C98.5778 57.2569 99.5948 57.457 100.591 57.3073L100.591 57.3073Z" fill-rule="evenodd" fill="#474646"/>
	<path id="Vector" d="M71.7594 40.153C79.3386 37.4837 81.9289 32.3254 82.7676 28.4679C83.3105 25.8951 83.3105 23.2373 82.7676 20.6645L82.5331 20.7245C83.0677 23.2637 83.0661 25.8867 82.5283 28.4254C81.7012 32.2195 79.1447 37.2941 71.6777 39.9257L71.7594 40.153Z" fill-rule="evenodd" fill="#474646"/>
	<g opacity="0.100000">
		<path id="Vector" d="M94.7195 46.9812C94.8417 48.187 93.6086 49.2996 91.9654 49.4663C90.3222 49.633 88.8911 48.7906 88.7689 47.5848C88.6467 46.379 89.8797 45.2664 91.5229 45.0997C93.1662 44.9331 94.5973 45.7755 94.7195 46.9812Z" fill-rule="evenodd" fill="#474646"/>
	</g>
	<g opacity="0.100000">
		<path id="Vector" d="M109.377 44.9641C109.502 46.1682 110.933 47.0096 112.577 46.8452C112.861 46.8162 113.141 46.7578 113.413 46.6711C113.514 45.2397 113.543 43.8615 113.524 42.5849C113.071 42.463 112.599 42.4269 112.132 42.4785C110.488 42.6429 109.256 43.7551 109.377 44.9641Z" fill-rule="evenodd" fill="#474646"/>
	</g>
	<path id="Vector" d="M36.979 202.123L34.1248 227.408L137.612 227.408L136.016 201.964L36.979 202.123Z" fill-rule="evenodd" fill="#474646"/>
	<path id="b_1_b" d="M86.022 94.0072C69.5432 93.2305 68.8495 79.2374 68.8495 79.2374C68.8495 79.2374 60.6846 79.7654 55.2564 80.5C46.3702 81.7026 36.95 84.7554 32.6746 92.1469C29.6014 97.4618 28.8613 98.4237 31.6571 128.415C33.6815 150.13 36.9789 202.124 36.9789 202.124L136.016 201.965C136.016 201.965 140.424 135.287 141.255 125.512C142.842 106.851 145.347 80.5493 140.03 79.2364C133.835 77.7068 113.615 80.2214 107.075 79.2364C106.965 79.2219 108.463 95.0657 86.022 94.0072Z" fill-rule="evenodd" fill="#F8A435"/>
	<path id="Vector" d="M261.546 20.8632C261.69 20.5377 261.899 20.2451 262.16 20.003C262.421 19.761 262.729 19.5747 263.064 19.4555C263.399 19.3363 263.755 19.2867 264.11 19.3098C264.465 19.3328 264.812 19.428 265.129 19.5895C265.732 19.9233 266.186 20.4737 266.399 21.1295C266.612 21.7853 266.568 22.4974 266.276 23.122L264.843 26.3576L274.05 18.2234C275.058 17.3012 276.885 16.8142 277.844 18.0135C278.243 18.4509 278.482 19.0106 278.522 19.6013C278.562 20.192 278.4 20.7789 278.064 21.266C278.076 21.2737 278.087 21.2828 278.097 21.2931C278.103 21.3015 278.108 21.3102 278.112 21.3192L279.667 19.897C279.953 19.6355 280.294 19.4407 280.664 19.3267C281.035 19.2127 281.426 19.1824 281.81 19.2379C282.194 19.2934 282.56 19.4333 282.884 19.6477C283.207 19.862 283.478 20.1454 283.679 20.4773C283.987 21.0138 284.101 21.6405 284.001 22.2513C283.901 22.862 283.593 23.4194 283.129 23.829L282.467 24.4339C282.476 24.462 282.48 24.4915 282.479 24.521C283.015 24.2183 283.64 24.1143 284.245 24.2274C284.85 24.3404 285.396 24.6632 285.787 25.139C286.206 25.6868 286.401 26.3732 286.332 27.0594C286.264 27.7455 285.938 28.3801 285.42 28.8349L283.795 30.3224C283.833 30.3175 283.872 30.3218 283.908 30.335C283.944 30.3481 283.976 30.3696 284.003 30.3978C284.032 30.4328 284.051 30.4757 284.056 30.5211C284.599 30.387 285.17 30.4301 285.687 30.6441C286.203 30.8582 286.638 31.2319 286.927 31.7108C287.236 32.2472 287.349 32.8739 287.249 33.4847C287.149 34.0955 286.841 34.6528 286.377 35.0624L272.517 47.7461C270.578 49.5203 268.154 50.6747 265.554 51.0614C262.955 51.4481 260.3 51.0493 257.928 49.9163L250.294 46.2682L261.546 20.8632Z" fill-rule="evenodd" fill="#E98862"/>
	<g opacity="0.200000">
		<g opacity="0.200000">
			<path id="Vector" d="M268.993 29.3645C269.036 29.411 269.095 29.4388 269.159 29.4419C269.222 29.445 269.284 29.4231 269.331 29.3809L278.077 21.6345C278.101 21.6135 278.12 21.588 278.134 21.5594C278.148 21.5309 278.156 21.4998 278.158 21.4681C278.16 21.4364 278.156 21.4047 278.145 21.3746C278.135 21.3446 278.119 21.3169 278.098 21.2931C278.077 21.2693 278.051 21.2499 278.023 21.236C277.994 21.2221 277.963 21.214 277.932 21.212C277.9 21.2101 277.868 21.2144 277.838 21.2248C277.808 21.2351 277.78 21.2513 277.757 21.2723L269.008 29.0192C268.984 29.0403 268.965 29.0658 268.951 29.0944C268.937 29.123 268.929 29.154 268.927 29.1857C268.925 29.2174 268.929 29.2491 268.94 29.2792C268.95 29.3092 268.966 29.3369 268.987 29.3606L268.993 29.3645Z" fill-rule="evenodd" fill="#474646"/>
		</g>
	</g>
	<g opacity="0.200000">
		<g opacity="0.200000">
			<path id="Vector" d="M272.302 33.3177C272.345 33.3643 272.404 33.3922 272.468 33.3954C272.531 33.3985 272.593 33.3767 272.64 33.3346L282.401 24.6888C282.425 24.6677 282.444 24.6422 282.458 24.6136C282.472 24.5851 282.48 24.5541 282.482 24.5224C282.484 24.4907 282.479 24.4589 282.469 24.4289C282.459 24.3988 282.443 24.3712 282.422 24.3474C282.378 24.3012 282.318 24.2735 282.255 24.2697C282.192 24.2659 282.129 24.2864 282.08 24.3271L272.319 32.9724C272.296 32.9935 272.276 33.019 272.262 33.0476C272.248 33.0761 272.24 33.1072 272.238 33.1389C272.237 33.1706 272.241 33.2024 272.251 33.2324C272.262 33.2624 272.278 33.29 272.299 33.3138L272.302 33.3177Z" fill-rule="evenodd" fill="#474646"/>
		</g>
	</g>
	<g opacity="0.200000">
		<g opacity="0.200000">
			<path id="Vector" d="M275.86 37.62C275.903 37.6667 275.963 37.6946 276.026 37.6977C276.089 37.7009 276.151 37.6791 276.199 37.637L283.985 30.7407C284.033 30.6981 284.062 30.6382 284.066 30.5742C284.07 30.5101 284.048 30.4471 284.006 30.3991C283.963 30.351 283.903 30.3219 283.839 30.318C283.775 30.3142 283.712 30.3359 283.664 30.3785L275.878 37.2747C275.854 37.2958 275.835 37.3214 275.821 37.3499C275.807 37.3784 275.799 37.4095 275.797 37.4412C275.795 37.4729 275.8 37.5046 275.81 37.5347C275.82 37.5647 275.836 37.5924 275.857 37.6162L275.86 37.62Z" fill-rule="evenodd" fill="#474646"/>
		</g>
	</g>
	<path id="Vector" d="M252.719 29.8301L200.233 72.8436L127.578 79.4008C122.919 79.7915 118.591 81.9682 115.498 85.4763C112.405 88.9844 110.787 93.5525 110.982 98.2261C111.176 102.9 113.168 107.317 116.542 110.556C119.916 113.795 124.41 115.604 129.085 115.606C129.598 115.606 130.113 115.584 130.632 115.54L208.99 108.5C212.701 108.186 216.226 106.735 219.084 104.346L274.053 55.5597L252.719 29.8301Z" fill-rule="evenodd" fill="#F8A435"/>
	<path id="Vector" d="M264.359 27.566L266.276 23.122C266.568 22.4974 266.612 21.7853 266.399 21.1295C266.186 20.4737 265.732 19.9233 265.129 19.5895C264.812 19.428 264.465 19.3328 264.11 19.3098C263.755 19.2867 263.399 19.3363 263.064 19.4555C262.728 19.5747 262.421 19.761 262.16 20.003C261.899 20.2451 261.69 20.5377 261.546 20.8632L264.359 27.566Z" fill-rule="evenodd" fill="#E98862"/>
	<path id="Vector" d="M127.327 160.914C127.275 161.602 126.963 162.243 126.455 162.709C125.947 163.175 125.281 163.43 124.593 163.422L122.39 163.449C122.421 163.47 122.447 163.499 122.465 163.533C122.483 163.567 122.492 163.604 122.492 163.642C122.493 163.689 122.479 163.734 122.452 163.771C122.946 164.033 123.343 164.447 123.585 164.951C123.827 165.455 123.902 166.024 123.797 166.574C123.669 167.179 123.335 167.722 122.853 168.11C122.371 168.498 121.77 168.708 121.152 168.705L102.373 168.908C99.7452 168.939 97.1686 168.182 94.9736 166.737C92.7786 165.292 91.0653 163.223 90.0538 160.797L86.7906 152.984L96.7842 150.857L97.0229 148.364L112.112 141.555C112.436 141.409 112.787 141.33 113.143 141.323C113.498 141.317 113.852 141.383 114.181 141.518C114.51 141.652 114.809 141.853 115.058 142.107C115.308 142.36 115.503 142.662 115.632 142.994C115.859 143.645 115.83 144.358 115.552 144.989C115.274 145.62 114.767 146.122 114.133 146.393L110.906 147.848L123.19 147.93C124.558 147.915 126.243 148.769 126.158 150.3C126.165 150.892 125.971 151.47 125.608 151.937C125.244 152.405 124.733 152.735 124.158 152.875C124.158 152.89 124.16 152.9 124.161 152.916L124.154 152.943L126.26 152.921C126.648 152.916 127.033 152.998 127.386 153.161C127.738 153.323 128.051 153.562 128.3 153.86C128.549 154.158 128.729 154.507 128.827 154.883C128.924 155.259 128.937 155.652 128.864 156.034C128.737 156.639 128.405 157.181 127.924 157.569C127.443 157.956 126.842 158.166 126.224 158.161L125.323 158.174C125.311 158.199 125.296 158.221 125.279 158.243C125.88 158.377 126.414 158.718 126.788 159.206C127.163 159.695 127.353 160.299 127.327 160.914L127.327 160.914Z" fill-rule="evenodd" fill="#E98862"/>
	<g opacity="0.200000">
		<g opacity="0.200000">
			<path id="Vector" d="M111.995 152.859C111.996 152.922 112.022 152.982 112.067 153.027C112.113 153.071 112.173 153.096 112.237 153.096L123.918 153.157C123.982 153.157 124.044 153.132 124.089 153.086C124.135 153.041 124.16 152.979 124.16 152.915C124.16 152.851 124.135 152.79 124.089 152.744C124.044 152.699 123.982 152.673 123.918 152.673L112.237 152.612C112.173 152.612 112.111 152.638 112.066 152.683C112.021 152.729 111.995 152.79 111.995 152.854L111.995 152.859Z" fill-rule="evenodd" fill="#474646"/>
		</g>
	</g>
	<g opacity="0.200000">
		<g opacity="0.200000">
			<path id="Vector" d="M111.826 158.012C111.827 158.075 111.853 158.136 111.898 158.18C111.944 158.225 112.004 158.25 112.068 158.25L125.104 158.318C125.168 158.318 125.23 158.292 125.275 158.247C125.32 158.202 125.346 158.14 125.346 158.076C125.344 158.012 125.317 157.952 125.273 157.907C125.228 157.862 125.167 157.836 125.104 157.834L112.068 157.766C112.004 157.766 111.942 157.792 111.897 157.837C111.851 157.883 111.826 157.944 111.826 158.008L111.826 158.012Z" fill-rule="evenodd" fill="#474646"/>
		</g>
	</g>
	<g opacity="0.200000">
		<g opacity="0.200000">
			<path id="Vector" d="M111.611 163.593C111.612 163.656 111.638 163.716 111.683 163.761C111.728 163.805 111.789 163.83 111.853 163.83L122.251 163.884C122.315 163.884 122.377 163.859 122.422 163.813C122.467 163.768 122.493 163.706 122.493 163.642C122.493 163.578 122.467 163.517 122.422 163.471C122.377 163.426 122.315 163.401 122.251 163.401L111.853 163.346C111.788 163.346 111.727 163.372 111.682 163.417C111.636 163.463 111.611 163.524 111.611 163.588L111.611 163.593Z" fill-rule="evenodd" fill="#474646"/>
		</g>
	</g>
	<path id="Vector" d="M101.403 174.5L22.7764 188.512C19.473 189.389 15.9891 189.314 12.7266 188.296C9.46405 187.277 6.55585 185.357 4.3374 182.756C2.11902 180.155 0.680847 176.979 0.188843 173.596C-0.303223 170.212 0.170959 166.758 1.55664 163.633L30.1907 96.9961C34.2509 87.8411 44.286 83.7119 53.4356 87.7734C57.8299 89.7237 61.2698 93.3404 62.9986 97.828C64.7275 102.316 64.6036 107.306 62.6544 111.703L45.8391 151.58L98.4233 144.59L101.403 174.5Z" fill-rule="evenodd" fill="#F8A435"/>
	<path id="Vector" d="M36.3264 186.431C36.3491 186.431 36.3715 186.428 36.3931 186.422L101.469 174.733C101.53 174.715 101.581 174.675 101.612 174.62C101.643 174.565 101.652 174.501 101.636 174.44L98.6572 143.561C98.6413 143.5 98.6021 143.448 98.5479 143.415C98.4936 143.382 98.4287 143.372 98.3672 143.387L46.274 151.231L62.8685 111.807C62.8925 111.75 62.8937 111.686 62.8717 111.628C62.8497 111.57 62.8063 111.522 62.7505 111.495C62.6946 111.469 62.6306 111.464 62.5715 111.483C62.5125 111.502 62.4631 111.543 62.4334 111.598L45.6215 151.475C45.6023 151.516 45.5949 151.562 45.6003 151.607C45.6057 151.652 45.6237 151.694 45.6521 151.73C45.6805 151.765 45.7183 151.791 45.761 151.806C45.8039 151.821 45.85 151.824 45.8942 151.814L98.2487 143.909L101.109 174.331L36.2593 185.958C36.2031 185.974 36.1545 186.01 36.1226 186.059C36.0908 186.108 36.0778 186.167 36.0859 186.225C36.0941 186.283 36.123 186.336 36.1672 186.374C36.2115 186.412 36.268 186.433 36.3264 186.433L36.3264 186.431Z" fill-rule="evenodd" fill="#474646"/>
	<path id="Vector" d="M39.3315 152.692C39.3488 152.692 39.366 152.69 39.3828 152.686L45.8913 151.816C45.9225 151.809 45.9522 151.796 45.9786 151.778C46.0049 151.76 46.0275 151.737 46.0449 151.71C46.0623 151.684 46.0742 151.654 46.08 151.622C46.0857 151.591 46.0851 151.559 46.0783 151.527C46.0715 151.496 46.0586 151.466 46.0403 151.44C46.022 151.414 45.9987 151.392 45.9717 151.375C45.9448 151.358 45.9147 151.346 45.8832 151.341C45.8517 151.335 45.8195 151.336 45.7883 151.343L39.2798 152.214C39.2218 152.226 39.1706 152.26 39.136 152.309C39.1014 152.357 39.0858 152.416 39.0922 152.476C39.0986 152.535 39.1265 152.589 39.1707 152.629C39.2148 152.669 39.2721 152.691 39.3315 152.691L39.3315 152.692Z" fill-rule="evenodd" fill="#474646"/>
	<path id="Vector" d="M142.176 114.805C142.237 114.805 142.296 114.782 142.34 114.741C142.385 114.699 142.413 114.643 142.418 114.582L143.495 100.636C143.499 100.572 143.479 100.508 143.437 100.46C143.395 100.411 143.336 100.381 143.271 100.376C143.207 100.371 143.144 100.391 143.095 100.433C143.046 100.475 143.016 100.535 143.011 100.599L141.934 114.545C141.929 114.608 141.95 114.672 141.992 114.72C142.034 114.769 142.093 114.799 142.157 114.804C142.163 114.805 142.169 114.805 142.176 114.805Z" fill-rule="evenodd" fill="#474646"/>
	<path id="Vector" d="M110.797 34.3075C110.797 35.175 110.095 35.8782 109.227 35.8782C108.36 35.8782 107.657 35.175 107.657 34.3075C107.657 33.4401 108.36 32.7369 109.227 32.7369C110.095 32.7369 110.797 33.4401 110.797 34.3075Z" fill-rule="evenodd" fill="#474646"/>
	<path id="Vector" d="M94.8836 36.9972C94.8836 37.8646 94.1807 38.5678 93.3136 38.5678C92.4465 38.5678 91.7437 37.8646 91.7437 36.9972C91.7437 36.1297 92.4465 35.4265 93.3136 35.4265C94.1807 35.4265 94.8836 36.1297 94.8836 36.9972Z" fill-rule="evenodd" fill="#474646"/>
</svg>
