<svg width="170.360107" height="194.901001" viewBox="0 0 170.36 194.901" fill="none" xmlns="http://www.w3.org/2000/svg" xmlns:xlink="http://www.w3.org/1999/xlink">
	<desc>
			Created with Pixso.
	</desc>
	<defs/>
	<path id="Vector" d="M75.6084 60.0496C75.6084 60.0496 66.3203 84.1492 74.7752 96.578C74.7752 96.578 80.4321 105.786 93.03 100.644L92.3094 110.068C92.0629 113.293 94.1473 116.244 97.2762 117.067C102.351 118.405 108.154 118.847 113.315 116.359C120.319 112.981 116.54 104.725 116.54 104.725L114.526 74.239C114.526 74.239 120.906 76.0205 122.545 69.1805C124.185 62.3406 118.503 54.679 113.658 63.0659C113.658 63.0659 113.592 45.1021 93.0323 46.9682C93.0323 46.9682 80.5072 45.6796 75.6108 60.0473L75.6084 60.0496Z" fill-rule="nonzero" fill="#FFFFFF"/>
	<path id="Vector" d="M52.997 75.2459C52.5933 76.1074 52.0159 76.8726 51.3117 77.4923C50.6051 78.1119 49.7766 78.5861 48.8658 78.8701L25.8437 86.1936L16.0273 89.3179L15.9522 88.5315L13.5674 63.6034L46.9786 65.3427C48.5935 65.4296 50.1286 66.0798 51.3093 67.19L51.4807 67.352C53.6402 69.3777 54.2552 72.5606 52.9994 75.2459L52.997 75.2459Z" fill-rule="nonzero" fill="#F480FF"/>
	<path id="Vector" d="M25.8438 86.1937L16.0275 89.3179L15.9524 88.5316C20.3254 86.9706 26.0011 83.1634 26.2758 73.9432C26.2758 73.9432 28.0691 80.1049 25.8438 86.1937Z" fill-rule="nonzero" fill="#231F20"/>
	<path id="Vector" d="M26.5482 76.4594C26.5482 83.6257 20.7388 89.4352 13.5724 89.4352C6.4061 89.4352 0.59668 83.6257 0.59668 76.4594C0.59668 69.2931 6.4061 63.4836 13.5724 63.4836C20.7388 63.4836 26.5482 69.2931 26.5482 76.4594Z" fill-rule="evenodd" fill="#FFC600"/>
	<path id="Vector" d="M16.9547 85.9401C16.0134 86.2476 15.0064 86.4072 13.9666 86.4072C8.53729 86.4072 4.13379 82.0037 4.13379 76.5745C4.13379 71.1452 8.53729 66.7417 13.9666 66.7417C14.6238 66.7417 15.2623 66.8074 15.882 66.9318C11.9127 68.1947 9.03726 71.9081 9.03726 76.2975C9.03726 81.0695 12.4432 85.0529 16.9547 85.9401Z" fill-rule="nonzero" fill="#231F20"/>
	<path id="Vector" d="M1.19263 72.6498C4.92245 62.0167 14.9266 63.6715 14.9266 63.6715C14.9266 63.6715 23.4965 64.594 25.9753 72.5606C27.278 76.7435 26.4212 81.3629 23.7383 84.8252C22.7031 86.1608 21.3323 87.4448 19.5531 88.2874C19.5531 88.2874 10.9808 92.5736 4.40607 85.7688" stroke="#231F20"/>
	<path id="Vector" d="M0.772522 74.3939C0.772522 74.3939 -0.68515 79.5345 3.14798 84.3159" stroke="#231F20"/>
	<path id="Vector" d="M15.3278 68.9998C15.3278 68.9998 11.0464 71.6357 11.2647 75.9172L13.5627 76.5768C13.5627 76.5768 12.9336 74.1826 15.3278 68.9998Z" fill-rule="nonzero" fill="#FFFFFF"/>
	<path id="Vector" d="M12.145 77.9196L14.2318 78.3632L14.9993 80.8607C14.9993 80.8607 12.8375 81.7715 12.145 77.9219L12.145 77.9196Z" fill-rule="nonzero" fill="#FFFFFF"/>
	<path id="Vector" d="M15.6213 86.0552C15.6213 86.0552 24.4424 84.8112 22.7406 74.3939" stroke="#000000"/>
	<path id="Vector" d="M35.2352 83.2056L37.7092 82.3159C37.7092 82.3159 40.2912 78.6213 44.4459 77.6425C44.4459 77.6425 47.8143 76.6191 48.2955 79.5931C48.7767 82.5671 47.4458 84.2712 46.3026 84.7524C45.1595 85.2336 42.9507 85.4097 41.3334 86.0059C39.7162 86.6021 37.9815 88.9189 37.8407 91.2379C37.6998 93.5571 37.5919 97.4207 37.6036 98.2281C37.6153 99.0356 37.958 108.035 39.6458 113.284C41.3334 118.53 45.2675 126.433 51.2014 128.013L58.8935 158.077L56.1542 160.225C56.1542 160.225 42.4507 159.584 36.4347 155.748C30.4209 151.915 20.5365 145.502 18.2198 132.332C18.2198 132.332 15.9053 116.166 19.276 101.69L22.6467 87.2124L35.2375 83.2056L35.2352 83.2056Z" fill-rule="nonzero" fill="#FFFFFF"/>
	<path id="Vector" d="M22.6444 87.2123C22.6444 87.2123 10.6334 126.642 22.6444 143.711C34.6554 160.781 55.5533 162.666 69.0056 158.077L50.8822 127.952C50.8822 127.952 35.3268 123.086 37.8806 90.6745C37.9346 89.9797 38.1435 89.3037 38.4839 88.6934C39.5565 86.7733 41.4696 85.3392 45.2628 85.0575C48.9105 84.7876 49.7579 77.1143 45.6853 77.4335C41.6104 77.7527 37.1084 81.945 37.0426 83.9214" stroke="#000000"/>
	<path id="Vector" d="M39.3452 62.6316C39.3452 62.6316 44.1595 60.167 44.9294 65.845C46.089 74.3938 40.8709 71.1663 40.8709 71.1663C40.8709 71.1663 40.04 70.5654 40.6667 69.0749C41.2935 67.5844 40.5447 63.6832 39.3452 62.6316Z" fill-rule="nonzero" fill="#FFFFFF"/>
	<path id="Vector" d="M44.9294 65.845C46.089 74.3938 40.8709 71.1663 40.8709 71.1663C40.8709 71.1663 40.04 70.5654 40.6667 69.0749C41.2935 67.5844 40.5447 63.6832 39.3452 62.6316C39.3452 62.6316 44.1595 60.167 44.9294 65.845Z" stroke="#000000"/>
	<path id="Vector" d="M26.386 61.1388C29.3717 61.1388 31.3364 64.202 32.496 65.9155C34.639 69.0773 33.9348 73.631 31.1251 73.9221C28.3154 74.2132 29.0713 70.8777 28.7732 69.251C28.0361 65.2465 23.1021 63.9485 23.1021 63.9485C23.1021 63.9485 22.8369 61.1388 26.386 61.1388Z" fill-rule="nonzero" fill="#FFFFFF"/>
	<path id="Vector" d="M32.496 65.9155C34.639 69.0773 33.9348 73.631 31.1251 73.9221C28.3154 74.2132 29.0713 70.8777 28.7732 69.251C28.0361 65.2465 23.1021 63.9485 23.1021 63.9485C23.1021 63.9485 22.8369 61.1388 26.386 61.1388C29.3717 61.1388 31.3364 64.202 32.496 65.9155Z" stroke="#000000"/>
	<path id="Vector" d="M151.433 161.541C151.433 161.541 143.605 153.474 158.566 166.116C158.566 166.116 161.585 142.796 156.315 125.499C151.043 108.202 117.334 104.723 117.334 104.723C101.879 128.325 91.9058 106.69 91.9058 106.69L51.7273 125.375C51.7273 125.375 40.3477 155.298 61.4216 161.83L73.9256 158.072L72.8036 194.399L151.747 194.399L151.435 161.541L151.433 161.541Z" fill-rule="nonzero" fill="#E6E7E8"/>
	<path id="Vector" d="M116.608 105.805L114.524 74.2413C114.524 74.2413 120.338 75.9994 122.542 69.1829C124.087 64.4062 120.54 57.2329 115.313 60.789C111.801 63.1762 114.663 67.7792 112.836 69.0421C111.01 70.3073 106.726 63.0894 109.254 57.47C109.254 57.47 92.4666 66.0915 86.8472 50.9187C86.8472 50.9187 85.8637 59.7703 75.6084 60.0496C75.6084 60.0496 61.2618 108.371 90.0958 101.519C93.1731 100.787 96.0955 99.5168 98.7902 97.8596C101.41 96.2494 105.034 93.7942 107.71 91.0971" stroke="#000000"/>
	<path id="Vector" d="M79.289 70.096C79.289 71.0061 78.5513 71.7438 77.6412 71.7438C76.7311 71.7438 75.9934 71.0061 75.9934 70.096C75.9934 69.186 76.7311 68.4482 77.6412 68.4482C78.5513 68.4482 79.289 69.186 79.289 70.096Z" fill-rule="evenodd" fill="#000000"/>
	<path id="Vector" d="M91.9033 73.286C91.9033 74.196 91.1655 74.9338 90.2555 74.9338C89.3454 74.9338 88.6077 74.196 88.6077 73.286C88.6077 72.3759 89.3454 71.6382 90.2555 71.6382C91.1655 71.6382 91.9033 72.3759 91.9033 73.286Z" fill-rule="evenodd" fill="#000000"/>
	<path id="Vector" d="M84.2136 71.8447C84.2136 71.8447 80.479 80.2503 80.0072 81.5836C79.2679 83.668 84.5305 83.9943 84.5305 83.9943" stroke="#000000"/>
	<path id="Vector" d="M90.2556 66.7933C90.2556 66.7933 94.7131 65.4742 96.821 70.0936" stroke="#000000"/>
	<path id="Vector" d="M82.1293 66.7934C82.1293 66.7934 79.2914 61.9462 76.4512 65.3873" stroke="#000000"/>
	<path id="Vector" d="M84.4766 91.8741C84.4766 91.8741 88.8824 95.4232 90.5185 87.9424" stroke="#000000"/>
	<path id="Vector" d="M88.6076 36.4476C88.6076 36.4476 99.3511 26.7534 112.698 35.7458C126.044 44.7359 129.556 56.538 130.68 63.5611C131.805 70.5865 136.764 71.5583 138.849 77.4218C144.891 94.4208 123.338 94.3363 115.845 94.2002L114.526 74.2389C114.526 74.2389 121.8 76.0651 122.904 67.2839C122.904 67.2839 122.364 59.444 117.618 60.0261C116.134 60.2092 114.881 61.1974 114.181 62.5189C113.782 63.27 113.437 64.1925 113.454 65.1056C113.496 67.2135 114.374 70.563 110.937 68.6054C110.937 68.6054 107.78 65.8732 108.677 58.0966C108.677 58.0966 91.9055 65.4554 86.8495 50.9139C86.8495 50.9139 84.6008 60.0449 75.6107 60.0449C75.6107 60.0449 68.8364 78.6377 73.9089 94.8034C73.9089 94.8034 64.7827 97.2657 56.8911 93.8669C50.8328 91.2567 50.4501 80.6306 55.863 76.7387C57.0577 75.8796 58.161 74.8891 59.0412 73.7084C63.7569 67.3872 66.0948 65.561 63.4236 59.1999C60.473 52.1744 63.9587 32.8586 88.6099 36.4406L88.6076 36.4476Z" fill-rule="nonzero" fill="#000000"/>
	<path id="Vector" d="M93.0275 100.644L92.5627 108.063" stroke="#000000"/>
	<path id="Vector" d="M160.864 175.761C160.864 175.761 157.862 176.519 151.179 176.219L153.25 167.719C153.25 167.719 160.618 170.722 160.864 175.764L160.864 175.761Z" fill-rule="nonzero" fill="#000000"/>
	<path id="Vector" d="M35.2353 62.526C35.2353 62.526 38.606 60.1036 39.8712 62.9485C41.1363 65.7934 41.6621 70.1617 38.606 71.7438C38.606 71.7438 37.998 72.164 37.3924 71.7438C37.3924 71.7438 38.4017 69.5491 37.9323 67.5398C37.4628 65.5305 35.7775 62.7208 35.2329 62.526L35.2353 62.526Z" fill-rule="nonzero" fill="#FFFFFF"/>
	<path id="Vector" d="M39.8712 62.9485C41.1363 65.7934 41.6621 70.1617 38.606 71.7438C38.606 71.7438 37.998 72.164 37.3924 71.7438C37.3924 71.7438 38.4017 69.5491 37.9323 67.5398C37.4628 65.5305 35.7775 62.7208 35.2329 62.526L35.2353 62.526C35.2353 62.526 38.606 60.1036 39.8712 62.9485Z" stroke="#000000"/>
	<path id="Vector" d="M30.7987 63.3921C30.7987 63.3921 33.1859 58.0661 36.2961 62.3076C39.4039 66.5492 38.9555 72.739 35.8477 71.8423C32.7399 70.9456 34.3737 67.6806 33.6085 66.6783C32.8456 65.6783 32.5123 65.9272 32.5123 65.9272L30.7964 63.3897L30.7987 63.3921Z" fill-rule="nonzero" fill="#FFFFFF"/>
	<path id="Vector" d="M36.2961 62.3076C39.4039 66.5492 38.9555 72.739 35.8477 71.8423C32.7399 70.9456 34.3737 67.6806 33.6085 66.6783C32.8456 65.6783 32.5123 65.9272 32.5123 65.9272L30.7964 63.3897L30.7987 63.3921C30.7987 63.3921 33.1859 58.0661 36.2961 62.3076Z" stroke="#000000"/>
	<path id="Vector" d="M58.8911 134.947C58.8911 134.947 64.4729 128.231 68.2708 123.595L110.832 122.436L126.742 168.269L122.857 185.77L82.594 184.517L58.8911 134.947Z" fill-rule="nonzero" fill="#F480FF"/>
	<path id="Vector" d="M70.5783 126.473L63.5012 134.855L106.428 133.35L124.545 178.587L125.753 172.219L108.416 125.365L70.5783 126.473Z" fill-rule="nonzero" fill="#FFFFFF"/>
	<path id="Vector" d="M63.5012 134.855L106.428 133.35L124.545 178.587L125.753 172.219L108.416 125.365L70.5783 126.473L63.5012 134.855Z" stroke="#000000"/>
	<path id="Vector" d="M105.792 156.964C105.792 156.964 93.1685 140.655 90.6827 140.052C90.6827 140.052 86.4835 141.061 88.136 144.662C89.887 148.479 92.6404 149.007 92.6404 149.007C92.6404 149.007 93.7999 150.087 91.5348 150.469C91.5348 150.469 79.0754 145.716 77.2258 145.446C75.5216 145.197 74.294 145.862 75.9747 149.556L76.9066 150.469C76.9066 150.469 74.0217 152.96 76.2516 154.725C78.4816 156.49 79.2421 156.863 79.2421 156.863C79.2421 156.863 77.5779 159.408 79.0989 160.682C80.6176 161.957 82.2607 162.795 82.2607 162.795C82.2607 162.795 79.4182 164.574 81.8711 165.985C84.324 167.396 87.6618 169.94 94.7224 169.233C94.7224 169.233 101.03 169.081 103.133 170.191C105.238 171.299 119.308 185.634 126.655 189.436C130.253 191.298 141.849 198.783 147.844 188.073C147.844 188.073 150.036 183.939 151.038 178.13C152.041 172.322 158.045 153.251 157.571 141.134C157.571 141.134 159.205 125.259 149.301 126.032C149.301 126.032 142.447 125.654 138.868 135.292C138.868 135.292 129.256 151.852 129.749 162.915L108.804 159.166C108.804 159.166 106.541 158.049 105.795 156.967L105.792 156.964Z" fill-rule="nonzero" fill="#FFFFFF"/>
	<path id="Vector" d="M76.876 150.469C76.876 150.469 73.2143 153.239 77.991 156.166C82.7654 159.093 91.0677 160.682 91.0677 160.682" stroke="#000000"/>
	<path id="Vector" d="M79.2373 156.861C79.2373 156.861 74.6061 163.438 89.3541 163.384" stroke="#000000"/>
	<path id="Vector" d="M82.249 162.621C82.249 162.621 77.5145 165.729 86.9694 168.266C89.8049 169.027 92.746 169.309 95.6825 169.217C98.295 169.135 102.809 168.59 104.738 170.985C108.67 175.867 143.234 211.898 149.834 182.646C154.435 162.25 164.439 126.853 149.273 126.029C134.107 125.206 129.746 162.912 129.746 162.912L109.484 159.349C107.982 159.065 106.651 158.211 105.766 156.964C102.269 152.04 92.5535 139.939 90.6569 140.052C88.0374 140.209 84.7136 145.127 92.6146 149.009C92.6146 149.009 93.4924 149.624 92.4409 150.357C90.1147 151.979 75.7869 141.709 75.0217 146.96C74.2588 152.211 90.1805 156.293 90.1805 156.293" stroke="#000000"/>
	<path id="Vector" d="M151.179 118.15C151.179 118.15 136.593 113.577 134.286 130.266C133.262 137.677 128.26 163.473 130.364 162.884C130.364 162.884 159.176 165.015 160.864 175.761C160.864 175.761 166.913 125.56 151.179 118.15Z" fill-rule="nonzero" fill="#E6E7E8"/>
	<path id="Vector" d="M129.746 162.912L132.227 142.817" stroke="#000000"/>
	<path id="Vector" d="M119.423 64.9507C119.423 64.9507 120.371 70.0091 115.578 70.5349" stroke="#000000"/>
	<path id="Vector" d="M158.207 46.3282C153.392 49.1082 144.151 42.1179 137.568 30.7147C130.984 19.3116 129.551 7.81381 134.366 5.03375C139.181 2.25369 148.421 9.24408 155.005 20.6472C161.589 32.0504 163.022 43.5481 158.207 46.3282Z" stroke="#231F20"/>
	<path id="Vector" d="M152.369 34.815C142.434 43.4553 131.421 47.0583 127.773 42.8626C124.124 38.667 129.221 28.2615 139.157 19.6213C149.093 10.9811 160.105 7.37805 163.754 11.5737C167.402 15.7693 162.305 26.1748 152.369 34.815Z" stroke="#231F20"/>
	<path id="Vector" d="M168.384 28.7239C168.021 34.2721 157.075 38.0717 143.936 37.2105C130.797 36.3494 120.44 31.1535 120.804 25.6053C121.167 20.0571 132.113 16.2575 145.252 17.1187C158.391 17.9799 168.748 23.1757 168.384 28.7239Z" stroke="#231F20"/>
	<path id="Vector" d="M133.41 11.3083C133.41 12.3985 132.526 13.2823 131.436 13.2823C130.346 13.2823 129.462 12.3985 129.462 11.3083C129.462 10.218 130.346 9.33423 131.436 9.33423C132.526 9.33423 133.41 10.218 133.41 11.3083Z" fill-rule="evenodd" fill="#FFC600"/>
	<path id="Vector" d="M154.709 46.4423C154.709 47.5326 153.826 48.4164 152.735 48.4164C151.645 48.4164 150.761 47.5326 150.761 46.4423C150.761 45.3521 151.645 44.4683 152.735 44.4683C153.826 44.4683 154.709 45.3521 154.709 46.4423Z" fill-rule="evenodd" fill="#FFC600"/>
	<path id="Vector" d="M133.41 44.0998C133.41 45.19 132.526 46.0739 131.436 46.0739C130.346 46.0739 129.462 45.19 129.462 44.0998C129.462 43.0096 130.346 42.1257 131.436 42.1257C132.526 42.1257 133.41 43.0096 133.41 44.0998Z" fill-rule="evenodd" fill="#F480FF"/>
	<path id="Vector" d="M166.495 13.8691C166.495 14.9593 165.611 15.8431 164.521 15.8431C163.431 15.8431 162.547 14.9593 162.547 13.8691C162.547 12.7788 163.431 11.895 164.521 11.895C165.611 11.895 166.495 12.7788 166.495 13.8691Z" fill-rule="evenodd" fill="#F480FF"/>
	<path id="Vector" d="M151.742 194.401L33.3408 194.401" stroke="#231F20"/>
</svg>
