<svg width="169.701569" height="189.281158" viewBox="0 0 169.702 189.281" fill="none" xmlns="http://www.w3.org/2000/svg" xmlns:xlink="http://www.w3.org/1999/xlink">
	<desc>
			Created with Pixso.
	</desc>
	<defs/>
	<path id="Vector" d="M101.738 134.09C101.738 134.09 116.193 140.469 130.528 130.944C130.528 130.944 134.605 118.853 143.588 117.285C143.588 117.285 151.395 117.372 151.212 120.088C151.212 120.088 151.942 123.984 148.717 124.233C145.492 124.482 141.996 124.151 141.581 127.717L142.811 128.524C142.811 128.524 150.564 130.766 154.249 128.153C157.935 125.541 163.225 121.177 165.911 126.538C165.911 126.538 167.007 129.843 163.958 131.43C163.958 131.43 166.237 136.538 161.946 138.38C161.946 138.38 166.068 142.059 160.552 143.99L155.693 144.601C155.693 144.601 157.902 148.765 154.249 148.802C150.597 148.84 141.29 147.64 138.53 146.164C138.53 146.164 122.859 154.71 116.981 156.069C111.104 157.429 97.9638 161.015 90.4619 156.069C90.4619 156.069 77.8546 147.241 81.061 136.981C84.2674 126.721 101.738 134.087 101.738 134.087L101.738 134.09Z" fill-rule="nonzero" fill="#FFFFFF"/>
	<path id="Vector" d="M142.231 128.524C142.231 128.524 151.721 131.463 157.174 126.182C162.507 121.02 170.152 127.283 163.958 131.428C157.763 135.573 150.019 134.148 150.019 134.148" stroke="#231F20"/>
	<path id="Vector" d="M163.34 131.822C163.34 131.822 166.317 134.622 162.925 137.913C159.535 141.202 150.017 138.275 150.017 138.275" stroke="#231F20"/>
	<path id="Vector" d="M161.946 138.378C161.946 138.378 164.235 139.967 163.002 142.279C161.77 144.591 153.601 146.518 148.13 141.739" stroke="#231F20"/>
	<path id="Vector" d="M155.691 144.601C155.691 144.601 158.683 148.554 153.369 148.906C148.055 149.26 138.53 146.164 138.53 146.164C138.53 146.164 126.481 153.412 117.885 155.823C89.3657 163.82 78.8992 152.323 79.2489 138.378C79.5963 124.487 90.8069 124.231 90.8069 124.231C105.139 146.241 130.377 131.428 130.377 131.428C130.377 131.428 134.14 117.264 145.644 117.095C145.644 117.095 150.442 117.095 151.214 120.086C151.214 120.086 152.524 124.94 146.9 124.477C142.658 124.128 141.313 126.902 141.583 127.714C141.853 128.527 146.438 130.951 144.898 135.266" stroke="#231F20"/>
	<path id="Vector" d="M70.5663 110.553L103.215 130.944L89.5957 159.954L65.8694 110.112L70.5663 110.553Z" fill-rule="nonzero" fill="#000000"/>
	<path id="Vector" d="M15.2551 114.539C17.086 112.14 25.8601 103.821 31.2072 102.664L43.7675 104.544C56.7902 106.746 68.5595 109.352 71.8293 110.091C72.402 110.22 72.8926 110.581 73.1837 111.093C74.3949 113.213 84.2394 139.542 88.5044 152.835C94.0275 170.078 100.79 188.784 100.79 188.784L0.00244141 188.784C0.00244141 188.784 9.65446 121.891 15.2551 114.544L15.2551 114.539Z" fill-rule="nonzero" fill="#E5E6E8"/>
	<path id="Vector" d="M51.3984 90.7353C73.085 97.5306 80.7442 88.111 80.7442 88.111C86.0279 80.4471 83.1595 61.2065 74.0028 51.9488C70.6321 48.5405 55.5085 36.3534 55.5085 36.3534C55.5085 36.3534 61.6138 50.6671 37.5518 62.0867C36.7045 62.4881 36.458 63.5796 37.0612 64.2955C39.4789 67.1662 44.4341 73.586 42.4952 75.8746C42.4952 75.8746 42.2722 76.6844 40.0845 74.5578C34.8947 69.5135 26.5337 70.0182 29.1462 78.5763C32.3315 89.0077 43.0093 83.4563 43.0093 83.4563C43.0867 83.9633 43.1477 84.4727 43.19 84.9844L42.1877 104.31" stroke="#000000"/>
	<path id="Vector" d="M65.6113 93.1858L66.1348 108.927" stroke="#000000"/>
	<path id="Vector" d="M48.5137 25.4831C25.9751 28.3609 27.2403 47.5781 27.2403 47.5781C27.2403 47.5781 10.6051 56.1809 19.5224 74.6657C23.8085 83.5502 38.8664 89.0264 38.8664 89.0264C38.8664 89.0264 25.2545 86.3106 26.6018 97.9226C26.9258 100.718 26.4023 100.235 25.6864 101.85C25.2779 102.77 25.9446 106.638 26.9187 106.387C31.2823 105.26 39.087 100.221 42.9459 90.1367L43.0093 83.4563C43.0093 83.4563 35.3337 87.7941 30.5499 81.6207C30.5499 81.6207 23.9682 67.3586 37.2679 72.5015L41.6338 75.8182C42.6572 76.4778 43.068 74.4451 42.7417 73.2738C42.2934 71.6588 40.8122 69.0651 38.3405 65.8705C38.3405 65.8705 35.6342 63.0373 37.5519 62.089C39.4696 61.1383 60.2853 51.3971 55.5086 36.3557L67.245 45.7613C67.245 45.7613 71.0546 22.6077 48.516 25.4855L48.5137 25.4831Z" fill-rule="nonzero" fill="#000000"/>
	<path id="Vector" d="M54.5556 150.88C54.5556 150.88 21.8063 162.283 5.43164 141.324C5.43164 141.324 16.4897 136.777 36.6012 140.476C36.6012 140.476 51.3961 145.253 54.5556 150.88Z" fill-rule="nonzero" fill="#000000"/>
	<path id="Vector" d="M105.625 159.1C105.625 159.1 109.496 144.676 121.662 144.798C121.662 144.798 129.302 146.338 123.697 151.427C123.697 151.427 116.036 152.218 116.918 154.656C117.801 157.095 124.716 158.116 128.549 155.182C128.549 155.182 130.347 154.487 131.643 153.145C133.746 150.962 136.114 149.884 139.576 151.95C139.576 151.95 143.245 156.994 139.203 159.1C139.203 159.1 141.058 162.712 137.288 166.222C137.288 166.222 135.586 171.982 130.136 172.048C130.136 172.048 133.521 174.169 130.976 175.648C128.432 177.129 119.878 177.263 115.27 177.897C110.663 178.531 102.344 181.007 102.344 181.007C102.344 181.007 76.9838 186.807 63.1771 185.885C52.8209 185.195 43.4623 185.936 33.6741 179.085C30.4114 176.801 26.6088 174.571 23.3649 169.965C23.3649 169.965 15.1048 155.612 13.5908 144.023L13.1331 133.578C13.1331 133.578 28.3247 123.402 47.5724 142.824C47.5724 142.824 51.037 152.823 55.5649 156.581C56.255 157.154 57.1282 157.445 57.9028 158.058C67.4022 165.576 105.621 159.095 105.621 159.095L105.625 159.1Z" fill-rule="nonzero" fill="#FFFFFF"/>
	<path id="Vector" d="M119.207 163.586C125.951 165.36 136.692 161.337 139.302 159.271C144.912 154.83 137.438 148.385 133.309 151.713C130.805 153.734 125.99 159.201 118.155 156.365C115.172 155.286 118.521 151.762 121.761 151.873C126.221 152.028 127.824 144.892 120.991 144.939C109.731 145.016 105.724 159.271 105.724 159.271C105.724 159.271 67.5807 165.752 56.0227 157.008C44.7393 148.474 46.9176 124.034 27.2403 118.928C13.2388 115.297 9.56525 136.181 16.6564 156.034C23.5809 175.428 41.4202 199.088 108.752 179.209C116.709 176.859 128.744 177.317 131.077 175.822C133.41 174.329 130.237 172.221 130.237 172.221" stroke="#231F20"/>
	<path id="Vector" d="M139.302 159.274C139.302 159.274 140.91 163.008 137.438 165.754C133.964 168.501 120.988 168.505 120.988 168.505" stroke="#231F20"/>
	<path id="Vector" d="M137.438 165.754C137.438 165.754 137.546 170.515 132.018 171.803C126.49 173.094 121.758 171.806 121.758 171.806" stroke="#231F20"/>
	<path id="Vector" d="M54.2997 150.413C54.2997 150.413 34.7491 131.383 5.4292 141.324C5.4292 141.324 12.7011 105.455 28.7964 102.866C48.0887 99.7629 54.9898 132.651 54.2997 150.413Z" fill-rule="nonzero" fill="#E5E6E8"/>
	<path id="Vector" d="M46.0044 112.631C53.1684 123.806 54.5556 150.57 54.5556 150.57C54.5556 150.57 38.3734 132.076 5.43164 141.324" stroke="#000000"/>
	<path id="Vector" d="M57.1446 64.1452C57.1446 65.0306 56.4268 65.7484 55.5414 65.7484C54.656 65.7484 53.9382 65.0306 53.9382 64.1452C53.9382 63.2598 54.656 62.542 55.5414 62.542C56.4268 62.542 57.1446 63.2598 57.1446 64.1452Z" fill-rule="evenodd" fill="#231F20"/>
	<path id="Vector" d="M69.036 53.7961C69.036 54.6815 68.3182 55.3993 67.4328 55.3993C66.5474 55.3993 65.8296 54.6815 65.8296 53.7961C65.8296 52.9107 66.5474 52.1929 67.4328 52.1929C68.3182 52.1929 69.036 52.9107 69.036 53.7961Z" fill-rule="evenodd" fill="#231F20"/>
	<path id="Vector" d="M57.5999 79.365C57.5999 79.365 58.0811 86.1651 64.9492 81.9283" stroke="#231F20"/>
	<path id="Vector" d="M51.8914 59.5304C51.8914 59.5304 45.9317 60.0046 48.3541 66.5511" stroke="#231F20"/>
	<path id="Vector" d="M69.8247 69.361L72.1697 62.7135C67.292 61.0962 62.858 56.9462 60.776 54.7679C59.7572 53.7022 59.438 52.1366 59.9803 50.7658C60.6281 49.1321 62.1773 47.543 65.886 48.7119" stroke="#231F20"/>
	<path id="Vector" d="M32.0547 73.4898C32.0547 73.4898 30.3599 81.1607 38.5285 79.3674" stroke="#231F20"/>
	<path id="Vector" d="M113.705 54.5707C116.897 52.5473 119.345 50.7845 121.049 49.2846C122.751 47.7823 123.702 46.4561 123.894 45.306C124.021 44.5548 123.89 43.9398 123.498 43.4633C123.106 42.9868 122.523 42.6841 121.749 42.5526C120.291 42.3062 118.7 42.5103 116.97 43.1606L116.127 37.6163C117.531 37.1773 118.887 36.898 120.202 36.7806C121.514 36.6633 122.864 36.722 124.251 36.9567C125.896 37.2337 127.281 37.7993 128.406 38.6538C129.53 39.5082 130.328 40.548 130.798 41.7757C131.267 43.0033 131.382 44.3342 131.14 45.766C130.779 47.9044 129.727 49.7752 127.983 51.3784C126.239 52.9816 123.782 54.3735 120.608 55.5542L129.103 56.9861L128.234 62.1313L112.867 59.5399L113.705 54.5707Z" fill-rule="nonzero" fill="#F480FF"/>
	<path id="Vector" d="M136.757 54.1434L133.185 44.8059L140.621 46.0594L141.893 50.5521L144.64 46.7378L151.865 47.956L145.499 55.6199L149.24 65.6756L142.015 64.4574L140.379 59.5422L137.293 63.6617L129.856 62.4082L136.76 54.1481L136.757 54.1434Z" fill-rule="nonzero" fill="#F480FF"/>
	<path id="Vector" d="M157.794 105.511L151.123 103.065L153.733 95.9415L146.773 93.39L149.111 87.0077L156.071 89.5592L158.681 82.4352L165.352 84.8811L162.742 92.0051L169.701 94.5566L167.364 100.939L160.404 98.3873L157.794 105.511Z" fill-rule="nonzero" fill="#F480FF"/>
	<path id="Vector" d="M109.064 113.889L107.759 108.478C108.724 108.291 109.595 108.058 110.369 107.781C111.754 107.284 112.66 106.49 113.09 105.396C113.519 104.302 113.331 102.603 112.531 100.293C112.153 103.077 110.613 104.953 107.916 105.922C105.639 106.739 103.574 106.572 101.719 105.424C99.8627 104.277 98.4286 102.281 97.4099 99.4436L94.2551 90.6436L101.647 87.9936L105.193 97.8827C105.48 98.6808 105.94 99.2629 106.576 99.6314C107.212 99.9999 107.916 100.045 108.691 99.7675C109.489 99.4812 110.017 98.9084 110.278 98.047C110.538 97.1855 110.47 96.2044 110.076 95.1011L106.858 86.1251L114.284 83.461L119.005 96.6245C120.47 100.706 120.669 104.145 119.603 106.936C118.538 109.727 116.305 111.734 112.904 112.955C111.613 113.417 110.334 113.729 109.069 113.893L109.064 113.889Z" fill-rule="nonzero" fill="#F480FF"/>
	<path id="Vector" d="M12.2073 48.9738L9.22923 37.0472L74.8422 20.6637L77.8203 32.5903L12.2073 48.9738Z" fill-rule="evenodd" fill="#F480FF"/>
	<path id="Vector" d="M13.9275 35.885L11.3333 25.4957L63.2958 12.5207L65.89 22.9101L13.9275 35.885Z" fill-rule="evenodd" fill="#E5E6E8"/>
	<path id="Vector" d="M30.1841 10.6818L30.9366 0L84.3622 3.76398L83.6096 14.4458L30.1841 10.6818Z" fill-rule="evenodd" fill="#FDC506"/>
	<path id="Vector" d="M67.4561 22.5067L70.5099 34.4122" stroke="#FFFFFF"/>
	<path id="Vector" d="M60.7266 24.1851L63.7804 36.0929" stroke="#FFFFFF"/>
	<path id="Vector" d="M56.1023 14.3147L58.682 24.7085" stroke="#000000"/>
	<path id="Vector" d="M79.2232 3.39981L78.5308 14.087" stroke="#000000"/>
	<path id="Vector" d="M72.545 2.93033L71.8525 13.6175" stroke="#000000"/>
	<path id="Vector" d="M49.6028 15.939L52.1824 26.3328" stroke="#000000"/>
	<path id="Vector" d="M17.7432 23.8964L20.3205 34.2902" stroke="#000000"/>
	<path id="Vector" d="M125.291 188.781L0 188.781" stroke="#231F20"/>
</svg>
