<svg width="238.013123" height="189.689453" viewBox="0 0 238.013 189.689" fill="none" xmlns="http://www.w3.org/2000/svg" xmlns:xlink="http://www.w3.org/1999/xlink">
	<desc>
			Created with Pixso.
	</desc>
	<defs/>
	<path id="Vector" d="M105.719 146.133C105.719 146.133 96.7763 158.531 104.703 166.407C112.627 174.284 134.988 181.185 134.988 181.185L136.938 150.722C136.938 150.722 110.172 136.155 105.719 146.133Z" fill-rule="nonzero" fill="#FFFFFF"/>
	<path id="Vector" d="M161.247 12.2231C161.247 12.2231 154.672 14.3286 150.426 21.2061C148.384 24.5135 146.764 32.5952 146.144 36.217C144.238 47.3736 141.274 68.1072 154.799 74.0411C154.799 74.0411 163.92 82.4772 175.741 78.3366L181.515 113.511C181.515 113.511 202.207 104.894 196.078 85.9395L190.865 52.7677C190.865 52.7677 198.36 52.263 201.261 43.1673C201.261 43.1673 189.365 3.26349 161.247 12.2231Z" fill-rule="nonzero" fill="#FFFFFF"/>
	<path id="Vector" d="M179.077 82.5031C179.077 82.5031 180.126 77.2897 186.161 74.703C186.161 74.703 192.726 70.4146 190.393 65.2294C188.057 60.0466 182.433 60.7343 180.332 65.4782C180.332 65.4782 175.6 74.4706 175.755 75.4119C175.91 76.3532 157.82 79.2122 152.367 72.8064C152.367 72.8064 147.696 75.6983 148.738 79.8553C148.738 79.8553 151.336 83.5194 156.82 83.4373C156.82 83.4373 148.886 86.1601 156.144 90.0871C156.144 90.0871 150.264 93.8568 156.144 96.0915C156.144 96.0915 152.404 99.7861 157.904 101.556C157.904 101.556 163.052 104.234 169.35 100.849C169.35 100.849 164.683 127.228 166.716 135.364C166.716 135.364 165.991 177.652 193.578 180.49C193.578 180.49 218.8 180.669 226.534 158.205L229.391 145.323C229.391 145.323 217.985 139.411 204.143 143.009C204.143 143.009 187.886 103.845 187.715 102.981C187.543 102.119 179.077 82.5031 179.077 82.5031Z" fill-rule="nonzero" fill="#FFFFFF"/>
	<path id="Vector" d="M133.551 100.788C133.551 100.788 110.893 133.521 102.71 152.377C94.5276 171.233 129.8 179.075 129.8 179.075" stroke="#000000"/>
	<path id="Vector" d="M156.127 90.1176C146.975 94.9859 135.746 158.233 135.746 158.233L130.76 156.269L116.944 150.835L108.762 147.617L101.349 144.699L112.588 122.386C135.166 86.0475 156.125 90.1176 156.125 90.1176L156.127 90.1176Z" fill-rule="nonzero" fill="#E6E7E8"/>
	<path id="Vector" d="M135.208 114.518C132.392 120.75 130.96 151.668 130.763 156.271L116.947 150.837C119.299 140.962 135.208 114.518 135.208 114.518Z" fill-rule="nonzero" fill="#000000"/>
	<path id="Vector" d="M185.724 178.385C192.484 181.354 200.702 179.828 206.998 177.84C213.758 175.707 220.093 167.848 220.048 169.315L220.048 189.189L129.648 189.189C129.648 189.189 128.514 142.77 132.784 119.29C135.894 102.201 147.473 95.2864 153.555 92.7842C153.372 93.7654 153.909 94.878 156.132 95.9413C156.132 95.9413 151.611 99.3096 159.118 101.88C159.622 102.051 160.127 102.18 160.625 102.27C165.16 103.096 169.333 100.878 169.333 100.878C169.333 100.878 156.754 165.653 185.727 178.385L185.724 178.385Z" fill-rule="nonzero" fill="#E6E7E8"/>
	<path id="Vector" d="M237.646 148.642L229.374 145.025L227.546 144.152C227.525 144.138 227.499 144.131 227.471 144.117C223.652 142.535 214.57 139.624 204.784 142.699C204.211 142.882 203.603 142.521 203.481 141.929C201.756 133.132 195.019 118.7 188.386 104.298C193.2 101.638 198.954 92.7841 196.285 84.3339C196.285 84.3339 214.434 80.6862 224.299 95.899C234.174 111.105 239.512 133.965 237.644 148.64L237.646 148.642Z" fill-rule="nonzero" fill="#E6E7E8"/>
	<path id="Vector" d="M148.553 24.8326C148.553 24.8326 137.849 63.5206 152.045 72.6163" stroke="#000000"/>
	<path id="Vector" d="M162.397 13.6221C162.397 13.6221 166.667 38.3037 184.011 36.0363C184.011 36.0363 179.074 49.7773 183.743 48.8454C188.412 47.9112 185.877 36.3039 195.484 36.5714C205.089 36.8391 202.423 50.4462 191.215 52.8475L196.285 84.334" stroke="#000000"/>
	<path id="Vector" d="M159.118 102.058C151.611 99.4904 156.13 96.122 156.13 96.122C150.259 93.3194 156.13 90.1177 156.13 90.1177C149.191 85.5804 156.806 83.4678 156.806 83.4678C141.729 82.6674 152.045 72.6163 152.045 72.6163C160.101 80.4633 175.741 75.4424 175.741 75.4424C175.741 75.4424 181.879 55.1619 189.616 63.4338C189.616 63.4338 193.085 69.0367 187.748 73.574C187.748 73.574 177.607 79.177 179.208 83.9795C180.76 88.6342 200.935 129.306 203.486 142.284C203.603 142.878 204.211 143.239 204.786 143.058C217.694 139 229.374 145.352 229.374 145.352C226.602 173.064 208.12 179.044 198.761 180.284C194.339 180.871 189.806 180.373 185.729 178.563C156.799 165.731 169.336 101.056 169.336 101.056C169.336 101.056 165.157 103.274 160.625 102.448L160.627 102.45C160.127 102.359 159.622 102.23 159.118 102.058Z" stroke="#000000"/>
	<path id="Vector" d="M200.207 131.707C200.207 131.707 204.113 142.326 204.47 147.039" stroke="#000000"/>
	<path id="Vector" d="M229.374 147.509C229.374 147.509 237.08 149.065 237.646 148.642L229.649 145.157C229.649 145.157 229.691 147.053 229.374 147.509Z" fill-rule="nonzero" fill="#231F20"/>
	<path id="Vector" d="M153.459 40.2731C153.459 41.2493 152.667 42.0406 151.691 42.0406C150.715 42.0406 149.924 41.2493 149.924 40.2731C149.924 39.297 150.715 38.5056 151.691 38.5056C152.667 38.5056 153.459 39.297 153.459 40.2731Z" fill-rule="evenodd" fill="#000000"/>
	<path id="Vector" d="M169.068 40.2731C169.068 41.2493 168.277 42.0406 167.301 42.0406C166.324 42.0406 165.533 41.2493 165.533 40.2731C165.533 39.297 166.324 38.5056 167.301 38.5056C168.277 38.5056 169.068 39.297 169.068 40.2731Z" fill-rule="evenodd" fill="#000000"/>
	<path id="Vector" d="M158.928 37.8154C158.928 37.8154 154.015 51.6902 154.904 52.8474C155.794 54.0046 159.728 54.8497 159.728 54.8497" stroke="#000000"/>
	<path id="Vector" d="M147.184 35.8603C147.184 35.8603 150.478 28.6565 155.548 36.217" stroke="#000000"/>
	<path id="Vector" d="M163.117 35.8603C163.117 35.8603 166.411 28.6565 171.481 36.217" stroke="#000000"/>
	<path id="Vector" d="M197.754 45.0827C197.754 45.0827 192.416 38.5948 188.149 48.1881" stroke="#000000"/>
	<path id="Vector" d="M155.095 83.327C155.095 83.327 161.198 84.2025 166.667 82.5336" stroke="#000000"/>
	<path id="Vector" d="M155.627 89.937C155.627 89.937 161.998 92.0706 168.401 89.7046" stroke="#000000"/>
	<path id="Vector" d="M155.815 95.9647C155.815 95.9647 160.996 97.7744 165.432 95.7417" stroke="#000000"/>
	<path id="Vector" d="M236.175 148.962C237.125 148.807 237.644 148.642 237.644 148.642C226.537 143.112 220.64 141.91 217.95 141.723C222.14 142.359 229.539 145.321 229.539 145.321L229.205 149.009C232.316 149.41 234.738 149.196 236.175 148.962Z" fill-rule="nonzero" fill="#000000"/>
	<path id="Vector" d="M220.049 189.189L0.000244141 189.189" stroke="#231F20"/>
	<path id="Vector" d="M160.881 65.5088C160.881 65.5088 165.425 68.9898 169.068 62.2108" stroke="#000000"/>
	<path id="Vector" d="M76.7939 173.301L61.0365 154.13C60.6304 153.635 60.3769 153.034 60.3065 152.398L58.5953 136.868C58.3793 134.916 59.9098 133.209 61.8745 133.209C63.696 133.209 65.1724 131.733 65.1724 129.911L65.1724 125.087C65.1724 123.266 63.696 121.79 61.8745 121.79L30.4561 121.79C28.6346 121.79 27.1582 123.266 27.1582 125.087L27.1582 129.911C27.1582 131.733 28.6346 133.209 30.4561 133.209C32.4208 133.209 33.9489 134.916 33.7352 136.868L32.0241 152.398C31.9537 153.034 31.7002 153.637 31.2941 154.13L15.5368 173.301C15.0509 173.89 14.7856 174.632 14.7856 175.394L14.7856 185.46C14.7856 187.281 16.2621 188.758 18.0836 188.758L74.247 188.758C76.0685 188.758 77.5449 187.281 77.5449 185.46L77.5449 175.394C77.5449 174.632 77.2797 173.89 76.7939 173.301Z" fill-rule="nonzero" fill="#FFFFFF"/>
	<path id="Vector" d="M61.0365 154.13C60.6304 153.635 60.3769 153.034 60.3065 152.398L58.5953 136.868C58.3793 134.916 59.9098 133.209 61.8745 133.209C63.696 133.209 65.1724 131.733 65.1724 129.911L65.1724 125.087C65.1724 123.266 63.696 121.79 61.8745 121.79L30.4561 121.79C28.6346 121.79 27.1582 123.266 27.1582 125.087L27.1582 129.911C27.1582 131.733 28.6346 133.209 30.4561 133.209C32.4208 133.209 33.9489 134.916 33.7352 136.868L32.0241 152.398C31.9537 153.034 31.7002 153.637 31.2941 154.13L15.5368 173.301C15.0509 173.89 14.7856 174.632 14.7856 175.394L14.7856 185.46C14.7856 187.281 16.2621 188.758 18.0836 188.758L74.247 188.758C76.0685 188.758 77.5449 187.281 77.5449 185.46L77.5449 175.394C77.5449 174.632 77.2797 173.89 76.7938 173.301L61.0365 154.13Z" stroke="#000000"/>
	<path id="Vector" d="M39.526 160.013L52.9383 160.013C54.7504 160.013 56.4594 160.853 57.5649 162.29L66.6512 174.08C67.4376 175.101 67.8648 176.357 67.8648 177.645C67.8648 180.873 65.2499 183.488 62.0223 183.488L31.5147 183.488C28.2872 183.488 25.6724 180.873 25.6724 177.645L25.6724 177.448C25.6724 176.263 26.0338 175.103 26.7075 174.129L34.7164 162.536C35.8079 160.956 37.6035 160.015 39.5236 160.015L39.526 160.013Z" fill-rule="nonzero" fill="#F480FF"/>
	<path id="Vector" d="M51.6099 158.942C51.6099 162.555 48.681 165.484 45.068 165.484C41.455 165.484 38.5261 162.555 38.5261 158.942C38.5261 155.329 41.455 152.4 45.068 152.4C48.681 152.4 51.6099 155.329 51.6099 158.942Z" fill-rule="evenodd" fill="#F480FF"/>
	<path id="Vector" d="M52.4477 138.415C52.4477 140.815 50.5025 142.76 48.1029 142.76C45.7034 142.76 43.7581 140.815 43.7581 138.415C43.7581 136.016 45.7034 134.07 48.1029 134.07C50.5025 134.07 52.4477 136.016 52.4477 138.415Z" fill-rule="evenodd" fill="#F480FF"/>
	<path id="Vector" d="M47.6687 105.072C47.6687 110.123 43.5744 114.217 38.5237 114.217C33.4731 114.217 29.3787 110.123 29.3787 105.072C29.3787 100.021 33.4731 95.9271 38.5237 95.9271C43.5744 95.9271 47.6687 100.021 47.6687 105.072Z" fill-rule="evenodd" fill="#F480FF"/>
	<path id="Vector" d="M50.8469 85.416C50.8469 88.6997 48.185 91.3617 44.9012 91.3617C41.6176 91.3617 38.9556 88.6997 38.9556 85.416C38.9556 82.1323 41.6176 79.4703 44.9012 79.4703C48.185 79.4703 50.8469 82.1323 50.8469 85.416Z" fill-rule="evenodd" fill="#F480FF"/>
	<path id="Vector" d="M102.013 182.702L80.3923 100.004L159.397 96.0469L171.763 181.697L102.013 182.702Z" fill-rule="nonzero" fill="#F480FF"/>
	<path id="Vector" d="M87.8567 153.893C87.8567 153.893 86.108 155.717 89.5585 157.738C93.009 159.762 98.9428 158.809 98.1776 156.905C97.4101 155.001 95.3985 154.795 95.3985 154.795C95.3985 154.795 88.8918 156.114 87.859 153.891L87.8567 153.893Z" fill-rule="nonzero" fill="#FFFFFF"/>
	<path id="Vector" d="M89.5585 157.738C93.009 159.762 98.9428 158.809 98.1776 156.905C97.4101 155.001 95.3985 154.795 95.3985 154.795C95.3985 154.795 88.8918 156.114 87.859 153.891L87.8567 153.893C87.8567 153.893 86.108 155.717 89.5585 157.738Z" stroke="#000000"/>
	<path id="Vector" d="M84.2888 136.103C84.2888 136.103 77.3291 142.192 84.2888 147.187C91.2484 152.185 102.431 151.351 100.41 147.187C98.3889 143.023 93.8681 143.5 93.3916 143.143C92.9151 142.786 84.2794 137.871 84.2888 136.103Z" fill-rule="nonzero" fill="#FFFFFF"/>
	<path id="Vector" d="M84.2888 147.187C91.2484 152.185 102.431 151.351 100.41 147.187C98.3889 143.023 93.8681 143.5 93.3916 143.143C92.9151 142.786 84.2794 137.871 84.2888 136.103C84.2888 136.103 77.3291 142.192 84.2888 147.187Z" stroke="#000000"/>
	<path id="Vector" d="M88.1971 130.465C88.1971 130.465 84.6808 128.935 83.7302 134.678C82.7796 140.422 93.2462 147.973 96.5793 143.246C99.9101 138.519 97.3726 135.505 94.9925 135.345C92.6123 135.185 89.4928 135.413 89.0844 133.852C88.676 132.289 88.1971 130.463 88.1971 130.463L88.1971 130.465Z" fill-rule="nonzero" fill="#FFFFFF"/>
	<path id="Vector" d="M83.7302 134.678C82.7796 140.422 93.2462 147.973 96.5793 143.246C99.9101 138.519 97.3726 135.505 94.9925 135.345C92.6123 135.185 89.4928 135.413 89.0844 133.852C88.676 132.289 88.1971 130.463 88.1971 130.463L88.1971 130.465C88.1971 130.465 84.6808 128.935 83.7302 134.678Z" stroke="#000000"/>
	<path id="Vector" d="M84.9696 147.65C84.9696 147.65 83.2537 150.283 85.6338 153.006C88.014 155.729 96.8281 156.971 97.1731 153.706C97.5182 150.44 95.8774 150.614 95.8774 150.614C95.8774 150.614 86.0916 149.68 84.9696 147.65Z" fill-rule="nonzero" fill="#FFFFFF"/>
	<path id="Vector" d="M85.6338 153.006C88.014 155.729 96.8281 156.971 97.1731 153.706C97.5182 150.44 95.8774 150.614 95.8774 150.614C95.8774 150.614 86.0916 149.68 84.9696 147.65C84.9696 147.65 83.2537 150.283 85.6338 153.006Z" stroke="#000000"/>
	<path id="Vector" d="M181.438 27.6188C181.438 27.6188 187.94 52.4179 176.204 52.2606C164.467 52.1033 156.151 46.3337 156.151 46.3337C156.151 46.3337 144.121 55.5914 140.586 48.1904C135.398 37.3319 144.121 27.0391 144.121 27.0391L144.119 27.0391L181.438 27.6188Z" stroke="#000000"/>
	<path id="Vector" d="M54.2764 37.3531L69.0479 54.2488L92.8869 45.1555L105.907 55.2394L97.9123 34.8744L71.4279 43.5053L55.497 32.0365L54.2764 37.3531Z" fill-rule="nonzero" fill="#43305E"/>
	<path id="Vector" d="M61.2455 31.107C61.2455 35.6469 57.5652 39.3272 53.0254 39.3272C48.4855 39.3272 44.8052 35.6469 44.8052 31.107C44.8052 26.5671 48.4855 22.8868 53.0254 22.8868C57.5652 22.8868 61.2455 26.5671 61.2455 31.107Z" fill-rule="evenodd" fill="#F480FF"/>
	<path id="Vector" d="M77.3196 48.7655C77.3196 52.6404 74.1784 55.7816 70.3035 55.7816C66.4287 55.7816 63.2876 52.6404 63.2876 48.7655C63.2876 44.8907 66.4287 41.7495 70.3035 41.7495C74.1784 41.7495 77.3196 44.8907 77.3196 48.7655Z" fill-rule="evenodd" fill="#FFC600"/>
	<path id="Vector" d="M105.785 35.4988C105.785 39.3737 102.644 42.5148 98.7691 42.5148C94.8943 42.5148 91.7532 39.3737 91.7532 35.4988C91.7532 31.624 94.8943 28.4828 98.7691 28.4828C102.644 28.4828 105.785 31.624 105.785 35.4988Z" fill-rule="evenodd" fill="#FFC600"/>
	<path id="Vector" d="M114.395 55.1431C114.395 59.4769 110.882 62.9901 106.548 62.9901C102.214 62.9901 98.7012 59.4769 98.7012 55.1431C98.7012 50.8094 102.214 47.2961 106.548 47.2961C110.882 47.2961 114.395 50.8094 114.395 55.1431Z" fill-rule="evenodd" fill="#F480FF"/>
	<path id="Vector" d="M148.071 27.6752L147.4 22.8844C147.4 22.8844 138.107 27.7221 136.678 21.7741C135.25 15.8261 135.208 3.93008 140.583 4.88074C145.956 5.83139 150.358 11.7794 156.127 6.0708C161.897 0.362213 168.084 -2.73151 175.936 3.21652C183.788 9.16452 183.311 12.4178 185.928 10.9109C188.546 9.40396 202.582 7.50031 203.296 14.8755C204.009 22.2506 202.106 24.9547 204.009 28.4803C205.913 32.0059 205.199 37.3906 204.009 38.5056C202.819 39.6205 201.261 43.1649 201.261 43.1649C201.261 43.1649 201.261 35.1583 192.949 36.8249C189.102 37.5972 187.362 43.0828 186.269 46.3314C184.579 51.3569 181.734 49.1669 181.753 46.6835C181.771 44.2001 181.882 36.7639 181.882 36.7639C181.882 36.7639 169.065 36.2146 159.04 19.3963C159.04 19.3963 149.161 20.354 148.069 27.6752L148.071 27.6752Z" fill-rule="nonzero" fill="#000000"/>
	<path id="Vector" d="M159.397 96.0469L164.145 130.465L101.666 108.565L138.379 97.1008L159.397 96.0469Z" fill-rule="nonzero" fill="#43305E"/>
	<path id="Vector" d="M99.0508 97.298L101.666 108.565L140.584 106.452L137.415 93.0118L99.0508 95.5281L99.0508 97.298Z" fill-rule="nonzero" fill="#FFC600"/>
</svg>
