<svg width="237.546326" height="173.793671" viewBox="0 0 237.546 173.794" fill="none" xmlns="http://www.w3.org/2000/svg" xmlns:xlink="http://www.w3.org/1999/xlink">
	<desc>
			Created with Pixso.
	</desc>
	<defs/>
	<path id="Vector" d="M2.81674 0L175.68 0C177.236 0 178.497 1.26109 178.497 2.81674L178.497 124.566C178.497 126.121 177.236 127.382 175.68 127.382L2.81674 127.382C1.26111 127.382 0 126.121 0 124.566L0 2.81674C0 1.26109 1.26111 0 2.81674 0Z" fill-rule="evenodd" fill="#F480FF"/>
	<path id="Vector" d="M155.663 17.5177L22.8321 17.5177C21.2765 17.5177 20.0154 18.7788 20.0154 20.3344L20.0154 107.552C20.0154 109.108 21.2765 110.369 22.8321 110.369L155.663 110.369C157.218 110.369 158.479 109.108 158.479 107.552L158.479 20.3344C158.479 18.7788 157.218 17.5177 155.663 17.5177Z" fill-rule="nonzero" fill="#FFC600"/>
	<path id="Vector" d="M155.663 17.5177C157.218 17.5177 158.479 18.7788 158.479 20.3344L158.479 107.552C158.479 109.108 157.218 110.369 155.663 110.369L22.8321 110.369C21.2765 110.369 20.0154 109.108 20.0154 107.552L20.0154 20.3344C20.0154 18.7788 21.2765 17.5177 22.8321 17.5177L155.663 17.5177Z" stroke="#000000"/>
	<path id="Vector" d="M135.969 133.83L133.767 132.744L127.723 141.544C127.723 141.544 114.167 121.632 110.771 113.975C110.771 113.975 115.007 106.381 112.916 100.978C112.916 100.978 111.942 97.4428 104.581 95.9171C104.581 95.9171 102.064 94.6613 100.292 98.032C100.292 98.032 95.6892 94.4735 93.687 97.9522C93.687 97.9522 91.2528 100.893 92.1659 103.259C92.1659 103.259 89.3281 102.773 90.0699 106.224C90.0699 106.224 84.995 107.881 89.1872 113.153C89.1872 113.153 88.537 112.667 88.1473 112.874C87.5887 113.174 87.2531 114.324 87.4996 115.425C87.8258 116.888 90.1402 120.277 92.1917 119.512C93.3043 119.099 92.1917 116.315 92.1917 116.315C92.1917 116.315 93.0203 116.491 93.6095 117.165C94.3958 118.068 95.0789 119.517 95.2902 119.822C97.2196 122.575 99.5317 120.681 99.5317 120.681C99.5317 120.681 100.515 154.416 113.017 165.657C113.017 165.657 123.664 178.206 137.016 170.608C137.016 170.608 143.86 166.866 146.226 161.634L135.971 133.828L135.969 133.83Z" fill-rule="nonzero" fill="#FFFFFF"/>
	<path id="Vector" d="M100.91 98.3676C100.91 98.3676 96.694 95.0838 94.213 97.4334C91.7319 99.783 90.3492 102.299 93.5016 104.609C96.6541 106.919 98.7901 108.459 100.351 107.677C101.91 106.895 102.792 104.325 100.088 102.515C97.3864 100.705 96.7504 99.8558 96.7504 99.8558" stroke="#000000"/>
	<path id="Vector" d="M91.957 102.888C91.957 102.888 89.347 102.762 90.0699 106.224C90.7905 109.686 94.8184 113.228 97.9309 113.198C100.227 113.174 101.281 109.25 99.5294 108.724C97.7784 108.196 97.4731 107.273 97.4731 107.273" stroke="#000000"/>
	<path id="Vector" d="M90.0676 106.224C90.0676 106.224 86.4716 107.156 87.7861 110.766C89.1005 114.376 92.95 116.376 94.8513 116.085C96.1329 115.888 95.6025 112.658 95.6025 112.658" stroke="#000000"/>
	<path id="Vector" d="M92.1917 116.111L92.9827 116.601C93.5719 116.965 94.0437 117.493 94.3207 118.129C94.9944 119.683 96.6843 122.509 99.5316 120.686C99.5316 120.686 99.0951 155.918 116.958 169.249C134.821 182.579 149.447 158.153 149.447 158.153L135.673 129.974L127.725 141.546C127.725 141.546 113.381 121.204 110.773 113.977C110.773 113.977 113.965 108.524 113.498 104.187" stroke="#000000"/>
	<path id="Vector" d="M88.7625 112.587C88.7625 112.587 87.0396 113.198 87.4973 115.428C87.4973 115.428 89.0347 119.979 91.605 119.625C92.4289 119.512 92.9665 118.773 92.375 117.294C92.375 117.294 91.7952 116.134 91.9806 115.986C92.1661 115.838 92.8069 115.773 92.8069 115.773" stroke="#000000"/>
	<path id="Vector" d="M100.743 100.02L87.4172 49.5393L89.5862 48.5535L107.695 112.538L104.937 114.036L100.743 100.02Z" fill-rule="nonzero" fill="#43305E"/>
	<path id="Vector" d="M111.214 98.7643C111.214 98.7643 105.468 92.551 101.393 94.4594C98.7805 95.6823 101.527 99.6046 103.299 100.375C105.071 101.144 104.219 102.262 104.604 103.626C104.989 104.989 106.604 109.552 106.604 109.552C106.604 109.552 111.24 104.881 111.214 102.431C111.188 99.9802 111.568 99.4544 111.214 98.7643Z" fill-rule="nonzero" fill="#FFFFFF"/>
	<path id="Vector" d="M104.419 102.025C104.419 102.025 104.658 102.787 104.18 103.686C103.701 104.585 101.637 110.592 106.923 110.876C112.21 111.16 112.301 105.982 111.367 103.764C110.433 101.546 105.602 101.076 104.419 102.025Z" fill-rule="nonzero" fill="#FFFFFF"/>
	<path id="Vector" d="M107.414 110.989C102.257 110.827 102.987 105.337 103.827 104.186C103.985 103.971 104.1 103.731 104.182 103.487C104.585 102.276 104.104 100.945 103.102 100.156C101.445 98.8535 100.475 98.8206 100.321 96.8301C100.123 94.2716 102.841 94.0955 102.841 94.0955C106.503 93.788 111.369 98.8957 111.369 98.8957C111.369 98.8957 113.461 100.95 113.54 104.813" stroke="#000000"/>
	<path id="Vector" d="M164.814 45.9175C164.814 45.9175 152 32.8666 157.118 28.9208C162.235 24.9774 176.152 14.1306 185.036 22.0198C193.921 29.9067 189.63 28.3105 196.707 27.7378C203.784 27.1674 213.887 37.0729 217.753 44.434C221.619 51.7951 215.485 54.2128 213.908 58.0013C212.33 61.7875 199.592 81.5868 195.982 83.6195C192.374 85.6523 171.112 51.9172 168.495 50.0159C165.878 48.1146 164.814 45.9175 164.814 45.9175Z" fill-rule="nonzero" fill="#000000"/>
	<path id="Vector" d="M173.596 108.421C169.823 99.1282 157.688 96.8959 150.846 104.231C149.456 105.719 147.959 107.503 146.276 109.649C137.384 120.981 132.3 129.087 132.3 129.087L146.217 163.819L171.269 137.976C177.405 131.647 179.224 122.294 175.91 114.125L173.596 108.423L173.596 108.421Z" fill-rule="nonzero" fill="#000000"/>
	<path id="Vector" d="M217.109 99.3793C217.109 99.3793 162.23 93.1942 156.237 100.091C150.247 106.987 150.266 173.053 150.266 173.053C150.266 173.053 183.665 173.051 210.305 173.053C229.219 173.053 228.022 121.216 226.97 111.695C225.919 102.175 217.107 99.377 217.107 99.377L217.109 99.3793Z" fill-rule="nonzero" fill="#E5E6E8"/>
	<path id="Vector" d="M177.417 87.5912L176.152 102.072C176.152 102.072 178.717 117.223 197.716 104.165L195.984 83.6196C195.984 83.6196 184.102 76.4628 177.419 87.5912L177.417 87.5912Z" fill-rule="nonzero" fill="#FFFFFF"/>
	<path id="Vector" d="M176.152 102.072C176.152 102.072 178.717 117.223 197.716 104.165L195.984 83.6196C195.984 83.6196 184.102 76.4628 177.419 87.5912L177.417 87.5912L176.152 102.072Z" stroke="#000000"/>
	<path id="Vector" d="M165.908 42.8215C165.908 42.8215 148.567 86.9411 175.962 90.1733C187.508 91.5347 195.916 84.2558 200.247 79.2349C201.322 77.9909 202.157 76.5872 202.871 75.1272C203.455 73.9301 205.251 72.2283 210.753 72.47C219.135 72.8362 216.295 63.8907 211.422 62.0387C206.551 60.1844 204.016 64.5879 204.016 64.5879C204.016 64.5879 199.254 64.5855 200.526 60.128C201.796 55.6706 202.585 52.4243 193.432 54.8959C184.283 57.3676 182.992 47.4668 179.461 39.5189C177.68 35.5074 174.476 35.1952 171.739 35.8712C169.171 36.505 167.298 38.6293 166.702 41.2066C166.558 41.8239 166.314 42.4108 165.908 42.8239L165.908 42.8215Z" fill-rule="nonzero" fill="#FFFFFF"/>
	<path id="Vector" d="M175.962 90.1733C187.508 91.5347 195.916 84.2558 200.247 79.2349C201.322 77.9909 202.157 76.5872 202.871 75.1272C203.455 73.9301 205.251 72.2283 210.753 72.47C219.135 72.8362 216.295 63.8907 211.422 62.0387C206.551 60.1844 204.016 64.5879 204.016 64.5879C204.016 64.5879 199.254 64.5855 200.526 60.128C201.796 55.6706 202.585 52.4243 193.432 54.8959C184.283 57.3676 182.992 47.4668 179.461 39.5189C177.68 35.5074 174.476 35.1952 171.739 35.8712C169.171 36.505 167.298 38.6293 166.702 41.2066C166.558 41.8239 166.314 42.4108 165.908 42.8239L165.908 42.8215C165.908 42.8215 148.567 86.9411 175.962 90.1733Z" stroke="#000000"/>
	<path id="Vector" d="M168.401 56.6462C169.158 56.6793 169.745 57.2909 169.714 58.0123C169.682 58.7337 169.044 59.2917 168.287 59.2586C167.531 59.2256 166.943 58.6141 166.975 57.8927C167.006 57.1713 167.645 56.6132 168.401 56.6462Z" fill-rule="evenodd" fill="#000000"/>
	<path id="Vector" d="M187.595 60.8721C188.351 60.9051 188.939 61.5166 188.907 62.238C188.876 62.9594 188.237 63.5174 187.481 63.4844C186.724 63.4513 186.137 62.8398 186.168 62.1184C186.2 61.397 186.838 60.839 187.595 60.8721Z" fill-rule="evenodd" fill="#000000"/>
	<path id="Vector" d="M176.311 59.729L172.298 70.3223L178.497 72.5944" stroke="#000000"/>
	<path id="Vector" d="M185.036 57.7761C185.036 57.7761 186.759 55.9287 190.207 58.0014" stroke="#000000"/>
	<path id="Vector" d="M165.908 52.0604C165.908 52.0604 167.631 50.2131 171.079 52.2857" stroke="#000000"/>
	<path id="Vector" d="M177.006 79.8992C177.006 79.8992 180.168 81.6104 185.186 79.0237" stroke="#000000"/>
	<path id="Vector" d="M212.84 68.4069C212.84 68.4069 210.741 64.7005 208.065 66.8131C205.39 68.928 205.507 69.9326 205.507 69.9326" stroke="#000000"/>
	<path id="Vector" d="M224.294 103.863C224.294 103.863 234.357 104.618 233.451 130.345C232.545 156.071 233.202 173.056 233.202 173.056L207.941 173.056L207.941 111.651C207.941 111.651 210.354 100.701 224.294 103.865L224.294 103.863Z" fill-rule="nonzero" fill="#FFFFFF"/>
	<path id="Vector" d="M233.451 130.345C232.545 156.071 233.202 173.056 233.202 173.056L207.941 173.056L207.941 111.651C207.941 111.651 210.354 100.701 224.294 103.865L224.294 103.863C224.294 103.863 234.357 104.618 233.451 130.345Z" stroke="#000000"/>
	<path id="Vector" d="M203.326 106.67C207.49 98.2409 221.363 96.8043 228.238 103.217C233.649 108.261 237.684 117.796 237.543 131.345C237.28 156.878 237 151.724 237 151.724L199.151 151.731C199.151 151.731 194.571 124.378 203.324 106.668L203.326 106.67Z" fill-rule="nonzero" fill="#E5E6E8"/>
	<path id="Vector" d="M237.003 151.724L205.913 151.724C205.913 151.724 201.793 120.674 209.61 107.675" stroke="#000000"/>
	<path id="Vector" d="M164.051 68.0478C158.311 68.0478 153.658 63.3943 153.658 57.654C153.658 51.9137 158.311 47.2603 164.051 47.2603C169.792 47.2603 174.445 51.9137 174.445 57.654C174.445 63.3943 169.792 68.0478 164.051 68.0478Z" stroke="#000000"/>
	<path id="Vector" d="M187.686 73.6882C182.013 73.6882 177.415 69.0894 177.415 63.4165C177.415 57.7436 182.013 53.1448 187.686 53.1448C193.359 53.1448 197.958 57.7436 197.958 63.4165C197.958 69.0894 193.359 73.6882 187.686 73.6882Z" stroke="#000000"/>
	<path id="Vector" d="M174.269 59.5411C174.269 59.5411 175.811 57.8698 177.877 60.3532" stroke="#000000"/>
	<path id="Vector" d="M93.9642 67.5641C93.922 67.4444 93.7225 67.381 93.6614 67.5242C93.483 67.935 93.2695 68.2753 92.9807 68.618C92.7648 68.8762 92.509 69.1368 92.4761 69.4865C92.4714 69.5311 92.5277 69.5593 92.5652 69.5382C92.8962 69.3339 93.1473 68.9795 93.3938 68.6861C93.4337 68.6391 93.4713 68.5899 93.5089 68.5406C93.2531 69.8503 92.9291 71.1367 92.354 72.3502C91.9761 73.1459 91.4714 73.8713 90.847 74.4886C90.401 74.9275 89.8916 75.1482 89.3752 75.3993C87.5889 73.9229 85.2371 73.1765 83.3076 74.0684C81.0143 74.0755 79.235 76.1974 78.5284 78.4273C78.167 78.2677 77.7492 78.1926 77.3971 78.0189C76.6342 77.6457 75.9536 77.1058 75.3174 76.5518C74.0757 75.4768 73.1251 74.1341 72.1721 72.8079C72.1439 72.7164 72.1157 72.6248 72.0828 72.538C72.9865 73.0591 73.9091 73.4675 74.8973 73.8666C74.9747 73.8971 75.0075 73.7844 74.9489 73.7421C73.9935 73.0403 72.8832 72.6718 71.8669 72.0967C71.8458 72.0615 71.827 72.0239 71.8059 71.9911C71.7684 71.9347 71.6909 71.8878 71.6205 71.916C71.5994 71.923 71.5078 71.9488 71.5618 71.9418C71.435 71.9559 71.3786 72.1108 71.496 72.1882C71.5171 72.2023 71.5383 72.2117 71.5594 72.2258C71.5594 72.2352 71.5547 72.2446 71.5594 72.2516C71.6674 72.5239 71.7567 72.7868 71.8247 73.0708C71.9468 73.5708 71.9608 74.1036 72.1462 74.5825C72.172 74.6482 72.2823 74.667 72.2988 74.5825C72.3715 74.2304 72.3646 73.7891 72.2942 73.3525C73.1415 74.7116 74.0781 76.0049 75.2587 77.1105C75.8644 77.6785 77.3337 78.9226 78.3877 78.9273C78.3243 79.1878 78.2726 79.446 78.2397 79.7019C77.9792 81.8098 78.4768 83.8214 79.5988 85.3424C78.9299 86.671 77.7538 87.5841 76.6013 88.5605C75.1437 89.7952 73.5616 90.8844 71.834 91.7012C72.1814 91.2365 72.5828 90.7529 72.7142 90.2107C72.7236 90.1731 72.679 90.1473 72.6508 90.1731C72.1274 90.6402 71.7354 91.3327 71.334 91.9031C71.266 91.9993 71.3576 92.1167 71.4585 92.1214C72.1909 92.1542 72.9067 92.4101 73.6414 92.4735C73.6884 92.4782 73.6907 92.4101 73.6508 92.396C73.0124 92.1519 72.4537 91.9195 71.7965 91.8514C73.7847 91.1473 75.5028 89.9431 77.1107 88.5887C77.8571 87.9573 79.3805 86.9034 79.9321 85.7673C80.9767 86.9644 82.4554 87.7883 84.2981 88.0019C88.9786 88.5394 93.2553 83.359 91.8539 78.9179C91.4831 77.7443 90.7202 76.6223 89.7461 75.7186C90.8587 75.3219 91.8141 74.0848 92.354 73.2117C93.2413 71.7728 93.8257 69.9419 93.7788 68.2284C93.9266 68.8129 94.1356 69.3668 94.6261 69.7705C94.6637 69.801 94.7411 69.7752 94.72 69.7166C94.4571 69.0006 94.2106 68.2753 93.9619 67.5547L93.9642 67.5641ZM90.4057 78.0353C89.9855 78.8874 89.5607 79.7254 89.0748 80.5469C88.596 81.3567 87.9692 82.1924 87.8049 83.1336C87.7955 83.1853 87.8636 83.2439 87.9059 83.1923C88.5092 82.4623 88.8965 81.5375 89.366 80.7183C89.812 79.939 90.2649 79.1315 90.5325 78.2701C90.7531 78.6761 90.9433 79.0987 91.0794 79.5329C91.1005 79.5963 91.1122 79.6596 91.1287 79.7254C90.9667 79.9366 90.84 80.1808 90.7156 80.4131C90.5513 80.7159 90.3635 81.0892 90.448 81.4412C90.4574 81.4835 90.5161 81.4999 90.5466 81.4671C90.7954 81.1995 90.9503 80.8239 91.1357 80.5094C91.1756 80.4413 91.2131 80.3732 91.2531 80.3051C91.6169 82.7674 90.0208 84.9481 87.8683 86.0982C88.0725 85.7884 88.2463 85.4574 88.4036 85.1875C88.9223 84.2979 89.38 83.3589 89.7837 82.413C89.8072 82.359 89.7391 82.3168 89.7039 82.3661C89.157 83.1242 88.7181 83.9552 88.2322 84.7533C87.8801 85.3354 87.3261 85.8823 87.0021 86.4902C86.6594 86.6217 86.3097 86.7273 85.9553 86.8048C86.2064 86.3165 86.42 85.8025 86.6313 85.3072C86.6524 85.2556 86.5868 85.2133 86.5539 85.2626C86.2253 85.7696 85.8732 86.2978 85.6314 86.8635C85.3732 86.9081 85.1127 86.9409 84.8521 86.9527C84.939 86.7273 85.0093 86.4926 85.0986 86.2837C85.2887 85.8377 85.4929 85.4105 85.6173 84.9387C85.629 84.8917 85.5657 84.8659 85.5422 84.9058C85.2653 85.3565 84.9952 85.8119 84.7393 86.2766C84.6243 86.4855 84.4977 86.7179 84.4272 86.955C84.0095 86.9456 83.5963 86.8916 83.1949 86.786C83.1926 86.786 83.1902 86.786 83.1878 86.7836C83.2935 86.5489 83.371 86.2954 83.4648 86.0607C83.6878 85.4973 83.9342 84.9457 84.1572 84.3824C84.1807 84.326 84.0868 84.2861 84.0587 84.3401C83.8145 84.8213 83.5469 85.2908 83.3005 85.772C83.155 86.056 82.9719 86.3682 82.8781 86.6921C82.4884 86.5607 82.1292 86.387 81.803 86.1804C81.9062 85.9597 81.9908 85.725 82.0894 85.5185C82.2466 85.1898 82.4273 84.8424 82.4296 84.4716C82.4296 84.4199 82.3569 84.3988 82.3311 84.4457C82.1269 84.8354 81.9415 85.2368 81.7326 85.6264C81.6669 85.7485 81.5964 85.8753 81.54 86.0067C81.0964 85.6828 80.7162 85.2908 80.3993 84.8495C80.6317 84.4575 80.8523 84.0608 81.0753 83.6594C81.303 83.251 81.5706 82.8144 81.6034 82.3379C81.6058 82.3027 81.5565 82.2816 81.533 82.3074C81.2068 82.7111 80.9556 83.1923 80.6763 83.6289C80.4744 83.9458 80.3125 84.2439 80.2068 84.5702C79.958 84.1805 79.7514 83.7627 79.5894 83.3191C79.749 83.0022 79.8969 82.6759 80.0589 82.3708C80.3757 81.7816 80.7115 81.1994 80.9368 80.568C80.9532 80.5258 80.8898 80.5023 80.8663 80.5375C80.5119 81.0962 80.1973 81.683 79.8734 82.2604C79.7443 82.4928 79.6012 82.7299 79.4698 82.9716C79.1294 81.8661 79.0425 80.6619 79.1974 79.5329C79.4509 77.6997 80.2725 76.3664 81.5189 75.5754C81.4673 75.6669 81.5847 75.7655 81.6715 75.7162C81.709 75.6951 81.749 75.6763 81.7889 75.6552C81.6386 75.904 81.4931 76.1552 81.3476 76.3922C80.9603 77.0213 80.5636 77.6762 80.4955 78.4226C80.4908 78.4743 80.5589 78.4813 80.5847 78.4461C81.0589 77.7936 81.3734 77.0237 81.7819 76.3265C81.9744 75.9979 82.202 75.6739 82.4039 75.3406C82.9273 75.0965 83.4531 74.9087 83.9836 74.7914C83.8592 74.9486 83.7488 75.1177 83.6432 75.2749C83.3451 75.728 83.1174 76.2044 82.9907 76.7326C82.9813 76.7748 83.0377 76.8148 83.0682 76.7772C83.3405 76.4486 83.5563 76.0894 83.7653 75.7162C83.953 75.3829 84.2089 75.0707 84.4131 74.7421C84.5516 74.735 84.6901 74.7256 84.8333 74.728C84.9014 74.728 84.9413 74.6975 84.9671 74.6599C85.2699 74.6506 85.5774 74.674 85.8849 74.7186C85.6666 75.0543 85.5305 75.4862 85.3802 75.8101C85.3591 75.8547 85.4153 75.9064 85.4529 75.8664C85.7205 75.573 86.1055 75.2021 86.2769 74.7937C86.6031 74.8688 86.9341 74.9721 87.2698 75.1223C87.5209 75.235 87.7628 75.3711 87.9974 75.5167C87.9177 75.6223 87.8495 75.7397 87.7979 75.8406C87.5209 76.3711 87.0984 77.0096 87.1876 77.6269C87.1946 77.6762 87.2628 77.6856 87.2933 77.6551C87.7557 77.2161 87.8542 76.5237 88.1523 75.9768C88.1875 75.911 88.2415 75.8148 88.2838 75.7139C88.6312 75.958 88.9574 76.2373 89.2579 76.5401C88.941 77.08 88.6147 77.6081 88.4293 78.209C88.4176 78.2489 88.4716 78.2794 88.4974 78.2489C88.8331 77.8687 89.3846 77.3617 89.502 76.803C89.8423 77.1809 90.1428 77.5964 90.401 78.033L90.4057 78.0353Z" fill-rule="nonzero" fill="#000000"/>
	<path id="Vector" d="M139.508 82.7111C139.508 82.7111 139.499 82.7088 139.494 82.7041C139.518 82.4506 139.405 82.1642 139.332 81.9342C139.227 81.6056 139.053 81.2863 138.774 81.0751C138.741 81.0516 138.694 81.0915 138.706 81.1267C138.814 81.4248 138.945 81.7112 139.041 82.014C139.093 82.1783 139.109 82.3732 139.145 82.5562C137.809 81.0587 135.417 80.4179 133.518 80.1949C132.722 80.101 130.981 79.6127 130.068 80.0775C130.028 79.6996 129.955 79.324 129.838 78.9531C128.774 75.5824 124.46 72.6296 121.286 74.0966C119.81 74.1013 118.547 74.9863 117.643 76.2092C117.172 75.9932 116.655 75.8547 116.191 75.6083C115.425 75.2022 114.752 74.6435 114.12 74.0544C113.052 73.0568 112.163 71.862 111.318 70.6696C111.973 71.0334 112.637 71.2681 113.409 71.4137C113.463 71.4231 113.503 71.348 113.449 71.3198C112.625 70.9372 111.801 70.5053 111.012 70.0499C110.893 69.9818 110.726 70.0663 110.731 70.2119C110.766 71.3479 111.116 72.6296 111.524 73.6859C111.555 73.7633 111.66 73.7492 111.667 73.6671C111.766 72.6531 111.289 71.6578 111.144 70.6461C111.897 71.9817 112.785 73.2117 113.853 74.3196C114.667 75.1646 116.045 76.4251 117.345 76.6411C116.744 77.5917 116.345 78.6926 116.216 79.7348C115.937 81.9905 116.524 84.1383 117.82 85.6899C116.939 86.5114 116.167 87.4785 115.327 88.3306C114.296 89.3727 113.09 90.2718 112.073 91.3186C112.078 91.1778 112.073 91.037 112.085 90.8961C112.109 90.5159 112.193 90.1262 112.17 89.7483C112.17 89.7154 112.12 89.6967 112.104 89.7319C111.792 90.3516 111.813 91.2036 111.801 91.882C111.801 91.9735 111.883 92.0181 111.965 92.0064C112.672 91.9007 113.318 91.9149 113.989 91.6214C114.038 91.6003 114.01 91.5275 113.963 91.5275C113.329 91.5299 112.759 91.5463 112.163 91.6918C113.367 91.0041 114.402 89.8563 115.367 88.8822C116.27 87.9714 117.251 86.9715 117.986 85.8823C119.026 87.0372 120.477 87.8306 122.279 88.0371C123.385 88.1639 124.467 87.9691 125.458 87.5442C126.406 89.6802 128.216 91.1097 130.554 91.652C130.103 91.9149 129.725 92.2341 129.41 92.6707C129.382 92.7106 129.436 92.7622 129.476 92.7364C129.974 92.4031 130.481 92.0557 131.007 91.767C131.089 91.7224 131.101 91.6261 131.065 91.5487C130.896 91.1708 130.654 90.8069 130.396 90.483C130.373 90.4525 130.331 90.4806 130.328 90.5112C130.305 90.8304 130.471 91.0956 130.622 91.3679C129.798 90.8116 128.683 90.6356 127.824 90.145C126.732 89.523 126.237 88.4714 125.657 87.4574C128.286 86.2297 130.211 83.3543 130.094 80.4812C131.291 80.162 132.61 80.4648 133.809 80.6643C134.758 80.8216 135.685 81.0587 136.586 81.3943C137.426 81.7065 138.067 82.4365 138.861 82.7816C138.661 82.8731 138.523 83.0046 138.358 83.1642C138.33 83.1924 138.351 83.2463 138.391 83.2463C138.628 83.2369 138.832 83.2416 139.055 83.1501C139.224 83.0797 139.462 83.0257 139.539 82.8403C139.56 82.7886 139.553 82.7417 139.504 82.7111L139.508 82.7111ZM121.176 86.8165C118.01 85.9903 116.78 82.514 117.186 79.5635C117.439 77.7302 118.261 76.3969 119.507 75.6059C119.456 75.6975 119.573 75.7961 119.66 75.7468C120.481 75.2797 121.305 74.9416 122.141 74.7844C122.362 74.7679 122.585 74.7562 122.815 74.7609C122.883 74.7609 122.923 74.7304 122.948 74.6928C123.7 74.667 124.465 74.7985 125.251 75.1553C127.056 75.9721 128.469 77.6927 129.056 79.5611C130.457 84.0303 125.162 87.8587 121.172 86.8189L121.176 86.8165Z" fill-rule="nonzero" fill="#000000"/>
	<path id="Vector" d="M134.856 33.9934C134.856 33.9934 134.856 33.991 134.856 33.9887C134.856 33.8736 134.748 33.8009 134.642 33.8243C134.166 33.9347 133.652 34.0474 133.199 34.2328C133.15 34.2516 133.131 34.3407 133.199 34.3525C133.488 34.3994 133.786 34.3572 134.082 34.2938C132.917 35.0355 131.812 35.951 130.924 36.9862C130.03 38.0284 129.089 39.2208 128.704 40.5658C126.922 38.2373 123.758 36.6974 121.286 37.8406C119.211 37.8476 117.554 39.5846 116.735 41.5681C116.132 41.2817 115.409 41.162 114.796 40.939C113.869 40.601 112.986 40.1526 112.141 39.6433C110.538 38.6762 109.308 37.3852 108.06 36.0308C108.916 36.2115 109.698 36.6669 110.613 36.6364C110.679 36.6364 110.691 36.5425 110.627 36.5237C109.583 36.2115 108.686 35.6083 107.564 35.5731C107.379 35.566 107.332 35.7797 107.428 35.9017C108.015 36.6411 108.043 37.6176 108.543 38.3781C108.562 38.4062 108.613 38.4086 108.621 38.3687C108.714 37.8218 108.529 37.1458 108.252 36.5542C109.219 37.9321 110.543 39.0799 111.937 39.9883C112.709 40.4906 113.543 40.8944 114.392 41.2488C115.047 41.5234 115.838 41.8849 116.587 41.9413C116.404 42.453 116.277 42.9741 116.214 43.4811C116.176 43.7886 116.16 44.0937 116.153 44.3942C115.594 44.3613 115.015 44.359 114.484 44.4881C114.425 44.5021 114.418 44.582 114.468 44.6125C114.979 44.9247 115.59 44.8425 116.155 44.6923C116.202 48.2766 118.456 51.3421 122.277 51.7811C126.958 52.3186 131.234 47.1381 129.833 42.6971C129.633 42.0657 129.321 41.4483 128.922 40.8732C129.591 39.3522 130.485 37.9978 131.657 36.7913C132.26 36.1669 132.948 35.6271 133.654 35.1247C133.901 34.9487 134.157 34.8149 134.38 34.6482C134.389 34.8759 134.427 35.1036 134.476 35.3243C134.488 35.3783 134.567 35.3736 134.579 35.3243C134.687 34.9158 134.88 34.5309 134.833 34.106C134.837 34.0943 134.844 34.0849 134.849 34.0732C134.861 34.045 134.859 34.0192 134.849 33.9957L134.856 33.9934ZM129.061 43.298C130.462 47.7672 125.167 51.5956 121.176 50.5558C118.01 49.7295 116.78 46.2532 117.186 43.3027C117.439 41.4694 118.261 40.1362 119.507 39.3452C119.456 39.4367 119.573 39.5353 119.66 39.486C120.481 39.0189 121.305 38.6809 122.141 38.5236C122.362 38.5072 122.585 38.4978 122.815 38.5001C122.883 38.5001 122.923 38.4696 122.948 38.4321C123.699 38.4062 124.465 38.5377 125.251 38.8945C127.056 39.7113 128.469 41.4319 129.056 43.3003L129.061 43.298Z" fill-rule="nonzero" fill="#000000"/>
	<path id="Vector" d="M86.5865 82.0398C85.8729 80.7981 85.4575 79.4249 84.9434 78.094C84.8636 77.8874 84.5327 77.7724 84.4153 78.0259C83.8073 79.3474 83.3895 80.7417 82.6501 82.0022C82.5797 82.1219 82.6995 82.3191 82.8474 82.2581C83.3568 82.0445 83.6383 81.3966 83.8589 80.8873C84.1242 80.9976 84.4506 80.9671 84.7346 80.9788C84.9928 80.9882 85.2111 81.0023 85.4294 80.9835C85.6242 81.4436 85.8354 81.8966 86.0936 82.3308C86.2814 82.6477 86.772 82.3637 86.5865 82.0421L86.5865 82.0398ZM84.8989 80.4671C84.6336 80.4577 84.3098 80.4201 84.0304 80.4812C84.2487 79.9742 84.4435 79.4554 84.6477 78.9414C84.8378 79.4578 85.0233 79.9789 85.2252 80.4906C85.1242 80.4788 85.0186 80.4718 84.8965 80.4671L84.8989 80.4671Z" fill-rule="nonzero" fill="#000000"/>
	<path id="Vector" d="M82.6243 77.8054C82.6149 77.7749 82.5728 77.7584 82.5493 77.7866C82.446 77.9063 82.3379 77.9861 82.2745 78.1387C82.2088 78.2936 82.1737 78.4579 82.1291 78.6176C82.115 78.6645 82.1736 78.695 82.2089 78.6645C82.3474 78.5377 82.4929 78.4321 82.6033 78.2772C82.7089 78.127 82.676 77.9626 82.6243 77.8077L82.6243 77.8054Z" fill-rule="nonzero" fill="#000000"/>
	<path id="Vector" d="M123.594 81.3262C123.948 81.0586 124.145 80.6479 124.03 80.0775C123.833 79.0869 122.711 78.7372 121.871 79.0916C121.73 79.1526 121.669 79.2536 121.692 79.4085C121.866 80.5774 121.61 81.7558 121.714 82.9106C121.704 82.9106 121.695 82.9106 121.688 82.9106C121.601 82.9083 121.568 83.0327 121.643 83.0726C121.671 83.089 121.704 83.1031 121.735 83.1172C121.737 83.1407 121.739 83.1665 121.742 83.19C121.742 83.19 121.746 83.1876 121.749 83.1853C121.784 83.3026 121.944 83.3425 122.016 83.2322C122.983 83.5562 124.453 83.4458 124.725 82.3332C124.878 81.7088 124.249 81.4412 123.596 81.3262L123.594 81.3262ZM122.498 81.237C122.415 81.2464 122.357 81.2863 122.319 81.3403C122.336 80.7206 122.291 80.0986 122.218 79.5235C123.5 79.2113 124.141 81.068 122.498 81.237ZM124.204 82.3872C123.948 82.9552 122.85 82.9552 122.108 82.9271C122.218 82.5093 122.282 82.0656 122.307 81.6102C122.343 81.6666 122.404 81.7088 122.498 81.7088C122.852 81.7088 124.5 81.7299 124.204 82.3872Z" fill-rule="nonzero" fill="#000000"/>
	<path id="Vector" d="M113.712 81.0798C110.428 80.8286 107.069 80.9741 103.78 81.0328C100.445 81.0915 97.0883 81.1596 93.7599 81.3708C93.8045 81.3145 93.842 81.2652 93.8632 81.2417C94.0979 80.9765 94.4219 80.723 94.5298 80.3733C94.5486 80.3122 94.4805 80.277 94.4312 80.2982C94.1589 80.4179 92.9032 81.3051 93.1661 81.6948C93.0558 81.9811 93.3304 82.3849 93.5229 82.6384C93.6919 82.8637 94.1237 83.4998 94.4805 83.2909C94.8631 83.0679 94.2693 82.6548 94.1191 82.4976C93.9642 82.3356 93.8209 82.1267 93.6636 81.9459C96.9052 81.6807 100.13 81.4694 103.384 81.3802C106.815 81.2864 110.292 81.4154 113.714 81.1525C113.761 81.1478 113.761 81.0821 113.714 81.0798L113.712 81.0798Z" fill-rule="nonzero" fill="#000000"/>
	<path id="Vector" d="M94.9382 64.0315C94.7715 63.2921 93.9712 62.8109 93.2928 63.2287C92.8867 63.4775 92.5111 64.5573 92.9923 64.8578C93.1285 65.1418 93.4149 65.3789 93.7294 65.4446C94.5533 65.6206 95.1049 64.7615 94.9406 64.0339L94.9382 64.0315ZM93.8397 65.0713C93.4289 65.0713 93.2458 64.7498 93.1942 64.4071C93.1777 64.1465 93.2106 63.8883 93.3914 63.6653C93.7576 63.2146 94.3279 63.5973 94.4993 64.0104C94.7034 64.4986 94.3959 65.0714 93.8397 65.069L93.8397 65.0713Z" fill-rule="nonzero" fill="#000000"/>
	<path id="Vector" d="M69.8668 68.3246C69.2542 68.4256 68.8551 69.1485 68.7776 69.7095C68.733 70.0358 68.78 70.348 68.9866 70.6109C69.1439 70.8127 69.3411 70.8667 69.5476 70.8456C69.6931 70.9653 69.8809 71.0287 70.1039 70.9982C70.5663 70.9371 70.8926 70.5123 71.0264 70.0968C71.247 69.4067 70.7306 68.1838 69.8668 68.327L69.8668 68.3246ZM70.1907 70.5005C70.0358 70.6062 69.8832 70.6273 69.7401 70.5897C69.4537 70.4372 69.2424 70.2025 69.2589 69.8527C69.2753 69.4865 69.4959 69.0593 69.8128 68.8668C70.226 68.6157 70.5499 69.3058 70.5922 69.6344C70.6345 69.9724 70.4677 70.3081 70.1907 70.4982L70.1907 70.5005Z" fill-rule="nonzero" fill="#000000"/>
	<path id="Vector" d="M69.2449 91.5558C68.8529 91.1309 68.0853 91.2577 67.6628 91.5558C67.1276 91.9337 66.994 92.8538 67.6582 93.173C67.677 93.1824 67.6981 93.1824 67.7192 93.1777C68.0009 93.3984 68.3857 93.4524 68.7238 93.3373C69.3834 93.112 69.7379 92.0909 69.2426 91.5558L69.2449 91.5558ZM68.7685 92.8068C68.5831 93.0064 68.2614 93.0228 68.0267 92.9148C67.8295 92.8233 67.7521 92.673 67.6746 92.5158C67.6535 92.328 67.6746 92.1473 67.8365 91.9876C68.0619 91.76 68.4938 91.6567 68.7896 91.7858C69.2003 91.9665 69.0008 92.5604 68.7708 92.8068L68.7685 92.8068Z" fill-rule="nonzero" fill="#000000"/>
	<path id="Vector" d="M125.958 63.1583C126.784 59.7736 127.939 55.6494 126.85 52.2106C126.835 52.1637 126.772 52.1848 126.779 52.2294C127.38 55.8184 126.45 59.2031 125.655 62.6795C124.969 65.684 123.784 68.5946 122.427 71.348C122.432 70.7987 122.432 70.2424 122.289 69.7307C122.277 69.6861 122.214 69.6861 122.2 69.7307C121.967 70.5311 122.014 71.4583 122.049 72.2822C122.054 72.3996 122.171 72.5146 122.296 72.47C123.117 72.1766 123.883 71.8714 124.655 71.4607C124.704 71.4348 124.669 71.3597 124.617 71.3738C123.99 71.5405 123.38 71.693 122.772 71.8902C123.401 71.2189 123.636 69.9068 123.943 69.1463C124.737 67.191 125.455 65.2146 125.955 63.1607L125.958 63.1583Z" fill-rule="nonzero" fill="#000000"/>
	<path id="Vector" d="M109.813 92.22C109.768 91.7506 109.583 91.0863 109.017 91.0276C108.609 90.9854 108.358 91.2976 108.205 91.7224C108.118 91.5346 107.996 91.3774 107.825 91.2835C107.47 91.0887 107.109 91.4572 106.916 91.706C106.534 92.2013 106.409 93.004 106.639 93.5815C106.663 93.6402 106.752 93.6519 106.771 93.5815C106.877 93.1684 106.914 92.7482 107.048 92.3421C107.153 92.0276 107.574 91.3656 107.783 91.9266C107.954 92.389 107.961 92.9149 107.991 93.4078C107.991 93.4641 107.996 93.5158 108.001 93.5604C108.027 93.8514 108.477 93.8561 108.456 93.5604C108.428 93.2364 108.527 91.2647 109.059 91.5065C109.449 91.6825 109.393 92.5017 109.388 92.8444C109.383 93.1378 109.285 93.565 109.503 93.8092C109.529 93.8373 109.569 93.8303 109.595 93.8092C109.975 93.5111 109.853 92.6285 109.813 92.22Z" fill-rule="nonzero" fill="#000000"/>
	<path id="Vector" d="M110.397 88.8915C110.097 89.0957 109.853 89.3657 109.799 89.7342C109.792 89.7788 109.836 89.8304 109.883 89.7976C110.008 89.7107 110.123 89.6098 110.242 89.5159C110.217 89.821 110.203 90.1309 110.254 90.4243C110.264 90.4759 110.343 90.4853 110.365 90.4384C110.569 90.0182 110.775 89.5652 110.745 89.0863C110.735 88.9244 110.552 88.7835 110.4 88.8868L110.397 88.8915Z" fill-rule="nonzero" fill="#000000"/>
	<path id="Vector" d="M134.94 90.8398C134.354 90.7764 133.952 91.098 133.708 91.551C133.607 91.2529 133.438 91.0182 133.154 90.9571C132.112 90.7341 131.898 92.781 132.089 93.3748C132.107 93.4288 132.194 93.4382 132.208 93.3748C132.283 93.011 132.333 92.6472 132.417 92.2857C132.466 92.0744 132.924 90.9454 133.246 91.5111C133.387 91.7599 133.431 92.0885 133.438 92.4148C133.403 92.6542 133.396 92.8936 133.417 93.1049C133.443 93.3654 133.811 93.3725 133.826 93.1049C133.833 92.957 133.842 92.7552 133.84 92.5322C133.915 91.9454 134.182 91.3116 134.786 91.2858C135.755 91.2482 135.314 92.7152 135.642 93.1917C135.668 93.2293 135.717 93.2364 135.753 93.2058C136.443 92.6096 135.825 90.9383 134.94 90.8421L134.94 90.8398Z" fill-rule="nonzero" fill="#000000"/>
	<path id="Vector" d="M136.783 90.1075C136.596 90.0324 136.396 89.9831 136.192 89.9479C136.241 89.739 136.288 89.5254 136.248 89.3141C136.197 89.0489 135.823 88.9996 135.755 89.2789C135.748 89.3047 135.762 89.3352 135.79 89.3423C135.826 89.3493 135.924 89.3634 135.915 89.3493C135.936 89.3822 135.915 89.4902 135.912 89.5254C135.898 89.6826 135.856 89.8657 135.788 90.0066C135.732 90.1239 135.779 90.2507 135.905 90.2953C136.199 90.3939 136.539 90.3986 136.795 90.2014C136.83 90.1732 136.826 90.1263 136.783 90.1098L136.783 90.1075Z" fill-rule="nonzero" fill="#000000"/>
	<path id="Vector" d="M124.016 45.9152C123.772 45.88 123.638 45.9457 123.415 46.0584C123.129 46.2063 122.819 46.1593 122.54 46.0255C121.925 45.7251 121.728 44.9481 121.894 44.3331C122.012 43.9012 122.472 43.5632 122.826 43.3332C123.246 43.0585 123.594 42.96 123.824 43.4623C123.845 43.5045 123.904 43.4858 123.918 43.4505C124.127 42.8708 123.617 42.5868 123.103 42.737C122.507 42.9107 121.807 43.467 121.552 44.0397C121.2 44.8331 121.43 45.8589 122.082 46.4293C122.606 46.8846 124.026 46.9738 124.136 46.0772C124.145 46.0114 124.08 45.9269 124.014 45.9175L124.016 45.9152Z" fill-rule="nonzero" fill="#000000"/>
	<path id="Vector" d="M137.915 30.484C137.208 30.369 136.396 31.0779 136.779 31.7117C136.483 32.2703 136.722 33.0332 137.22 33.4017C137.973 33.958 138.757 33.1013 138.903 32.4112C139.062 31.6577 138.779 30.6249 137.912 30.484L137.915 30.484ZM138.368 32.3642C138.271 32.8172 137.851 33.228 137.38 32.9581C137.049 32.7703 136.912 32.2938 136.917 31.8854C136.922 31.8901 136.924 31.8948 136.929 31.8995C136.969 31.937 137.037 31.9112 137.037 31.8549C137.037 31.369 137.455 30.8127 137.99 31.0521C138.438 31.2516 138.452 31.9652 138.368 32.3642Z" fill-rule="nonzero" fill="#000000"/>
	<path id="Vector" d="M102.886 31.9958C101.766 32.3972 101.602 34.0543 102.37 34.836C102.382 34.8477 102.396 34.8501 102.412 34.8477C102.595 35.1951 102.87 35.4862 103.25 35.6388C104.327 36.066 104.888 34.8102 104.973 33.944C105.081 32.8455 104.034 31.585 102.886 31.9958ZM104.454 34.1224C104.339 34.7562 103.94 35.5308 103.21 35.12C102.806 34.8947 102.534 34.4487 102.377 33.991C102.342 33.4488 102.393 32.8948 102.835 32.5685C103.788 31.8643 104.602 33.3102 104.456 34.1224L104.454 34.1224Z" fill-rule="nonzero" fill="#000000"/>
	<path id="Vector" d="M99.0202 42.2206C98.1447 41.784 97.2245 41.5211 96.3043 41.1972C96.2598 41.1808 96.2363 41.2465 96.2739 41.27C97.1118 41.7981 98.0437 42.0352 98.992 42.2863C99.0296 42.2957 99.0554 42.2417 99.0178 42.2229L99.0202 42.2206Z" fill-rule="nonzero" fill="#000000"/>
	<path id="Vector" d="M104.447 43.2862C103.766 42.9694 102.933 42.8215 102.184 42.8825C102.144 42.8849 102.116 42.9482 102.161 42.9694C102.846 43.2816 103.675 43.3379 104.419 43.3919C104.473 43.3966 104.497 43.3121 104.447 43.2886L104.447 43.2862Z" fill-rule="nonzero" fill="#000000"/>
	<path id="Vector" d="M110.388 44.0373C109.895 43.9482 109.301 43.8191 108.806 43.9599C108.761 43.9716 108.754 44.0327 108.794 44.0561C109.254 44.3308 109.895 44.2087 110.388 44.1195C110.428 44.1125 110.428 44.0467 110.388 44.0397L110.388 44.0373Z" fill-rule="nonzero" fill="#000000"/>
	<path id="Vector" d="M93.3797 39.0306C92.8187 38.6128 91.9808 38.9461 91.5231 39.3639C91.2743 39.5916 91.1075 39.9062 91.1052 40.2442C91.1052 40.5258 91.2507 40.8709 91.5066 41.007C91.5629 41.1291 91.6404 41.2465 91.7531 41.3474C92.1029 41.6666 92.6075 41.6807 93.0018 41.4436C93.6685 41.0422 94.105 39.5705 93.3797 39.0283L93.3797 39.0306ZM93.009 40.8451C92.8071 41.1713 92.4244 41.2582 92.077 41.1408C91.9573 41.1009 91.8634 41.0305 91.7883 40.9437C91.7883 40.9413 91.7883 40.939 91.7883 40.9366C91.7625 40.77 91.6569 40.6409 91.5888 40.4977C91.5676 40.3639 91.5653 40.223 91.5888 40.0939C91.5934 40.0728 91.5793 40.0564 91.5653 40.0517C91.6099 39.9343 91.6827 39.824 91.7719 39.7348C92.0583 39.4367 92.57 39.216 92.9808 39.324C93.5934 39.486 93.2085 40.5211 93.009 40.8451Z" fill-rule="nonzero" fill="#000000"/>
	<path id="Vector" d="M108.414 67.2285C108.031 67.2027 107.63 67.3459 107.259 67.2238C106.945 67.1205 106.773 66.7708 106.689 66.4774C106.482 65.7521 106.785 64.9188 107.602 64.8249C107.632 64.8202 107.642 64.7779 107.609 64.7686C106.55 64.4705 106.13 65.6863 106.259 66.522C106.414 67.5149 107.804 68.3951 108.48 67.3388C108.513 67.2872 108.468 67.2309 108.416 67.2262L108.414 67.2285Z" fill-rule="nonzero" fill="#000000"/>
	<path id="Vector" d="M110.789 65.9656C110.505 65.4891 109.949 65.0384 109.376 65.029C109.097 65.0243 108.846 65.1816 108.717 65.4281C108.642 65.5712 108.595 65.7473 108.606 65.9093C108.623 66.1158 108.703 66.2637 108.792 66.428C108.796 66.6909 108.862 66.9468 109.055 67.1533C109.395 67.5195 109.916 67.5218 110.364 67.3716C111.015 67.1533 111.109 66.5055 110.787 65.9679L110.789 65.9656ZM110.341 66.8435C110.102 67.0031 109.684 67.0853 109.423 66.9632C109.2 66.8599 109.069 66.597 108.994 66.3247C109.024 66.2379 109.055 66.151 109.069 66.0595C109.085 65.9515 109.123 65.8247 109.158 65.7168C109.2 65.5806 109.278 65.5525 109.376 65.5501C109.686 65.5431 110.055 65.8482 110.273 66.1135C110.479 66.3623 110.594 66.6768 110.341 66.8458L110.341 66.8435Z" fill-rule="nonzero" fill="#000000"/>
	<path id="Vector" d="M112.639 66.1089C112.515 66.0361 112.397 65.9892 112.273 65.9516C112.414 65.6887 112.489 65.4024 112.442 65.0996C112.39 64.7663 112.012 64.5245 111.698 64.6747C111.66 64.6935 111.653 64.7522 111.684 64.7803C111.857 64.9282 112.055 64.9986 112.069 65.2568C112.083 65.5033 111.944 65.7592 111.782 65.9352C111.665 66.0596 111.724 66.2404 111.876 66.2943C112.158 66.3953 112.383 66.346 112.637 66.2004C112.672 66.1817 112.669 66.13 112.637 66.1089L112.639 66.1089Z" fill-rule="nonzero" fill="#000000"/>
	<path id="Vector" d="M63.4963 66.3623C61.1725 62.0504 58.8863 57.661 57.0977 53.1025C56.9286 52.457 56.7831 51.8045 56.6891 51.1285C56.6891 50.5159 56.6892 49.9055 56.6869 49.2953C56.7268 49.2295 56.7549 49.1521 56.7549 49.0582C56.7549 46.8916 56.762 44.7228 56.7549 42.5562C57.2267 39.9836 56.2222 37.0307 57.2972 34.5825C57.7056 33.653 58.5319 32.9863 58.6211 32.0991C58.7831 31.6672 58.7056 31.186 58.222 30.6766C56.4615 28.8223 52.6262 29.0875 50.753 30.6203C50.2366 31.0428 49.9831 31.5639 50.0535 32.0944C50.0206 32.2798 50.0206 32.4652 50.0863 32.6319C50.5393 33.8126 51.3609 34.0731 51.5088 35.5496C51.6496 36.9556 51.6403 38.378 51.6379 39.7888C51.6379 40.1291 51.6214 40.4789 51.6027 40.831C51.6027 40.831 51.6027 40.8333 51.6027 40.8356L51.6027 40.8521C51.5698 41.4765 51.5416 42.1126 51.5933 42.7276C51.5721 45.9293 51.5792 49.1333 51.5956 52.335C51.2482 53.7246 50.7905 54.9733 50.0394 56.2831C49.077 57.9638 48.0466 59.6069 47.0184 61.25C45.2556 64.0691 42.8942 66.7872 41.4553 69.7729C40.5986 71.5498 42.7745 73.1202 43.9623 74.0051C45.1946 74.9252 46.7907 75.5848 48.408 75.8195C50.591 76.4533 52.9735 76.6341 55.2433 76.5989C56.532 76.6646 57.8206 76.6505 59.1069 76.5284C60.8557 76.3641 62.6208 75.944 64.116 74.9933C64.4399 74.7891 64.7286 74.5426 64.9868 74.2703C65.7098 73.9535 66.3178 73.4676 66.3577 72.5803C66.461 70.3762 64.494 68.2097 63.4987 66.367L63.4963 66.3623ZM51.1191 32.2446C50.5276 31.7376 51.7482 31.0357 52.0111 30.8949C53.3091 30.1931 56.9896 29.8363 57.7009 31.5897C58.1022 32.5826 55.4006 33.1061 54.8607 33.1976C54.4007 33.2751 53.8444 33.3267 53.2763 33.3173C52.9829 33.16 52.6871 33.0075 52.3444 32.8948C51.9031 32.7493 51.4735 32.5497 51.1191 32.2469L51.1191 32.2446ZM52.4501 54.3302C52.5956 54.0321 52.5956 53.6283 52.5345 53.1964C52.5557 49.7107 52.5627 46.2227 52.5369 42.737C52.5744 42.2511 52.5627 41.7558 52.5768 41.2229C52.6168 39.5611 52.6378 37.9015 52.5814 36.2397C52.5533 35.4416 52.5064 34.7186 52.2505 33.9933C53.4054 34.3337 54.8419 34.1741 55.8889 33.937C56.1729 33.8736 56.5178 33.7562 56.8652 33.599C56.5413 34.0989 56.2738 34.6177 56.2057 35.228C56.0156 36.9345 55.7128 39.0541 55.8019 40.9859C55.7996 41.3591 55.8019 41.73 55.7972 42.1032C55.6776 43.7604 55.5485 45.4199 55.3912 47.0724C55.0931 50.1825 55.2339 52.8232 56.4545 55.7151C56.7291 56.3676 57.0296 57.0155 57.3418 57.6586C56.478 57.6516 55.7949 58.1727 55.1213 58.8205C53.4852 60.3932 52.0674 58.506 50.3281 58.567C50.2366 58.5694 50.1473 58.5952 50.0581 58.6116C50.152 58.4544 50.2507 58.3018 50.3422 58.1445C51.0746 56.8911 51.8022 55.6329 52.4477 54.3325L52.4501 54.3302ZM56.6963 74.9957C54.849 75.1177 52.9899 75.1107 51.1567 74.8971C50.7318 74.8102 50.2788 74.7304 49.8587 74.7069C49.347 74.6177 48.8376 74.5168 48.3329 74.3877C46.4692 73.9183 43.5186 72.7282 42.683 70.7025C42.6431 70.3293 42.7369 69.9255 43.035 69.4795C43.9153 68.158 44.8425 66.8623 45.718 65.5361C46.7814 63.9329 47.8048 62.3063 48.8118 60.6679C49.6216 59.9942 50.436 59.3698 51.6074 59.8909C52.2505 60.1773 53.0321 60.6397 53.7551 60.581C54.2973 60.5388 54.8113 60.4542 55.2221 60.0552C55.5202 59.7688 55.795 59.4637 56.0837 59.1679C56.8019 58.4332 57.4966 58.6328 58.0577 59.0764C58.8745 60.6655 59.7384 62.2358 60.5482 63.8038C61.2407 65.1465 61.8721 66.5313 62.6279 67.8388C63.3884 69.1533 64.0574 70.2236 64.0761 71.5897C63.9869 74.1976 58.5013 74.8712 56.6963 74.991L56.6963 74.9957Z" fill-rule="nonzero" fill="#000000"/>
	<path id="Vector" d="M52.3795 64.8906C52.3326 64.8085 52.2809 64.7193 52.2176 64.6465C52.2012 64.5878 52.1918 64.5244 52.1683 64.4658C52.0016 64.0339 51.5533 63.9188 51.1965 64.2099C50.8256 64.5127 50.8162 65.123 51.1472 65.4587C51.4875 65.8061 51.9312 65.7967 52.2997 65.5033C52.4758 65.3624 52.4805 65.0714 52.3795 64.8906Z" fill-rule="nonzero" fill="#000000"/>
	<path id="Vector" d="M54.8066 64.224C54.6776 64.116 54.5743 64.0268 54.3959 64.0503C54.2527 64.0691 54.1658 64.1301 54.1118 64.2663C54.046 64.4353 54.1024 64.5573 54.1776 64.7099C54.2527 64.8672 54.4686 64.9423 54.6282 64.893C54.7385 64.8601 54.8113 64.8132 54.8676 64.7099C54.9474 64.5597 54.9427 64.3437 54.8043 64.224L54.8066 64.224Z" fill-rule="nonzero" fill="#000000"/>
	<path id="Vector" d="M56.1635 62.501C55.8607 62.3226 55.4852 62.6818 55.6753 62.9893C55.687 63.0057 55.6964 63.0221 55.7082 63.0386C55.7551 63.1137 55.8442 63.1771 55.9358 63.17L55.9828 63.1653C56.3208 63.1348 56.4874 62.6912 56.1635 62.501Z" fill-rule="nonzero" fill="#000000"/>
	<path id="Vector" d="M58.053 68.956C57.7901 68.5288 57.2596 68.6509 57.046 68.9654C57.0436 68.9607 57.0414 68.9584 57.039 68.956C56.8724 69.2236 56.8418 69.5053 56.9474 69.801C57.1611 70.3902 57.9287 70.3902 58.1423 69.801C58.2502 69.5029 58.2173 69.2213 58.053 68.956Z" fill-rule="nonzero" fill="#000000"/>
	<path id="Vector" d="M56.1492 71.2565C55.4451 71.2565 55.4451 72.3479 56.1492 72.3479C56.8534 72.3479 56.8534 71.2565 56.1492 71.2565Z" fill-rule="nonzero" fill="#000000"/>
	<path id="Vector" d="M55.7597 69.5641C55.7573 69.5476 55.7526 69.5312 55.7503 69.5148C55.6494 68.9819 54.7575 69.2871 55.0368 69.8152C55.0439 69.8293 55.0532 69.8457 55.0602 69.8598C55.2762 70.2635 55.8372 69.9701 55.7597 69.5664L55.7597 69.5641Z" fill-rule="nonzero" fill="#000000"/>
	<path id="Vector" d="M47.9924 69.3599C47.4854 69.2214 47.1474 69.6791 47.2155 70.1368C47.2319 70.2542 47.2766 70.3481 47.3306 70.4537C47.4808 70.7495 47.9032 70.7753 48.1262 70.557C48.1732 70.5077 48.2225 70.4631 48.2742 70.4185C48.6263 70.0899 48.4409 69.4843 47.9949 69.3622L47.9924 69.3599Z" fill-rule="nonzero" fill="#000000"/>
	<path id="Vector" d="M50.389 71.4044C50.2458 71.01 49.8022 70.9631 49.5675 71.1978C49.5675 71.1931 49.5676 71.1884 49.5652 71.1861C49.4619 71.2964 49.3938 71.4208 49.361 71.5687C49.3563 71.5898 49.3609 71.6062 49.3585 71.6273C49.3585 71.6273 49.3585 71.6273 49.3585 71.6297C49.2952 71.7048 49.314 71.794 49.3798 71.841C49.4971 72.2236 50.0393 72.3762 50.2999 71.9654C50.4055 71.8011 50.4595 71.5945 50.3914 71.4044L50.389 71.4044Z" fill-rule="nonzero" fill="#000000"/>
	<path id="Vector" d="M50.0511 68.6885C50.0347 68.6509 50.0182 68.6158 50.0018 68.5805C49.8046 68.158 49.0676 68.2519 48.9878 68.712C48.9808 68.7519 48.9736 68.7918 48.9666 68.8293C48.9009 69.2049 49.1262 69.5828 49.5393 69.5828C50.0205 69.5828 50.2365 69.0852 50.0511 68.6885Z" fill-rule="nonzero" fill="#000000"/>
	<path id="Vector" d="M49.4574 25.8577C49.3541 25.8882 49.2578 25.9914 49.2695 26.1064C49.3 26.4632 49.5089 26.8505 49.7061 27.144C49.8023 27.2871 50.2648 27.658 50.4526 27.4397C50.9244 26.8858 50.1826 25.6394 49.4597 25.8577L49.4574 25.8577Z" fill-rule="nonzero" fill="#000000"/>
	<path id="Vector" d="M53.483 25.2144C53.314 25.076 53.0651 25.1205 52.9948 25.3435C52.868 25.7496 52.9149 26.2989 53.3186 26.536C53.3515 26.5547 53.3914 26.5547 53.4243 26.536C53.8844 26.2637 53.8773 25.5384 53.483 25.2144Z" fill-rule="nonzero" fill="#000000"/>
	<path id="Vector" d="M56.8514 24.299C56.8068 24.1441 56.5907 24.0667 56.4734 24.2004C55.9664 24.7732 55.3584 25.8905 55.7692 26.6299C55.8537 26.7848 56.0603 26.7942 56.1824 26.6839C56.5157 26.3834 56.6166 26.0055 56.734 25.5783C56.8561 25.1464 56.978 24.7403 56.8489 24.3014L56.8514 24.299Z" fill-rule="nonzero" fill="#000000"/>
	<path id="Vector" d="M60.1749 25.461C59.9049 25.5431 59.7266 25.9211 59.5576 26.13C59.3111 26.4375 59.1819 26.7731 59.2172 27.1651C59.2219 27.2191 59.2735 27.2778 59.3345 27.2543C59.8228 27.0595 60.1702 26.8952 60.4424 26.4116C60.5692 26.1863 60.7053 25.2967 60.1749 25.4587L60.1749 25.461Z" fill-rule="nonzero" fill="#000000"/>
	<path id="Vector" d="M54.1917 54.9733C54.1753 54.9663 54.1611 54.9569 54.1447 54.9498C53.9359 54.8442 53.6871 54.8935 53.5603 55.1024C53.5533 55.1165 53.5439 55.1306 53.5368 55.1447C53.3185 55.5061 53.6753 55.9568 54.0767 55.8465C54.4592 55.7409 54.5696 55.1635 54.1917 54.9733Z" fill-rule="nonzero" fill="#000000"/>
	<path id="Vector" d="M53.4196 52.9851C53.4196 53.0133 53.4195 53.0415 53.4172 53.0697C53.4101 53.3091 53.6426 53.4429 53.8538 53.403C53.9172 53.3912 53.9664 53.3866 54.004 53.3302C54.004 53.3279 54.004 53.3232 54.004 53.3208C54.6894 52.8373 53.4431 52.1988 53.4196 52.9851Z" fill-rule="nonzero" fill="#000000"/>
	<path id="Vector" d="M54.2715 47.9596C54.1658 47.8986 54.0297 47.915 53.9452 48.0018C53.8114 48.1333 53.9147 48.2295 53.9077 48.3727C53.903 48.4455 53.9827 48.5065 54.0532 48.4854C54.1752 48.4455 54.2927 48.4572 54.3677 48.3305C54.4429 48.2037 54.3983 48.0347 54.2715 47.962L54.2715 47.9596Z" fill-rule="nonzero" fill="#000000"/>
	<path id="Vector" d="M41.4108 37.5425C41.1103 37.1458 40.838 36.4205 40.4131 36.0754C40.4131 36.0684 40.4108 36.0613 40.4084 36.0543C40.3193 35.7022 39.7958 35.6224 39.6221 35.951C38.9766 37.1716 38.3077 38.3758 37.9556 39.7161C37.9181 39.8592 38.1035 39.979 38.2114 39.8639C38.8992 39.1222 39.4109 38.2725 39.8687 37.3852C40.1174 38.7724 40.0259 40.2982 40.0729 41.6596C40.1362 43.5398 40.2183 45.4176 40.3451 47.2931C40.6338 51.5628 40.7394 55.8559 41.1713 60.1139C41.1807 60.1961 41.2935 60.1984 41.3005 60.1139C41.5892 55.8536 41.2418 51.551 41.0376 47.2931C40.8967 44.3378 41.1455 41.1033 40.77 38.0894C41.2042 38.6785 41.676 39.1715 42.2699 39.6339C42.3521 39.6973 42.4647 39.6409 42.4435 39.533C42.291 38.7349 41.892 38.1809 41.4108 37.5401L41.4108 37.5425Z" fill-rule="nonzero" fill="#000000"/>
	<path id="Vector" d="M30.3387 50.3774C29.6392 50.4173 28.4632 51.091 28.1417 50.0723C27.7637 48.8681 28.8153 46.5208 30.2542 46.8001C30.3035 46.8095 30.3551 46.7602 30.3246 46.7109C30.0148 46.2415 29.3669 46.3964 28.9679 46.6382C28.313 47.0349 27.8905 47.7649 27.6041 48.4526C26.9445 50.0324 27.5361 51.7107 29.4562 51.5675C29.9866 51.5276 30.6813 51.4008 30.9419 50.8844C31.1461 50.483 30.6368 50.361 30.3387 50.3774Z" fill-rule="nonzero" fill="#000000"/>
	<path id="Vector" d="M35.9345 48.0536C35.512 46.3447 33.4346 45.6899 32.2775 47.1029C31.4841 48.0723 31.4136 49.9549 32.2963 50.767C32.3526 50.9243 32.4395 51.0722 32.5732 51.2083C32.9747 51.6097 33.6061 51.605 34.1178 51.4689C35.6083 51.0745 36.2796 49.4596 35.9323 48.0512L35.9345 48.0536ZM33.5356 50.7013C33.1531 50.3562 32.7282 49.9619 32.5826 49.4854C32.3995 48.8892 32.6296 48.1076 33.0122 47.6334C33.8995 46.5466 35.0355 47.7038 35.1318 48.7272C35.2256 49.7342 34.329 50.6285 33.5356 50.7013Z" fill-rule="nonzero" fill="#000000"/>
	<path id="Vector" d="M38.2255 52.7106C38.0541 52.6237 37.8123 52.4641 37.6152 52.4641C37.4697 52.4641 37.31 52.4758 37.1527 52.4688C37.5471 51.9994 37.9719 51.5111 37.9883 50.8867C37.9977 50.4994 37.6364 50.1685 37.2561 50.1685C37.0613 50.1685 36.3383 50.4807 36.6059 50.7811C36.7444 50.9384 37.0589 50.8351 37.242 50.8867C37.2936 50.9008 37.1504 51.1731 37.1034 51.2576C36.8546 51.7012 36.5119 52.0745 36.2326 52.4993C36.134 52.6495 36.1904 52.9031 36.3594 52.9805C36.6739 53.1261 36.979 53.2106 37.3287 53.2153C37.6973 53.2199 37.9133 53.0791 38.2255 52.9054C38.2983 52.8655 38.3006 52.7481 38.2255 52.7106Z" fill-rule="nonzero" fill="#000000"/>
	<path id="Vector" d="M95.7126 173.053L233.202 173.053" stroke="#000000"/>
</svg>
