<svg width="202.887512" height="162.846680" viewBox="0 0 202.888 162.847" fill="none" xmlns="http://www.w3.org/2000/svg" xmlns:xlink="http://www.w3.org/1999/xlink">
	<desc>
			Created with Pixso.
	</desc>
	<defs/>
	<path id="Vector" d="M47.8447 64.1175C47.8447 64.1175 21.3157 58.9817 13.1612 93.9515C5.00439 128.921 5.00439 161.351 5.00439 161.351L98.546 162.671C98.546 162.671 99.3393 78.9406 84.1266 70.5186C68.9162 62.0965 47.8447 64.1175 47.8447 64.1175Z" fill-rule="nonzero" fill="#E6E7E8"/>
	<path id="Vector" d="M37.2231 91.5198C37.2231 91.5198 42.3096 116.802 43.4363 125.63C44.563 134.459 32.6529 137.578 32.6529 137.578C32.6529 137.578 28.5217 130.283 28.6015 129.536C28.6813 128.788 31.66 91.5221 31.66 91.5221L37.2231 91.5221L37.2231 91.5198Z" fill-rule="nonzero" fill="#000000"/>
	<path id="Vector" d="M0.448242 136.372C0.448242 136.372 7.1286 117.056 39.7441 120.861C39.7441 120.861 32.0004 140.088 0.448242 136.372Z" fill-rule="nonzero" fill="#000000"/>
	<path id="Vector" d="M76.9555 103.188C76.9555 103.188 78.4343 107.632 81.4083 106.38C84.3823 105.127 87.3422 102.747 87.3422 102.747C87.3422 102.747 90.9477 100.336 92.7339 104.176C92.7339 104.176 94.0883 106.941 88.8914 110.951C88.8914 110.951 91.349 114.41 86.6991 116.938C86.6991 116.938 86.5723 121.553 81.291 122.265C81.291 122.265 82.8542 124.285 80.3309 125.027C77.8076 125.769 73.6905 125.447 70.9066 125.095C70.9066 125.095 68.8151 124.046 67.8316 125.555C66.8481 127.065 62.9422 157.593 40.6031 160.408C32.3524 161.445 17.8016 162.255 11.6565 152.023C11.6565 152.023 5.30237 142.174 4.93384 120.349C4.93384 120.349 3.12177 93.3131 9.49698 85.1868C9.49698 85.1868 16.0341 72.6805 25.0994 73.1382C25.0994 73.1382 27.5053 76.8634 28.0452 80.8209C28.5851 84.7808 30.0873 93.4023 30.0873 93.4023C30.0873 93.4023 31.8173 126.63 32.8008 127.654C33.7843 128.677 35.0495 131.442 38.4178 128.982C41.7862 126.522 59.1115 113.796 59.1115 113.796C59.1115 113.796 61.954 110.258 62.5807 108.531C63.2075 106.803 68.787 99.8574 76.9579 103.188L76.9555 103.188Z" fill-rule="nonzero" fill="#FFFFFF"/>
	<path id="Vector" d="M62.4988 108.648C62.4988 108.648 66.0596 103.798 66.9797 102.956C67.8999 102.113 70.7354 96.7237 81.3662 99.5169C91.9971 102.313 73.8174 106.397 73.8174 106.397L62.4988 108.646L62.4988 108.648Z" fill-rule="nonzero" fill="#FFFFFF"/>
	<path id="Vector" d="M84.4342 100.31C84.4342 100.31 71.2871 93.7896 64.2593 106.078L58.884 113.925L37.059 129.299C37.059 129.299 33.0804 130.804 32.6508 126.182C32.2213 121.56 28.9961 78.0183 26.846 75.4386C24.6959 72.8589 22.7617 73.157 22.7617 73.157" stroke="#000000"/>
	<path id="Vector" d="M94.5414 18.9558C94.5414 18.9558 95.9662 39.5649 92.7012 48.1536C92.7012 48.1536 88.9948 65.2114 74.9933 69.0679L65.5173 70.2838C65.5173 70.2838 67.8575 81.187 62.9306 84.3793C58.8252 87.0387 51.9523 90.1794 44.5138 84.1281C41.805 81.9263 39.8051 78.9735 38.6151 75.692C37.5095 72.6428 36.1481 68.4787 36.1833 66.5235L39.73 65.547L45.4762 51.1558C45.6217 50.7849 45.6804 50.3789 45.6029 49.9892C45.5067 49.4963 45.2015 49.001 44.3119 49.2709C43.8519 49.4118 39.4272 48.2827 39.777 42.1258C40.1267 35.9666 42.5632 28.4623 50.6543 35.7647C50.6543 35.7647 51.7481 37.9054 51.335 41.4287C51.335 41.4287 50.8867 43.8793 52.3701 43.2103C53.8536 42.5413 55.4826 41.7855 56.5718 32.502C56.5718 32.502 91.2834 38.0932 94.5414 18.9558Z" fill-rule="nonzero" fill="#FFFFFF"/>
	<path id="Vector" d="M94.1754 14.0876C94.1754 14.0876 100.91 37.0042 56.5719 32.5021C56.5719 32.5021 55.7339 42.9897 52.6754 43.2104C49.6169 43.431 52.5205 40.6119 51.3938 37.1309C50.2694 33.6499 41.5892 27.8451 39.9179 39.6636C39.04 45.8745 41.3615 48.6866 43.8308 49.2734C44.5773 49.4494 45.9951 48.358 45.5584 51.3461L39.7278 65.8992" stroke="#000000"/>
	<path id="Vector" d="M94.5415 18.9558C94.5415 18.9558 101.065 68.3614 68.1557 70.0867C64.2522 70.2909 60.4496 68.6055 58.0577 66.4812C55.248 63.9861 53.4124 58.5709 52.3726 50.7568" stroke="#000000"/>
	<path id="Vector" d="M63.9611 69.615L62.1255 75.0231" stroke="#000000"/>
	<path id="Vector" d="M86.6829 43.2786C86.6829 44.072 86.0397 44.7151 85.2463 44.7151C84.453 44.7151 83.8098 44.072 83.8098 43.2786C83.8098 42.4852 84.453 41.842 85.2463 41.842C86.0397 41.842 86.6829 42.4852 86.6829 43.2786Z" fill-rule="evenodd" fill="#231F20"/>
	<path id="Vector" d="M70.2801 41.842C70.2801 42.6354 69.6369 43.2786 68.8435 43.2786C68.0501 43.2786 67.407 42.6354 67.407 41.842C67.407 41.0486 68.0501 40.4055 68.8435 40.4055C69.6369 40.4055 70.2801 41.0486 70.2801 41.842Z" fill-rule="evenodd" fill="#231F20"/>
	<path id="Vector" d="M89.5302 40.18C89.5302 40.18 89.5513 35.9291 84.3708 37.037" stroke="#231F20"/>
	<path id="Vector" d="M71.862 35.8611C71.862 35.8611 69.503 32.3238 65.8271 36.1381" stroke="#231F20"/>
	<path id="Vector" d="M80.1997 42.7737L79.688 55.773L74.9934 54.3646" stroke="#000000"/>
	<path id="Vector" d="M93.9287 37.3282C91.4618 38.6239 88.1051 28.6033 88.1051 28.6033C81.3825 35.0302 56.5717 32.5021 56.5717 32.5021C56.5717 32.5021 55.1869 39.429 54.4123 41.7458C53.6377 44.0625 51.3091 42.7738 51.3091 42.7738C51.3091 42.7738 51.4218 39.5322 51.3936 37.131C51.3655 34.732 47.2108 33.3425 47.2108 33.3425C40.0187 29.7277 39.7746 40.9805 39.9812 44.8864C40.1854 48.7946 45.1851 49.2711 45.1851 49.2711C45.6287 50.3814 45.6193 51.6208 45.1593 52.724L40.4225 64.1693C40.4225 64.1693 28.0358 63.9815 24.306 58.51C21.0081 53.6746 23.5901 48.4214 27.6039 46.6281C31.6178 44.8347 34.7702 32.7134 37.6362 18.9513C40.5023 5.18915 55.1822 1.79266 65.5196 0.257538C71.3174 -0.601562 77.9485 0.841965 82.7792 2.33015C88.239 4.01315 93.0908 7.32281 96.4427 11.9517C98.5552 14.8693 100.187 18.3293 99.5622 21.6155C98.0647 29.5047 102.973 58.4678 98.2712 67.7724C96.1094 72.0538 76.6786 68.3146 76.6786 68.3146C76.6786 68.3146 90.4665 63.9229 93.9123 42.6189L93.9311 37.3258L93.9287 37.3282Z" fill-rule="nonzero" fill="#000000"/>
	<path id="Vector" d="M65.2803 58.5125C65.2803 58.5125 69.1627 65.7843 75.2844 60.7142" stroke="#000000"/>
	<path id="Vector" d="M0.464844 135.757C0.464844 135.757 7.12878 118.941 39.7419 120.861L38.1833 97.604C38.1833 94.292 35.3971 79.3492 27.5478 76.6052" stroke="#000000"/>
	<path id="Vector" d="M114.939 108.441L104.754 120.093L78.1667 96.7001L80.6948 93.6158L73.6013 88.0457L73.329 87.8321L70.3503 91.2005L65.0642 87.2993L78.1667 73.6123L82.9928 77.7482L80.1197 80.8232L80.3121 80.9968L86.678 86.7618L89.8304 83.6657L114.939 108.441Z" fill-rule="nonzero" fill="#F480FF"/>
	<path id="Vector" d="M119.507 113.173L120.991 115.382L119.162 117.504L121.258 120.323L117.294 124.574L114.019 122.736L112.066 125.149C112.066 125.149 109.538 124.058 109.538 123.884C109.538 123.71 119.507 113.171 119.507 113.171L119.507 113.173Z" fill-rule="nonzero" fill="#F480FF"/>
	<path id="Vector" d="M115.974 106.075L120.993 111.495L108.369 125.771L101.9 121.187L115.974 106.075Z" fill-rule="nonzero" fill="#FFC600"/>
	<path id="Vector" d="M122.756 142.618C94.4288 155.718 84.603 128.196 80.6948 121.07C79.108 118.176 79.3404 114.204 80.1784 110.512C81.0657 106.606 82.6243 103.007 83.4176 101.32C83.7204 100.677 83.9129 100.308 83.9129 100.308L96.7831 108.195C96.7831 108.195 95.8277 109.488 95.093 111.591C93.8443 115.166 92.9265 121.413 99.0811 126.929C112.986 139.397 116.32 134.881 116.32 134.881L122.756 142.616L122.756 142.618Z" fill-rule="nonzero" fill="#F480FF"/>
	<path id="Vector" d="M95.0932 111.594L80.1763 110.514C81.0635 106.608 82.6221 103.01 83.4155 101.322L95.0909 111.596L95.0932 111.594Z" fill-rule="nonzero" fill="#43305E"/>
	<path id="Vector" d="M102.375 151.641L123.366 151.641L114.479 138.233L109.705 138.233L102.375 151.641Z" fill-rule="nonzero" fill="#FFC600"/>
	<path id="Vector" d="M73.0521 149.892L151.942 150.549L151.942 162.098L144.339 162.098L144.358 156.063L81.2699 156.119L81.2793 162.098L72.937 162.098L73.0521 149.892Z" fill-rule="nonzero" fill="#FFC600"/>
	<path id="Vector" d="M80.1197 80.8232L80.3121 80.9969L73.6013 88.0458L73.329 87.8322L70.3503 91.2005L65.0642 87.2993L78.1151 73.1875L82.9928 77.7483L80.1197 80.8232Z" fill-rule="nonzero" fill="#FFC600"/>
	<path id="Vector" d="M114.176 144.418C114.176 145.35 113.421 146.106 112.489 146.106C111.557 146.106 110.801 145.35 110.801 144.418C110.801 143.486 111.557 142.73 112.489 142.73C113.421 142.73 114.176 143.486 114.176 144.418Z" fill-rule="evenodd" fill="#F480FF"/>
	<path id="Vector" d="M77.2679 103.39C77.2679 103.39 77.8759 107.462 80.7959 106.465C83.7182 105.467 87.2298 103.317 87.5889 102.674C87.948 102.031 91.814 100.979 92.8914 104.728C92.8914 104.728 93.1073 108.406 89.1663 110.915C89.1663 110.915 91.0347 114.46 86.6969 117.061C86.6969 117.061 87.1852 120.675 81.3662 122.497C81.3662 122.497 82.5939 124.321 79.8593 125.037C77.1247 125.752 68.3881 125.037 68.3881 125.037C68.3881 125.037 62.933 115.861 67.306 109.554C71.679 103.247 77.2679 103.39 77.2679 103.39Z" fill-rule="nonzero" fill="#FFFFFF"/>
	<path id="Vector" d="M80.9719 122.328C82.3357 122.802 82.0094 123.553 81.5305 124.074C81.1808 124.457 80.7324 124.734 80.2442 124.908C78.864 125.401 75.0685 126.375 69.388 124.917C68.597 124.713 67.7989 125.213 67.6557 126.018C66.2685 133.764 58.1211 168.055 23.4822 160.542C3.12424 156.127 4.97391 120.767 4.97391 103.921C4.97391 87.0742 14.0133 75.4504 23.1865 73.1853" stroke="#231F20"/>
	<path id="Vector" d="M86.6944 117.056C86.6944 117.056 86.7906 121.387 80.6995 122.375C79.0141 122.65 77.2888 122.518 75.6387 122.074C74.1482 121.675 72.2352 121.072 71.2869 120.405" stroke="#231F20"/>
	<path id="Vector" d="M89.1098 110.8C89.1098 110.8 91.2646 114.927 86.6944 117.056C82.1219 119.182 76.8476 120.41 70.0991 115.676" stroke="#231F20"/>
	<path id="Vector" d="M77.3407 103.423C78.0707 108.331 83.392 106.662 86.7603 103.108C89.4973 100.219 94.3467 103.087 92.5769 107.082C90.8071 111.077 80.3969 117.316 73.7822 111.305" stroke="#231F20"/>
	<path id="Vector" d="M35.6458 65.174C35.6458 65.174 6.84464 69.3686 3.44342 86.8817C0.039856 104.395 0.464722 135.754 0.464722 135.754C0.464722 135.754 9.11447 118.007 39.7418 120.859L35.6458 65.1716L35.6458 65.174Z" fill-rule="nonzero" fill="#E6E7E8"/>
	<path id="Vector" d="M77.8804 105.197C77.8804 105.197 81.4037 104.324 82.9904 103.327" stroke="#000000"/>
	<path id="Vector" d="M5.00439 162.347L182.792 162.347" stroke="#000000"/>
	<path id="Vector" d="M160.892 25.3993C137.976 25.3993 119.397 43.9781 119.397 66.8946C119.397 82.5768 128.098 96.2215 140.933 103.277L127.411 151.34L153.658 107.747C156.008 108.16 158.423 108.388 160.892 108.388C183.809 108.388 202.388 89.8087 202.388 66.8922C202.388 43.9757 183.809 25.397 160.892 25.397L160.892 25.3993Z" fill-rule="nonzero" fill="#FFFFFF"/>
	<path id="Vector" d="M119.397 66.8946C119.397 82.5768 128.098 96.2215 140.933 103.277L127.411 151.34L153.658 107.747C156.008 108.16 158.423 108.388 160.892 108.388C183.809 108.388 202.388 89.8088 202.388 66.8922C202.388 43.9757 183.809 25.397 160.892 25.397L160.892 25.3993C137.976 25.3993 119.397 43.9781 119.397 66.8946Z" stroke="#000000"/>
	<path id="Vector" d="M159.712 49.2921C159.712 49.2921 164.237 41.7315 161.179 38.7246C161.179 38.7246 158.942 34.9408 155.16 36.0088C155.16 36.0088 150.463 36.6684 150.609 40.9264C150.757 45.182 152.731 52.8882 150.606 55.8246C150.606 55.8246 149.435 57.1766 148.262 55.2378C147.088 53.2989 146.867 49.6606 144.518 50.2475C142.168 50.8343 140.943 51.0291 141.656 52.9633C142.37 54.8974 147.128 57.0757 147.292 58.1766C147.456 59.2751 148.33 60.9182 145.327 60.9651C142.323 61.0097 137.769 58.3221 135.64 60.9651C133.511 63.6082 135.053 65.939 139.457 65.763C143.86 65.5869 148.745 64.5095 148.468 69.0116C148.468 69.0116 148.926 71.7533 143.64 71.826C138.356 71.8988 132.924 70.359 131.237 76.9642C131.237 76.9642 129.267 84.337 134.84 83.5132C140.412 82.6892 149.731 77.8139 151.273 76.8187C152.923 75.753 155.292 78.0932 153.731 79.9171C152.17 81.7433 139.785 91.785 153.254 93.1839C153.254 93.1839 156.484 94.212 158.392 85.7712C158.392 85.7712 159.604 77.1708 166.906 83.0554C166.906 83.0554 172.331 88.7593 174.685 87.9002C177.039 87.0411 177.558 86.1398 176.739 84.8182C175.92 83.4967 168.763 78.8538 168.446 77.4783C167.894 75.0911 170.758 74.9033 173.509 74.9104C176.26 74.9174 187.431 77.22 188.679 75.6802C189.928 74.1381 189.876 72.1218 187.088 70.8003C184.299 69.4788 176.593 70.9482 172.849 70.2135C172.849 70.2135 169.763 68.1361 171.629 66.1362C173.495 64.1363 186.656 60.8759 188.219 60.1577C192.113 58.3714 189.06 54.8857 188.219 53.3013C187.379 51.7169 182.243 47.2406 176.518 54.4326C170.793 61.6247 167.307 58.3714 168.298 54.9467C168.603 53.8881 173.511 43.6352 171.692 42.323C169.873 41.0109 167.345 40.4147 165.437 47.0927C163.528 53.7708 164.408 58.3949 161.988 56.8527C159.566 55.3105 158.268 52.2661 159.714 49.2944L159.712 49.2921Z" fill-rule="nonzero" fill="#F480FF"/>
	<path id="Vector" d="M165.969 66.3853C165.969 69.5225 163.426 72.0657 160.289 72.0657C157.152 72.0657 154.608 69.5225 154.608 66.3853C154.608 63.248 157.152 60.7048 160.289 60.7048C163.426 60.7048 165.969 63.248 165.969 66.3853Z" fill-rule="evenodd" fill="#FFC600"/>
	<path id="Vector" d="M160.444 62.3008C160.444 62.3008 159.801 63.0027 161.132 63.6599C162.46 64.3172 163.47 67.0353 163.777 65.458C164.085 63.8806 163.207 61.5121 160.446 62.3008L160.444 62.3008Z" fill-rule="nonzero" fill="#FFFFFF"/>
	<path id="Vector" d="M152.796 59.7751C152.796 60.4984 152.21 61.0849 151.487 61.0849C150.763 61.0849 150.177 60.4984 150.177 59.7751C150.177 59.0517 150.763 58.4653 151.487 58.4653C152.21 58.4653 152.796 59.0517 152.796 59.7751Z" fill-rule="evenodd" fill="#FFC600"/>
	<path id="Vector" d="M152.336 70.5587C152.336 70.9917 151.985 71.3426 151.552 71.3426C151.119 71.3426 150.768 70.9917 150.768 70.5587C150.768 70.1257 151.119 69.7747 151.552 69.7747C151.985 69.7747 152.336 70.1257 152.336 70.5587Z" fill-rule="evenodd" fill="#FFC600"/>
	<path id="Vector" d="M164.744 75.5113C164.744 76.3203 164.088 76.976 163.279 76.976C162.47 76.976 161.815 76.3203 161.815 75.5113C161.815 74.7024 162.47 74.0466 163.279 74.0466C164.088 74.0466 164.744 74.7024 164.744 75.5113Z" fill-rule="evenodd" fill="#FFC600"/>
	<path id="Vector" d="M166.498 59.28C166.498 59.7947 166.08 60.2119 165.566 60.2119C165.051 60.2119 164.634 59.7947 164.634 59.28C164.634 58.7654 165.051 58.3481 165.566 58.3481C166.08 58.3481 166.498 58.7654 166.498 59.28Z" fill-rule="evenodd" fill="#FFC600"/>
	<path id="Vector" d="" fill-rule="nonzero" fill="#FFFFFF"/>
	<path id="Vector" d="M86.678 86.7361L80.6948 93.5901" stroke="#000000"/>
	<path id="Vector" d="M70.0992 51.5621C66.0376 51.5621 62.7451 48.2696 62.7451 44.2081C62.7451 40.1465 66.0376 36.854 70.0992 36.854C74.1607 36.854 77.4532 40.1465 77.4532 44.2081C77.4532 48.2696 74.1607 51.5621 70.0992 51.5621Z" stroke="#000000"/>
	<path id="Vector" d="M88.0489 52.0714C83.9873 52.0714 80.6948 48.7789 80.6948 44.7173C80.6948 40.6558 83.9873 37.3633 88.0489 37.3633C92.1104 37.3633 95.4029 40.6558 95.4029 44.7173C95.4029 48.7789 92.1104 52.0714 88.0489 52.0714Z" stroke="#000000"/>
	<path id="Vector" d="M80.6948 44.208C80.6948 44.208 80.3639 45.722 77.4556 44.208" stroke="#000000"/>
	<path id="Vector" d="" fill-rule="nonzero" fill="#FFFFFF"/>
	<path id="Vector" d="M114.177 107.866L103.698 119.164" stroke="#000000"/>
	<path id="Vector" d="" fill-rule="nonzero" fill="#FFFFFF"/>
	<path id="Vector" d="M119.507 113.174L109.538 124.448" stroke="#000000"/>
	<path id="Vector" d="" fill-rule="nonzero" fill="#FFFFFF"/>
	<path id="Vector" d="M114.381 122.981L119.247 117.467" stroke="#000000"/>
	<path id="Vector" d="" fill-rule="nonzero" fill="#FFFFFF"/>
	<path id="Vector" d="M80.1197 80.8232L73.6013 88.0458" stroke="#000000"/>
</svg>
