<svg width="136.092010" height="173.619141" viewBox="0 0 136.092 173.619" fill="none" xmlns="http://www.w3.org/2000/svg" xmlns:xlink="http://www.w3.org/1999/xlink">
	<desc>
			Created with Pixso.
	</desc>
	<defs/>
	<path id="Vector" d="M70.0982 29.2564L61.2583 41.1712C61.2583 41.1712 58.2937 55.7033 60.5259 68.6063C60.5259 68.6063 63.6971 84.4575 76.2363 81.852L76.2363 100.743C76.2363 100.743 78.1305 111.327 94.5498 103.745C94.5498 103.745 97.2327 96.0249 97.9604 84.1031L97.106 65.407C97.106 65.407 107.669 65.5338 107.359 58.4731C107.049 51.4125 102.704 47.1357 101.852 47.3587C101 47.5817 86.8554 27.6603 70.0958 29.2588L70.0982 29.2564Z" fill-rule="nonzero" fill="#FFFFFF"/>
	<path id="Vector" d="M76.234 87.1476C76.234 87.1476 73.0347 103.363 85.8955 102.839C98.4558 102.328 98.0121 84.4553 98.0121 84.4553C98.0121 84.4553 125.426 92.4126 127.029 116.885C128.316 136.532 129.069 173.093 129.069 173.093L48.2966 173.225L51.0336 114.062C51.2824 108.797 52.7636 103.661 55.4981 99.3113C59.0026 93.7341 61.6222 88.3072 76.234 87.1429L76.234 87.1476Z" fill-rule="nonzero" fill="#E6E7E8"/>
	<path id="Vector" d="M98.0354 85.4106L97.1904 70.5734C96.282 65.6465 96.6811 65.3085 97.1083 65.4047C98.5331 65.731 101.188 65.6371 103.932 63.9682C111.011 59.6562 106.07 52.2435 101.009 53.8092C98.2209 54.6706 99.141 57.4709 96.7702 59.2642C94.5262 60.9613 96.7702 48.1029 96.7702 48.1029C97.8594 36.0285 87.6322 31.4208 81.5716 29.7589C78.6304 28.9514 75.518 29.1181 72.6895 30.2612C67.9785 32.1672 61.1972 36.5003 60.1503 45.8096C58.7841 57.9568 58.5799 74.8197 67.5489 80.1668C77.546 86.1289 87.7567 76.0003 90.8833 73.5592" stroke="#000000"/>
	<path id="Vector" d="M76.2339 81.8521L76.2339 87.9926" stroke="#231F20"/>
	<path id="Vector" d="M96.7374 68.2425C96.7562 68.3364 96.7702 68.4326 96.7796 68.5289C97.2772 73.7938 100.58 71.9841 100.58 71.9841C116.537 64.3906 114.715 37.026 114.715 37.026C110.877 9.79047 84.8883 22.3414 84.8883 22.3414C65.4505 7.72016 59.5987 24.2755 59.5987 24.2755C52.9347 26.3271 50.7541 32.8619 56.965 39.1409C63.1759 45.4199 70.5018 35.3313 70.5018 35.3313C70.5018 35.3313 76.0156 43.1454 89.7002 39.9132C90.7823 39.6573 91.9231 39.7136 92.9582 40.1267C94.5027 40.7417 96.3195 42.0093 95.9017 44.5232C95.1976 48.76 94.2587 58.7102 96.0966 59.4777C97.9345 60.2453 98.1974 57.1211 99.5987 55.039C100.988 52.9711 104.277 52.9781 106.439 55.7057C108.913 58.8252 106.026 62.9822 102.601 64.6606C102.601 64.6606 101.089 65.7755 96.9322 65.4C96.5215 65.3624 96.6083 67.6181 96.7397 68.2378L96.7374 68.2425Z" fill-rule="nonzero" fill="#000000"/>
	<path id="Vector" d="M69.023 87.9927C69.023 87.9927 47.9867 91.3798 40.0176 103.426C33.2481 113.66 42.764 127.615 42.764 127.615L73.7364 128.793L70.6004 99.1446L69.0254 87.995L69.023 87.9927Z" fill-rule="nonzero" fill="#E6E7E8"/>
	<path id="Vector" d="M104.329 57.4215C104.329 57.4215 100.916 57.3253 99.3782 61.8908" stroke="#000000"/>
	<path id="Vector" d="M65.8025 50.2036C65.8025 50.9399 65.2056 51.5369 64.4692 51.5369C63.7329 51.5369 63.136 50.9399 63.136 50.2036C63.136 49.4673 63.7329 48.8704 64.4692 48.8704C65.2056 48.8704 65.8025 49.4673 65.8025 50.2036Z" fill-rule="evenodd" fill="#231F20"/>
	<path id="Vector" d="M82.6819 51.5369C82.6819 52.2733 82.085 52.8701 81.3486 52.8701C80.6123 52.8701 80.0154 52.2733 80.0154 51.5369C80.0154 50.8006 80.6123 50.2036 81.3486 50.2036C82.085 50.2036 82.6819 50.8006 82.6819 51.5369Z" fill-rule="evenodd" fill="#231F20"/>
	<path id="Vector" d="M78.4426 47.3635C78.4426 47.3635 81.2007 45.8847 84.2522 47.8776" stroke="#231F20"/>
	<path id="Vector" d="M62.5469 45.3519C62.5469 45.3519 65.1641 42.4014 68.0583 46.3754" stroke="#231F20"/>
	<path id="Vector" d="M70.7507 50.2036L67.7415 61.8907L72.2882 61.8907" stroke="#000000"/>
	<path id="Vector" d="M72.3538 72.7282C72.3538 72.7282 78.9309 76.6293 81.3486 69.6626" stroke="#000000"/>
	<path id="Vector" d="M94.3362 109.954L78.7268 135.701L88.0924 135.701L87.8507 172.657C87.8507 172.657 95.9347 173.417 100.474 172.882L100.127 143.839L92.6931 143.919C92.6931 143.919 93.787 113.587 94.3339 109.951L94.3362 109.954Z" fill-rule="nonzero" fill="#000000"/>
	<path id="Vector" d="M0.963593 56.9896C0.963593 56.9896 0.496498 50.2529 18.1152 45.387C35.7316 40.5211 49.3129 42.7275 47.8788 47.692C46.4446 52.6565 49.1768 106.724 49.1768 106.724L69.0935 149.024C59.6269 162.296 50.4866 163.634 50.4866 163.634L0.963593 56.9896Z" fill-rule="nonzero" fill="#FFFFFF"/>
	<path id="Vector" d="M18.1152 45.387C35.7316 40.5211 49.313 42.7275 47.8788 47.692C46.4446 52.6565 49.1768 106.724 49.1768 106.724L69.0935 149.024C59.6269 162.296 50.4866 163.634 50.4866 163.634L0.963593 56.9896C0.963593 56.9896 0.496498 50.2529 18.1152 45.387Z" stroke="#231F20"/>
	<path id="Vector" d="M20.4907 103.968C22.4436 112.172 20.7395 162.728 20.7395 162.728C20.7395 162.728 34.6964 173.819 50.9349 166.483L32.9595 52.1238C32.9595 52.1238 11.6602 61.1819 0.963631 56.9897C0.963631 56.9897 18.5401 95.7621 20.4907 103.968Z" fill-rule="nonzero" fill="#FFFFFF"/>
	<path id="Vector" d="M20.7395 162.728C20.7395 162.728 34.6964 173.819 50.9349 166.483L32.9595 52.1238C32.9595 52.1238 11.6602 61.1819 0.963631 56.9897C0.963631 56.9897 18.5401 95.7621 20.4907 103.968C22.4436 112.172 20.7395 162.728 20.7395 162.728Z" stroke="#231F20"/>
	<path id="Vector" d="M47.7497 48.3423C47.7497 48.3423 44.2006 51.5041 33.4829 55.4546" stroke="#231F20"/>
	<path id="Vector" d="M19.8967 104.144C19.8967 104.144 34.5461 105.266 48.7683 98.1094L50.5922 109.728C50.5922 109.728 36.7361 117.32 20.3028 115.301L19.8967 104.144Z" fill-rule="nonzero" fill="#F480FF"/>
	<path id="Vector" d="M10.5099 57.8113C10.5099 57.8113 6.62753 53.3608 14.6834 49.3376C25.6616 43.8566 36.1282 44.8566 36.1282 44.8566C36.1282 44.8566 33.1776 47.9949 35.2057 54.802" stroke="#231F20"/>
	<path id="Vector" d="M28.1393 119.377L19.2345 120.524C18.5158 120.617 18.0082 121.275 18.1007 121.993L18.5671 125.613C18.6597 126.332 19.3174 126.84 20.0361 126.747L28.9409 125.6C29.6596 125.507 30.1672 124.85 30.0746 124.131L29.6083 120.511C29.5157 119.792 28.858 119.285 28.1393 119.377Z" fill-rule="nonzero" fill="#FFFFFF"/>
	<path id="Vector" d="M28.1393 119.377C28.858 119.285 29.5157 119.792 29.6083 120.511L30.0746 124.131C30.1672 124.85 29.6596 125.507 28.9409 125.6L20.0361 126.747C19.3174 126.84 18.6597 126.332 18.5671 125.613L18.1007 121.993C18.0082 121.275 18.5158 120.617 19.2345 120.524L28.1393 119.377Z" stroke="#231F20"/>
	<path id="Vector" d="M27.67 100.496L15.5805 102.053C14.8617 102.145 14.3541 102.803 14.4467 103.522L14.913 107.142C15.0056 107.861 15.6633 108.368 16.382 108.276L28.4716 106.718C29.1903 106.626 29.6979 105.968 29.6053 105.249L29.139 101.629C29.0464 100.911 28.3887 100.403 27.67 100.496Z" fill-rule="nonzero" fill="#FFFFFF"/>
	<path id="Vector" d="M27.67 100.496C28.3887 100.403 29.0464 100.911 29.139 101.629L29.6053 105.249C29.6979 105.968 29.1903 106.626 28.4716 106.718L16.382 108.276C15.6633 108.368 15.0056 107.861 14.913 107.142L14.4467 103.522C14.3541 102.803 14.8617 102.145 15.5805 102.053L27.67 100.496Z" stroke="#231F20"/>
	<path id="Vector" d="M29.1774 113.026L17.5722 114.521C16.8534 114.614 16.3458 115.272 16.4384 115.99L16.9047 119.61C16.9973 120.329 17.655 120.837 18.3737 120.744L29.979 119.249C30.6978 119.157 31.2054 118.499 31.1128 117.78L30.6465 114.16C30.5539 113.441 29.8962 112.934 29.1774 113.026Z" fill-rule="nonzero" fill="#FFFFFF"/>
	<path id="Vector" d="M29.1774 113.026C29.8962 112.934 30.5539 113.441 30.6465 114.16L31.1128 117.78C31.2054 118.499 30.6978 119.157 29.979 119.249L18.3737 120.744C17.655 120.837 16.9973 120.329 16.9047 119.61L16.4384 115.99C16.3458 115.272 16.8534 114.614 17.5722 114.521L29.1774 113.026Z" stroke="#231F20"/>
	<path id="Vector" d="M30.3353 106.47L16.381 108.267C15.6623 108.36 15.1546 109.018 15.2472 109.736L15.7135 113.357C15.8061 114.075 16.4639 114.583 17.1826 114.49L31.1369 112.693C31.8556 112.6 32.3632 111.942 32.2706 111.224L31.8043 107.604C31.7117 106.885 31.054 106.377 30.3353 106.47Z" fill-rule="nonzero" fill="#FFFFFF"/>
	<path id="Vector" d="M30.3353 106.47C31.054 106.377 31.7117 106.885 31.8043 107.604L32.2706 111.224C32.3632 111.942 31.8556 112.6 31.1369 112.693L17.1826 114.49C16.4639 114.583 15.8061 114.075 15.7135 113.357L15.2472 109.736C15.1546 109.018 15.6623 108.36 16.381 108.267L30.3353 106.47Z" stroke="#231F20"/>
	<path id="Vector" d="M100.129 143.842L130.09 143.842L130.09 172.884L100.129 172.884L100.129 143.842Z" fill-rule="evenodd" fill="#FFFFFF"/>
	<path id="Vector" d="M110.408 93.105C110.408 93.105 96.4251 91.9736 94.4464 108.973C92.47 125.969 93.1742 143.921 93.1742 143.921L130.855 143.921C130.855 143.921 133.782 97.5953 110.408 93.105Z" fill-rule="nonzero" fill="#E6E7E8"/>
	<path id="Vector" d="M100.129 143.842L100.129 172.884" stroke="#000000"/>
	<path id="Vector" d="M130.09 172.884L130.09 143.841L92.6955 143.921C92.6955 143.921 92.6462 119.676 94.3362 109.954" stroke="#000000"/>
	<path id="Vector" d="M131.576 21.4565L100.662 0L50.8035 2.44115L64.7252 14.3043L59.5987 24.2779C60.5306 24.7849 76.8489 34.9651 114.713 37.0284L113.229 24.8131L131.573 21.4565L131.576 21.4565Z" fill-rule="nonzero" fill="#FFC600"/>
	<path id="Vector" d="M64.7275 14.3043L84.8086 29.2565L113.232 24.8131" stroke="#000000"/>
	<path id="Vector" d="M114.779 16.7971C114.779 16.7971 130.463 22.9095 128.459 40.3404C126.454 57.7713 128.374 69.0922 129.067 70.2964" stroke="#000000"/>
	<path id="Vector" d="M125.254 73.8174C125.254 73.8174 122.02 59.6539 127.644 59.1633C127.644 59.1633 131.566 57.269 134.169 70.2941L134.669 72.6977L125.252 73.815L125.254 73.8174Z" fill-rule="nonzero" fill="#F480FF"/>
	<path id="Vector" d="M10.0969 173.119L136.092 173.119" stroke="#000000"/>
</svg>
