<svg width="249.184692" height="158.942993" viewBox="0 0 249.185 158.943" fill="none" xmlns="http://www.w3.org/2000/svg" xmlns:xlink="http://www.w3.org/1999/xlink">
	<desc>
			Created with Pixso.
	</desc>
	<defs/>
	<path id="Vector" d="M86.9175 16.9582C86.9175 22.425 82.4858 26.8566 77.0191 26.8566C71.5523 26.8566 67.1206 22.425 67.1206 16.9582C67.1206 11.4914 71.5523 7.05969 77.0191 7.05969C82.4858 7.05969 86.9175 11.4914 86.9175 16.9582Z" fill-rule="evenodd" fill="#F480FF"/>
	<path id="Vector" d="M164.932 27.4269C164.932 27.4269 155.874 50.9279 164.117 63.0469C164.117 63.0469 169.633 72.0276 181.919 67.0114L181.217 76.201C180.978 79.3464 183.008 82.2242 186.06 83.0269C191.008 84.3297 196.667 84.7639 201.7 82.3345C208.528 79.0413 204.845 70.9901 204.845 70.9901L202.88 41.2618C202.88 41.2618 209.101 42.9988 210.701 36.3301C212.3 29.6591 206.76 22.1878 202.035 30.3681C202.035 30.3681 201.972 12.8503 181.921 14.6717C181.921 14.6717 169.709 13.4136 164.934 27.4269L164.932 27.4269Z" fill-rule="nonzero" fill="#FFFFFF"/>
	<path id="Vector" d="M142.882 42.2453C142.487 43.0857 141.926 43.8321 141.238 44.4354C140.551 45.0386 139.741 45.501 138.854 45.7804L116.404 52.9231L106.83 55.9699L106.757 55.2023L104.431 30.8939L137.011 32.591C138.586 32.6755 140.084 33.3116 141.234 34.3913L141.403 34.5486C143.508 36.5227 144.107 39.6258 142.884 42.2477L142.882 42.2453Z" fill-rule="nonzero" fill="#F480FF"/>
	<path id="Vector" d="M116.404 52.9231L106.83 55.9699L106.757 55.2023C111.022 53.6789 116.557 49.9656 116.824 40.9755C116.824 40.9755 118.573 46.9821 116.404 52.9231Z" fill-rule="nonzero" fill="#231F20"/>
	<path id="Vector" d="M117.089 43.4307C117.089 50.4194 111.424 56.0849 104.435 56.0849C97.4465 56.0849 91.781 50.4194 91.781 43.4307C91.781 36.4419 97.4465 30.7765 104.435 30.7765C111.424 30.7765 117.089 36.4419 117.089 43.4307Z" fill-rule="evenodd" fill="#FFC600"/>
	<path id="Vector" d="M107.736 52.6743C106.818 52.9747 105.834 53.132 104.82 53.132C99.5249 53.132 95.2317 48.8389 95.2317 43.5434C95.2317 38.2479 99.5249 33.9547 104.82 33.9547C105.461 33.9547 106.083 34.0204 106.689 34.1402C102.818 35.3725 100.015 38.992 100.015 43.2711C100.015 47.9258 103.337 51.8081 107.736 52.6743Z" fill-rule="nonzero" fill="#231F20"/>
	<path id="Vector" d="M92.3657 39.715C96.004 29.3447 105.759 30.9596 105.759 30.9596C105.759 30.9596 114.116 31.8587 116.533 39.6282C117.803 43.7077 116.97 48.2122 114.353 51.5876C113.343 52.8903 112.008 54.1414 110.271 54.9629C110.271 54.9629 101.91 59.1434 95.4994 52.5053" stroke="#231F20"/>
	<path id="Vector" d="M91.955 41.4144C91.955 41.4144 90.5349 46.4282 94.2718 51.0899" stroke="#231F20"/>
	<path id="Vector" d="M106.149 36.1566C106.149 36.1566 101.973 38.7269 102.187 42.9027L104.428 43.5459C104.428 43.5459 103.816 41.2103 106.149 36.159L106.149 36.1566Z" fill-rule="nonzero" fill="#FFFFFF"/>
	<path id="Vector" d="M103.043 44.8531L105.079 45.285L105.827 47.7192C105.827 47.7192 103.719 48.6065 103.043 44.8531Z" fill-rule="nonzero" fill="#FFFFFF"/>
	<path id="Vector" d="M106.435 52.787C106.435 52.787 115.036 51.5735 113.376 41.4144" stroke="#000000"/>
	<path id="Vector" d="M125.561 50.0079L127.972 49.1394C127.972 49.1394 130.49 45.5363 134.542 44.5809C134.542 44.5809 137.826 43.5834 138.295 46.4823C138.764 49.3812 137.466 51.0454 136.351 51.5148C135.237 51.9843 133.082 52.1556 131.504 52.7378C129.927 53.3199 128.237 55.578 128.098 57.8407C127.96 60.1035 127.857 63.8709 127.866 64.6573C127.878 65.4436 128.211 74.2224 129.857 79.3372C131.502 84.4543 135.337 92.1604 141.126 93.7002L148.625 123.018L145.954 125.114C145.954 125.114 132.591 124.487 126.725 120.75C120.859 117.011 111.221 110.76 108.963 97.9159C108.963 97.9159 106.708 82.1516 109.994 68.035L113.28 53.9184L125.559 50.0126L125.561 50.0079Z" fill-rule="nonzero" fill="#FFFFFF"/>
	<path id="Vector" d="M113.285 53.9136C113.285 53.9136 101.572 92.3645 113.285 109.009C124.998 125.654 145.377 127.494 158.493 123.018L140.821 93.6391C140.821 93.6391 125.652 88.8929 128.143 57.2891C128.197 56.6107 128.399 55.9511 128.73 55.3573C129.774 53.4841 131.64 52.0851 135.34 51.8128C138.896 51.5499 139.724 44.0668 135.75 44.379C131.776 44.6888 127.387 48.7778 127.321 50.7073" stroke="#000000"/>
	<path id="Vector" d="M129.57 29.9457C129.57 29.9457 134.265 27.5421 135.016 33.0793C136.147 41.4145 131.058 38.2692 131.058 38.2692C131.058 38.2692 130.248 37.6847 130.859 36.2294C131.471 34.7764 130.741 30.9715 129.57 29.9457Z" fill-rule="nonzero" fill="#FFFFFF"/>
	<path id="Vector" d="M135.016 33.0793C136.147 41.4145 131.058 38.2692 131.058 38.2692C131.058 38.2692 130.248 37.6847 130.859 36.2294C131.471 34.7764 130.741 30.9715 129.57 29.9457C129.57 29.9457 134.265 27.5421 135.016 33.0793Z" stroke="#000000"/>
	<path id="Vector" d="M116.932 28.4904C119.843 28.4904 121.758 31.4761 122.892 33.1473C124.981 36.2293 124.296 40.6704 121.556 40.9567C118.923 41.2314 119.554 37.9875 119.261 36.4007C118.543 32.4972 113.731 31.2296 113.731 31.2296C113.731 31.2296 113.472 28.4904 116.932 28.4904Z" fill-rule="nonzero" fill="#FFFFFF"/>
	<path id="Vector" d="M122.892 33.1473C124.981 36.2293 124.296 40.6704 121.556 40.9567C118.923 41.2314 119.554 37.9875 119.261 36.4007C118.543 32.4972 113.731 31.2296 113.731 31.2296C113.731 31.2296 113.472 28.4904 116.932 28.4904C119.843 28.4904 121.758 31.4761 122.892 33.1473Z" stroke="#000000"/>
	<path id="Vector" d="M238.874 126.4C238.874 126.4 231.24 118.532 245.831 130.862C245.831 130.862 248.775 108.119 243.636 91.2542C238.496 74.3866 205.622 70.9948 205.622 70.9948C190.553 94.0099 180.825 72.9125 180.825 72.9125L141.645 91.1321C141.645 91.1321 130.547 120.314 151.097 126.684L163.291 123.02L162.195 158.445L239.179 158.445L238.876 126.402L238.874 126.4Z" fill-rule="nonzero" fill="#E6E7E8"/>
	<path id="Vector" d="M204.913 72.0464L202.88 41.2665C202.88 41.2665 208.552 42.98 210.702 36.3349C212.209 31.6779 208.749 24.6829 203.653 28.1499C200.228 30.4784 203.019 34.9664 201.237 36.1987C199.456 37.431 195.278 30.3939 197.745 24.9129C197.745 24.9129 181.372 33.3209 175.894 18.526C175.894 18.526 174.934 27.157 164.934 27.4316C164.934 27.4316 150.945 74.5533 179.063 67.8729C182.062 67.1593 184.914 65.92 187.541 64.3051C190.095 62.7347 193.63 60.3405 196.24 57.7092" stroke="#000000"/>
	<path id="Vector" d="M168.521 37.2223C168.521 38.1103 167.801 38.8301 166.913 38.8301C166.025 38.8301 165.305 38.1103 165.305 37.2223C165.305 36.3343 166.025 35.6144 166.913 35.6144C167.801 35.6144 168.521 36.3343 168.521 37.2223Z" fill-rule="evenodd" fill="#000000"/>
	<path id="Vector" d="M180.823 40.3346C180.823 41.2226 180.103 41.9424 179.215 41.9424C178.327 41.9424 177.607 41.2226 177.607 40.3346C177.607 39.4466 178.327 38.7267 179.215 38.7267C180.103 38.7267 180.823 39.4466 180.823 40.3346Z" fill-rule="evenodd" fill="#000000"/>
	<path id="Vector" d="M173.323 38.9286C173.323 38.9286 169.683 47.1253 169.223 48.4257C168.502 50.4584 173.635 50.7753 173.635 50.7753" stroke="#000000"/>
	<path id="Vector" d="M179.215 34.004C179.215 34.004 183.562 32.7177 185.618 37.2244" stroke="#000000"/>
	<path id="Vector" d="M171.291 34.0041C171.291 34.0041 168.523 29.2767 165.753 32.6333" stroke="#000000"/>
	<path id="Vector" d="M173.582 58.4626C173.582 58.4626 177.879 61.9249 179.473 54.6295" stroke="#000000"/>
	<path id="Vector" d="M177.607 4.41179C177.607 4.41179 188.083 -5.0407 201.099 3.72641C214.115 12.4935 217.539 24.0022 218.635 30.8516C219.732 37.7009 224.567 38.6492 226.6 44.3672C232.491 60.9437 211.474 60.8616 204.167 60.7278L202.88 41.2618C202.88 41.2618 209.974 43.0433 211.051 34.4805C211.051 34.4805 210.525 26.8354 205.897 27.4034C204.448 27.5818 203.228 28.5466 202.545 29.8352C202.155 30.5699 201.819 31.4689 201.836 32.3586C201.876 34.4148 202.733 37.6798 199.381 35.7715C199.381 35.7715 196.301 33.105 197.177 25.5256C197.177 25.5256 180.823 32.7012 175.891 18.5213C175.891 18.5213 173.699 27.4269 164.932 27.4269C164.932 27.4269 158.324 45.5573 163.272 61.324C163.272 61.324 154.371 63.7253 146.677 60.4109C140.769 57.8665 140.396 47.5032 145.675 43.7076C146.841 42.8696 147.914 41.905 148.773 40.7524C153.372 34.5885 155.651 32.8069 153.045 26.6054C150.167 19.756 153.566 0.919037 177.605 4.41179L177.607 4.41179Z" fill-rule="nonzero" fill="#000000"/>
	<path id="Vector" d="M181.919 67.0138L181.466 74.2481" stroke="#000000"/>
	<path id="Vector" d="M248.07 140.266C248.07 140.266 245.143 141.005 238.625 140.711L240.643 132.423C240.643 132.423 247.828 135.353 248.068 140.268L248.07 140.266Z" fill-rule="nonzero" fill="#000000"/>
	<path id="Vector" d="M125.561 29.8423C125.561 29.8423 128.849 27.4786 130.082 30.2531C131.314 33.0276 131.828 37.2879 128.849 38.8301C128.849 38.8301 128.255 39.2385 127.666 38.8301C127.666 38.8301 128.65 36.6917 128.192 34.7294C127.734 32.7694 126.091 30.0302 125.561 29.84L125.561 29.8423Z" fill-rule="nonzero" fill="#FFFFFF"/>
	<path id="Vector" d="M130.082 30.2531C131.314 33.0276 131.828 37.2879 128.849 38.8301C128.849 38.8301 128.255 39.2385 127.666 38.8301C127.666 38.8301 128.65 36.6917 128.192 34.7294C127.734 32.7694 126.091 30.0302 125.561 29.84L125.561 29.8423C125.561 29.8423 128.849 27.4786 130.082 30.2531Z" stroke="#000000"/>
	<path id="Vector" d="M121.235 30.6872C121.235 30.6872 123.563 25.495 126.596 29.6309C129.626 33.7668 129.19 39.8041 126.159 38.9285C123.129 38.0553 124.721 34.87 123.976 33.8936C123.232 32.9171 122.908 33.1613 122.908 33.1613L121.237 30.6872L121.235 30.6872Z" fill-rule="nonzero" fill="#FFFFFF"/>
	<path id="Vector" d="M126.596 29.6309C129.626 33.7668 129.19 39.8041 126.159 38.9285C123.129 38.0553 124.721 34.87 123.976 33.8936C123.232 32.9171 122.908 33.1613 122.908 33.1613L121.237 30.6872L121.235 30.6872C121.235 30.6872 123.563 25.495 126.596 29.6309Z" stroke="#000000"/>
	<path id="Vector" d="M148.63 100.465C148.63 100.465 154.073 93.9161 157.777 89.3952L199.282 88.2638L214.798 132.958L211.009 150.025L171.746 148.803L148.63 100.463L148.63 100.465Z" fill-rule="nonzero" fill="#F480FF"/>
	<path id="Vector" d="M160.026 92.2003L153.127 100.376L194.989 98.9088L212.654 143.021L213.833 136.81L196.925 91.1205L160.026 92.2003Z" fill-rule="nonzero" fill="#FFFFFF"/>
	<path id="Vector" d="M153.127 100.376L194.989 98.9088L212.654 143.021L213.833 136.81L196.925 91.1205L160.026 92.2003L153.127 100.376Z" stroke="#000000"/>
	<path id="Vector" d="M194.367 121.936C194.367 121.936 182.055 106.033 179.631 105.443C179.631 105.443 175.537 106.429 177.147 109.939C178.854 113.659 181.539 114.178 181.539 114.178C181.539 114.178 182.668 115.232 180.459 115.603C180.459 115.603 168.31 110.967 166.505 110.704C164.843 110.462 163.646 111.11 165.284 114.711L166.192 115.603C166.192 115.603 163.378 118.03 165.554 119.753C167.727 121.473 168.472 121.837 168.472 121.837C168.472 121.837 166.85 124.318 168.331 125.562C169.812 126.806 171.413 127.623 171.413 127.623C171.413 127.623 168.641 129.36 171.033 130.733C173.424 132.109 176.678 134.59 183.565 133.9C183.565 133.9 189.715 133.752 191.768 134.834C193.82 135.916 207.542 149.894 214.706 153.6C218.215 155.417 229.522 162.715 235.367 152.269C235.367 152.269 237.503 148.237 238.482 142.573C239.461 136.909 245.315 118.311 244.852 106.495C244.852 106.495 246.446 91.0147 236.787 91.7682C236.787 91.7682 230.104 91.3997 226.614 100.798C226.614 100.798 217.241 116.948 217.72 127.736L197.296 124.079C197.296 124.079 195.09 122.987 194.362 121.933L194.367 121.936Z" fill-rule="nonzero" fill="#FFFFFF"/>
	<path id="Vector" d="M166.169 115.603C166.169 115.603 162.599 118.304 167.256 121.159C171.913 124.013 180.009 125.562 180.009 125.562" stroke="#000000"/>
	<path id="Vector" d="M168.472 121.835C168.472 121.835 163.955 128.247 178.337 128.196" stroke="#000000"/>
	<path id="Vector" d="M171.408 127.452C171.408 127.452 166.791 130.482 176.011 132.956C178.776 133.698 181.645 133.972 184.508 133.883C187.055 133.803 191.459 133.271 193.339 135.608C197.174 140.371 230.879 175.505 237.315 146.979C241.803 127.09 251.556 92.571 236.768 91.7682C221.978 90.9654 217.725 127.736 217.725 127.736L197.968 124.262C196.503 123.985 195.205 123.151 194.341 121.935C190.93 117.133 181.457 105.333 179.605 105.443C177.049 105.596 173.809 110.394 181.513 114.178C181.513 114.178 182.367 114.776 181.344 115.492C179.077 117.074 165.103 107.061 164.359 112.18C163.615 117.3 179.142 121.283 179.142 121.283" stroke="#000000"/>
	<path id="Vector" d="M238.627 84.0834C238.627 84.0834 224.403 79.6259 222.154 95.8996C221.156 103.127 216.276 128.283 218.328 127.708C218.328 127.708 246.427 129.787 248.07 140.266C248.07 140.266 253.969 91.3107 238.625 84.0834L238.627 84.0834Z" fill-rule="nonzero" fill="#E6E7E8"/>
	<path id="Vector" d="M217.725 127.736L220.145 108.141" stroke="#000000"/>
	<path id="Vector" d="M207.657 32.2059C207.657 32.2059 208.582 37.1376 203.906 37.6516" stroke="#000000"/>
	<path id="Vector" d="M239.176 158.443L123.713 158.443" stroke="#231F20"/>
	<path id="Vector" d="M72.3409 44.5692C72.3409 56.8367 62.3961 66.7815 50.1285 66.7815C37.861 66.7815 27.9163 56.8367 27.9163 44.5692C27.9163 32.3016 37.861 22.3568 50.1285 22.3568C62.3961 22.3568 72.3409 32.3016 72.3409 44.5692Z" fill-rule="evenodd" fill="#FFC600"/>
	<path id="Vector" d="M45.6335 25.5798L50.1285 13.9232L53.9499 25.216L45.6335 25.5798Z" fill-rule="nonzero" fill="#FFC600"/>
	<path id="Vector" d="M33.1035 34.4829L28.4817 22.8756L38.9577 28.5654L33.1035 34.4829Z" fill-rule="nonzero" fill="#FFC600"/>
	<path id="Vector" d="M31.5826 51.3341L19.926 46.8414L31.2165 43.0177L31.5826 51.3341Z" fill-rule="nonzero" fill="#FFC600"/>
	<path id="Vector" d="M44.5749 64.4955L33.3408 69.9623L38.2372 59.0944L44.5749 64.4955Z" fill-rule="nonzero" fill="#FFC600"/>
	<path id="Vector" d="M69.2425 34.1685L73.8619 22.5612L63.386 28.2486L69.2425 34.1685Z" fill-rule="nonzero" fill="#FFC600"/>
	<path id="Vector" d="M70.7634 51.0197L82.42 46.5246L71.1272 42.7032L70.7634 51.0197Z" fill-rule="nonzero" fill="#FFC600"/>
	<path id="Vector" d="M57.7688 64.1784L69.003 69.6476L64.1064 58.7797L57.7688 64.1784Z" fill-rule="nonzero" fill="#FFC600"/>
	<path id="Vector" d="M37.3218 70.6146C37.3218 80.9208 28.967 89.2755 18.6609 89.2755C8.35477 89.2755 0 80.9208 0 70.6146C0 60.3085 8.35477 51.9537 18.6609 51.9537C28.967 51.9537 37.3218 60.3085 37.3218 70.6146Z" fill-rule="evenodd" fill="#F480FF"/>
	<mask id="mask1_956" mask-type="alpha" maskUnits="userSpaceOnUse" x="0.030518" y="51.953735" width="37.321777" height="37.321793">
		<path id="Vector" d="M37.3523 70.6146C37.3523 80.9208 28.9976 89.2755 18.6914 89.2755C8.38528 89.2755 0.0305176 80.9208 0.0305176 70.6146C0.0305176 60.3085 8.38528 51.9537 18.6914 51.9537C28.9976 51.9537 37.3523 60.3085 37.3523 70.6146Z" fill-rule="evenodd" fill="#000000"/>
	</mask>
	<g mask="url(#mask1_956)">
		<path id="Vector" d="M12.0319 59.2514C12.6539 59.4275 13.2714 59.6857 13.7291 60.1387C14.5319 60.9297 14.7783 62.2396 15.7501 62.81C16.4472 63.2184 17.4683 63.2207 17.8228 63.946C18.0105 64.3286 17.9284 64.7793 17.872 65.2018C17.7476 66.1525 17.8039 67.1806 18.3485 67.9669C18.9024 68.7673 19.8531 69.1711 20.7052 69.6405C20.8624 69.7274 21.0267 69.8259 21.1159 69.9832C21.238 70.1992 21.1841 70.4668 21.1441 70.7109C20.9634 71.7906 21.0713 72.915 21.4539 73.9408C21.623 74.3914 21.8295 74.9431 21.522 75.3139C21.3906 75.4712 21.1935 75.5534 20.9963 75.6097C19.5175 76.0322 17.9659 75.2576 16.743 74.3257C16.5458 74.1754 16.3463 74.0159 16.1069 73.9501C15.7923 73.8633 15.459 73.9501 15.1375 74.0135C14.1681 74.206 13.154 74.1802 12.194 73.9408C11.8395 74.1896 11.478 74.4454 11.2175 74.7928C10.9569 75.1402 10.809 75.6003 10.9358 76.0158C11.0907 76.5204 11.6259 76.9946 11.3911 77.4664C11.1869 77.8795 10.5555 77.8631 10.2551 78.2151C10.1095 78.3865 10.0414 78.64 9.8349 78.7268C9.56964 78.8372 9.29968 78.5907 9.11661 78.3678C8.78094 77.9593 8.44534 77.5485 8.10733 77.1401C7.73645 76.687 7.21536 76.1848 6.65436 76.3538C6.49005 76.403 6.34918 76.5087 6.19659 76.5838C5.30463 77.0298 4.25778 76.4899 3.41745 75.9547C3.01138 75.6965 2.59592 75.4265 2.32599 75.0275C2.05606 74.6308 1.96683 74.0699 2.23911 73.6732C2.37759 73.4713 2.59357 73.3328 2.71796 73.1216C3.01843 72.6098 2.64993 71.9597 2.21802 71.5512C1.78613 71.1428 1.24615 70.7672 1.12173 70.1851C0.966827 69.4668 1.54901 68.7673 2.22031 68.4692C1.60065 68.0796 0.903534 67.5397 0.962219 66.812C1.01385 66.1712 1.63824 65.7276 1.85184 65.1196C1.96686 64.7934 1.95276 64.4319 2.06778 64.1033C2.2438 63.5963 2.73672 63.216 3.27191 63.1737C3.37753 63.1667 3.49026 63.1667 3.57242 63.101C3.65222 63.0376 3.67563 62.9273 3.69208 62.8287C3.76013 62.371 3.72729 61.8969 3.59821 61.4509C3.55829 61.3147 3.51132 61.1786 3.52072 61.0377C3.57941 60.2538 5.09805 60.4533 5.29288 59.6904C5.3187 59.5871 5.31644 59.4721 5.37747 59.3852C5.53473 59.1622 5.87506 59.3336 6.12152 59.451C7.02759 59.8829 7.79044 59.2632 8.62607 59.0285C9.67764 58.7327 11.0085 58.9533 12.0366 59.2444L12.0319 59.2514Z" fill-rule="nonzero" fill="#FFC600"/>
		<path id="Vector" d="M13.7291 60.1387C14.5319 60.9297 14.7783 62.2396 15.7501 62.81C16.4472 63.2184 17.4683 63.2207 17.8228 63.946C18.0105 64.3286 17.9284 64.7793 17.872 65.2018C17.7476 66.1525 17.8039 67.1806 18.3485 67.9669C18.9024 68.7673 19.8531 69.1711 20.7052 69.6405C20.8624 69.7274 21.0267 69.8259 21.1159 69.9832C21.238 70.1992 21.1841 70.4668 21.1441 70.7109C20.9634 71.7906 21.0713 72.915 21.4539 73.9408C21.623 74.3914 21.8295 74.9431 21.522 75.3139C21.3906 75.4712 21.1935 75.5534 20.9963 75.6097C19.5175 76.0322 17.9659 75.2576 16.743 74.3257C16.5458 74.1754 16.3463 74.0159 16.1069 73.9501C15.7923 73.8633 15.459 73.9501 15.1375 74.0135C14.1681 74.206 13.154 74.1802 12.194 73.9408C11.8395 74.1896 11.478 74.4454 11.2175 74.7928C10.9569 75.1402 10.809 75.6003 10.9358 76.0158C11.0907 76.5204 11.6259 76.9946 11.3911 77.4664C11.1869 77.8795 10.5555 77.8631 10.2551 78.2151C10.1095 78.3865 10.0414 78.64 9.8349 78.7268C9.56964 78.8372 9.29968 78.5907 9.11661 78.3678C8.78094 77.9593 8.44534 77.5485 8.10733 77.1401C7.73645 76.687 7.21536 76.1848 6.65436 76.3538C6.49005 76.403 6.34918 76.5087 6.19659 76.5838C5.30463 77.0298 4.25778 76.4899 3.41745 75.9547C3.01138 75.6965 2.59592 75.4265 2.32599 75.0275C2.05606 74.6308 1.96683 74.0699 2.23911 73.6732C2.37759 73.4713 2.59357 73.3328 2.71796 73.1216C3.01843 72.6098 2.64993 71.9597 2.21802 71.5512C1.78613 71.1428 1.24615 70.7672 1.12173 70.1851C0.966827 69.4668 1.54901 68.7673 2.22031 68.4692C1.60065 68.0796 0.903534 67.5397 0.962219 66.812C1.01385 66.1712 1.63824 65.7276 1.85184 65.1196C1.96686 64.7934 1.95276 64.4319 2.06778 64.1033C2.2438 63.5963 2.73672 63.216 3.27191 63.1737C3.37753 63.1667 3.49026 63.1667 3.57242 63.101C3.65222 63.0376 3.67563 62.9273 3.69208 62.8287C3.76013 62.371 3.72729 61.8969 3.59821 61.4509C3.55829 61.3147 3.51132 61.1786 3.52072 61.0377C3.57941 60.2538 5.09805 60.4533 5.29288 59.6904C5.3187 59.5871 5.31644 59.4721 5.37747 59.3852C5.53473 59.1622 5.87506 59.3336 6.12152 59.451C7.02759 59.8829 7.79044 59.2632 8.62607 59.0285C9.67764 58.7327 11.0085 58.9533 12.0366 59.2444L12.0319 59.2514C12.6539 59.4275 13.2714 59.6857 13.7291 60.1387Z" stroke="#231F20"/>
		<path id="Vector" d="M17.9121 77.2833C18.3018 77.4945 18.7454 77.7926 18.7454 78.2363C18.7454 78.5203 18.5364 78.7809 18.2712 78.8888C18.006 78.9968 17.7009 78.9639 17.438 78.8512C17.2807 78.7832 17.1351 78.687 16.9708 78.64C16.6938 78.5626 16.4005 78.6353 16.1212 78.7081C15.8512 78.7785 15.5344 78.8959 15.4804 79.1705C15.417 79.478 15.7338 79.7174 15.8746 79.9991C16.0507 80.3559 15.9357 80.7831 15.8159 81.1633C15.7667 81.3183 15.7197 81.4732 15.6704 81.6281C15.6587 81.6656 15.6446 81.7079 15.6164 81.7361C15.5389 81.8088 15.417 81.7525 15.3301 81.6938C14.7151 81.2784 14.1142 80.7244 13.9945 79.9921C13.9053 79.4451 14.0955 78.8372 13.8232 78.3537C13.6424 78.0321 13.2974 77.8466 13.0415 77.579C12.2833 76.788 13.295 76.5674 13.579 76.0087C13.8466 75.4853 13.7292 75.159 14.4898 75.1472C15.0109 75.1402 15.9756 75.4125 16.3418 75.7951C16.6258 76.0908 16.506 76.3749 16.7502 76.6542C16.9849 76.9218 17.5952 77.1119 17.9121 77.2856L17.9121 77.2833Z" fill-rule="nonzero" fill="#FFC600"/>
		<path id="Vector" d="M18.7454 78.2363C18.7454 78.5203 18.5364 78.7809 18.2712 78.8888C18.006 78.9968 17.7009 78.9639 17.438 78.8512C17.2807 78.7832 17.1351 78.687 16.9708 78.64C16.6938 78.5626 16.4005 78.6353 16.1212 78.7081C15.8512 78.7785 15.5344 78.8959 15.4804 79.1705C15.417 79.478 15.7338 79.7174 15.8746 79.9991C16.0507 80.3559 15.9357 80.7831 15.8159 81.1633C15.7667 81.3183 15.7197 81.4732 15.6704 81.6281C15.6587 81.6657 15.6446 81.7079 15.6164 81.7361C15.5389 81.8088 15.417 81.7525 15.3301 81.6938C14.7151 81.2784 14.1142 80.7244 13.9945 79.9921C13.9053 79.4451 14.0955 78.8372 13.8232 78.3537C13.6424 78.0321 13.2974 77.8466 13.0415 77.579C12.2833 76.788 13.295 76.5674 13.579 76.0087C13.8466 75.4853 13.7292 75.159 14.4898 75.1472C15.0109 75.1402 15.9756 75.4125 16.3418 75.7951C16.6258 76.0908 16.506 76.3749 16.7502 76.6542C16.9849 76.9218 17.5952 77.1119 17.9121 77.2856L17.9121 77.2833C18.3018 77.4945 18.7454 77.7926 18.7454 78.2363Z" stroke="#231F20"/>
		<path id="Vector" d="M36.3639 64.2793C36.2325 64.0845 35.4321 64.9459 35.1011 64.9107C34.4744 64.845 34.2702 64.9624 33.6434 64.8966C33.5402 64.8849 33.4274 64.8755 33.3382 64.9295C33.2584 64.9765 33.2115 65.0657 33.174 65.1502C32.8595 65.8544 32.8148 66.6782 33.0519 67.4129C33.1036 67.5702 33.1646 67.7462 33.0848 67.8894C33.0261 67.9951 32.904 68.0491 32.7937 68.0984C31.4464 68.6828 30.2 69.4926 29.1202 70.4879C29.0216 70.5794 28.9183 70.6827 28.9066 70.8165C28.8972 70.9104 28.9372 71.002 28.9818 71.0841C29.3151 71.692 30.0592 72.2225 29.8573 72.8868C29.754 73.2248 29.4254 73.4407 29.247 73.7482C28.9958 74.1801 29.0732 74.72 29.0005 75.2129C28.8995 75.8889 28.5123 76.4828 28.1907 77.0861C27.8128 77.7996 27.517 78.5578 27.3128 79.3418C27.2236 79.6822 27.2001 80.1352 27.517 80.2901C27.7095 80.384 27.9418 80.3089 28.1343 80.215C28.6202 79.9803 29.0522 79.6329 29.3878 79.2104C29.5357 79.0226 29.6672 78.8184 29.862 78.6799C30.2516 78.4029 30.8525 78.4968 31.1389 78.8771C31.8877 78.4992 32.6927 78.2315 33.519 78.086C33.303 77.6142 33.12 76.9805 33.512 76.6448C33.8124 76.3889 34.2773 76.4852 34.62 76.6776C34.8148 76.7856 35.0987 76.9054 35.2208 76.7199C35.2607 76.6612 35.2654 76.5861 35.2912 76.518C35.2912 76.518 36.0916 76.8725 36.2794 76.4641C36.4672 76.058 37.2043 73.4314 37.3075 71.1686C37.4131 68.9058 36.7818 64.9084 36.3616 64.277L36.3639 64.2793Z" fill-rule="nonzero" fill="#FFC600"/>
		<path id="Vector" d="M35.1011 64.9107C34.4744 64.845 34.2702 64.9624 33.6434 64.8966C33.5402 64.8849 33.4274 64.8755 33.3382 64.9295C33.2584 64.9765 33.2115 65.0657 33.174 65.1502C32.8595 65.8544 32.8148 66.6782 33.0519 67.4129C33.1036 67.5702 33.1646 67.7462 33.0848 67.8894C33.0261 67.9951 32.904 68.0491 32.7937 68.0984C31.4464 68.6828 30.2 69.4926 29.1202 70.4879C29.0216 70.5794 28.9183 70.6827 28.9066 70.8165C28.8972 70.9104 28.9372 71.002 28.9818 71.0841C29.3151 71.692 30.0592 72.2225 29.8573 72.8868C29.754 73.2248 29.4254 73.4407 29.247 73.7482C28.9958 74.1801 29.0732 74.72 29.0005 75.2129C28.8995 75.8889 28.5123 76.4828 28.1907 77.0861C27.8128 77.7996 27.517 78.5578 27.3128 79.3418C27.2236 79.6822 27.2001 80.1352 27.517 80.2901C27.7095 80.384 27.9418 80.3089 28.1343 80.215C28.6202 79.9803 29.0522 79.6329 29.3878 79.2104C29.5357 79.0226 29.6672 78.8184 29.862 78.6799C30.2516 78.4029 30.8525 78.4968 31.1389 78.8771C31.8877 78.4992 32.6927 78.2315 33.519 78.086C33.303 77.6142 33.12 76.9805 33.512 76.6448C33.8124 76.3889 34.2773 76.4852 34.62 76.6776C34.8148 76.7856 35.0987 76.9054 35.2208 76.7199C35.2607 76.6613 35.2654 76.5861 35.2912 76.518C35.2912 76.518 36.0916 76.8725 36.2794 76.4641C36.4672 76.058 37.2043 73.4314 37.3075 71.1686C37.4131 68.9058 36.7818 64.9084 36.3616 64.277L36.3639 64.2793C36.2325 64.0845 35.4321 64.9459 35.1011 64.9107Z" stroke="#231F20"/>
		<path id="Vector" d="M26.2494 63.7091C25.8809 63.6152 25.4866 63.5941 25.158 63.4063C25.0007 63.3148 24.8645 63.188 24.7002 63.1105C24.5359 63.0307 24.3246 63.0096 24.1837 63.1269C24.1016 63.195 24.057 63.303 24.0359 63.4086C24.0077 63.5588 24.0171 63.7161 24.0664 63.8617C24.0875 63.9227 24.1157 63.9861 24.104 64.0495C24.0899 64.1246 24.0289 64.1786 23.9702 64.2279C23.6346 64.5189 23.3528 64.9579 23.4773 65.3827C23.5594 65.6597 23.7965 65.8615 24.05 65.9977C24.1462 66.0493 24.2495 66.0986 24.3058 66.1925C24.3528 66.27 24.3551 66.3662 24.3786 66.4531C24.4349 66.6667 24.6158 66.831 24.8199 66.9178C25.0242 67.0047 25.2494 67.0258 25.47 67.0329C26.5451 67.0704 27.3174 66.7864 27.1695 65.6339C27.0639 64.81 27.2423 63.9649 26.2447 63.7114L26.2494 63.7091Z" fill-rule="nonzero" fill="#FFC600"/>
		<path id="Vector" d="M25.158 63.4063C25.0007 63.3148 24.8645 63.188 24.7002 63.1105C24.5359 63.0307 24.3246 63.0096 24.1837 63.1269C24.1016 63.195 24.057 63.303 24.0359 63.4086C24.0077 63.5588 24.0171 63.7161 24.0664 63.8617C24.0875 63.9227 24.1157 63.9861 24.104 64.0495C24.0899 64.1246 24.0289 64.1786 23.9702 64.2279C23.6346 64.5189 23.3528 64.9579 23.4773 65.3827C23.5594 65.6597 23.7965 65.8615 24.05 65.9977C24.1462 66.0493 24.2495 66.0986 24.3058 66.1925C24.3528 66.27 24.3551 66.3662 24.3786 66.4531C24.4349 66.6667 24.6158 66.831 24.8199 66.9178C25.0242 67.0047 25.2494 67.0258 25.47 67.0329C26.5451 67.0704 27.3174 66.7864 27.1695 65.6339C27.0639 64.81 27.2423 63.9649 26.2447 63.7114L26.2494 63.7091C25.8809 63.6152 25.4866 63.5941 25.158 63.4063Z" stroke="#231F20"/>
	</g>
</svg>
