<svg width="259.844330" height="156.363342" viewBox="0 0 259.844 156.363" fill="none" xmlns="http://www.w3.org/2000/svg" xmlns:xlink="http://www.w3.org/1999/xlink">
	<desc>
			Created with Pixso.
	</desc>
	<defs/>
	<path id="Vector" d="M49.0113 0L203.918 0C205.474 0 206.735 1.26111 206.735 2.81674L206.735 111.752C206.735 113.307 205.474 114.568 203.918 114.568L49.0113 114.568C47.4557 114.568 46.1946 113.307 46.1946 111.752L46.1946 2.81674C46.1946 1.26111 47.4557 0 49.0113 0Z" fill-rule="evenodd" fill="#F480FF"/>
	<path id="Vector" d="M185.917 15.7549L67.015 15.7549C65.4594 15.7549 64.1982 17.016 64.1982 18.5716L64.1982 96.4498C64.1982 98.0054 65.4594 99.2665 67.015 99.2665L185.917 99.2665C187.472 99.2665 188.733 98.0054 188.733 96.4498L188.733 18.5716C188.733 17.016 187.472 15.7549 185.917 15.7549Z" fill-rule="nonzero" fill="#FFC600"/>
	<path id="Vector" d="M185.917 15.7549C187.472 15.7549 188.733 17.016 188.733 18.5716L188.733 96.4498C188.733 98.0054 187.472 99.2665 185.917 99.2665L67.015 99.2665C65.4594 99.2665 64.1982 98.0054 64.1982 96.4498L64.1982 18.5716C64.1982 17.016 65.4594 15.7549 67.015 15.7549L185.917 15.7549Z" stroke="#000000"/>
	<path id="Vector" d="M168.486 120.366L166.505 119.388L161.068 127.303C161.068 127.303 148.876 109.393 145.823 102.508C145.823 102.508 149.635 95.68 147.752 90.8187C147.752 90.8187 146.877 87.6405 140.255 86.2674C140.255 86.2674 137.992 85.1383 136.396 88.1686C136.396 88.1686 132.255 84.9693 130.455 88.0959C130.455 88.0959 128.267 90.7413 129.087 92.8703C129.087 92.8703 126.533 92.4313 127.202 95.5368C127.202 95.5368 122.636 97.0273 126.406 101.769C126.406 101.769 125.819 101.33 125.472 101.518C124.969 101.788 124.669 102.823 124.89 103.811C125.183 105.125 127.265 108.175 129.11 107.487C130.11 107.114 129.11 104.611 129.11 104.611C129.11 104.611 129.856 104.769 130.385 105.377C131.091 106.189 131.706 107.494 131.896 107.766C133.631 110.242 135.711 108.538 135.711 108.538C135.711 108.538 136.595 138.879 147.839 148.989C147.839 148.989 157.416 160.275 169.422 153.44C169.422 153.44 175.577 150.074 177.706 145.367L168.483 120.359L168.486 120.366Z" fill-rule="nonzero" fill="#FFFFFF"/>
	<path id="Vector" d="M136.213 87.6358C136.213 87.6358 133.161 85.5162 130.929 87.6311C128.697 89.7437 127.455 92.0065 130.288 94.0838C133.124 96.1611 135.046 97.5461 136.448 96.8442C137.849 96.1424 138.642 93.8304 136.213 92.2013C133.781 90.5723 133.211 89.8094 133.211 89.8094" stroke="#000000"/>
	<path id="Vector" d="M128.901 92.5372C128.901 92.5372 126.554 92.4221 127.202 95.537C127.852 98.6495 131.471 101.837 134.272 101.809C136.337 101.788 137.283 98.2574 135.711 97.7833C134.136 97.3091 133.861 96.4806 133.861 96.4806" stroke="#000000"/>
	<path id="Vector" d="M127.202 95.5369C127.202 95.5369 123.967 96.3748 125.15 99.6211C126.333 102.867 129.795 104.668 131.507 104.405C132.659 104.227 132.18 101.323 132.18 101.323" stroke="#000000"/>
	<path id="Vector" d="M129.112 104.431L129.824 104.872C130.354 105.201 130.779 105.675 131.028 106.247C131.636 107.646 133.154 110.189 135.713 108.545C135.713 108.545 135.318 140.234 151.386 152.224C167.453 164.214 180.605 142.243 180.605 142.243L168.216 116.897L161.068 127.305C161.068 127.305 148.168 109.01 145.823 102.511C145.823 102.511 148.693 97.6071 148.273 93.7036" stroke="#000000"/>
	<path id="Vector" d="M126.028 101.26C126.028 101.26 124.479 101.809 124.89 103.813C124.89 103.813 126.272 107.907 128.584 107.59C129.326 107.487 129.81 106.825 129.277 105.494C129.277 105.494 128.756 104.449 128.922 104.318C129.089 104.184 129.666 104.126 129.666 104.126" stroke="#000000"/>
	<path id="Vector" d="M136.079 90.0089L124.092 44.6078L126.042 43.7229L142.33 101.269L139.851 102.616L136.079 90.0089Z" fill-rule="nonzero" fill="#43305E"/>
	<path id="Vector" d="M146.222 88.8261C146.222 88.8261 141.055 83.2396 137.389 84.9531C135.039 86.0516 137.509 89.5796 139.102 90.2744C140.696 90.9668 140.213 91.9503 140.56 93.178C140.907 94.4056 142.074 98.5298 142.074 98.5298C142.074 98.5298 146.243 94.3282 146.219 92.1241C146.196 89.92 146.539 89.4481 146.219 88.8261L146.222 88.8261Z" fill-rule="nonzero" fill="#FFFFFF"/>
	<path id="Vector" d="M140.109 91.5793C140.109 91.5793 140.325 92.2647 139.896 93.0745C139.466 93.8843 137.609 99.2854 142.363 99.5413C147.118 99.7971 147.2 95.1401 146.36 93.1449C145.52 91.1497 141.175 90.7272 140.109 91.5816L140.109 91.5793Z" fill-rule="nonzero" fill="#FFFFFF"/>
	<path id="Vector" d="M141.389 99.3933C138.102 98.9051 138.821 94.7387 139.574 93.7035C139.715 93.5087 139.818 93.2951 139.893 93.0745C140.257 91.9853 139.825 90.7882 138.922 90.0793C137.431 88.908 136.56 88.8775 136.419 87.0865C136.241 84.7862 138.687 84.6266 138.687 84.6266C141.98 84.352 146.355 88.9432 146.355 88.9432C146.355 88.9432 148.238 90.7905 148.308 94.2645" stroke="#000000"/>
	<path id="Vector" d="M194.428 41.2981C194.428 41.2981 182.903 29.5593 187.506 26.0126C192.109 22.4659 204.624 12.7106 212.615 19.804C220.605 26.8975 216.746 25.461 223.112 24.947C229.477 24.4329 238.561 33.3409 242.04 39.9625C245.519 46.5842 240 48.7578 238.583 52.1637C237.165 55.5696 225.705 73.3761 222.461 75.2046C219.217 77.0331 200.094 46.6922 197.74 44.9833C195.385 43.2745 194.43 41.2958 194.43 41.2958L194.428 41.2981Z" fill-rule="nonzero" fill="#000000"/>
	<path id="Vector" d="M202.326 97.5133C198.935 89.1546 188.02 87.1476 181.865 93.7435C180.616 95.0815 179.269 96.687 177.755 98.6141C169.758 108.806 165.185 116.097 165.185 116.097L177.703 147.334L200.235 124.092C205.753 118.399 207.389 109.987 204.408 102.64L202.326 97.5109L202.326 97.5133Z" fill-rule="nonzero" fill="#000000"/>
	<path id="Vector" d="M241.463 89.3799C241.463 89.3799 192.104 83.8169 186.715 90.0207C181.328 96.2246 181.346 155.801 181.346 155.801C181.346 155.801 211.483 155.897 235.442 155.902C252.455 155.902 251.277 109.022 250.333 100.459C249.387 91.8962 241.463 89.3799 241.463 89.3799Z" fill-rule="nonzero" fill="#E5E6E8"/>
	<path id="Vector" d="M205.763 78.7795L204.625 91.8022C204.625 91.8022 206.932 105.428 224.018 93.6848L222.459 75.2069C222.459 75.2069 211.772 68.7707 205.763 78.7795Z" fill-rule="nonzero" fill="#FFFFFF"/>
	<path id="Vector" d="M204.625 91.8022C204.625 91.8022 206.932 105.428 224.018 93.6848L222.459 75.2069C222.459 75.2069 211.772 68.7707 205.763 78.7795L204.625 91.8022Z" stroke="#000000"/>
	<path id="Vector" d="M195.414 38.5143C195.414 38.5143 179.818 78.1951 204.455 81.101C214.84 82.3264 222.403 75.7797 226.297 71.2635C227.264 70.1439 228.015 68.8834 228.656 67.5689C229.182 66.4915 230.797 64.9635 235.745 65.1794C243.282 65.5081 240.728 57.4639 236.348 55.7973C231.965 54.1308 229.686 58.0906 229.686 58.0906C229.686 58.0906 225.402 58.0906 226.546 54.0791C227.689 50.0699 228.398 47.1499 220.166 49.3728C211.936 51.5957 210.774 42.6924 207.601 35.5426C205.997 31.9348 203.117 31.6555 200.655 32.2611C198.345 32.8315 196.66 34.7422 196.125 37.059C195.996 37.6153 195.777 38.1411 195.411 38.5143L195.414 38.5143Z" fill-rule="nonzero" fill="#FFFFFF"/>
	<path id="Vector" d="M204.455 81.1011C214.84 82.3264 222.403 75.7797 226.297 71.2635C227.264 70.1439 228.015 68.8834 228.656 67.5689C229.182 66.4915 230.797 64.9635 235.745 65.1794C243.282 65.5081 240.728 57.4639 236.348 55.7973C231.965 54.1308 229.686 58.0906 229.686 58.0906C229.686 58.0906 225.402 58.0906 226.546 54.0791C227.689 50.0699 228.398 47.1499 220.166 49.3728C211.936 51.5957 210.774 42.6924 207.601 35.5426C205.997 31.9349 203.117 31.6555 200.655 32.2611C198.345 32.8315 196.66 34.7422 196.125 37.059C195.996 37.6153 195.777 38.1411 195.411 38.5143L195.414 38.5143C195.414 38.5143 179.818 78.1951 204.455 81.1011Z" stroke="#000000"/>
	<path id="Vector" d="M197.597 50.9848C198.277 51.0145 198.805 51.5645 198.777 52.2134C198.748 52.8622 198.174 53.3642 197.494 53.3345C196.814 53.3048 196.286 52.7548 196.314 52.1059C196.343 51.457 196.917 50.9551 197.597 50.9848Z" fill-rule="evenodd" fill="#000000"/>
	<path id="Vector" d="M214.859 54.7841C215.539 54.8138 216.067 55.3639 216.039 56.0127C216.011 56.6616 215.436 57.1635 214.757 57.1338C214.077 57.1042 213.548 56.5541 213.577 55.9052C213.605 55.2563 214.179 54.7544 214.859 54.7841Z" fill-rule="evenodd" fill="#000000"/>
	<path id="Vector" d="M204.77 53.72L201.16 63.2476L206.735 65.2897" stroke="#000000"/>
	<path id="Vector" d="M212.615 51.9642C212.615 51.9642 214.164 50.3024 217.267 52.1661" stroke="#000000"/>
	<path id="Vector" d="M195.414 46.8236C195.414 46.8236 196.963 45.1617 200.066 47.0255" stroke="#000000"/>
	<path id="Vector" d="M205.394 71.8597C205.394 71.8597 208.237 73.3972 212.751 71.071" stroke="#000000"/>
	<path id="Vector" d="M237.622 61.5247C237.622 61.5247 235.735 58.1916 233.327 60.0929C230.921 61.9942 231.027 62.8979 231.027 62.8979" stroke="#000000"/>
	<path id="Vector" d="M247.925 93.4127C247.925 93.4127 256.976 94.0911 256.161 117.231C255.347 140.368 255.938 155.644 255.938 155.644L233.219 155.644L233.219 100.415C233.219 100.415 235.388 90.5678 247.927 93.4127L247.925 93.4127Z" fill-rule="nonzero" fill="#FFFFFF"/>
	<path id="Vector" d="M256.161 117.231C255.347 140.368 255.938 155.644 255.938 155.644L233.219 155.644L233.219 100.415C233.219 100.415 235.388 90.5678 247.927 93.4127L247.925 93.4127C247.925 93.4127 256.976 94.0911 256.161 117.231Z" stroke="#000000"/>
	<path id="Vector" d="M229.067 95.9383C232.813 88.3589 245.289 87.0656 251.471 92.8329C256.337 97.3702 259.966 105.945 259.84 118.132C259.602 141.098 259.354 136.462 259.354 136.462L225.313 136.469C225.313 136.469 221.194 111.869 229.067 95.9407L229.067 95.9383Z" fill-rule="nonzero" fill="#E5E6E8"/>
	<path id="Vector" d="M259.844 136.459L231.393 136.459C231.393 136.459 227.689 108.534 234.717 96.842" stroke="#000000"/>
	<path id="Vector" d="M193.742 61.2009C188.58 61.2009 184.396 57.0161 184.396 51.854C184.396 46.6918 188.58 42.5071 193.742 42.5071C198.904 42.5071 203.089 46.6918 203.089 51.854C203.089 57.0161 198.904 61.2009 193.742 61.2009Z" stroke="#000000"/>
	<path id="Vector" d="M214.999 66.2757C209.897 66.2757 205.76 62.1393 205.76 57.0368C205.76 51.9343 209.897 47.7979 214.999 47.7979C220.102 47.7979 224.238 51.9343 224.238 57.0368C224.238 62.1393 220.102 66.2757 214.999 66.2757Z" stroke="#000000"/>
	<path id="Vector" d="M202.934 53.5509C202.934 53.5509 204.322 52.0463 206.178 54.2809" stroke="#000000"/>
	<path id="Vector" d="M130.706 60.7664C130.668 60.6584 130.49 60.6021 130.434 60.7313C130.274 61.0998 130.082 61.4049 129.823 61.7148C129.629 61.9471 129.399 62.1819 129.368 62.4964C129.363 62.5363 129.415 62.5621 129.448 62.541C129.746 62.3556 129.971 62.0387 130.194 61.7734C130.23 61.7312 130.262 61.6866 130.298 61.6443C130.068 62.8227 129.777 63.9775 129.258 65.0714C128.917 65.7873 128.464 66.4375 127.901 66.9938C127.5 67.3905 127.042 67.5876 126.577 67.813C124.972 66.4844 122.854 65.8155 121.12 66.6159C119.056 66.623 117.456 68.5313 116.822 70.5382C116.498 70.395 116.122 70.3269 115.803 70.172C115.118 69.8364 114.505 69.3504 113.932 68.8528C112.815 67.8857 111.961 66.6793 111.104 65.4845C111.08 65.4023 111.055 65.3202 111.024 65.2427C111.836 65.7122 112.667 66.0784 113.554 66.4375C113.625 66.4657 113.653 66.3623 113.601 66.3248C112.742 65.6934 111.745 65.3625 110.832 64.846C110.813 64.8155 110.796 64.7803 110.775 64.7498C110.74 64.6981 110.672 64.6559 110.609 64.6817C110.59 64.6887 110.508 64.7122 110.557 64.7052C110.442 64.7169 110.393 64.8577 110.498 64.9258C110.517 64.9376 110.536 64.947 110.555 64.9611C110.555 64.9705 110.55 64.9774 110.555 64.9845C110.651 65.231 110.731 65.4657 110.794 65.7216C110.904 66.1699 110.916 66.6488 111.083 67.0807C111.106 67.1417 111.205 67.1558 111.221 67.0807C111.287 66.7638 111.28 66.367 111.217 65.975C111.979 67.198 112.82 68.3599 113.883 69.3552C114.428 69.8669 115.749 70.9865 116.697 70.9889C116.641 71.2236 116.594 71.456 116.566 71.686C116.331 73.5826 116.78 75.39 117.789 76.7585C117.186 77.9533 116.129 78.7748 115.092 79.6526C113.782 80.7629 112.357 81.7418 110.806 82.4764C111.118 82.0586 111.479 81.6244 111.599 81.1362C111.609 81.101 111.566 81.0799 111.543 81.1033C111.073 81.5235 110.719 82.1455 110.357 82.6595C110.296 82.7464 110.379 82.8521 110.47 82.8568C111.13 82.8872 111.773 83.1172 112.435 83.1736C112.477 83.1783 112.479 83.1173 112.444 83.1032C111.871 82.8849 111.367 82.676 110.778 82.615C112.566 81.9812 114.111 80.8991 115.557 79.6808C116.228 79.1128 117.599 78.1668 118.094 77.1434C119.033 78.2208 120.364 78.9626 122.021 79.1527C126.232 79.6363 130.077 74.9769 128.816 70.9818C128.483 69.9255 127.795 68.9185 126.922 68.1064C127.922 67.7496 128.781 66.637 129.267 65.853C130.065 64.5573 130.591 62.9119 130.549 61.372C130.683 61.8979 130.868 62.3954 131.312 62.7593C131.347 62.7874 131.415 62.7616 131.396 62.71C131.159 62.0668 130.938 61.4143 130.715 60.7641L130.706 60.7664ZM127.504 70.1837C127.126 70.949 126.744 71.7024 126.307 72.4418C125.878 73.1718 125.314 73.9207 125.164 74.768C125.155 74.8149 125.216 74.8666 125.256 74.822C125.798 74.1671 126.148 73.3338 126.568 72.5968C126.969 71.8949 127.378 71.1696 127.617 70.395C127.817 70.7612 127.986 71.1391 128.11 71.5311C128.129 71.5898 128.138 71.6461 128.155 71.7025C128.009 71.8926 127.894 72.1108 127.784 72.3221C127.636 72.5944 127.467 72.9301 127.544 73.247C127.554 73.2845 127.605 73.2986 127.633 73.2704C127.859 73.0287 127.997 72.693 128.162 72.409C128.197 72.348 128.232 72.2869 128.267 72.2259C128.596 74.4394 127.159 76.4017 125.223 77.4368C125.406 77.1575 125.563 76.8594 125.704 76.6176C126.169 75.8172 126.582 74.9746 126.946 74.1225C126.967 74.0732 126.906 74.038 126.875 74.0802C126.385 74.7609 125.988 75.5097 125.554 76.228C125.237 76.7515 124.739 77.2444 124.448 77.7913C124.141 77.9086 123.826 78.0025 123.507 78.0729C123.732 77.634 123.925 77.1716 124.115 76.7256C124.134 76.6786 124.075 76.6411 124.047 76.6857C123.751 77.1411 123.434 77.6176 123.216 78.1269C122.984 78.1668 122.749 78.1974 122.516 78.2068C122.594 78.0049 122.657 77.7936 122.737 77.6058C122.908 77.2045 123.091 76.8195 123.204 76.397C123.216 76.3548 123.157 76.3313 123.136 76.3688C122.887 76.7749 122.643 77.1857 122.413 77.6035C122.31 77.7913 122.195 78.0002 122.131 78.2138C121.756 78.2044 121.383 78.1574 121.023 78.0635C121.023 78.0635 121.019 78.0635 121.016 78.0635C121.11 77.8523 121.181 77.6247 121.265 77.4134C121.467 76.9064 121.688 76.4087 121.887 75.9041C121.908 75.8524 121.824 75.8172 121.798 75.8665C121.577 76.2984 121.338 76.7209 121.117 77.1528C120.986 77.4087 120.822 77.6904 120.737 77.9791C120.385 77.8617 120.063 77.7045 119.77 77.519C119.864 77.3218 119.939 77.1106 120.028 76.9228C120.169 76.627 120.333 76.3148 120.333 75.9815C120.333 75.937 120.268 75.9158 120.247 75.958C120.063 76.3101 119.894 76.6693 119.709 77.019C119.65 77.127 119.587 77.242 119.538 77.3617C119.139 77.0683 118.798 76.7162 118.512 76.3195C118.721 75.9674 118.92 75.6106 119.12 75.2491C119.324 74.883 119.566 74.4887 119.594 74.0615C119.594 74.0309 119.552 74.0098 119.531 74.0356C119.237 74.3971 119.012 74.8314 118.761 75.2257C118.578 75.5097 118.434 75.7796 118.338 76.0731C118.115 75.7233 117.927 75.3455 117.784 74.9488C117.927 74.6624 118.059 74.369 118.207 74.0943C118.491 73.5638 118.794 73.0428 118.998 72.4747C119.012 72.4372 118.956 72.416 118.934 72.4489C118.615 72.9535 118.334 73.4793 118.042 74.0005C117.925 74.2094 117.798 74.4229 117.679 74.6389C117.371 73.6436 117.294 72.5616 117.435 71.5452C117.662 69.8951 118.402 68.6979 119.524 67.9867C119.477 68.0688 119.582 68.1581 119.662 68.1134C119.697 68.0923 119.733 68.0782 119.768 68.0571C119.634 68.2824 119.503 68.5055 119.371 68.7191C119.024 69.2848 118.667 69.8739 118.603 70.5453C118.599 70.5922 118.66 70.5969 118.683 70.5663C119.11 69.9795 119.392 69.2871 119.758 68.6604C119.932 68.3646 120.136 68.0735 120.317 67.7731C120.786 67.5525 121.261 67.3858 121.737 67.2802C121.624 67.421 121.526 67.5736 121.432 67.7168C121.164 68.1228 120.958 68.5524 120.845 69.0265C120.836 69.0641 120.887 69.1017 120.913 69.0664C121.157 68.7707 121.352 68.4491 121.54 68.1134C121.709 67.813 121.939 67.5337 122.122 67.2356C122.246 67.2285 122.371 67.2215 122.5 67.2215C122.561 67.2215 122.596 67.1956 122.622 67.1604C122.894 67.151 123.171 67.1721 123.448 67.2121C123.251 67.5149 123.129 67.9022 122.995 68.1933C122.976 68.2332 123.026 68.2801 123.061 68.2426C123.3 67.9773 123.648 67.644 123.803 67.2778C124.096 67.3459 124.394 67.4374 124.695 67.5735C124.92 67.6745 125.138 67.7965 125.35 67.928C125.279 68.0242 125.218 68.1299 125.171 68.2191C124.922 68.6956 124.542 69.2707 124.622 69.827C124.629 69.8716 124.69 69.8786 124.718 69.8528C125.134 69.4561 125.223 68.834 125.49 68.3435C125.523 68.2824 125.57 68.1979 125.608 68.1064C125.92 68.3247 126.213 68.5758 126.483 68.8505C126.199 69.3364 125.904 69.8129 125.737 70.3504C125.725 70.3856 125.774 70.4138 125.798 70.3879C126.101 70.0476 126.596 69.5898 126.702 69.0875C127.007 69.4279 127.279 69.8011 127.509 70.1931L127.504 70.1837Z" fill-rule="nonzero" fill="#000000"/>
	<path id="Vector" d="M171.669 74.3901C171.669 74.3901 171.659 74.3878 171.655 74.3854C171.676 74.1577 171.575 73.8995 171.509 73.693C171.413 73.3972 171.258 73.1108 171.007 72.9207C170.979 72.8996 170.934 72.9348 170.946 72.9676C171.044 73.2352 171.162 73.4935 171.248 73.7657C171.295 73.9136 171.309 74.0896 171.342 74.2539C170.141 72.9066 167.99 72.3315 166.282 72.1297C165.566 72.0452 164 71.6062 163.178 72.024C163.141 71.686 163.078 71.3481 162.972 71.0147C162.017 67.9821 158.134 65.3272 155.282 66.6464C153.954 66.6511 152.818 67.4469 152.005 68.5477C151.581 68.3529 151.116 68.2308 150.698 68.0078C150.008 67.6417 149.405 67.1417 148.837 66.6112C147.877 65.7146 147.076 64.6395 146.316 63.5667C146.905 63.893 147.501 64.1043 148.198 64.2357C148.245 64.2451 148.283 64.1747 148.233 64.1513C147.492 63.8062 146.752 63.4189 146.041 63.0105C145.933 62.9494 145.783 63.0269 145.787 63.156C145.82 64.177 146.133 65.3319 146.501 66.2802C146.529 66.3506 146.623 66.339 146.63 66.2638C146.719 65.3507 146.29 64.4564 146.158 63.548C146.837 64.7498 147.632 65.8553 148.595 66.8529C149.327 67.6135 150.567 68.7449 151.738 68.9397C151.198 69.7965 150.839 70.7847 150.724 71.7213C150.473 73.7517 151.001 75.6811 152.165 77.0777C151.374 77.8148 150.679 78.688 149.923 79.4532C148.996 80.3921 147.912 81.1996 146.999 82.1408C147.003 82.0141 146.999 81.8873 147.008 81.7605C147.029 81.4178 147.104 81.0681 147.083 80.7278C147.083 80.6996 147.039 80.6831 147.024 80.7113C146.745 81.27 146.764 82.0352 146.752 82.6455C146.752 82.7276 146.827 82.7675 146.9 82.7581C147.536 82.6619 148.116 82.676 148.719 82.4107C148.761 82.392 148.738 82.3263 148.696 82.3263C148.128 82.3286 147.614 82.3427 147.076 82.4741C148.158 81.8568 149.09 80.8216 149.959 79.9461C150.771 79.1269 151.653 78.2279 152.315 77.2467C153.249 78.2842 154.555 79.0002 156.177 79.1856C157.172 79.3006 158.144 79.1246 159.036 78.742C159.888 80.662 161.517 81.9484 163.62 82.4366C163.214 82.6713 162.873 82.96 162.592 83.3544C162.566 83.3896 162.615 83.4365 162.65 83.413C163.099 83.1126 163.554 82.8004 164.026 82.5422C164.101 82.5023 164.11 82.4154 164.077 82.345C163.925 82.0047 163.709 81.6784 163.477 81.3874C163.455 81.3615 163.418 81.3873 163.416 81.4131C163.394 81.6995 163.545 81.9389 163.681 82.1854C162.939 81.6855 161.937 81.5282 161.165 81.0869C160.183 80.5259 159.737 79.5823 159.216 78.6692C161.582 77.566 163.312 74.9793 163.207 72.3949C164.284 72.1062 165.469 72.3808 166.549 72.5616C167.401 72.7047 168.237 72.916 169.047 73.2165C169.803 73.4981 170.378 74.153 171.091 74.4652C170.91 74.5474 170.788 74.6671 170.641 74.8079C170.615 74.8337 170.633 74.8831 170.671 74.8807C170.885 74.8713 171.068 74.876 171.27 74.7938C171.422 74.7304 171.633 74.6812 171.704 74.5168C171.723 74.4723 171.716 74.4277 171.673 74.3995L171.669 74.3901ZM155.181 78.0824C152.332 77.3406 151.226 74.2117 151.592 71.5593C151.82 69.9091 152.559 68.712 153.681 68.0008C153.634 68.0829 153.74 68.1721 153.82 68.1276C154.559 67.7074 155.299 67.4046 156.052 67.2614C156.249 67.245 156.451 67.2379 156.658 67.2403C156.719 67.2403 156.754 67.2144 156.78 67.1793C157.456 67.1558 158.144 67.2755 158.852 67.5947C160.477 68.3294 161.747 69.8763 162.275 71.5569C163.535 75.5755 158.773 79.0189 155.184 78.0847L155.181 78.0824Z" fill-rule="nonzero" fill="#000000"/>
	<path id="Vector" d="M167.483 30.5733C167.483 30.5733 167.483 30.571 167.483 30.5686C167.483 30.4653 167.387 30.3996 167.291 30.4207C166.861 30.5193 166.399 30.6202 165.993 30.7892C165.948 30.808 165.932 30.8855 165.993 30.8972C166.251 30.9395 166.521 30.9019 166.789 30.8456C165.742 31.5122 164.749 32.3361 163.948 33.2656C163.146 34.2022 162.298 35.2749 161.953 36.4837C160.352 34.39 157.505 33.0051 155.282 34.0309C153.416 34.0379 151.926 35.5988 151.189 37.3828C150.646 37.1246 149.996 37.0189 149.445 36.817C148.609 36.5119 147.818 36.1105 147.057 35.6505C145.616 34.782 144.508 33.6177 143.386 32.4019C144.156 32.5638 144.86 32.9745 145.684 32.9464C145.743 32.9464 145.755 32.8619 145.698 32.8455C144.759 32.5638 143.952 32.0216 142.945 31.9911C142.778 31.9864 142.736 32.1765 142.823 32.2868C143.351 32.9511 143.374 33.829 143.825 34.5121C143.842 34.5379 143.888 34.5379 143.896 34.5027C143.98 34.0121 143.813 33.4018 143.565 32.869C144.433 34.1083 145.625 35.1411 146.879 35.9556C147.574 36.4086 148.323 36.7701 149.088 37.0894C149.677 37.3358 150.388 37.6621 151.062 37.7114C150.897 38.1714 150.782 38.6409 150.726 39.0963C150.691 39.3732 150.677 39.6455 150.672 39.9178C150.17 39.8873 149.649 39.8873 149.17 40.0023C149.116 40.014 149.111 40.0868 149.156 40.115C149.616 40.3967 150.163 40.3216 150.672 40.1878C150.714 43.4106 152.742 46.1686 156.179 46.563C160.39 47.0465 164.235 42.3871 162.974 38.3921C162.796 37.824 162.514 37.2701 162.155 36.7513C162.758 35.3828 163.561 34.1646 164.615 33.0802C165.16 32.5192 165.777 32.0333 166.411 31.5803C166.634 31.423 166.864 31.301 167.063 31.1507C167.073 31.3549 167.105 31.5592 167.15 31.7587C167.159 31.8056 167.232 31.8033 167.244 31.7587C167.34 31.3925 167.514 31.0451 167.472 30.6625C167.476 30.6531 167.483 30.6437 167.486 30.6343C167.497 30.6085 167.493 30.585 167.486 30.5639L167.483 30.5733ZM162.27 38.9413C163.531 42.9599 158.768 46.4034 155.179 45.4691C152.329 44.7274 151.224 41.5985 151.59 38.946C151.818 37.2959 152.557 36.0988 153.679 35.3876C153.632 35.4697 153.738 35.5589 153.818 35.5143C154.557 35.0942 155.296 34.7914 156.05 34.6482C156.247 34.6317 156.449 34.6247 156.655 34.6271C156.716 34.6271 156.752 34.6012 156.777 34.566C157.453 34.5426 158.141 34.6623 158.85 34.9815C160.474 35.7162 161.744 37.263 162.272 38.9437L162.27 38.9413Z" fill-rule="nonzero" fill="#000000"/>
	<path id="Vector" d="M124.07 73.7868C123.427 72.6695 123.056 71.4348 122.592 70.2377C122.519 70.0523 122.221 69.949 122.117 70.1767C121.57 71.3668 121.195 72.6179 120.531 73.7539C120.467 73.8619 120.575 74.038 120.707 73.984C121.164 73.7915 121.418 73.2094 121.617 72.7493C121.857 72.8503 122.15 72.8197 122.404 72.8315C122.636 72.8409 122.831 72.8526 123.03 72.8362C123.207 73.2516 123.397 73.6577 123.627 74.0474C123.796 74.3314 124.237 74.0755 124.07 73.7891L124.07 73.7868ZM122.552 72.3737C122.312 72.3667 122.023 72.3315 121.772 72.3855C121.97 71.9277 122.143 71.463 122.329 71.0006C122.5 71.4654 122.667 71.9325 122.847 72.3949C122.756 72.3831 122.66 72.3784 122.552 72.3737Z" fill-rule="nonzero" fill="#000000"/>
	<path id="Vector" d="M120.507 69.9771C120.498 69.9513 120.46 69.9349 120.441 69.9608C120.348 70.0664 120.251 70.1391 120.195 70.2776C120.136 70.4161 120.103 70.564 120.063 70.7095C120.052 70.7518 120.103 70.7799 120.134 70.7518C120.258 70.6367 120.39 70.5428 120.488 70.402C120.582 70.2682 120.554 70.1203 120.507 69.9795L120.507 69.9771Z" fill-rule="nonzero" fill="#000000"/>
	<path id="Vector" d="M157.355 73.1437C157.674 72.9019 157.85 72.5334 157.747 72.0194C157.568 71.1298 156.561 70.8153 155.806 71.1321C155.679 71.1861 155.622 71.2777 155.644 71.4162C155.799 72.4677 155.568 73.5263 155.662 74.5662C155.655 74.5662 155.646 74.5662 155.639 74.5662C155.561 74.5662 155.531 74.6742 155.599 74.7118C155.625 74.7258 155.653 74.7375 155.681 74.7516C155.684 74.7728 155.684 74.7962 155.688 74.8174C155.688 74.8174 155.693 74.8174 155.693 74.815C155.726 74.9207 155.869 74.9558 155.935 74.8573C156.803 75.1483 158.125 75.0497 158.371 74.0498C158.51 73.4888 157.942 73.247 157.355 73.1437ZM156.369 73.0616C156.296 73.0687 156.242 73.1062 156.209 73.1555C156.223 72.5992 156.183 72.0405 156.118 71.5218C157.27 71.2425 157.848 72.9114 156.369 73.064L156.369 73.0616ZM157.904 74.0967C157.674 74.6085 156.686 74.6085 156.019 74.5826C156.118 74.2071 156.176 73.808 156.198 73.3996C156.23 73.4512 156.284 73.4888 156.369 73.4888C156.688 73.4888 158.169 73.5076 157.904 74.0991L157.904 74.0967Z" fill-rule="nonzero" fill="#000000"/>
	<path id="Vector" d="M148.468 72.9231C145.515 72.6978 142.494 72.8269 139.534 72.8809C136.534 72.9348 133.516 72.9936 130.521 73.186C130.561 73.1344 130.593 73.0898 130.612 73.0687C130.823 72.8292 131.115 72.6015 131.213 72.287C131.23 72.2307 131.169 72.2001 131.124 72.2189C130.88 72.3269 129.751 73.125 129.986 73.4747C129.887 73.7329 130.133 74.0967 130.305 74.3244C130.457 74.5263 130.845 75.099 131.166 74.9113C131.509 74.7094 130.976 74.3385 130.84 74.1977C130.699 74.0521 130.572 73.8644 130.432 73.7001C133.347 73.463 136.248 73.2705 139.173 73.1907C142.259 73.1062 145.386 73.2236 148.463 72.9865C148.506 72.9841 148.506 72.9231 148.463 72.9207L148.468 72.9231Z" fill-rule="nonzero" fill="#000000"/>
	<path id="Vector" d="M131.582 57.5906C131.431 56.9263 130.713 56.4945 130.101 56.8677C129.734 57.0907 129.396 58.0625 129.831 58.3324C129.953 58.5883 130.211 58.7995 130.493 58.8605C131.232 59.0178 131.73 58.2455 131.582 57.5906ZM130.593 58.5248C130.225 58.5248 130.061 58.2362 130.014 57.9287C129.997 57.6939 130.028 57.4615 130.19 57.262C130.518 56.8559 131.032 57.201 131.187 57.5719C131.37 58.0108 131.093 58.5272 130.593 58.5248Z" fill-rule="nonzero" fill="#000000"/>
	<path id="Vector" d="M109.034 61.452C108.484 61.5435 108.123 62.1937 108.055 62.6983C108.015 62.9918 108.057 63.2711 108.243 63.5081C108.386 63.6889 108.559 63.7382 108.747 63.7194C108.879 63.8274 109.045 63.8838 109.247 63.8579C109.663 63.804 109.956 63.4213 110.076 63.0457C110.273 62.4261 109.811 61.3252 109.034 61.4543L109.034 61.452ZM109.325 63.4096C109.186 63.5058 109.048 63.5223 108.919 63.4894C108.66 63.3509 108.47 63.1396 108.487 62.8275C108.503 62.4988 108.7 62.1139 108.984 61.9402C109.355 61.7148 109.649 62.3345 109.686 62.6302C109.724 62.9354 109.576 63.2359 109.325 63.4072L109.325 63.4096Z" fill-rule="nonzero" fill="#000000"/>
	<path id="Vector" d="M108.475 82.3451C108.121 81.9625 107.433 82.0775 107.053 82.3451C106.571 82.6854 106.449 83.5117 107.05 83.8004C107.067 83.8075 107.088 83.8075 107.107 83.8051C107.36 84.0046 107.707 84.0539 108.01 83.9483C108.602 83.7464 108.923 82.8263 108.477 82.3451L108.475 82.3451ZM108.046 83.4694C107.879 83.6478 107.59 83.6643 107.376 83.5681C107.198 83.4859 107.13 83.3521 107.06 83.2089C107.038 83.0399 107.06 82.8779 107.205 82.7324C107.407 82.5282 107.797 82.4343 108.064 82.5517C108.435 82.7136 108.254 83.2488 108.048 83.4694L108.046 83.4694Z" fill-rule="nonzero" fill="#000000"/>
	<path id="Vector" d="M159.482 56.8043C160.226 53.7599 161.263 50.0511 160.284 46.9597C160.273 46.9175 160.214 46.9363 160.221 46.9762C160.763 50.2037 159.925 53.2481 159.212 56.3747C158.594 59.0764 157.529 61.6937 156.308 64.17C156.313 63.6748 156.313 63.1772 156.184 62.7147C156.172 62.6748 156.115 62.6748 156.104 62.7147C155.895 63.4354 155.937 64.2686 155.968 65.0104C155.972 65.116 156.078 65.2193 156.188 65.1794C156.928 64.9142 157.615 64.6418 158.31 64.271C158.355 64.2475 158.324 64.1794 158.277 64.1935C157.714 64.3438 157.165 64.4822 156.618 64.6583C157.184 64.0551 157.395 62.8744 157.672 62.1889C158.385 60.4285 159.031 58.6516 159.482 56.8043Z" fill-rule="nonzero" fill="#000000"/>
	<path id="Vector" d="M144.961 82.9412C144.921 82.5187 144.752 81.9225 144.245 81.8685C143.879 81.8286 143.651 82.1103 143.515 82.4929C143.435 82.3239 143.327 82.183 143.173 82.0962C142.853 81.9225 142.529 82.2511 142.356 82.4764C142.013 82.9201 141.9 83.6431 142.105 84.1618C142.126 84.2134 142.205 84.2252 142.222 84.1618C142.316 83.791 142.351 83.4107 142.473 83.0468C142.567 82.7652 142.947 82.1689 143.133 82.6736C143.288 83.0891 143.295 83.5632 143.32 84.0069C143.32 84.0585 143.325 84.1055 143.327 84.1454C143.351 84.4059 143.757 84.4106 143.738 84.1454C143.712 83.8543 143.802 82.0821 144.28 82.298C144.633 82.4576 144.581 83.1947 144.576 83.4999C144.572 83.7628 144.485 84.1501 144.679 84.3683C144.703 84.3942 144.738 84.3871 144.762 84.3683C145.104 84.1008 144.994 83.305 144.959 82.9388L144.961 82.9412Z" fill-rule="nonzero" fill="#000000"/>
	<path id="Vector" d="M145.487 79.9483C145.217 80.1314 144.996 80.3755 144.947 80.7065C144.942 80.7463 144.98 80.7933 145.022 80.7651C145.135 80.6877 145.238 80.5962 145.346 80.5117C145.323 80.7863 145.311 81.0633 145.356 81.3285C145.363 81.3731 145.435 81.3825 145.454 81.3426C145.637 80.9647 145.823 80.5586 145.797 80.1267C145.788 79.9811 145.623 79.8544 145.485 79.9483L145.487 79.9483Z" fill-rule="nonzero" fill="#000000"/>
	<path id="Vector" d="M167.561 81.6994C167.035 81.6431 166.674 81.9319 166.453 82.3403C166.364 82.0703 166.211 81.8614 165.953 81.8051C165.016 81.6056 164.824 83.4458 164.995 83.9787C165.012 84.028 165.091 84.035 165.103 83.9787C165.169 83.6524 165.216 83.3237 165.291 82.9975C165.336 82.8073 165.749 81.791 166.035 82.3003C166.162 82.5233 166.202 82.8191 166.209 83.1125C166.178 83.3284 166.171 83.5421 166.19 83.7345C166.214 83.9693 166.547 83.974 166.559 83.7345C166.566 83.6007 166.575 83.42 166.573 83.2181C166.641 82.69 166.88 82.1196 167.422 82.0985C168.296 82.0633 167.897 83.3824 168.192 83.812C168.216 83.8472 168.258 83.8519 168.291 83.8237C168.911 83.2862 168.357 81.784 167.561 81.6971L167.561 81.6994Z" fill-rule="nonzero" fill="#000000"/>
	<path id="Vector" d="M169.218 81.0422C169.049 80.9765 168.868 80.9296 168.687 80.899C168.732 80.7113 168.774 80.5211 168.739 80.3287C168.694 80.0892 168.359 80.047 168.295 80.2981C168.291 80.3216 168.302 80.3498 168.328 80.3545C168.359 80.3615 168.448 80.3732 168.441 80.3592C168.46 80.3873 168.441 80.486 168.439 80.5188C168.427 80.6596 168.387 80.8239 168.326 80.953C168.277 81.0587 168.317 81.1737 168.432 81.2112C168.697 81.3004 169.002 81.3028 169.232 81.1267C169.265 81.1032 169.26 81.0587 169.22 81.0446L169.218 81.0422Z" fill-rule="nonzero" fill="#000000"/>
	<path id="Vector" d="M157.735 41.2957C157.517 41.2629 157.395 41.3239 157.195 41.4249C156.937 41.5563 156.658 41.5164 156.409 41.3943C155.855 41.1244 155.679 40.4249 155.829 39.8709C155.935 39.4836 156.35 39.1785 156.667 38.972C157.045 38.7255 157.357 38.6363 157.564 39.087C157.583 39.1269 157.634 39.1081 157.648 39.0752C157.836 38.5541 157.378 38.2983 156.916 38.4321C156.381 38.5894 155.749 39.0893 155.522 39.6057C155.205 40.3193 155.411 41.2418 155.998 41.7535C156.47 42.1642 157.745 42.2417 157.845 41.4366C157.852 41.3779 157.794 41.3004 157.735 41.291L157.735 41.2957Z" fill-rule="nonzero" fill="#000000"/>
	<path id="Vector" d="M170.234 27.4161C169.601 27.3129 168.868 27.949 169.213 28.5217C168.948 29.024 169.162 29.7118 169.61 30.0427C170.288 30.5427 170.993 29.7728 171.124 29.1508C171.267 28.4747 171.011 27.5429 170.234 27.4161ZM170.641 29.1085C170.554 29.5169 170.178 29.8855 169.751 29.6437C169.453 29.4747 169.331 29.0451 169.336 28.679C169.34 28.6837 169.343 28.6884 169.347 28.6907C169.382 28.7259 169.443 28.7 169.446 28.6508C169.446 28.2142 169.821 27.7142 170.303 27.9278C170.706 28.1086 170.72 28.7494 170.643 29.1062L170.641 29.1085Z" fill-rule="nonzero" fill="#000000"/>
	<path id="Vector" d="M138.732 28.7777C137.725 29.1392 137.577 30.6274 138.267 31.3316C138.276 31.341 138.29 31.3434 138.304 31.3434C138.469 31.6555 138.715 31.9184 139.058 32.0545C140.025 32.4371 140.532 31.3081 140.609 30.5312C140.706 29.5429 139.764 28.4092 138.732 28.7777ZM140.142 30.6908C140.039 31.2612 139.68 31.956 139.023 31.5874C138.661 31.3832 138.415 30.9842 138.271 30.5711C138.239 30.0829 138.286 29.5853 138.685 29.2918C139.544 28.6581 140.274 29.9585 140.142 30.6885L140.142 30.6908Z" fill-rule="nonzero" fill="#000000"/>
	<path id="Vector" d="M135.253 37.9719C134.466 37.5799 133.638 37.3428 132.809 37.0517C132.769 37.0376 132.748 37.0963 132.781 37.1175C133.535 37.5916 134.373 37.8052 135.227 38.0306C135.26 38.0399 135.283 37.9907 135.25 37.9742L135.253 37.9719Z" fill-rule="nonzero" fill="#000000"/>
	<path id="Vector" d="M140.135 38.9297C139.522 38.6457 138.774 38.512 138.1 38.5659C138.062 38.5683 138.039 38.6246 138.079 38.6434C138.696 38.9227 139.44 38.9744 140.109 39.0237C140.159 39.0284 140.18 38.9509 140.135 38.9297Z" fill-rule="nonzero" fill="#000000"/>
	<path id="Vector" d="M145.478 39.608C145.034 39.5282 144.499 39.4109 144.055 39.5376C144.015 39.5493 144.008 39.6033 144.043 39.6244C144.457 39.8709 145.032 39.7606 145.478 39.6808C145.513 39.6738 145.513 39.6151 145.478 39.6104L145.478 39.608Z" fill-rule="nonzero" fill="#000000"/>
	<path id="Vector" d="M130.18 35.1036C129.676 34.728 128.922 35.0284 128.512 35.4016C128.289 35.6059 128.138 35.8899 128.136 36.1951C128.136 36.4462 128.267 36.7584 128.497 36.8804C128.547 36.9908 128.617 37.0964 128.718 37.188C129.033 37.4743 129.486 37.4884 129.84 37.2748C130.439 36.9134 130.833 35.5895 130.178 35.1036L130.18 35.1036ZM129.847 36.735C129.664 37.0284 129.321 37.1081 129.009 37.0025C128.901 36.965 128.817 36.9039 128.749 36.8241C128.749 36.8241 128.749 36.8194 128.749 36.8171C128.725 36.6668 128.631 36.5518 128.568 36.4204C128.547 36.2983 128.547 36.1739 128.568 36.0589C128.573 36.0378 128.561 36.0261 128.547 36.0214C128.587 35.9157 128.652 35.8171 128.732 35.735C128.988 35.4674 129.448 35.2679 129.821 35.3665C130.371 35.512 130.026 36.4439 129.847 36.735Z" fill-rule="nonzero" fill="#000000"/>
	<path id="Vector" d="M143.703 60.466C143.36 60.4425 142.999 60.5716 142.663 60.4613C142.379 60.3674 142.224 60.0529 142.149 59.79C141.964 59.1375 142.236 58.3886 142.971 58.3041C142.999 58.3018 143.008 58.2619 142.978 58.2549C142.027 57.9873 141.647 59.0811 141.764 59.8322C141.903 60.7265 143.154 61.5176 143.759 60.567C143.788 60.5224 143.75 60.4683 143.701 60.466L143.703 60.466Z" fill-rule="nonzero" fill="#000000"/>
	<path id="Vector" d="M145.839 59.3277C145.583 58.9005 145.083 58.4944 144.567 58.485C144.316 58.4803 144.09 58.6235 143.975 58.8441C143.907 58.9732 143.865 59.1328 143.877 59.2784C143.891 59.4638 143.964 59.5953 144.043 59.7455C144.048 59.9826 144.107 60.2126 144.28 60.398C144.588 60.7266 145.057 60.729 145.459 60.5928C146.043 60.3957 146.128 59.8136 145.839 59.33L145.839 59.3277ZM145.435 60.1163C145.219 60.2595 144.844 60.3346 144.609 60.2243C144.41 60.1304 144.29 59.8957 144.224 59.6492C144.25 59.5717 144.278 59.4919 144.292 59.4098C144.309 59.3112 144.341 59.1986 144.372 59.1023C144.41 58.9803 144.48 58.9544 144.569 58.9521C144.846 58.9474 145.179 59.2197 145.377 59.4568C145.562 59.6821 145.665 59.9637 145.438 60.114L145.435 60.1163Z" fill-rule="nonzero" fill="#000000"/>
	<path id="Vector" d="M147.503 59.4567C147.393 59.391 147.285 59.351 147.175 59.3158C147.301 59.0811 147.369 58.8229 147.327 58.5482C147.28 58.2478 146.942 58.0295 146.658 58.1657C146.625 58.1821 146.618 58.2361 146.646 58.2596C146.804 58.3933 146.98 58.4544 146.994 58.6891C147.006 58.9121 146.881 59.1421 146.736 59.2994C146.63 59.412 146.684 59.574 146.82 59.6233C147.074 59.7149 147.278 59.6703 147.506 59.5388C147.536 59.52 147.536 59.4755 147.506 59.4567L147.503 59.4567Z" fill-rule="nonzero" fill="#000000"/>
	<path id="Vector" d="M103.304 59.6866C101.215 55.8089 99.1564 51.8608 97.5485 47.7601C97.3959 47.1803 97.2645 46.5911 97.1823 45.9855C97.1823 45.4362 97.1823 44.8846 97.18 44.3354C97.2152 44.2767 97.241 44.2063 97.241 44.1218C97.241 42.1735 97.248 40.2229 97.241 38.2747C97.6659 35.9602 96.7622 33.3055 97.7292 31.1038C98.0954 30.2681 98.8395 29.6696 98.9193 28.8691C99.0648 28.4818 98.9968 28.0476 98.5602 27.5899C96.9781 25.921 93.5276 26.1603 91.8423 27.5382C91.3775 27.9185 91.1498 28.3879 91.2132 28.8644C91.1827 29.0311 91.185 29.2001 91.2414 29.348C91.6474 30.4113 92.3868 30.6437 92.5206 31.9722C92.6474 33.2374 92.638 34.5143 92.638 35.7842C92.638 36.0894 92.6216 36.4062 92.6075 36.7231C92.6075 36.7231 92.6075 36.7231 92.6075 36.7278L92.6075 36.7419C92.5793 37.3053 92.5535 37.8756 92.6004 38.4273C92.5817 41.3074 92.5887 44.1875 92.6004 47.0676C92.2882 48.3187 91.8751 49.4407 91.1991 50.619C90.333 52.1307 89.4081 53.6095 88.4833 55.0859C86.8989 57.621 84.7746 60.0668 83.4789 62.7498C82.709 64.3483 84.6666 65.7614 85.7323 66.5571C86.8402 67.3857 88.2744 67.9772 89.7297 68.1885C91.692 68.7589 93.8351 68.9208 95.8772 68.8903C97.0345 68.949 98.1964 68.9349 99.3536 68.8269C100.926 68.679 102.513 68.3011 103.858 67.4467C104.149 67.2636 104.41 67.043 104.642 66.7965C105.292 66.5125 105.839 66.0735 105.874 65.2755C105.966 63.2943 104.198 61.3438 103.304 59.6866ZM92.1732 29.0006C91.6428 28.5452 92.7389 27.9138 92.9736 27.787C94.1403 27.1556 97.4523 26.834 98.0907 28.4114C98.4522 29.3034 96.0204 29.7752 95.5369 29.8573C95.1214 29.9277 94.6214 29.9747 94.1121 29.9653C93.8468 29.8221 93.5816 29.6884 93.2741 29.5874C92.8774 29.456 92.4901 29.2775 92.1732 29.0029L92.1732 29.0006ZM93.3704 48.8656C93.5018 48.598 93.5018 48.2342 93.4455 47.8445C93.4642 44.7086 93.4689 41.5726 93.4478 38.4366C93.4807 38.0001 93.4713 37.5541 93.483 37.0752C93.5182 35.58 93.5394 34.0871 93.4877 32.5919C93.4619 31.876 93.422 31.2234 93.1896 30.5733C94.2295 30.8808 95.5204 30.7376 96.4617 30.5216C96.7176 30.463 97.0274 30.3573 97.3396 30.2165C97.0485 30.6648 96.8068 31.1319 96.7458 31.6812C96.5744 33.2163 96.3021 35.1223 96.3842 36.8593C96.3842 37.1949 96.3842 37.5282 96.3795 37.8639C96.2716 39.3544 96.1566 40.8449 96.0134 42.3331C95.7458 45.1287 95.8726 47.5042 96.9711 50.1073C97.2175 50.6942 97.4875 51.2786 97.7692 51.856C96.9922 51.849 96.3772 52.3185 95.7716 52.9006C94.2999 54.316 93.0253 52.6166 91.462 52.6729C91.3799 52.6753 91.3 52.6987 91.2202 52.7128C91.3047 52.572 91.3939 52.4335 91.4761 52.2927C92.1357 51.166 92.7882 50.0346 93.3704 48.8633L93.3704 48.8656ZM97.1894 67.4514C95.5275 67.5617 93.8562 67.5547 92.2061 67.3622C91.8235 67.2848 91.4174 67.212 91.0395 67.1909C90.5794 67.1111 90.1217 67.0195 89.6663 66.9045C87.9904 66.482 85.338 65.4116 84.5845 63.5901C84.5493 63.2545 84.6338 62.8907 84.9013 62.4916C85.6924 61.3039 86.5257 60.1373 87.3144 58.9448C88.2697 57.5036 89.1922 56.0413 90.0982 54.5672C90.8259 53.9592 91.5606 53.3983 92.6122 53.8677C93.1896 54.1259 93.8938 54.5414 94.544 54.4897C95.0322 54.4521 95.4923 54.3747 95.8632 54.0179C96.1308 53.7597 96.3795 53.4874 96.6378 53.2198C97.2833 52.5579 97.91 52.7386 98.4147 53.1377C99.1494 54.5672 99.9263 55.9779 100.654 57.391C101.278 58.5998 101.844 59.8439 102.525 61.0199C103.21 62.2029 103.811 63.1653 103.827 64.3952C103.748 66.7425 98.8137 67.3458 97.1894 67.4537L97.1894 67.4514Z" fill-rule="nonzero" fill="#000000"/>
	<path id="Vector" d="M93.3044 58.3604C93.2622 58.2876 93.2152 58.2078 93.1589 58.1397C93.1448 58.0858 93.1354 58.0294 93.1167 57.9754C92.9664 57.5881 92.5627 57.4849 92.2411 57.7454C91.9055 58.0177 91.9008 58.5646 92.1965 58.8698C92.504 59.1819 92.903 59.1725 93.2317 58.9096C93.3913 58.7829 93.396 58.5223 93.3021 58.3604L93.3044 58.3604Z" fill-rule="nonzero" fill="#000000"/>
	<path id="Vector" d="M95.4874 57.7643C95.3724 57.6657 95.2785 57.5883 95.1189 57.6071C94.9898 57.6235 94.9123 57.6775 94.863 57.8019C94.8043 57.9545 94.8536 58.0648 94.9217 58.2009C94.9898 58.3418 95.1823 58.4099 95.3278 58.3652C95.4287 58.3347 95.4921 58.2925 95.5437 58.2009C95.6142 58.0671 95.6118 57.8699 95.4874 57.7643Z" fill-rule="nonzero" fill="#000000"/>
	<path id="Vector" d="M96.708 56.2127C96.4358 56.0531 96.0977 56.3746 96.2691 56.6516C96.2785 56.6657 96.2879 56.6822 96.2973 56.6962C96.3395 56.762 96.4193 56.8206 96.5015 56.8136L96.5438 56.8089C96.8489 56.7807 96.9991 56.384 96.7057 56.2127L96.708 56.2127Z" fill-rule="nonzero" fill="#000000"/>
	<path id="Vector" d="M98.4076 62.0177C98.1705 61.6327 97.694 61.743 97.5016 62.0271C97.5016 62.0224 97.4992 62.02 97.4969 62.0177C97.349 62.2571 97.3185 62.5106 97.4147 62.7782C97.6072 63.3063 98.2973 63.3063 98.4897 62.7782C98.586 62.5106 98.5578 62.2571 98.4099 62.0177L98.4076 62.0177Z" fill-rule="nonzero" fill="#000000"/>
	<path id="Vector" d="M96.6963 64.0879C96.0625 64.0879 96.0625 65.069 96.6963 65.069C97.33 65.069 97.33 64.0879 96.6963 64.0879Z" fill-rule="nonzero" fill="#000000"/>
	<path id="Vector" d="M96.3443 62.5669C96.3443 62.5528 96.3397 62.5363 96.3373 62.5222C96.2458 62.0434 95.443 62.3157 95.6965 62.7922C95.7035 62.8039 95.7106 62.818 95.7176 62.8321C95.9124 63.1959 96.4148 62.9307 96.3467 62.5669L96.3443 62.5669Z" fill-rule="nonzero" fill="#000000"/>
	<path id="Vector" d="M89.3586 62.3813C88.9032 62.2568 88.5981 62.6676 88.6591 63.0807C88.6732 63.1864 88.7155 63.2708 88.7624 63.3647C88.8986 63.63 89.2788 63.6534 89.4783 63.4563C89.5206 63.414 89.5652 63.3718 89.6098 63.3318C89.9267 63.0361 89.7577 62.4916 89.3586 62.3813Z" fill-rule="nonzero" fill="#000000"/>
	<path id="Vector" d="M91.5135 64.2216C91.3844 63.8649 90.9854 63.825 90.7741 64.0362C90.7741 64.0339 90.7741 64.0292 90.7741 64.0245C90.6802 64.1255 90.6192 64.2358 90.591 64.3696C90.5863 64.3883 90.591 64.4048 90.5887 64.4212C90.5323 64.4893 90.5488 64.5691 90.6075 64.6113C90.7131 64.9564 91.199 65.0925 91.4361 64.7216C91.53 64.5738 91.5793 64.3883 91.5182 64.2169L91.5135 64.2216Z" fill-rule="nonzero" fill="#000000"/>
	<path id="Vector" d="M91.2108 61.778C91.1968 61.7451 91.1804 61.7123 91.1663 61.6794C90.9879 61.2992 90.326 61.3837 90.2532 61.7992C90.2461 61.8344 90.2415 61.8696 90.2344 61.9048C90.1757 62.2428 90.3776 62.5808 90.7508 62.5808C91.1827 62.5808 91.3799 62.1348 91.2108 61.778Z" fill-rule="nonzero" fill="#000000"/>
	<path id="Vector" d="M90.6756 23.2569C90.584 23.285 90.4972 23.3766 90.5066 23.4799C90.5347 23.8015 90.7225 24.1489 90.8986 24.4118C90.9854 24.5409 91.4009 24.8742 91.5699 24.6794C91.9948 24.1817 91.3258 23.0597 90.6779 23.2569L90.6756 23.2569Z" fill-rule="nonzero" fill="#000000"/>
	<path id="Vector" d="M94.2975 22.6795C94.1449 22.5551 93.9219 22.595 93.8585 22.7946C93.7435 23.1607 93.7881 23.6537 94.1496 23.8673C94.1777 23.8837 94.2153 23.8837 94.2435 23.8673C94.6589 23.6232 94.6519 22.9706 94.2951 22.6795L94.2975 22.6795Z" fill-rule="nonzero" fill="#000000"/>
	<path id="Vector" d="M97.3279 21.8532C97.2879 21.7124 97.0931 21.6443 96.9875 21.764C96.5298 22.2781 95.9852 23.2851 96.3537 23.9494C96.4312 24.0879 96.6143 24.0973 96.7269 23.9987C97.0274 23.7287 97.1166 23.3884 97.2245 23.0034C97.3325 22.6161 97.4429 22.2499 97.3279 21.8532Z" fill-rule="nonzero" fill="#000000"/>
	<path id="Vector" d="M100.316 22.8977C100.072 22.9705 99.912 23.3108 99.7618 23.4986C99.5388 23.7755 99.4238 24.0783 99.4543 24.4304C99.459 24.4797 99.5036 24.5314 99.5599 24.5103C99.9989 24.3342 100.311 24.1863 100.558 23.7544C100.673 23.5526 100.795 22.7522 100.316 22.8977Z" fill-rule="nonzero" fill="#000000"/>
	<path id="Vector" d="M94.9358 49.4432C94.9217 49.4362 94.9077 49.4292 94.8936 49.4221C94.7058 49.3259 94.4805 49.3728 94.3678 49.5606C94.3607 49.5723 94.3537 49.5841 94.3466 49.5982C94.1495 49.9245 94.4711 50.3282 94.8326 50.2296C95.1753 50.1357 95.2762 49.6146 94.9358 49.4432Z" fill-rule="nonzero" fill="#000000"/>
	<path id="Vector" d="M94.2411 47.6545C94.2411 47.6803 94.2411 47.7061 94.2411 47.7296C94.2341 47.9456 94.443 48.0653 94.6331 48.0301C94.6918 48.0183 94.7341 48.016 94.7669 47.9643C94.7669 47.9643 94.7669 47.9573 94.7669 47.955C95.3819 47.5207 94.2623 46.9456 94.2411 47.6522L94.2411 47.6545Z" fill-rule="nonzero" fill="#000000"/>
	<path id="Vector" d="M95.0063 43.1337C94.9124 43.0797 94.788 43.0938 94.7129 43.1713C94.5932 43.2886 94.687 43.3755 94.68 43.5046C94.6753 43.5703 94.7481 43.6243 94.8115 43.6055C94.9218 43.5703 95.0274 43.5797 95.0931 43.467C95.1612 43.352 95.1213 43.2018 95.0063 43.1337Z" fill-rule="nonzero" fill="#000000"/>
	<path id="Vector" d="M83.4413 33.7656C83.1714 33.4088 82.9273 32.7563 82.5447 32.4465C82.5447 32.4394 82.5446 32.4347 82.54 32.4277C82.4601 32.1108 81.9883 32.0404 81.8311 32.3362C81.249 33.4323 80.6504 34.5168 80.3312 35.7233C80.296 35.8524 80.465 35.9604 80.5612 35.8571C81.1809 35.1881 81.6386 34.4252 82.0517 33.6295C82.2747 34.8783 82.1926 36.2491 82.2348 37.4743C82.2911 39.1644 82.3663 40.8544 82.4789 42.5398C82.7371 46.3799 82.8334 50.2412 83.2207 54.072C83.2277 54.1447 83.331 54.1471 83.3357 54.072C83.5963 50.2412 83.2841 46.3705 83.101 42.5398C82.9742 39.8827 83.1972 36.972 82.8615 34.2633C83.2512 34.7938 83.6761 35.2374 84.2112 35.6528C84.284 35.7115 84.3849 35.6599 84.3661 35.5613C84.23 34.843 83.8708 34.3454 83.439 33.7703L83.4413 33.7656Z" fill-rule="nonzero" fill="#000000"/>
	<path id="Vector" d="M73.4818 45.3072C72.8527 45.3424 71.7941 45.9503 71.5054 45.0326C71.165 43.9505 72.111 41.8402 73.4067 42.0891C73.4513 42.0984 73.4982 42.0515 73.4701 42.0093C73.1931 41.5868 72.6086 41.7253 72.2495 41.9435C71.6603 42.3004 71.28 42.9576 71.0218 43.5749C70.4303 44.995 70.9608 46.5043 72.6884 46.3775C73.1649 46.3423 73.7893 46.2274 74.024 45.7626C74.2071 45.4011 73.7494 45.2932 73.4818 45.3072Z" fill-rule="nonzero" fill="#000000"/>
	<path id="Vector" d="M78.5142 43.2204C78.1339 41.683 76.2655 41.0938 75.2256 42.366C74.5121 43.2369 74.4487 44.9316 75.2444 45.6616C75.2961 45.8025 75.3712 45.9362 75.4933 46.0583C75.8547 46.4198 76.4204 46.4151 76.8828 46.293C78.2231 45.9362 78.8287 44.4856 78.5165 43.2204L78.5142 43.2204ZM76.3571 45.6029C76.012 45.2907 75.6317 44.9386 75.5003 44.5091C75.336 43.9739 75.5425 43.2697 75.8853 42.8449C76.6833 41.8661 77.7068 42.9082 77.7913 43.8284C77.8758 44.7344 77.0683 45.5396 76.3547 45.6029L76.3571 45.6029Z" fill-rule="nonzero" fill="#000000"/>
	<path id="Vector" d="M80.5751 47.4082C80.4202 47.3284 80.2043 47.1875 80.0258 47.1875C79.8944 47.1875 79.7512 47.1969 79.608 47.1922C79.9625 46.7697 80.3451 46.3308 80.3592 45.7698C80.3686 45.4224 80.0423 45.1243 79.7019 45.1243C79.5259 45.1243 78.8781 45.4059 79.1175 45.6735C79.2419 45.8143 79.5235 45.7205 79.6902 45.7674C79.7348 45.7791 79.608 46.0256 79.5658 46.1031C79.3428 46.5021 79.033 46.8378 78.7841 47.218C78.6973 47.3518 78.7466 47.5819 78.8992 47.6499C79.1832 47.7814 79.4554 47.8565 79.77 47.8612C80.1033 47.8659 80.2958 47.7391 80.5775 47.5819C80.6408 47.5467 80.6455 47.441 80.5775 47.4058L80.5751 47.4082Z" fill-rule="nonzero" fill="#000000"/>
	<path id="Vector" d="M93.4289 126C93.4289 126 99.5506 134.488 94.126 139.879C88.7015 145.271 73.3925 149.996 73.3925 149.996L72.0569 129.141C72.0569 129.141 90.3821 119.169 93.4289 126Z" fill-rule="nonzero" fill="#FFFFFF"/>
	<path id="Vector" d="M55.4147 32.3455C55.4147 32.3455 63.8766 40.2981 65.1817 47.9361C66.4868 55.5742 69.5571 72.7352 60.2994 76.7983C60.2994 76.7983 53.5862 80.4413 45.4927 77.6057L41.5399 101.687C41.5399 101.687 27.374 95.7878 31.5686 82.8121L35.174 61.6208C35.174 61.6208 28.8693 62.2475 28.0195 53.532C28.0195 53.532 36.1646 26.2143 55.4147 32.3478L55.4147 32.3455Z" fill-rule="nonzero" fill="#FFFFFF"/>
	<path id="Vector" d="M43.2065 82.4413C43.2065 82.4413 42.4882 78.8711 38.357 77.1012C38.357 77.1012 33.8619 74.1648 35.4604 70.6157C37.0589 67.0666 40.9085 67.5384 42.3474 70.7847C42.3474 70.7847 45.5866 76.9416 45.481 77.5871C45.3754 78.2326 57.7596 80.1879 61.4942 75.8032C61.4942 75.8032 64.6912 77.782 63.9776 80.6292C63.9776 80.6292 62.1983 83.1384 58.445 83.0821C58.445 83.0821 63.8766 84.9458 58.9074 87.6335C58.9074 87.6335 62.933 90.2155 58.9074 91.7436C58.9074 91.7436 61.4683 94.2716 57.7033 95.4852C57.7033 95.4852 54.18 97.3184 49.8681 95.0016C49.8681 95.0016 53.0627 113.059 51.6708 118.632C51.6708 118.632 52.1661 147.583 33.2798 149.524C33.2798 149.524 16.0132 149.646 10.7177 134.267L8.76245 125.448C8.76245 125.448 16.5695 121.401 26.0455 123.864C26.0455 123.864 37.174 97.0508 37.2913 96.4616C37.4087 95.8724 43.2042 82.4436 43.2042 82.4436L43.2065 82.4413Z" fill-rule="nonzero" fill="#FFFFFF"/>
	<path id="Vector" d="M60.257 15.1633C60.865 14.8817 61.6349 15.093 62.0856 15.5624C62.5762 16.0765 62.6912 16.8698 62.4799 17.5294C62.2452 18.2711 61.5715 18.5927 60.8228 18.4824C59.959 18.3557 59.2454 17.7336 58.5999 17.1938C58.3018 16.9426 57.898 16.9755 57.6774 17.3135C57.2337 17.9872 56.7032 18.5857 56.0953 19.1162C55.8559 19.3251 55.8817 19.7335 56.0953 19.9471C56.3324 20.1842 56.6868 20.156 56.9263 19.9471C57.607 19.3509 58.1961 18.6632 58.6914 17.9073L57.7689 18.0271C58.5083 18.6468 59.2829 19.2922 60.2312 19.5551C61.1208 19.8015 62.1114 19.6819 62.832 19.081C63.5104 18.5176 63.8156 17.5201 63.7404 16.6609C63.663 15.7455 63.2381 14.9005 62.4753 14.37C61.6443 13.7925 60.5669 13.7292 59.6609 14.1517C59.3745 14.2855 59.3017 14.6986 59.4496 14.9545C59.6209 15.2502 59.9636 15.2995 60.2523 15.1657L60.257 15.1633Z" fill-rule="nonzero" fill="#231F20"/>
	<path id="Vector" d="M55.4287 20.9072C55.4287 21.2403 55.1586 21.5104 54.8254 21.5104C54.4922 21.5104 54.2222 21.2403 54.2222 20.9072C54.2222 20.574 54.4922 20.304 54.8254 20.304C55.1586 20.304 55.4287 20.574 55.4287 20.9072Z" fill-rule="evenodd" fill="#231F20"/>
	<path id="Vector" d="M65.0408 48.6191C65.0408 48.6191 82.1197 55.0131 80.9319 39.0281C80.0658 27.3739 67.2731 26.7072 61.3955 26.9044C59.4637 26.9701 57.5436 26.4091 56.0437 25.1909C54.3513 23.8154 51.0909 22.2896 45.0373 22.4962C34.2586 22.8624 28.1392 31.9041 26.4961 35.2842C24.853 38.6643 17.6375 43.9621 20.7429 51.1777C23.8484 58.3932 29.6016 63.2333 29.6016 67.0711C29.6016 68.0241 31.0968 71.8267 33.545 70.5451L34.8994 62.1395C34.8994 62.1395 29.0335 61.1348 27.9467 55.7455C27.9467 55.7455 26.6511 50.4312 33.4323 51.1072C33.4323 51.1072 35.9557 51.4594 36.9603 54.1705C37.9649 56.8816 38.1926 60.1021 40.6103 59.3861C40.6103 59.3861 41.7722 57.9167 41.1291 55.3042C40.4859 52.6916 39.831 50.6331 39.831 50.6331C39.831 50.6331 48.8774 52.8208 53.4875 39.4413L54.3372 37.1691C54.532 36.6479 55.2621 36.6175 55.4921 37.1245C56.823 40.0468 60.1913 46.3188 64.0738 44.9081L65.0432 48.6238L65.0408 48.6191Z" fill-rule="nonzero" fill="#000000"/>
	<path id="Vector" d="M74.3735 94.9592C74.3735 94.9592 89.8867 117.366 95.4874 130.276C101.09 143.186 76.9415 148.555 76.9415 148.555" stroke="#000000"/>
	<path id="Vector" d="M58.9192 87.6521C65.1841 90.9852 72.8714 134.286 72.8714 134.286L76.2844 132.941L85.7416 129.22L91.3445 127.016L96.4194 125.018L88.725 109.742C73.2681 84.8636 58.9192 87.6521 58.9192 87.6521Z" fill-rule="nonzero" fill="#E6E7E8"/>
	<path id="Vector" d="M73.24 104.355C75.1671 108.623 76.1483 129.788 76.2844 132.941L85.7416 129.22C84.1314 122.46 73.24 104.355 73.24 104.355Z" fill-rule="nonzero" fill="#000000"/>
	<path id="Vector" d="M38.6552 148.081C34.0287 150.113 28.4022 149.069 24.0926 147.707C19.4638 146.245 15.1283 140.867 15.1588 141.872L15.1588 155.477L77.0473 155.477C77.0473 155.477 77.8242 123.697 74.9019 107.623C72.7729 95.9241 64.8462 91.1896 60.6821 89.4761C60.8088 90.1474 60.4403 90.9102 58.9169 91.6379C58.9169 91.6379 62.013 93.943 56.8724 95.7034C56.5274 95.8208 56.1823 95.9099 55.8396 95.9686C52.7342 96.5343 49.8775 95.0157 49.8775 95.0157C49.8775 95.0157 58.4897 139.36 38.6552 148.076L38.6552 148.081Z" fill-rule="nonzero" fill="#E6E7E8"/>
	<path id="Vector" d="M3.11252 127.718L8.77417 125.241L10.0253 124.643C10.0393 124.634 10.0581 124.629 10.0769 124.619C12.6918 123.537 18.9097 121.542 25.6089 123.648C26.0009 123.774 26.4164 123.526 26.5009 123.12C27.6815 117.096 32.2939 107.217 36.8359 97.3581C33.5403 95.5366 29.6016 89.476 31.4278 83.6899C31.4278 83.6899 19.0036 81.1924 12.2481 91.6073C5.48798 102.017 1.83325 117.667 3.11252 127.713L3.11252 127.718Z" fill-rule="nonzero" fill="#E6E7E8"/>
	<path id="Vector" d="M64.433 44.9036C64.433 44.9036 71.4326 69.4444 61.7148 75.6693" stroke="#000000"/>
	<path id="Vector" d="M67.1393 38.7558C67.1393 38.7558 63.9892 46.0019 58.2008 40.3074C57.4403 39.5586 56.7878 38.7065 56.2174 37.8051L54.6259 35.2842C54.6259 35.2842 51.7036 52.1823 39.8287 50.6284C39.8287 50.6284 43.2087 60.0363 40.0117 59.3979C36.8148 58.7594 38.5494 50.8115 31.9746 50.9946C25.3999 51.1777 27.2261 60.494 34.897 62.1371L31.4254 83.6922" stroke="#000000"/>
	<path id="Vector" d="M56.8723 95.8277C62.0105 94.0696 58.9167 91.7645 58.9167 91.7645C62.9353 89.8468 58.9167 87.6544 58.9167 87.6544C63.6653 84.549 58.4543 83.1031 58.4543 83.1031C68.7753 82.5562 61.7123 75.6739 61.7123 75.6739C56.1962 81.0468 45.4903 77.6081 45.4903 77.6081C45.4903 77.6081 41.2886 63.7239 35.9908 69.3878C35.9908 69.3878 33.6154 73.2233 37.2701 76.3288C37.2701 76.3288 44.211 80.1643 43.1148 83.4528C42.0515 86.6404 28.2401 114.484 26.4937 123.368C26.4139 123.774 25.9984 124.023 25.6041 123.899C16.7666 121.12 8.77173 125.469 8.77173 125.469C10.6683 144.44 23.3225 148.536 29.7306 149.383C32.7563 149.785 35.8617 149.444 38.6526 148.205C58.459 139.419 49.875 95.1422 49.875 95.1422C49.875 95.1422 52.734 96.6609 55.8371 96.0952L55.8394 96.0952C56.1822 96.0319 56.5272 95.945 56.8723 95.8277Z" stroke="#000000"/>
	<path id="Vector" d="M28.7424 116.125C28.7424 116.125 26.0688 123.394 25.8247 126.622" stroke="#000000"/>
	<path id="Vector" d="M63.1678 53.5298C63.1678 54.1988 62.6255 54.741 61.9565 54.741C61.2876 54.741 60.7454 54.1988 60.7454 53.5298C60.7454 52.8609 61.2876 52.3186 61.9565 52.3186C62.6255 52.3186 63.1678 52.8609 63.1678 53.5298Z" fill-rule="evenodd" fill="#000000"/>
	<path id="Vector" d="M52.4805 53.5298C52.4805 54.1988 51.9382 54.741 51.2693 54.741C50.6004 54.741 50.0581 54.1988 50.0581 53.5298C50.0581 52.8609 50.6004 52.3186 51.2693 52.3186C51.9382 52.3186 52.4805 52.8609 52.4805 53.5298Z" fill-rule="evenodd" fill="#000000"/>
	<path id="Vector" d="M56.9733 68.4937C56.9733 68.4937 59.6234 67.4515 57.7456 67.0267C55.8677 66.6018 48.1123 67.9843 48.1123 67.9843" stroke="#000000"/>
	<path id="Vector" d="M57.0014 51.8467C57.0014 51.8467 60.3651 61.3462 59.7548 62.1372C59.1468 62.9282 56.4521 63.508 56.4521 63.508" stroke="#000000"/>
	<path id="Vector" d="M54.0931 50.5064C54.0931 50.5064 49.9314 48.0816 47.0161 50.5064" stroke="#000000"/>
	<path id="Vector" d="M65.041 50.5065C65.041 50.5065 62.7852 45.5749 59.3159 50.7506" stroke="#000000"/>
	<path id="Vector" d="M30.4209 56.823C30.4209 56.823 34.0733 52.382 36.998 58.9497" stroke="#000000"/>
	<path id="Vector" d="M59.6257 83.0021C59.6257 83.0021 55.4475 83.6007 51.7036 82.46" stroke="#000000"/>
	<path id="Vector" d="M59.2618 87.5302C59.2618 87.5302 54.9006 88.9926 50.5159 87.3706" stroke="#000000"/>
	<path id="Vector" d="M59.1327 91.6568C59.1327 91.6568 55.586 92.8961 52.5486 91.5042" stroke="#000000"/>
	<path id="Vector" d="M28.6626 13.1307C28.5076 12.5063 28.6884 11.8304 29.0968 11.3351C29.5639 10.7694 30.2704 10.5182 30.9911 10.5487C31.7117 10.5792 32.5074 10.9243 32.8736 11.5628C33.2398 12.2012 33.0825 13.004 32.7515 13.6072C32.2868 14.4546 31.4934 15.0696 30.754 15.6635C30.5075 15.8606 30.5474 16.2902 30.754 16.4944C31.4558 17.1845 32.0497 17.952 32.5379 18.8065C32.9135 19.4613 33.9275 18.8722 33.5519 18.2149C33.0168 17.2807 32.3525 16.4216 31.5849 15.6658L31.5849 16.4968C32.4182 15.8278 33.2797 15.1212 33.789 14.1612C34.2984 13.2011 34.4392 12.0322 33.9322 11.0534C32.9182 9.10043 29.8925 8.85397 28.4091 10.3539C27.611 11.159 27.2589 12.3421 27.5312 13.4453C27.7119 14.1776 28.8433 13.8678 28.6626 13.1331L28.6626 13.1307Z" fill-rule="nonzero" fill="#231F20"/>
	<path id="Vector" d="M34.998 20.8252C34.998 21.2258 34.6732 21.5504 34.2727 21.5504C33.8721 21.5504 33.5474 21.2258 33.5474 20.8252C33.5474 20.4246 33.8721 20.0999 34.2727 20.0999C34.6732 20.0999 34.998 20.4246 34.998 20.8252Z" fill-rule="evenodd" fill="#231F20"/>
	<path id="Vector" d="M47.1545 6.16382C47.6826 5.49014 48.4713 5.12628 49.3281 5.13803C50.1848 5.14975 50.9759 5.60751 51.497 6.28589C52.0181 6.96423 52.3279 7.95715 52.1026 8.8139C51.8772 9.67065 51.1261 10.187 50.3327 10.4241C49.084 10.7973 47.7507 10.4593 46.5207 10.1659C46.117 10.0696 45.8213 10.349 45.779 10.7316C45.6452 11.9076 45.3283 13.0602 44.88 14.154C44.7603 14.4474 45.0114 14.7994 45.2907 14.8769C45.6264 14.9684 45.8917 14.7619 46.0137 14.4661C46.5043 13.2667 46.8071 12.0179 46.955 10.7316L46.2133 11.2973C47.6122 11.6283 49.1004 11.9663 50.5276 11.5907C51.6425 11.2973 52.673 10.5696 53.119 9.4805C54.0532 7.19659 52.2411 4.35638 49.868 4.01367C48.5676 3.8259 47.1569 4.28128 46.3329 5.33521C46.1381 5.58405 46.0888 5.92206 46.3329 6.16617C46.5348 6.36804 46.9667 6.41733 47.1639 6.16617L47.1545 6.16382Z" fill-rule="nonzero" fill="#231F20"/>
	<path id="Vector" d="M45.0257 17.1891C45.0257 17.6714 44.6347 18.0623 44.1525 18.0623C43.6702 18.0623 43.2793 17.6714 43.2793 17.1891C43.2793 16.7068 43.6702 16.3159 44.1525 16.3159C44.6347 16.3159 45.0257 16.7068 45.0257 17.1891Z" fill-rule="evenodd" fill="#231F20"/>
	<path id="Vector" d="M0 155.644L255.936 155.644" stroke="#000000"/>
</svg>
