<svg width="183.899887" height="163.998810" viewBox="0 0 183.9 163.999" fill="none" xmlns="http://www.w3.org/2000/svg" xmlns:xlink="http://www.w3.org/1999/xlink">
	<desc>
			Created with Pixso.
	</desc>
	<defs/>
	<path id="Vector" d="M167.534 162.848L76.9435 162.848C76.9435 162.848 70.4603 99.8004 82.4901 78.2101C82.6168 77.9872 82.7389 77.7712 82.868 77.5599C82.868 77.5599 92.7219 60.9435 117.305 60.0938C117.972 60.0657 118.648 60.0539 119.342 60.0609L119.819 60.0609C119.819 60.0609 120.286 59.8544 121.136 59.6103L121.14 59.6103C121.401 59.5375 121.697 59.4601 122.028 59.3826L122.117 59.3661C122.173 59.3497 122.227 59.338 122.284 59.3263L122.312 59.3216C122.762 59.2206 123.272 59.1267 123.833 59.0493C124.227 58.9929 124.65 58.9437 125.098 58.9061C130.588 58.439 139.677 59.6501 149.059 69.4383C164.058 85.0759 167.534 162.848 167.534 162.848Z" fill-rule="nonzero" fill="#E5E6E8"/>
	<path id="Vector" d="M125.098 58.9062C125.359 85.86 107.141 86.874 107.141 86.874L90.2973 80.0505C87.5393 79.6679 84.9127 79.013 82.4926 78.2079C73.1833 75.1376 66.8198 69.9243 66.8198 69.9243C52.5624 58.7113 54.3017 40.541 54.3017 40.541L98.3697 39.2758C102.693 45.5383 105.698 42.9352 105.698 42.9352C105.698 42.9352 104.116 41.4541 102.827 39.1373C101.851 37.3769 100.818 35.1681 102.088 32.5931C105.008 26.6803 112.535 29.0464 113.174 33.4593C114.195 40.5199 109.892 42.9141 109.892 42.9141L117.303 60.0962L117.486 60.5281L119.34 60.061L121.134 59.6103L121.138 59.6103L122.026 59.3827L122.115 59.3662L122.216 59.3381L122.281 59.3263L122.31 59.3216L123.831 59.0493C124.225 58.993 124.647 58.9437 125.096 58.9062L125.098 58.9062Z" fill-rule="nonzero" fill="#FFFFFF"/>
	<path id="Vector" d="M111.923 54.8103C113.827 60.5916 113.465 65.366 112.547 68.8047C111.467 72.8421 108.62 76.1189 104.801 77.8184C88.3256 85.1489 67.4888 72.5886 62.6839 66.6148C52.2573 53.6437 54.2994 40.5458 54.2994 40.5458C54.2994 40.5458 71.1482 58.5777 83.8024 46.8295C83.8024 46.8295 100.107 49.5946 97.7594 37.3582C97.7594 37.3582 100.628 45.3977 105.696 42.9354C105.696 42.9354 101.062 38.445 101.639 34.2457C102.219 30.0464 106.564 27.2156 111.052 30.3352C115.207 33.2223 113.369 41.0106 109.892 42.9142L122.103 71.2389" stroke="#000000"/>
	<path id="Vector" d="M121.516 58.8217C121.516 58.8217 122.061 61.906 118.876 37.8652C115.69 13.8243 104.973 0.355591 80.4975 0.501129C56.0224 0.646667 54.2995 20.9201 54.2995 20.9201C54.2995 20.9201 41.6852 25.1194 40.9622 36.1986C40.2392 47.2778 47.2036 59.0071 47.6308 64.8002C48.058 70.5933 43.5325 85.8343 43.5325 85.8343L74.0448 76.0062" stroke="#000000"/>
	<path id="Vector" d="M109.2 106.176L116.378 132.127L72.148 154.255L27.9182 135.583L33.5634 102.629L72.9109 127.121L109.2 106.176Z" fill-rule="nonzero" fill="#F480FF"/>
	<path id="Vector" d="M90.0554 55.6411C90.0554 55.6411 94.7265 56.8358 95.595 52.383" stroke="#000000"/>
	<path id="Vector" d="M72.4321 66.9901C72.4321 66.9901 77.1031 68.1849 77.9716 63.7321" stroke="#000000"/>
	<path id="Vector" d="M92.8254 73.4546C92.8254 73.4546 99.6137 73.3466 100.916 64.657" stroke="#000000"/>
	<path id="Vector" d="M71.4815 57.8921C71.4815 57.8921 68.0052 57.7067 67.6789 60.5305" stroke="#000000"/>
	<path id="Vector" d="M91.9544 46.7119C91.9544 46.7119 88.4781 46.5265 88.1518 49.3503" stroke="#000000"/>
	<path id="Vector" d="M110.162 33.7998C110.162 33.7998 107.505 31.5651 106.202 38.5154" stroke="#000000"/>
	<path id="Vector" d="M54.2994 40.5433C54.2994 40.5433 64.4185 52.4769 76.8027 50.5287C76.8027 50.5287 81.5677 49.6344 83.8024 46.827C83.8024 46.827 93.3206 48.5429 96.25 44.353C96.25 44.353 97.879 44.2004 97.933 38.5153C97.933 38.5153 101.571 45.6487 105.698 42.9329C105.698 42.9329 101.268 39.4049 101.799 33.4569C101.799 33.4569 104.311 25.8305 111.411 30.6049C111.411 30.6049 117.138 36.0482 109.897 42.9117L117.455 60.6783L122.03 59.3826C122.03 59.3826 118.753 34.1704 117.232 29.0088C115.711 23.8471 111.291 -1.01764 77.974 0.59259C77.974 0.59259 57.9728 0.320282 54.3017 20.9224C54.3017 20.9224 39.7298 25.2743 40.9973 40.0246C40.9973 40.0246 42.5395 51.1225 45.7693 57.8897C45.7693 57.8897 47.9289 61.8168 47.6589 65.4339C47.389 69.0511 43.4502 83.3437 43.4502 83.3437L72.4344 74.0015C72.4344 74.0015 71.2022 73.5203 69.3783 72.3959C63.9068 69.0229 53.114 59.8591 54.3017 40.5457L54.2994 40.5433Z" fill-rule="nonzero" fill="#000000"/>
	<path id="Vector" d="M82.4902 78.2102C82.4902 78.2102 70.3642 73.3419 68.0802 71.2153L67.3667 75.032L82.4784 80.0505L82.4902 78.2079L82.4902 78.2102Z" fill-rule="nonzero" fill="#000000"/>
	<path id="Vector" d="M70.9416 162.846L183.9 162.846" stroke="#000000"/>
	<path id="Vector" d="M70.1623 132.043L121.596 144.474L110.275 111.232L70.1623 132.043Z" fill-rule="nonzero" fill="#43305E"/>
	<path id="Vector" d="M41.7789 112.11C41.7789 112.11 44.4243 138.413 77.9412 145.199C77.9412 145.199 83.7647 149.274 74.2066 153.349C64.4607 157.504 3.50649 148.392 28.6459 103.946L41.7789 112.11Z" fill-rule="nonzero" fill="#FFFFFF"/>
	<path id="Vector" d="M77.9412 145.199C77.9412 145.199 83.7647 149.274 74.2066 153.349C64.4607 157.504 3.50649 148.392 28.6459 103.946L41.7789 112.11C41.7789 112.11 44.4243 138.413 77.9412 145.199Z" stroke="#000000"/>
	<path id="Vector" d="M68.4134 138.981C68.4134 138.981 69.0683 130.806 55.6231 121.297C55.6231 121.297 50.0131 115.832 48.6681 123.593C48.6681 123.593 49.0084 127.081 54.0128 129.158C54.0128 129.158 55.2076 129.728 54.7499 130.156C54.2922 130.583 53.1702 129.794 52.6162 129.442C52.0623 129.09 38.1382 119.149 37.8518 119.036C37.5655 118.924 33.8731 118.457 33.4741 123.031C33.4741 123.031 34.0985 126.221 34.7205 126.557C35.3426 126.893 32.2676 126.867 32.7981 129.785C33.3286 132.702 35.46 134.099 35.46 134.099C35.46 134.099 32.216 134.932 35.4881 139.249L37.6101 141.373C37.6101 141.373 35.4482 141.383 36.6429 143.451C37.8377 145.518 43.0604 149.338 47.8606 150.063C52.6585 150.788 55.271 150.732 55.271 150.732L63.463 155.269L70.5424 158.231C70.5424 158.231 84.8092 162.672 91.1774 162.649C97.5456 162.623 107.125 162.238 116.378 157.281C116.378 157.281 124.225 154.255 131.626 144.474C138.916 134.836 138.466 134.51 138.466 134.51C138.466 134.51 151.902 117.18 153.089 107.807C153.089 107.807 155.988 95.9908 154.779 89.5287C153.57 83.0667 149.986 71.4382 138.583 71.2786C138.583 71.2786 129.802 68.8773 123.96 84.4328C123.96 84.4328 118.453 94.4674 116.643 107.45C116.643 107.45 114.547 115.246 109.928 124.506C108.982 126.402 107.852 128.005 106.207 129.9C106.207 129.9 98.2592 137.326 82.5253 138.991C78.3566 139.432 73.6878 139.948 68.4181 139.244L68.4134 138.981Z" fill-rule="nonzero" fill="#FFFFFF"/>
	<path id="Vector" d="M53.7899 137.606C53.7899 137.606 43.0159 132.768 36.589 128.524C30.1645 124.283 34.4812 117.997 37.3495 118.875C39.8353 119.635 54.2125 131.82 54.534 130.106C54.8556 128.393 45.7716 126.585 48.9944 121.142C51.107 117.572 55.4706 120.248 61.5993 126.475C67.9065 132.883 68.275 138.416 68.1952 139.19C68.1952 139.19 102.63 142.413 110.162 123.942C117.692 105.472 121.596 90.4397 121.596 90.4397C125.795 72.8891 134.466 70.7014 134.466 70.7014C163.154 71.1356 160.202 107.558 132.804 142.993C102.383 182.336 55.0528 150.68 55.0528 150.68C48.4241 151.166 43.9595 149.061 38.8941 145.584C33.3287 141.765 37.6899 141.265 37.6899 141.265" stroke="#000000"/>
	<path id="Vector" d="M34.3589 126.478C34.3589 126.478 30.4108 127.543 33.9059 132.609C37.4034 137.674 54.5339 142.998 54.5339 142.998" stroke="#000000"/>
	<path id="Vector" d="M35.0116 133.843C35.0116 133.843 32.2982 134.928 35.4693 139.493C38.6405 144.059 50.6985 145.587 50.6985 145.587" stroke="#000000"/>
	<path id="Vector" d="M152.651 73.9734C149.125 68.3188 142.13 65.8542 135.752 67.786C130.389 69.4127 125.265 73.0603 122.971 80.8251C119.206 93.5685 111.899 118.75 111.899 118.75L148.719 130.285C148.719 130.285 160.868 95.8853 157.69 86.1042C156.216 81.5645 154.751 77.3441 152.651 73.9734Z" fill-rule="nonzero" fill="#E5E6E8"/>
	<path id="Vector" d="M115.056 108.751C113.735 111.941 111.899 118.748 111.899 118.748L148.719 130.282C148.719 130.282 158.221 106.101 157.286 89.989" stroke="#000000"/>
	<path id="Vector" d="M69.3759 72.3938L0.222618 97.2656L70.1622 132.043L135.94 97.9181L69.3759 72.3938Z" fill-rule="nonzero" fill="#F480FF"/>
	<path id="Vector" d="M38.2087 98.7912C38.2087 98.7912 17.3531 103.122 16.4846 126.395C15.6161 149.669 16.4846 159.412 16.4846 159.412" stroke="#2C292D"/>
	<path id="Vector" d="M0.222618 97.2656L70.1622 132.043L135.94 97.9182" stroke="#000000"/>
	<path id="Vector" d="M20.2497 150.537C24.5945 160.675 24.8832 163.999 24.8832 163.999L9.53194 163.999C9.53194 163.999 15.9049 140.399 20.2497 150.537Z" fill-rule="nonzero" fill="#FFC600"/>
</svg>
