<svg width="159.138626" height="195.852295" viewBox="0 0 159.139 195.852" fill="none" xmlns="http://www.w3.org/2000/svg" xmlns:xlink="http://www.w3.org/1999/xlink">
	<desc>
			Created with Pixso.
	</desc>
	<defs/>
	<path id="Vector" d="M131.924 136.591C131.924 136.591 118.092 144.668 113.942 165.382C113.942 165.382 131.276 155.106 131.924 136.591Z" fill-rule="nonzero" fill="#000000"/>
	<path id="Vector" d="M132.936 122.754C132.936 122.754 134.985 121.176 124.749 113.228C124.749 113.228 120.458 107.853 122.53 103.034C122.53 103.034 124.603 96.1987 131.312 98.3676C131.312 98.3676 131.262 82.9812 133.38 78.5425C133.38 78.5425 136.739 73.5827 138.072 77.5284C138.072 77.5284 138.928 83.9342 136.743 91.53C136.743 91.53 148.313 102.759 148.313 104.475C148.313 106.191 149.275 108.447 147.381 115.39C147.381 115.39 158.064 142.205 158.434 156.132C158.434 156.132 162.115 175.539 147.243 178.551C147.243 178.551 137.891 179.147 127.88 172.232L113.284 161.707C113.284 161.707 117.742 142.968 123.493 139.311C129.244 135.654 129.95 137.572 129.95 137.572L131.934 141.203L132.936 122.761L132.936 122.754Z" fill-rule="nonzero" fill="#FFFFFF"/>
	<path id="Vector" d="M131.934 139.975C131.934 139.975 103.928 110.003 94.4123 120.634C84.8964 131.265 98.6186 149.632 98.6186 149.632C98.9684 147.97 129.009 179.844 146.398 178.63C173.426 176.746 147.247 115.071 147.247 115.071C147.247 115.071 149.332 111.785 148.435 105.001" stroke="#000000"/>
	<path id="Vector" d="M141.999 92.5814L139.851 102.297C139.733 102.827 140.068 103.352 140.599 103.469L143.541 104.12C144.072 104.238 144.597 103.903 144.714 103.372L146.863 93.6569C146.98 93.1265 146.645 92.6015 146.115 92.4842L143.172 91.8334C142.641 91.7162 142.116 92.051 141.999 92.5814Z" fill-rule="nonzero" fill="#FFFFFF"/>
	<path id="Vector" d="M141.999 92.5814C142.116 92.051 142.641 91.7162 143.172 91.8334L146.115 92.4842C146.645 92.6015 146.98 93.1265 146.863 93.6569L144.714 103.372C144.597 103.903 144.072 104.238 143.541 104.12L140.599 103.469C140.068 103.352 139.733 102.827 139.851 102.297L141.999 92.5814Z" stroke="#000000"/>
	<path id="Vector" d="M146.472 93.8563L144.323 103.572C144.206 104.102 144.541 104.627 145.071 104.744L148.014 105.395C148.544 105.512 149.069 105.178 149.186 104.647L151.335 94.9318C151.452 94.4014 151.117 93.8764 150.587 93.7591L147.644 93.1083C147.114 92.991 146.589 93.3259 146.472 93.8563Z" fill-rule="nonzero" fill="#FFFFFF"/>
	<path id="Vector" d="M146.472 93.8563C146.589 93.3259 147.114 92.991 147.644 93.1083L150.587 93.7591C151.117 93.8764 151.452 94.4014 151.335 94.9318L149.186 104.647C149.069 105.178 148.544 105.512 148.014 105.395L145.071 104.744C144.541 104.627 144.206 104.102 144.323 103.572L146.472 93.8563Z" stroke="#000000"/>
	<path id="Vector" d="M136.077 168.695C129.457 166.934 132.025 133.523 132.924 123.735C133.081 122.021 132.546 120.324 131.434 119.012C128.518 115.573 123.291 114.761 121.92 106.757C121.627 105.05 122.45 102.459 124.103 100.297C125.77 98.1165 128.659 97.2879 131.227 98.255C133.959 99.2854 137.389 100.792 137.349 101.846C137.281 103.595 137.619 105.658 134.255 104.996C132.903 104.731 131.868 104.44 131.114 104.189C130.15 103.867 129.136 104.67 129.319 105.67C129.347 105.83 129.403 105.935 129.495 105.947C129.952 106.015 137.485 103.928 139.637 107.966" stroke="#000000"/>
	<path id="Vector" d="M136.025 95.1939C136.227 93.1753 140.858 75.3899 136.492 76.019C130.201 76.9274 131.312 98.3674 131.312 98.3674" stroke="#000000"/>
	<path id="Vector" d="M137.045 90.1547L134.897 99.87C134.78 100.4 135.115 100.925 135.645 101.043L138.588 101.693C139.118 101.811 139.643 101.476 139.76 100.946L141.909 91.2302C142.026 90.6999 141.691 90.1747 141.161 90.0575L138.218 89.4067C137.688 89.2894 137.163 89.6243 137.045 90.1547Z" fill-rule="nonzero" fill="#FFFFFF"/>
	<path id="Vector" d="M137.045 90.1547C137.163 89.6243 137.688 89.2894 138.218 89.4067L141.161 90.0575C141.691 90.1747 142.026 90.6999 141.909 91.2302L139.76 100.946C139.643 101.476 139.118 101.811 138.588 101.693L135.645 101.043C135.115 100.925 134.78 100.4 134.897 99.87L137.045 90.1547Z" stroke="#000000"/>
	<path id="Vector" d="M76.7959 113.526C76.7959 113.526 94.4169 110.67 113.662 122.61C132.898 134.546 131.927 136.591 131.927 136.591C131.927 136.591 116.819 144.377 113.944 165.382L90.7317 152.235C90.7317 152.235 70.0146 130.988 76.7983 113.526L76.7959 113.526Z" fill-rule="nonzero" fill="#E6E7E8"/>
	<path id="Vector" d="M131.924 136.591C131.924 136.591 117.653 144.355 113.942 165.382" stroke="#000000"/>
	<path id="Vector" d="M95.3958 78.1644C92.2176 75.3618 90.4148 66.8975 90.4148 66.8975C87.2812 71.6601 82.9458 69.6203 82.9458 69.6203C82.9458 69.6203 63.4892 85.6828 62.4728 88.3235C61.9658 89.6426 59.6303 93.755 58.3276 98.506C57.0248 93.7527 54.6892 89.6426 54.1822 88.3235C53.1658 85.6828 33.3572 69.5663 33.3572 69.5663C33.3572 69.5663 30.2657 71.8901 26.5054 67.2401C26.5054 67.2401 24.4398 75.3618 21.2616 78.1644C18.0834 80.9671 8.00409 92.9993 18.2899 99.2993C18.2899 99.2993 15.6257 108.813 20.1419 112.552C24.2708 115.972 33.6576 116.573 37.3147 109.663C37.3147 109.663 49.0205 120.319 56.276 112.552C57.1961 111.569 57.8628 110.484 58.3276 109.341C58.7923 110.484 59.4589 111.566 60.379 112.552C67.6321 120.319 79.3404 109.663 79.3404 109.663C82.9975 116.573 92.1448 115.66 96.5131 112.552C100.771 109.522 98.3651 99.2993 98.3651 99.2993C108.651 92.9993 98.5716 80.9671 95.3934 78.1644L95.3958 78.1644Z" fill-rule="nonzero" fill="#000000"/>
	<path id="Vector" d="M85.1333 55.6916C80.9903 56.6234 80.2229 61.5762 80.2158 61.6137C79.9107 60.9823 79.5843 60.365 79.2346 59.7665C79.2346 59.7665 71.1059 46.2179 65.4161 46.3541C59.7263 46.4902 44.9596 42.5609 38.4577 56.7854L34.7724 65.989C34.7724 65.989 34.6316 66.367 34.4133 67.043L36.3357 60.419C36.3357 60.419 34.3851 55.1493 30.7491 55.5108C30.7491 55.5108 24.3059 56.6938 24.1346 61.6184C23.9632 66.543 28.3174 71.6836 33.6081 69.8245C31.6881 77.1927 29.8571 91.1426 41.3659 98.7712C41.3659 98.7712 47.6965 101.844 50.0579 102.259L48.6283 112.233C48.6283 112.233 54.8745 120.498 62.3131 118.179C62.3131 118.179 67.8714 116.859 70.6412 111.141L69.1953 101.583C69.1953 101.583 85.1686 96.7549 84.5724 80.9037C84.5724 80.9037 84.4362 75.7233 83.0184 69.7565C89.7504 71.4465 92.6447 65.0197 92.5977 62.1841C92.5484 59.3486 89.2927 54.7574 85.1333 55.6939L85.1333 55.6916Z" fill-rule="nonzero" fill="#FFFFFF"/>
	<path id="Vector" d="M50.0557 102.259L48.6262 113.526" stroke="#000000"/>
	<path id="Vector" d="M69.1931 101.583L71.0733 112.918" stroke="#000000"/>
	<path id="Vector" d="M70.6389 111.141L76.2419 112.174C95.1845 115.662 108.937 132.178 108.937 151.439L108.937 194.874L12.5884 194.874L12.5884 151.97C12.5884 131.427 24.1299 112.784 48.6238 112.233C48.6238 112.233 60.8156 126.908 70.6366 111.141L70.6389 111.141Z" fill-rule="nonzero" fill="#E6E7E8"/>
	<path id="Vector" d="M3.43398 166.288L0.312027 164.554C0.312027 164.554 3.16632 162.253 13.3934 162.052C13.3934 162.052 24.367 161.695 30.7469 164.558L26.4256 166.288C26.4256 166.288 10.1402 168.018 3.43398 166.288Z" fill-rule="nonzero" fill="#000000"/>
	<path id="Vector" d="M45.0676 42.4036C45.0676 42.4036 25.7002 75.7303 34.2842 91.1754C40.082 101.609 51.518 103.137 58.3321 103.032C65.1463 103.137 76.5822 101.609 82.38 91.1754C90.9617 75.7303 71.5966 42.4036 71.5966 42.4036L71.5943 42.4036L45.0676 42.4036Z" stroke="#000000"/>
	<path id="Vector" d="M80.2158 61.0293C80.2158 61.0293 82.2227 52.4969 89.2012 56.6281C97.8838 61.771 87.7506 73.1671 82.9293 69.6954" stroke="#000000"/>
	<path id="Vector" d="M89.2012 60.4893C89.2012 60.4893 84.7977 57.5764 82.7673 63.4704" stroke="#000000"/>
	<path id="Vector" d="M36.5144 61.0293C36.5144 61.0293 34.5075 52.4969 27.529 56.6281C18.8464 61.771 28.9796 73.1671 33.8009 69.6954" stroke="#000000"/>
	<path id="Vector" d="M27.5288 60.4893C27.5288 60.4893 31.9323 57.5764 33.9626 63.4704" stroke="#000000"/>
	<path id="Vector" d="M30.747 164.286C30.747 164.286 15.4262 158.949 0.185318 164.286" stroke="#000000"/>
	<path id="Vector" d="M70.1342 39.1082C65.0547 37.3524 58.6701 36.3877 54.3934 37.8641C54.3769 37.8641 54.3653 37.8688 54.3653 37.8688C54.3653 37.8688 36.0682 34.8667 30.7469 50.4878L28.3667 56.18C28.3667 56.18 34.2326 52.6684 36.5141 61.0271C36.5141 61.0271 46.5089 57.1283 52.2832 51.9243C56.1961 56.0204 68.3832 67.015 80.636 59.7689C80.636 59.7689 82.3566 55.0368 85.9831 55.4969C89.2012 55.9077 80.3144 42.6268 70.1342 39.1082Z" fill-rule="nonzero" fill="#000000"/>
	<path id="Vector" d="M38.892 181.907L35.6738 132.131L99.1984 133.743L97.8792 183.224L38.892 181.907Z" fill-rule="nonzero" fill="#F480FF"/>
	<path id="Vector" d="M35.6738 132.131L38.0047 122.014L96.6164 122.756L99.1984 133.744L35.6738 132.131Z" fill-rule="nonzero" fill="#F480FF"/>
	<path id="Vector" d="M40.8286 131.324L42.0399 125.068L97.1587 125.068L98.6304 131.324L40.8286 131.324Z" fill-rule="nonzero" fill="#FFFFFF"/>
	<path id="Vector" d="M98.6302 131.323L40.8284 131.323L42.0396 125.068L97.1585 125.068" stroke="#000000"/>
	<path id="Vector" d="M26.9045 163.099L25.4938 176.802L64.4868 177.539C64.4868 177.539 70.0428 170.633 73.9041 170.075C73.9041 170.075 84.197 166.342 85.5513 170.826C86.4199 173.699 84.4903 174.215 82.4482 174.473C80.4061 174.732 75.735 175.112 75.6059 176.844C75.5097 178.138 75.2539 178.471 76.2444 179.098C77.3335 179.788 80.1737 179.318 81.744 179.048C83.3143 178.778 91.2458 177.307 91.2458 177.307C91.2458 177.307 97.3793 176.609 97.2901 178.483C97.2009 180.356 95.0977 181.928 95.0977 181.928C95.0977 181.928 100.867 181.464 100.771 184.203C100.771 184.203 100.898 187.071 95.9545 187.29C95.9545 187.29 96.1775 187.933 96.2761 188.895C96.377 189.858 95.2151 191.691 93.7738 191.548C92.3326 191.404 90.2975 191.879 90.2975 191.879C90.2975 191.879 92.9007 192.099 93.417 193.458C93.6494 194.069 92.159 194.848 91.2247 194.989C90.2882 195.13 73.8712 195.256 73.8712 195.256L66.7285 195.256L6.48312 194.728C6.48312 194.728 2.57722 194.174 1.82375 184.306L3.96919 163.207C3.96919 163.207 9.84444 159.779 26.9092 163.101L26.9045 163.099Z" fill-rule="nonzero" fill="#FFFFFF"/>
	<path id="Vector" d="M95.0814 181.9C95.0814 181.9 99.5553 181.891 100.213 182.914C101.168 184.4 100.09 186.64 98.4004 187.046C96.7103 187.452 78.8945 187.79 78.8945 187.79" stroke="#000000"/>
	<path id="Vector" d="M95.553 187.29C95.553 187.29 97.1163 189.487 95.6258 190.975C94.1353 192.465 78.5117 191.397 78.5117 191.397" stroke="#000000"/>
	<path id="Vector" d="M90.8514 191.778C90.8514 191.778 94.5437 192.794 93.1212 194.43C91.6988 196.066 69.1367 194.871 69.1367 194.871C69.1367 194.871 15.4004 195.533 7.30696 194.871C0.253387 194.294 2.01378 179.349 2.01378 179.349C2.01378 179.349 2.826 165.711 7.30696 143.696C7.30696 143.696 19.4917 131.842 28.4325 143.696L25.4937 176.804L65.0782 177.159C65.0782 177.159 70.937 170.084 77.1362 168.894C79.3849 168.462 84.1804 168.082 85.401 170.453C86.0606 171.734 85.9432 174.856 80.6829 174.718C77.2442 174.628 76.2584 175.788 75.8241 176.408C75.1059 177.431 75.7513 179.098 76.8005 179.191C84.0959 179.853 97.1868 173.884 97.1891 179.123C97.1938 185.191 76.8005 183.527 76.8005 183.527" stroke="#000000"/>
	<path id="Vector" d="M36.5119 115.385L30.747 164.284C13.9616 159.002 0.185318 164.284 0.185318 164.284L1.82143 153.005C6.18268 118.211 36.5119 115.385 36.5119 115.385Z" fill-rule="nonzero" fill="#E6E7E8"/>
	<path id="Vector" d="M49.7904 70.3411C49.7904 71.1877 49.1042 71.8739 48.2577 71.8739C47.4112 71.8739 46.7249 71.1877 46.7249 70.3411C46.7249 69.4946 47.4112 68.8083 48.2577 68.8083C49.1042 68.8083 49.7904 69.4946 49.7904 70.3411Z" fill-rule="evenodd" fill="#231F20"/>
	<path id="Vector" d="M71.6671 71.2447C71.6671 72.0912 70.9808 72.7775 70.1343 72.7775C69.2878 72.7775 68.6016 72.0912 68.6016 71.2447C68.6016 70.3982 69.2878 69.7119 70.1343 69.7119C70.9808 69.7119 71.6671 70.3982 71.6671 71.2447Z" fill-rule="evenodd" fill="#231F20"/>
	<path id="Vector" d="M57.5083 70.78L56.3699 83.4601L61.6795 83.4601" stroke="#231F20"/>
	<path id="Vector" d="M50.6189 66.8976C50.6189 66.8976 46.9689 64.1043 44.0935 67.6416" stroke="#231F20"/>
	<path id="Vector" d="M73.397 67.0501C73.397 67.0501 69.747 64.2569 66.8716 67.7943" stroke="#231F20"/>
	<path id="Vector" d="M68.0054 89.6521C63.1607 96.5085 56.3699 91.8633 56.3699 91.8633L68.0054 89.6521Z" fill-rule="nonzero" fill="#000000"/>
	<path id="Vector" d="M0.185318 164.286C0.185318 164.286 12.3607 159.427 30.747 164.286" stroke="#000000"/>
	<path id="Vector" d="M7.3047 194.871L121.861 194.871" stroke="#000000"/>
	<path id="Vector" d="M134.394 18.8791C130.514 13.6752 124.88 13.2104 122.934 13.2151C120.988 13.2104 115.355 13.6752 111.475 18.8791C108.768 22.5103 107.839 27.1791 108.951 31.5709C109.489 33.6928 110.55 35.9744 112.569 37.8522C113.735 38.9366 114.728 40.1971 115.486 41.5961C116.054 42.643 116.55 43.7744 116.58 44.5795C116.653 46.516 116.58 49.0253 116.58 49.0253L129.286 49.0253C129.286 49.0253 129.213 46.516 129.286 44.5795C129.316 43.7744 129.809 42.643 130.38 41.5961C131.14 40.1948 132.133 38.9366 133.297 37.8522C135.316 35.9744 136.377 33.6928 136.915 31.5709C138.027 27.1791 137.1 22.5103 134.391 18.8791L134.394 18.8791Z" fill-rule="nonzero" fill="#F6A617"/>
	<path id="Vector" d="M114.005 48.1099L131.706 48.1099C132.462 48.1099 133.074 48.7226 133.074 49.4783L133.074 52.7434C133.074 53.4992 132.462 54.1119 131.706 54.1119L114.005 54.1119C113.249 54.1119 112.637 53.4992 112.637 52.7434L112.637 49.4783C112.637 48.7226 113.249 48.1099 114.005 48.1099Z" fill-rule="evenodd" fill="#F480FF"/>
	<path id="Vector" d="M114.561 53.2927L130.981 53.2927C131.516 53.2927 131.95 53.7267 131.95 54.2621L131.95 56.5719C131.95 57.1073 131.516 57.5413 130.981 57.5413L114.561 57.5413C114.026 57.5413 113.592 57.1073 113.592 56.5719L113.592 54.2621C113.592 53.7267 114.026 53.2927 114.561 53.2927Z" fill-rule="evenodd" fill="#F480FF"/>
	<path id="Vector" d="M117.324 56.8958L128.216 56.8958C128.741 56.8958 129.166 57.3214 129.166 57.8464L129.166 60.1163C129.166 60.6413 128.741 61.0669 128.216 61.0669L117.324 61.0669C116.799 61.0669 116.374 60.6413 116.374 60.1163L116.374 57.8464C116.374 57.3214 116.799 56.8958 117.324 56.8958Z" fill-rule="evenodd" fill="#F480FF"/>
	<path id="Vector" d="M124.166 48.2271L123.596 48.213C123.598 48.0956 123.887 36.5259 124.077 33.9204C124.098 33.6411 124.152 33.3571 124.239 33.0777C123.936 33.0613 123.634 33.0566 123.343 33.0777C122.042 33.174 121.263 33.1505 120.695 33.1176C120.716 33.1857 120.735 33.2538 120.753 33.3218C121.183 34.8405 121.509 36.9132 121.728 39.4811C122.094 43.8353 122.016 48.1801 122.014 48.2247L121.444 48.213C121.444 48.1707 121.523 43.8517 121.157 39.5257C120.897 36.4414 120.507 34.411 120.087 33.0824C119.669 33.0636 119.303 33.073 118.723 33.188C118.463 33.2397 118.233 33.2632 118.026 33.2632C117.186 33.2632 116.782 32.89 116.604 32.6317C116.273 32.1529 116.284 31.4816 116.634 30.9206C116.812 30.6319 117.066 30.4042 117.366 30.2586C117.697 30.0967 118.078 30.0427 118.47 30.1014C118.988 30.1788 119.453 30.5333 119.852 31.153C120.087 31.5144 120.303 31.9792 120.5 32.5355C121.101 32.5731 121.852 32.6177 123.296 32.5097C123.676 32.4815 124.066 32.4909 124.453 32.5191C124.629 32.1459 124.859 31.7867 125.136 31.4651C125.737 30.7704 126.453 30.3666 127.051 30.3854C127.443 30.3971 127.767 30.5826 127.993 30.9206C128.216 31.2562 128.331 31.7422 128.338 32.3595C128.34 32.6646 128.244 32.9064 128.051 33.0777C127.594 33.4838 126.732 33.3712 125.643 33.2256C125.38 33.1904 125.103 33.1552 124.821 33.1247C124.725 33.4017 124.664 33.6857 124.643 33.9603C124.455 36.5517 124.166 48.1097 124.164 48.2247L124.166 48.2271ZM125.065 32.5778C125.288 32.6036 125.509 32.6317 125.72 32.6599C126.551 32.7702 127.413 32.8829 127.676 32.6505C127.716 32.6154 127.772 32.5449 127.77 32.3665C127.765 31.8665 127.678 31.4745 127.521 31.2351C127.401 31.0544 127.244 30.9628 127.04 30.9557C126.617 30.9417 126.056 31.2797 125.575 31.8383C125.378 32.0684 125.206 32.3172 125.068 32.5778L125.065 32.5778ZM118.171 30.6483C117.735 30.6483 117.352 30.8525 117.122 31.221C116.897 31.5825 116.878 32.0191 117.075 32.3055C117.322 32.6622 117.866 32.7773 118.613 32.6294C119.143 32.5238 119.517 32.5003 119.885 32.505C119.348 31.106 118.784 30.7257 118.388 30.6647C118.315 30.653 118.242 30.6483 118.171 30.6483Z" fill-rule="nonzero" fill="#050403"/>
	<path id="Vector" d="M133.574 24.8975C133.288 24.8975 133.027 24.698 132.964 24.4069C132.443 22.0268 131.427 20.1208 129.941 18.7429C128.835 17.7172 127.866 17.3815 127.856 17.3792L127.859 17.3792L128.246 16.1914C128.293 16.2078 129.434 16.5881 130.732 17.7711C131.483 18.4565 132.14 19.2734 132.685 20.2029C133.361 21.3531 133.865 22.677 134.185 24.137C134.257 24.475 134.044 24.8083 133.708 24.881C133.664 24.8904 133.619 24.8951 133.574 24.8951L133.574 24.8975Z" fill-rule="nonzero" fill="#FFFFFF"/>
	<path id="Vector" d="M133.072 32.16C132.952 32.16 132.832 32.1248 132.725 32.0544C132.438 31.8619 132.361 31.4746 132.553 31.1859C133.628 29.5804 133.34 26.8646 133.335 26.8387C133.297 26.496 133.544 26.1862 133.886 26.1486C134.229 26.111 134.539 26.3552 134.577 26.6979C134.591 26.827 134.922 29.8925 133.591 31.8807C133.471 32.0614 133.271 32.1577 133.07 32.1577L133.072 32.16Z" fill-rule="nonzero" fill="#FFFFFF"/>
	<path id="Vector" d="M132.105 54.403L113.765 54.403C113.552 54.403 113.381 54.2292 113.381 54.018C113.381 53.8067 113.554 53.6331 113.765 53.6331L132.105 53.6331C132.318 53.6331 132.49 53.8067 132.49 54.018C132.49 54.2292 132.316 54.403 132.105 54.403Z" fill-rule="nonzero" fill="#000000"/>
	<path id="Vector" d="M128.932 58.2782L116.758 58.2782C116.545 58.2782 116.374 58.1045 116.374 57.8932C116.374 57.682 116.547 57.5083 116.758 57.5083L128.932 57.5083C129.145 57.5083 129.316 57.682 129.316 57.8932C129.316 58.1045 129.143 58.2782 128.932 58.2782Z" fill-rule="nonzero" fill="#000000"/>
	<path id="Vector" d="M123.861 8.50421L123.861 0" stroke="#000000"/>
	<path id="Vector" d="M135.6 12.7433L139.407 6.56763" stroke="#000000"/>
	<path id="Vector" d="M112.122 12.6823L108.209 6.56763" stroke="#000000"/>
</svg>
