<svg width="236.602905" height="187.027466" viewBox="0 0 236.603 187.027" fill="none" xmlns="http://www.w3.org/2000/svg" xmlns:xlink="http://www.w3.org/1999/xlink">
	<desc>
			Created with Pixso.
	</desc>
	<defs/>
	<path id="Vector" d="M189.331 103.647C186.641 76.2593 153.706 72.4379 153.706 72.4379C153.166 78.4634 153.138 84.6086 149.77 88.275C143.901 94.6643 138.864 94.8193 134.214 93.7607C122.339 91.0543 125.583 78.001 125.583 78.001C99.9603 95.1831 98.9229 121.724 98.6764 140.023C98.6764 140.023 98.6553 155.457 98.6764 156.961L102.636 182.115L189.551 182.115C189.551 182.115 190.577 116.36 189.331 103.647Z" fill-rule="nonzero" fill="#E6E7E8"/>
	<path id="Vector" d="M152.11 18.3353C149.432 8.82175 133.935 -0.0932007 120.741 0.566376C120.741 0.566376 105.845 1.87616 97.7587 13.9412C97.7587 13.9412 84.088 19.178 85.1537 33.9072C85.1537 33.9072 84.8016 44.0334 88.9235 47.6388C93.0476 51.2442 95.6038 50.3405 95.6038 50.3405C95.6038 50.3405 93.8903 37.8201 94.5827 29.6868L94.8221 26.0016C95.3878 29.8229 99.7584 44.0169 133.397 37.7826C133.81 37.7192 134.198 37.6487 134.55 37.5666C134.555 37.5666 134.562 37.5666 134.566 37.5642C134.721 37.529 134.872 37.4915 135.012 37.4515C135.012 37.4515 135.777 46.7069 138.385 48.5167C138.385 48.5167 140.524 49.2326 140.585 48.3265C140.643 47.4181 139.338 42.8058 141.277 40.9068C143.216 39.0102 145.577 37.637 148.502 37.7685C148.502 37.7685 154.788 27.8535 152.11 18.34L152.11 18.3353ZM94.9512 23.9477C95.0099 24.0228 95.0358 24.1566 95.0499 24.3397C95.0006 24.4453 94.9513 24.5556 94.9043 24.6659L94.9512 23.9477Z" fill-rule="nonzero" fill="#000000"/>
	<path id="Vector" d="M94.8057 23.1027C94.8057 23.1027 93.2964 44.9231 96.7563 54.0188C96.7563 54.0188 100.681 72.6093 115.506 76.6935L125.541 77.4517C125.541 77.4517 123.062 88.9956 128.28 92.3757C132.627 95.1924 139.904 98.5186 147.781 92.1105C150.648 89.7773 152.767 86.6507 154.028 83.1767C155.199 79.9492 156.64 75.5387 156.603 73.4684L152.847 72.4355L146.76 57.197C146.608 56.805 146.544 56.3755 146.627 55.9623C146.73 55.4389 147.051 54.9154 147.993 55.2018C148.481 55.3497 153.164 54.1573 152.795 47.6365C152.427 41.1158 149.847 33.1679 141.277 40.9022C141.277 40.9022 140.12 43.1696 140.557 46.8994C140.557 46.8994 141.031 49.4932 139.46 48.7867C137.89 48.0778 136.165 47.2797 135.012 37.4469C135.012 37.4469 98.2562 43.3692 94.808 23.1027L94.8057 23.1027Z" fill-rule="nonzero" fill="#FFFFFF"/>
	<path id="Vector" d="M95.1931 17.9504C95.1931 17.9504 88.062 42.2166 135.01 37.4469C135.01 37.4469 135.897 48.5519 139.137 48.7866C142.373 49.019 139.301 46.0333 140.493 42.348C141.686 38.6628 150.875 32.5152 152.645 45.0309C153.575 51.608 151.117 54.5868 148.502 55.2064C147.711 55.3942 146.211 54.237 146.671 57.4011L152.845 72.8111" stroke="#000000"/>
	<path id="Vector" d="M94.8059 23.1027C94.8059 23.1027 87.1678 75.3626 122.016 77.1864C126.147 77.4024 131.175 75.6513 133.583 72.4379C135.97 69.255 138.357 65.0463 139.458 56.7721" stroke="#000000"/>
	<path id="Vector" d="M95.6016 50.3406C83.6586 50.127 84.3769 33.8298 86.1537 26.3115C87.9307 18.7932 97.7589 13.939 97.7589 13.939C97.7589 13.939 116.272 -14.5101 148.502 11.5776C148.502 11.5776 158.159 20.9855 148.502 37.7639" stroke="#000000"/>
	<path id="Vector" d="M127.034 76.2944L129.658 84.0311" stroke="#000000"/>
	<path id="Vector" d="M106.169 48.8593C106.169 49.6994 105.488 50.3804 104.648 50.3804C103.808 50.3804 103.127 49.6994 103.127 48.8593C103.127 48.0193 103.808 47.3383 104.648 47.3383C105.488 47.3383 106.169 48.0193 106.169 48.8593Z" fill-rule="evenodd" fill="#231F20"/>
	<path id="Vector" d="M123.536 47.3383C123.536 48.1784 122.855 48.8594 122.015 48.8594C121.175 48.8594 120.494 48.1784 120.494 47.3383C120.494 46.4983 121.175 45.8173 122.015 45.8173C122.855 45.8173 123.536 46.4983 123.536 47.3383Z" fill-rule="evenodd" fill="#231F20"/>
	<path id="Vector" d="M100.113 45.578C100.113 45.578 100.09 41.076 105.575 42.2496" stroke="#231F20"/>
	<path id="Vector" d="M118.821 41.0029C118.821 41.0029 121.318 37.2567 125.21 41.2963" stroke="#231F20"/>
	<path id="Vector" d="M109.993 48.322L110.533 62.0865L115.504 60.5959" stroke="#000000"/>
	<path id="Vector" d="M119.121 66.6753C119.121 66.6753 127.59 68.7855 127.952 60.3752" stroke="#000000"/>
	<path id="Vector" d="M157.708 136.014L189.551 136.014L189.551 181.732L157.708 181.732L157.708 136.014Z" fill-rule="evenodd" fill="#FFFFFF"/>
	<path id="Vector" d="M157.708 136.014L157.708 181.732" stroke="#000000"/>
	<path id="Vector" d="M189.554 136.399L189.554 182.115" stroke="#000000"/>
	<path id="Vector" d="M184.106 92.2279C181.484 87.3831 176.12 84.6673 170.637 85.1954C167.011 85.5428 162.846 86.4958 161.034 88.9323C157.502 93.6832 155.274 96.352 155.229 107.938C155.185 119.524 155.253 135.711 155.253 135.711L190.312 135.711C190.312 135.711 191.932 106.692 184.106 92.2302L184.106 92.2279Z" fill-rule="nonzero" fill="#E6E7E8"/>
	<path id="Vector" d="M190.317 136.014L155.262 136.014C155.262 136.014 155.11 122.82 155.262 105.328C155.415 87.836 166.339 86.0427 166.339 86.0427" stroke="#3F3F3F"/>
	<path id="Vector" d="M84.6116 186.527L128.471 186.527L189.387 186.527L204.112 185.131L128.471 165.977" fill-rule="nonzero" fill="#231F20"/>
	<path id="Vector" d="M84.6116 186.527L128.471 186.527L189.387 186.527L204.112 185.131L128.471 165.977" stroke="#231F20"/>
	<path id="Vector" d="M82.959 160.632L68.5491 186.131L84.614 186.527C84.614 186.527 111.626 170.761 128.388 185.83L136.252 183.605L143.702 186.527C143.702 186.527 153.199 170.937 188.019 186.131L204.114 186.236L189.495 160.128C189.495 160.128 173.562 150.964 160.161 151.612C160.161 151.612 144.786 152.109 136.329 161.85C136.329 161.85 118.938 143.093 89.4305 156.963L82.959 160.632Z" fill-rule="nonzero" fill="#FFFFFF"/>
	<path id="Vector" d="M77.084 178.535L89.4306 156.964C89.4306 156.964 117.92 142.063 136.252 161.994L136.153 182.509C136.153 182.509 125.236 158.663 77.084 178.535Z" stroke="#000000"/>
	<path id="Vector" d="M77.084 178.533L68.5469 186.131L84.3464 186.213C84.3464 186.213 113.366 171.073 128.823 186.236L136.25 183.603" stroke="#000000"/>
	<path id="Vector" d="M89.4306 156.961L82.9592 160.632L68.3896 186.236" stroke="#000000"/>
	<path id="Vector" d="M195.417 178.476L183.071 156.905C183.071 156.905 154.582 142.004 136.25 161.935L136.416 182.328C136.416 182.328 147.265 158.604 195.417 178.476Z" stroke="#000000"/>
	<path id="Vector" d="M195.418 178.476L203.955 186.074L188.155 186.157C188.155 186.157 159.136 171.017 143.679 186.18L136.252 183.546" stroke="#000000"/>
	<path id="Vector" d="M183.071 156.905L189.542 160.573L204.112 186.18" stroke="#000000"/>
	<path id="Vector" d="M149.284 43.2939C149.284 43.2939 144.286 43.1014 143.876 48.1715" stroke="#000000"/>
	<path id="Vector" d="M29.0139 186.237L236.603 186.237" stroke="#000000"/>
	<path id="Vector" d="M65.5092 133.181C65.5092 139.234 60.6025 144.14 54.5498 144.14C48.497 144.14 43.5903 139.234 43.5903 133.181C43.5903 127.128 48.497 122.221 54.5498 122.221C60.6025 122.221 65.5092 127.128 65.5092 133.181Z" fill-rule="evenodd" fill="#FFC600"/>
	<path id="Vector" d="M37.4712 104.802C37.4453 104.894 37.3679 105.039 37.4008 105.072C38.5228 106.173 39.6564 107.262 40.7925 108.361C42.7126 107.152 44.6234 107.224 46.0505 108.581C47.5833 110.041 47.6514 111.886 46.2665 114.264C46.8651 115.02 46.8603 115.003 47.7499 114.715C55.4396 112.224 62.2773 113.684 68.2136 119.189C69.6407 120.512 69.6102 121.646 68.2206 122.97C64.256 126.749 60.2914 130.528 56.3269 134.305C52.0666 138.361 47.8109 142.422 43.5412 146.469C42.0413 147.891 41.0367 147.877 39.6988 146.29C34.4456 140.063 33.4104 133.113 36.3022 125.547C36.5158 124.991 36.6309 124.606 35.7295 124.209C35.1239 124.892 34.4949 125.691 33.7766 126.397C28.1807 131.894 22.5707 137.38 16.9536 142.854C16.3504 143.443 15.9395 143.889 16.3714 144.884C17.2587 146.929 17.1132 149.058 16.2025 151.086C15.9302 151.689 16.0147 152.018 16.4607 152.473C24.087 160.24 31.6921 168.031 39.3208 175.796C39.5907 176.07 40.0579 176.281 40.4404 176.291C42.3676 176.34 44.2971 176.296 46.2242 176.324C46.8134 176.333 47.088 176.162 47.3087 175.57C47.8462 174.129 49.1348 173.387 50.7591 173.42C52.2261 173.451 53.3881 174.268 53.9492 175.664C54.0336 175.875 54.1158 176.087 54.1838 176.256C55.0101 176.317 55.7565 176.326 56.4866 176.434C58.6273 176.749 60.2257 178.307 60.5825 180.37C60.9346 182.399 59.984 184.34 58.139 185.415C57.8597 185.577 57.6273 185.821 57.3738 186.025C46.9495 186.025 36.5252 186.025 26.101 186.025C25.9037 185.83 25.7371 185.584 25.5047 185.45C23.5753 184.323 22.6621 182.389 23.0612 180.218C23.425 178.234 25.0423 176.737 27.1666 176.418C27.5774 176.357 27.9882 176.296 28.4858 176.223C28.3192 176.021 28.2417 175.913 28.1525 175.819C22.2702 169.796 16.3809 163.78 10.5103 157.745C9.6113 156.823 8.74277 156.21 7.30389 156.053C3.00601 155.581 -0.212067 151.67 0.0109253 147.586C0.271454 142.833 3.65387 139.471 8.30618 139.267C8.81085 139.246 9.42114 139.014 9.77792 138.669C14.4983 134.113 19.2023 129.54 23.8663 124.925C26.0469 122.768 28.1337 120.517 30.3143 118.259C29.5304 117.426 28.6172 116.482 27.7371 115.51C26.5986 114.255 26.6221 113.262 27.8309 112.081C29.2346 110.713 30.6829 109.391 32.0842 108.02C33.1593 106.969 34.192 105.875 35.2413 104.8C35.9854 104.8 36.7294 104.8 37.4758 104.8L37.4712 104.802ZM12.0876 147.717C12.0712 145.734 10.4446 144.135 8.44473 144.138C6.4472 144.14 4.80637 145.786 4.83453 147.755C4.8627 149.755 6.47537 151.337 8.48462 151.337C10.4587 151.337 12.1041 149.684 12.0876 147.715L12.0876 147.717Z" fill-rule="nonzero" fill="#F480FF"/>
	<path id="Vector" d="M8.48444 151.339C10.4585 151.339 12.1039 149.687 12.0874 147.717C12.071 145.734 10.4444 144.136 8.44455 144.138C6.44702 144.14 4.80618 145.786 4.83435 147.755C4.86252 149.755 6.47516 151.337 8.48444 151.337L8.48444 151.339Z" fill-rule="nonzero" fill="#FFC600"/>
	<path id="Vector" d="M62.2208 150.382L61.4814 145.403" stroke="#000000"/>
	<path id="Vector" d="M70.6077 145.089L66.4883 142.194" stroke="#000000"/>
	<path id="Vector" d="M74.6473 136.021L69.6289 135.622" stroke="#000000"/>
</svg>
