<svg width="59.102783" height="153.667664" viewBox="0 0 59.1028 153.668" fill="none" xmlns="http://www.w3.org/2000/svg" xmlns:xlink="http://www.w3.org/1999/xlink">
	<desc>
			Created with Pixso.
	</desc>
	<defs/>
	<path id="Concussion" d="M13.4204 38.4163C9.56201 34.4421 7.52368 29.1426 7.52246 22.0369C7.52222 22.0196 7.52246 22.0023 7.52295 21.985L9.12988 22.03C7.52808 21.9851 7.52295 21.9841 7.52295 21.9831L7.52319 21.9808L7.52319 21.9747L7.52393 21.9571C7.52441 21.9428 7.52515 21.9237 7.52612 21.8998C7.52832 21.8521 7.53174 21.7853 7.53687 21.7008C7.54736 21.5319 7.56543 21.2917 7.59595 20.9905C7.65674 20.3886 7.76782 19.5397 7.96948 18.5256C8.37134 16.5044 9.14014 13.7884 10.6169 11.0552C12.0972 8.31573 14.3018 5.53595 17.5742 3.44476C20.2854 1.71234 23.6692 0.491577 27.8684 0.119751C28.0562 0.0432129 28.2615 0.000976562 28.4768 0.000976562C28.8403 0.000976562 29.1985 0.00683594 29.5515 0.0184326C29.9043 0.00683594 30.2625 0.000976562 30.626 0.000976562C30.8413 0.000976562 31.0469 0.0432129 31.2346 0.119812C35.4338 0.491577 38.8174 1.71234 41.5286 3.44476C44.801 5.53595 47.0059 8.31573 48.4858 11.0552C48.5361 11.148 48.5854 11.2408 48.6338 11.3334C48.8359 11.5803 48.9963 11.8667 49.1023 12.1846L49.2146 12.521C50.2268 14.7407 50.8037 16.8671 51.1333 18.5256C51.335 19.5397 51.446 20.3886 51.5068 20.9905C51.5374 21.2917 51.5554 21.5319 51.5659 21.7008C51.571 21.7853 51.5745 21.8521 51.5767 21.8998C51.5776 21.9237 51.5784 21.9428 51.5791 21.9571L51.5796 21.9747L51.5798 21.9831C51.5798 21.9841 51.5774 21.985 49.9731 22.03L51.5798 21.985C51.5803 21.9977 51.5806 22.0105 51.5806 22.0232L51.5806 22.032L51.5806 22.0399C51.5786 29.1413 49.5425 34.4316 45.7651 38.4012C45.2925 38.8981 44.7947 39.3718 44.2732 39.8238L44.2732 46.7463L47.5303 46.7463C48.0054 46.7463 48.4807 46.8737 48.8972 47.1222C53.4683 49.8489 56.0701 53.3472 57.4868 57.5934C58.8733 61.7496 59.1028 66.5672 59.1028 71.8917L59.1028 95.7746C59.1028 96.2578 58.9724 96.7322 58.7253 97.1475L57.1682 99.7662L57.1682 100.583C57.1682 105.249 55.4072 109.704 52.2012 113.086C51.6851 113.631 50.98 113.908 50.2756 113.908L46.2078 113.908L46.2078 128.466C46.822 128.959 47.2153 129.715 47.2153 130.564L47.2153 138.425C49.3379 137.831 52.5449 137.508 54.9636 139.538C56.7834 141.065 57.0415 143.668 56.9319 145.737C56.8154 147.939 56.2427 150.236 55.7041 151.861C55.3328 152.98 54.2878 153.668 53.1809 153.668L37.0737 153.668C35.5898 153.668 34.3872 152.465 34.3872 150.981L34.3872 130.564C34.3872 130.355 34.4109 130.152 34.4561 129.956L29.1431 113.2L24.6609 129.907C24.6562 129.924 24.6516 129.94 24.6467 129.956C24.6919 130.152 24.7158 130.355 24.7158 130.564L24.7158 150.981C24.7158 152.465 23.5129 153.668 22.0293 153.668L5.92188 153.668C4.81519 153.668 3.77026 152.98 3.39893 151.861C2.86035 150.236 2.2876 147.939 2.1709 145.737C2.06128 143.668 2.31934 141.065 4.1394 139.538C6.55811 137.508 9.76514 137.831 11.8875 138.425L11.8875 130.564C11.8875 129.715 12.281 128.959 12.8953 128.466L12.8953 127.136L12.8953 127.126L12.8953 113.908L9.04199 113.908C8.33789 113.908 7.63257 113.63 7.11646 113.086C3.9104 109.704 2.14941 105.249 2.14941 100.583L2.14941 100.087L0.273193 96.249C0.0935059 95.8816 0.000244141 95.478 0.000244141 95.0691L0.000244141 71.8917C0.000244141 66.5704 0.228516 61.8746 1.62158 57.842C3.04785 53.7136 5.66016 50.3654 10.2065 47.6587C10.6223 47.4113 11.0969 47.2836 11.5725 47.2836L15.0444 47.2836L15.0444 40.0831L15.238 40.0831C14.5972 39.5583 13.9907 39.0036 13.4204 38.4163ZM44.4617 10.6631C43.2874 8.99255 41.7659 7.42218 39.7927 6.16132C37.2827 4.55731 33.9653 3.40521 29.5515 3.24414C25.1375 3.40521 21.8203 4.55737 19.3101 6.16132C19.2407 6.20569 19.1716 6.25049 19.1033 6.29565L36.1316 12.071L44.4617 10.6631ZM16.2214 8.72235C15.0803 9.9325 14.1741 11.2537 13.4531 12.5877C12.9604 13.4995 12.5564 14.4139 12.2253 15.2968L28.9705 13.0464L16.2214 8.72235ZM46.1812 13.642C46.1917 13.6642 46.2019 13.6863 46.2122 13.7085L47.2949 16.9567L10.748 22.3893C10.7468 22.2798 10.7463 22.1696 10.7461 22.0589L10.7468 22.0432C10.748 22.0137 10.7505 21.9658 10.7546 21.9008C10.7627 21.7706 10.7773 21.5721 10.8035 21.315C10.8555 20.8004 10.9524 20.0541 11.1313 19.1541C11.1619 19.0012 11.1946 18.8442 11.2297 18.6833L36.2407 15.3221L46.1812 13.642ZM10.9553 25.6177L48.1389 20.0904C48.2163 20.5771 48.2668 20.9918 48.2996 21.3151C48.3254 21.5721 48.3403 21.7706 48.3484 21.9008C48.3523 21.9658 48.3547 22.0137 48.3562 22.0432L48.3567 22.0587C48.3513 28.4787 46.5344 32.9161 43.4299 36.1789C40.2979 39.4703 35.7053 41.7263 29.8213 43.4579C23.6582 41.7238 18.9304 39.4634 15.7334 36.1706C13.1902 33.5513 11.5173 30.1752 10.9553 25.6177ZM20.9548 30.0892C20.9548 30.9794 20.2332 31.701 19.3428 31.701C18.4526 31.701 17.731 30.9794 17.731 30.0892C17.731 29.1989 18.4526 28.4773 19.3428 28.4773C20.2332 28.4773 20.9548 29.1989 20.9548 30.0892ZM41.3718 30.0892C41.3718 30.9794 40.6501 31.701 39.76 31.701C38.8699 31.701 38.1482 30.9794 38.1482 30.0892C38.1482 29.1989 38.8699 28.4773 39.76 28.4773C40.6501 28.4773 41.3718 29.1989 41.3718 30.0892ZM28.4768 38.6861C27.5867 38.6861 26.865 39.4078 26.865 40.298C26.865 41.1882 27.5867 41.9099 28.4768 41.9099L31.7007 41.9099C32.5908 41.9099 33.3125 41.1882 33.3125 40.298C33.3125 39.4078 32.5908 38.6861 31.7007 38.6861L28.4768 38.6861ZM30.5742 46.5966C34.481 45.457 38.0271 44.0502 41.0496 42.1798L41.0496 47.7009C33.6152 49.8494 25.7029 49.8358 18.2683 47.734L18.2683 42.204C21.3721 44.0679 25.0334 45.4694 29.1052 46.6052C29.5842 46.7388 30.0957 46.7362 30.5742 46.5966ZM44.2732 50.0707L44.2732 49.9701L47.3777 49.9701C51.1934 52.2825 53.2668 55.1309 54.4287 58.6136C55.634 62.2264 55.8789 66.5748 55.8789 71.8917L55.8789 95.6269L54.21 98.434L46.2075 98.434L46.2075 90.7556L47.2483 85.7603C47.4299 84.8887 46.8706 84.035 45.999 83.8535C45.1274 83.6719 44.2739 84.2312 44.0923 85.1027L43.0403 90.1523C43.0027 90.3325 42.9839 90.5162 42.9839 90.7003L42.9839 127.126L42.9839 127.138L42.9839 127.878L37.179 127.878L30.5593 107C30.543 106.945 30.5237 106.892 30.5017 106.839C30.4153 106.631 30.2888 106.45 30.1345 106.301C29.843 106.02 29.4521 105.855 29.0417 105.848C29.0034 105.848 28.9648 105.848 28.9263 105.85C28.7466 105.86 28.5718 105.9 28.4087 105.966C28.1887 106.055 27.9976 106.189 27.843 106.352C27.6528 106.554 27.5173 106.802 27.4502 107.07L21.8674 127.878L16.1191 127.878L16.1191 90.7535C16.1191 90.4818 16.0779 90.2115 15.9968 89.9522L14.4338 84.9507C14.1682 84.101 13.2642 83.6274 12.4146 83.8929C11.5649 84.1585 11.0913 85.0626 11.3569 85.9123L12.8953 90.8355L12.8953 98.5414L4.98242 98.5414L3.22412 94.9448L3.22412 71.8917C3.22412 66.5717 3.46997 62.3651 4.6687 58.8947C5.82129 55.558 7.88477 52.8268 11.7246 50.5074L16.282 50.5074L16.3972 50.5428C25.0881 53.2169 34.4519 53.2186 43.1533 50.4297L44.2732 50.0707ZM53.9067 101.658L49.1089 101.658L49.1089 104.774C49.1089 106.258 47.9062 107.46 46.4224 107.46L46.2075 107.46L46.2075 110.684L50.033 110.684C52.3162 108.193 53.6687 105.025 53.9067 101.658ZM12.8953 110.684L12.8953 107.461C11.4116 107.461 10.2087 106.258 10.2087 104.774L10.2087 101.765L5.41895 101.765C5.67773 105.092 7.02588 108.22 9.28467 110.684L12.8953 110.684ZM21.4919 150.444L21.4919 131.101L15.1113 131.101L15.1113 138.996C15.1113 141.079 12.9946 142.154 11.3669 141.634C9.49731 141.036 7.4646 140.956 6.21167 142.007C5.66333 142.467 5.28662 143.612 5.39014 145.566C5.47803 147.224 5.89111 149.032 6.32983 150.444L21.4919 150.444ZM37.6108 150.444L37.6108 131.101L43.9917 131.101L43.9917 138.996C43.9917 141.079 46.1084 142.154 47.7361 141.634C49.6057 141.036 51.6384 140.956 52.8914 142.007C53.4397 142.467 53.8162 143.612 53.7126 145.566C53.625 147.224 53.2119 149.032 52.7732 150.444L37.6108 150.444Z" fill-rule="evenodd" fill="#000000"/>
</svg>
