<svg width="55.426514" height="153.412476" viewBox="0 0 55.4265 153.412" fill="none" xmlns="http://www.w3.org/2000/svg" xmlns:xlink="http://www.w3.org/1999/xlink">
	<desc>
			Created with Pixso.
	</desc>
	<defs/>
	<path id="Broken arm" d="M6.95996 24.7102C7.22021 30.5359 9.073 34.9664 12.3606 38.3524C12.8325 38.8386 13.3315 39.3005 13.8562 39.7399L13.8562 45.8741C5.95532 50.5952 0.519531 58.9814 0.00219727 68.7094L0 68.7488L0 68.7882C0 69.7823 0.109619 70.7958 0.341064 71.7217L0.346191 71.7422L2.42578 79.156C2.72534 80.224 3.69922 80.9622 4.80835 80.9622L9.10571 80.9622L9.10571 95.8085C9.10571 96.7108 9.58862 97.5004 10.3101 97.9326L7.11353 119.396C6.89062 120.891 8.04907 122.235 9.56079 122.235L16.8257 122.235L16.8257 130.201C16.2598 130.654 15.8975 131.351 15.8975 132.133L15.8975 139.373C13.9429 138.826 10.9888 138.529 8.76123 140.398C7.08496 141.805 6.84717 144.202 6.948 146.108C7.05566 148.136 7.58301 150.252 8.0791 151.748C8.42114 152.779 9.38354 153.412 10.4031 153.412L25.2388 153.412C26.6052 153.412 27.7131 152.305 27.7131 150.938L27.7131 132.133C27.7131 131.827 27.6575 131.534 27.5562 131.263L27.707 131.277L28.5291 122.235L29.8662 122.235L30.6882 131.277L30.8391 131.264C30.7378 131.534 30.6821 131.827 30.6821 132.133L30.6821 150.938C30.6821 152.305 31.79 153.412 33.1565 153.412L47.9922 153.412C49.0117 153.412 49.9741 152.779 50.3162 151.748C50.8123 150.252 51.3398 148.136 51.4473 146.108C51.5481 144.202 51.3105 141.805 49.6343 140.398C47.4065 138.529 44.4526 138.826 42.4978 139.373L42.4978 132.133C42.4978 131.351 42.1355 130.654 41.5696 130.201L41.5696 122.235L48.3191 122.235C49.8481 122.235 51.0112 120.862 50.76 119.354L48.7625 107.37C49.6035 107.266 50.3616 106.732 50.7124 105.906C51.082 105.035 51.8293 103.166 52.0459 101.662C52.1704 100.797 52.1653 99.7474 52.1387 98.9731C52.1326 98.7983 52.1252 98.6328 52.1174 98.4807L52.9519 98.4807C54.3184 98.4807 55.4263 97.3729 55.4263 96.0063L55.4263 70.0747C55.4263 59.6521 49.1111 50.4902 40.7776 45.567L40.7776 39.6489C41.2578 39.2325 41.7163 38.7963 42.1519 38.3385C45.3613 34.9657 47.2061 30.5575 47.4741 24.7596L47.5081 24.76L47.6641 10.1583L47.6641 10.1504C47.6641 7.2345 45.5767 4.86841 42.8354 4.28088L42.8328 4.27979L42.8308 4.27881C42.8259 4.27612 42.8196 4.27173 42.8135 4.26587C42.8093 4.26172 42.8062 4.25793 42.8044 4.25549C42.1357 1.61353 39.6121 -0.203125 36.6931 0.0186768C33.6907 0.221313 13.2854 3.20007 11.6785 3.43494L3.44873 3.43494C2.17407 3.43494 0.773926 4.49792 1.01465 6.13721C1.25952 7.8064 1.97729 9.60486 3.00073 11.1018C3.99976 12.5626 5.41504 13.9147 7.1687 14.4335L6.96265 23.2598L6.92822 23.2598C6.92822 23.5723 6.93237 23.8811 6.94092 24.186L6.92871 24.7095L6.95996 24.7102ZM36.9138 2.97974C38.4565 2.8606 39.6284 3.7998 39.9272 4.98865C40.2024 6.08411 41.1045 6.94678 42.2129 7.1842C43.6724 7.49683 44.6914 8.71985 44.6948 10.1433L44.5681 22.0026C43.9509 21.7794 43.4321 21.4263 43.0044 20.9799C42.2253 20.1669 41.6816 18.9709 41.5042 17.5151L40.7788 11.5632C40.6213 10.2714 39.5076 9.36987 38.27 9.36987L37.7766 9.36987L36.7146 9.46301C36.4788 9.48376 36.2498 9.53699 36.0339 9.61804C32.2961 11.0226 28.3533 11.6835 24.2932 11.6835L8.30322 11.6835C8.21313 11.6483 8.12427 11.6185 8.03809 11.594C7.1814 11.3505 6.25244 10.5966 5.4519 9.4259C4.81494 8.49438 4.34106 7.41443 4.09082 6.4043L11.7078 6.4043C11.8257 6.4043 11.9458 6.39673 12.0745 6.37793C13.5198 6.16663 34.0547 3.17017 36.8982 2.98083L36.906 2.98035L36.9138 2.97974ZM44.4844 25.0612C43.0518 24.7494 41.825 24.0405 40.8606 23.0344C39.5554 21.6725 38.7961 19.8386 38.5569 17.8744L37.8823 12.3412L37.0288 12.4161C32.9438 13.9438 28.6611 14.6527 24.2932 14.6527L10.1335 14.6527L9.91113 24.1787C10.0767 29.615 11.7251 33.4354 14.491 36.2841C17.4355 39.3169 21.79 41.3988 27.4666 42.9961C31.6445 41.7666 35.1155 40.25 37.8083 38.2307L37.8083 38.1057L37.9731 38.1057C38.7092 37.5414 39.3855 36.9382 40.0007 36.2916C42.5649 33.5969 44.1753 30.0322 44.4844 25.0612ZM36.6201 26.229C35.9255 26.2184 35.0876 26.5349 33.7698 27.575C33.3406 27.9136 32.7183 27.8402 32.3796 27.4111C32.041 26.9821 32.1145 26.3596 32.5435 26.021C34.0002 24.8712 35.3079 24.2078 36.7153 24.2512C38.0959 24.2938 39.3423 25.0154 40.6743 26.0028C41.1135 26.3284 41.2056 26.9482 40.8801 27.3873C40.5544 27.8265 39.9346 27.9186 39.4956 27.5931C38.2683 26.6833 37.4675 26.2931 36.7673 26.2361C37.5183 26.3097 38.1055 26.9431 38.1055 27.7136C38.1055 28.5336 37.4407 29.1982 36.6208 29.1982C35.8008 29.1982 35.1362 28.5336 35.1362 27.7136C35.1362 26.8939 35.8005 26.2294 36.6201 26.229ZM17.8147 26.229C17.1201 26.2184 16.2822 26.535 14.9646 27.575C14.5354 27.9136 13.9131 27.8402 13.5745 27.4111C13.2358 26.9821 13.3091 26.3597 13.7383 26.0211C15.1951 24.8713 16.5027 24.2079 17.9099 24.2512C19.2908 24.2938 20.5369 25.0154 21.8691 26.0029C22.3081 26.3284 22.4001 26.9482 22.0747 27.3875C21.7493 27.8265 21.1294 27.9187 20.6902 27.5931C19.4629 26.6833 18.6621 26.2931 17.9619 26.2362C18.7131 26.3097 19.3 26.9431 19.3 27.7136C19.3 28.5336 18.6355 29.1984 17.8154 29.1984C16.9956 29.1984 16.3308 28.5336 16.3308 27.7136C16.3308 26.8939 16.9951 26.2295 17.8147 26.229ZM25.2385 34.6418C24.4185 34.6418 23.7539 35.3065 23.7539 36.1265C23.7539 36.9464 24.4185 37.6111 25.2385 37.6111L28.2078 37.6111C29.0276 37.6111 29.6924 36.9464 29.6924 36.1265C29.6924 35.3065 29.0276 34.6418 28.2078 34.6418L25.2385 34.6418ZM37.8083 45.5803C37.802 45.5914 37.7957 45.6027 37.7896 45.614C37.7295 45.7252 37.6848 45.8407 37.6553 45.9579C30.8525 47.8926 23.6223 47.8658 16.8257 45.9443L16.8257 41.8412C19.6843 43.5579 23.0566 44.8486 26.8071 45.8949C27.2483 46.0179 27.7192 46.0155 28.1602 45.887C31.7585 44.8373 35.0247 43.5416 37.8083 41.8188L37.8083 45.5803ZM32.7466 59.3855L5.37256 59.3855C7.50854 54.9016 10.9297 51.1387 15.167 48.5513C22.4097 50.7668 30.1562 50.9689 37.4976 49.0767L32.7983 59.2585C32.7791 59.3004 32.7617 59.3428 32.7466 59.3855ZM40.7681 49.0764C41.6687 49.6902 42.5359 50.3589 43.3625 51.0771L39.718 59.2772C39.7021 59.3131 39.6877 59.3491 39.6748 59.3855L36.01 59.3855L40.7681 49.0764ZM52.457 77.0103L52.457 70.0747C52.457 63.7161 49.7805 57.8062 45.6309 53.2845L42.4771 60.3807C42.5305 60.5339 42.5596 60.6986 42.5596 60.8701L42.5596 70.2727L44.0442 70.2727C45.1746 70.2727 46.2158 70.6951 47.0889 71.2242C47.9697 71.7581 48.7747 72.4581 49.4614 73.1537C50.8345 74.5439 51.8782 76.0634 52.2612 76.6471C52.3381 76.7643 52.4033 76.8859 52.457 77.0103ZM39.5903 62.3547L39.5903 77.9929L5.18335 77.9929L3.21704 70.9819C3.05835 70.3394 2.97217 69.593 2.96924 68.8269C3.09253 66.5781 3.50977 64.4087 4.18359 62.3547L39.5903 62.3547ZM42.5596 73.2419L42.5596 78.0918L49.656 78.0918C49.2478 77.4867 48.4001 76.3047 47.3486 75.24C46.7632 74.647 46.1501 74.1273 45.5498 73.7635C44.9419 73.395 44.4387 73.2419 44.0442 73.2419L42.5596 73.2419ZM45.7266 95.5115L52.457 95.5115L52.457 79.5582C52.0793 80.4419 51.2021 81.061 50.1807 81.061L45.7266 81.061L45.7266 95.5115ZM19.498 95.3136L19.4912 95.3136L12.075 95.3136L12.075 80.9622L40.0852 80.9622L40.0852 81.061L42.7571 81.061L42.7571 95.3136L19.498 95.3136ZM19.7949 119.266L19.7949 119.266L38.6003 119.266L38.6003 119.266L41.5696 119.266L41.5696 119.266L47.7351 119.266L45.7529 107.374C44.5137 107.239 43.5493 106.189 43.5493 104.914L43.5491 98.4807C43.2793 98.4807 43.0261 98.4087 42.8081 98.2828L35.3408 98.2828L35.3342 98.2828L13.26 98.2828L10.1348 119.266L16.8257 119.266L16.8257 119.266L19.7949 119.266ZM46.5186 98.4807L49.1438 98.4807C49.1538 98.6565 49.1636 98.8583 49.1711 99.0756C49.1968 99.8184 49.1919 100.649 49.1069 101.239C48.9697 102.192 48.4856 103.514 48.1152 104.419L46.5186 104.419L46.5186 98.4807ZM24.8726 129.658L19.7949 129.658L19.7949 122.235L25.5476 122.235L24.8726 129.658ZM38.6003 129.658L38.6003 122.235L32.8479 122.235L33.5227 129.658L38.6003 129.658ZM24.7439 132.628L24.7439 150.443L10.7786 150.443C10.3745 149.142 9.99414 147.478 9.91333 145.951C9.81787 144.151 10.1648 143.096 10.6697 142.673C11.8237 141.704 13.696 141.778 15.418 142.329C16.9172 142.808 18.8669 141.818 18.8669 139.899L18.8669 132.628L24.7439 132.628ZM33.6514 150.443L33.6514 132.628L39.5286 132.628L39.5286 139.899C39.5286 141.818 41.478 142.808 42.9773 142.329C44.6992 141.778 46.5715 141.704 47.7256 142.673C48.2305 143.096 48.5774 144.151 48.4822 145.951C48.4011 147.478 48.0208 149.142 47.6167 150.443L33.6514 150.443Z" fill-rule="evenodd" fill="#000000"/>
</svg>
