<svg width="56.527588" height="153.418213" viewBox="0 0 56.5276 153.418" fill="none" xmlns="http://www.w3.org/2000/svg" xmlns:xlink="http://www.w3.org/1999/xlink">
	<desc>
			Created with Pixso.
	</desc>
	<defs/>
	<path id="Eye infection" d="M28.2639 0.000244141C26.4226 0.000244141 24.3345 0.742554 22.3062 1.85901C20.2466 2.9928 18.1104 4.58875 16.1416 6.47192C12.2427 10.2013 8.78296 15.2709 8.06836 20.4104C8.05176 20.5286 8.04419 20.6445 8.04443 20.7579C7.97314 20.9319 7.93359 21.1226 7.93359 21.3223L7.93359 28.2643C7.93359 28.3552 7.94189 28.4442 7.95752 28.5306C8.1853 34.4642 10.0464 38.9646 13.377 42.395C13.8499 42.8821 14.3499 43.345 14.8757 43.7853L14.8757 49.5082C6.42773 54.4124 0 63.6548 0 74.1804L0 102.94C0 104.309 1.11011 105.419 2.47925 105.419L5.95703 105.419C5.9397 106.153 5.94946 107.054 6.05859 107.813C6.27563 109.32 7.02441 111.193 7.39478 112.066C7.78784 112.992 8.69214 113.551 9.65186 113.551L12.0928 113.551C12.3726 113.551 12.6414 113.505 12.8923 113.42L12.8923 138.344C12.8923 139.544 13.7439 140.544 14.8757 140.774L14.8757 144.493L11.9006 144.493C8.59961 144.493 5.9502 147.142 5.9502 150.443L5.9502 150.939C5.9502 152.308 7.0603 153.418 8.42944 153.418L24.2969 153.418C25.6663 153.418 26.7761 152.308 26.7761 150.939L26.7761 140.774C27.3811 140.651 27.9062 140.308 28.2637 139.832C28.6213 140.308 29.1462 140.651 29.7512 140.774L29.7512 150.939C29.7512 152.308 30.8613 153.418 32.2305 153.418L48.0979 153.418C49.4673 153.418 50.5771 152.308 50.5771 150.939L50.5771 150.443C50.5771 147.142 47.9277 144.493 44.627 144.493L41.6519 144.493L41.6519 140.774C42.7834 140.544 43.6353 139.544 43.6353 138.344L43.6353 113.502C43.7954 113.534 43.9614 113.551 44.1311 113.551L46.572 113.551C47.5317 113.551 48.436 112.992 48.8291 112.066C49.1995 111.193 49.9485 109.32 50.1653 107.813C50.2744 107.054 50.2842 106.153 50.2671 105.419L54.0483 105.419C55.4177 105.419 56.5276 104.309 56.5276 102.94L56.5276 74.1804C56.5276 63.7372 50.2002 54.5573 41.8501 49.6243L41.8501 43.694C42.3313 43.2769 42.7908 42.8396 43.2271 42.3811C46.488 38.9541 48.3428 34.4604 48.5701 28.5299C48.5857 28.4437 48.5938 28.355 48.5938 28.2643L48.5938 27.3503L48.594 27.2942L48.5938 27.2725L48.5938 26.1958L48.6033 26.1924L48.5938 26.1663L48.5938 21.3223C48.5938 21.1279 48.5564 20.9421 48.4888 20.772C48.49 20.6575 48.4834 20.5403 48.4675 20.421C47.7947 15.2991 44.5251 10.229 40.686 6.48206C38.7505 4.5929 36.6213 2.99072 34.5132 1.85303C32.4246 0.725952 30.2549 0.000244141 28.2639 0.000244141ZM18.198 8.62195C16.9443 9.82104 15.7749 11.1372 14.7556 12.5188C18.1699 11.4376 22.8645 10.4132 28.2637 10.4132C33.7915 10.4132 38.5806 11.4869 42.0137 12.5961C41.0161 11.1799 39.8601 9.83313 38.6082 8.61121C36.8413 6.88684 34.9316 5.45959 33.1003 4.47131C31.249 3.47229 29.5781 2.97534 28.2639 2.97534C27.1448 2.97534 25.575 3.45581 23.7407 4.46545C21.938 5.45776 20.0073 6.89136 18.198 8.62195ZM28.2639 16.3635C20.6099 16.3635 14.4338 18.4509 11.1958 19.8241C11.4519 18.6737 11.8718 17.5095 12.4226 16.3573C12.6494 16.3787 12.8845 16.3481 13.1108 16.2583C16.2329 15.0179 21.6963 13.3883 28.2637 13.3883C34.8313 13.3883 40.2947 15.0179 43.4165 16.2583C43.6697 16.3589 43.9336 16.3851 44.1848 16.3474C44.7109 17.5046 45.1096 18.6748 45.3513 19.8324C42.1187 18.4592 35.9331 16.3635 28.2639 16.3635ZM45.6187 23.1106C45.3994 23.0754 45.1804 23.0105 44.9668 22.9131C42.2878 21.6925 36.0986 19.3386 28.2639 19.3386C20.429 19.3386 14.2397 21.6925 11.561 22.9131C11.3474 23.0105 11.1282 23.0754 10.9089 23.1106L10.9089 27.2725C10.9089 30.7867 11.4961 33.656 12.5813 36.0371L29.9287 29.7727C29.8127 29.2888 29.7515 28.7837 29.7515 28.2643L29.7515 26.7767L38.2253 26.7767L45.6187 24.1069L45.6187 23.1106ZM18.8423 28.2643C18.1462 28.2534 17.3066 28.5707 15.9858 29.6129C15.5559 29.9521 14.9324 29.8787 14.593 29.4487C14.2537 29.0188 14.3271 28.3953 14.7571 28.0559C16.217 26.9039 17.5271 26.2391 18.9373 26.2826C20.3208 26.3253 21.5693 27.0482 22.9041 28.0377C23.3442 28.3639 23.4363 28.985 23.1101 29.4249C22.7842 29.865 22.1628 29.9573 21.7229 29.6311C20.4932 28.7195 19.6907 28.3284 18.989 28.2714C19.7419 28.345 20.3301 28.9797 20.3301 29.7518C20.3301 30.5735 19.6641 31.2395 18.8425 31.2395C18.021 31.2395 17.355 30.5735 17.355 29.7518C17.355 28.9304 18.021 28.2644 18.8423 28.2643ZM45.6187 27.2701L45.6187 27.3472C45.6047 33.2461 43.9292 37.3273 41.0718 40.3302C40.4553 40.9781 39.7773 41.5826 39.0396 42.1483L38.875 42.1483L38.875 42.2729C36.177 44.2963 32.699 45.8158 28.5129 47.0479C22.8252 45.4474 18.4619 43.3613 15.5115 40.3225C15.0034 39.7993 14.5332 39.2434 14.1028 38.6509L31.2903 32.4443C32.4727 33.8311 34.2324 34.7104 36.1975 34.7104C39.7307 34.7104 42.6001 31.8677 42.6431 28.3446L45.6187 27.2701ZM24.2971 36.6937C25.1187 36.6937 25.7847 37.3597 25.7847 38.1813C25.7847 38.4297 25.9153 38.7679 26.3513 39.095C26.7878 39.4224 27.4592 39.6688 28.2639 39.6688C29.0686 39.6688 29.7397 39.4224 30.1763 39.095C30.6123 38.7679 30.7432 38.4297 30.7432 38.1813C30.7432 37.3597 31.4092 36.6937 32.2307 36.6937C33.0522 36.6937 33.7183 37.3597 33.7183 38.1813C33.7183 39.576 32.9609 40.7253 31.9614 41.4751C30.9622 42.2245 29.6499 42.644 28.2639 42.644C26.8777 42.644 25.5654 42.2245 24.5664 41.4751C23.5667 40.7253 22.8093 39.576 22.8093 38.1813C22.8093 37.3597 23.4753 36.6937 24.2971 36.6937ZM29.2078 49.9445C32.8132 48.8927 36.0857 47.5944 38.875 45.8683L38.875 49.6373C38.8726 49.6418 38.8699 49.6465 38.8672 49.6511C38.8635 49.6578 38.8599 49.6646 38.8562 49.6713C38.7959 49.7827 38.7512 49.8986 38.7214 50.0161C31.9053 51.9545 24.6609 51.9277 17.8508 50.0026L17.8508 45.8906C20.7153 47.6108 24.0942 48.9041 27.8521 49.9524C28.2939 50.0757 28.7661 50.0732 29.2078 49.9445ZM2.9751 74.1804C2.9751 65.1235 8.39404 56.9755 15.769 52.4397L16.0063 52.5585L16.124 52.5947C24.1448 55.0625 32.7861 55.0641 40.8167 52.4902L40.8323 52.4852C48.1697 57.0298 53.5525 65.1538 53.5525 74.1804L53.5525 102.444L46.8088 102.444L46.8088 80.4283C46.8088 77.0787 47.5527 73.7444 49.1228 70.6967L49.1396 70.6642L49.6506 69.54C49.9905 68.7921 49.6599 67.9102 48.9119 67.5703C48.1641 67.2302 47.282 67.561 46.9421 68.309L46.4612 69.3672C44.6711 72.8556 43.8337 76.6495 43.8337 80.4283L43.8337 99.4692L13.0906 99.4692L13.0906 80.4283C13.0906 76.6495 12.2532 72.8556 10.4631 69.3672L9.98218 68.309C9.64209 67.561 8.76025 67.2302 8.01221 67.5703C7.2644 67.9102 6.93359 68.7921 7.27368 69.54L7.78467 70.6642L7.80127 70.6967C9.37134 73.7444 10.1155 77.0787 10.1155 80.4283L10.1155 102.444L2.9751 102.444L2.9751 74.1804ZM15.8674 102.643C15.8674 102.575 15.863 102.509 15.8542 102.444L25.7976 102.444C25.7891 102.509 25.7844 102.575 25.7844 102.643L25.7844 137.848L15.8674 137.848L15.8674 102.643ZM30.7432 102.643C30.7432 102.575 30.7385 102.509 30.73 102.444L40.6733 102.444C40.6646 102.509 40.6602 102.575 40.6602 102.643L40.6602 137.848L30.7432 137.848L30.7432 102.643ZM9.00342 107.389C8.92578 106.85 8.91479 106.11 8.93311 105.419L11.5969 105.419L11.5969 110.576L9.99707 110.576C9.62598 109.669 9.14087 108.345 9.00342 107.389ZM47.291 105.419L44.6272 105.419L44.627 110.576L46.2268 110.576C46.5979 109.669 47.083 108.345 47.2205 107.389C47.2981 106.85 47.3091 106.11 47.291 105.419ZM17.8508 144.989L17.8508 141.815L23.801 141.815L23.801 150.443L8.92529 150.443C8.92529 148.785 10.2429 147.468 11.9006 147.468L15.3716 147.468C16.7407 147.468 17.8508 146.358 17.8508 144.989ZM32.7263 150.443L32.7263 141.815L38.6768 141.815L38.6768 144.989C38.6768 146.358 39.7866 147.468 41.156 147.468L44.627 147.468C46.2847 147.468 47.6021 148.785 47.6021 150.443L32.7263 150.443Z" fill-rule="evenodd" fill="#000000"/>
</svg>
