<svg width="71.128418" height="153.448486" viewBox="0 0 71.1284 153.448" fill="none" xmlns="http://www.w3.org/2000/svg" xmlns:xlink="http://www.w3.org/1999/xlink">
	<desc>
			Created with Pixso.
	</desc>
	<defs/>
	<path id="Deaf" d="M27.5444 0.000732422C16.3254 0.000732422 7.01147 8.71094 7.01147 19.5322C7.01147 19.9423 7.01025 20.35 7.00928 20.7555C6.99194 27.9469 6.97607 34.408 12.5356 40.1342C13.0054 40.6178 13.5015 41.0778 14.0225 41.5157L14.0225 47.4253C5.60327 52.4232 0 61.5457 0 72.0172L0 93.6206C0 94.0018 0.0869141 94.3779 0.254395 94.7205L2.08252 98.46C1.74512 103.14 3.39355 107.798 6.63306 111.216C7.11401 111.723 7.77124 111.982 8.42773 111.982L12.0193 111.982C12.0193 113.223 12.0271 125.38 12.105 125.704C12.269 126.348 12.7559 126.617 13.3215 126.692L13.3215 145.329L6.56299 148.097C5.62256 148.483 5.00806 149.398 5.00806 150.415L5.00806 150.944C5.00806 152.327 6.12915 153.448 7.51221 153.448L19.832 153.448C21.2148 153.448 22.3362 152.327 22.3362 150.944L22.3362 126.974C22.6448 126.78 22.8838 126.473 22.9856 126.093L27.1636 110.521L32.1218 126.158C32.2676 126.617 32.7 127.008 33.0535 127.324L33.0535 150.944C33.0535 152.327 34.1746 153.448 35.5576 153.448L47.8774 153.448C49.2603 153.448 50.3813 152.327 50.3813 150.944C50.3813 149.745 50.0537 148.6 48.8267 148.097L42.0681 145.329L42.0681 127.621C42.6514 127.415 43.0693 126.859 43.0693 126.204C43.0693 114.376 43.0693 101.587 43.0693 89.5452L45.8809 68.4598L68.0476 73.6757C69.9419 74.1213 71.5984 72.3306 71.0066 70.4768L64.3594 49.6484C63.9175 48.2638 62.3933 47.545 61.0439 48.0848L60.5684 48.275C60.5015 48.2174 60.4265 48.167 60.3438 48.1259L57.7307 46.826L54.3879 38.9326C54.1533 38.3785 53.6575 37.9785 53.0664 37.8663L47.5078 36.8123C47.2791 36.7688 47.0486 36.7709 46.8279 36.814C46.7522 36.699 46.6531 36.5967 46.532 36.5146L45.4065 35.7512C47.5549 32.1146 48.0776 28.2938 48.0776 24.1396L48.0776 16.6276C48.0776 10.3972 43.1489 5.37695 36.9409 4.68884C36.6338 2.02991 34.3728 0.000732422 31.562 0.000732422L27.5444 0.000732422ZM27.5444 3.00562C17.8298 3.00562 10.0161 10.5215 10.0161 19.5322L10.0161 22.8167L10.0452 22.8164L10.0725 22.8162C10.9998 22.8077 12.2461 22.8827 13.584 22.9631C13.9246 22.9836 14.2708 23.0045 14.6194 23.0244C16.3826 23.1251 18.2812 23.2086 20.0571 23.1465C21.8569 23.0835 23.4019 22.8732 24.5083 22.454C24.9294 22.2944 25.3298 21.8405 25.6353 20.9592C25.9297 20.1099 26.0315 19.1488 26.0608 18.5011C26.1038 17.5583 26.7109 16.4469 27.9648 16.1896C29.3716 15.9009 32.8906 15.6162 34.8855 19.1071C35.239 19.726 35.4829 20.3276 35.6243 20.9121C35.6968 21.2119 36.0093 21.9528 36.4492 22.6287C36.6187 22.8893 36.801 23.1514 37.0359 23.3582L45.0728 23.3582L45.0728 16.6276C45.0728 11.9375 41.2188 7.97742 36.1741 7.6366C35.0105 7.55798 33.9714 6.6073 33.9714 5.30933C33.9714 4.05969 32.9768 3.00562 31.562 3.00562L27.5444 3.00562ZM40.2969 37.908C40.3223 37.984 40.3528 38.058 40.3879 38.1294C37.4905 41.3971 33.5791 43.155 27.8237 44.8337C22.0789 43.2172 17.6716 41.1104 14.6917 38.041C11.8979 35.1636 10.2307 31.3064 10.0579 25.8213C10.0715 25.821 10.0854 25.8209 10.0996 25.8208C10.9124 25.8135 12.0139 25.8795 13.3347 25.9587L13.335 25.9587L13.335 25.9587C13.6904 25.98 14.062 26.0023 14.448 26.0244C16.2229 26.1257 18.2388 26.2168 20.1624 26.1495C22.062 26.083 24.0012 25.8595 25.573 25.2639C27.2261 24.6375 28.0542 23.1558 28.4744 21.9434C28.8347 20.9037 28.979 19.8317 29.0374 19.0577C30.0779 18.9387 31.4316 19.1194 32.2764 20.5979C32.5095 21.0057 32.6375 21.3448 32.7036 21.6183C32.8794 22.3458 33.3677 23.4027 33.9307 24.2677C34.2185 24.7098 34.5728 25.1758 34.979 25.5493C35.3401 25.8813 35.9807 26.363 36.8223 26.363L45.0676 26.363C44.9172 29.6904 44.2327 31.7878 42.9141 34.061L42.2659 33.6215C40.8406 32.6548 39.0022 34.0504 39.5503 35.6832L40.2969 37.908ZM56.0215 27.0461C56.8503 27.0079 57.5532 27.6489 57.5913 28.4779C57.6697 30.1802 57.4854 31.6759 56.6116 32.9808C55.7651 34.2448 54.417 35.1053 52.7329 35.9117C51.9846 36.27 51.0874 35.9539 50.729 35.2054C50.3706 34.4572 50.6868 33.5599 51.4353 33.2015C53.0085 32.4481 53.7358 31.8746 54.1147 31.3091C54.4658 30.7845 54.656 30.0553 54.5896 28.616C54.5515 27.7871 55.1926 27.0842 56.0215 27.0461ZM38.562 30.0492C38.562 30.879 37.8894 31.5516 37.0596 31.5516C36.23 31.5516 35.5574 30.879 35.5574 30.0492C35.5574 29.2195 36.23 28.5468 37.0596 28.5468C37.8894 28.5468 38.562 29.2195 38.562 30.0492ZM19.5315 30.0492C19.5315 30.879 18.8586 31.5516 18.0291 31.5516C17.1992 31.5516 16.5266 30.879 16.5266 30.0492C16.5266 29.2195 17.1992 28.5469 18.0291 28.5469C18.8586 28.5469 19.5315 29.2195 19.5315 30.0492ZM60.5288 29.049C61.3577 29.0109 62.0605 29.6519 62.0986 30.4808C62.177 32.1831 61.9924 33.6788 61.1187 34.9838C60.2725 36.2477 58.9241 37.1083 57.2402 37.9146C56.4917 38.2729 55.5945 37.9568 55.2363 37.2084C54.8779 36.46 55.1941 35.5629 55.9424 35.2045C57.5159 34.451 58.2432 33.8776 58.6218 33.3119C58.9731 32.7875 59.1631 32.0582 59.0969 30.6189C59.0588 29.79 59.6997 29.0872 60.5288 29.049ZM41.9365 36.007L45.1899 38.2133L44.6238 38.9563L42.3098 37.1199L41.9365 36.007ZM23.5378 36.0586C24.3677 36.0586 25.0403 36.7312 25.0403 37.561C25.0403 37.8119 25.1724 38.1534 25.6128 38.4838C26.0537 38.8145 26.7314 39.0635 27.5442 39.0635C28.3569 39.0635 29.0349 38.8145 29.4758 38.4838C29.9163 38.1534 30.0483 37.8119 30.0483 37.561C30.0483 36.7312 30.7209 36.0586 31.5508 36.0586C32.3804 36.0586 33.0532 36.7312 33.0532 37.561C33.0532 38.9697 32.2883 40.1305 31.2788 40.8877C30.2695 41.6445 28.9443 42.0682 27.5442 42.0682C26.1443 42.0682 24.8191 41.6445 23.8098 40.8877C22.8003 40.1305 22.0354 38.9697 22.0354 37.561C22.0354 36.7312 22.708 36.0586 23.5378 36.0586ZM46.6086 41.1179C46.6294 40.9768 46.667 40.8375 46.7212 40.7032L47.4143 38.9922L47.324 38.9751L46.1575 40.506C46.345 40.6705 46.5007 40.8766 46.6086 41.1179ZM49.5776 39.4025L48.7786 41.3756L49.7268 43.6149C49.9595 44.1639 49.7026 44.7976 49.1538 45.03C48.6047 45.2626 47.9709 45.006 47.7385 44.4569L47.3411 43.5181L47.3579 43.5751C47.5286 44.1465 47.2034 44.7479 46.6321 44.9183C46.1045 45.0757 45.5513 44.8107 45.3354 44.3192L46.4294 46.9028L50.7983 48.9192C50.98 49.0031 51.1465 49.1167 51.2908 49.2554L53.1799 51.0702C53.2188 51.1074 53.2542 51.1467 53.2861 51.188L53.2922 51.1855L57.9229 49.3333L56.6499 48.7001C56.2654 48.5088 55.9619 48.1862 55.7944 47.7906L52.4749 39.9519L52.3696 39.932L51.5938 41.3674L52.5891 43.0187C52.897 43.5293 52.7324 44.1929 52.2219 44.5007C51.7112 44.8085 51.0476 44.644 50.7397 44.1334L49.6384 42.3062C49.3096 41.7607 49.2937 41.082 49.5964 40.5217L50.1433 39.5098L49.5776 39.4025ZM42.6299 40.1304L43.3708 40.7186L43.1897 40.8278C42.4229 41.29 42.1125 42.246 42.4617 43.0706L44.4954 47.873C44.6699 48.2852 44.9919 48.6176 45.3984 48.8051L49.8386 50.8544L51.6841 52.6274C51.7319 52.6733 51.783 52.714 51.8364 52.7495C51.5923 53.5167 51.7146 54.3972 52.2808 55.0922L54.7922 58.1744L41.2664 48.1019L41.2664 41.5166C41.7388 41.0833 42.1931 40.6223 42.6299 40.1304ZM44.7556 42.405L44.5718 42.5159L45.3242 44.2927C45.311 44.2603 45.2991 44.2268 45.2888 44.1924L44.7556 42.405ZM17.0273 48.2667L17.0273 43.6486C19.9263 45.3939 23.3481 46.705 27.1553 47.767C27.6011 47.8912 28.0762 47.8892 28.5217 47.76C32.2717 46.6726 35.5049 45.4956 38.2615 43.7842L38.2615 48.7832L28.2341 58.5442L17.3167 48.4763C17.2268 48.3934 17.1296 48.3236 17.0273 48.2667ZM43.2471 53.3234C43.2671 53.425 43.2842 53.527 43.2983 53.6288C43.4907 55.0104 43.1292 56.4797 41.9509 57.5356C40.7727 58.5917 39.1697 58.8832 37.6777 58.6666L37.6692 58.6654C37.6992 58.7915 37.7249 58.9176 37.7461 59.0437C37.9888 60.4802 37.6677 62.031 36.438 63.1332C35.208 64.2355 33.5181 64.4873 31.9678 64.2228C30.6362 63.9954 29.3037 63.3805 28.1577 62.4578C27.2295 63.1687 26.2065 63.6934 25.1687 63.9883C23.5552 64.4467 21.7356 64.3801 20.3333 63.333C18.9312 62.2859 18.4822 60.6582 18.6328 59.1074C18.6538 58.8922 18.6863 58.6753 18.7297 58.4576C17.2847 58.7723 15.7061 58.6006 14.4651 57.6738C13.199 56.7284 12.6931 55.3027 12.7495 53.9071C12.7827 53.0813 13.0098 52.2363 13.4124 51.4305C7.07715 56.1005 3.00488 63.5686 3.00488 72.0172L3.00488 93.5048L4.6438 96.8572L12.0193 96.8572L12.0193 89.5452L9.02759 67.1077C8.91797 66.2853 9.49585 65.5295 10.3184 65.4199C11.1406 65.3103 11.8965 65.8881 12.0061 66.7106L15.0242 89.3458L15.0242 96.1559L40.0645 96.1559L40.0645 89.3458L43.0764 66.757C43.0603 66.5963 43.0703 66.4303 43.1094 66.2643C43.2993 65.4567 44.1082 64.9559 44.916 65.146L67.8752 70.5481L61.6604 51.0746L55.0408 53.7224L59.6702 59.4041C61.5337 61.6909 58.5994 64.756 56.2334 62.9941L43.2471 53.3234ZM16.6472 51.9463L19.7524 54.8099C19.217 55.2407 18.6379 55.5154 18.105 55.6392C17.364 55.8112 16.8042 55.6821 16.4478 55.4159C16.0911 55.1497 15.8379 54.6715 15.8662 53.9674C15.8911 53.3534 16.137 52.6322 16.6472 51.9463ZM36.2087 54.975C36.8508 55.4559 37.543 55.7317 38.1565 55.8208C38.915 55.9309 39.4521 55.7534 39.7712 55.4674C40.0901 55.1815 40.2979 54.6915 40.2 53.9891C40.1152 53.3798 39.8003 52.6809 39.2256 52.0382L36.2087 54.975ZM22.4509 57.2985C22.0303 58.0046 21.7988 58.7062 21.7393 59.3191C21.6501 60.2349 21.9414 60.7954 22.3159 61.0751C22.6904 61.3547 23.3457 61.5009 24.2983 61.2302C24.8066 61.0858 25.3518 60.8313 25.8872 60.4674L22.4509 57.2985ZM30.5132 60.5189L33.6592 57.4567C34.2271 58.1366 34.5537 58.8538 34.6597 59.4808C34.7925 60.267 34.5732 60.7826 34.2581 61.0649C33.9431 61.3474 33.3779 61.5348 32.5295 61.3899C31.8994 61.2823 31.1899 60.9961 30.5132 60.5189ZM34.8125 124.702L40.0645 124.702L40.0645 99.1608L15.0242 99.1608L15.0242 123.7L20.5166 123.7L25.585 104.809C25.7478 104.155 26.3628 103.671 27.0356 103.668C27.6934 103.664 28.2959 104.11 28.4841 104.744L34.8125 124.702ZM8.65381 108.977C6.36792 106.483 5.08276 103.26 5.01123 99.8621L9.51538 99.8621L9.51538 103.468C9.51538 104.851 10.6365 105.972 12.0193 105.972L12.0193 108.977L8.65381 108.977ZM16.3264 139.927L16.3264 126.705L19.3313 126.705L19.3313 139.927L16.3264 139.927ZM36.0583 127.707L36.0583 139.927L39.0632 139.927L39.0632 127.707L36.0583 127.707ZM16.3264 145.665L16.3264 142.932L19.3313 142.932L19.3313 150.444L8.76245 150.444L14.7715 147.982C15.7122 147.597 16.3264 146.681 16.3264 145.665ZM36.0583 150.444L36.0583 142.932L39.0632 142.932L39.0632 145.665C39.0632 146.681 39.6775 147.597 40.6179 147.982L46.6272 150.444L36.0583 150.444Z" fill-rule="evenodd" fill="#000000"/>
</svg>
