<svg width="56.130859" height="153.418701" viewBox="0 0 56.1309 153.419" fill="none" xmlns="http://www.w3.org/2000/svg" xmlns:xlink="http://www.w3.org/1999/xlink">
	<desc>
			Created with Pixso.
	</desc>
	<defs/>
	<path id="Carrying a baby" d="M47.6023 16.4631L47.6023 23.901C47.6023 29.9379 46.5513 35.8629 42.2354 40.3983C41.8523 40.8008 41.5737 41.1602 41.1562 41.5306L41.1562 47.1073C41.1562 47.147 41.1545 47.1864 41.1516 47.2253C46.3396 50.2358 50.7661 54.8826 53.4106 60.4579C53.9011 61.3177 54.2859 62.2458 54.5469 63.2245C55.3547 65.5406 56.1309 68.3485 56.1309 70.8091L56.1309 87.6682C56.1309 89.0375 55.021 90.1475 53.6516 90.1475L43.6353 90.1475L43.6353 103.139C43.6353 103.212 43.6301 103.284 43.6199 103.355C43.6301 103.447 43.6355 103.54 43.6355 103.635L43.6355 127.932C43.6355 128.102 43.6184 128.268 43.5859 128.428L43.634 128.428L43.6365 138.926C44.2136 139.13 44.627 139.681 44.627 140.328L44.627 150.939C44.627 152.309 43.5171 153.419 42.1477 153.419L26.2803 153.419C25.4695 153.419 24.7493 153.029 24.2969 152.427C23.8447 153.029 23.1245 153.419 22.3135 153.419L6.44604 153.419C5.0769 153.419 3.9668 152.309 3.9668 150.939L3.9668 150.444C3.9668 147.143 6.61621 144.493 9.91724 144.493L12.8923 144.493L12.8923 140.346C12.8921 140.34 12.8921 140.334 12.8921 140.328C12.8921 139.507 13.5581 138.841 14.3796 138.841L14.8757 138.841L14.8757 129.916C14.2737 129.463 13.884 128.743 13.884 127.932L13.884 103.635C13.884 103.487 13.897 103.342 13.9219 103.202C9.07373 101.697 5.55371 97.1774 5.55371 91.8339L5.55371 91.7506C5.55322 91.0935 5.55298 90.2434 5.73706 89.4281L1.18555 86.545C0.48584 86.1018 0.0617676 85.3311 0.0617676 84.5027L0.0617676 77.78C0.0214844 77.6451 0 77.5024 0 77.3545L0 69.9167C0 69.7153 0.0400391 69.5232 0.112549 69.348C0.955078 59.848 6.46021 51.738 14.387 47.252C14.3823 47.2043 14.3799 47.1561 14.3799 47.1073L14.3799 42.2052C13.6707 41.6466 13.0046 41.0503 12.3853 40.4122C9.49341 37.4337 7.29443 32.5786 6.94214 28.2645L6.94214 19.3391C6.94214 8.62488 16.1641 0.000732422 27.2722 0.000732422L31.25 0.000732422C34.033 0.000732422 36.2715 2.00989 36.5757 4.64246C42.7224 5.32373 47.6023 10.2944 47.6023 16.4631ZM9.91724 19.3391C9.91724 10.4175 17.6536 2.97583 27.2722 2.97583L31.25 2.97583C32.6506 2.97583 33.6357 4.01953 33.6357 5.25684C33.6357 6.54199 34.6643 7.48328 35.8164 7.56104C40.8113 7.89844 44.6272 11.8195 44.6272 16.4631L44.6272 23.7367C40.1951 23.1907 36.7134 19.298 36.6934 14.4231L36.6934 14.381C36.6934 13.5594 36.0273 12.8934 35.2058 12.8934C34.3843 12.8934 33.718 13.5594 33.718 14.381L33.7183 14.4224C33.6953 19.4354 29.5413 23.5378 24.3589 23.5378C20.0803 23.5378 16.0195 25.6737 13.6631 29.2987L10.9458 32.4081C10.2742 30.3779 9.91724 28.0299 9.91724 25.2897L9.91724 19.3391ZM14.5198 38.3397C13.6641 37.4585 12.9153 36.4844 12.2837 35.3984L15.9258 31.231C16.0093 31.1355 16.0818 31.0375 16.1448 30.9398C16.364 30.6008 16.6033 30.2784 16.8601 29.9738C17.6865 29.4397 18.2908 29.2554 18.8127 29.2565C18.0051 29.2725 17.3552 29.9323 17.3552 30.7437C17.3552 31.5653 18.0212 32.2313 18.8428 32.2313C19.6643 32.2313 20.3303 31.5653 20.3303 30.7437C20.3303 29.9813 19.7568 29.3528 19.0176 29.2662C19.7126 29.3314 20.51 29.7241 21.7231 30.6234C22.1631 30.9496 22.7842 30.8573 23.1104 30.4174C23.4365 29.9774 23.3442 29.3563 22.9043 29.0302C21.9553 28.3267 21.05 27.7578 20.1086 27.4725C21.4177 26.8494 22.8691 26.5129 24.3589 26.5129C28.9854 26.5129 33.0361 24.0013 35.1462 20.2712C36.9937 23.8237 40.4692 26.3412 44.593 26.7261C44.3416 31.9001 42.7124 35.5812 40.0801 38.3474C37.1897 41.385 32.9514 43.467 27.5212 45.0651C21.8335 43.4646 17.4702 41.3787 14.5198 38.3397ZM37.6553 29.2565C36.9651 29.2551 36.1306 29.5779 34.8289 30.6052C34.3987 30.9446 33.7751 30.8711 33.4358 30.4412C33.0967 30.0112 33.1702 29.3876 33.6001 29.0483C35.0598 27.8962 36.3699 27.2314 37.78 27.275C39.1636 27.3176 40.4121 28.0406 41.7468 29.0302C42.187 29.3563 42.2793 29.9774 41.9531 30.4174C41.627 30.8573 41.0059 30.9496 40.5657 30.6234C39.3523 29.7239 38.5549 29.3312 37.8599 29.2662C38.5991 29.3525 39.1729 29.9811 39.1729 30.7437C39.1729 31.5653 38.5068 32.2313 37.6853 32.2313C36.8638 32.2313 36.1978 31.5653 36.1978 30.7437C36.1978 29.9323 36.8477 29.2725 37.6553 29.2565ZM24.793 39.1735C24.793 38.3519 25.459 37.6859 26.2805 37.6859L29.2556 37.6859C30.0771 37.6859 30.7432 38.3519 30.7432 39.1735C30.7432 39.9951 30.0771 40.6611 29.2556 40.6611L26.2805 40.6611C25.459 40.6611 24.793 39.9951 24.793 39.1735ZM17.355 44.1986L17.355 47.1073C17.355 52.6045 22.0032 56.5287 27.5251 56.5287C30.3911 56.5287 33.0959 55.474 35.0693 53.8547C38.2749 51.2242 38.2368 48.3508 38.1919 44.9476C38.1865 44.5391 38.1812 44.1228 38.1812 43.6985C35.3281 45.5183 31.9507 46.8723 28.2161 47.9617C27.7744 48.0905 27.3022 48.0929 26.8604 47.9696C23.3171 46.9812 20.1108 45.775 17.355 44.1986ZM2.9751 71.9045L2.9751 73.4496L14.9719 73.4496C15.7595 73.4496 16.3977 74.088 16.3977 74.8755C16.3977 75.6628 15.7595 76.3013 14.9719 76.3013L10.7043 76.3013L10.7043 81.4406L34.9641 57.9391L34.9807 57.9562C35.9839 56.9569 37.1675 56.1385 38.4783 55.5541L38.4783 55.5366L38.5173 55.5367C39.9614 54.8993 41.5588 54.5453 43.2388 54.5453C44.2029 54.5453 45.1399 54.6619 46.0364 54.8818C44.4775 53.2152 42.7178 51.7422 40.8186 50.5106C40.2014 52.6996 38.7844 54.6548 36.9565 56.1547C34.4688 58.1959 31.1018 59.5038 27.5251 59.5038C21.4148 59.5038 16.0332 55.6073 14.6973 50.5355C7.61206 55.052 2.9751 62.9059 2.9751 71.9001L2.9751 71.9045ZM46.6663 74.0566C46.4924 74.2048 46.3137 74.3473 46.1304 74.484C49.5291 73.2909 51.9658 70.0537 51.9658 66.2474C51.9658 65.5103 51.8745 64.7943 51.7024 64.1105C51.4277 63.3339 51.1145 62.5723 50.7656 61.828C49.7517 60.105 48.1631 58.7606 46.2632 58.0587C48.6428 59.9083 50.1807 62.7103 50.1807 66.2472C50.1807 69.5035 48.8462 72.1982 46.6663 74.0566ZM34.5117 66.2474C34.5117 62.9017 36.3945 59.9956 39.1582 58.5311C43.8364 58.7988 47.2056 61.8324 47.2056 66.2472C47.2056 68.6322 46.2532 70.4994 44.7361 71.7925C43.302 73.015 41.2986 73.7745 38.9905 73.8726C36.3186 72.3807 34.5117 69.5251 34.5117 66.2474ZM39.6685 65.9498C40.49 65.9498 41.156 65.2838 41.156 64.4622C41.156 63.6406 40.49 62.9746 39.6685 62.9746C38.8469 62.9746 38.1809 63.6406 38.1809 64.4622C38.1809 65.2838 38.8469 65.9498 39.6685 65.9498ZM31.8643 89.9973L28.5115 93.3502L26.1104 91.3914L26.2825 91.2261C26.6677 90.8557 26.8857 90.3442 26.8857 89.8097C26.8857 88.7249 26.0063 87.8455 24.9214 87.8455L18.4387 87.8455L12.7295 83.621L31.5688 65.3704C31.5476 65.6599 31.5366 65.9524 31.5366 66.2474C31.5366 72.7104 36.7756 77.9497 43.2388 77.9497C43.4714 77.9497 43.7024 77.9429 43.9319 77.9294L40.54 81.3213L40.4795 81.3213C38.6606 79.2311 35.9233 77.8442 33.2092 77.5936C32.1309 77.4941 31.2849 78.168 30.9727 79.0403L28.8589 79.0403C27.4895 79.0403 26.3796 80.1504 26.3796 81.5197L26.3796 84.1559C26.3796 84.8534 26.6736 85.5187 27.1892 85.9885L31.0442 89.5009C31.2847 89.7201 31.5637 89.8877 31.8643 89.9973ZM41.6521 70.9086C42.4736 70.9086 43.1396 70.2426 43.1396 69.4209C43.1396 68.5994 42.4736 67.9333 41.6521 67.9333C40.8303 67.9333 40.1646 68.5994 40.1646 69.4209C40.1646 70.2426 40.8303 70.9086 41.6521 70.9086ZM53.1558 72.5944L53.1558 72.4626C53.1389 72.4896 53.1218 72.5165 53.1047 72.5433L53.1558 72.5944ZM44.7476 81.3213L47.8999 81.3213C48.7214 81.3213 49.3875 81.9873 49.3875 82.8088C49.3875 83.6304 48.7214 84.2964 47.8999 84.2964L40.2678 84.2964C39.4661 84.2964 38.771 83.9119 38.3181 83.3716C37.1641 81.9948 35.4124 80.9984 33.6404 80.6569C33.3005 81.4554 32.5088 82.0155 31.5862 82.0155L29.3547 82.0155L29.3547 83.9368L32.906 87.1724L53.1558 87.1724L53.1558 72.9128L44.7476 81.3213ZM2.9751 77.3545C2.9751 77.5024 2.95361 77.6451 2.91333 77.78L2.91333 84.2638L15.8188 92.4387L21.4885 97.2507L24.6108 97.2507L26.4846 95.377L23.928 93.2913C23.1326 92.6423 22.8655 91.6046 23.1477 90.6971L18.2957 90.6971C17.7778 90.6971 17.2737 90.5309 16.8574 90.2229L8.83228 84.2847C8.21631 83.8287 7.85278 83.1077 7.85278 82.3413L7.85278 76.3013L2.9751 76.3013L2.9751 77.3545ZM40.6602 101.156L40.6602 90.1475L35.9216 90.1475L30.1785 95.8906C30.1704 96.5116 29.9248 97.1316 29.436 97.6013L27.5347 99.4281C27.1108 99.8354 26.554 100.073 25.969 100.1L25.8447 100.224L25.7231 100.102L25.7227 100.102L25.8447 100.224C25.5154 100.554 25.1667 100.865 24.8008 101.156L40.6602 101.156ZM8.52881 91.8339C8.52881 91.6031 8.52954 91.3927 8.53345 91.1995L14.125 94.7413L19.7649 99.528C20.0867 99.8011 20.4724 99.9836 20.8821 100.061C19.8274 100.51 18.6709 100.759 17.4543 100.759C12.5239 100.759 8.52881 96.7643 8.52881 91.8339ZM16.8591 104.131L16.8591 127.436L21.6768 127.436L25.2888 114.343L25.2888 110.081C25.2888 109.26 25.9548 108.594 26.7764 108.594C27.5979 108.594 28.2639 109.26 28.2639 110.081L28.2639 114.14L36.0581 127.436L40.6604 127.436L40.6604 104.131L16.8591 104.131ZM34.7097 138.841L34.7097 130.171C34.2681 129.961 33.8909 129.622 33.6353 129.186L27.2739 118.334L24.4443 128.591C24.3264 129.019 24.1006 129.395 23.8013 129.692L23.8013 138.925C24.3789 139.13 24.7927 139.681 24.7927 140.328L24.7927 147.141C25.8564 145.542 27.675 144.493 29.7515 144.493L32.7266 144.493L32.7266 140.346C32.7266 140.34 32.7263 140.334 32.7263 140.328C32.7263 139.507 33.3923 138.841 34.2141 138.841L34.7097 138.841ZM17.8508 130.411L20.8259 130.411L20.8259 138.841L17.8508 138.841L17.8508 130.411ZM37.6848 130.411L40.6594 130.411L40.6614 138.841L37.6848 138.841L37.6848 130.411ZM21.8176 150.444L21.8176 141.816L15.8674 141.816L15.8674 144.989C15.8674 146.358 14.7573 147.469 13.3882 147.469L9.91724 147.469C8.25952 147.469 6.94189 148.786 6.94189 150.444L21.8176 150.444ZM35.7017 141.816L41.6519 141.816L41.6519 150.444L26.7764 150.444C26.7764 148.786 28.0938 147.469 29.7515 147.469L33.2224 147.469C34.5916 147.469 35.7017 146.358 35.7017 144.989L35.7017 141.816Z" fill-rule="evenodd" fill="#000000"/>
</svg>
