<svg width="64.484131" height="155.023438" viewBox="0 0 64.4841 155.023" fill="none" xmlns="http://www.w3.org/2000/svg" xmlns:xlink="http://www.w3.org/1999/xlink">
	<desc>
			Created with Pixso.
	</desc>
	<defs/>
	<path id="NC headphones" d="M49.219 39.5551C51.1797 40.9277 53.5042 41.4314 55.7146 41.1278C61.6924 40.3068 65.2488 33.8118 64.3445 27.293C63.5742 21.74 59.6929 17.076 54.8645 16.3237C54.8582 16.2615 54.8513 16.1993 54.8442 16.1373C54.8401 16.103 54.8357 16.069 54.8306 16.0352C54.8271 16.0011 54.8232 15.967 54.8186 15.9329C54.8093 15.8647 54.7998 15.7969 54.7896 15.729C54.7842 15.6952 54.7786 15.6615 54.7725 15.6279C54.7678 15.5942 54.7627 15.5605 54.7571 15.5267C54.7456 15.4596 54.7339 15.3927 54.7214 15.3258C54.7151 15.2922 54.7083 15.259 54.7009 15.226C54.6953 15.1925 54.6892 15.1592 54.6824 15.1257C54.6687 15.0592 54.6548 14.9928 54.6401 14.9266C54.6328 14.8933 54.625 14.8604 54.6165 14.8276C54.6099 14.7946 54.6025 14.7614 54.5947 14.7283C54.5791 14.663 54.563 14.5978 54.5464 14.5327C54.5381 14.5001 54.5293 14.4678 54.52 14.4357C54.5122 14.4032 54.5042 14.3707 54.4951 14.3383C54.4775 14.2736 54.4595 14.209 54.4409 14.1447C54.4316 14.1123 54.4219 14.0803 54.4116 14.0486C54.4028 14.0164 54.3936 13.9843 54.3838 13.9521C54.3643 13.8883 54.3445 13.8248 54.324 13.7614C54.3137 13.7299 54.3032 13.6985 54.292 13.6675C54.2825 13.636 54.2725 13.6046 54.2617 13.5731C54.2405 13.5106 54.219 13.4481 54.1968 13.3859C54.1858 13.3546 54.1741 13.3237 54.1621 13.293C54.1558 13.2745 54.1494 13.2561 54.1428 13.2375C54.1384 13.225 54.1338 13.2123 54.1292 13.1997C54.106 13.1378 54.0825 13.076 54.0586 13.0145C54.0469 12.984 54.0344 12.9537 54.0217 12.9237C54.0105 12.8932 53.9988 12.8628 53.9863 12.8324C53.9619 12.7721 53.937 12.7119 53.9119 12.6519C53.8992 12.6218 53.886 12.5919 53.8726 12.5625C53.8606 12.5323 53.8479 12.5024 53.8347 12.4725C53.8088 12.4128 53.7822 12.3534 53.7554 12.2941C53.7419 12.2644 53.7278 12.235 53.7136 12.2058C53.7007 12.176 53.6873 12.1465 53.6733 12.1169C53.6462 12.059 53.6184 12.0011 53.5906 11.9435C53.5764 11.9144 53.562 11.8859 53.5471 11.8575C53.5337 11.8286 53.5195 11.7997 53.5051 11.771C53.4763 11.7136 53.4473 11.6565 53.4177 11.5996C53.4028 11.5709 53.3877 11.5427 53.3721 11.5148C53.3579 11.4861 53.343 11.4576 53.3279 11.4292C53.2979 11.3728 53.2673 11.3167 53.2363 11.2606C53.2209 11.2329 53.2053 11.2054 53.1895 11.1783C53.1746 11.1505 53.1594 11.1228 53.1438 11.0952C53.1128 11.0402 53.0811 10.9854 53.0493 10.9308C53.0393 10.9138 53.0293 10.8971 53.0193 10.8804C53.0129 10.87 53.0066 10.8597 53.0002 10.8495C52.9849 10.8219 52.969 10.7946 52.9526 10.7673C52.9202 10.713 52.8872 10.6589 52.854 10.605C52.8374 10.5781 52.8206 10.5515 52.8032 10.5253C52.7947 10.5105 52.7856 10.4956 52.7766 10.4808C52.7693 10.4689 52.7617 10.4568 52.7542 10.4447C52.7209 10.3921 52.6873 10.3396 52.6533 10.2872C52.6362 10.2609 52.6189 10.235 52.6013 10.2094L52.5925 10.1953L52.5874 10.1874C52.5754 10.1685 52.5632 10.1495 52.5508 10.1306C52.5161 10.0786 52.4814 10.0267 52.4463 9.9751C52.4285 9.9491 52.4106 9.92358 52.3923 9.89832C52.3752 9.87219 52.3579 9.84631 52.3398 9.82056C52.3044 9.76965 52.2688 9.71887 52.2327 9.66821C52.2253 9.65784 52.2178 9.64758 52.2104 9.63733C52.1997 9.62268 52.189 9.60815 52.178 9.59375C52.1606 9.56848 52.1428 9.54333 52.1248 9.51831C52.0884 9.46851 52.0518 9.41895 52.0151 9.36938L52.0112 9.36414C52.0068 9.3584 52.0024 9.35266 51.998 9.34692L51.9885 9.33423L51.9829 9.3269C51.9749 9.31653 51.9668 9.30615 51.9585 9.2959C51.9407 9.27087 51.9224 9.24609 51.9038 9.22156C51.8662 9.17236 51.8286 9.12341 51.7908 9.07458C51.7717 9.05017 51.7527 9.02625 51.7332 9.00269C51.7148 8.97815 51.696 8.95386 51.677 8.92969C51.6392 8.88196 51.6011 8.83447 51.5627 8.78711C51.5435 8.76343 51.5239 8.73999 51.5042 8.71692C51.4854 8.69299 51.4663 8.66919 51.447 8.64563C51.408 8.59863 51.3689 8.55176 51.3296 8.505C51.3098 8.48157 51.2898 8.4585 51.2695 8.43579C51.2502 8.41211 51.2307 8.38867 51.2107 8.36536C51.1711 8.31921 51.1313 8.27332 51.0911 8.22742C51.071 8.20471 51.051 8.18225 51.0305 8.16028C51.0112 8.13733 50.9915 8.1145 50.9714 8.09204C50.9312 8.047 50.8909 8.0022 50.8501 7.95752C50.8298 7.93506 50.8091 7.91309 50.7881 7.89136C50.7683 7.86865 50.7483 7.84619 50.7275 7.82397C50.6865 7.77966 50.6453 7.73547 50.6038 7.69141C50.5828 7.66931 50.5618 7.64758 50.5405 7.62622C50.5203 7.60388 50.4995 7.58179 50.4785 7.55994C50.4373 7.51697 50.3958 7.474 50.354 7.43127C50.333 7.40979 50.3118 7.38879 50.2903 7.36804C50.2698 7.34631 50.249 7.32483 50.228 7.30359C50.1858 7.26123 50.1433 7.21887 50.1008 7.17676C50.0793 7.15564 50.0579 7.13489 50.0359 7.1145C50.0151 7.09314 49.9939 7.0719 49.9722 7.0509C49.9292 7.00916 49.886 6.96753 49.8425 6.92603C49.821 6.9054 49.7993 6.88525 49.7771 6.86536C49.7563 6.84448 49.7349 6.82385 49.7131 6.80347C49.6699 6.76294 49.6267 6.72253 49.583 6.68225C49.561 6.66211 49.5391 6.64221 49.5166 6.6228C49.4954 6.60229 49.4736 6.58203 49.4517 6.56201C49.4077 6.52197 49.3635 6.48218 49.3191 6.4425C49.2969 6.42261 49.2744 6.40308 49.2517 6.38391C49.23 6.36377 49.2078 6.34375 49.1853 6.3241C49.1409 6.28491 49.0962 6.24597 49.0515 6.20728C49.0291 6.18787 49.0066 6.16895 48.9839 6.15039C48.9619 6.13074 48.9399 6.11133 48.9175 6.09229C48.8726 6.05408 48.8276 6.01599 48.7822 5.97815C48.7595 5.95911 48.7368 5.94043 48.7136 5.92224C48.6914 5.90283 48.6689 5.88379 48.6462 5.86499C48.6006 5.82739 48.5547 5.78992 48.5088 5.75269C48.4858 5.73389 48.4624 5.71558 48.439 5.69763C48.4165 5.67859 48.3938 5.65979 48.3706 5.64124C48.325 5.60474 48.2791 5.56836 48.2332 5.53223C48.21 5.51404 48.1868 5.49622 48.1631 5.47888C48.1406 5.46033 48.1177 5.44214 48.0945 5.42407C48.0483 5.38818 48.0017 5.35254 47.9551 5.31689C47.9316 5.29907 47.908 5.28149 47.8843 5.2644C47.8613 5.24622 47.8381 5.22827 47.8145 5.21057C47.7676 5.17529 47.7205 5.14014 47.6731 5.1051C47.6494 5.08765 47.6257 5.07056 47.6016 5.05383C47.5786 5.03601 47.5552 5.01855 47.5315 5.00122C47.4844 4.96692 47.4373 4.93286 47.3899 4.89893C47.366 4.88184 47.342 4.86523 47.3181 4.84888C47.2947 4.83154 47.2712 4.81433 47.2473 4.79749C47.1997 4.76379 47.1519 4.73035 47.1038 4.6969C47.0798 4.68018 47.0554 4.66382 47.031 4.64783C47.0076 4.63074 46.9836 4.61389 46.9595 4.59729C46.9111 4.56421 46.8628 4.53125 46.8142 4.49854C46.79 4.48218 46.7656 4.46631 46.7412 4.45081C46.7178 4.4342 46.6938 4.41772 46.6694 4.40161C46.6211 4.36951 46.5728 4.33765 46.5242 4.30579C46.4998 4.28979 46.4751 4.27429 46.4504 4.25916C46.4265 4.2428 46.4023 4.22668 46.3779 4.21094C46.3291 4.17932 46.28 4.14807 46.231 4.11682C46.2063 4.1012 46.1814 4.08594 46.1565 4.07104C46.1323 4.05493 46.1077 4.03918 46.083 4.02368C46.0337 3.9928 45.9841 3.96216 45.9346 3.93164C45.9099 3.91638 45.885 3.90161 45.8601 3.88721C45.8359 3.87158 45.8113 3.85632 45.7866 3.84131C45.7371 3.81128 45.6875 3.78149 45.6379 3.75183C45.6128 3.73694 45.5879 3.72241 45.5625 3.70825C45.5381 3.69299 45.5134 3.67798 45.4883 3.66321C45.4382 3.63391 45.3882 3.60461 45.3379 3.57556C45.3127 3.56091 45.2874 3.54675 45.262 3.53296C45.2371 3.51794 45.2122 3.50317 45.1868 3.48877C45.1365 3.46021 45.0862 3.43164 45.0356 3.40332C45.0105 3.38916 44.9851 3.37549 44.9595 3.36206C44.9348 3.34753 44.9097 3.33325 44.8845 3.31921C44.834 3.29138 44.7832 3.26355 44.7327 3.23596C44.707 3.22217 44.6814 3.20874 44.6558 3.19568C44.6309 3.1814 44.6055 3.16736 44.5798 3.15369C44.5288 3.12646 44.4778 3.09924 44.4265 3.07227C44.4009 3.05872 44.375 3.04565 44.3491 3.03284C44.3237 3.01892 44.2983 3.00525 44.2725 2.99182C44.2212 2.96533 44.1699 2.93896 44.1187 2.91272C44.0928 2.89966 44.0671 2.88696 44.041 2.87463C44.0159 2.86096 43.9902 2.84778 43.9646 2.83484C43.9131 2.80896 43.8613 2.78333 43.8098 2.75781C43.7837 2.745 43.7576 2.73254 43.7314 2.72058C43.7061 2.70728 43.6802 2.69434 43.6543 2.68164C43.6023 2.65649 43.5503 2.63135 43.498 2.60645C43.4719 2.59399 43.4456 2.58191 43.4192 2.57019C43.3936 2.55725 43.3674 2.54456 43.3413 2.53223C43.2893 2.50781 43.2371 2.48352 43.1848 2.45935C43.1587 2.44727 43.1323 2.43567 43.106 2.42432C43.0803 2.41174 43.0542 2.39954 43.0281 2.38757C42.9756 2.36377 42.9231 2.34021 42.8706 2.31677C42.844 2.30493 42.8176 2.29358 42.791 2.28259C42.7651 2.27039 42.7388 2.25842 42.7124 2.24683C42.6597 2.22363 42.6067 2.20068 42.5537 2.17773C42.5271 2.16638 42.5002 2.15527 42.4736 2.14465C42.4475 2.13269 42.4209 2.12109 42.3943 2.10974C42.3413 2.0874 42.2886 2.06519 42.2354 2.04309C42.2087 2.03198 42.1821 2.02136 42.1553 2.01111C42.1292 1.99951 42.1028 1.98828 42.0759 1.97742C42.0227 1.95569 41.9695 1.93408 41.916 1.91272C41.8892 1.90198 41.8623 1.8916 41.8354 1.88171C41.8091 1.87036 41.7822 1.8595 41.7554 1.84888C41.7019 1.82788 41.6482 1.80688 41.5942 1.78613C41.5674 1.77576 41.5403 1.76562 41.5132 1.7561C41.4866 1.74512 41.4597 1.7345 41.4326 1.72424C41.3789 1.70398 41.3252 1.68384 41.2715 1.66382C41.2444 1.65381 41.2173 1.64417 41.1902 1.63489C41.1636 1.62439 41.1367 1.61414 41.1096 1.60425C41.0557 1.58459 41.0015 1.56506 40.9473 1.54578C40.9202 1.53601 40.8928 1.52673 40.8655 1.51782C40.8386 1.50757 40.8118 1.49768 40.7844 1.48816C40.73 1.46912 40.6755 1.45032 40.6211 1.43164C40.5938 1.42224 40.5662 1.41321 40.5388 1.40466C40.512 1.39478 40.4846 1.38525 40.4573 1.37598C40.4028 1.35779 40.3484 1.3396 40.2937 1.32166C40.2664 1.31274 40.2388 1.30408 40.2114 1.2959C40.1843 1.28638 40.1572 1.27722 40.1296 1.26843C40.075 1.25073 40.02 1.2334 39.9653 1.21606C39.9377 1.2074 39.9102 1.1991 39.8826 1.19128C39.8552 1.18213 39.8279 1.17322 39.8003 1.16479C39.7451 1.14783 39.6899 1.1311 39.6348 1.1145C39.6072 1.10608 39.5793 1.09827 39.5515 1.0907C39.5242 1.08191 39.4966 1.07336 39.469 1.06519C39.4138 1.04907 39.3586 1.03296 39.3032 1.01721C39.2756 1.00916 39.2478 1.00171 39.22 0.994507C39.1926 0.986084 39.165 0.977905 39.1372 0.970093C39.0818 0.95459 39.0264 0.939331 38.9707 0.924194C38.9429 0.916504 38.915 0.909302 38.8872 0.902588C38.8596 0.894409 38.8318 0.886597 38.804 0.87915C38.748 0.86438 38.6924 0.849731 38.6365 0.835205C38.6084 0.828003 38.5803 0.821167 38.5525 0.814697C38.5247 0.806885 38.4968 0.799438 38.4688 0.792358C38.4131 0.77832 38.3572 0.764404 38.3013 0.750732C38.2732 0.743774 38.2451 0.737305 38.217 0.731323C38.1892 0.723877 38.1614 0.716797 38.1333 0.710083C38.0771 0.696777 38.021 0.683594 37.9648 0.670532C37.9368 0.66394 37.9084 0.657837 37.8804 0.652222C37.8525 0.645142 37.8245 0.638306 37.7961 0.631958C37.74 0.619385 37.6836 0.606934 37.6272 0.594604C37.5989 0.588379 37.5706 0.582642 37.5422 0.577271C37.5142 0.570557 37.4858 0.564209 37.4575 0.558228C37.4011 0.546265 37.3447 0.534546 37.2883 0.523071C37.26 0.517212 37.2317 0.511841 37.2034 0.506958C37.1753 0.50061 37.147 0.494629 37.1187 0.489014C37.062 0.477783 37.0054 0.466797 36.9487 0.455933C36.9202 0.450562 36.8918 0.445557 36.8633 0.440918C36.8352 0.434937 36.8069 0.429321 36.7783 0.424072C36.7214 0.413574 36.6646 0.40332 36.6077 0.393311C36.5791 0.388184 36.5505 0.383545 36.522 0.379272C36.4937 0.373657 36.4651 0.368408 36.4365 0.363525C36.3796 0.353882 36.3228 0.34436 36.2656 0.335083C36.2371 0.330322 36.2085 0.32605 36.1799 0.322266C36.1516 0.317017 36.123 0.312134 36.0945 0.307617C36.0374 0.298706 35.9802 0.289917 35.9229 0.281372C35.8943 0.2771 35.8655 0.273193 35.8369 0.269653C35.8086 0.264771 35.78 0.260376 35.7512 0.256226C35.6938 0.248047 35.6365 0.23999 35.5791 0.232178C35.5503 0.228271 35.5215 0.224731 35.4927 0.22168C35.4641 0.217163 35.4355 0.213013 35.4067 0.209351C35.3494 0.201904 35.2917 0.194702 35.2344 0.187622C35.2056 0.184082 35.1768 0.18103 35.1479 0.178223C35.1194 0.174194 35.0908 0.17041 35.0618 0.167114C35.0044 0.1604 34.9468 0.153931 34.8892 0.147705C34.8601 0.144531 34.8313 0.141846 34.8025 0.139526C34.7737 0.135742 34.7449 0.132446 34.7161 0.129517C34.6582 0.123657 34.6006 0.11792 34.5427 0.112427C34.5137 0.109741 34.4846 0.107422 34.4558 0.105469C34.427 0.102051 34.3982 0.0991211 34.3691 0.0965576C34.3113 0.0915527 34.2534 0.0866699 34.1956 0.0819092C34.1665 0.0795898 34.1377 0.0776367 34.1089 0.0760498C34.0801 0.0731201 34.051 0.0705566 34.022 0.0684814C33.9641 0.064209 33.9062 0.0600586 33.8481 0.0561523C33.8191 0.0541992 33.79 0.0527344 33.761 0.0515137C33.7322 0.0489502 33.7031 0.046875 33.6741 0.0450439C33.616 0.041626 33.5579 0.0383301 33.4998 0.0351562C33.4707 0.0336914 33.4417 0.0324707 33.4126 0.0317383C33.3835 0.0296631 33.3545 0.027832 33.3254 0.0264893C33.2673 0.0238037 33.209 0.0213623 33.1509 0.019165C33.1218 0.0179443 33.0925 0.0172119 33.0637 0.0169678C33.0347 0.0151367 33.0056 0.0137939 32.9763 0.0129395C32.9182 0.0109863 32.8601 0.00939941 32.8018 0.00793457C32.7725 0.00720215 32.7434 0.00683594 32.7144 0.00695801C32.6853 0.00561523 32.6562 0.00463867 32.627 0.00415039C32.5686 0.00317383 32.5103 0.00231934 32.4519 0.00170898C32.4226 0.00134277 32.3936 0.00146484 32.3643 0.00195312C32.3352 0.000976562 32.3062 0.000488281 32.2769 0.000366211C32.2476 0.000244141 32.2183 0.000244141 32.1892 0.000244141C32.1599 0.000244141 32.1306 0.000244141 32.1013 0.000366211C32.072 0.000488281 32.043 0.000976562 32.0139 0.00195312C31.9846 0.00146484 31.9556 0.00134277 31.9263 0.00170898C31.8679 0.00231934 31.8096 0.00317383 31.7512 0.00415039C31.7219 0.00463867 31.6929 0.00561523 31.6638 0.00695801C31.6348 0.00683594 31.6057 0.00720215 31.5764 0.00793457C31.5181 0.00939941 31.46 0.0109863 31.4019 0.0129395C31.3726 0.0137939 31.3435 0.0151367 31.3145 0.0169678C31.2856 0.0172119 31.2563 0.0179443 31.2273 0.019165C31.1692 0.0213623 31.1108 0.0239258 31.0527 0.0264893C31.0237 0.0279541 30.9946 0.0296631 30.9656 0.0318604C30.9365 0.0324707 30.9075 0.0336914 30.8784 0.0351562C30.8203 0.0383301 30.7622 0.041626 30.7041 0.0450439C30.675 0.046875 30.646 0.0489502 30.6172 0.0515137C30.5881 0.0527344 30.5591 0.0541992 30.53 0.0561523C30.4719 0.0600586 30.4141 0.064209 30.3562 0.0684814C30.3271 0.0705566 30.2981 0.0731201 30.2693 0.0761719C30.2405 0.0776367 30.2117 0.0795898 30.1826 0.0819092C30.1248 0.0866699 30.0669 0.0915527 30.009 0.0965576C29.98 0.0991211 29.9512 0.102051 29.9224 0.105469C29.8936 0.107422 29.8645 0.109741 29.8354 0.112427C29.7776 0.11792 29.72 0.123657 29.6621 0.129517C29.6333 0.132446 29.6045 0.135864 29.5757 0.139526C29.5469 0.141846 29.5181 0.144531 29.489 0.147705C29.4314 0.154053 29.3738 0.1604 29.3164 0.167114C29.2876 0.17041 29.2588 0.174194 29.2302 0.178223C29.2014 0.18103 29.1726 0.184082 29.1438 0.187622C29.0864 0.194702 29.0288 0.201904 28.9714 0.209351C28.9426 0.213013 28.9141 0.217163 28.8855 0.22168C28.8567 0.224731 28.8279 0.228271 28.7991 0.232178C28.7417 0.23999 28.6843 0.248047 28.627 0.256226C28.5984 0.260376 28.5696 0.264771 28.5413 0.269653C28.5127 0.273193 28.4839 0.2771 28.4553 0.281372C28.3979 0.289917 28.3408 0.298706 28.2837 0.307617C28.2551 0.312134 28.2266 0.317017 28.1982 0.322266C28.1697 0.32605 28.1411 0.330322 28.1125 0.335083C28.0554 0.34436 27.9985 0.353882 27.9417 0.363525C27.9131 0.368408 27.8845 0.373657 27.8562 0.379272C27.8276 0.383545 27.7993 0.388184 27.7705 0.393311C27.7136 0.40332 27.6567 0.413574 27.5999 0.424072C27.5713 0.429321 27.543 0.434937 27.5149 0.440918C27.4866 0.445557 27.458 0.450562 27.4294 0.455933C27.3728 0.466797 27.3162 0.477783 27.2595 0.489014C27.2312 0.494629 27.2029 0.50061 27.1748 0.506958C27.1465 0.511841 27.1182 0.517212 27.0898 0.523071C27.0334 0.534546 26.9771 0.546265 26.9207 0.558228C26.8923 0.564209 26.864 0.570557 26.8359 0.577271C26.8079 0.582642 26.7795 0.588379 26.7512 0.594604C26.6946 0.606934 26.6382 0.619385 26.582 0.63208C26.5537 0.638428 26.5256 0.645142 26.4978 0.652222C26.4697 0.657837 26.4414 0.664062 26.4133 0.670532C26.3572 0.683594 26.301 0.696777 26.2449 0.710083C26.2168 0.716797 26.189 0.723877 26.1611 0.731323C26.1331 0.737427 26.105 0.743896 26.0769 0.750732C26.021 0.764404 25.9653 0.77832 25.9094 0.792358C25.8813 0.799438 25.8535 0.806885 25.8257 0.814697C25.7979 0.821167 25.7698 0.828003 25.7417 0.835205C25.6858 0.849731 25.6301 0.86438 25.5742 0.87915C25.5464 0.886597 25.5186 0.894409 25.4912 0.902588C25.4631 0.909302 25.4353 0.916504 25.4075 0.924194C25.3518 0.939331 25.2964 0.95459 25.241 0.970093C25.2131 0.977905 25.1855 0.986084 25.1582 0.994507C25.1304 1.00171 25.1025 1.00928 25.075 1.01721C25.0195 1.03296 24.9644 1.04907 24.9092 1.06519C24.8816 1.07336 24.854 1.08191 24.8267 1.0907C24.7988 1.09827 24.771 1.1062 24.7434 1.1145C24.6882 1.1311 24.6331 1.14783 24.5779 1.16479C24.5503 1.17322 24.5229 1.18213 24.4958 1.19128C24.468 1.19922 24.4404 1.2074 24.4131 1.21606C24.3582 1.2334 24.3032 1.25085 24.2485 1.26843C24.2209 1.27722 24.1938 1.28638 24.1667 1.2959C24.1394 1.30408 24.1118 1.31274 24.0845 1.32178C24.03 1.3396 23.9753 1.35779 23.9209 1.37598C23.8936 1.38525 23.8665 1.39478 23.8394 1.40466C23.812 1.41321 23.7844 1.42224 23.7571 1.43164C23.7026 1.45032 23.6482 1.46912 23.5938 1.48816C23.5664 1.49768 23.5396 1.50757 23.5127 1.51782C23.4854 1.52673 23.4583 1.53601 23.4309 1.54578C23.3767 1.56506 23.3228 1.58459 23.2686 1.60425C23.2415 1.61414 23.2146 1.62439 23.188 1.63489C23.1609 1.64417 23.1338 1.65381 23.1069 1.66382C23.053 1.68384 22.9993 1.70398 22.9456 1.72437C22.9185 1.73462 22.8916 1.74512 22.865 1.7561C22.8379 1.76575 22.8108 1.77576 22.7839 1.78613C22.73 1.80688 22.6763 1.82788 22.6228 1.849C22.5959 1.8595 22.5693 1.87048 22.5427 1.88171C22.5159 1.8916 22.489 1.90198 22.4622 1.91272C22.4087 1.93408 22.3555 1.95569 22.3022 1.97742C22.2754 1.98828 22.249 1.99951 22.2229 2.01111C22.196 2.02136 22.1694 2.0321 22.1428 2.04309C22.0898 2.06519 22.0369 2.0874 21.9839 2.10974C21.9573 2.12109 21.9309 2.13269 21.9045 2.14465C21.8779 2.15527 21.8511 2.16638 21.8245 2.17786C21.7715 2.20068 21.7188 2.22363 21.6658 2.24683C21.6394 2.25842 21.613 2.27039 21.5872 2.28259C21.5605 2.29358 21.5342 2.30493 21.5078 2.31677C21.4551 2.34021 21.4026 2.36389 21.3503 2.38757C21.324 2.39954 21.2979 2.41174 21.2722 2.42432C21.2458 2.43567 21.2195 2.44739 21.1934 2.45947C21.1411 2.48352 21.0889 2.50781 21.0369 2.53223C21.0107 2.54456 20.9846 2.55725 20.959 2.57019C20.9326 2.58191 20.9062 2.59399 20.8801 2.60645C20.8279 2.63135 20.7759 2.65649 20.7239 2.68164C20.698 2.69434 20.6721 2.70728 20.6467 2.72058C20.6206 2.73254 20.5945 2.745 20.5686 2.75781C20.5168 2.78333 20.4651 2.80896 20.4138 2.83484C20.3879 2.84778 20.3623 2.86108 20.3372 2.87463C20.311 2.88696 20.2854 2.89966 20.2595 2.91272C20.2083 2.93896 20.157 2.96533 20.1057 2.99182C20.0798 3.00525 20.0544 3.01892 20.0291 3.03284C20.0032 3.04565 19.9773 3.05872 19.9517 3.07227C19.9004 3.09924 19.8494 3.12646 19.7983 3.15369C19.7727 3.16736 19.7473 3.1814 19.7224 3.19568C19.6968 3.20874 19.6711 3.22217 19.6458 3.23596C19.595 3.26355 19.5442 3.29138 19.4937 3.31921C19.4685 3.33325 19.4434 3.34753 19.4187 3.36206C19.3931 3.37549 19.3679 3.38916 19.3425 3.40332C19.292 3.43164 19.2417 3.46021 19.1914 3.48877C19.166 3.5033 19.1411 3.51794 19.1162 3.53296C19.0908 3.54675 19.0654 3.56104 19.0403 3.57556C18.99 3.60461 18.9399 3.63391 18.8899 3.66321C18.865 3.67798 18.8401 3.69299 18.8157 3.70837C18.7905 3.72241 18.7654 3.73694 18.7405 3.75183C18.6907 3.78149 18.6411 3.81128 18.5916 3.84131C18.5669 3.85632 18.5422 3.87158 18.5181 3.88721C18.4932 3.90161 18.4683 3.9165 18.4436 3.93164C18.394 3.96216 18.3445 3.99292 18.2952 4.02368C18.2705 4.03918 18.2461 4.05493 18.2217 4.07104C18.1968 4.08594 18.1721 4.1012 18.1472 4.11682C18.0981 4.14807 18.0491 4.17944 18.0002 4.21094C17.9758 4.22668 17.9517 4.2428 17.9277 4.25916C17.9031 4.27429 17.8784 4.28992 17.854 4.30579C17.8054 4.33765 17.7571 4.36963 17.7087 4.40161C17.6846 4.41772 17.6606 4.4342 17.637 4.45081C17.6125 4.46631 17.5881 4.48218 17.564 4.49854C17.5154 4.53125 17.467 4.56421 17.4187 4.59729C17.3945 4.61389 17.3706 4.63074 17.3472 4.64783C17.3228 4.66382 17.2983 4.68018 17.2744 4.6969C17.2263 4.73035 17.1785 4.76379 17.1309 4.79749C17.1069 4.81433 17.0835 4.83154 17.0601 4.849C17.0361 4.86523 17.0122 4.88184 16.9883 4.89893C16.9409 4.93286 16.8938 4.96704 16.8467 5.00122C16.823 5.01855 16.7996 5.03613 16.7766 5.05396C16.7524 5.07056 16.7288 5.08765 16.7051 5.1051C16.6577 5.14014 16.6106 5.17529 16.5637 5.21057C16.54 5.22827 16.5168 5.24622 16.4939 5.26453C16.4702 5.28162 16.4465 5.29907 16.4231 5.31689C16.3765 5.35254 16.3301 5.38831 16.2837 5.42419C16.2605 5.44214 16.2375 5.46033 16.2151 5.47888C16.1917 5.49634 16.1682 5.51404 16.1453 5.53223C16.0991 5.56848 16.0532 5.60474 16.0076 5.64124C15.9844 5.65979 15.9617 5.67859 15.9392 5.69763C15.9158 5.71558 15.8923 5.73389 15.8694 5.75269C15.8235 5.78992 15.7776 5.82739 15.7322 5.86499C15.7092 5.88379 15.6868 5.90283 15.6646 5.92224C15.6416 5.94055 15.6187 5.95911 15.5959 5.97815C15.5508 6.01599 15.5056 6.05408 15.4607 6.09229C15.4382 6.11145 15.4163 6.13074 15.3943 6.15039C15.3716 6.16895 15.3491 6.18787 15.3269 6.20728C15.282 6.24609 15.2373 6.28503 15.1929 6.3241C15.1704 6.34375 15.1482 6.36377 15.1265 6.38403C15.104 6.4032 15.0813 6.42261 15.0591 6.44263C15.0146 6.48218 14.9705 6.52209 14.9265 6.56201C14.9045 6.58203 14.8828 6.60229 14.8616 6.6228C14.8391 6.64221 14.8171 6.66211 14.7952 6.68225C14.7517 6.72253 14.7083 6.76294 14.665 6.80359C14.6433 6.82397 14.6221 6.8446 14.6011 6.86536C14.5791 6.88525 14.5571 6.9054 14.5356 6.92603C14.4922 6.96753 14.449 7.00916 14.406 7.0509C14.3843 7.0719 14.363 7.09314 14.3423 7.1145C14.3206 7.13489 14.2988 7.15564 14.2773 7.17688C14.2349 7.21899 14.1924 7.26123 14.1501 7.30359C14.1292 7.32483 14.1084 7.34644 14.0879 7.36804C14.0664 7.38879 14.0452 7.40991 14.0244 7.43127C13.9824 7.474 13.9409 7.51697 13.8997 7.55994C13.8787 7.58179 13.8579 7.604 13.8379 7.62634C13.8164 7.64758 13.7954 7.66931 13.7747 7.69141C13.7329 7.73547 13.6917 7.77966 13.6506 7.82397C13.6301 7.84619 13.6099 7.86865 13.5901 7.89136C13.5691 7.91309 13.5483 7.93518 13.5281 7.95752C13.4873 8.0022 13.447 8.04712 13.407 8.09204C13.3867 8.11462 13.3669 8.13733 13.3477 8.16028C13.3271 8.18237 13.3071 8.20471 13.2871 8.22742C13.2471 8.27332 13.207 8.31921 13.1675 8.36536C13.1475 8.38867 13.1279 8.41211 13.1086 8.43579C13.0884 8.4585 13.0684 8.48157 13.0486 8.505C13.0093 8.55176 12.9702 8.59863 12.9314 8.64563C12.9119 8.66919 12.8928 8.69299 12.874 8.71692C12.8542 8.73999 12.8347 8.76343 12.8154 8.78723C12.7771 8.83447 12.739 8.88208 12.7012 8.92969C12.6821 8.95386 12.6633 8.97815 12.645 9.00269C12.6257 9.02625 12.6064 9.05029 12.5874 9.07458C12.5496 9.12341 12.512 9.17236 12.4746 9.22156C12.4558 9.24622 12.4375 9.271 12.4197 9.29602C12.4004 9.32007 12.3816 9.3446 12.3633 9.36951C12.3264 9.41895 12.2898 9.46863 12.2534 9.51843C12.2354 9.54333 12.2175 9.56848 12.2002 9.59375C12.1816 9.61829 12.1636 9.64307 12.1455 9.66821C12.1096 9.71887 12.0737 9.76965 12.0383 9.82056C12.0203 9.84631 12.0029 9.87219 11.9858 9.89832C11.9675 9.92358 11.9497 9.94922 11.9319 9.9751C11.897 10.0269 11.8621 10.0786 11.8274 10.1306C11.8103 10.1567 11.7935 10.183 11.7769 10.2094C11.7593 10.235 11.7419 10.261 11.7249 10.2872C11.6909 10.3396 11.6575 10.3921 11.624 10.4448C11.6072 10.4714 11.5908 10.4983 11.575 10.5254C11.5576 10.5515 11.5408 10.5781 11.5242 10.605C11.491 10.6589 11.458 10.7131 11.4255 10.7673C11.4092 10.7946 11.3933 10.822 11.3779 10.8495C11.3613 10.8762 11.345 10.9033 11.3289 10.9308C11.2971 10.9855 11.2656 11.0403 11.2344 11.0952C11.2188 11.1228 11.2036 11.1505 11.189 11.1783C11.1729 11.2054 11.1572 11.2329 11.1418 11.2607C11.1111 11.3167 11.0806 11.3729 11.0503 11.4292C11.0352 11.4576 11.0205 11.4862 11.0063 11.5148C10.9907 11.5427 10.9753 11.571 10.9604 11.5996C10.9309 11.6566 10.9019 11.7137 10.873 11.771C10.8586 11.7998 10.8447 11.8286 10.8313 11.8575C10.8164 11.8859 10.8018 11.9146 10.7878 11.9435C10.7598 12.0011 10.7319 12.059 10.7048 12.1169C10.6909 12.1465 10.6775 12.1761 10.6646 12.2059C10.6504 12.235 10.6365 12.2644 10.6228 12.2942C10.5959 12.3534 10.5696 12.413 10.5435 12.4725C10.5303 12.5024 10.5178 12.5325 10.5056 12.5625C10.4922 12.592 10.479 12.6218 10.4663 12.652C10.4412 12.7119 10.4163 12.7721 10.3918 12.8324C10.3794 12.8628 10.3677 12.8933 10.3564 12.9238C10.3438 12.9537 10.3315 12.984 10.3196 13.0146C10.2957 13.0762 10.2722 13.1378 10.249 13.1998C10.2375 13.2308 10.2266 13.262 10.2161 13.2931C10.2041 13.3237 10.1926 13.3547 10.1814 13.386C10.1594 13.4482 10.1377 13.5106 10.1165 13.5732C10.1057 13.6046 10.0957 13.6361 10.0862 13.6675C10.075 13.6986 10.0645 13.7299 10.0542 13.7615C10.0339 13.8248 10.0139 13.8884 9.99438 13.9521C9.98462 13.9843 9.97534 14.0165 9.96655 14.0486C9.9563 14.0804 9.94653 14.1124 9.93726 14.1448C9.9187 14.2091 9.90063 14.2736 9.88306 14.3383C9.87427 14.3707 9.86597 14.4032 9.85815 14.4357C9.84888 14.4678 9.84009 14.5002 9.83179 14.5328C9.81519 14.5979 9.79907 14.6631 9.78369 14.7284C9.77563 14.7615 9.76855 14.7946 9.76172 14.8276C9.75342 14.8604 9.74561 14.8934 9.73804 14.9266C9.72363 14.9929 9.70947 15.0593 9.6958 15.1259C9.68921 15.1592 9.68286 15.1926 9.67725 15.226C9.66992 15.259 9.66309 15.2924 9.65698 15.3259C9.64453 15.3927 9.63257 15.4597 9.62109 15.5267C9.61548 15.5605 9.61035 15.5944 9.60571 15.6281C9.59961 15.6615 9.59399 15.6952 9.58887 15.7291C9.57861 15.7969 9.56885 15.8649 9.55957 15.9329C9.55518 15.967 9.55103 16.0011 9.54761 16.0352C9.54248 16.0691 9.53809 16.1031 9.53394 16.1373C9.52612 16.2052 9.5188 16.2731 9.51221 16.3412C4.73364 17.1455 0.904297 21.7814 0.139648 27.293C-0.764648 33.8118 2.79175 40.3068 8.76978 41.1278C10.916 41.4226 13.1699 40.9563 15.094 39.6722C15.564 40.2927 16.073 40.8842 16.6201 41.4476C17.2324 42.0782 17.8884 42.6697 18.5852 43.2255C18.5593 43.337 18.5457 43.4531 18.5457 43.5725L18.5457 48.6616C18.5457 48.7112 18.5479 48.7601 18.5525 48.8085C10.0178 53.6147 4.2019 62.4784 3.7439 72.7908C3.72461 72.8873 3.7146 72.9872 3.7146 73.0894L3.7146 106.49C3.7146 106.799 3.771 107.106 3.88086 107.395L4.99658 110.33C5.37207 111.317 6.3186 111.97 7.375 111.97L13.429 111.97C14.2651 111.97 15.0073 111.567 15.4712 110.944L14.9956 127.98C14.9556 129.413 16.106 130.596 17.5391 130.596L17.6252 130.596L17.6252 145.657C17.532 145.727 17.4463 145.807 17.3704 145.897C14.2876 146.221 11.8975 148.797 11.8975 151.97L11.8975 152.479C11.8975 153.884 13.0366 155.023 14.4419 155.023L27.3352 155.023C28.7446 155.023 29.8857 153.878 29.8799 152.468L29.7881 130.595C31.2244 130.566 32.3567 129.351 32.2764 127.909L31.4033 112.275L33.8723 112.275L33.4082 127.977C33.366 129.411 34.5168 130.596 35.9517 130.596L36.0359 130.596L36.0359 145.876C32.8311 146.08 30.3081 148.71 30.3081 151.97L30.3081 152.479C30.3081 153.884 31.4473 155.023 32.8525 155.023L45.7502 155.023C47.1555 155.023 48.2947 153.884 48.2947 152.479L48.2947 130.596L48.6704 130.596C50.1199 130.596 51.2766 129.387 51.2124 127.939L50.4233 110.141C50.8877 110.64 51.5505 110.952 52.2861 110.952L58.3398 110.952C59.3965 110.952 60.343 110.299 60.7183 109.312L61.8315 106.384C61.9458 106.083 62.0022 105.763 61.9973 105.441L61.4888 72.0481C61.4856 71.8325 61.4377 71.6281 61.3542 71.4434C60.3726 61.7535 54.1311 53.3939 46.1421 48.781C46.1453 48.7416 46.1467 48.7018 46.1467 48.6616L46.1467 43.5725C46.1467 43.3561 46.1016 43.15 46.0203 42.9634C46.5911 42.4802 47.1331 41.9709 47.6448 41.4331C48.2107 40.8386 48.7356 40.2131 49.219 39.5551ZM50.0308 25.677L50.0308 25.6786L50.031 25.6799L50.031 25.6808L50.031 25.6812C50.0361 25.8552 50.0698 26.0217 50.1274 26.1764C50.0452 32.1094 48.3147 36.2434 45.4048 39.3015C42.4006 42.4587 37.9954 44.6227 32.3516 46.2836C26.4402 44.6201 21.9053 42.452 18.8386 39.2936C15.8032 36.1672 14.0601 31.9169 14.0549 25.7576L14.0557 25.7422C14.0569 25.714 14.0591 25.668 14.063 25.6056C14.0708 25.4808 14.085 25.2904 14.1099 25.0438C14.1599 24.5502 14.2529 23.8344 14.4246 22.9711C14.769 21.2379 15.4226 18.947 16.6516 16.6726C17.8772 14.4043 19.6619 12.1747 22.2695 10.5085C24.8687 8.84766 28.3704 7.69177 33.1235 7.69177C33.1543 7.69177 33.1851 7.69092 33.2153 7.68909C36.8467 7.99292 39.6458 9.02759 41.8157 10.4143C44.4233 12.0804 46.208 14.3101 47.4336 16.5784C48.6626 18.8528 49.3162 21.1436 49.6606 22.8768C49.8323 23.7401 49.9255 24.4558 49.9753 24.9495C50.0002 25.196 50.0144 25.3865 50.0222 25.5114C50.0261 25.5737 50.0283 25.6196 50.0295 25.6479C50.0303 25.6621 50.0305 25.6719 50.0308 25.677ZM19.1667 30.7091C20.5188 29.6473 21.384 29.3171 22.1021 29.3234C21.262 29.3318 20.5837 30.012 20.5837 30.85C20.5837 31.6932 21.2705 32.3767 22.1179 32.3767C22.9651 32.3767 23.6521 31.6932 23.6521 30.85C23.6521 30.0616 23.0515 29.4128 22.281 29.3318C23.0049 29.3937 23.832 29.797 25.0938 30.7277C25.5461 31.0614 26.1833 30.9652 26.5171 30.5128C26.8506 30.0604 26.7544 29.4232 26.302 29.0896C24.9253 28.0739 23.6392 27.3334 22.2153 27.2897C20.7644 27.2451 19.4153 27.9257 17.9094 29.1082C17.4675 29.4553 17.3904 30.0952 17.7378 30.5372C18.085 30.9794 18.7246 31.0563 19.1667 30.7091ZM41.5359 29.3234C40.8176 29.3171 39.9524 29.6473 38.6003 30.7091C38.1582 31.0563 37.5183 30.9794 37.1711 30.5374C36.824 30.0952 36.9009 29.4553 37.343 29.1082C38.8486 27.9258 40.198 27.2451 41.6489 27.2897C43.0728 27.3334 44.3586 28.0739 45.7356 29.0896C46.188 29.4233 46.2842 30.0605 45.9504 30.5128C45.6167 30.9652 44.9795 31.0614 44.5273 30.7278C43.2666 29.7977 42.4397 29.3943 41.7161 29.332C42.4861 29.4136 43.0859 30.0621 43.0859 30.85C43.0859 31.6932 42.3989 32.3767 41.5518 32.3767C40.7043 32.3767 40.0176 31.6932 40.0176 30.85C40.0176 30.0121 40.6958 29.3319 41.5359 29.3234ZM29.2703 37.4657C29.2703 36.6224 28.5867 35.939 27.7437 35.939C26.9004 35.939 26.2168 36.6224 26.2168 37.4657C26.2168 38.9004 26.9995 40.0802 28.0288 40.8483C29.0579 41.6163 30.4084 42.0458 31.835 42.0458C33.2612 42.0458 34.6121 41.6163 35.6411 40.8483C36.6702 40.0802 37.4529 38.9004 37.4529 37.4657C37.4529 36.6224 36.7693 35.939 35.9263 35.939C35.083 35.939 34.3994 36.6224 34.3994 37.4657C34.3994 37.7173 34.2664 38.0642 33.8147 38.4012C33.363 38.7384 32.668 38.9924 31.835 38.9924C31.0017 38.9924 30.3069 38.7384 29.855 38.4012C29.4036 38.0642 29.2703 37.7173 29.2703 37.4657ZM43.0933 49.7074C43.0906 49.5643 43.1079 49.4197 43.1467 49.2778C43.1567 49.2416 43.1677 49.2059 43.1802 49.1708C43.124 49.0116 43.0933 48.8402 43.0933 48.6616L43.0933 45.0751C40.2004 46.8604 36.8091 48.2046 33.0737 49.2942C32.6147 49.4281 32.1243 49.4305 31.6648 49.3024C27.9021 48.2527 24.5049 46.9667 21.5991 45.2753L21.5991 48.6616C21.5991 48.8401 21.5684 49.0115 21.512 49.1708C21.5684 49.33 21.5991 49.5013 21.5991 49.6799C21.5991 53.9629 26.0764 58.3313 32.0957 58.3313C35.0552 58.3313 37.8474 57.2474 39.8838 55.5847C41.9224 53.9203 43.083 51.7875 43.0933 49.7074ZM17.7683 52.9124C18.1289 52.6577 18.4966 52.4116 18.8708 52.1744C20.2454 57.3865 25.7996 61.3848 32.0957 61.3848C35.7805 61.3848 39.2505 60.0439 41.8152 57.9498C43.7017 56.4094 45.1648 54.3999 45.8005 52.1487C46.4563 52.5713 47.0959 53.0217 47.717 53.498C47.7034 53.5803 47.696 53.6649 47.696 53.7512L47.696 70.002C47.696 70.4332 47.8057 70.8574 48.0146 71.2347L51.7429 77.9669L50.3005 90.901L15.3613 90.901L13.9707 77.9698L17.7007 71.2347C17.9094 70.8574 18.019 70.4332 18.019 70.002L18.019 53.7512C18.019 53.4414 17.9268 53.1531 17.7683 52.9124ZM14.9656 55.1952C9.89819 59.9381 6.76807 66.6407 6.76807 74.1074L6.76807 74.1111L6.76807 106.397L7.72607 108.917L12.9199 108.917L12.9199 105.112L10.9189 103.652C10.2307 103.15 9.8396 102.337 9.87671 101.485L10.8757 78.6207C10.8811 78.4996 10.9004 78.3823 10.9321 78.2705L10.9175 78.1362C10.8616 77.6152 10.9678 77.0897 11.2214 76.6313L14.9656 69.8705L14.9656 55.1952ZM54.5984 76.8436C54.74 77.0635 54.8269 77.3226 54.8391 77.6027L55.8381 100.467C55.8755 101.318 55.4841 102.132 54.7961 102.634L52.7949 104.094L52.7949 107.898L57.989 107.898L58.9426 105.39L58.4714 74.4381C58.448 74.3317 58.4355 74.2209 58.4355 74.1074C58.4355 67.2551 55.397 60.9078 50.7495 56.1798L50.7495 69.8705L54.4927 76.6294C54.5312 76.6993 54.5667 76.7709 54.5984 76.8436ZM35.7004 82.4202C37.1218 82.4202 38.2744 81.2694 38.2773 79.8486L38.2773 79.8435L38.2773 71.1023C38.2783 71.0521 38.2756 71.0016 38.269 70.9509C38.2673 70.9376 38.2654 70.9244 38.2632 70.9113C38.2195 70.6493 38.0769 70.4207 37.875 70.2651C37.7378 70.1594 37.573 70.0875 37.3936 70.0619C37.2942 70.0475 37.1919 70.0475 37.0896 70.0634C37.0779 70.0652 37.0662 70.0671 37.0547 70.0693C36.9878 70.0819 36.9233 70.101 36.8618 70.1257L28.6619 73.2007C28.5962 73.2235 28.5334 73.2529 28.4746 73.288C28.3459 73.364 28.2383 73.4656 28.156 73.5835C28.0703 73.7056 28.0107 73.8472 27.9846 74.0002C27.9734 74.0653 27.9683 74.1317 27.97 74.1987L27.97 80.4103C27.8035 80.3765 27.6311 80.3588 27.4546 80.3588C26.0315 80.3588 24.8779 81.5125 24.8779 82.9355C24.8779 84.3586 26.0315 85.5125 27.4546 85.5125C28.8777 85.5125 30.0315 84.3586 30.0315 82.9355C30.0315 82.9268 30.0315 82.918 30.0312 82.9091L30.0312 74.8888L36.2158 72.5696L36.2158 77.318C36.0493 77.2842 35.877 77.2665 35.7004 77.2665C34.2773 77.2665 33.1235 78.4202 33.1235 79.8434C33.1235 81.2665 34.2773 82.4202 35.7004 82.4202ZM13.2622 93.9545L15.9453 93.9545L15.6746 103.657C15.4963 103.323 15.2434 103.028 14.929 102.798L12.9392 101.346L13.2622 93.9545ZM27.2502 127.542L29.1975 127.542L28.3247 111.908C28.2434 110.449 29.4043 109.222 30.8652 109.222L33.8804 109.222C33.908 109.222 33.9353 109.222 33.9624 109.224L34.4001 94.4187C34.4048 94.256 34.4351 94.1001 34.4866 93.9545L19 93.9545L18.0623 127.542L20.1609 127.542L20.1697 127.542L27.2415 127.542L27.2502 127.542ZM46.6658 127.542C46.6782 127.542 46.6909 127.542 46.7034 127.543L46.7302 127.543C46.7427 127.542 46.7554 127.542 46.7681 127.542C46.7756 127.542 46.7834 127.542 46.791 127.542C46.7959 127.543 46.8008 127.543 46.8057 127.543L48.1384 127.543L46.6748 94.5314C46.6658 94.3291 46.6965 94.1343 46.7603 93.9545L37.3657 93.9545C37.427 94.1274 37.458 94.3145 37.4521 94.5089L36.4758 127.543L38.5317 127.543C38.5479 127.542 38.5642 127.542 38.5803 127.542L46.6658 127.542ZM49.6396 93.9545L52.4973 93.9545L52.7759 100.328L50.7861 101.78C50.498 101.99 50.2615 102.255 50.0869 102.556L49.7253 94.3961C49.7183 94.2415 49.6887 94.0933 49.6396 93.9545ZM15.8811 149.771C15.3049 150.325 14.9509 151.104 14.9509 151.97L26.8242 151.97L26.7346 130.596L20.6787 130.596L20.6787 145.903L22.5356 146.431C23.3467 146.661 23.8171 147.506 23.5864 148.317C23.356 149.128 22.5115 149.598 21.7004 149.368L19.4863 148.738L19.489 148.74C20.1487 149.265 20.2578 150.226 19.7327 150.886C19.2075 151.545 18.2468 151.654 17.5872 151.129L15.8811 149.771ZM41.4578 146.431L39.0894 145.757L39.0894 130.596L45.2412 130.596L45.2412 151.97L33.3616 151.97C33.3616 150.987 33.8179 150.116 34.5371 149.559L36.5095 151.129C37.1692 151.654 38.1296 151.545 38.6548 150.886C39.1799 150.226 39.071 149.265 38.4111 148.74L38.4084 148.738L40.6228 149.368C41.4338 149.598 42.2781 149.128 42.5088 148.317C42.7393 147.506 42.2688 146.661 41.4578 146.431Z" fill-rule="evenodd" fill="#000000"/>
</svg>
