<svg width="55.346436" height="148.754639" viewBox="0 0 55.3464 148.755" fill="none" xmlns="http://www.w3.org/2000/svg" xmlns:xlink="http://www.w3.org/1999/xlink">
	<desc>
			Created with Pixso.
	</desc>
	<defs/>
	<path id="Hearing aid" d="M46.6069 19.8632C46.6069 19.8639 46.6038 19.8647 45.6482 19.8916L46.6069 19.8649C46.6162 20.2014 46.5107 20.5145 46.3259 20.7665C46.48 21.0806 46.5759 21.4291 46.5996 21.7985L47.0935 29.52C47.1978 31.1494 45.9636 32.3019 44.5945 32.4331C44.3081 32.6863 43.9937 32.9109 43.6487 33.097C42.3013 33.824 40.7253 33.8381 39.0698 33.0874C38.3374 32.7551 38.0127 31.892 38.345 31.1594C38.6772 30.4269 39.5405 30.1023 40.2729 30.4346C40.7749 30.6621 41.1799 30.7416 41.5132 30.7328L16.7922 6.01172C14.6882 7.52197 13.2048 9.43286 12.1562 11.3737C10.9985 13.5162 10.3828 15.6742 10.0583 17.307C9.89673 18.1202 9.80908 18.7944 9.76196 19.2595C9.73853 19.4918 9.7251 19.6711 9.71777 19.7888C9.71411 19.8475 9.71191 19.8909 9.71069 19.9175L9.71021 19.9319C9.71216 25.9186 10.4185 29.9612 12.1924 33.2317C12.748 34.2562 13.4185 35.223 14.2268 36.1616L15.8936 32.4946C16.2874 31.6281 17.1514 31.0717 18.1033 31.0717L25.4321 31.0717C26.5767 31.0717 27.5657 31.8713 27.8057 32.9905L28.9194 38.1881C29.0208 38.661 28.9766 39.1348 28.8147 39.5596C32.4382 38.0757 36.0349 36.2579 38.4009 34.3154C39.0225 33.8051 39.9404 33.8953 40.4507 34.517C40.948 35.1227 40.8752 36.0095 40.2959 36.5267L40.2959 42.2379C40.2959 42.4082 40.2668 42.5717 40.2131 42.7235C40.2668 42.8754 40.2959 43.0388 40.2959 43.2091C40.2959 43.7836 40.2375 44.3485 40.127 44.9001C48.3708 49.407 54.8069 58.1084 55.3142 68.1486C55.3352 68.2472 55.3462 68.3495 55.3462 68.4543L55.3462 69.3644C55.3462 69.3848 55.3464 69.4052 55.3464 69.4255L55.3464 70.3965L55.3462 70.4114L55.3462 73.2942L55.3462 73.2997L55.3464 73.3094L55.3464 101.047C55.3464 101.379 55.2781 101.708 55.1458 102.013L54.1204 104.376C53.7354 105.263 52.8606 105.837 51.8936 105.837L46.1221 105.837C44.7815 105.837 43.6946 104.75 43.6946 103.41L43.6946 99.8326C43.6946 99.0046 44.1167 98.2336 44.8145 97.7876L46.5183 96.698L44.5337 78.4476L42.7227 121.911C42.7051 122.408 42.4385 122.841 42.0439 123.091L42.0439 146.327C42.0439 147.668 40.957 148.755 39.6165 148.755L27.6733 148.755C26.3328 148.755 25.2458 147.668 25.2458 146.327L25.2458 145.813C25.2458 144.828 25.8416 143.941 26.7532 143.567L33.3052 140.883L33.3052 123.302C32.6484 123.214 32.1304 122.69 32.0527 122.03L28.9182 99.2339L27.3367 99.2339L24.2573 121.63C24.2688 121.704 24.2749 121.781 24.2749 121.858C24.2749 122.377 24.0037 122.833 23.5952 123.091L23.5952 146.327C23.5952 147.668 22.5083 148.755 21.1677 148.755L9.22461 148.755C7.88403 148.755 6.79712 147.668 6.79712 146.327L6.79712 145.813C6.79712 144.828 7.39282 143.941 8.30444 143.567L14.8564 140.883L14.8564 123.302C14.1438 123.207 13.5942 122.597 13.5942 121.858L13.5942 88.2146L5.89648 89.6763C5.74707 89.7046 5.5957 89.7188 5.4436 89.7188L4.36987 89.7188C3.0293 89.7188 1.94238 88.6321 1.94238 87.2914L1.94238 77.1447C0.834473 76.9197 0.000488281 75.9401 0.000488281 74.7657L0.000488281 69.4302L0.000488281 69.4257L0.000488281 68.4543C0.000488281 68.3572 0.0100098 68.2622 0.0280762 68.1704C0.466309 58.2535 6.07471 49.7382 14.2905 45.1785C14.1521 44.5377 14.0796 43.8794 14.0796 43.2091C14.0796 43.0388 14.1089 42.8754 14.1624 42.7235C14.1089 42.5717 14.0796 42.4082 14.0796 42.2379L14.0796 40.1696C12.2107 38.467 10.7422 36.6677 9.63184 34.6205C9.37427 34.1455 9.13721 33.6598 8.91992 33.162C6.33154 33.276 4.69971 31.3701 3.84595 29.4877C2.5481 26.626 4.1543 23.4574 6.82373 21.8734C6.80591 21.2367 6.79736 20.5826 6.79736 19.9103L6.79736 19.8984C6.79736 19.8812 6.79761 19.864 6.79834 19.8469L6.79858 19.8397C6.79907 19.8268 6.7998 19.8096 6.80078 19.788C6.80273 19.7448 6.80566 19.6844 6.81055 19.6082C6.82007 19.4554 6.83618 19.2384 6.86377 18.9663C6.9187 18.4225 7.01904 17.6554 7.20117 16.7391C7.56421 14.9127 8.25903 12.4586 9.59351 9.98901C10.9309 7.51355 12.9231 5.00183 15.8801 3.1123C18.3298 1.54688 21.3872 0.443848 25.1814 0.10791C25.3511 0.0386963 25.5369 0.000488281 25.7314 0.000488281C26.0603 0.000488281 26.384 0.00585938 26.7031 0.0162354C27.0217 0.00585938 27.345 0.000488281 27.6733 0.000488281C27.8677 0.000488281 28.0535 0.0386963 28.2229 0.107788C32.0173 0.443726 35.075 1.54688 37.5247 3.1123C40.4817 5.00171 42.4739 7.51355 43.8113 9.98889C45.1455 12.4585 45.8403 14.9126 46.2034 16.739C46.3855 17.6554 46.4858 18.4224 46.541 18.9662C46.5686 19.2384 46.5847 19.4554 46.5942 19.608C46.5989 19.6844 46.6021 19.7448 46.604 19.7878L46.6052 19.8186L46.606 19.8396L46.6067 19.8556L46.6067 19.8611L46.6069 19.8632ZM41.5173 19.2301L26.9429 2.9408C30.8115 3.11877 33.7339 4.14685 35.9563 5.56689C38.4126 7.13647 40.094 9.23682 41.2485 11.3737C42.406 13.5161 43.022 15.6742 43.3464 17.3069C43.5046 18.1031 43.592 18.7662 43.6399 19.2301L41.5173 19.2301ZM43.7151 28.2787L19.7842 4.34778C20.7329 3.95129 21.7781 3.62146 22.9309 3.37854C22.9668 3.42908 23.0059 3.47803 23.0481 3.52527L39.2275 21.6082C39.748 22.1899 40.4915 22.5223 41.2722 22.5223L43.3469 22.5223L43.7151 28.2787ZM15.0505 25.2458C15.0505 26.0502 14.3984 26.7023 13.5942 26.7023C12.7898 26.7023 12.1377 26.0502 12.1377 25.2458C12.1377 24.4414 12.7898 23.7893 13.5942 23.7893C14.3984 23.7893 15.0505 24.4414 15.0505 25.2458ZM32.0427 26.7023C32.8472 26.7023 33.4993 26.0502 33.4993 25.2458C33.4993 24.4414 32.8472 23.7893 32.0427 23.7893C31.2383 23.7893 30.5862 24.4414 30.5862 25.2458C30.5862 26.0502 31.2383 26.7023 32.0427 26.7023ZM6.49878 28.2845C6.14868 27.5125 6.30493 26.4032 7.04614 25.4552C7.2124 27.0859 7.46875 28.5931 7.83569 30.0018C7.34888 29.713 6.89648 29.1616 6.49878 28.2845ZM16.8892 37.3438L18.416 33.9846L25.0396 33.9846L25.9819 38.3826L21.0757 40.1348L16.8892 37.3438ZM18.449 36.4122C18.449 35.6078 19.1011 34.9557 19.9055 34.9557L22.8184 34.9557C23.6228 34.9557 24.2749 35.6078 24.2749 36.4122C24.2749 37.2166 23.6228 37.8687 22.8184 37.8687L19.9055 37.8687C19.1011 37.8687 18.449 37.2166 18.449 36.4122ZM16.9673 42.5094C16.9534 42.5829 16.9341 42.6544 16.9097 42.7235C16.9634 42.8754 16.9924 43.0388 16.9924 43.2091C16.9924 47.3011 21.2458 51.4624 26.95 51.4624C29.7559 51.4624 32.4041 50.4297 34.3362 48.8444C36.2786 47.2506 37.3831 45.2046 37.3831 43.2091C37.3831 43.0388 37.4124 42.8754 37.4661 42.7235C37.4124 42.5717 37.3831 42.4082 37.3831 42.2379L37.3831 38.5743C32.7412 41.4114 26.4778 43.7098 22.1843 44.9722C21.512 45.1699 20.7959 45.0602 20.2192 44.6985C19.0498 43.9651 17.9673 43.2397 16.9673 42.5094ZM41.7678 75.0399C41.7578 74.95 41.7524 74.8584 41.7524 74.7657L41.7524 68.4543C41.7524 67.65 42.4045 66.9979 43.209 66.9979C44.0134 66.9979 44.6655 67.65 44.6655 68.4543L44.6655 74.2803L52.4333 74.2803L52.4333 69.3683C52.4097 60.1953 46.7114 51.9814 39.0967 47.6605C38.3752 48.959 37.3677 50.125 36.1841 51.0962C33.7483 53.0948 30.4519 54.3754 26.95 54.3754C21.948 54.3754 17.4451 51.7086 15.3386 47.9324C7.875 52.2389 2.92041 60.2131 2.91333 69.4065L2.91333 74.2803L10.6812 74.2803L10.6812 68.4543C10.6812 67.65 11.3333 66.9979 12.1377 66.9979C12.9421 66.9979 13.5942 67.65 13.5942 68.4543L13.5942 74.7657C13.5942 75.5612 13.2117 76.2673 12.6204 76.71C12.6223 76.7487 12.623 76.7875 12.623 76.8267L12.623 79.4264L19.1921 79.4264L22.8325 74.7341C23.2925 74.1415 24.0005 73.7948 24.7505 73.7948L27.0422 73.7948C28.1724 73.7948 29.1184 74.5829 29.3608 75.6396L30.6833 75.6396C32.0239 75.6396 33.1108 76.7264 33.1108 78.067L33.1108 82.5067C33.1108 83.4384 32.5776 84.2877 31.7388 84.6927L29.4263 85.8091L29.3794 85.8279C27.7473 86.4807 26.0098 86.8059 24.2749 86.8059L21.0134 86.8059L16.5071 87.6615L16.5071 96.3209L40.4902 96.3209C40.6221 96.3209 40.75 96.3384 40.8713 96.3713L41.7539 75.1902C41.7561 75.1394 41.7607 75.0892 41.7678 75.0399ZM4.85522 86.8059L4.85522 77.4309L9.71021 77.323L9.71021 79.9119C9.71021 81.2526 10.7971 82.3394 12.1377 82.3394L19.4299 82.3394C20.1799 82.3394 20.8879 81.9926 21.3477 81.3999L24.9883 76.7076L26.5684 76.7076C26.8108 77.7644 27.7568 78.5525 28.887 78.5525L30.198 78.5525L30.198 82.202L28.2522 83.1412C26.9846 83.6416 25.6311 83.8929 24.2749 83.8929L20.9678 83.8929C20.8159 83.8929 20.6643 83.9072 20.5151 83.9355L5.39795 86.8059L4.85522 86.8059ZM44.5842 77.2339C44.5898 77.2202 44.5959 77.2067 44.6021 77.1932L44.5859 77.1932L44.5842 77.2339ZM47.3757 77.6392C47.3586 77.4806 47.3164 77.3308 47.2539 77.1932L52.4333 77.1932L52.4333 100.946L51.575 102.924L46.6074 102.924L46.6074 100.099L48.3413 98.9899C49.1182 98.4932 49.5466 97.599 49.4468 96.6824L47.3757 77.6392ZM39.8701 120.402L34.7693 120.402L31.8586 99.2339L40.4902 99.2339C40.5801 99.2339 40.6677 99.2257 40.7532 99.2102L39.8701 120.402ZM21.4858 120.402L24.3965 99.2339L16.5071 99.2339L16.5071 120.402L21.4858 120.402ZM20.6821 123.315L17.7693 123.315L17.7693 135.646L20.6821 135.646L20.6821 123.315ZM39.1309 123.315L36.218 123.315L36.218 135.646L39.1309 135.646L39.1309 123.315ZM17.7693 138.559L20.6821 138.559L20.6821 145.842L10.4368 145.842L16.262 143.455C17.1738 143.082 17.7693 142.194 17.7693 141.209L17.7693 138.559ZM39.1309 138.559L39.1309 145.842L28.8855 145.842L34.7107 143.455C35.6226 143.082 36.218 142.194 36.218 141.209L36.218 138.559L39.1309 138.559Z" fill-rule="evenodd" fill="#000000"/>
</svg>
