<svg width="56.911621" height="153.438599" viewBox="0 0 56.9116 153.439" fill="none" xmlns="http://www.w3.org/2000/svg" xmlns:xlink="http://www.w3.org/1999/xlink">
	<desc>
			Created with Pixso.
	</desc>
	<defs/>
	<path id="Non-verbal" d="M4.99194 49.9154L13.9761 49.9154L13.9761 53.934C5.5647 58.7983 0.172363 67.5374 0.00415039 77.8679L0 77.8679L0 109.899C0 110.561 0.262939 111.196 0.730957 111.664L3.14111 114.074C3.60913 114.542 4.2439 114.805 4.90576 114.805L5.09131 114.805C6.46973 114.805 7.58716 113.687 7.58716 112.309L7.58716 109.115L8.98462 109.115L8.98462 132.275C8.98462 133.653 10.1021 134.771 11.4805 134.771L18.9675 134.771L18.9675 138.764L17.4702 138.764C16.6431 138.764 15.9727 139.434 15.9727 140.261L15.9727 144.454L12.9778 144.454C9.65503 144.454 6.98804 147.121 6.98804 150.444L6.98804 150.943C6.98804 152.321 8.10547 153.439 9.48389 153.439L25.4565 153.439C26.1406 153.439 26.7603 153.163 27.2112 152.718C27.6619 153.163 28.2817 153.439 28.9658 153.439L44.9385 153.439C46.3169 153.439 47.4341 152.321 47.4341 150.943L47.4343 133.752C47.7385 133.338 47.918 132.828 47.918 132.275L47.918 109.115L49.3157 109.115L49.3157 112.309C49.3157 113.687 50.4329 114.805 51.8113 114.805L51.9968 114.805C52.6587 114.805 53.2937 114.542 53.7617 114.074L56.1716 111.664C56.6396 111.196 56.9026 110.561 56.9026 109.899L56.9026 101.333L56.9028 101.327L56.9026 101.322L56.9026 79.3774C57.0491 71.7797 55.3699 66.3596 52.4287 62.2214C49.5083 58.1123 45.447 55.4197 41.1436 53.0907C41.1389 53.0883 41.1343 53.0858 41.1296 53.0833L41.1296 49.9154L50.866 49.9154C51.9463 49.9154 52.9387 49.213 53.2485 48.1277C54.7615 42.8263 54.906 37.244 54.906 31.7689C54.906 28.5835 54.0886 20.7565 50.3643 13.6669C46.5957 6.49316 39.7856 0.000732422 27.9521 0.000732422C17.9595 0.000732422 9.36377 4.83093 4.9668 13.8992C1.42212 21.2096 0.998291 29.4323 0.998291 33.2825C0.998291 39.5493 2.13037 45.7819 2.56152 47.932C2.79736 49.1079 3.83008 49.9154 4.99194 49.9154ZM7.66162 15.2058C4.41797 21.8955 3.99316 29.5652 3.99316 33.2825C3.99316 38.8888 4.95117 44.5254 5.41479 46.9205L13.2625 46.9205C8.56812 42.589 7.37207 38.7582 6.82031 30.7308C5.98389 18.5603 15.438 8.99512 27.4263 8.95288C40.3909 8.90784 48.5825 18.4824 48.5825 30.9169C48.1934 38.3953 46.489 42.4825 41.7727 46.9205L50.4756 46.9205C51.9026 41.6313 51.9111 35.4863 51.9111 31.7689C51.9111 28.9003 51.1445 21.5919 47.7129 15.0597C44.3254 8.61157 38.4072 2.99561 27.9521 2.99561C19.0942 2.99561 11.563 7.15979 7.66162 15.2058ZM11.354 21.4364C14.449 15.5883 20.8723 11.9707 27.4368 11.9478C34.0928 11.9247 40.8181 15.5632 43.762 21.6582C35.9551 13.2539 19.3162 13.1801 11.354 21.4364ZM27.7292 50.8544C22.0039 49.2433 17.6118 47.1434 14.6416 44.0844C11.0491 40.3842 10.2493 35.6572 10.0095 30.7308C10.4233 22.2244 20.3555 18.67 27.4531 18.4824C34.8809 18.6788 44.1982 22.3857 44.9177 30.9169C45.3064 35.5284 43.5901 40.7097 40.3716 44.092C37.4619 47.1498 33.1956 49.2457 27.7292 50.8544ZM17.9619 33.4438C17.2627 33.4352 16.4185 33.7559 15.0938 34.8014C14.6609 35.1429 14.0332 35.069 13.6917 34.6362C13.3501 34.2034 13.4241 33.5757 13.8567 33.2341C15.3262 32.0745 16.645 31.4053 18.0645 31.4491C19.4573 31.4921 20.7141 32.2198 22.0579 33.2158C22.5007 33.5442 22.5935 34.1693 22.2654 34.6123C21.937 35.0552 21.3118 35.1481 20.8689 34.8197C19.635 33.9052 18.8286 33.511 18.1238 33.4517C18.8782 33.5289 19.4668 34.1664 19.4668 34.9413C19.4668 35.7682 18.7964 36.4387 17.9692 36.4387C17.1423 36.4387 16.4719 35.7682 16.4719 34.9413C16.4719 34.1167 17.1384 33.4479 17.9619 33.4438ZM36.9294 33.4438C36.2302 33.4352 35.3862 33.7559 34.0613 34.8014C33.6284 35.1429 33.0007 35.069 32.6592 34.6362C32.3176 34.2034 32.3916 33.5757 32.8245 33.2341C34.2939 32.0745 35.6125 31.4053 37.0322 31.4491C38.4248 31.4921 39.6819 32.2198 41.0254 33.2158C41.4683 33.5442 41.5613 34.1693 41.2329 34.6123C40.9045 35.0552 40.2793 35.1481 39.8364 34.8197C38.6025 33.905 37.7959 33.511 37.0911 33.4517C37.8457 33.5288 38.4343 34.1663 38.4343 34.9413C38.4343 35.7682 37.7639 36.4387 36.937 36.4387C36.1099 36.4387 35.4395 35.7682 35.4395 34.9413C35.4395 34.1167 36.106 33.4478 36.9294 33.4438ZM16.9709 49.6741L16.9709 54.4478C19.9373 55.7037 23.6248 56.1506 27.4524 56.0199C31.2029 55.8918 34.9773 55.2129 38.1348 54.2971L38.1348 49.6827C35.3325 51.4125 32.0471 52.7146 28.4287 53.7701C27.9841 53.8999 27.509 53.9022 27.064 53.7781C23.2703 52.7198 19.8599 51.4133 16.9709 49.6741ZM10.4822 99.8298C10.4941 99.8298 10.5061 99.83 10.5178 99.8303L46.3848 99.8303C46.3967 99.83 46.4087 99.8298 46.4207 99.8298L53.9077 99.8298L53.9077 79.3774C53.865 74.001 53.1868 68.4575 49.9878 63.9565C47.7559 60.8164 44.6965 58.5527 41.1169 56.5024C36.7117 57.9144 32.1914 58.8547 27.5547 59.0131C23.1699 59.1628 18.6541 58.6194 14.9692 56.8268C7.62427 61.2988 2.99487 69.1183 2.99487 78.3668L2.99487 99.8298L10.4822 99.8298ZM8.98462 106.12L8.98462 102.825L2.99487 102.825L2.99487 109.692L4.59229 111.29L4.59229 108.615C4.59229 107.237 5.70972 106.12 7.08789 106.12L8.98462 106.12ZM47.918 106.12L49.8147 106.12C51.1931 106.12 52.3105 107.237 52.3105 108.615L52.3105 111.29L53.9077 109.692L53.9077 102.825L47.918 102.825L47.918 106.12ZM11.9795 102.825L44.9231 102.825L44.9231 131.776L11.9795 131.776L11.9795 102.825ZM24.9573 134.771L21.9624 134.771L21.9624 138.764L24.9573 138.764L24.9573 134.771ZM38.4495 134.771L27.9521 134.771L27.9521 140.249L27.9521 140.261L27.9521 140.272L27.9521 146.488C29.0476 145.239 30.6572 144.454 32.4597 144.454L35.4546 144.454L35.4546 140.261C35.4546 139.434 36.125 138.764 36.9521 138.764L38.4495 138.764L38.4495 134.771ZM44.4395 134.771L41.4443 134.771L41.4443 138.764L44.4395 138.764L44.4395 134.771ZM38.4495 141.759L44.4392 141.759L44.4392 150.444L29.4648 150.444C29.4648 148.775 30.791 147.449 32.4597 147.449L35.9539 147.449C37.332 147.449 38.4495 146.331 38.4495 144.953L38.4495 141.759ZM24.9573 150.444L24.9573 141.759L18.9675 141.759L18.9675 144.953C18.9675 146.331 17.8501 147.449 16.4719 147.449L12.9778 147.449C11.3091 147.449 9.98291 148.775 9.98291 150.444L24.9573 150.444Z" fill-rule="evenodd" fill="#000000"/>
</svg>
