<svg width="67.290283" height="152.833984" viewBox="0 0 67.2903 152.834" fill="none" xmlns="http://www.w3.org/2000/svg" xmlns:xlink="http://www.w3.org/1999/xlink">
	<desc>
			Created with Pixso.
	</desc>
	<defs/>
	<path id="Blind" d="M5.70264 47.519L14.2554 47.519L14.2554 49.1411L14.2422 49.1165C5.72192 53.7274 0 62.6564 0 72.989L0 90.6769C0 91.5397 0.467773 92.3347 1.22217 92.7538L5.01367 94.8602L8.44263 96.738C8.59814 97.3716 8.88647 98.3969 9.33887 99.4371C9.63477 100.117 10.0381 100.893 10.5813 101.575C10.4995 101.755 10.4541 101.955 10.4541 102.165L10.4541 134.478C10.4541 135.79 11.5178 136.853 12.8301 136.853L14.2554 136.853L14.2554 140.282L8.09912 142.898C7.22192 143.271 6.65259 144.132 6.65259 145.085L6.65259 145.584C6.65259 146.909 7.73633 147.978 9.06128 147.959L20.9407 147.795C22.24 147.777 23.2839 146.719 23.2839 145.42L23.2839 136.656C24.123 136.289 24.7095 135.452 24.7095 134.478L24.7095 115.945L27.0854 115.945C27.252 115.945 27.4119 115.917 27.5605 115.864L27.5605 134.477C27.5605 135.79 28.6243 136.853 29.9365 136.853L30.4116 136.853L30.4116 145.42C30.4116 146.719 31.4556 147.777 32.7549 147.795L44.6345 147.959C45.9592 147.978 47.0432 146.909 47.0432 145.584L47.0432 145.085C47.0432 144.132 46.4736 143.271 45.5964 142.898L39.4402 140.282L39.4402 136.853C40.7524 136.853 41.8162 135.79 41.8162 134.477L41.8162 127.408L65.1912 152.834L67.29 150.904L41.8162 123.195L41.8162 109.31C41.8254 110.614 42.8855 111.668 44.1919 111.668L46.531 111.668C47.4509 111.668 48.3174 111.133 48.6941 110.245C49.0488 109.409 49.7666 107.614 49.9746 106.169C50.094 105.34 50.0894 104.331 50.0637 103.588C50.0552 103.344 50.0442 103.119 50.033 102.925L51.7947 102.925C53.1069 102.925 54.1707 101.861 54.1707 100.549L54.1707 72.9886C54.1707 62.981 48.1072 54.1837 40.1052 49.4563L40.1052 47.519L49.3745 47.519C50.4028 47.519 51.3477 46.8503 51.6426 45.8171C53.2207 40.2874 53.2205 33.8787 53.2205 30.3018L53.2205 30.2438C53.2205 27.2113 52.4424 19.76 48.8967 13.0107C45.3091 6.1814 38.8259 0.000732422 27.5605 0.000732422C21.6509 0.000732422 17.0222 1.51111 13.4282 3.9635C9.84448 6.40894 7.37573 9.73206 5.67871 13.2319C2.3042 20.1914 1.90063 28.0193 1.90063 31.6847C1.90063 37.6506 2.97852 43.584 3.38892 45.6309C3.61328 46.7502 4.59644 47.519 5.70264 47.519ZM8.24414 14.4758C5.15625 20.8444 4.75195 28.1458 4.75195 31.6847C4.75195 37.0219 5.66406 42.3878 6.10522 44.668L14.2554 44.668L14.2554 44.1436C13.7607 43.7279 13.2903 43.2915 12.8445 42.8325C9.71582 39.6101 7.94043 35.4025 7.66577 29.8817C7.625 29.749 7.60303 29.608 7.60303 29.4619C7.60303 29.3531 7.61523 29.2472 7.63818 29.1453C7.63306 28.936 7.62988 28.725 7.62866 28.512C7.56055 28.118 7.62012 27.6606 7.92871 27.2482C8.24829 26.8213 8.68945 26.6544 8.91138 26.5848C9.38892 26.4352 9.98511 26.4052 10.5073 26.4005C11.3872 26.3926 12.5698 26.4636 13.8394 26.54C14.1624 26.5594 14.491 26.5792 14.8215 26.5981C16.4946 26.6936 18.2961 26.7729 19.9812 26.714C21.6887 26.6542 23.1548 26.4546 24.2046 26.0569C24.6042 25.9054 24.9841 25.4747 25.2739 24.6385C25.5532 23.8328 25.6497 22.9208 25.6777 22.3063C25.7185 21.4117 26.2944 20.3572 27.4844 20.1129C28.8191 19.839 32.158 19.569 34.0508 22.8812C34.3862 23.4684 34.6177 24.0393 34.7517 24.5939C34.8206 24.8784 35.1172 25.5813 35.5344 26.2225C35.7371 26.5341 35.9246 26.7621 36.0691 26.8949C36.0769 26.9021 36.0845 26.9087 36.0913 26.9148L45.1677 26.9148C45.9551 26.9148 46.5933 27.553 46.5933 28.3403L46.5933 28.3473L46.5933 28.3561C46.5903 34.6331 44.7896 39.3097 41.4502 42.8191C41.0244 43.2667 40.5757 43.6929 40.1052 44.0992L40.1052 44.668L49.0027 44.668C50.3611 39.6328 50.3694 33.7827 50.3694 30.2438C50.3694 27.5129 49.6396 20.5554 46.3728 14.3367C43.1479 8.19812 37.5139 2.85181 27.5605 2.85181C22.1609 2.85181 18.1057 4.22327 15.0352 6.3186C11.9543 8.4209 9.77832 11.3116 8.24414 14.4758ZM33.1448 27.7777C33.2004 27.8633 33.2588 27.9498 33.3198 28.0364L26.3806 28.0364C27.2021 27.3431 27.6833 26.3928 27.9678 25.5724C28.3098 24.5859 28.4465 23.5687 28.502 22.8345C29.4893 22.7216 30.7737 22.8929 31.5752 24.2958C31.7964 24.6827 31.9177 25.0044 31.9805 25.2639C32.1475 25.9542 32.6106 26.957 33.1448 27.7777ZM36.1582 26.9683C36.168 26.975 36.1726 26.9769 36.1726 26.9769C36.1726 26.9769 36.1677 26.9731 36.1582 26.9683ZM14.8901 40.8464C12.5261 38.4116 11.0122 35.2373 10.5959 30.8875L12.4275 30.8875C12.8845 33.8479 15.4436 36.1145 18.5322 36.1145C21.6206 36.1145 24.1797 33.8479 24.637 30.8875L29.5342 30.8875C29.9912 33.848 32.5503 36.1147 35.6389 36.1147C38.7273 36.1147 41.2866 33.848 41.7437 30.8875L43.6257 30.8875C43.2107 35.2378 41.7041 38.4164 39.3848 40.8538C36.6147 43.7646 32.5532 45.7599 27.3494 47.2914C21.8987 45.7576 17.7175 43.7585 14.8901 40.8464ZM24.7095 38.4908C24.7095 37.7035 24.0713 37.0652 23.2839 37.0652C22.4966 37.0652 21.8584 37.7035 21.8584 38.4908C21.8584 39.8274 22.584 40.9288 23.542 41.6472C24.4995 42.3654 25.7571 42.7675 27.0854 42.7675C28.4138 42.7675 29.6711 42.3654 30.6287 41.6472C31.5867 40.9288 32.3123 39.8274 32.3123 38.4908C32.3123 37.7035 31.6741 37.0652 30.8867 37.0652C30.0996 37.0652 29.4612 37.7035 29.4612 38.4908C29.4612 38.7288 29.3359 39.053 28.918 39.3663C28.4998 39.6802 27.8564 39.9164 27.0854 39.9164C26.3142 39.9164 25.6709 39.6802 25.2527 39.3663C24.8347 39.053 24.7095 38.7288 24.7095 38.4908ZM17.1064 50.769L17.1064 46.1671C19.8569 47.8232 23.1038 49.0671 26.7161 50.0748C27.1396 50.193 27.592 50.1907 28.0151 50.0673C31.4595 49.0625 34.5869 47.823 37.2542 46.1766L37.2542 49.4685C37.248 49.4794 37.2419 49.4904 37.2358 49.5013C37.0171 49.9058 37.0139 50.3691 37.187 50.7592C30.6318 52.6399 23.6594 52.6216 17.1064 50.769ZM40.1052 52.8324L40.1052 52.8357L39.115 53.1531C31.4192 55.6196 23.1379 55.6182 15.4517 53.2532L15.3389 53.2184L14.2554 52.6765L14.2554 52.407C7.37451 56.7139 2.85791 64.2858 2.85107 72.969C2.85107 72.9756 2.85107 72.9823 2.85107 72.989L2.85107 90.3972L6.38696 92.3616L6.39453 92.3658L9.98267 94.3307C10.6089 94.6737 11.0247 95.2633 11.1765 95.9121C11.2991 96.4357 11.552 97.3768 11.9534 98.2998C12.3755 99.2704 12.866 99.9923 13.3499 100.323C13.8794 100.686 14.8079 100.849 16.0029 100.789C16.937 100.741 17.8579 100.568 18.5322 100.409L18.5322 99.9996L12.5869 94.0544L10.1384 92.4221C9.65576 92.1005 9.43262 91.5354 9.52319 90.9982C9.51025 90.921 9.50366 90.8417 9.50366 90.7607L9.50366 78.9762C9.50366 75.7662 8.79053 72.5709 7.28589 69.6501L7.27002 69.6191L6.78027 68.5419C6.45459 67.8251 6.77148 66.98 7.48804 66.6542C8.20483 66.3284 9.05005 66.6453 9.37573 67.3621L9.83667 68.3761C11.5522 71.7191 12.3547 75.355 12.3547 78.9762L12.3547 90.473L14.2075 91.7083C14.3379 91.795 14.459 91.8945 14.5698 92.0051L19.7878 97.2233L42.0061 97.2233L42.0061 78.9762C42.0061 75.355 42.8086 71.7191 44.5242 68.3761L44.9851 67.3621C45.3108 66.6453 46.156 66.3284 46.8728 66.6542C47.5896 66.98 47.9065 67.8251 47.5806 68.5419L47.0911 69.6191L47.075 69.6501C45.5703 72.5709 44.8574 75.7662 44.8574 78.9762L44.8574 100.074L51.3196 100.074L51.3196 72.9886C51.3196 64.7437 46.6331 57.2844 40.1052 52.8324ZM21.3833 100.074L21.3833 100.81C21.3833 100.861 21.3816 100.913 21.3782 100.964L27.5605 107.689L27.5605 100.074L21.3833 100.074ZM38.9648 120.094L30.4116 110.79L30.4116 100.074L38.9648 100.074L38.9648 120.094ZM42.7393 100.074C42.4902 100.079 42.2568 100.147 42.0547 100.264L41.8162 100.264L41.8162 100.074L42.7393 100.074ZM44.667 102.925L47.1765 102.925C47.1897 103.131 47.2041 103.394 47.2141 103.686C47.2388 104.4 47.2341 105.197 47.1526 105.763C47.0208 106.679 46.5559 107.948 46.2002 108.817L44.667 108.817L44.667 102.925ZM19.4812 103.113C18.6965 103.31 17.4578 103.57 16.147 103.636C15.2837 103.68 14.2703 103.647 13.3052 103.382L13.3052 134.002L15.6697 134.002L15.6809 134.002L21.8584 134.002L21.8584 115.47C21.8584 114.158 22.9221 113.094 24.2344 113.094L27.0854 113.094C27.252 113.094 27.4119 113.123 27.5605 113.175L27.5605 111.901L19.4812 103.113ZM30.4116 134.002L38.9648 134.002L38.9648 124.306L30.4116 115.003L30.4116 134.002ZM33.2627 144.951L33.2627 136.853L36.5891 136.853L36.5891 140.596C36.5891 141.549 37.1584 142.41 38.0356 142.783L43.4683 145.092L33.2627 144.951ZM17.1064 140.596L17.1064 136.853L20.4329 136.853L20.4329 144.951L10.2273 145.092L15.6599 142.783C16.5371 142.41 17.1064 141.549 17.1064 140.596Z" fill-rule="evenodd" fill="#000000"/>
</svg>
