<svg width="119.874756" height="160.315674" viewBox="0 0 119.875 160.316" fill="none" xmlns="http://www.w3.org/2000/svg" xmlns:xlink="http://www.w3.org/1999/xlink">
	<desc>
			Created with Pixso.
	</desc>
	<defs/>
	<path id="Dyslexia" d="M60.4043 0C59.0007 0 57.8628 1.13788 57.8628 2.54144L57.8628 25.6457C57.8628 27.0493 59.0007 28.1872 60.4043 28.1872L63.8882 28.1872L63.8882 33.2507C63.8882 35.6364 66.8784 36.7075 68.3931 34.8643L73.8804 28.1872L117.333 28.1872C118.737 28.1872 119.875 27.0493 119.875 25.6457L119.875 2.54144C119.875 1.13788 118.737 0 117.333 0L60.4043 0ZM60.9126 25.1374L60.9126 3.04974L116.825 3.04974L116.825 25.1374L73.6401 25.1374C72.8799 25.1374 72.1594 25.4778 71.6768 26.0652L66.938 31.8316L66.938 27.6789C66.938 26.2753 65.8 25.1374 64.3965 25.1374L60.9126 25.1374ZM13.1331 34.0614L13.1331 43.205C13.1331 45.4559 11.4751 47.352 9.31665 47.7164C8.73096 47.8152 8.15039 48.106 7.72607 48.5836C7.37427 48.9796 7.12329 49.5223 7.12329 50.1381C7.12329 50.302 7.14111 50.471 7.17944 50.6439C7.78711 53.3813 10.2131 55.4041 13.1331 55.4041C13.9751 55.4041 14.6577 54.7214 14.6577 53.8792C14.6577 53.037 13.9751 52.3543 13.1331 52.3543C11.9004 52.3543 10.8538 51.6441 10.3701 50.6106C13.3921 49.8677 15.7207 47.314 16.1216 44.1711C16.8552 45.3877 17.7202 46.5024 18.7126 47.5245C19.1975 48.0239 19.71 48.4983 20.249 48.9496L20.249 54.8161C11.5894 59.8433 5.00024 69.3175 5.00024 80.1072L5.00024 109.588C5.00024 110.992 6.13818 112.13 7.54175 112.13L11.1067 112.13C11.1023 112.311 11.0996 112.503 11.0996 112.7C11.0996 113.319 11.126 113.993 11.2109 114.583C11.4331 116.128 12.2009 118.048 12.5806 118.943C12.8281 119.526 13.2732 119.967 13.8079 120.221C13.8059 120.233 13.804 120.246 13.8022 120.259L12.2886 131.303C12.2725 131.421 12.2646 131.538 12.2646 131.653C12.2646 133.031 13.3848 134.19 14.8066 134.19L20.249 134.19L20.249 145.372L19.7407 145.372C18.8987 145.372 18.2158 146.055 18.2158 146.897L18.2158 146.907L18.2158 151.166L15.166 151.166C11.7825 151.166 9.06665 153.882 9.06665 157.266L9.06665 157.774C9.06665 159.178 10.2043 160.316 11.6082 160.316L27.8735 160.316C28.7048 160.316 29.4429 159.917 29.9067 159.299C30.3704 159.917 31.1084 160.316 31.9397 160.316L48.2053 160.316C49.6089 160.316 50.7466 159.178 50.7466 157.774L50.7466 146.897C50.7466 146.234 50.3232 145.669 49.7319 145.459L49.7292 134.19L52.0999 134.19C53.5244 134.19 54.6418 133.028 54.6418 131.653C54.6418 131.522 54.6318 131.389 54.6108 131.255L52.9199 120.459C53.8354 120.394 54.6758 119.834 55.0542 118.943C55.4338 118.048 56.2017 116.128 56.4238 114.583C56.5088 113.993 56.5352 113.319 56.5352 112.7C56.5352 112.503 56.5325 112.311 56.5281 112.13L60.4043 112.13C61.8079 112.13 62.9458 110.992 62.9458 109.588L62.9458 80.1072C62.9458 69.402 56.4595 59.9918 47.9001 54.9351L47.9001 48.8561C48.3933 48.4285 48.8643 47.9803 49.3115 47.5103C50.2712 46.5017 51.1123 45.403 51.8289 44.2052C52.2422 47.3324 54.5647 49.8704 57.5759 50.6106C57.0923 51.6441 56.0457 52.3544 54.8132 52.3544C53.9709 52.3544 53.2883 53.037 53.2883 53.8792C53.2883 54.7214 53.9709 55.4041 54.8132 55.4041C57.7329 55.4041 60.1592 53.3813 60.7666 50.6439C60.8049 50.471 60.8228 50.302 60.8228 50.1382C60.8228 49.5223 60.5718 48.9796 60.22 48.5836C59.7957 48.106 59.2151 47.8152 58.6294 47.7164C56.4709 47.352 54.8132 45.4559 54.8132 43.2051L54.8132 27.9562L54.813 27.939L54.813 21.9582C54.813 15.6347 49.8108 10.5394 43.5098 9.841C43.1982 7.14233 40.9036 5.08282 38.0505 5.08282L33.9729 5.08282C22.5862 5.08282 13.1331 13.9233 13.1331 24.9062L13.1331 34.0555L13.1331 34.0614ZM106.659 9.60413L106.659 8.13275L109.709 8.13275L109.709 12.1991L107.676 12.1991C106.272 12.1991 105.134 13.3369 105.134 14.7405L105.134 16.7202C105.134 17.5624 105.817 18.2451 106.659 18.2451C107.501 18.2451 108.184 17.5624 108.184 16.7202L108.184 15.2488L110.217 15.2488C111.621 15.2488 112.759 14.111 112.759 12.7074L112.759 7.62445C112.759 6.22083 111.621 5.08295 110.217 5.08295L106.151 5.08295C104.747 5.08295 103.609 6.22083 103.609 7.62445L103.609 9.60413C103.609 10.4463 104.292 11.129 105.134 11.129C105.976 11.129 106.659 10.4463 106.659 9.60413ZM88.6831 13.516L88.6831 13.5064L88.6831 13.4919C88.6831 13.4838 88.6831 13.4758 88.6829 13.4678L88.6462 8.75952L88.6462 8.74792L88.6462 8.73517L88.6462 8.72711L88.646 8.72009L88.646 8.71088L88.6387 7.78387C88.6321 6.94177 87.9441 6.26862 87.1021 6.2804C86.4629 6.28931 85.9187 6.69031 85.6963 7.2514L81.7358 7.30676C80.3391 7.32623 79.2144 8.46906 79.2144 9.86353L79.2144 9.88367L79.2356 12.6072C79.2415 13.3486 79.564 14.0113 80.0737 14.4688C79.2139 14.5208 78.469 14.9989 78.0454 15.6925L74.6709 15.3693L73.7134 11.7582L76.5828 9.5946C76.9802 9.29486 77.1895 8.8382 77.1895 8.37592C77.1895 8.05627 77.0894 7.73389 76.8821 7.45898C76.375 6.78656 75.4189 6.65253 74.7466 7.15955L64.6045 14.8071C64.4026 14.9594 64.2493 15.1522 64.1472 15.3656C64.0803 15.5051 64.0337 15.6571 64.0117 15.8179C64.009 15.8384 64.0066 15.8589 64.0046 15.8795C64 15.9274 63.9978 15.975 63.9976 16.0223L63.9976 16.0267C63.9976 16.8033 64.5884 17.4672 65.3772 17.5428L73.2183 18.2939C73.2883 18.3057 73.3596 18.3126 73.4319 18.3143L77.6851 18.7217L77.6934 19.7648C77.7041 21.1684 78.8508 22.2903 80.2542 22.2707L86.6929 22.1807C86.7839 22.1794 86.873 22.1702 86.9595 22.1537C87.0459 22.1677 87.1348 22.1744 87.2256 22.1732C88.0635 22.1614 88.7385 21.4758 88.7385 20.6391L88.7383 20.627L88.6831 13.516ZM97.3708 7.64508C96.1409 6.96893 94.5698 7.40338 93.8621 8.61542L89.2246 16.5558C88.9919 16.9537 88.8816 17.386 88.8816 17.8112C88.8816 18.6808 89.3438 19.5204 90.1699 19.9745L94.1648 22.1704C95.3948 22.8466 96.9658 22.4121 97.6738 21.2001L98.5281 19.7375C98.6675 19.4987 98.7336 19.2393 98.7336 18.9842C98.7336 18.4624 98.4563 17.9587 97.9607 17.6862C97.2227 17.2805 96.28 17.5412 95.8555 18.2684L95.2576 19.2921L92.1536 17.5859L96.2783 10.5234L99.4204 12.2505C99.3796 12.3887 99.3599 12.5295 99.3599 12.6691C99.3599 13.1909 99.6372 13.6947 100.133 13.9672C100.871 14.3728 101.813 14.1121 102.238 13.3849L102.311 13.2597C102.544 12.8618 102.654 12.4294 102.654 12.0042C102.654 11.1346 102.192 10.295 101.366 9.84094L97.3708 7.64508ZM16.1826 24.9062C16.1826 15.7609 24.113 8.13257 33.9729 8.13257L38.0505 8.13257C39.4866 8.13257 40.4961 9.20245 40.4961 10.4708C40.4961 11.7882 41.5505 12.7531 42.7317 12.8328C47.8518 13.1787 51.7632 17.1979 51.7632 21.9582L51.7632 28.4639C46.7339 28.4183 42.614 24.1918 42.614 18.8067C42.614 18.2226 42.2856 17.7152 41.8032 17.4591C42.0012 16.5848 42.1057 15.6751 42.1057 14.7405C42.1057 13.8984 41.4229 13.2156 40.5808 13.2156C39.7385 13.2156 39.0559 13.8984 39.0559 14.7405C39.0559 19.8986 34.7888 24.127 29.4619 24.127C25.0757 24.127 20.9131 26.3165 18.4978 30.0324L16.1895 32.6739C16.1851 32.468 16.1829 32.2598 16.1826 32.0494L16.1826 27.9562L16.1826 27.9504L16.1826 24.9062ZM82.2678 10.3493L85.6084 10.3026L85.6216 12.0096L82.2812 12.0563L82.2678 10.3493ZM71.084 13.7409L71.4336 15.0592L69.572 14.8809L71.084 13.7409ZM80.7256 17.5069L85.6638 17.4379L85.677 19.1449L80.7388 19.2139L80.7256 17.5069ZM108.184 20.8401C108.184 19.9979 107.501 19.3152 106.659 19.3152C105.817 19.3152 105.134 19.9979 105.134 20.8401L105.134 21.3484C105.134 22.1906 105.817 22.8732 106.659 22.8732C107.501 22.8732 108.184 22.1906 108.184 21.3484L108.184 20.8401ZM39.8972 21.7668C41.1687 27.3128 45.9392 31.475 51.7634 31.5138L51.7632 32.0227C51.7632 32.9089 51.7268 33.7552 51.6555 34.564L50.8989 34.564C50.6633 33.4041 49.6379 32.5311 48.4084 32.5311L41.9023 32.5311C39.8513 32.5311 38.0815 33.689 37.1414 35.5806L31.0078 35.5806C30.0679 33.689 28.2979 32.5311 26.2471 32.5311L20.3645 32.5311L20.8171 32.0131C20.9026 31.9153 20.9771 31.8148 21.0417 31.7147C22.8782 28.8744 26.0732 27.1768 29.4619 27.1768C33.7832 27.1768 37.6145 25.0392 39.8972 21.7668ZM26.3486 38.1221C27.1907 38.1221 27.8735 37.4394 27.8735 36.5972C27.8735 36.4926 27.8628 36.3903 27.8428 36.2915C28.1553 36.6299 28.4082 37.098 28.5537 37.714C28.3848 38.4098 28.0771 38.7958 27.762 39.0253C27.4058 39.2849 26.8999 39.4439 26.2471 39.4439C23.7944 39.4439 21.7278 38.6955 20.2532 36.4489L20.249 36.4409L20.249 35.5809L25.2117 35.5809C24.9705 35.8506 24.8237 36.2068 24.8237 36.5972C24.8237 37.4394 25.5063 38.1221 26.3486 38.1221ZM45.6638 38.1221C46.5059 38.1221 47.1887 37.4394 47.1887 36.5972C47.1887 36.2068 47.042 35.8506 46.8005 35.5809L47.9001 35.5809L47.9001 36.4409L47.8962 36.4489C46.4216 38.6955 44.3547 39.4439 41.9023 39.4439C41.2493 39.4439 40.7434 39.2849 40.3872 39.0253C40.072 38.7958 39.7646 38.4098 39.5955 37.714C39.9529 36.2015 40.9575 35.5809 41.9023 35.5809L44.5269 35.5809C44.2856 35.8506 44.1389 36.2068 44.1389 36.5972C44.1389 37.4394 44.8215 38.1221 45.6638 38.1221ZM50.7217 37.6138L51.1855 37.6138C50.4517 40.8439 49.043 43.3685 47.1023 45.4079C46.4702 46.0721 45.7754 46.6917 45.0193 47.2714L44.8503 47.2714L44.8503 47.3994C42.0847 49.4735 38.5195 51.0312 34.2283 52.2941C28.3979 50.6535 23.9253 48.5152 20.9009 45.4001C18.9229 43.3629 17.5012 40.8419 16.7629 37.6138L17.4277 37.6138C17.4404 37.6418 17.4539 37.6697 17.4675 37.6973L17.6003 37.9628L17.6448 38.032C19.8271 41.4268 23.0305 42.4937 26.2471 42.4937C27.3777 42.4937 28.5588 42.218 29.5576 41.4905C30.4729 40.8237 31.1282 39.8546 31.4663 38.6304L36.6829 38.6304C37.021 39.8546 37.6763 40.8237 38.5916 41.4905C39.5903 42.218 40.7715 42.4937 41.9023 42.4937C45.1189 42.4937 48.322 41.4268 50.5044 38.032L50.5488 37.9628L50.6816 37.6973C50.6956 37.6697 50.7087 37.6418 50.7217 37.6138ZM33.9731 43.7133C33.1309 43.7133 32.4482 44.3959 32.4482 45.2381C32.4482 46.0803 33.1309 46.763 33.9731 46.763L37.0227 46.763C37.865 46.763 38.5476 46.0803 38.5476 45.2381C38.5476 44.3959 37.865 43.7133 37.0227 43.7133L33.9731 43.7133ZM23.2988 55.3226L23.2988 51.1078C26.2351 52.8712 29.6987 54.1969 33.5508 55.2715C34.0039 55.3978 34.4878 55.3954 34.9404 55.2634C38.6365 54.1852 41.9912 52.8544 44.8503 51.085L44.8503 54.9485C44.8472 54.9539 44.8442 54.9593 44.8411 54.9647C44.8376 54.9709 44.8342 54.9771 44.8311 54.9833C44.769 55.0975 44.7234 55.2161 44.6931 55.3365C37.7058 57.3236 30.2798 57.2961 23.2988 55.3226ZM15.3694 86.5113L15.3694 109.08L8.05005 109.08L8.05005 80.1072C8.05005 70.8231 13.605 62.4706 21.165 57.8212L21.408 57.9427L21.5288 57.9798C29.7505 60.5096 38.6089 60.5112 46.8406 57.8728L46.8564 57.8677C54.3779 62.5262 59.896 70.8541 59.896 80.1072L59.896 109.08L52.9832 109.08L52.9832 86.5113C52.9832 83.0776 53.7458 79.6597 55.3552 76.5355L55.3723 76.5022L55.8962 75.3499C55.9893 75.1453 56.0332 74.9308 56.0332 74.7198C56.0332 74.1402 55.7009 73.5862 55.1389 73.3307C54.3723 72.9822 53.4683 73.3212 53.1199 74.0879L52.6267 75.1726C50.7917 78.7485 49.9333 82.6378 49.9333 86.5113L49.9333 106.03L18.4192 106.03L18.4192 86.5113C18.4192 82.6378 17.5608 78.7485 15.7258 75.1726L15.2327 74.0879C14.8843 73.3212 13.9802 72.9822 13.2134 73.3307C12.6514 73.5862 12.3193 74.1402 12.3193 74.7198C12.3193 74.9308 12.3633 75.1453 12.4563 75.3499L12.98 76.5022L12.9971 76.5355C14.6067 79.6597 15.3694 83.0776 15.3694 86.5113ZM19.938 117.924L19.938 109.08L47.6968 109.08L47.6968 117.924C47.6968 119.196 48.6321 120.25 49.8525 120.436C49.8523 120.445 49.8523 120.455 49.8523 120.464C49.8523 120.542 49.8584 120.622 49.8708 120.702L51.5059 131.14L15.3894 131.14L16.8237 120.673C16.8333 120.603 16.8381 120.534 16.8381 120.465L17.3965 120.465C18.8 120.465 19.938 119.328 19.938 117.924ZM14.1497 112.701C14.1497 112.51 14.1523 112.318 14.1575 112.13L16.8882 112.13L16.8882 117.416L15.2483 117.416C14.8677 116.485 14.3706 115.128 14.2295 114.149C14.1711 113.743 14.1497 113.227 14.1497 112.701ZM50.7466 112.13L53.4773 112.13C53.4824 112.318 53.4851 112.51 53.4851 112.701C53.4851 113.227 53.4636 113.743 53.4053 114.149C53.2642 115.128 52.7671 116.485 52.3865 117.416L50.7466 117.416L50.7466 112.13ZM26.3486 134.19L26.3486 145.372L23.2988 145.372L23.2988 134.19L26.3486 134.19ZM29.3984 134.19L40.5808 134.19L40.5808 145.372L40.0725 145.372C39.2302 145.372 38.5476 146.055 38.5476 146.897L38.5476 146.907L38.5476 151.166L35.4978 151.166C33.3694 151.166 31.5051 152.241 30.415 153.881L30.415 146.897C30.4148 146.233 29.9905 145.668 29.3984 145.459L29.3984 134.19ZM46.6794 134.19L46.6821 145.372L43.6306 145.372L43.6306 134.19L46.6794 134.19ZM27.3652 148.422L27.3652 157.266L12.1165 157.266C12.1165 155.567 13.4668 154.216 15.166 154.216L18.7241 154.216C20.1277 154.216 21.2656 153.078 21.2656 151.675L21.2656 148.422L27.3652 148.422ZM41.5974 148.422L47.697 148.422L47.697 157.266L32.448 157.266C32.448 155.567 33.7986 154.216 35.4978 154.216L39.0559 154.216C40.4595 154.216 41.5974 153.078 41.5974 151.675L41.5974 148.422Z" fill-rule="evenodd" fill="#000000"/>
</svg>
