<svg width="65.161621" height="153.383667" viewBox="0 0 65.1616 153.384" fill="none" xmlns="http://www.w3.org/2000/svg" xmlns:xlink="http://www.w3.org/1999/xlink">
	<desc>
			Created with Pixso.
	</desc>
	<defs/>
	<path id="Throat infection" d="M11.0398 24.9924L10.4722 25.5665C10.6377 25.7302 10.8323 25.8466 11.0393 25.9156L11.0393 26.0344C11.0393 26.0586 11.0398 26.0826 11.041 26.1064C11.0398 26.1304 11.0393 26.1544 11.0393 26.1786L11.0393 26.3226C11.0393 26.3468 11.0398 26.3708 11.041 26.3947C11.0398 26.4186 11.0393 26.4426 11.0393 26.4668L11.0393 26.6108C11.0393 26.635 11.0398 26.6591 11.041 26.6829C11.0398 26.7068 11.0393 26.7308 11.0393 26.755L11.0393 26.899C11.0393 26.9232 11.0398 26.9473 11.041 26.9711C11.0398 26.995 11.0393 27.019 11.0393 27.0432L11.0393 27.1873C11.0393 27.2114 11.0398 27.2355 11.041 27.2593C11.0398 27.2832 11.0393 27.3073 11.0393 27.3314L11.0393 27.4755C11.0393 27.4996 11.0398 27.5237 11.041 27.5476C11.0398 27.5714 11.0393 27.5955 11.0393 27.6196L11.0393 27.7637C11.0393 27.7878 11.0398 27.8119 11.041 27.8358C11.0398 27.8596 11.0393 27.8837 11.0393 27.9078L11.0393 28.0519C11.0393 28.076 11.0398 28.1001 11.041 28.124C11.0398 28.1478 11.0393 28.1719 11.0393 28.196L11.0393 28.3402C11.0393 28.3643 11.0398 28.3883 11.041 28.4122C11.0398 28.436 11.0393 28.4601 11.0393 28.4843L11.0393 28.6284C11.0393 28.6525 11.0398 28.6765 11.041 28.7004C11.0398 28.7242 11.0393 28.7483 11.0393 28.7725L11.0393 28.9166C11.0393 28.9408 11.0398 28.9647 11.041 28.9886C11.0398 29.0125 11.0393 29.0365 11.0393 29.0607L11.0393 29.2048C11.0393 29.229 11.0398 29.2529 11.041 29.2769C11.0398 29.3008 11.0393 29.3247 11.0393 29.3489L11.0393 29.4211C11.0393 31.3536 11.2083 33.1411 11.5413 34.7948C11.5388 35.0128 11.5847 35.2321 11.6802 35.4349C12.2358 37.8276 13.1492 39.9313 14.4055 41.782C14.1794 42.1538 14.05 42.5896 14.05 43.0533L14.05 51.645C14.05 51.9648 14.1118 52.2725 14.2251 52.5553C6.09863 57.5028 0 66.3774 0 76.4579C0 81.6792 0.90918 85.4103 1.85376 87.8737C2.3252 89.1036 2.80347 90.0121 3.17651 90.6278C3.36279 90.9355 3.52271 91.1698 3.64209 91.3341C3.69263 91.4037 3.73584 91.4606 3.77075 91.5054L9.09717 100.489C9.09546 100.52 9.09351 100.552 9.09131 100.586C9.07617 100.845 9.05811 101.206 9.0459 101.617C9.02222 102.417 9.01855 103.485 9.12622 104.356C9.31299 105.868 9.95947 107.763 10.2915 108.677C10.6475 109.656 11.5745 110.266 12.5715 110.266L14.05 110.266L14.05 130.354C14.05 131.708 15.147 132.804 16.5 132.804L23.082 132.804L23.082 137.261C22.5222 137.71 22.1636 138.4 22.1636 139.174L22.1636 142.84L15.2656 147.076L12.3977 148.504C11.5654 148.918 11.0393 149.767 11.0393 150.697L11.0393 150.933C11.0393 152.286 12.1362 153.383 13.4893 153.383L21.1396 153.383C21.5476 153.383 21.949 153.281 22.3076 153.086L25.2849 151.472C25.5303 152.566 26.5073 153.383 27.6753 153.383L29.5938 153.383C30.9468 153.383 32.0435 152.286 32.0435 150.933L32.0435 132.804L33.1179 132.804L33.1182 150.933C33.1182 152.286 34.2148 153.383 35.5679 153.383L37.4863 153.383C38.6541 153.383 39.6311 152.566 39.8767 151.472L42.8538 153.086C43.2124 153.281 43.614 153.383 44.0217 153.383L51.6724 153.383C53.0254 153.383 54.1223 152.286 54.1223 150.933L54.1223 150.697C54.1223 149.767 53.5962 148.918 52.7639 148.504L49.8958 147.076L42.9978 142.84L42.9978 139.174C42.9978 138.4 42.6394 137.71 42.0793 137.261L42.0793 132.804L48.6616 132.804C50.0146 132.804 51.1113 131.708 51.1113 130.354L51.1113 110.266L52.5901 110.266C53.5874 110.266 54.5144 109.656 54.8701 108.677C55.2021 107.763 55.8486 105.868 56.0354 104.356C56.1431 103.485 56.1394 102.417 56.1157 101.617C56.1035 101.206 56.0854 100.845 56.0703 100.586C56.0681 100.552 56.0662 100.52 56.0645 100.489L61.3909 91.5054C61.4258 91.4606 61.469 91.4037 61.5193 91.3341C61.6387 91.1698 61.7988 90.9355 61.9851 90.6278C62.3582 90.0121 62.8364 89.1036 63.3079 87.8737C64.2522 85.4103 65.1616 81.6792 65.1616 76.4579C65.1616 65.7213 58.2432 56.3527 49.3247 51.6399C49.1641 51.5549 48.9946 51.5027 48.8242 51.481C48.7922 51.3885 48.7515 51.3003 48.7029 51.2173L48.7029 41.3988C50.384 38.3962 52.115 33.9064 52.115 29.421L52.115 29.3489C52.115 29.3247 52.1145 29.3008 52.1133 29.2769C52.1145 29.2529 52.115 29.229 52.115 29.2048L52.115 29.0607C52.115 29.0365 52.1145 29.0125 52.1133 28.9886C52.1145 28.9647 52.115 28.9408 52.115 28.9166L52.115 28.7725C52.115 28.7483 52.1145 28.7242 52.1133 28.7004C52.1145 28.6765 52.115 28.6525 52.115 28.6284L52.115 28.4843C52.115 28.4742 52.115 28.4642 52.1147 28.4543C52.1145 28.4468 52.1143 28.4393 52.114 28.4319C52.1138 28.4253 52.1135 28.4187 52.1133 28.4122C52.1145 28.3883 52.115 28.3643 52.115 28.3402L52.115 28.196C52.115 28.1719 52.1145 28.1478 52.1133 28.124C52.1135 28.118 52.1138 28.1121 52.114 28.1061C52.1143 28.1013 52.1143 28.0964 52.1145 28.0916L52.1147 28.0819L52.115 28.0673L52.115 28.0585L52.115 28.0519L52.115 27.9078C52.115 27.8837 52.1145 27.8596 52.1133 27.8358C52.1145 27.8119 52.115 27.7878 52.115 27.7637L52.115 27.6196C52.115 27.5955 52.1145 27.5714 52.1133 27.5476C52.1145 27.5237 52.115 27.4996 52.115 27.4755L52.115 27.3314C52.115 27.3073 52.1145 27.2832 52.1133 27.2593C52.1145 27.2355 52.115 27.2114 52.115 27.1873L52.115 27.0432C52.115 27.019 52.1145 26.995 52.1133 26.9711C52.1145 26.9473 52.115 26.9232 52.115 26.899L52.115 26.755C52.115 26.7308 52.1145 26.7068 52.1133 26.6829C52.1145 26.6591 52.115 26.635 52.115 26.6108L52.115 26.4668C52.115 26.4426 52.1145 26.4186 52.1133 26.3947C52.1145 26.3708 52.115 26.3468 52.115 26.3226L52.115 26.1786C52.115 26.1544 52.1145 26.1304 52.1133 26.1064C52.1135 26.1008 52.1138 26.0952 52.114 26.0896C52.1143 26.0835 52.1145 26.0773 52.1145 26.0712C52.1147 26.059 52.115 26.0468 52.115 26.0344L52.115 25.8903C52.115 25.8662 52.1145 25.8422 52.1133 25.8182C52.1145 25.7944 52.115 25.7704 52.115 25.7462L52.115 25.6021C52.115 25.5779 52.1145 25.554 52.1133 25.53C52.1138 25.5211 52.114 25.5122 52.1143 25.5033C52.1145 25.4951 52.1147 25.4871 52.1147 25.4789C52.115 25.4719 52.115 25.465 52.115 25.458L52.115 25.3138C52.115 25.2897 52.1145 25.2657 52.1133 25.2418C52.1145 25.2179 52.115 25.194 52.115 25.1698L52.115 25.0256C52.115 25.0015 52.1145 24.9775 52.1133 24.9536C52.1145 24.9297 52.115 24.9058 52.115 24.8816L52.115 24.7374C52.115 24.7133 52.1145 24.6892 52.1133 24.6654C52.1145 24.6415 52.115 24.6176 52.115 24.5934L52.115 24.5212L52.115 24.489C52.115 24.4722 52.1147 24.4553 52.1147 24.4384C52.1145 24.4106 52.1135 24.3831 52.1118 24.3556C52.1128 24.3282 52.113 24.3005 52.1125 24.2728C52.1116 24.2177 52.1101 24.1626 52.1084 24.1075C52.1074 24.0798 52.1057 24.0524 52.1035 24.0251C52.1035 24.0065 52.1035 23.9877 52.103 23.9689C52.1028 23.9601 52.1023 23.9514 52.1021 23.9426Q52.1006 23.9142 52.0994 23.8856L52.0979 23.8591C52.0969 23.839 52.0957 23.8188 52.0947 23.7987L52.0935 23.7781C52.0918 23.7505 52.0896 23.7231 52.0864 23.6959C52.0859 23.6686 52.085 23.6411 52.083 23.6135C52.0791 23.5585 52.0747 23.5034 52.0701 23.4485C52.0679 23.4208 52.0647 23.3934 52.061 23.3662C52.0598 23.3389 52.0579 23.3114 52.0552 23.2838C52.0525 23.2555 52.0498 23.2274 52.0469 23.1992L52.0427 23.1592L52.0383 23.1195C52.0354 23.092 52.0315 23.0648 52.0271 23.0378C52.0251 23.0106 52.0227 22.9832 52.0193 22.9557L52.0144 22.9167C52.1331 22.833 52.2666 22.7368 52.4124 22.6295C52.9783 22.2124 53.738 21.616 54.4968 20.9065C55.2485 20.2036 56.042 19.3507 56.6399 18.4156C57.2261 17.4993 57.7231 16.35 57.6309 15.1034C57.4773 13.0298 56.1572 11.8243 55.2383 11.0145C54.1907 10.0911 53.7217 9.67676 53.5906 9.03735C53.5576 8.87549 53.5251 8.7063 53.4917 8.53174C53.3064 7.56348 53.0896 6.43005 52.5312 5.45605C51.7952 4.17224 50.5747 3.2583 48.6335 2.55957C45.4104 1.39929 42.8511 1.42212 40.3457 1.71021C39.6267 1.79297 38.9351 1.89246 38.2437 1.99207C36.5022 2.24268 34.7627 2.49316 32.5945 2.47278C31.3484 2.46106 29.9666 2.19006 28.4517 1.80322C27.8674 1.65405 27.2234 1.47571 26.563 1.29297C25.6338 1.03577 24.6726 0.769653 23.8018 0.563599C20.7703 -0.154053 17.2063 -0.599487 14.5215 1.88367C13.7783 2.57117 13.356 3.32056 13.1934 4.13989C13.0471 4.87671 13.1375 5.57642 13.1992 6.05396L13.2043 6.09351C13.3293 7.06104 13.4043 7.64258 12.811 8.48792C12.47 8.97388 11.925 9.47534 11.1897 10.0299C10.7034 10.3966 10.2065 10.7355 9.68042 11.0941C9.39453 11.2889 9.1001 11.4897 8.79419 11.704C7.97729 12.276 7.1106 12.9242 6.42676 13.665C5.73755 14.4115 5.12744 15.3655 5.02368 16.5538C4.92651 17.6638 5.39111 18.807 5.87817 19.7174C6.39502 20.6838 7.08789 21.6572 7.75537 22.5045C8.42822 23.3585 9.10449 24.1206 9.61011 24.6671C9.86377 24.9412 10.0764 25.1632 10.2268 25.318C10.302 25.3954 10.3618 25.4559 10.4036 25.498C10.4246 25.519 10.4409 25.5354 10.4524 25.5469L10.4661 25.5604L10.4712 25.5657L10.4717 25.5662C10.4719 25.5663 10.4719 25.5664 11.0398 24.9924ZM16.5178 4.04175C17.9807 2.68848 20.0908 2.70618 23.1245 3.42432C23.9941 3.63013 24.8108 3.85742 25.6584 4.09338C26.3152 4.27625 26.991 4.46436 27.7244 4.65161C29.2959 5.05298 30.9563 5.39734 32.5669 5.41248C34.9768 5.43506 37.0469 5.13708 38.8508 4.87756C39.4937 4.78503 40.1028 4.69739 40.6814 4.63074C42.9082 4.37463 44.9775 4.36792 47.6379 5.32556C49.166 5.87573 49.7019 6.43176 49.9807 6.91809C50.2751 7.43176 50.3872 7.99902 50.5786 8.96741C50.6184 9.16895 50.6616 9.38782 50.7107 9.6272C51.0491 11.2792 52.271 12.3347 53.0757 13.0298C53.1528 13.0964 53.2263 13.1598 53.2947 13.22C54.2046 14.022 54.6406 14.5314 54.699 15.3204C54.7244 15.6621 54.5903 16.1642 54.1633 16.8318C53.7483 17.4807 53.1467 18.1442 52.489 18.759C52.0598 19.1604 51.6248 19.5245 51.2329 19.8329C51.2261 19.8126 51.2188 19.7925 51.2107 19.7723C51.1909 19.7214 51.1707 19.6707 51.1501 19.6199C51.1399 19.5945 51.1289 19.5695 51.1174 19.545C51.1118 19.5293 51.106 19.5135 51.0999 19.4979L51.0955 19.4871L51.092 19.4788L51.0879 19.4688C51.0669 19.4185 51.0454 19.3683 51.0239 19.3184C51.0212 19.3121 51.0186 19.306 51.0156 19.2999L51.0139 19.2959C51.0117 19.2913 51.0098 19.2865 51.0076 19.2819C51.0017 19.2692 50.9956 19.2566 50.9893 19.2441C50.9797 19.2189 50.9692 19.1937 50.958 19.1686C50.9358 19.1189 50.9133 19.0692 50.8904 19.0197C50.8789 18.9948 50.8669 18.9702 50.8542 18.9463C50.844 18.9211 50.8328 18.8962 50.821 18.8715C50.7979 18.8224 50.7742 18.7734 50.7502 18.7246C50.7383 18.7001 50.7256 18.676 50.7126 18.6525C50.7017 18.6278 50.6902 18.6031 50.678 18.5787C50.6536 18.5303 50.6287 18.4819 50.6038 18.4336C50.5913 18.4093 50.5781 18.3856 50.5642 18.3623C50.553 18.3378 50.5408 18.3135 50.5281 18.2893C50.5024 18.2413 50.4766 18.1935 50.4504 18.1458C50.4375 18.1218 50.4238 18.0984 50.4097 18.0754C50.3977 18.0513 50.385 18.0273 50.3718 18.0037C50.3452 17.9564 50.3186 17.9094 50.2915 17.8625C50.2781 17.839 50.2639 17.8159 50.249 17.7933C50.2368 17.7695 50.2236 17.7458 50.2097 17.7224C50.1821 17.6758 50.1543 17.6293 50.1262 17.583C50.1123 17.5596 50.0974 17.5367 50.0823 17.5145C50.0693 17.4908 50.0557 17.4675 50.0413 17.4443C50.0129 17.3984 49.9841 17.3528 49.9551 17.3071C49.9407 17.2843 49.9255 17.262 49.9099 17.2401C49.8965 17.2169 49.8826 17.194 49.8677 17.1713C49.8384 17.1261 49.8088 17.0811 49.7788 17.0363C49.7637 17.0135 49.7483 16.9916 49.7322 16.9701C49.7183 16.9471 49.7036 16.9244 49.6885 16.902C49.658 16.8573 49.6274 16.8129 49.5964 16.7686C49.5811 16.7462 49.5649 16.7246 49.5483 16.7035C49.5342 16.6808 49.519 16.6584 49.5034 16.6364C49.4722 16.5927 49.4409 16.5492 49.4094 16.5059C49.3936 16.484 49.377 16.4626 49.3601 16.442C49.3455 16.4197 49.3301 16.3977 49.314 16.3761C49.2817 16.333 49.2495 16.29 49.217 16.2472C49.2007 16.2256 49.1838 16.2046 49.1665 16.1842C49.1511 16.1622 49.1353 16.1405 49.1187 16.1191C49.0857 16.0767 49.0525 16.0343 49.019 15.9921C49.0024 15.9709 48.9854 15.9504 48.9678 15.9305C48.9521 15.9091 48.936 15.8878 48.9192 15.8669C48.8855 15.8254 48.8518 15.7839 48.8176 15.7427C48.8005 15.7219 48.783 15.7017 48.7649 15.6821C48.749 15.6609 48.7322 15.6399 48.7148 15.6193C48.6804 15.5782 48.6458 15.5374 48.6108 15.4967C48.5933 15.4762 48.5752 15.4563 48.5569 15.437C48.5403 15.416 48.5232 15.3953 48.5054 15.375C48.4705 15.3348 48.4351 15.2949 48.3997 15.2551C48.3818 15.2351 48.3635 15.2157 48.345 15.1969C48.3281 15.1764 48.3108 15.1562 48.2927 15.1364C48.2568 15.0969 48.2209 15.0576 48.1846 15.0186C48.1665 14.9988 48.1477 14.9797 48.1287 14.9612C48.1116 14.9409 48.0938 14.921 48.0752 14.9015C48.0386 14.8627 48.0017 14.8239 47.9646 14.7853C47.946 14.766 47.927 14.7472 47.9077 14.7291C47.8901 14.7092 47.8721 14.6897 47.8533 14.6705C47.8162 14.6327 47.7791 14.595 47.7415 14.5574C47.7227 14.5385 47.7034 14.5201 47.6838 14.5024C47.666 14.4829 47.6475 14.4637 47.6284 14.4451C47.5906 14.4077 47.5527 14.3706 47.5144 14.3336C47.4951 14.3149 47.4753 14.297 47.4556 14.2795C47.4373 14.2604 47.4185 14.2415 47.3989 14.223C47.3604 14.1863 47.3215 14.1497 47.2825 14.1133C47.2632 14.0951 47.2432 14.0776 47.2231 14.0608C47.2048 14.042 47.1858 14.0236 47.1663 14.0056C47.1272 13.97 47.0881 13.9343 47.0488 13.8989C47.0291 13.8811 47.0088 13.8639 46.9883 13.8473C46.9695 13.8287 46.9502 13.8107 46.9302 13.793C46.8906 13.7578 46.8508 13.7229 46.8105 13.688C46.7905 13.6704 46.77 13.6536 46.749 13.6372C46.73 13.619 46.7102 13.6012 46.6899 13.5839C46.6497 13.5494 46.6094 13.5153 46.5688 13.4811C46.5486 13.4641 46.5278 13.4476 46.5071 13.4319C46.4878 13.4142 46.4678 13.3969 46.4475 13.3799C46.4067 13.3463 46.366 13.3129 46.325 13.2795C46.3044 13.2628 46.2834 13.2467 46.2622 13.2312C46.2424 13.2137 46.2222 13.1967 46.2014 13.1801C46.1602 13.1471 46.1187 13.1143 46.0769 13.0815C46.0559 13.0649 46.0347 13.0492 46.0132 13.0341C45.9932 13.0168 45.9727 13 45.9514 12.9838C45.9099 12.9517 45.8682 12.9197 45.8262 12.8879C45.8052 12.8719 45.7839 12.8566 45.7622 12.8419C45.7422 12.8252 45.7214 12.809 45.7002 12.7931L45.6685 12.7695L45.6414 12.7493C45.6187 12.7325 45.5959 12.7158 45.5732 12.6991C45.5518 12.6833 45.5303 12.6683 45.5083 12.6539C45.4878 12.6376 45.4668 12.6216 45.4453 12.606C45.4026 12.5751 45.3596 12.5443 45.3164 12.5138C45.2947 12.4984 45.2727 12.4838 45.2507 12.4697C45.23 12.4536 45.2087 12.4379 45.187 12.4227C45.144 12.3928 45.1011 12.3629 45.0576 12.3334C45.0359 12.3184 45.0139 12.3041 44.9917 12.2905C44.9707 12.2748 44.9495 12.2595 44.9275 12.2448C44.884 12.2155 44.8403 12.1862 44.7966 12.1571C44.7744 12.1425 44.7522 12.1285 44.7295 12.1152C44.7085 12.0997 44.6868 12.0848 44.6646 12.0703C44.6204 12.0415 44.5762 12.0129 44.5317 11.9844C44.5095 11.9701 44.4871 11.9565 44.4644 11.9437C44.4431 11.9286 44.4214 11.9141 44.3989 11.9C44.3547 11.8721 44.3105 11.8444 44.2659 11.8168C44.2437 11.803 44.2209 11.7897 44.198 11.7772C44.1765 11.7625 44.1545 11.7483 44.1321 11.7345C44.0874 11.7073 44.0425 11.6801 43.9973 11.6531C43.9749 11.6395 43.9519 11.6266 43.9287 11.6144C43.907 11.6 43.8848 11.5861 43.8618 11.5726C43.8167 11.5459 43.7712 11.5193 43.7256 11.4929C43.7029 11.4797 43.6799 11.4673 43.6567 11.4554C43.635 11.4414 43.6125 11.428 43.5896 11.4149C43.5444 11.3892 43.499 11.3635 43.4534 11.338C43.4304 11.3251 43.4072 11.313 43.384 11.3015C43.3618 11.2877 43.3394 11.2745 43.3162 11.2618C43.2705 11.2367 43.2244 11.2115 43.1782 11.1866C43.155 11.1741 43.1316 11.1622 43.1082 11.151C43.0857 11.1376 43.063 11.1248 43.0396 11.1123C42.9932 11.0876 42.9468 11.0632 42.9001 11.0388C42.877 11.0267 42.8535 11.0154 42.8301 11.0045C42.8076 10.9916 42.7849 10.9791 42.7615 10.9672C42.7151 10.9434 42.6687 10.9198 42.6221 10.8964C42.5986 10.8845 42.5752 10.8734 42.5513 10.8629C42.5288 10.8502 42.5056 10.838 42.4822 10.8263C42.4353 10.8032 42.3884 10.7802 42.3413 10.7572C42.3176 10.7457 42.2937 10.7349 42.2698 10.7247C42.2468 10.7123 42.2236 10.7004 42.1997 10.6891C42.1526 10.6665 42.1052 10.644 42.0576 10.6218C42.0339 10.6107 42.0103 10.6003 41.9863 10.5906C41.9634 10.5786 41.9402 10.5671 41.9165 10.5562C41.8691 10.5344 41.8218 10.5128 41.7744 10.4913C41.7505 10.4806 41.7266 10.4705 41.7024 10.4611C41.6792 10.4493 41.6558 10.4381 41.6318 10.4275C41.584 10.4064 41.5364 10.3853 41.4885 10.3645C41.4644 10.354 41.4399 10.3441 41.4158 10.3351C41.3923 10.3236 41.3687 10.3126 41.3445 10.3024C41.2964 10.2817 41.2483 10.2614 41.2 10.2412C41.1758 10.2311 41.1516 10.2217 41.1274 10.213C41.104 10.2019 41.0803 10.1914 41.0562 10.1815C41.0083 10.1617 40.9602 10.1422 40.9119 10.1227C40.8877 10.1129 40.8633 10.1039 40.8389 10.0955C40.8152 10.0846 40.7913 10.0745 40.7671 10.0648C40.7185 10.0457 40.6702 10.0266 40.6213 10.0078C40.5969 9.99829 40.5723 9.9895 40.5476 9.98145C40.5239 9.97095 40.4998 9.96106 40.4753 9.95166C40.4265 9.93311 40.3774 9.91479 40.3286 9.89648C40.3042 9.88745 40.2795 9.87903 40.2551 9.87134C40.2314 9.86121 40.2073 9.85168 40.1829 9.84277C40.134 9.82507 40.0852 9.80737 40.0364 9.78992C40.0117 9.78113 39.9871 9.77307 39.9624 9.76562C39.9385 9.75586 39.9141 9.74658 39.8894 9.73804C39.8403 9.72083 39.7913 9.70374 39.7419 9.68689C39.7173 9.67847 39.6924 9.67065 39.6675 9.66357C39.6433 9.65405 39.6187 9.64502 39.594 9.63672C39.5444 9.62012 39.4949 9.60376 39.4453 9.5874C39.4204 9.57935 39.3958 9.5719 39.3708 9.56519C39.3469 9.55603 39.3225 9.54749 39.2976 9.53955C39.2483 9.5238 39.199 9.50818 39.1494 9.49268C39.1245 9.48486 39.0996 9.47778 39.0747 9.47131C39.0505 9.46252 39.0259 9.45422 39.001 9.44653C38.9512 9.4314 38.9016 9.41626 38.8518 9.40137C38.8267 9.39392 38.8015 9.38708 38.7764 9.38098C38.752 9.37244 38.7271 9.3645 38.7019 9.35706C38.6521 9.34253 38.6018 9.328 38.5518 9.31372C38.5266 9.30652 38.5017 9.30017 38.4766 9.29431C38.4521 9.28613 38.4272 9.27856 38.4023 9.27161C38.3525 9.25769 38.3027 9.24402 38.2527 9.23047C38.2275 9.22363 38.2024 9.21753 38.1772 9.21204C38.1526 9.20422 38.1277 9.1969 38.1025 9.19019C38.0525 9.177 38.0022 9.16382 37.9519 9.15088C37.9268 9.14441 37.9014 9.13855 37.876 9.13342C37.8513 9.12585 37.8262 9.11877 37.801 9.11243C37.7505 9.09973 37.7 9.08728 37.6494 9.07483C37.624 9.06873 37.5986 9.06323 37.5732 9.05835C37.5486 9.05115 37.5234 9.04443 37.498 9.03845C37.448 9.02649 37.3977 9.01477 37.3474 9.00305C37.322 8.99719 37.2966 8.99207 37.2712 8.98755C37.2466 8.98071 37.2214 8.97437 37.196 8.96863C37.1455 8.95728 37.095 8.94617 37.0442 8.93506C37.0188 8.92957 36.9932 8.92468 36.9678 8.92053C36.9429 8.91382 36.9175 8.90784 36.8921 8.90234C36.8413 8.89172 36.7903 8.8811 36.7395 8.87061C36.7139 8.86536 36.6882 8.86084 36.6626 8.85693C36.6377 8.85071 36.6123 8.84497 36.5867 8.83984C36.5361 8.82983 36.4854 8.81995 36.4348 8.81018C36.4092 8.8053 36.3838 8.80115 36.3584 8.79761C36.3333 8.79163 36.3081 8.78625 36.2825 8.78149C36.2317 8.77209 36.1809 8.76282 36.1299 8.75366C36.1042 8.74902 36.0786 8.74512 36.053 8.74194C36.0278 8.73621 36.0024 8.7312 35.9768 8.72668C35.9255 8.7179 35.8745 8.70923 35.8232 8.70068C35.7974 8.69641 35.7717 8.69275 35.7461 8.68982C35.7207 8.68445 35.6951 8.67969 35.6694 8.67554C35.6462 8.67188 35.6233 8.66821 35.6003 8.66455Q35.5583 8.65796 35.5164 8.65149C35.4907 8.64758 35.4651 8.64429 35.4397 8.64172C35.4146 8.63672 35.3889 8.63232 35.3633 8.62842C35.3123 8.62097 35.2612 8.61353 35.21 8.60632C35.1841 8.60266 35.1584 8.59973 35.1328 8.59741C35.1077 8.59265 35.082 8.5885 35.0562 8.58508C35.0049 8.57812 34.9536 8.57129 34.9021 8.5647C34.8762 8.5614 34.8503 8.55872 34.8247 8.55676C34.7991 8.55225 34.7734 8.54846 34.7476 8.54529C34.6963 8.53894 34.6448 8.53284 34.5933 8.52673C34.5676 8.5238 34.542 8.52148 34.5164 8.51978C34.491 8.51562 34.4656 8.51221 34.4397 8.5094C34.3884 8.50366 34.3372 8.49817 34.2859 8.4928C34.26 8.49011 34.2344 8.48804 34.2087 8.48669C34.1831 8.48291 34.1575 8.47974 34.1316 8.47717C34.0803 8.47205 34.0288 8.46716 33.9771 8.4624C33.9512 8.46008 33.9253 8.45837 33.8997 8.45728C33.874 8.45374 33.8484 8.45081 33.8223 8.44861C33.7705 8.44421 33.719 8.43982 33.667 8.43567C33.6414 8.43359 33.6155 8.43225 33.5898 8.43152C33.5645 8.42834 33.5388 8.42578 33.5129 8.42383C33.4617 8.42004 33.4102 8.41638 33.3589 8.41284C33.333 8.41113 33.3071 8.41003 33.2815 8.40955C33.2561 8.40662 33.2302 8.40442 33.2043 8.40283C33.1528 8.39954 33.1013 8.39648 33.0496 8.39368C33.0237 8.39221 32.9978 8.39136 32.9722 8.39124C32.9465 8.38867 32.9207 8.38672 32.8945 8.38538C32.843 8.38281 32.791 8.38037 32.7393 8.37805C32.7134 8.37683 32.6873 8.37634 32.6616 8.37659C32.636 8.37427 32.6101 8.37256 32.584 8.37158C32.5327 8.36963 32.4812 8.3678 32.4299 8.36621C32.4041 8.36536 32.3782 8.36511 32.3525 8.3656C32.3271 8.36365 32.3013 8.3623 32.2754 8.36157C32.2239 8.36023 32.1724 8.35901 32.1206 8.35791C32.0947 8.35742 32.0688 8.35754 32.0432 8.3584C32.0176 8.35669 31.9917 8.35559 31.9658 8.35522C31.9141 8.35449 31.8623 8.35388 31.8105 8.35339C31.7844 8.35315 31.7585 8.35364 31.7327 8.35474C31.707 8.35327 31.6812 8.35254 31.655 8.35242L31.6233 8.35242L31.5771 8.35242C31.5513 8.35242 31.5254 8.35242 31.4993 8.35242C31.4734 8.35254 31.4473 8.35327 31.4216 8.35474C31.396 8.35364 31.3699 8.35315 31.344 8.35339C31.292 8.35388 31.2402 8.35449 31.1887 8.35522C31.1626 8.35559 31.1367 8.35669 31.1111 8.3584C31.0854 8.35754 31.0596 8.35742 31.0337 8.35791C30.9819 8.35901 30.9304 8.36023 30.8789 8.36157C30.853 8.3623 30.8274 8.36365 30.8018 8.3656C30.7761 8.36511 30.7505 8.36536 30.7246 8.36621L30.7124 8.36658C30.665 8.36816 30.6177 8.36975 30.5703 8.37158C30.5442 8.37256 30.5186 8.37427 30.4927 8.37659C30.467 8.37634 30.4412 8.37683 30.415 8.37805C30.3633 8.38037 30.3115 8.38281 30.2598 8.38538C30.2336 8.38672 30.208 8.38867 30.1824 8.39124C30.1565 8.39136 30.1306 8.39221 30.1047 8.39368C30.053 8.39648 30.0015 8.39954 29.95 8.40283C29.9241 8.40442 29.8984 8.40662 29.8728 8.40955C29.8472 8.41003 29.8215 8.41113 29.7957 8.41284C29.7441 8.41638 29.6929 8.42004 29.6414 8.42383C29.6155 8.42578 29.5898 8.42834 29.5645 8.43152C29.5388 8.43225 29.5132 8.43359 29.4873 8.43567C29.4355 8.43982 29.3838 8.44421 29.332 8.44861C29.3062 8.45081 29.2803 8.45374 29.2549 8.45728C29.229 8.45837 29.2031 8.46008 29.1772 8.4624C29.1257 8.46716 29.0742 8.47205 29.0227 8.47717C28.9968 8.47974 28.9712 8.48291 28.9458 8.48669C28.9202 8.48804 28.8943 8.49011 28.8684 8.4928C28.8171 8.49817 28.7659 8.50366 28.7146 8.50928C28.689 8.51221 28.6633 8.51562 28.6379 8.51978C28.6125 8.52148 28.5869 8.5238 28.561 8.52673C28.5095 8.53284 28.4583 8.53894 28.4067 8.54529C28.3809 8.54846 28.3552 8.55225 28.3298 8.55676C28.304 8.55872 28.2781 8.5614 28.2522 8.5647Q28.175 8.57458 28.0981 8.58508C28.0723 8.5885 28.0469 8.59265 28.0215 8.59741C27.9958 8.59973 27.9702 8.60266 27.9443 8.60632C27.8933 8.61353 27.842 8.62097 27.791 8.62842C27.7654 8.6322 27.74 8.63672 27.7148 8.64172C27.6892 8.64429 27.6636 8.64758 27.6379 8.65149C27.5869 8.65942 27.5359 8.66736 27.4851 8.67554C27.4592 8.67969 27.4336 8.68445 27.4084 8.68982C27.3826 8.69275 27.3569 8.69641 27.3311 8.70068C27.2798 8.70923 27.2288 8.7179 27.1777 8.72668C27.1519 8.73108 27.1265 8.73621 27.1013 8.74194C27.0759 8.74512 27.0503 8.74902 27.0244 8.75366C26.9736 8.76282 26.9226 8.77209 26.8718 8.78149C26.8462 8.78625 26.821 8.79163 26.7961 8.79761C26.7705 8.80115 26.7451 8.8053 26.7195 8.81018C26.6689 8.81995 26.6182 8.82983 26.5676 8.83984C26.542 8.84497 26.5168 8.85059 26.4917 8.85693C26.4661 8.86084 26.4407 8.86536 26.415 8.87061C26.364 8.8811 26.313 8.8916 26.2622 8.90234C26.2368 8.90784 26.2114 8.91382 26.1865 8.92041C26.1611 8.92468 26.1355 8.92957 26.1101 8.93506C26.0593 8.94604 26.0088 8.95728 25.9583 8.96863C25.9329 8.97437 25.908 8.98071 25.8831 8.98755C25.8577 8.99207 25.8323 8.99719 25.8071 9.00305C25.7566 9.01477 25.7063 9.02649 25.6562 9.03845C25.6309 9.04443 25.6057 9.05115 25.5811 9.05835C25.5557 9.06323 25.5303 9.06873 25.5051 9.07483C25.4543 9.08728 25.4038 9.09973 25.3535 9.11243C25.3281 9.11877 25.303 9.12573 25.2783 9.13342C25.2529 9.13855 25.2278 9.14441 25.2024 9.15088C25.1521 9.16382 25.1018 9.177 25.0518 9.19019C25.0266 9.1969 25.0017 9.20422 24.9773 9.21204C24.9519 9.21753 24.9268 9.22363 24.9016 9.23047C24.8518 9.24402 24.8018 9.25769 24.752 9.27161C24.7271 9.27856 24.7021 9.28613 24.6777 9.29431C24.6528 9.30017 24.6277 9.30652 24.6025 9.31372C24.5525 9.328 24.5024 9.34253 24.4524 9.35706C24.4272 9.3645 24.4023 9.37244 24.3779 9.38098C24.3528 9.38708 24.3276 9.39392 24.3027 9.40137C24.2529 9.41626 24.2031 9.4314 24.1536 9.44653C24.1284 9.45422 24.104 9.4624 24.0796 9.47131C24.0547 9.47766 24.0298 9.48486 24.0049 9.49268C23.9553 9.50818 23.906 9.5238 23.8567 9.53955C23.832 9.54749 23.8076 9.55603 23.7834 9.56519C23.7585 9.5719 23.7339 9.57935 23.709 9.5874C23.6594 9.60376 23.6099 9.62012 23.5605 9.63672C23.5356 9.64502 23.511 9.65405 23.4871 9.66345C23.4619 9.67065 23.4373 9.67847 23.4124 9.68689C23.363 9.70374 23.314 9.72083 23.2649 9.73792C23.2402 9.74658 23.2158 9.75586 23.1919 9.76562C23.1672 9.77307 23.1426 9.78113 23.1179 9.78992C23.0691 9.80737 23.0203 9.82495 22.9717 9.84277C22.947 9.85168 22.9231 9.86121 22.8994 9.87122C22.8748 9.87903 22.8503 9.88745 22.8259 9.89648C22.7769 9.91479 22.728 9.93311 22.6792 9.95166C22.6545 9.96106 22.6304 9.97095 22.6067 9.98145C22.582 9.9895 22.5574 9.99829 22.533 10.0078C22.4844 10.0266 22.4358 10.0457 22.3875 10.0648C22.363 10.0745 22.3391 10.0846 22.3154 10.0955C22.291 10.1038 22.2666 10.1129 22.2424 10.1227C22.1941 10.1422 22.146 10.1617 22.0981 10.1815C22.074 10.1914 22.0503 10.2019 22.0269 10.2129C22.0027 10.2217 21.9785 10.2311 21.9543 10.2411C21.9062 10.2614 21.8579 10.2817 21.8098 10.3024C21.7856 10.3126 21.762 10.3236 21.7385 10.335C21.7144 10.3441 21.6899 10.3539 21.666 10.3645C21.6179 10.3853 21.5703 10.4062 21.5225 10.4275C21.4985 10.4381 21.4751 10.4493 21.4519 10.4611C21.4277 10.4705 21.4038 10.4806 21.3799 10.4913C21.3325 10.5128 21.2852 10.5344 21.238 10.5562C21.2141 10.567 21.1909 10.5785 21.168 10.5906C21.144 10.6003 21.1204 10.6107 21.0967 10.6218Q21.0254 10.6552 20.9546 10.6891C20.9307 10.7004 20.9075 10.7123 20.8845 10.7247C20.8606 10.7349 20.8367 10.7457 20.813 10.7572C20.7659 10.7802 20.719 10.8031 20.6721 10.8263C20.6487 10.838 20.6255 10.8502 20.603 10.8629C20.5791 10.8733 20.5557 10.8845 20.5322 10.8962C20.4856 10.9198 20.4392 10.9434 20.3928 10.9672C20.3696 10.9791 20.3467 10.9916 20.3242 11.0045C20.3008 11.0153 20.2773 11.0267 20.2542 11.0388C20.2075 11.0632 20.1611 11.0876 20.1147 11.1123C20.0916 11.1246 20.0686 11.1376 20.0461 11.151C20.0227 11.1622 19.9993 11.1741 19.9761 11.1866C19.9299 11.2115 19.884 11.2367 19.8381 11.2618C19.8149 11.2745 19.7925 11.2877 19.7705 11.3014C19.7471 11.313 19.7239 11.3251 19.7009 11.338C19.6553 11.3634 19.6099 11.3892 19.5647 11.4149C19.5417 11.4279 19.5195 11.4414 19.4976 11.4554C19.4744 11.4673 19.4514 11.4797 19.4287 11.4929C19.3833 11.5193 19.3376 11.5459 19.2925 11.5725C19.2698 11.5859 19.2473 11.6 19.2256 11.6144C19.2024 11.6266 19.1797 11.6395 19.157 11.6531C19.1118 11.6801 19.0669 11.7073 19.0222 11.7345C18.9998 11.7482 18.9778 11.7625 18.9563 11.7771C18.9333 11.7897 18.9109 11.8029 18.8884 11.8168C18.844 11.8444 18.7996 11.8721 18.7554 11.8999C18.7332 11.9141 18.7112 11.9286 18.6899 11.9436C18.6672 11.9565 18.6448 11.9701 18.6226 11.9844C18.5781 12.0128 18.5339 12.0415 18.4897 12.0703C18.4675 12.0847 18.4458 12.0997 18.4248 12.1152C18.4021 12.1285 18.3799 12.1425 18.3579 12.1571C18.314 12.1862 18.2703 12.2155 18.2268 12.2448C18.2048 12.2595 18.1836 12.2748 18.1626 12.2905C18.1404 12.3041 18.1184 12.3184 18.0967 12.3333C18.0535 12.3629 18.0103 12.3927 17.9673 12.4227C17.9456 12.4379 17.9243 12.4535 17.9038 12.4697C17.8816 12.4836 17.8596 12.4984 17.8379 12.5138C17.7949 12.5443 17.752 12.5751 17.709 12.606C17.6875 12.6215 17.6665 12.6376 17.646 12.6539C17.6243 12.6683 17.6025 12.6833 17.5811 12.6991C17.5386 12.7302 17.4963 12.7616 17.4541 12.7931C17.4329 12.809 17.4124 12.8252 17.3921 12.8419C17.3706 12.8566 17.3491 12.8719 17.3281 12.8879C17.2861 12.9197 17.2444 12.9517 17.2029 12.9838C17.1819 13 17.1611 13.0168 17.1414 13.0341C17.1196 13.0492 17.0984 13.0649 17.0774 13.0814C17.0356 13.1141 16.9941 13.1471 16.9529 13.1801C16.9321 13.1967 16.9119 13.2137 16.8923 13.2312C16.8711 13.2467 16.8501 13.2628 16.8293 13.2795C16.7883 13.3129 16.7476 13.3463 16.707 13.3799C16.6865 13.3969 16.6665 13.4141 16.6472 13.4319C16.6265 13.4476 16.6057 13.464 16.5854 13.4811C16.5449 13.5153 16.5046 13.5494 16.4644 13.5839C16.4441 13.6012 16.4243 13.619 16.4053 13.6372C16.3843 13.6534 16.3638 13.6704 16.3438 13.688C16.3037 13.7228 16.2637 13.7578 16.2241 13.793C16.2041 13.8107 16.1848 13.8287 16.166 13.8473C16.1455 13.8638 16.1252 13.881 16.1055 13.8989C16.0662 13.9343 16.0271 13.9698 15.988 14.0056C15.9685 14.0236 15.9495 14.042 15.9312 14.0607C15.9111 14.0776 15.8914 14.0951 15.8718 14.1133C15.8328 14.1497 15.7939 14.1863 15.7554 14.223C15.7358 14.2415 15.717 14.2603 15.699 14.2795C15.679 14.2969 15.6592 14.3149 15.6399 14.3336C15.6018 14.3706 15.5637 14.4077 15.5259 14.4451C15.5068 14.4637 15.4883 14.4829 15.4705 14.5024C15.4509 14.5201 15.4316 14.5385 15.4128 14.5574C15.3752 14.595 15.3381 14.6327 15.301 14.6705C15.2822 14.6897 15.2642 14.7092 15.2466 14.7291C15.2273 14.7472 15.2083 14.766 15.1897 14.7853C15.1526 14.8239 15.1157 14.8625 15.0791 14.9015C15.0605 14.921 15.0427 14.9409 15.0256 14.9612C15.0066 14.9796 14.988 14.9988 14.9697 15.0184C14.9333 15.0576 14.8975 15.0969 14.8616 15.1364C14.8435 15.1561 14.8262 15.1764 14.8096 15.1969C14.7908 15.2157 14.7725 15.2351 14.7546 15.2551C14.7192 15.2949 14.6841 15.3348 14.6489 15.375C14.6311 15.3953 14.614 15.416 14.5977 15.437C14.5791 15.4563 14.561 15.4762 14.5435 15.4967C14.5085 15.5374 14.4739 15.5782 14.4395 15.6193C14.4221 15.6399 14.4055 15.6608 14.3894 15.6821C14.3713 15.7017 14.3538 15.7219 14.3367 15.7427C14.3027 15.7839 14.2688 15.8253 14.2354 15.8669C14.2183 15.8878 14.2021 15.9091 14.1865 15.9305C14.1689 15.9504 14.1519 15.9709 14.1353 15.9921C14.1018 16.0342 14.0686 16.0767 14.0356 16.1191C14.019 16.1405 14.0032 16.1622 13.9878 16.1842C13.9705 16.2046 13.9536 16.2256 13.9373 16.2472C13.9048 16.29 13.8726 16.333 13.8403 16.3761C13.8242 16.3977 13.8088 16.4197 13.7942 16.442C13.7773 16.4626 13.761 16.4839 13.7451 16.5057C13.7134 16.5492 13.6821 16.5927 13.6509 16.6364C13.6353 16.6584 13.6201 16.6808 13.606 16.7034C13.5894 16.7245 13.5735 16.7462 13.5579 16.7686C13.5271 16.8129 13.4963 16.8573 13.4658 16.902C13.4507 16.9243 13.436 16.947 13.4221 16.9701C13.4062 16.9916 13.3906 17.0135 13.3755 17.0361C13.3457 17.0811 13.3159 17.1261 13.2866 17.1713C13.2717 17.194 13.2578 17.2169 13.2444 17.2401C13.2288 17.2618 13.2136 17.2842 13.1992 17.3071C13.1702 17.3527 13.1416 17.3984 13.113 17.4443C13.0986 17.4674 13.085 17.4908 13.072 17.5145C13.0569 17.5367 13.0422 17.5596 13.0281 17.5829C13 17.6293 12.9722 17.6758 12.9446 17.7224C12.9307 17.7458 12.9177 17.7694 12.9053 17.7933C12.8906 17.8159 12.8765 17.839 12.8628 17.8625C12.8357 17.9094 12.8091 17.9564 12.7825 18.0035C12.7693 18.0273 12.7566 18.0513 12.7446 18.0754C12.7305 18.0984 12.7168 18.1217 12.7039 18.1456C12.6777 18.1934 12.6519 18.2412 12.6265 18.2893C12.6135 18.3134 12.6013 18.3378 12.5901 18.3622C12.5764 18.3855 12.5632 18.4093 12.5505 18.4336C12.5256 18.4818 12.501 18.5303 12.4763 18.5787C12.4641 18.6031 12.4526 18.6277 12.4419 18.6525C12.4287 18.676 12.416 18.7001 12.4041 18.7246C12.3801 18.7734 12.3564 18.8224 12.3333 18.8715C12.3215 18.8962 12.3105 18.9211 12.3003 18.9463C12.2876 18.9702 12.2754 18.9946 12.2639 19.0197C12.241 19.0692 12.2185 19.1188 12.1963 19.1686C12.1851 19.1936 12.1746 19.2189 12.165 19.2441C12.1528 19.2684 12.1414 19.2931 12.1304 19.3182C12.1089 19.3683 12.0874 19.4185 12.0664 19.4688C12.0559 19.494 12.0459 19.5194 12.0369 19.5449C12.0254 19.5695 12.0144 19.5945 12.0042 19.6199C11.9836 19.6705 11.9634 19.7214 11.9436 19.7723C11.9336 19.798 11.9243 19.8237 11.9158 19.8495C11.9048 19.8744 11.8945 19.8998 11.8848 19.9255C11.8655 19.9767 11.8464 20.028 11.8279 20.0793C11.8184 20.1052 11.8098 20.1311 11.8018 20.1571C11.7915 20.1823 11.7817 20.2079 11.7727 20.2339C11.7546 20.2855 11.7368 20.3372 11.7195 20.389C11.7107 20.4152 11.7026 20.4414 11.6956 20.4677C11.6855 20.493 11.6765 20.5189 11.668 20.5452C11.6514 20.5974 11.6348 20.6497 11.6187 20.702C11.6104 20.7284 11.603 20.7548 11.5964 20.7812C11.5874 20.8069 11.5789 20.833 11.571 20.8595Q11.5479 20.9384 11.5254 21.0176C11.5178 21.0442 11.5112 21.0708 11.5054 21.0974C11.4968 21.1233 11.489 21.1495 11.4817 21.1763C11.4675 21.2292 11.4536 21.2823 11.4402 21.3356C11.4333 21.3623 11.4272 21.3892 11.4219 21.4159C11.4141 21.442 11.407 21.4685 11.4004 21.4954C11.3875 21.5488 11.375 21.6023 11.3628 21.6559C11.3567 21.6829 11.3513 21.7098 11.3467 21.7367C11.3394 21.7631 11.3328 21.7898 11.3271 21.8169C11.3154 21.8706 11.3042 21.9246 11.2935 21.9785C11.2878 22.0056 11.2832 22.0326 11.2793 22.0597C11.2747 22.0786 11.2703 22.0978 11.2664 22.1172C10.8938 21.6975 10.4766 21.2081 10.0645 20.6851C9.44873 19.9036 8.87256 19.0826 8.47046 18.3308C8.03833 17.5231 7.93359 17.0242 7.95215 16.8098C7.97803 16.5153 8.13647 16.1469 8.58667 15.6593C9.04175 15.1663 9.68506 14.6691 10.4805 14.1121C10.7217 13.9432 10.9834 13.7644 11.2544 13.5796L11.2546 13.5795C11.8181 13.1948 12.4211 12.7833 12.96 12.377C13.7732 11.7635 14.6104 11.0416 15.2175 10.1766C16.4688 8.39368 16.2654 6.83252 16.1299 5.79333C16.126 5.76331 16.1221 5.73376 16.1184 5.70471C16.05 5.17615 16.0347 4.92444 16.0769 4.7124C16.1052 4.56885 16.1775 4.35645 16.5178 4.04175ZM31.5771 11.2921L31.5483 11.2922L31.5081 11.2922C31.4849 11.2924 31.4619 11.2919 31.439 11.2909C31.416 11.2921 31.3931 11.2928 31.3699 11.2931Q31.3008 11.2937 31.2319 11.2947C31.209 11.295 31.186 11.2948 31.1631 11.2942C31.1404 11.2957 31.1174 11.2966 31.0942 11.2971C31.0483 11.2981 31.0027 11.2992 30.957 11.3004C30.9338 11.301 30.9111 11.301 30.8882 11.3007C30.8657 11.3024 30.8428 11.3037 30.8198 11.3044C30.7742 11.3059 30.7285 11.3075 30.6829 11.3092C30.6599 11.3102 30.6367 11.3105 30.614 11.3103C30.5911 11.3124 30.5681 11.314 30.5452 11.3149C30.499 11.317 30.4531 11.3192 30.4072 11.3214C30.3843 11.3226 30.3613 11.3232 30.3384 11.3234C30.3157 11.3257 30.2927 11.3275 30.2698 11.3287C30.2239 11.3314 30.1782 11.3341 30.1326 11.3369C30.1094 11.3384 30.0867 11.3392 30.064 11.3396C30.0547 11.3407 30.0454 11.3417 30.0361 11.3425L30.0361 16.2604C30.2136 16.2505 30.3928 16.2417 30.5735 16.234L30.5735 16.192C30.9133 16.192 31.2478 16.1954 31.5774 16.2023C31.9065 16.1954 32.241 16.192 32.5808 16.192L32.5808 16.234C32.7615 16.2417 32.9404 16.2505 33.1179 16.2603L33.1179 11.3425C33.1089 11.3416 33.0996 11.3407 33.0906 11.3396C33.0676 11.3392 33.0449 11.3384 33.022 11.3369C32.9763 11.3341 32.9304 11.3314 32.8848 11.3287C32.8616 11.3275 32.8386 11.3257 32.8159 11.3234C32.7932 11.3232 32.7703 11.3226 32.7471 11.3214C32.7012 11.3192 32.6553 11.317 32.6094 11.3149C32.5862 11.314 32.5632 11.3124 32.5405 11.3103C32.5176 11.3105 32.4946 11.3102 32.4714 11.3092C32.4258 11.3075 32.3801 11.3059 32.3345 11.3044C32.3115 11.3037 32.2888 11.3024 32.2661 11.3007C32.2434 11.301 32.2205 11.301 32.1975 11.3004C32.1516 11.2992 32.106 11.2981 32.0601 11.2971C32.0371 11.2966 32.0142 11.2957 31.9912 11.2942C31.9685 11.2948 31.9456 11.295 31.9224 11.2947C31.8765 11.2941 31.8306 11.2935 31.7844 11.2931C31.7612 11.2928 31.7383 11.2921 31.7153 11.2909C31.6926 11.2919 31.6694 11.2924 31.6462 11.2922C31.6233 11.2922 31.6003 11.2921 31.5771 11.2921ZM38.0088 12.2178C38.0513 12.2305 38.0935 12.2433 38.1357 12.2562L38.1357 16.8745C37.4739 16.7427 36.7817 16.6279 36.0579 16.532L36.0579 11.7313C36.0659 11.7328 36.0742 11.734 36.0825 11.7354C36.1045 11.741 36.127 11.746 36.1494 11.7506C36.1943 11.7599 36.2393 11.7692 36.2842 11.7787C36.3066 11.7834 36.3291 11.7876 36.3516 11.7914C36.3735 11.7972 36.396 11.8026 36.4185 11.8075C36.4631 11.8173 36.5076 11.827 36.5522 11.837C36.5745 11.842 36.5969 11.8466 36.6191 11.8505C36.6411 11.8567 36.6631 11.8623 36.6855 11.8674C36.7297 11.8777 36.7742 11.8881 36.8184 11.8986C36.8406 11.9039 36.863 11.9087 36.8853 11.9128C36.9072 11.9193 36.9292 11.9252 36.9514 11.9307Q37.0183 11.947 37.085 11.9637C37.1072 11.9694 37.1296 11.9744 37.1519 11.9789C37.1736 11.9856 37.1956 11.9918 37.2178 11.9976C37.2622 12.0089 37.3064 12.0205 37.3503 12.0322C37.3726 12.0381 37.3948 12.0433 37.4167 12.0481C37.4385 12.0551 37.4602 12.0615 37.4824 12.0675C37.5264 12.0795 37.5701 12.0916 37.614 12.1038C37.636 12.1099 37.658 12.1155 37.6802 12.1205C37.7014 12.1277 37.7231 12.1345 37.7454 12.1407C37.7893 12.1533 37.8333 12.166 37.8772 12.1788C37.8994 12.1853 37.9214 12.1912 37.9436 12.1965C37.9651 12.2041 37.9868 12.2112 38.0088 12.2178ZM27.0718 11.7354C27.0801 11.734 27.0881 11.7328 27.0964 11.7314L27.0964 16.532C26.3723 16.6279 25.6802 16.7427 25.0183 16.8746L25.0183 12.2562C25.0605 12.2433 25.103 12.2305 25.1455 12.2178C25.1677 12.2112 25.1895 12.2041 25.2109 12.1965C25.2329 12.1912 25.2551 12.1853 25.2771 12.1788C25.321 12.166 25.365 12.1533 25.4092 12.1407C25.4312 12.1344 25.4529 12.1277 25.4744 12.1205C25.4963 12.1155 25.5183 12.1099 25.5405 12.1038C25.5842 12.0916 25.6279 12.0795 25.6719 12.0675C25.6941 12.0615 25.7158 12.0551 25.7375 12.0481C25.7598 12.0433 25.7817 12.0381 25.804 12.0322C25.8481 12.0205 25.8921 12.0089 25.9365 11.9976C25.9587 11.9918 25.9807 11.9856 26.0024 11.9789C26.0249 11.9744 26.0471 11.9694 26.0693 11.9637C26.1138 11.9525 26.1582 11.9415 26.2029 11.9307C26.2251 11.9252 26.2473 11.9193 26.269 11.9128C26.2913 11.9087 26.3137 11.9039 26.3359 11.8986C26.3801 11.8881 26.4246 11.8777 26.469 11.8674C26.4912 11.8623 26.5132 11.8566 26.5352 11.8505C26.5574 11.8466 26.5798 11.842 26.6023 11.837C26.6467 11.827 26.6914 11.8173 26.7361 11.8075C26.7585 11.8026 26.7808 11.7972 26.8027 11.7913C26.8252 11.7876 26.8477 11.7834 26.8701 11.7787C26.915 11.7692 26.96 11.7599 27.0049 11.7506C27.0273 11.746 27.0498 11.7408 27.0718 11.7354ZM43.116 14.5684C43.1301 14.5786 43.1445 14.5886 43.1589 14.5985C43.1555 14.6392 43.1538 14.6803 43.1538 14.7218L43.1538 18.4058C42.5068 18.1252 41.8152 17.8647 41.0757 17.6283L41.0757 13.4108C41.1099 13.4274 41.1438 13.4441 41.1777 13.4609C41.1982 13.4711 41.2188 13.4806 41.2393 13.4896C41.2588 13.5007 41.2788 13.5114 41.2991 13.5216C41.3396 13.5419 41.3796 13.5624 41.4199 13.5829C41.4399 13.5933 41.4602 13.603 41.4805 13.6124C41.5 13.6237 41.5198 13.6345 41.5398 13.645C41.5801 13.666 41.6204 13.6873 41.6604 13.7085C41.6804 13.7192 41.7007 13.7294 41.7212 13.739C41.7405 13.7506 41.7603 13.7618 41.7803 13.7727C41.8025 13.7848 41.8247 13.7968 41.8467 13.8088L41.8904 13.8328L41.8994 13.8376C41.9192 13.8486 41.9392 13.859 41.9592 13.8689C41.9785 13.8807 41.9978 13.8922 42.0176 13.9033C42.0569 13.9253 42.0962 13.9475 42.1353 13.9697C42.1548 13.9808 42.1746 13.9916 42.1946 14.0017C42.2134 14.0138 42.2327 14.0255 42.2522 14.0369Q42.2759 14.0505 42.2993 14.0643C42.3228 14.078 42.3462 14.0917 42.3696 14.1055C42.3892 14.1169 42.4089 14.1281 42.4287 14.1385C42.4475 14.151 42.4666 14.1631 42.4861 14.1747C42.5249 14.1979 42.5635 14.2213 42.6018 14.2448C42.6213 14.2565 42.6406 14.2677 42.6604 14.2786C42.6787 14.2911 42.6978 14.3035 42.7168 14.3153C42.7551 14.339 42.793 14.3628 42.8311 14.3867C42.8501 14.3988 42.8694 14.4103 42.8889 14.4214C42.907 14.4343 42.9258 14.4469 42.9448 14.4591C42.9829 14.4835 43.0208 14.5081 43.0586 14.5327L43.0645 14.5365L43.075 14.5432C43.0806 14.5468 43.0862 14.5503 43.0918 14.5538C43.0999 14.5587 43.1079 14.5636 43.116 14.5684ZM21.9766 13.4609C22.0105 13.4442 22.0444 13.4275 22.0786 13.4109L22.0786 17.6283C21.3391 17.8647 20.6472 18.1252 20.0005 18.4058L20.0005 14.5951C20.0066 14.5908 20.0127 14.5867 20.0188 14.5824L20.0286 14.5754L20.0383 14.5682C20.0576 14.5569 20.0769 14.545 20.0957 14.5326C20.1335 14.5081 20.1714 14.4835 20.2095 14.4591C20.2285 14.4469 20.2473 14.4343 20.2656 14.4214C20.2849 14.4103 20.3042 14.3988 20.3235 14.3867C20.3613 14.3628 20.3994 14.339 20.4375 14.3153C20.4568 14.3035 20.4756 14.2911 20.4941 14.2784C20.5137 14.2677 20.5332 14.2565 20.5525 14.2446C20.5908 14.2212 20.6294 14.1979 20.6682 14.1747C20.6877 14.1631 20.7068 14.151 20.7256 14.1385C20.7454 14.1281 20.7651 14.1169 20.7847 14.1055C20.8237 14.0825 20.8628 14.0596 20.9021 14.0369C20.9216 14.0255 20.9409 14.0138 20.9597 14.0017C20.9797 13.9916 20.9995 13.9808 21.019 13.9697C21.0393 13.9583 21.0593 13.9469 21.0793 13.9355C21.0984 13.9248 21.1177 13.9141 21.1367 13.9033C21.1565 13.8922 21.176 13.8807 21.1951 13.8689C21.2151 13.859 21.2351 13.8486 21.2551 13.8376C21.2947 13.8159 21.3342 13.7942 21.374 13.7727C21.3943 13.7618 21.4138 13.7506 21.4331 13.739C21.4536 13.7294 21.4739 13.7191 21.4939 13.7085C21.5342 13.6871 21.5742 13.666 21.6145 13.645C21.6348 13.6345 21.6543 13.6237 21.6738 13.6124C21.6941 13.603 21.7144 13.5933 21.7346 13.5829C21.7747 13.5624 21.8149 13.5419 21.8552 13.5216C21.8755 13.5114 21.8955 13.5007 21.915 13.4896C21.9355 13.4806 21.9561 13.4711 21.9766 13.4609ZM17.0374 17.1133L17.0605 17.0878L17.0605 19.9999C15.9065 20.7747 14.9619 21.6191 14.1907 22.4849C14.1941 22.4681 14.1975 22.4513 14.2012 22.4346C14.2058 22.4137 14.2097 22.3928 14.2134 22.3719C14.219 22.3514 14.2241 22.3308 14.2288 22.3099C14.2383 22.2684 14.248 22.2271 14.2581 22.1857C14.2629 22.1649 14.2676 22.144 14.2717 22.1233C14.2778 22.103 14.2834 22.0825 14.2888 22.0618C14.2993 22.0205 14.3101 21.9792 14.321 21.9381C14.3267 21.9175 14.3318 21.8967 14.3364 21.8761C14.343 21.8558 14.3491 21.8354 14.355 21.8148C14.3667 21.7738 14.3784 21.7329 14.3904 21.6919C14.3965 21.6714 14.4021 21.6508 14.4072 21.6301C14.4146 21.6101 14.4211 21.5898 14.4275 21.5693C14.4402 21.5286 14.4529 21.4879 14.4661 21.4471C14.4727 21.4268 14.4788 21.4062 14.4844 21.3857C14.4922 21.3658 14.4993 21.3457 14.5061 21.3253C14.5198 21.2849 14.5337 21.2445 14.5479 21.2041C14.5549 21.1838 14.5615 21.1635 14.5676 21.1432C14.5757 21.1234 14.5835 21.1035 14.5908 21.0833C14.6055 21.0431 14.6204 21.0029 14.6355 20.9628C14.6431 20.9426 14.6501 20.9225 14.6567 20.9021C14.6655 20.8826 14.6736 20.8628 14.6816 20.8428C14.6973 20.8027 14.7131 20.7629 14.7292 20.723C14.7373 20.7031 14.7449 20.6831 14.752 20.663C14.761 20.6437 14.7698 20.624 14.7781 20.6041C14.7947 20.5646 14.8115 20.5251 14.8286 20.4857C14.8372 20.4659 14.8452 20.446 14.8528 20.426C14.8623 20.4069 14.8716 20.3875 14.8804 20.3677C14.8979 20.3284 14.9158 20.2892 14.9338 20.2501C14.9429 20.2303 14.9514 20.2106 14.9597 20.1907C14.9697 20.1718 14.9792 20.1525 14.9888 20.1328C15.0071 20.094 15.0259 20.0553 15.0447 20.0166C15.0542 19.9972 15.0632 19.9777 15.0718 19.958C15.0823 19.9392 15.0925 19.9202 15.1021 19.9009C15.1216 19.8624 15.1411 19.824 15.1611 19.7855C15.1711 19.7662 15.1807 19.7468 15.1897 19.7273C15.2004 19.7087 15.2112 19.6899 15.2214 19.6707C15.2417 19.6324 15.2622 19.5944 15.2832 19.5563C15.2935 19.5372 15.3035 19.5181 15.313 19.4987C15.3242 19.4805 15.3352 19.4618 15.3459 19.4429C15.3672 19.4052 15.3884 19.3677 15.4102 19.3301C15.4209 19.3113 15.4314 19.2922 15.4414 19.2731C15.4531 19.255 15.4646 19.2366 15.4756 19.2179Q15.5088 19.1617 15.5425 19.106C15.554 19.0873 15.5647 19.0684 15.5752 19.0494C15.5874 19.0315 15.5994 19.0132 15.6108 18.9946C15.6338 18.9578 15.6567 18.921 15.6802 18.8843C15.6919 18.8658 15.7031 18.8473 15.7139 18.8285C15.7263 18.8109 15.7388 18.7931 15.7505 18.7748C15.7742 18.7383 15.7981 18.702 15.8223 18.6658C15.8345 18.6475 15.8462 18.629 15.8574 18.6105C15.8704 18.593 15.8831 18.5753 15.8955 18.5571C15.9202 18.5211 15.9448 18.4851 15.97 18.4491C15.9824 18.4312 15.9946 18.4128 16.0061 18.3945C16.0195 18.3773 16.0327 18.3599 16.0454 18.3419C16.0708 18.3065 16.0962 18.2711 16.1218 18.2358C16.1348 18.2181 16.1472 18.2002 16.1592 18.182C16.1729 18.1652 16.1863 18.1479 16.1995 18.1304C16.2256 18.0952 16.252 18.0602 16.2783 18.0253C16.2917 18.0077 16.3047 17.99 16.3171 17.9719C16.3313 17.9553 16.345 17.9382 16.3586 17.9208C16.3855 17.8861 16.4126 17.8514 16.4399 17.8169C16.4536 17.7997 16.4668 17.7822 16.4797 17.7645C16.4941 17.7483 16.5081 17.7316 16.522 17.7145C16.5496 17.6804 16.5771 17.6465 16.6052 17.6125C16.6191 17.5956 16.6328 17.5782 16.646 17.5608C16.6606 17.5447 16.6753 17.5282 16.6895 17.5112C16.7178 17.4775 16.7463 17.444 16.7751 17.4104C16.7896 17.3936 16.8035 17.3765 16.8171 17.3591C16.8323 17.3433 16.8472 17.3269 16.8618 17.3102C16.8909 17.2771 16.9199 17.2441 16.9492 17.2113C16.9639 17.1948 16.9783 17.1781 16.9919 17.1611C17.0073 17.1455 17.0227 17.1296 17.0374 17.1133ZM48.9531 22.4347C48.9568 22.4514 48.9602 22.4681 48.9639 22.4849C48.1924 21.6193 47.2478 20.7748 46.0938 20L46.0938 17.0878L46.1169 17.1133C46.1318 17.1296 46.147 17.1455 46.1624 17.1611C46.176 17.1781 46.1904 17.1948 46.2051 17.2113C46.2178 17.2256 46.2305 17.2399 46.2432 17.2542C46.2598 17.2728 46.2761 17.2915 46.2925 17.3102C46.3071 17.3269 46.322 17.3433 46.3372 17.3591C46.3508 17.3765 46.3647 17.3936 46.3792 17.4104C46.408 17.444 46.4365 17.4775 46.4648 17.5112C46.479 17.5282 46.4937 17.5447 46.5083 17.5608C46.5159 17.5707 46.5234 17.5804 46.531 17.5902C46.5371 17.5977 46.543 17.6051 46.5493 17.6125C46.5771 17.6465 46.605 17.6804 46.6323 17.7145C46.6462 17.7316 46.6604 17.7483 46.6748 17.7645C46.6875 17.7822 46.7007 17.7997 46.7144 17.8169C46.7417 17.8514 46.7688 17.8861 46.7957 17.9208C46.8093 17.9382 46.823 17.9553 46.8372 17.972C46.8496 17.99 46.8625 18.0077 46.876 18.0253L46.8901 18.0439L46.9021 18.0599L46.9084 18.0685C46.9241 18.0891 46.9395 18.1097 46.9548 18.1304C46.968 18.1479 46.9814 18.1652 46.9951 18.1821C47.0071 18.2002 47.0195 18.2181 47.0325 18.236Q47.071 18.2888 47.1089 18.3419C47.1216 18.3599 47.1348 18.3773 47.1482 18.3945C47.1597 18.413 47.1719 18.4312 47.1843 18.4491C47.2095 18.4851 47.2344 18.5211 47.2588 18.5573C47.2712 18.5753 47.2839 18.5931 47.2969 18.6105C47.3081 18.629 47.3198 18.6475 47.332 18.6658C47.3562 18.702 47.3801 18.7384 47.4038 18.7748C47.4158 18.7931 47.428 18.811 47.4404 18.8286C47.4512 18.8473 47.4624 18.8658 47.4741 18.8843C47.4976 18.921 47.5208 18.9578 47.5435 18.9946C47.5552 19.0133 47.5669 19.0315 47.5791 19.0494C47.5896 19.0685 47.6006 19.0873 47.6118 19.1061C47.6343 19.1432 47.6567 19.1805 47.6787 19.2179Q47.6953 19.246 47.7131 19.2731C47.7229 19.2922 47.7334 19.3113 47.7441 19.3302C47.7659 19.3677 47.7871 19.4053 47.8083 19.4429C47.8191 19.4618 47.8301 19.4805 47.8413 19.4988C47.8469 19.5103 47.8528 19.5217 47.8589 19.5332L47.8601 19.5356C47.8638 19.5426 47.8674 19.5494 47.8713 19.5563C47.8921 19.5944 47.9126 19.6326 47.9329 19.6708C47.9431 19.6899 47.9539 19.7087 47.9646 19.7273L47.968 19.7345L47.9712 19.7408L47.9763 19.752C47.9797 19.7588 47.9832 19.7656 47.9866 19.7723Q47.9897 19.7789 47.9934 19.7856C48.0051 19.8082 48.0166 19.8309 48.0283 19.8536C48.0361 19.8694 48.0442 19.8851 48.0522 19.9009C48.062 19.9203 48.072 19.9393 48.0825 19.958C48.0911 19.9777 48.1001 19.9972 48.1096 20.0166C48.1287 20.0553 48.1472 20.0941 48.1658 20.1329C48.175 20.1525 48.1846 20.1718 48.1948 20.1908C48.2029 20.2106 48.2114 20.2303 48.2205 20.2501C48.2295 20.2695 48.2385 20.2891 48.2473 20.3086C48.2561 20.3282 48.2651 20.348 48.2739 20.3678C48.2827 20.3875 48.292 20.4069 48.3015 20.426C48.3091 20.446 48.3171 20.4659 48.3257 20.4857C48.3313 20.4987 48.3369 20.5116 48.3425 20.5244C48.3484 20.5382 48.3542 20.552 48.3601 20.5658C48.3655 20.5786 48.3708 20.5914 48.3762 20.6042C48.3845 20.6241 48.3933 20.6437 48.4023 20.663C48.4067 20.6754 48.4114 20.6879 48.4163 20.7002C48.4192 20.7079 48.4221 20.7155 48.4253 20.723C48.4414 20.7629 48.4573 20.8029 48.4729 20.8428C48.4807 20.8628 48.4888 20.8827 48.4976 20.9022C48.5042 20.9225 48.5112 20.9427 48.5188 20.9629C48.5339 21.0029 48.5488 21.0431 48.5635 21.0834C48.5708 21.1035 48.5786 21.1235 48.5867 21.1432C48.5928 21.1636 48.5996 21.1838 48.6067 21.2042C48.6206 21.2445 48.6345 21.2849 48.6482 21.3254C48.655 21.3458 48.6624 21.3658 48.6699 21.3857C48.6755 21.4062 48.6816 21.4268 48.6882 21.4473C48.7014 21.4879 48.7141 21.5286 48.7268 21.5695C48.7332 21.59 48.74 21.6102 48.7471 21.6301C48.7493 21.639 48.7515 21.6479 48.7539 21.6569C48.7559 21.6637 48.7576 21.6705 48.7595 21.6775L48.7639 21.692C48.7759 21.7329 48.7878 21.7738 48.7993 21.8149C48.8052 21.8356 48.8113 21.856 48.8179 21.8761C48.8225 21.8969 48.8276 21.9175 48.8333 21.9382C48.8442 21.9794 48.855 22.0205 48.8655 22.0618C48.8682 22.072 48.8708 22.0822 48.8735 22.0923C48.8765 22.1027 48.8796 22.113 48.8826 22.1233L48.8853 22.137L48.8879 22.1486C48.8904 22.161 48.8933 22.1733 48.8962 22.1857C48.9062 22.2271 48.916 22.2686 48.9255 22.3101C48.9302 22.3308 48.9355 22.3516 48.9409 22.3719C48.9446 22.3928 48.9487 22.4137 48.9531 22.4347ZM36.5681 19.5773C35.0891 19.3372 33.4326 19.1835 31.5771 19.1427C22.7952 19.3357 18.4729 22.0575 16.324 24.5101C15.1904 25.8041 14.6021 27.0883 14.2969 28.0347C14.1443 28.5083 14.0632 28.8956 14.0208 29.1538C13.9998 29.2827 13.9883 29.3788 13.9824 29.4365L13.981 29.4525L13.9795 29.4668L13.9792 29.4717C13.9807 30.3331 14.0188 31.1549 14.0923 31.9395L15.3521 30.8544C15.999 29.92 16.7659 29.2566 17.6509 28.827C18.5334 28.3986 19.4509 28.2428 20.3306 28.2018C21.196 28.1615 22.0989 28.2308 22.947 28.2988L23.0789 28.3094C23.9084 28.3761 24.7156 28.441 25.5559 28.441C27.6885 28.441 30.5085 27.4547 32.8015 25.7496C35.104 24.0375 36.5679 21.8422 36.5679 19.59L36.5681 19.5773ZM49.02 28.6058C48.9778 28.4346 48.9243 28.2429 48.8574 28.0347C48.5522 27.0883 47.9639 25.8041 46.8303 24.5101C45.4761 22.9646 43.259 21.3123 39.6069 20.2531C39.8516 22.3708 41.3069 24.429 43.5369 26.0674C45.1848 27.2781 47.1316 28.1613 49.02 28.6058ZM49.0215 31.6115C46.4902 31.1284 43.9189 29.996 41.7964 28.4365C40.3162 27.349 38.9802 25.9954 38.0378 24.4355C37.1355 25.8708 35.8975 27.1108 34.5557 28.1086C31.8621 30.1116 28.4414 31.3809 25.5559 31.3809C24.5935 31.3809 23.6775 31.307 22.8689 31.2418L22.7119 31.2292C21.8379 31.1592 21.1174 31.1082 20.4675 31.1384C19.832 31.1681 19.342 31.2739 18.9348 31.4717C18.542 31.6624 18.1453 31.9774 17.7527 32.5515C17.6399 32.7163 17.4956 32.8881 17.3149 33.0436L14.6785 35.3143C15.2124 37.3319 16.0403 39.0507 17.1228 40.5353L46.0269 37.8558C46.4133 37.8201 46.7854 37.8757 47.123 38.0042C47.9783 36.1068 48.7139 33.8771 49.0215 31.6115ZM19.1287 35.6605C20.4465 34.6449 21.2998 34.3188 22.0144 34.3207C21.1963 34.3357 20.5378 34.9879 20.5378 35.7904C20.5378 36.6022 21.2117 37.2603 22.0432 37.2603C22.8745 37.2603 23.5486 36.6022 23.5486 35.7904C23.5486 35.0336 22.9629 34.4104 22.21 34.3293C22.9297 34.3909 23.7463 34.7844 24.981 35.6781C25.4194 35.9955 26.0322 35.8973 26.3494 35.4589C26.6667 35.0205 26.5686 34.4078 26.1301 34.0905C24.7783 33.1118 23.5227 32.4045 22.1375 32.3628C20.7271 32.3203 19.4102 32.9694 17.9324 34.108C17.5039 34.4385 17.4241 35.0537 17.7544 35.4824C18.0847 35.9111 18.7002 35.9908 19.1287 35.6605ZM38.1968 35.6605C39.5149 34.6449 40.3679 34.3188 41.0825 34.3207C40.2644 34.3357 39.606 34.9879 39.606 35.7904C39.606 36.6022 40.28 37.2603 41.1113 37.2603C41.9426 37.2603 42.6167 36.6022 42.6167 35.7904C42.6167 35.0337 42.0312 34.4105 41.2783 34.3293C41.998 34.391 42.8147 34.7845 44.0493 35.6781C44.4875 35.9955 45.1003 35.8973 45.4175 35.4589C45.7349 35.0205 45.6367 34.4078 45.1985 34.0905C43.8464 33.1118 42.5908 32.4045 41.2056 32.3628C39.7952 32.3203 38.4783 32.9694 37.0007 34.108C36.572 34.4385 36.4922 35.0537 36.8225 35.4824C37.1528 35.9111 37.7683 35.9908 38.1968 35.6605ZM16.99 43.5L45.7632 40.8328L45.7632 41.6604L16.99 45.5725L16.99 43.5ZM25.7102 47.3538L45.7632 44.6273L45.7632 47.3538L25.7102 47.3538ZM45.7632 51.1332L45.7632 50.2936L16.99 50.2936L16.99 51.2429L26.9243 53.2173L45.7632 51.1332ZM32.9172 55.5121L27.1724 56.1476C26.9233 56.1752 26.6714 56.1643 26.4255 56.1155L17.1487 54.2717C9.03711 58.5845 2.9397 67.0317 2.9397 76.4579C2.9397 81.33 3.78687 84.7035 4.59863 86.8213C5.00537 87.882 5.40527 88.6332 5.69067 89.1045C5.83374 89.3403 5.94824 89.5066 6.02075 89.6067C6.05713 89.6567 6.08325 89.6903 6.09692 89.7079L6.10278 89.715L6.10669 89.7198L6.10693 89.7205L6.10864 89.7223L6.18237 89.8087L11.3396 98.5066L14.05 98.5066L14.05 98.2289C12.708 95.6078 12.043 92.6904 12.043 89.7852L12.043 86.2573C12.043 85.4456 12.7012 84.7875 13.5129 84.7875C14.3247 84.7875 14.9829 85.4456 14.9829 86.2573L14.9829 89.7852C14.9829 92.8802 15.8738 95.9562 17.6323 98.5066L47.5295 98.5066C49.2878 95.9562 50.179 92.8802 50.179 89.7852L50.179 86.2573C50.179 85.4456 50.8369 84.7875 51.6489 84.7875C52.4607 84.7875 53.1187 85.4456 53.1187 86.2573L53.1187 89.7852C53.1187 92.6906 52.4536 95.6079 51.1116 98.2291L51.1116 98.5066L53.822 98.5066L58.979 89.8087L59.0532 89.7222L59.0547 89.7205L59.0549 89.7198C59.0569 89.7175 59.0601 89.7135 59.0645 89.7079C59.073 89.6971 59.0859 89.6807 59.1028 89.6581C59.1138 89.6434 59.1265 89.6263 59.1406 89.6067C59.2134 89.5066 59.3279 89.3403 59.4707 89.1045C59.7563 88.6332 60.1562 87.882 60.563 86.8213C61.3748 84.7035 62.2217 81.33 62.2217 76.4579C62.2217 67.3801 56.5669 59.2102 48.9038 54.7667L48.9038 82.3375C48.9038 83.1493 48.2456 83.8075 47.4338 83.8075C46.6221 83.8075 45.9641 83.1493 45.9641 82.3375L45.9641 54.0687L35.8572 55.1868L35.8572 82.3374C35.8572 83.1493 35.199 83.8074 34.3872 83.8074C33.5754 83.8074 32.9172 83.1493 32.9172 82.3374L32.9172 55.5121ZM38.7026 74.6938C39.5144 74.6938 40.1726 75.3519 40.1726 76.1637L40.1726 82.0433C40.1726 82.8551 39.5144 83.5132 38.7026 83.5132C37.8909 83.5132 37.2329 82.8551 37.2329 82.0433L37.2329 76.1637C37.2329 75.3519 37.8909 74.6938 38.7026 74.6938ZM43.2188 74.6938C44.0305 74.6938 44.6885 75.3519 44.6885 76.1637L44.6885 82.0433C44.6885 82.8551 44.0305 83.5132 43.2188 83.5132C42.407 83.5132 41.7488 82.8551 41.7488 82.0433L41.7488 76.1637C41.7488 75.3519 42.407 74.6938 43.2188 74.6938ZM11.9844 101.704C11.9871 101.615 11.99 101.529 11.9932 101.446L14.05 101.446L14.05 107.326L12.9307 107.326C12.6008 106.383 12.1687 105.007 12.0437 103.996C11.9651 103.359 11.9614 102.477 11.9844 101.704ZM16.99 107.816L16.99 101.446L48.1716 101.446L48.1716 129.865L16.99 129.865L16.99 107.834L16.99 107.816ZM51.1116 107.326L51.1116 101.446L53.1687 101.446C53.1716 101.529 53.1746 101.615 53.1772 101.704C53.2002 102.477 53.1965 103.359 53.1179 103.996C52.9929 105.007 52.561 106.383 52.231 107.326L51.1116 107.326ZM29.1038 132.804L26.022 132.804L26.022 136.724L29.1038 136.724L29.1038 132.804ZM36.0576 136.724L39.1396 136.724L39.1396 132.804L36.0576 132.804L36.0576 136.724ZM25.1035 139.664L25.1035 143.114C25.1035 143.966 24.6614 144.756 23.9358 145.202L16.6926 149.65L15.0991 150.443L21.0154 150.443L24.5474 148.527C26.1089 147.681 27.9934 148.725 28.1543 150.443L29.1038 150.443L29.1038 139.664L25.1035 139.664ZM40.0581 143.114L40.0581 139.664L36.0579 139.664L36.0579 150.443L37.0073 150.443C37.168 148.725 39.0525 147.681 40.614 148.527L44.146 150.443L50.0623 150.443L48.4688 149.65L41.2258 145.202C40.5002 144.756 40.0581 143.966 40.0581 143.114Z" fill-rule="evenodd" fill="#000000"/>
</svg>
