<svg width="98.640137" height="153.538025" viewBox="0 0 98.6401 153.538" fill="none" xmlns="http://www.w3.org/2000/svg" xmlns:xlink="http://www.w3.org/1999/xlink">
	<desc>
			Created with Pixso.
	</desc>
	<defs/>
	<path id="Tired" d="M23.1973 1.54773C23.1973 0.692993 23.8901 0.00012207 24.7449 0.00012207L28.7476 0.00012207C30.3354 0.00012207 31.3318 1.28961 31.3318 2.60614C31.3318 3.37 30.9963 4.14288 30.2468 4.67841L29.5742 5.15887L31.967 5.15887C32.8218 5.15887 33.5146 5.85175 33.5146 6.70648C33.5146 7.56122 32.8218 8.25409 31.967 8.25409L27.9644 8.25409C26.3765 8.25409 25.3801 6.9646 25.3801 5.64807C25.3801 4.88422 25.7153 4.11133 26.4651 3.57581L27.1377 3.09534L24.7449 3.09534C23.8901 3.09534 23.1973 2.40247 23.1973 1.54773ZM12.8796 8.77002C12.8796 7.91528 13.5725 7.22241 14.4272 7.22241L20.3213 7.22241C21.8953 7.22241 22.9058 8.50525 22.9058 9.82544C22.9058 10.5349 22.614 11.2551 21.9609 11.7928L18.741 14.4446L23.1973 14.4446C24.0518 14.4446 24.7449 15.1375 24.7449 15.9922C24.7449 16.8469 24.0518 17.5399 23.1973 17.5399L17.3032 17.5399C15.729 17.5399 14.7188 16.257 14.7188 14.9368C14.7188 14.2274 15.0105 13.5071 15.6633 12.9694L18.8833 10.3176L14.4272 10.3176C13.5725 10.3176 12.8796 9.62476 12.8796 8.77002ZM23.0142 28.8883L23.0142 28.888L22.9941 28.8679L23.0005 28.8616L23.0059 28.8564L23.0144 28.8479C23.0913 20.5727 28.4878 12.6807 36.9392 9.49432L40.8118 8.03436C43.521 7.01288 46.4375 8.14716 47.6997 10.5984C53.9333 9.00562 60.5083 12.0533 62.7722 18.0585L65.5022 25.2991C65.5081 25.3147 65.5137 25.3304 65.519 25.346C65.7952 26.0883 66.0383 26.8177 66.2488 27.535C66.293 27.5596 66.3367 27.5866 66.3792 27.616L66.3281 27.6899C66.3789 27.6166 66.3794 27.6162 66.3794 27.6162L66.4221 27.6458L66.4773 27.6842L66.5425 27.7298C66.6477 27.8032 66.8013 27.9107 66.9966 28.0486C67.3877 28.3243 67.9465 28.7216 68.6216 29.2098C69.97 30.1852 71.7866 31.5269 73.6516 32.988C75.5117 34.4455 77.4431 36.0394 79.011 37.5171C79.7944 38.2554 80.5071 38.9835 81.0811 39.6655C81.6345 40.3234 82.1438 41.0367 82.4175 41.7409C82.6973 42.4607 82.8093 43.2119 82.8093 43.9571C82.8093 45.0349 82.5747 46.1 82.2729 47.0389C81.8181 48.455 81.1421 49.7929 80.5449 50.8278C82.0872 51.0524 84.1526 51.4622 86.103 52.2049C88.2275 53.0139 90.5435 54.3408 91.6482 56.5762C92.1934 57.6797 92.3938 58.9081 92.3938 60.128C92.3938 61.2378 92.228 62.3407 92.0051 63.3363C91.5725 65.2702 90.8599 67.0754 90.323 68.281C91.4724 68.7629 93.0942 69.5318 94.5847 70.5645C96.1958 71.6808 97.9526 73.3089 98.4719 75.4719C98.5874 75.9534 98.6401 76.4342 98.6401 76.9108C98.6401 78.4867 98.064 80.017 97.2822 81.3776C96.2539 83.1675 94.7534 84.8701 93.2285 86.3427C90.1729 89.2939 86.7739 91.5532 86.0706 92.0105C85.8364 92.1626 85.5972 92.2626 85.3596 92.3274L80.9746 93.5233L80.9746 101.234C80.9746 102.658 79.8198 103.813 78.3953 103.813L75.7812 103.813C75.7891 103.989 75.7964 104.182 75.8022 104.387C75.8105 104.669 75.8164 104.983 75.8164 105.31C75.8164 105.958 75.7935 106.658 75.72 107.266C75.5291 108.85 74.8684 110.836 74.5264 111.801C74.1572 112.841 73.1763 113.493 72.1187 113.493L70.1416 113.493C69.9651 113.493 69.7925 113.475 69.626 113.441L69.626 129.485C69.626 130.909 68.4709 132.064 67.0466 132.064L65.8413 132.064L65.8413 138.562L65.8413 138.578L65.8413 150.959C65.8413 152.383 64.6865 153.538 63.262 153.538L61.3381 153.538C60.1179 153.538 59.0955 152.69 58.8274 151.552L55.8357 153.214C55.4526 153.426 55.0215 153.538 54.5833 153.538L45.8618 153.538C44.6414 153.538 43.6189 152.69 43.3508 151.552L40.3591 153.214C39.9761 153.426 39.5449 153.538 39.1067 153.538L31.2773 153.538C29.853 153.538 28.698 152.383 28.698 150.959L28.698 150.703C28.698 149.734 29.2422 148.846 30.1062 148.405L33.0481 146.906L40.1348 142.449L40.1348 138.578C40.1348 137.774 40.5024 137.056 41.0791 136.583L41.0791 132.064L34.0308 132.064C32.6062 132.064 31.4514 130.909 31.4514 129.485L31.4514 114.008C31.0203 114.332 30.4841 114.524 29.9033 114.524L27.9265 114.524C26.8689 114.524 25.8879 113.873 25.5188 112.833C25.1768 111.868 24.5161 109.882 24.3252 108.298C24.2517 107.69 24.2288 106.99 24.2288 106.341C24.2288 106.015 24.2346 105.701 24.2427 105.419C24.2527 105.076 24.2666 104.765 24.2795 104.516L23.7131 104.516C22.2886 104.516 21.1338 103.361 21.1338 101.937L21.1338 96.3823L15.9331 95.9348C15.6877 95.9137 15.4343 95.8583 15.177 95.7506C14.4028 95.427 10.6538 93.8141 7.11792 91.4592C5.35376 90.2841 3.57202 88.8784 2.23901 87.3021C0.988525 85.8233 0 84.0339 0 82.0385C0 81.9282 0.00292969 81.8173 0.00927734 81.7057C0.13208 79.4846 1.56812 77.5677 2.95264 76.1804C4.23364 74.8971 5.69116 73.8497 6.7356 73.1693C5.99097 72.0797 4.96606 70.4315 4.19336 68.6067C3.59131 67.1849 3.07373 65.4982 3.07373 63.8207C3.07373 63.1712 3.15112 62.5231 3.33154 61.8922C4.01733 59.4949 6.05762 57.7739 8.00244 56.5969C9.78784 55.5162 11.7463 54.7426 13.2231 54.2449C12.45 53.3339 11.5449 52.139 10.8433 50.8275C10.2068 49.6378 9.65137 48.1932 9.65137 46.7028C9.65137 46.3506 9.68237 45.996 9.75049 45.6415C9.89331 44.8996 10.2664 44.1065 10.6929 43.3599C11.135 42.5859 11.7056 41.7418 12.3438 40.8749C13.6211 39.1398 15.2351 37.2253 16.8037 35.4577C18.3762 33.6857 19.9224 32.0397 21.0742 30.8382C21.6504 30.2369 22.1292 29.7457 22.4641 29.4043C22.6318 29.2336 22.7634 29.1002 22.8538 29.0092L22.9089 28.9536L22.9573 28.905L22.9939 28.8682L22.9956 28.8699C22.9978 28.8721 23.0029 28.877 23.0142 28.8883ZM26.115 29.0371C26.115 30.9335 26.446 32.8431 27.1423 34.6895L28.656 38.7048C29.6846 36.4007 30.5068 33.8208 31.1436 31.389C32.0652 27.8682 32.5671 24.7784 32.751 23.5294C32.8879 22.598 33.5161 21.8114 34.4033 21.4769L34.884 21.2956C35.4814 21.0704 36.1467 21.0634 36.7688 21.3179C38.1565 21.8856 43.3779 23.9658 49.1995 25.5878C52.1113 26.3992 55.1367 27.0854 57.8865 27.4165C59.8457 27.6524 61.5808 27.6967 63.0022 27.5193C62.8696 27.117 62.7253 26.7089 62.5691 26.2947L62.5696 26.2946L59.876 19.1505C58.1716 14.6299 53.0181 12.2134 48.0317 13.7182C46.8818 14.0652 45.5349 13.5266 45.0632 12.2755C44.6091 11.071 43.2671 10.4165 41.9036 10.9305L38.0312 12.3905C30.6584 15.1703 26.115 22.0132 26.115 29.0371ZM63.8057 30.5317C61.8958 30.8274 59.7202 30.7549 57.5166 30.4896C54.5532 30.1328 51.3625 29.4037 48.3687 28.5695C42.6218 26.9683 37.4656 24.9413 35.7908 24.2617L35.77 24.2696C35.5481 25.7262 35.0339 28.7499 34.1379 32.1728C33.2717 35.4816 32.0234 39.2646 30.2817 42.3726C32.3162 46.1693 34.9287 48.5807 38.05 50.0487C42.0376 51.9241 47.0505 52.3534 53.1748 51.8239C57.8745 48.2752 61.2363 44.6929 62.9353 40.6749C63.7524 38.7424 64.2034 36.6641 64.2034 34.3773C64.2034 33.1579 64.0752 31.8792 63.8057 30.5317ZM56.7864 33.4068C56.7864 34.0663 56.3613 34.6776 55.6985 34.884C54.8823 35.1381 54.0149 34.6826 53.7607 33.8665C53.7131 33.7133 53.6904 33.5583 53.6904 33.4059C53.6904 32.7463 54.1152 32.1351 54.7783 31.9287C55.5942 31.6746 56.4619 32.1301 56.7161 32.9462C56.7637 33.0994 56.7864 33.2544 56.7864 33.4068ZM65.5789 42.3532C67.061 42.2349 69.1575 42.2941 71.9856 42.8463C75.0657 43.4476 77.1482 45.4759 78.5076 48.0787C78.8184 47.4483 79.1077 46.772 79.3262 46.092C79.5845 45.2881 79.7139 44.5704 79.7139 43.9592C79.7139 43.5416 79.6536 43.1738 79.5325 42.8621C79.4463 42.6404 79.2021 42.2401 78.7124 41.6582C78.2432 41.1004 77.623 40.4623 76.8882 39.7695C75.4192 38.3852 73.5715 36.8574 71.7427 35.4246C70.0759 34.1189 68.4438 32.9067 67.1614 31.9744C67.2534 32.7932 67.2988 33.5955 67.2988 34.3822C67.2988 37.0474 66.7783 39.5339 65.7861 41.8804C65.719 42.0389 65.6499 42.1965 65.5789 42.3532ZM52.7537 34.8818C54.4285 35.4802 55.365 35.5054 56.0505 35.2505C56.7622 34.9861 57.4448 34.3361 58.4038 32.9581C58.7292 32.4904 59.3723 32.3751 59.8398 32.7006C60.1282 32.901 60.2825 33.222 60.2825 33.5483C60.2825 33.7517 60.2224 33.9572 60.0977 34.1367C59.1104 35.5556 58.1194 36.6831 56.7695 37.1848C55.3938 37.6961 53.8811 37.4758 52.0593 36.825C51.6375 36.6742 51.3745 36.277 51.3745 35.8533C51.3745 35.7381 51.3938 35.6209 51.4348 35.5062C51.6265 34.9696 52.217 34.6901 52.7537 34.8818ZM27.5217 44.4701L25.9475 40.2946C25.926 40.2386 25.9048 40.1824 25.8835 40.126L25.884 40.1258L24.2461 35.7814C23.8848 34.8231 23.6057 33.8534 23.4053 32.8793L23.3086 32.98C22.1743 34.1635 20.6567 35.779 19.1187 37.5122C17.5767 39.2499 16.033 41.0845 14.8364 42.7099C14.2375 43.5233 13.7422 44.2623 13.3806 44.8953C13.0034 45.5556 12.835 45.9932 12.7898 46.2267C12.7612 46.3762 12.7468 46.5349 12.7468 46.7021C12.7468 47.4401 13.0259 48.3457 13.5723 49.3672C14.2214 50.5802 15.127 51.7327 15.885 52.5908C16.3423 53.1085 16.5562 53.7481 16.5562 54.3833C16.5562 55.5205 15.8708 56.6436 14.6704 57.0273C13.2615 57.4778 11.3064 58.2153 9.60498 59.2449C7.85107 60.3065 6.66309 61.5005 6.30762 62.7433C6.21362 63.0719 6.1687 63.4333 6.1687 63.8217C6.1687 64.8586 6.48804 66.088 7.0437 67.3998C7.78223 69.1441 8.81665 70.7532 9.50781 71.7355C9.83716 72.2036 9.99341 72.7405 9.99341 73.2723C9.99341 74.1691 9.54883 75.051 8.73926 75.5613C7.77881 76.1669 6.34302 77.1652 5.14355 78.3669C3.896 79.6168 3.15723 80.8358 3.09961 81.8765C3.09692 81.9283 3.09546 81.9806 3.09546 82.0332C3.09546 82.9965 3.57715 84.0908 4.60254 85.3034C5.67065 86.5664 7.18628 87.7856 8.83374 88.8831C12.0049 90.9951 15.4041 92.4866 16.2837 92.8583L21.1338 93.2756L21.1338 61.905C21.1338 57.804 21.7256 54.0048 23.1938 51.0248C24.3906 48.5955 26.1816 46.7015 28.6497 45.6882C28.584 45.5875 28.5188 45.4858 28.4543 45.3833C28.0393 45.2365 27.6892 44.9143 27.5217 44.4701ZM40.0684 38.7745C40.1162 38.9277 40.1389 39.0828 40.1389 39.2352C40.1389 39.8947 39.7139 40.5059 39.051 40.7123C38.2349 40.9664 37.3674 40.5109 37.1133 39.6948C37.0654 39.5416 37.0427 39.3867 37.0427 39.2343C37.0427 38.5746 37.4678 37.9635 38.1306 37.7571C38.9468 37.5029 39.8145 37.9585 40.0684 38.7745ZM36.2456 41.1408C37.9204 41.7393 38.8569 41.7645 39.5425 41.5096C40.2542 41.2452 40.937 40.5952 41.8958 39.2172C42.2212 38.7495 42.8643 38.6342 43.3318 38.9596C43.6201 39.1601 43.7744 39.4811 43.7744 39.8074C43.7744 40.0108 43.7144 40.2162 43.5896 40.3958C42.6023 41.8147 41.6113 42.9422 40.2615 43.4438C38.8857 43.9552 37.373 43.7349 35.5513 43.084C35.1294 42.9333 34.8665 42.5361 34.8665 42.1124C34.8665 41.9972 34.8857 41.88 34.9268 41.7653C35.1184 41.2287 35.709 40.9491 36.2456 41.1408ZM53.3901 44.4401C53.3901 44.9647 53.0852 45.4647 52.574 45.6884L47.1272 48.0714C46.4382 48.3729 45.6353 48.0587 45.3337 47.3697C45.2561 47.1921 45.2192 47.0068 45.2192 46.8246C45.2192 46.3 45.5242 45.8001 46.0356 45.5764L51.4824 43.1933C52.1714 42.8918 52.9741 43.2061 53.2756 43.895C53.3533 44.0727 53.3901 44.2579 53.3901 44.4401ZM30.6206 48.2792C28.5254 48.8658 27.0164 50.2693 25.9702 52.3928C24.7957 54.777 24.229 58.043 24.229 61.905L24.229 101.421L31.4514 101.421L31.4514 100.552C31.4514 100.271 31.5264 100.007 31.6572 99.7798L31.6572 78.516C31.6572 75.0311 30.8833 71.5623 29.2498 68.3914L29.2324 68.3577L28.7009 67.1881C28.6064 66.9805 28.5618 66.7628 28.5618 66.5486C28.5618 65.9604 28.8989 65.3981 29.4692 65.1389C30.2473 64.7852 31.165 65.1292 31.5186 65.9073L32.019 67.0082C33.8813 70.6375 34.7524 74.5847 34.7524 78.516L34.7524 98.3255L66.7368 98.3255L66.7368 78.516C66.7368 74.5847 67.6079 70.6375 69.4702 67.0082L69.9707 65.9073C70.3245 65.1292 71.2419 64.7852 72.02 65.1389C72.5903 65.3981 72.9275 65.9604 72.9275 66.5486C72.9275 66.7628 72.8828 66.9805 72.7886 67.1881L72.2568 68.3577L72.2395 68.3914C70.606 71.5623 69.832 75.0311 69.832 78.516L69.832 100.596L70.6575 100.596L70.6575 100.718L77.8794 100.718L77.8794 92.3649C77.8794 92.3567 77.8792 92.3484 77.8792 92.3402C77.8792 92.332 77.8794 92.3237 77.8794 92.3155L77.8794 61.2021C77.8794 57.3049 77.4343 53.6046 76.3418 50.7927C75.2563 47.9991 73.6443 46.3238 71.3923 45.8842C68.5566 45.3304 66.6509 45.3432 65.5044 45.4689C64.9309 45.5318 64.5447 45.6232 64.3237 45.6877C64.2131 45.72 64.1436 45.7458 64.1118 45.7582C64.1045 45.7611 64.0991 45.7632 64.0959 45.7646C63.9148 45.8502 63.7253 45.8976 63.5364 45.9099C61.3779 48.996 58.405 51.7659 54.9143 54.3887C54.5317 54.6761 54.073 54.8517 53.5974 54.8939C47.1882 55.4626 41.48 55.0823 36.7327 52.8496C34.4202 51.7621 32.3818 50.2573 30.6206 48.2792ZM80.3892 53.9344C80.8079 56.2527 80.9746 58.7408 80.9746 61.2021L80.9746 90.315L84.4626 89.3637C85.2612 88.8402 88.3376 86.763 91.0784 84.1162C92.5024 82.741 93.7744 81.2696 94.5986 79.8354C95.24 78.7193 95.5437 77.7437 95.5437 76.9094C95.5437 76.6583 95.5164 76.42 95.4622 76.1945C95.2188 75.181 94.2734 74.1144 92.8218 73.1086C91.426 72.1416 89.8345 71.4171 88.781 70.9938C87.7334 70.5728 87.0925 69.552 87.0925 68.4838C87.0925 68.1098 87.1711 67.7299 87.3384 67.368C87.842 66.2775 88.571 64.509 88.9846 62.6604C89.188 61.7512 89.2986 60.8948 89.2986 60.1257C89.2986 59.2784 89.1646 58.5369 88.8733 57.9474C88.3005 56.7886 86.9175 55.8271 85.0015 55.0975C83.449 54.5063 81.7588 54.1475 80.3892 53.9344ZM66.5308 101.421L34.5466 101.421L34.5466 128.969L66.5308 128.969L66.5308 101.421ZM72.6829 103.813L70.6575 103.813L70.6575 110.397L71.7375 110.397C72.0767 109.405 72.5188 107.96 72.647 106.896C72.7014 106.445 72.7209 105.88 72.7209 105.311C72.7209 105.029 72.7163 104.747 72.7085 104.477C72.7014 104.234 72.6921 104.009 72.6829 103.813ZM29.3875 104.516L27.3794 104.516C27.3652 104.766 27.3481 105.114 27.3367 105.508C27.3289 105.778 27.324 106.061 27.324 106.343C27.324 106.912 27.3438 107.477 27.3979 107.927C27.5264 108.991 27.9685 110.436 28.3076 111.429L29.3875 111.429L29.3875 104.516ZM47.2695 135.998L47.2695 132.064L44.1743 132.064L44.1743 135.998L47.2695 135.998ZM56.5554 132.064L50.3647 132.064L50.3647 145.749L55.6111 142.449L55.6111 138.578C55.6111 137.774 55.979 137.056 56.5554 136.583L56.5554 132.064ZM62.7458 135.998L62.7458 132.064L59.6506 132.064L59.6506 135.998L62.7458 135.998ZM43.23 139.094L43.23 142.734C43.23 143.62 42.7744 144.445 42.0239 144.917L34.5781 149.6L32.9248 150.443L38.9731 150.443L42.5459 148.458C43.4697 147.945 44.5068 148.067 45.269 148.594C45.3682 148.524 45.4729 148.461 45.5828 148.405L47.2695 147.546L47.2695 139.094L43.23 139.094ZM62.7461 150.443L62.7458 139.094L58.7065 139.094L58.7065 142.734C58.7065 143.62 58.251 144.445 57.5002 144.917L50.3647 149.405L50.3647 150.443L54.4497 150.443L58.0225 148.458C59.6614 147.548 61.6577 148.635 61.8406 150.443L62.7461 150.443Z" fill-rule="evenodd" fill="#000000"/>
</svg>
