<svg width="83.831787" height="153.281616" viewBox="0 0 83.8318 153.282" fill="none" xmlns="http://www.w3.org/2000/svg" xmlns:xlink="http://www.w3.org/1999/xlink">
	<desc>
			Created with Pixso.
	</desc>
	<defs/>
	<path id="Sun on screen" d="M45.1938 11.999C45.5281 5.48767 50.0566 0 56.5283 0C63.0112 0 67.5447 5.5072 67.8643 12.0338C67.8784 12.0428 67.8921 12.0521 67.906 12.0616Q67.9685 12.1052 68.0308 12.1492C68.0518 12.1641 68.0723 12.1793 68.092 12.1949C68.1135 12.2086 68.1345 12.223 68.1553 12.2379C68.1968 12.2677 68.238 12.2976 68.2793 12.3276C68.3 12.3428 68.3201 12.3583 68.3398 12.3744C68.3608 12.3883 68.3818 12.403 68.4023 12.4183C68.4434 12.4486 68.4841 12.4791 68.5247 12.5099C68.5452 12.5253 68.5649 12.5411 68.5845 12.5575C68.6052 12.5718 68.626 12.5867 68.6462 12.6023C68.6865 12.6333 68.7268 12.6644 68.7668 12.6957C68.7871 12.7114 68.8069 12.7277 68.8259 12.7443C68.8467 12.7589 68.8672 12.7743 68.8872 12.7902C68.9272 12.8219 68.967 12.8536 69.0068 12.8856C69.0266 12.9017 69.0461 12.9182 69.0649 12.9352C69.0854 12.9502 69.1057 12.9658 69.1255 12.9821C69.165 13.0143 69.2043 13.0468 69.2434 13.0793C69.2632 13.0957 69.2822 13.1125 69.3008 13.1296C69.321 13.145 69.3408 13.1609 69.3606 13.1775C69.3994 13.2103 69.4382 13.2433 69.4768 13.2765C69.4963 13.2932 69.5151 13.3103 69.5334 13.3279C69.5535 13.3435 69.5732 13.3597 69.5925 13.3766C69.6309 13.4102 69.6692 13.4438 69.7075 13.4777C69.7266 13.4948 69.7454 13.5121 69.7634 13.5299C69.783 13.5459 69.8025 13.5625 69.8215 13.5796C69.8594 13.6138 69.8972 13.6481 69.9348 13.6825C69.9536 13.6997 69.9719 13.7174 69.9897 13.7356C69.9988 13.7432 70.0081 13.751 70.0168 13.7588C70.0208 13.7621 70.0244 13.7654 70.0281 13.7687C70.0344 13.7744 70.0408 13.7803 70.0471 13.7861C70.0845 13.8208 70.1216 13.8556 70.1587 13.8906C70.1772 13.9083 70.1953 13.9263 70.2129 13.9447C70.2319 13.9613 70.251 13.9784 70.2695 13.9962C70.3062 14.0316 70.343 14.067 70.3794 14.1027C70.3979 14.1206 70.4155 14.1389 70.4329 14.1576C70.4517 14.1744 70.4705 14.192 70.4885 14.2101C70.5249 14.246 70.561 14.282 70.5969 14.3182C70.615 14.3364 70.6323 14.355 70.6494 14.3739C70.668 14.3911 70.6863 14.4088 70.7041 14.4272C70.7397 14.4636 70.7754 14.5002 70.8105 14.537C70.8284 14.5555 70.8457 14.5745 70.8623 14.5936C70.8806 14.6112 70.8987 14.6293 70.9163 14.6479C70.9514 14.6851 70.9863 14.7223 71.0212 14.7596C71.0388 14.7784 71.0557 14.7976 71.0718 14.817C71.0901 14.8348 71.1077 14.8531 71.125 14.8722C71.1597 14.9098 71.1938 14.9475 71.228 14.9855C71.2454 15.0045 71.2617 15.0239 71.2778 15.0437C71.2957 15.0618 71.313 15.0804 71.3301 15.0996C71.364 15.1378 71.3977 15.1761 71.4312 15.2145C71.448 15.2339 71.4644 15.2537 71.48 15.2737C71.4976 15.292 71.5146 15.3109 71.5315 15.3304C71.5647 15.3693 71.5979 15.4082 71.6309 15.4471C71.6475 15.4668 71.6633 15.4868 71.6787 15.5071C71.6958 15.5258 71.7126 15.5449 71.7292 15.5647C71.7617 15.604 71.7942 15.6434 71.8267 15.683C71.8428 15.7029 71.8584 15.7231 71.8735 15.7437C71.8904 15.7626 71.907 15.782 71.9231 15.8021C71.9551 15.8419 71.9868 15.8818 72.0186 15.9219C72.0344 15.9421 72.0498 15.9626 72.0645 15.9834C72.0811 16.0026 72.0972 16.0223 72.113 16.0427C72.1443 16.083 72.1755 16.1235 72.2065 16.1642C72.2222 16.1847 72.2371 16.2054 72.2515 16.2264C72.2678 16.2458 72.2837 16.2659 72.2991 16.2865C72.3298 16.3274 72.3604 16.3684 72.3906 16.4095C72.406 16.4302 72.4207 16.4512 72.4346 16.4724C72.4504 16.4922 72.4661 16.5125 72.4812 16.5333C72.5112 16.5747 72.541 16.6162 72.5708 16.6578C72.5857 16.6788 72.5999 16.7001 72.6135 16.7214C72.6292 16.7416 72.6445 16.7621 72.6592 16.7832C72.6885 16.8251 72.7178 16.8671 72.7468 16.9093C72.7612 16.9304 72.7751 16.9519 72.7886 16.9736C72.804 16.9939 72.8188 17.0148 72.8333 17.0361C72.8452 17.0541 72.8574 17.072 72.8694 17.09C72.886 17.1145 72.9023 17.139 72.9185 17.1636C72.9329 17.1851 72.9463 17.2068 72.9592 17.2286C72.9744 17.2493 72.9888 17.2703 73.0029 17.2919C73.0308 17.3347 73.0586 17.3777 73.0862 17.4208C73.1001 17.4425 73.1133 17.4645 73.1257 17.4866C73.1404 17.5073 73.1548 17.5287 73.1685 17.5505C73.1956 17.5939 73.2227 17.6373 73.2495 17.6809C73.2629 17.7028 73.2759 17.725 73.2881 17.7473C73.3025 17.7683 73.3162 17.7899 73.3296 17.812C73.356 17.8558 73.3823 17.8997 73.4084 17.9437C73.4119 17.9492 73.415 17.9548 73.4182 17.9603C73.428 17.9771 73.437 17.9939 73.446 18.0109C73.46 18.0321 73.4734 18.054 73.4863 18.0762C73.5122 18.1205 73.5378 18.1648 73.5632 18.2092C73.5759 18.2317 73.5881 18.2543 73.5994 18.277C73.613 18.2986 73.6262 18.3206 73.6387 18.343C73.6638 18.3877 73.6887 18.4325 73.7134 18.4774C73.7256 18.5 73.7373 18.5228 73.7485 18.5458C73.7617 18.5675 73.7744 18.5898 73.7866 18.6125C73.811 18.6576 73.835 18.7029 73.8589 18.7483C73.8708 18.7711 73.8823 18.7941 73.8928 18.8173C73.9058 18.8392 73.9182 18.8617 73.9299 18.8846C73.9536 18.9302 73.9768 18.9758 74 19.0216C74.0115 19.0446 74.0225 19.0677 74.0327 19.0911C74.0452 19.1133 74.0571 19.136 74.0686 19.1591C74.0913 19.205 74.114 19.251 74.1362 19.2972C74.1475 19.3204 74.158 19.3438 74.168 19.3673C74.1802 19.3898 74.1917 19.4126 74.2026 19.4359C74.2246 19.4823 74.2463 19.5287 74.2681 19.5753C74.2788 19.5988 74.2891 19.6223 74.2983 19.646C74.3103 19.6687 74.3215 19.6918 74.332 19.7153C74.3533 19.762 74.3743 19.8088 74.395 19.8557C74.4053 19.8793 74.415 19.9031 74.4241 19.9269C74.4355 19.9497 74.4463 19.973 74.4565 19.9967C74.4768 20.0437 74.4971 20.0909 74.5168 20.1382C74.5271 20.162 74.5364 20.1859 74.5449 20.2098C74.5559 20.2329 74.5664 20.2563 74.5762 20.2803C74.5957 20.3278 74.615 20.3752 74.6343 20.423C74.6438 20.4469 74.6528 20.4711 74.6611 20.4952C74.6716 20.5184 74.6816 20.5421 74.6909 20.5662C74.7097 20.614 74.7283 20.6619 74.7466 20.7097C74.7559 20.7339 74.7642 20.7581 74.772 20.7823C74.7822 20.8058 74.7917 20.8296 74.8008 20.8538C74.8186 20.9019 74.8364 20.9501 74.8538 20.9983C74.8625 21.0226 74.8706 21.047 74.8782 21.0714C74.8879 21.0951 74.897 21.119 74.9055 21.1434C74.9226 21.1919 74.9395 21.2404 74.9561 21.2891C74.9646 21.3135 74.9722 21.338 74.9792 21.3627C74.9841 21.3755 74.989 21.3884 74.9937 21.4014C74.9954 21.4059 74.9971 21.4104 74.9985 21.415C75.001 21.4218 75.0032 21.4285 75.0054 21.4352C75.0217 21.4839 75.0376 21.5326 75.0535 21.5815C75.0613 21.6061 75.0686 21.6307 75.0752 21.6554C75.084 21.6793 75.0923 21.7035 75.1001 21.7281C75.1155 21.7772 75.1306 21.8263 75.1455 21.8754C75.1531 21.9001 75.1597 21.9249 75.1658 21.9497C75.1743 21.9739 75.1824 21.9983 75.1897 22.0231C75.1941 22.0387 75.1987 22.0543 75.2034 22.0698L75.2119 22.0992C75.2188 22.1233 75.2256 22.1472 75.2324 22.1713C75.2395 22.1962 75.2458 22.2212 75.2517 22.2461C75.2598 22.2704 75.2673 22.295 75.2742 22.3199C75.2876 22.3694 75.301 22.4189 75.3142 22.4686C75.3208 22.4935 75.3269 22.5186 75.332 22.5435C75.3396 22.5679 75.3467 22.5925 75.3533 22.6176C75.366 22.6672 75.3784 22.717 75.3909 22.767C75.397 22.7921 75.4023 22.8173 75.4072 22.8423C75.4146 22.8668 75.4211 22.8917 75.427 22.9169C75.439 22.9669 75.4507 23.017 75.4622 23.0673C75.4678 23.0925 75.4729 23.1177 75.4773 23.1429C75.4841 23.1677 75.4902 23.1926 75.4958 23.218C75.5068 23.2681 75.5176 23.3182 75.5281 23.3685C75.5334 23.3938 75.5381 23.4191 75.542 23.4442C75.5483 23.469 75.554 23.494 75.5591 23.5193C75.5691 23.5697 75.5791 23.62 75.5886 23.6705C75.5935 23.6959 75.5977 23.7213 75.6011 23.7467C75.6072 23.7715 75.6123 23.7968 75.6169 23.8221C75.6262 23.8728 75.6353 23.9235 75.644 23.9742C75.6484 23.9998 75.6521 24.0253 75.6553 24.0508C75.6606 24.0758 75.6655 24.1011 75.6697 24.1267C75.678 24.1772 75.6863 24.2279 75.6941 24.2787C75.698 24.3042 75.7012 24.3296 75.7039 24.355C75.7087 24.38 75.7131 24.4053 75.717 24.4308C75.7244 24.4816 75.7314 24.5325 75.7385 24.5834C75.7419 24.609 75.7449 24.6346 75.7471 24.66C75.749 24.6715 75.751 24.6829 75.7529 24.6943C75.7549 24.7083 75.7571 24.7223 75.7588 24.7363C75.7654 24.7874 75.7717 24.8385 75.7778 24.8896C75.7808 24.9154 75.7832 24.941 75.7849 24.9667C75.7891 24.9919 75.7925 25.0175 75.7954 25.0432C75.801 25.0942 75.8064 25.1453 75.8115 25.1963C75.8142 25.2219 75.8159 25.2476 75.8171 25.2729C75.821 25.2982 75.824 25.3237 75.8264 25.3494C75.8311 25.4004 75.8354 25.4515 75.8398 25.5028C75.842 25.5286 75.8435 25.5542 75.8442 25.5797C75.8455 25.5894 75.8467 25.5989 75.8477 25.6085C75.8494 25.6244 75.8508 25.6404 75.8521 25.6565C75.8557 25.7078 75.8594 25.7592 75.8628 25.8105C75.8645 25.8364 75.8655 25.8622 75.8657 25.8879C75.8665 25.8933 75.8669 25.8988 75.8674 25.9042C75.8684 25.913 75.8691 25.9216 75.8699 25.9304C75.8708 25.9419 75.8716 25.9534 75.8723 25.965C75.8752 26.0161 75.8779 26.0674 75.8804 26.1187C75.8816 26.142 75.8821 26.1652 75.8821 26.1882L75.8821 26.1954C75.8843 26.2208 75.886 26.2463 75.887 26.2721C75.8892 26.3234 75.8909 26.3746 75.8926 26.4259C75.8928 26.4407 75.8931 26.4554 75.8931 26.4701C75.8931 26.4811 75.8931 26.4921 75.8928 26.5029C75.8948 26.5284 75.896 26.5541 75.8965 26.58C75.897 26.5959 75.8972 26.6119 75.8975 26.6281Q75.8984 26.6812 75.8992 26.7343C75.8994 26.7406 75.8994 26.7469 75.8994 26.7533C75.8994 26.7728 75.8989 26.7922 75.8982 26.8116C75.8989 26.8252 75.8997 26.8389 75.8999 26.8527Q75.9004 26.8707 75.9006 26.8889L75.9006 26.9183L75.9006 26.9664L75.9006 27.0374C75.9006 27.0503 75.9006 27.0631 75.9001 27.0758C75.9001 27.0811 75.8999 27.0863 75.8997 27.0916C75.8994 27.0972 75.8992 27.1028 75.8989 27.1083C75.9001 27.1318 75.9006 27.1555 75.9006 27.1793L75.9006 27.3212C75.9006 27.345 75.9001 27.3687 75.8989 27.3922C75.9001 27.4156 75.9006 27.4393 75.9006 27.4631L75.9006 27.6051C75.9006 27.6199 75.9006 27.6346 75.9001 27.6493C75.8999 27.6548 75.8997 27.6604 75.8994 27.6659C75.8994 27.6693 75.8992 27.6726 75.8989 27.676C75.9001 27.6996 75.9006 27.7233 75.9006 27.7469L75.9006 27.8889C75.9006 27.9127 75.9001 27.9364 75.8989 27.9598C75.9001 27.9834 75.9006 28.0071 75.9006 28.0309L75.9006 28.1727C75.9006 28.1965 75.9001 28.2202 75.8989 28.2438C75.9001 28.2672 75.9006 28.2909 75.9006 28.3147L75.9006 28.4567C75.9006 28.4674 75.9006 28.478 75.9004 28.4886C75.9001 28.5017 75.8997 28.5146 75.8989 28.5276C75.9001 28.5511 75.9006 28.5748 75.9006 28.5985L75.9006 28.7405C75.9006 28.7488 75.9006 28.757 75.9006 28.7651C75.9004 28.7806 75.8997 28.796 75.8989 28.8114C75.9001 28.835 75.9006 28.8586 75.9006 28.8824L75.9006 29.0243C75.9006 29.0481 75.9001 29.0718 75.8989 29.0953C75.9001 29.1188 75.9006 29.1425 75.9006 29.1663L75.9006 29.3082C75.9006 29.3163 75.9006 29.3243 75.9006 29.3324C75.9004 29.348 75.8997 29.3636 75.8989 29.3792C75.8997 29.3911 75.9001 29.4031 75.9004 29.4152C75.9006 29.4268 75.9006 29.4385 75.9006 29.4501L75.9006 29.592C75.9006 29.6158 75.9001 29.6395 75.8989 29.663C75.9001 29.6865 75.9006 29.7102 75.9006 29.734L75.9006 29.8759C75.9006 29.8997 75.9001 29.9233 75.8989 29.9469C75.9001 29.9703 75.9006 29.994 75.9006 30.0178L75.9006 30.1598C75.9006 30.1836 75.9001 30.2073 75.8989 30.2307C75.9001 30.2543 75.9006 30.278 75.9006 30.3016L75.9006 30.4436C75.9006 30.4534 75.9006 30.463 75.9004 30.4727C75.9001 30.4867 75.8997 30.5006 75.8989 30.5145C75.8999 30.5316 75.9004 30.5487 75.9006 30.5658L75.9006 30.5747L75.9006 30.5856L75.9006 30.7274C75.9006 30.7512 75.9001 30.7749 75.8989 30.7985C75.9001 30.8219 75.9006 30.8456 75.9006 30.8694L75.9006 31.0114C75.9006 31.0352 75.9001 31.0588 75.8989 31.0823C75.9001 31.1058 75.9006 31.1295 75.9006 31.1532L75.9006 31.2952C75.9006 31.319 75.9001 31.3427 75.8989 31.3661C75.9001 31.3896 75.9006 31.4133 75.9006 31.4371L75.9006 31.579C75.9006 31.6028 75.9001 31.6265 75.8989 31.65C75.9001 31.6735 75.9006 31.6971 75.9006 31.7209L75.9006 31.8629C75.9006 31.8867 75.9001 31.9104 75.8989 31.9338C75.9001 31.9574 75.9006 31.9811 75.9006 32.0048L75.9006 32.1467C75.9006 32.1705 75.9001 32.1942 75.8989 32.2177C75.9001 32.2412 75.9006 32.2649 75.9006 32.2887L75.9006 32.4305C75.9006 32.4543 75.9001 32.478 75.8989 32.5016C75.9001 32.525 75.9006 32.5487 75.9006 32.5725L75.9006 32.6433L75.925 32.6433C75.925 38.9004 74.1321 43.5613 70.8047 47.0582C70.386 47.498 69.9453 47.9171 69.4836 48.317C69.5232 48.4474 69.5444 48.5856 69.5444 48.7289L69.5444 53.4598C69.5444 53.4977 69.543 53.5353 69.54 53.5724C77.1492 57.9879 83.0417 66.0923 83.6797 75.4337C83.7769 75.626 83.8318 75.8433 83.8318 76.0734L83.8318 92.1584C83.8318 93.4648 82.7727 94.5238 81.4663 94.5238L74.7483 94.5238L74.7483 130.334C74.7483 130.582 74.71 130.821 74.6392 131.046L74.7485 131.046L74.7483 150.916C74.7483 152.223 73.6892 153.282 72.3828 153.282L70.6189 153.282C69.4995 153.282 68.562 152.504 68.3162 151.46L65.5725 152.984C65.2212 153.179 64.8259 153.282 64.4241 153.282L57.2441 153.282C56.4702 153.282 55.7832 152.91 55.3516 152.336C54.9202 152.91 54.2332 153.281 53.4592 153.281L51.6951 153.281C50.5759 153.281 49.6384 152.504 49.3926 151.46L46.6489 152.984C46.2976 153.179 45.9023 153.281 45.5005 153.281L38.3203 153.281C37.0139 153.281 35.9548 152.223 35.9548 150.916L35.9548 150.682C35.9548 149.793 36.4539 148.978 37.2463 148.574L39.9443 147.199L46.4431 143.112L46.4431 139.562C46.4431 138.825 46.7803 138.166 47.3091 137.732L47.3091 132.699L42.1052 132.699C40.7988 132.699 39.7397 131.64 39.7397 130.334L39.7397 86.1708C39.7397 85.3868 40.375 84.7515 41.1589 84.7515C41.9429 84.7515 42.5781 85.3868 42.5781 86.1708L42.5781 129.861L71.9097 129.861L71.9097 94.5238L61.4897 94.5238C60.9004 94.5238 60.3323 94.3038 59.8967 93.907L56.2188 90.5558C55.7268 90.1075 55.4463 89.4728 55.4463 88.8073L55.4463 86.2921C55.4463 84.9857 56.5054 83.9266 57.8118 83.9266L59.8286 83.9266C60.1265 83.0944 60.9336 82.4514 61.9624 82.5464C64.5518 82.7854 67.1636 84.1086 68.8987 86.1029L75.9785 86.1029C76.7625 86.1029 77.3977 86.7383 77.3977 87.5221C77.3977 88.3059 76.7625 88.9414 75.9785 88.9414L68.697 88.9414C67.9319 88.9414 67.2688 88.5746 66.8367 88.0591C65.7356 86.7454 64.0645 85.7948 62.3735 85.469C62.0496 86.231 61.2939 86.7651 60.4138 86.7651L58.2849 86.7651L58.2849 88.5983L61.6731 91.6853L80.9932 91.6853L80.9932 77.625C80.9321 77.4666 80.8987 77.2944 80.8987 77.1144C80.8987 68.6919 75.9866 61.0931 69.2224 56.7068C68.6333 58.7953 67.2815 60.6608 65.5376 62.0918C63.1641 64.0394 59.9517 65.2871 56.5393 65.2871C50.7095 65.2871 45.575 61.5696 44.3003 56.7307C41.0078 58.8297 38.2695 61.6844 36.3269 65.0504C35.9351 65.7292 35.0671 65.962 34.3882 65.5702C33.9329 65.3074 33.6782 64.8302 33.6782 64.3396C33.6782 64.0989 33.7395 63.855 33.8684 63.6316C36.2788 59.4551 39.7812 55.9878 44.0042 53.5979C43.9998 53.5525 43.9976 53.5063 43.9976 53.4598L43.9976 48.7289C43.9976 48.6863 43.9995 48.6442 44.0032 48.6025C43.4102 48.1217 42.8501 47.6123 42.325 47.0714C38.9751 43.6213 37.1833 39.0367 37.1328 32.9117C37.116 32.825 37.1074 32.7352 37.1074 32.6434L37.1074 32.5725C37.1074 32.5487 37.1079 32.525 37.1091 32.5016C37.1079 32.478 37.1074 32.4543 37.1074 32.4305L37.1074 32.2887C37.1074 32.2649 37.1079 32.2412 37.1091 32.2177C37.1079 32.1942 37.1074 32.1705 37.1074 32.1467L37.1074 32.0048C37.1074 31.9811 37.1079 31.9574 37.1091 31.9338C37.1079 31.9104 37.1074 31.8867 37.1074 31.8629L37.1074 31.7209C37.1074 31.6971 37.1079 31.6735 37.1091 31.65C37.1079 31.6265 37.1074 31.6028 37.1074 31.579L37.1074 31.4371C37.1074 31.4133 37.1079 31.3896 37.1091 31.3661C37.1079 31.3427 37.1074 31.319 37.1074 31.2952L37.1074 31.1532C37.1074 31.1295 37.1079 31.1058 37.1091 31.0823C37.1079 31.0588 37.1074 31.0352 37.1074 31.0114L37.1074 30.8694C37.1074 30.8456 37.1079 30.8219 37.1091 30.7985C37.1086 30.7872 37.1082 30.776 37.1079 30.7648C37.1077 30.7594 37.1077 30.754 37.1074 30.7485C37.1074 30.7416 37.1074 30.7345 37.1074 30.7274L37.1074 30.5856C37.1074 30.5618 37.1079 30.5381 37.1091 30.5145C37.1079 30.4911 37.1074 30.4674 37.1074 30.4436L37.1074 30.3016C37.1074 30.278 37.1079 30.2543 37.1091 30.2307C37.1079 30.2073 37.1074 30.1836 37.1074 30.1598L37.1074 30.0178C37.1074 29.994 37.1079 29.9703 37.1091 29.9469C37.1079 29.9233 37.1074 29.8997 37.1074 29.8759L37.1074 29.734C37.1074 29.7102 37.1079 29.6865 37.1091 29.663C37.1079 29.6395 37.1074 29.6158 37.1074 29.592L37.1074 29.4501C37.1074 29.4264 37.1079 29.4027 37.1091 29.3792C37.1079 29.3557 37.1074 29.332 37.1074 29.3082L37.1074 29.1663C37.1074 29.1425 37.1079 29.1188 37.1091 29.0953C37.1079 29.0718 37.1074 29.0481 37.1074 29.0243L37.1074 28.8824C37.1074 28.8586 37.1079 28.835 37.1091 28.8114C37.1079 28.788 37.1074 28.7643 37.1074 28.7405L37.1074 28.5985C37.1074 28.5748 37.1079 28.5511 37.1091 28.5276C37.1079 28.5042 37.1074 28.4805 37.1074 28.4567L37.1074 28.3147C37.1074 28.2909 37.1079 28.2672 37.1091 28.2438Q37.1086 28.2344 37.1084 28.225C37.1077 28.2076 37.1074 28.1902 37.1074 28.1727L37.1074 28.0309C37.1074 28.0071 37.1079 27.9834 37.1091 27.9598C37.1079 27.9364 37.1074 27.9127 37.1074 27.8889L37.1074 27.7469C37.1074 27.7233 37.1079 27.6996 37.1091 27.676C37.1079 27.6526 37.1074 27.6289 37.1074 27.6051L37.1074 27.4631C37.1074 27.4393 37.1079 27.4156 37.1091 27.3922C37.1079 27.3687 37.1074 27.345 37.1074 27.3212L37.1074 27.1793C37.1074 27.1555 37.1079 27.1318 37.1091 27.1083C37.1079 27.0848 37.1074 27.0612 37.1074 27.0374L37.1074 26.9664C37.1074 26.9406 37.1074 26.9148 37.1077 26.889C37.1077 26.863 37.1084 26.8373 37.1099 26.8116C37.1091 26.7924 37.1089 26.7729 37.1089 26.7534Q37.1089 26.7439 37.1089 26.7344C37.1096 26.6829 37.1106 26.6315 37.1116 26.5801C37.1118 26.5697 37.1121 26.5593 37.1125 26.5491C37.1133 26.5337 37.1143 26.5183 37.1152 26.5031C37.115 26.4922 37.115 26.4812 37.115 26.4702C37.115 26.4556 37.1152 26.4408 37.1157 26.426C37.1172 26.3746 37.1191 26.3234 37.1211 26.2722C37.1221 26.2465 37.1238 26.2208 37.126 26.1956L37.126 26.1881C37.126 26.1652 37.1267 26.142 37.1277 26.1188C37.1294 26.0851 37.1311 26.0515 37.1328 26.0181C37.1338 26.0004 37.1348 25.9827 37.1357 25.9651C37.1372 25.9391 37.1394 25.9135 37.1423 25.8879C37.1426 25.8623 37.1436 25.8365 37.1453 25.8107C37.1487 25.7593 37.1523 25.7079 37.156 25.6566C37.158 25.6307 37.1606 25.6052 37.1638 25.5798C37.1646 25.5543 37.166 25.5286 37.1682 25.5028C37.1726 25.4517 37.177 25.4005 37.1816 25.3494C37.1841 25.3237 37.1873 25.2982 37.1909 25.2731C37.1921 25.2476 37.1941 25.222 37.1965 25.1964C37.2017 25.1453 37.207 25.0942 37.2126 25.0433C37.2156 25.0176 37.219 24.9919 37.2234 24.9667C37.2249 24.9412 37.2273 24.9154 37.2305 24.8896C37.2366 24.8385 37.2427 24.7874 37.2493 24.7363C37.2527 24.7107 37.2566 24.6853 37.2612 24.6602C37.2632 24.6346 37.2661 24.6091 37.2695 24.5835C37.2766 24.5325 37.2837 24.4817 37.2913 24.4309C37.2949 24.4054 37.2993 24.38 37.3042 24.3551C37.3069 24.3297 37.3101 24.3042 37.314 24.2787C37.322 24.228 37.3301 24.1774 37.3384 24.1267C37.3425 24.1012 37.3474 24.0758 37.3528 24.0508C37.356 24.0254 37.3596 23.9999 37.364 23.9742C37.3728 23.9235 37.3818 23.8728 37.3911 23.8223C37.3958 23.7968 37.4011 23.7716 37.407 23.7467C37.4104 23.7213 37.4146 23.696 37.4194 23.6705C37.4292 23.6201 37.439 23.5697 37.449 23.5194C37.4541 23.494 37.46 23.469 37.4663 23.4443C37.4702 23.4191 37.4746 23.3938 37.48 23.3685C37.4905 23.3184 37.5012 23.2682 37.5122 23.218C37.5178 23.1927 37.5239 23.1677 37.5308 23.1431C37.5352 23.1178 37.5403 23.0925 37.5459 23.0673C37.5574 23.0171 37.5691 22.9669 37.5811 22.9169C37.5869 22.8917 37.5938 22.8669 37.6008 22.8424C37.6057 22.8173 37.6111 22.7921 37.6174 22.767C37.6296 22.7172 37.6421 22.6674 37.655 22.6176C37.6614 22.5925 37.6685 22.5679 37.676 22.5436C37.6814 22.5186 37.6873 22.4935 37.6938 22.4686C37.707 22.4191 37.7205 22.3695 37.7341 22.3201C37.741 22.295 37.7483 22.2704 37.7566 22.2461C37.7622 22.2212 37.7686 22.1963 37.7756 22.1713C37.7898 22.1218 37.804 22.0724 37.8186 22.0231C37.8257 21.9983 37.8337 21.9739 37.8423 21.9497C37.8484 21.9249 37.8552 21.9001 37.8625 21.8754C37.8777 21.8263 37.8926 21.7772 37.908 21.7283C37.9158 21.7036 37.9241 21.6793 37.9331 21.6554C37.9395 21.6307 37.9468 21.6061 37.9546 21.5815C37.9705 21.5327 37.9863 21.4839 38.0027 21.4352C38.0107 21.4106 38.0195 21.3865 38.0288 21.3627C38.0359 21.3381 38.0435 21.3136 38.052 21.2891C38.0686 21.2405 38.0854 21.1919 38.1025 21.1434C38.1111 21.119 38.1204 21.0951 38.1301 21.0714C38.1375 21.047 38.1455 21.0226 38.1543 20.9983C38.1719 20.9501 38.1895 20.9019 38.2073 20.8538C38.2163 20.8296 38.2258 20.8058 38.2361 20.7823C38.2439 20.7581 38.2524 20.7339 38.2615 20.7098C38.2798 20.6619 38.2983 20.614 38.3171 20.5663C38.3264 20.5421 38.3364 20.5184 38.3472 20.4952C38.3552 20.4711 38.3643 20.4469 38.3738 20.423C38.3931 20.3754 38.4124 20.3278 38.4319 20.2803C38.4417 20.2565 38.4521 20.2329 38.4631 20.2098C38.4717 20.1859 38.4812 20.162 38.4912 20.1382C38.511 20.0909 38.5312 20.0437 38.5515 19.9967C38.5618 19.973 38.5725 19.9497 38.584 19.9269C38.593 19.9031 38.6028 19.8793 38.6133 19.8557C38.634 19.8088 38.6548 19.762 38.676 19.7153C38.6868 19.6918 38.698 19.6687 38.7097 19.646C38.7192 19.6223 38.7292 19.5988 38.7402 19.5753C38.7617 19.5288 38.7834 19.4823 38.8054 19.4359C38.8164 19.4126 38.8281 19.3898 38.8401 19.3673C38.8501 19.3438 38.8606 19.3204 38.8718 19.2972C38.8943 19.2511 38.9167 19.205 38.9395 19.1591C38.9509 19.136 38.9629 19.1133 38.9753 19.0911C38.9856 19.0677 38.9966 19.0446 39.0083 19.0216C39.0312 18.9758 39.0547 18.9302 39.0781 18.8846C39.0898 18.8617 39.1023 18.8392 39.1152 18.8173C39.126 18.7941 39.1372 18.7711 39.1492 18.7483C39.1731 18.7029 39.1973 18.6577 39.2214 18.6125C39.2336 18.5898 39.2463 18.5676 39.2598 18.5458C39.2708 18.5228 39.2825 18.5001 39.2949 18.4774C39.3196 18.4325 39.3442 18.3877 39.3694 18.343C39.3818 18.3206 39.395 18.2986 39.4087 18.277C39.4202 18.2543 39.4321 18.2317 39.4451 18.2094C39.4705 18.1648 39.4958 18.1205 39.5217 18.0762C39.5347 18.054 39.5481 18.0321 39.562 18.0109C39.574 17.9883 39.5864 17.9659 39.5996 17.9437C39.6257 17.8997 39.6521 17.8558 39.6785 17.812C39.6919 17.7899 39.7058 17.7684 39.72 17.7473C39.7322 17.725 39.7451 17.7029 39.7585 17.6809C39.7854 17.6373 39.8125 17.5939 39.8398 17.5505C39.8535 17.5287 39.8677 17.5073 39.8823 17.4866C39.8948 17.4645 39.908 17.4425 39.9219 17.4208C39.9495 17.3777 39.9773 17.3347 40.0051 17.2919C40.0193 17.2703 40.0339 17.2493 40.0488 17.2286C40.0618 17.2068 40.0754 17.1851 40.0896 17.1636C40.1179 17.121 40.1462 17.0785 40.175 17.0361C40.1895 17.0148 40.2043 16.9939 40.2195 16.9736C40.2329 16.9519 40.2468 16.9304 40.2615 16.9093C40.2903 16.8671 40.3196 16.8251 40.3489 16.7832C40.3638 16.7621 40.3789 16.7416 40.3945 16.7214C40.4082 16.7001 40.4226 16.6788 40.4375 16.6578Q40.4819 16.5953 40.5269 16.5333C40.542 16.5125 40.5576 16.4922 40.5735 16.4724C40.5876 16.4512 40.6023 16.4302 40.6174 16.4095C40.6477 16.3684 40.6782 16.3274 40.709 16.2865C40.7244 16.2659 40.7402 16.2458 40.7566 16.2264C40.771 16.2054 40.7859 16.1847 40.8015 16.1642C40.8325 16.1235 40.8638 16.083 40.895 16.0427C40.9109 16.0223 40.927 16.0026 40.9438 15.9834C40.9585 15.9626 40.9736 15.9421 40.9897 15.9219C41.0212 15.8818 41.0532 15.8419 41.0852 15.8021C41.1013 15.782 41.1177 15.7626 41.1348 15.7437C41.1497 15.7231 41.1653 15.7029 41.1816 15.683C41.2139 15.6434 41.2463 15.604 41.2791 15.5647C41.2954 15.5449 41.3123 15.5258 41.3293 15.5071C41.3447 15.4868 41.3608 15.4668 41.3772 15.4471C41.4102 15.4082 41.4434 15.3693 41.4766 15.3304C41.4934 15.3109 41.5105 15.292 41.5281 15.2736C41.5437 15.2537 41.5601 15.2339 41.5769 15.2145C41.6106 15.176 41.6443 15.1378 41.678 15.0996C41.6951 15.0803 41.7124 15.0618 41.7302 15.0437C41.7463 15.0239 41.7629 15.0045 41.78 14.9855C41.8142 14.9475 41.8486 14.9098 41.8831 14.8721C41.9004 14.8531 41.9182 14.8348 41.9363 14.817C41.9526 14.7976 41.9695 14.7784 41.9868 14.7596C42.0217 14.7222 42.0566 14.6849 42.0918 14.6479C42.1094 14.6293 42.1274 14.6111 42.146 14.5936C42.1626 14.5745 42.1797 14.5555 42.1975 14.537C42.2329 14.5002 42.2683 14.4636 42.304 14.4272C42.3218 14.4088 42.3401 14.3911 42.3589 14.3739C42.3757 14.355 42.3933 14.3364 42.4114 14.3182C42.4473 14.282 42.4834 14.246 42.5195 14.2101C42.5378 14.192 42.5564 14.1744 42.5752 14.1576C42.5925 14.1389 42.6104 14.1206 42.6287 14.1027C42.6653 14.067 42.7019 14.0316 42.7388 13.9962C42.7571 13.9784 42.7761 13.9613 42.7954 13.9447C42.8127 13.9263 42.8308 13.9082 42.8496 13.8906C42.8865 13.8556 42.9238 13.8208 42.9609 13.7861C42.9797 13.7687 42.999 13.7518 43.0183 13.7355C43.0361 13.7174 43.0544 13.6997 43.0735 13.6825C43.1111 13.6481 43.1487 13.6138 43.1865 13.5796C43.2058 13.5625 43.2251 13.5459 43.2449 13.5299C43.2629 13.5121 43.2815 13.4948 43.3008 13.4777Q43.3579 13.4269 43.4155 13.3766C43.4351 13.3597 43.4546 13.3435 43.4746 13.3279C43.4929 13.3103 43.512 13.2932 43.5312 13.2765C43.5701 13.2433 43.6086 13.2103 43.6477 13.1775C43.6672 13.1609 43.687 13.145 43.7073 13.1296C43.7258 13.1124 43.7451 13.0957 43.7646 13.0793C43.7832 13.0638 43.802 13.0485 43.8206 13.0331C43.8413 13.016 43.8618 12.999 43.8826 12.9821C43.9026 12.9658 43.9226 12.9502 43.9431 12.9352C43.9619 12.9182 43.9814 12.9017 44.0015 12.8856C44.041 12.8536 44.0811 12.8219 44.1208 12.7902C44.1411 12.7743 44.1614 12.7589 44.1821 12.7443C44.2012 12.7277 44.2209 12.7114 44.2412 12.6957C44.2812 12.6644 44.3215 12.6333 44.3618 12.6023C44.3823 12.5867 44.4028 12.5718 44.4238 12.5574C44.4431 12.5411 44.4631 12.5253 44.4834 12.5099C44.5242 12.4791 44.5649 12.4486 44.6057 12.4183C44.6265 12.403 44.6472 12.3883 44.6685 12.3744C44.688 12.3583 44.7083 12.3428 44.729 12.3276C44.77 12.2976 44.8113 12.2677 44.8528 12.2379C44.8735 12.2229 44.8948 12.2086 44.916 12.1949C44.936 12.1793 44.9563 12.1641 44.9773 12.1492C45.0188 12.1199 45.0605 12.0907 45.1023 12.0616C45.1233 12.047 45.1445 12.0331 45.166 12.0198C45.1753 12.0127 45.1846 12.0059 45.1938 11.999ZM56.5283 2.8385C52.4878 2.8385 49.1821 5.87964 48.2656 10.2725C48.2732 10.2692 48.2808 10.2657 48.2883 10.2623C48.3115 10.2518 48.3352 10.2421 48.3586 10.233C48.3813 10.2217 48.4043 10.2108 48.4277 10.2006C48.4741 10.1801 48.5208 10.1598 48.5676 10.1398C48.5911 10.1296 48.6147 10.1202 48.6384 10.1115C48.6614 10.1005 48.6846 10.09 48.708 10.0801C48.7549 10.0603 48.802 10.0406 48.8491 10.0214C48.8728 10.0116 48.8967 10.0024 48.9207 9.99402C48.9436 9.9834 48.967 9.97327 48.9907 9.96362C49.0378 9.9447 49.085 9.9259 49.1323 9.90735C49.156 9.89795 49.1799 9.88928 49.2039 9.88123C49.2268 9.87097 49.2502 9.86121 49.2742 9.85205C49.3215 9.83374 49.3691 9.81567 49.4167 9.79785C49.4407 9.78882 49.4648 9.78052 49.4888 9.77283C49.5122 9.76282 49.5356 9.75342 49.5598 9.74463C49.6077 9.72705 49.6555 9.70972 49.7034 9.6925C49.7275 9.68384 49.7517 9.67578 49.7761 9.66858C49.7996 9.65894 49.8232 9.6499 49.8474 9.64136C49.8955 9.62463 49.9434 9.60803 49.9915 9.59155C50.0156 9.58337 50.0398 9.57581 50.0642 9.56885C50.0876 9.55969 50.1116 9.55103 50.1357 9.54297C50.1838 9.52686 50.2322 9.51099 50.2805 9.49536C50.3049 9.48743 50.3293 9.48022 50.3538 9.47375C50.3774 9.46484 50.4014 9.45654 50.4258 9.44885C50.4744 9.43347 50.5229 9.41833 50.5718 9.40332C50.5962 9.39575 50.6208 9.38892 50.6453 9.38281C50.6692 9.37427 50.6934 9.36633 50.718 9.35889C50.7666 9.34436 50.8154 9.32996 50.8643 9.3158C50.8887 9.30872 50.9133 9.30225 50.9377 9.29651C50.9617 9.28833 50.9858 9.28076 51.0105 9.2738C51.0593 9.26001 51.1082 9.24634 51.1572 9.23291C51.1819 9.2262 51.2065 9.22009 51.2312 9.21472C51.2554 9.20691 51.2798 9.19971 51.3044 9.19312C51.3538 9.18005 51.4028 9.16711 51.4521 9.15442C51.4771 9.14795 51.502 9.14233 51.5266 9.13721C51.551 9.12976 51.5754 9.12292 51.6003 9.1167C51.6497 9.10437 51.699 9.09229 51.7485 9.08032C51.7732 9.07434 51.7981 9.06897 51.8228 9.06433C51.8472 9.05737 51.8716 9.0509 51.8965 9.04517C51.9458 9.03357 51.9954 9.02222 52.0449 9.01099C52.0698 9.00537 52.0947 9.00049 52.1196 8.99622C52.144 8.9895 52.1687 8.9834 52.1936 8.97803C52.2434 8.96716 52.2932 8.95654 52.343 8.94604C52.3679 8.9408 52.3931 8.93628 52.4182 8.93237C52.4426 8.92603 52.4675 8.92029 52.4927 8.91528C52.5425 8.90515 52.5925 8.89526 52.6426 8.88562C52.6675 8.88074 52.6926 8.87659 52.7175 8.87305C52.7419 8.86719 52.7668 8.86182 52.7917 8.85718C52.8416 8.8479 52.8916 8.83887 52.9414 8.82996C52.9666 8.82544 52.9917 8.82166 53.0168 8.81848C53.0415 8.81299 53.0664 8.80798 53.0916 8.80371C53.1416 8.79517 53.1919 8.78687 53.2419 8.77869C53.2673 8.77454 53.2925 8.77112 53.3176 8.76843C53.3425 8.76318 53.3677 8.75867 53.3928 8.75464C53.4431 8.74695 53.4937 8.73926 53.5442 8.73181C53.5693 8.72815 53.5945 8.7251 53.6196 8.72278C53.6443 8.71802 53.6694 8.71375 53.6946 8.71033C53.7449 8.70325 53.7949 8.69641 53.8452 8.68982C53.8706 8.68652 53.8958 8.68384 53.9209 8.68188C53.9458 8.67749 53.9709 8.67371 53.9961 8.67053C54.0466 8.66431 54.0969 8.6582 54.1475 8.65234C54.1729 8.64929 54.1982 8.64709 54.2236 8.64551C54.2485 8.64136 54.2737 8.63794 54.2993 8.63525C54.3499 8.62976 54.4004 8.62439 54.4512 8.61926C54.4766 8.6167 54.502 8.61475 54.5273 8.61353C54.5522 8.60986 54.5774 8.60681 54.6028 8.60449C54.6533 8.59973 54.7036 8.59521 54.7542 8.59094C54.7795 8.58875 54.8049 8.58716 54.8301 8.5863C54.855 8.58313 54.8801 8.58044 54.9058 8.57837C54.9563 8.57446 55.0068 8.57068 55.0574 8.56702C55.083 8.56531 55.1084 8.56409 55.1335 8.56372C55.1587 8.56079 55.1841 8.55847 55.2097 8.55688C55.2605 8.55359 55.3113 8.55054 55.3621 8.54773C55.3877 8.54626 55.4131 8.54553 55.4385 8.54553C55.4636 8.54297 55.4893 8.54102 55.5149 8.53979C55.5652 8.53735 55.6157 8.53503 55.6663 8.53296C55.6917 8.53198 55.717 8.53162 55.7422 8.53186C55.7673 8.52979 55.7925 8.5282 55.8179 8.52734C55.8687 8.52563 55.9192 8.52417 55.97 8.52283C55.9954 8.52222 56.0208 8.52222 56.0461 8.52283C56.0713 8.52112 56.0967 8.5199 56.1221 8.51941C56.1731 8.51855 56.2239 8.5177 56.2747 8.51721C56.3003 8.51685 56.3259 8.51733 56.3511 8.51831C56.3765 8.51685 56.4019 8.51611 56.4275 8.51599Q56.4658 8.51587 56.5042 8.51587C56.5295 8.51587 56.5552 8.51599 56.5806 8.51599C56.6062 8.51611 56.6316 8.51685 56.657 8.51831C56.6821 8.51733 56.7078 8.51685 56.7334 8.51721C56.7842 8.5177 56.835 8.51843 56.8857 8.51941C56.9114 8.5199 56.9368 8.52112 56.9619 8.52283C56.9873 8.52222 57.0127 8.52222 57.0381 8.52283C57.0889 8.52417 57.1394 8.52563 57.1902 8.52734C57.2156 8.5282 57.2407 8.52979 57.2659 8.53186C57.291 8.53162 57.3164 8.53198 57.3418 8.53296C57.3923 8.53503 57.4429 8.53735 57.4932 8.53979C57.5188 8.54102 57.5444 8.54297 57.5696 8.54553C57.595 8.54553 57.6204 8.54626 57.646 8.54773C57.6667 8.54895 57.6875 8.55005 57.7085 8.55127C57.7385 8.5531 57.7686 8.55493 57.7983 8.55688C57.824 8.55847 57.8494 8.56079 57.8745 8.56372C57.8997 8.56409 57.925 8.56531 57.9507 8.56702C58.0012 8.57068 58.0518 8.57446 58.1025 8.57837C58.1279 8.58044 58.1531 8.58301 58.178 8.5863C58.2031 8.58716 58.2285 8.58875 58.2539 8.59094C58.3044 8.59521 58.3547 8.59973 58.4053 8.60449C58.4307 8.60681 58.4558 8.60986 58.481 8.61353C58.5061 8.61475 58.5315 8.6167 58.5569 8.61926C58.6077 8.62439 58.6582 8.62976 58.7087 8.63525C58.7344 8.63794 58.7595 8.64136 58.7844 8.64551C58.8098 8.64709 58.8352 8.64929 58.8606 8.65234C58.9111 8.6582 58.9614 8.66431 59.012 8.67053C59.0371 8.67371 59.0623 8.67749 59.0872 8.68188C59.1123 8.68384 59.1375 8.68652 59.1628 8.68982C59.2131 8.69641 59.2632 8.70325 59.3135 8.71021C59.3386 8.71375 59.3638 8.7179 59.3884 8.72278C59.4136 8.7251 59.4387 8.72815 59.4639 8.73181C59.5144 8.73926 59.5649 8.74683 59.6152 8.75464C59.6404 8.75867 59.6655 8.76318 59.6904 8.76843C59.7156 8.77112 59.7407 8.77454 59.7661 8.77869C59.8162 8.78687 59.8665 8.79517 59.9165 8.80371C59.9417 8.80798 59.9666 8.81299 59.9912 8.81848C60.0164 8.82166 60.0415 8.82544 60.0667 8.82996C60.1165 8.83887 60.1665 8.8479 60.2163 8.85718C60.2412 8.86182 60.2661 8.86719 60.2905 8.87305C60.3154 8.87659 60.3406 8.88074 60.3655 8.88562C60.4155 8.89526 60.4656 8.90515 60.5154 8.91528C60.5405 8.92029 60.5654 8.92603 60.5898 8.93237C60.615 8.93628 60.6401 8.9408 60.665 8.94604C60.7148 8.95654 60.7646 8.96716 60.8145 8.97803C60.8394 8.9834 60.864 8.9895 60.8884 8.99622C60.9133 9.00049 60.9382 9.00537 60.9631 9.01099C61.0127 9.02222 61.0623 9.03357 61.1116 9.04517C61.1365 9.0509 61.1609 9.05737 61.1853 9.06433C61.21 9.06897 61.2349 9.07434 61.2595 9.08032L61.2849 9.08643C61.2964 9.08923 61.3079 9.09204 61.3196 9.09485C61.3418 9.10034 61.364 9.10583 61.3865 9.11145L61.4077 9.1167C61.4326 9.12292 61.4573 9.12976 61.4814 9.13721C61.5063 9.14221 61.531 9.14795 61.5559 9.15442C61.5806 9.16077 61.6052 9.16724 61.6299 9.17371C61.6545 9.18005 61.679 9.18665 61.7036 9.19312C61.7283 9.19971 61.7527 9.20691 61.7769 9.21472C61.8015 9.22009 61.8262 9.2262 61.8508 9.23291C61.8999 9.24634 61.9487 9.26001 61.9976 9.2738C62.0222 9.28076 62.0464 9.28833 62.0703 9.29651C62.095 9.30225 62.1194 9.30859 62.1438 9.3158C62.1926 9.32996 62.2415 9.34436 62.29 9.35889C62.3147 9.36633 62.3389 9.37427 62.3628 9.38281C62.3872 9.38892 62.4119 9.39575 62.4363 9.40332C62.4851 9.41833 62.5337 9.43347 62.5823 9.44873C62.6067 9.45654 62.6306 9.46484 62.6543 9.47375C62.6787 9.48022 62.7031 9.48743 62.7275 9.49536C62.7759 9.51099 62.8242 9.52686 62.8723 9.54297C62.8965 9.55103 62.9204 9.55969 62.9438 9.56885C62.9683 9.57581 62.9924 9.58337 63.0166 9.59155C63.0647 9.60803 63.1128 9.62463 63.1606 9.64136C63.1848 9.6499 63.2085 9.65894 63.2319 9.66858C63.2563 9.67578 63.2805 9.68384 63.3047 9.6925C63.3528 9.70972 63.4006 9.72705 63.4482 9.74463C63.4724 9.75342 63.4961 9.76282 63.5193 9.77283C63.5435 9.7804 63.5674 9.78882 63.5913 9.79773C63.6389 9.81567 63.6865 9.83374 63.7339 9.85205C63.7578 9.86121 63.7812 9.87097 63.8042 9.88123C63.8281 9.88928 63.8521 9.89795 63.876 9.90735C63.9231 9.9259 63.9702 9.9447 64.0173 9.96362C64.041 9.97327 64.0645 9.9834 64.0874 9.99402C64.1113 10.0024 64.1353 10.0116 64.1589 10.0214C64.2061 10.0406 64.2532 10.0603 64.3 10.08C64.3237 10.09 64.3469 10.1005 64.3696 10.1115C64.3933 10.1202 64.417 10.1296 64.4404 10.1398C64.4873 10.1598 64.5339 10.1801 64.5806 10.2006C64.6038 10.2108 64.627 10.2217 64.6494 10.233C64.6731 10.2421 64.6965 10.2518 64.7197 10.2623C64.7451 10.2737 64.7705 10.2852 64.7959 10.2966C63.8865 5.89087 60.5762 2.8385 56.5283 2.8385ZM56.5042 11.3544C56.4819 11.3544 56.46 11.3545 56.438 11.3545C56.416 11.3546 56.394 11.3542 56.3723 11.3533C56.3503 11.3545 56.3286 11.3553 56.3064 11.3556C56.2627 11.3561 56.2188 11.3567 56.175 11.3575C56.1531 11.3579 56.1311 11.3578 56.1094 11.3572C56.0876 11.3588 56.0659 11.3599 56.0439 11.3605C56.0212 11.361 55.9988 11.3617 55.9761 11.3623C55.9551 11.3629 55.9341 11.3636 55.9131 11.3643C55.8911 11.365 55.8694 11.3652 55.8477 11.365C55.8259 11.3669 55.8042 11.3683 55.7825 11.3691C55.7622 11.37 55.7419 11.3708 55.7217 11.3717C55.6985 11.3728 55.6753 11.3739 55.6521 11.375C55.6299 11.3761 55.6079 11.3766 55.5862 11.3767C55.5645 11.3789 55.5425 11.3806 55.5205 11.3818C55.4768 11.3843 55.4331 11.387 55.3894 11.3896C55.3762 11.3905 55.3633 11.3911 55.3501 11.3916C55.3413 11.392 55.3325 11.3922 55.3237 11.3923C55.3022 11.3949 55.2805 11.397 55.2585 11.3984C55.2148 11.4016 55.1714 11.4048 55.1279 11.4082C55.106 11.4099 55.0842 11.4111 55.0625 11.4119C55.041 11.4147 55.0193 11.4171 54.9976 11.4189C54.9541 11.4227 54.9109 11.4266 54.8674 11.4307C54.8457 11.4327 54.8237 11.4342 54.802 11.4353C54.7805 11.4385 54.7588 11.4412 54.7371 11.4434C54.7122 11.4459 54.6873 11.4485 54.6624 11.451C54.6436 11.453 54.625 11.4551 54.6064 11.457C54.5845 11.4595 54.5627 11.4613 54.541 11.4628C54.5195 11.4662 54.4978 11.4692 54.4761 11.4718C54.4326 11.4768 54.3892 11.4821 54.3459 11.4874C54.3242 11.4901 54.3025 11.4923 54.2808 11.494C54.2595 11.4978 54.238 11.5012 54.2163 11.504C54.1731 11.5098 54.1299 11.5156 54.0867 11.5216C54.0652 11.5247 54.0435 11.5271 54.022 11.5292C54.0005 11.5333 53.9792 11.537 53.9575 11.5402C53.9141 11.5465 53.8708 11.5531 53.8276 11.5597C53.8059 11.5631 53.7842 11.5659 53.7625 11.5684C53.7412 11.5728 53.7197 11.5768 53.698 11.5803C53.6548 11.5874 53.6118 11.5945 53.5688 11.6019C53.5471 11.6056 53.5256 11.6088 53.5042 11.6115C53.4829 11.6162 53.4614 11.6205 53.4399 11.6244C53.397 11.632 53.3542 11.6398 53.3113 11.6478C53.2898 11.6517 53.2683 11.6553 53.2471 11.6583C53.2258 11.6633 53.2046 11.668 53.1831 11.6721C53.1401 11.6804 53.0974 11.689 53.0544 11.6976C53.033 11.702 53.0115 11.7058 52.99 11.7091C52.9688 11.7146 52.9475 11.7196 52.926 11.7241C52.8833 11.733 52.8406 11.7422 52.7979 11.7515C52.7766 11.7561 52.7551 11.7603 52.7336 11.7639C52.7126 11.7697 52.6917 11.775 52.6702 11.7798C52.6277 11.7894 52.5852 11.7992 52.5427 11.8091C52.5215 11.8141 52.5002 11.8186 52.479 11.8225C52.4583 11.8286 52.437 11.8341 52.4158 11.8392C52.3735 11.8496 52.3311 11.86 52.2888 11.8706C52.2673 11.8759 52.2461 11.8807 52.2249 11.885C52.2039 11.8914 52.1829 11.8973 52.1616 11.9028C52.1194 11.9138 52.0771 11.9248 52.0349 11.936C52.0137 11.9418 51.9924 11.9469 51.9712 11.9515C51.9507 11.9581 51.9297 11.9645 51.9087 11.9702C51.8894 11.9755 51.8704 11.9808 51.8511 11.9861C51.8379 11.9897 51.8247 11.9934 51.8115 11.9972C51.802 11.9999 51.7922 12.0026 51.7827 12.0052C51.7617 12.0112 51.7405 12.0167 51.7195 12.0216C51.699 12.0287 51.6782 12.0352 51.6572 12.0413Q51.5945 12.0596 51.5317 12.0782C51.5107 12.0846 51.4897 12.0903 51.4685 12.0957C51.4482 12.103 51.4275 12.1099 51.4065 12.1163C51.3645 12.1293 51.323 12.1422 51.2812 12.1554C51.2605 12.162 51.2395 12.1681 51.2185 12.1737C51.1982 12.1813 51.1775 12.1885 51.1567 12.1953C51.1152 12.2087 51.074 12.2223 51.0325 12.2361C51.0117 12.243 50.991 12.2494 50.9702 12.2554C50.95 12.2633 50.9294 12.2708 50.9089 12.2778C50.8677 12.2919 50.8264 12.3062 50.7854 12.3206C50.7646 12.3278 50.7439 12.3345 50.7231 12.3407C50.7029 12.349 50.6826 12.3568 50.6619 12.3643L50.6248 12.3777C50.5959 12.3881 50.5674 12.3984 50.5388 12.4089C50.5181 12.4165 50.4976 12.4236 50.4768 12.4302C50.4568 12.4387 50.4365 12.4469 50.416 12.4546C50.3752 12.47 50.3345 12.4855 50.2939 12.5011C50.2866 12.5039 50.2791 12.5067 50.2717 12.5094C50.2585 12.5142 50.2456 12.5188 50.2324 12.5232C50.2126 12.532 50.1926 12.5404 50.1724 12.5485C50.1318 12.5645 50.0913 12.5804 50.051 12.5967C50.0308 12.605 50.0103 12.6127 49.9897 12.6199C49.97 12.629 49.95 12.6378 49.9297 12.6461C49.9216 12.6494 49.9136 12.6528 49.9055 12.6561C49.8938 12.661 49.8821 12.6658 49.8704 12.6707C49.8499 12.6792 49.8293 12.6879 49.8088 12.6964C49.7886 12.705 49.7683 12.713 49.7478 12.7205C49.7283 12.73 49.7085 12.739 49.6885 12.7477C49.6484 12.7649 49.6084 12.7822 49.5686 12.7997C49.5483 12.8085 49.5283 12.8168 49.5081 12.8246C49.4888 12.8344 49.469 12.8438 49.4492 12.8527C49.4094 12.8705 49.3699 12.8884 49.3303 12.9065C49.3103 12.9156 49.2903 12.9242 49.27 12.9324C49.26 12.9376 49.25 12.9427 49.2397 12.9478Q49.2256 12.9547 49.2114 12.9614C49.1719 12.9799 49.1323 12.9985 49.093 13.0172C49.0732 13.0266 49.0532 13.0356 49.0332 13.0441C49.0142 13.0543 48.9949 13.0643 48.9751 13.074C48.9358 13.093 48.8967 13.1122 48.8577 13.1315C48.8381 13.1412 48.8184 13.1504 48.7986 13.1592C48.791 13.1633 48.7834 13.1676 48.7759 13.1716C48.7644 13.1779 48.7527 13.184 48.741 13.1899C48.7021 13.2095 48.6633 13.2292 48.6248 13.2491C48.6052 13.2592 48.5857 13.2687 48.5659 13.2778C48.5471 13.2887 48.5281 13.2993 48.5085 13.3094C48.47 13.3297 48.4314 13.3502 48.3928 13.3707C48.3735 13.381 48.354 13.3909 48.3345 13.4003C48.3159 13.4115 48.2971 13.4224 48.2778 13.4327C48.2395 13.4536 48.2014 13.4746 48.1633 13.4957C48.144 13.5063 48.1248 13.5165 48.1055 13.5261C48.0872 13.5376 48.0684 13.5487 48.0493 13.5594C48.0115 13.5808 47.9736 13.6024 47.936 13.624C47.917 13.635 47.8977 13.6454 47.8784 13.6554C47.8604 13.6671 47.8418 13.6786 47.8228 13.6897C47.7852 13.7117 47.7476 13.7339 47.7102 13.7562C47.6914 13.7673 47.6724 13.7781 47.6533 13.7883C47.6353 13.8004 47.6169 13.8121 47.5981 13.8235C47.5608 13.8461 47.5237 13.8688 47.4866 13.8917C47.468 13.9032 47.4492 13.9142 47.4304 13.9247C47.4126 13.937 47.3943 13.949 47.3757 13.9607C47.3391 13.9838 47.3022 14.0071 47.2656 14.0304C47.2471 14.0422 47.2285 14.0536 47.2097 14.0643C47.1921 14.077 47.1741 14.0892 47.1558 14.1012C47.1191 14.125 47.0828 14.1488 47.0464 14.1729C47.0281 14.1849 47.0095 14.1965 46.991 14.2076C46.9736 14.2206 46.9558 14.2332 46.9375 14.2454C46.9014 14.2697 46.8655 14.2941 46.8296 14.3186C46.8115 14.3309 46.7932 14.3428 46.7747 14.3542C46.7576 14.3673 46.74 14.3801 46.7219 14.3927C46.6863 14.4175 46.6506 14.4424 46.6152 14.4675C46.5974 14.4801 46.5793 14.4923 46.561 14.504C46.5439 14.5175 46.5266 14.5305 46.5088 14.5433C46.4734 14.5687 46.4382 14.5942 46.4028 14.62C46.3853 14.6329 46.3674 14.6454 46.3494 14.6573C46.3325 14.671 46.3154 14.6843 46.2979 14.6974C46.2627 14.7234 46.228 14.7494 46.1934 14.7756C46.1758 14.7888 46.1582 14.8015 46.1404 14.8137C46.1238 14.8278 46.1067 14.8413 46.0894 14.8546C46.0549 14.8811 46.0205 14.9077 45.9863 14.9343C45.969 14.9479 45.9517 14.9608 45.9338 14.9734C45.9175 14.9875 45.9009 15.0015 45.8835 15.0151C45.8494 15.0421 45.8154 15.0693 45.7815 15.0966C45.7644 15.1104 45.7473 15.1235 45.7297 15.1364C45.7136 15.1509 45.697 15.165 45.6802 15.1788C45.6465 15.2064 45.613 15.2341 45.5796 15.2618C45.5627 15.2759 45.5457 15.2894 45.5286 15.3025C45.5127 15.3171 45.4963 15.3315 45.4795 15.3457C45.4465 15.3737 45.4133 15.4019 45.3804 15.4302C45.3638 15.4445 45.3469 15.4583 45.3298 15.4716C45.3142 15.4866 45.2981 15.5012 45.2817 15.5156C45.249 15.5442 45.2163 15.5729 45.1836 15.6018C45.1672 15.6163 45.1506 15.6304 45.1338 15.6439C45.1184 15.6592 45.1025 15.6741 45.0864 15.6887C45.0542 15.7178 45.022 15.7471 44.9897 15.7764C44.9822 15.7834 44.9741 15.7905 44.9663 15.7974C44.958 15.8048 44.9495 15.8121 44.9407 15.8192C44.9255 15.8347 44.9102 15.8499 44.894 15.8647C44.8623 15.8943 44.8306 15.924 44.7991 15.9539C44.7832 15.9689 44.7671 15.9834 44.7507 15.9976C44.7356 16.0132 44.7205 16.0287 44.7046 16.0438C44.6733 16.0739 44.6421 16.1041 44.6108 16.1345C44.5952 16.1498 44.5793 16.1646 44.5632 16.179C44.5486 16.1948 44.5334 16.2106 44.5178 16.226C44.4871 16.2565 44.4563 16.2872 44.4258 16.318C44.4104 16.3335 44.3948 16.3485 44.3789 16.3632C44.3645 16.3793 44.3496 16.3951 44.3345 16.4108C44.304 16.4419 44.2739 16.473 44.2437 16.5043C44.2285 16.52 44.2131 16.5354 44.1975 16.5503C44.1833 16.5667 44.1687 16.5828 44.1538 16.5986C44.124 16.6301 44.0942 16.6619 44.0647 16.6936C44.0498 16.7096 44.0347 16.7252 44.019 16.7404C44.0054 16.757 43.991 16.7732 43.9763 16.7893C43.947 16.8214 43.9177 16.8535 43.8887 16.8857C43.874 16.902 43.8591 16.9177 43.844 16.9331C43.8306 16.9498 43.8164 16.9664 43.802 16.9828C43.7732 17.0153 43.7446 17.0477 43.7161 17.0804C43.7017 17.0969 43.687 17.1129 43.6721 17.1285C43.6587 17.1456 43.645 17.1624 43.6309 17.179C43.6025 17.2119 43.5745 17.245 43.5464 17.2781C43.5325 17.2948 43.5181 17.311 43.5034 17.3269C43.4902 17.3441 43.4768 17.3611 43.4629 17.3779C43.4353 17.4113 43.4077 17.4447 43.3801 17.4783C43.3665 17.4952 43.3523 17.5117 43.3379 17.5277C43.3252 17.5452 43.312 17.5624 43.2983 17.5793C43.2712 17.6132 43.2441 17.6471 43.2173 17.681C43.2039 17.6982 43.1899 17.715 43.1758 17.7312C43.1633 17.7489 43.1506 17.7664 43.1372 17.7836C43.1106 17.8177 43.084 17.8522 43.0579 17.8866C43.0447 17.9039 43.031 17.9209 43.0171 17.9374C43.0051 17.9552 42.9924 17.9729 42.9792 17.9902C42.9534 18.0249 42.9275 18.0597 42.9019 18.0946C42.8889 18.1121 42.8755 18.1293 42.8621 18.146C42.8501 18.1639 42.8379 18.1818 42.825 18.1995C42.7996 18.2345 42.7744 18.2697 42.7493 18.3049C42.7366 18.3226 42.7236 18.3401 42.7102 18.3571C42.6987 18.3752 42.6868 18.3933 42.6743 18.4111C42.6494 18.4467 42.6248 18.4822 42.6001 18.5178C42.5879 18.5358 42.5752 18.5533 42.562 18.5706C42.5508 18.589 42.5391 18.6072 42.5269 18.6252C42.5027 18.6611 42.4788 18.697 42.4548 18.7332C42.4426 18.7512 42.4304 18.769 42.4175 18.7864C42.4067 18.8049 42.3953 18.8234 42.3833 18.8416C42.3599 18.8778 42.3362 18.9142 42.313 18.9507C42.3013 18.969 42.2891 18.9869 42.2769 19.0045C42.2661 19.0233 42.2551 19.0419 42.2434 19.0603C42.2205 19.0969 42.1975 19.1337 42.1748 19.1705C42.1636 19.189 42.1516 19.2072 42.1396 19.225C42.1292 19.2439 42.1184 19.2627 42.1072 19.2812C42.085 19.3182 42.0625 19.3553 42.0405 19.3926C42.0364 19.3995 42.0322 19.4064 42.0281 19.4132C42.0208 19.4248 42.0137 19.4363 42.0061 19.4476C41.9961 19.4667 41.9858 19.4856 41.9749 19.5044C41.9531 19.5417 41.9314 19.5792 41.9099 19.6167C41.8992 19.6356 41.8882 19.6542 41.8765 19.6724C41.8669 19.6915 41.8567 19.7107 41.8462 19.7296C41.825 19.7673 41.8042 19.8052 41.7832 19.843C41.7729 19.8621 41.762 19.8809 41.751 19.8992C41.7415 19.9186 41.7317 19.9379 41.7214 19.9569C41.7009 19.995 41.6807 20.0332 41.6604 20.0714C41.6504 20.0906 41.6399 20.1095 41.6289 20.1281C41.6201 20.1476 41.6106 20.167 41.6006 20.1864C41.5808 20.2247 41.561 20.2632 41.5417 20.3018C41.5317 20.3212 41.5217 20.3402 41.5112 20.3589C41.5024 20.3785 41.4934 20.3982 41.4836 20.4176C41.4646 20.4563 41.4456 20.4951 41.4268 20.5339C41.4172 20.5535 41.4075 20.5728 41.3972 20.5916C41.3889 20.6115 41.3801 20.6311 41.3708 20.6508C41.3638 20.6659 41.3564 20.681 41.3494 20.6962C41.3381 20.7201 41.3271 20.7441 41.3159 20.7681C41.3069 20.7878 41.2974 20.8071 41.2874 20.8263C41.2793 20.8462 41.271 20.8661 41.262 20.8859C41.2441 20.9252 41.2266 20.9646 41.209 21.004C41.2004 21.0238 41.1912 21.0433 41.1816 21.0626C41.1741 21.0826 41.1658 21.1027 41.1572 21.1226C41.1401 21.1621 41.1233 21.2018 41.1064 21.2416C41.0981 21.2616 41.0891 21.2812 41.0801 21.3007C41.0728 21.3208 41.0649 21.3409 41.0566 21.3611C41.051 21.3749 41.0452 21.3888 41.0396 21.4026L41.032 21.4211C41.0264 21.4352 41.0208 21.4491 41.0151 21.463L41.0078 21.481C40.9998 21.5011 40.9912 21.521 40.9824 21.5405C40.9756 21.5608 40.968 21.5812 40.9602 21.6013C40.9443 21.6415 40.929 21.6816 40.9136 21.7219C40.9058 21.7422 40.8977 21.7621 40.8892 21.7817C40.8826 21.8022 40.8755 21.8225 40.8679 21.8429C40.853 21.8833 40.8381 21.9237 40.8235 21.9642C40.8162 21.9846 40.8083 22.0048 40.8 22.0245C40.7939 22.0452 40.7871 22.0656 40.78 22.0861C40.7656 22.1267 40.7515 22.1675 40.7375 22.2083C40.7305 22.2288 40.7231 22.249 40.7151 22.269C40.7095 22.2897 40.7031 22.3103 40.696 22.3309C40.6826 22.3718 40.6692 22.4127 40.656 22.4537C40.6492 22.4742 40.6421 22.4946 40.6348 22.5146C40.6292 22.5354 40.6233 22.556 40.6167 22.5767C40.604 22.6178 40.5913 22.6589 40.5786 22.7002C40.5725 22.7209 40.5657 22.7413 40.5586 22.7616C40.5535 22.7825 40.5479 22.8032 40.5417 22.824C40.5295 22.8654 40.5176 22.9067 40.5059 22.9482C40.4998 22.9691 40.4934 22.9897 40.4866 23.0101C40.4819 23.031 40.4766 23.052 40.4709 23.0729C40.4595 23.1144 40.4482 23.1559 40.4373 23.1975C40.4316 23.2184 40.4258 23.239 40.4192 23.2594C40.4148 23.2804 40.4099 23.3014 40.4045 23.3223C40.394 23.364 40.3835 23.4058 40.373 23.4475C40.3679 23.4685 40.3623 23.4894 40.3562 23.5099C40.3523 23.531 40.3477 23.552 40.3428 23.5731C40.3328 23.615 40.323 23.657 40.3135 23.6991C40.3086 23.7202 40.3032 23.7411 40.2976 23.7618C40.2939 23.783 40.2898 23.8042 40.2852 23.8253C40.2815 23.8424 40.2776 23.8594 40.2739 23.8765C40.2686 23.9015 40.2634 23.9264 40.2581 23.9514C40.2537 23.9725 40.2488 23.9935 40.2434 24.0143C40.2402 24.0354 40.2363 24.0565 40.2322 24.0778C40.2302 24.0875 40.2283 24.0974 40.2263 24.1072C40.2246 24.115 40.2231 24.1227 40.2217 24.1304C40.2168 24.155 40.2122 24.1797 40.2073 24.2043C40.2046 24.2183 40.2019 24.2319 40.1987 24.2456C40.1973 24.2529 40.1956 24.2603 40.1938 24.2676C40.1924 24.2772 40.1909 24.2869 40.1895 24.2965C40.1877 24.3081 40.1858 24.3197 40.1836 24.3314C40.1758 24.3738 40.1682 24.4163 40.1609 24.4587C40.1572 24.4801 40.1531 24.5013 40.1484 24.5222C40.146 24.5436 40.1428 24.5649 40.1394 24.5864C40.1326 24.6288 40.1257 24.6711 40.1191 24.7136C40.1157 24.735 40.1121 24.7562 40.1079 24.7771C40.1057 24.7985 40.103 24.8197 40.0999 24.8411C40.0938 24.8837 40.0876 24.9263 40.0818 24.9689C40.0808 24.9758 40.0798 24.9828 40.0789 24.9896C42.6553 21.5902 47.314 18.4426 55.5579 18.0245L55.5579 17.9775C55.8782 17.9775 56.1936 17.9814 56.5042 17.989C56.8147 17.9814 57.1299 17.9775 57.4502 17.9775L57.4502 18.0245C65.6943 18.4426 70.3528 21.5901 72.9292 24.9896C72.9282 24.9827 72.9272 24.9757 72.9263 24.9689C72.9243 24.9537 72.9221 24.9386 72.9199 24.9235C72.916 24.896 72.9121 24.8685 72.9082 24.8411C72.905 24.8197 72.9023 24.7983 72.9004 24.7771C72.896 24.7561 72.8923 24.735 72.8889 24.7136C72.8823 24.6711 72.8757 24.6288 72.8687 24.5863C72.8652 24.5649 72.8621 24.5436 72.8596 24.5222C72.855 24.5012 72.8508 24.4801 72.8472 24.4587C72.8398 24.4161 72.8323 24.3738 72.8245 24.3313C72.8225 24.3203 72.8206 24.3093 72.8188 24.2983Q72.8164 24.283 72.8145 24.2676C72.8093 24.2467 72.8049 24.2256 72.8008 24.2043C72.7927 24.1621 72.7844 24.1199 72.7759 24.0778C72.7717 24.0565 72.7681 24.0354 72.7646 24.0142C72.7593 23.9935 72.7544 23.9725 72.75 23.9514C72.7458 23.931 72.7415 23.9108 72.7371 23.8905C72.7324 23.8688 72.7278 23.847 72.7229 23.8253C72.7183 23.8042 72.7141 23.783 72.7107 23.7618C72.7048 23.7411 72.6997 23.7202 72.6948 23.699C72.6895 23.6753 72.6838 23.6516 72.6785 23.6281C72.6741 23.6096 72.6697 23.5913 72.6655 23.5731C72.6621 23.5594 72.6592 23.5458 72.6562 23.5321C72.6548 23.5247 72.6533 23.5172 72.6519 23.5099C72.6458 23.4893 72.6401 23.4685 72.635 23.4475C72.6248 23.4056 72.6143 23.3639 72.6035 23.3223C72.6001 23.3087 72.5967 23.2952 72.5938 23.2817C72.5925 23.276 72.5913 23.2704 72.5901 23.2646L72.5889 23.2594C72.5869 23.2535 72.5852 23.2477 72.5835 23.2417C72.5791 23.2271 72.575 23.2123 72.5708 23.1974C72.5598 23.1559 72.5486 23.1144 72.5371 23.0729C72.5315 23.052 72.5261 23.031 72.5215 23.01C72.5146 22.9897 72.5083 22.9691 72.5024 22.9482C72.4905 22.9067 72.4785 22.8654 72.4663 22.824C72.4602 22.8032 72.4546 22.7823 72.4495 22.7616C72.4424 22.7413 72.4358 22.7208 72.4294 22.7002C72.417 22.6589 72.4043 22.6178 72.3914 22.5767C72.3875 22.5646 72.3838 22.5525 72.3804 22.5404C72.3779 22.5319 72.3757 22.5232 72.3733 22.5146C72.3691 22.5032 72.365 22.4917 72.3611 22.4801C72.3579 22.4713 72.355 22.4625 72.3523 22.4536C72.3389 22.4127 72.3254 22.3717 72.312 22.3309C72.3052 22.3103 72.2988 22.2897 72.293 22.269C72.2886 22.2582 72.2844 22.2473 72.2805 22.2363Q72.2778 22.229 72.2751 22.2217C72.2737 22.2173 72.2722 22.2128 72.2705 22.2083C72.2566 22.1675 72.2424 22.1267 72.228 22.0861C72.2209 22.0656 72.2144 22.045 72.208 22.0245C72.1997 22.0048 72.1921 21.9846 72.1846 21.9642L72.1724 21.9304C72.1616 21.9012 72.1509 21.8721 72.1401 21.8429C72.1372 21.8353 72.1345 21.8278 72.1318 21.8202C72.1274 21.8074 72.123 21.7946 72.1189 21.7817C72.1104 21.7621 72.1023 21.7422 72.0945 21.7219C72.0791 21.6816 72.0637 21.6415 72.0479 21.6013C72.0444 21.5925 72.0413 21.5837 72.0378 21.575C72.0337 21.5635 72.0295 21.552 72.0256 21.5405C72.0168 21.5209 72.0083 21.5011 72.0002 21.481C71.9841 21.4409 71.9678 21.4009 71.9514 21.361C71.9431 21.3409 71.9353 21.3208 71.9282 21.3007C71.9189 21.2812 71.9102 21.2616 71.9016 21.2416C71.8923 21.2197 71.8831 21.1979 71.8738 21.1761C71.8662 21.1582 71.8586 21.1404 71.8508 21.1226C71.8423 21.1027 71.8342 21.0826 71.8264 21.0626C71.8169 21.0433 71.8079 21.0238 71.7991 21.004C71.7815 20.9646 71.7639 20.9252 71.7461 20.8859C71.7373 20.8661 71.7288 20.8462 71.7207 20.8263C71.7109 20.8071 71.7014 20.7878 71.6921 20.7681C71.6741 20.7289 71.6558 20.6898 71.6372 20.6508C71.6279 20.6311 71.6191 20.6115 71.6108 20.5916C71.6006 20.5726 71.5908 20.5535 71.5813 20.5339C71.5625 20.4951 71.5435 20.4563 71.5244 20.4176C71.5146 20.3981 71.5056 20.3785 71.4971 20.3589C71.4863 20.3402 71.4763 20.3212 71.4666 20.3018C71.447 20.2632 71.4272 20.2247 71.4075 20.1864C71.3975 20.167 71.3882 20.1476 71.3792 20.1281C71.3682 20.1095 71.3577 20.0906 71.3477 20.0714C71.3274 20.0332 71.3071 19.995 71.2866 19.9569C71.2764 19.9379 71.2666 19.9186 71.2573 19.8992C71.251 19.8889 71.2449 19.8785 71.2388 19.868C71.2341 19.8599 71.2295 19.8514 71.2249 19.843C71.2041 19.8052 71.1831 19.7673 71.1619 19.7296C71.1514 19.7107 71.1411 19.6915 71.1316 19.6724C71.1201 19.6542 71.1089 19.6356 71.0981 19.6167C71.0767 19.5792 71.0552 19.5417 71.0332 19.5044C71.0303 19.4991 71.0273 19.494 71.0244 19.4888C71.0166 19.4751 71.0093 19.4614 71.002 19.4475C70.9902 19.4296 70.9788 19.4113 70.9675 19.3926C70.958 19.3762 70.9482 19.36 70.9385 19.3436C70.926 19.3229 70.9136 19.302 70.9009 19.2812C70.8896 19.2626 70.8789 19.2439 70.8687 19.225C70.8564 19.2072 70.8447 19.189 70.8333 19.1705C70.821 19.1505 70.8086 19.1306 70.7961 19.1107C70.7856 19.0939 70.7751 19.0771 70.7646 19.0603C70.7532 19.0419 70.7419 19.0233 70.7314 19.0045C70.719 18.9869 70.7068 18.969 70.6951 18.9507C70.6719 18.9142 70.6484 18.8778 70.6248 18.8416C70.6128 18.8234 70.6016 18.8049 70.5906 18.7864C70.5779 18.769 70.5654 18.7512 70.5535 18.7332C70.5295 18.697 70.5054 18.6611 70.4812 18.6252C70.469 18.6072 70.4573 18.589 70.446 18.5706C70.4399 18.5626 70.4341 18.5546 70.4282 18.5465C70.4214 18.537 70.4146 18.5275 70.408 18.5178C70.3835 18.4822 70.3586 18.4467 70.334 18.4111C70.3213 18.3933 70.3093 18.3752 70.2979 18.3571C70.2844 18.3401 70.2715 18.3228 70.2588 18.3049Q70.2363 18.2732 70.2134 18.2416C70.2034 18.2275 70.1934 18.2135 70.1831 18.1995C70.1755 18.189 70.1682 18.1785 70.1609 18.168C70.1558 18.1606 70.1509 18.1533 70.1462 18.146C70.1326 18.1293 70.1194 18.1121 70.1064 18.0946C70.0806 18.0597 70.0547 18.0249 70.0288 17.9902C70.0156 17.9729 70.0032 17.9552 69.991 17.9374C69.9771 17.9209 69.9636 17.9039 69.9502 17.8866C69.9241 17.8522 69.8975 17.8177 69.8711 17.7836C69.8577 17.7664 69.8447 17.7489 69.8323 17.7312C69.8181 17.715 69.8042 17.6982 69.7908 17.681C69.7639 17.6471 69.7368 17.6132 69.7097 17.5793C69.696 17.5624 69.6829 17.5452 69.6702 17.5277C69.6648 17.5219 69.6597 17.5159 69.6545 17.5099C69.6455 17.4995 69.6367 17.489 69.6279 17.4783C69.615 17.4624 69.6018 17.4464 69.5886 17.4305C69.5742 17.413 69.5598 17.3954 69.5452 17.3779C69.5396 17.371 69.5339 17.364 69.5283 17.3571C69.5203 17.347 69.5125 17.337 69.5049 17.3269C69.4902 17.311 69.4758 17.2948 69.4617 17.2781C69.4336 17.245 69.4055 17.2119 69.3772 17.179C69.363 17.1624 69.3494 17.1456 69.3359 17.1285C69.321 17.1129 69.3064 17.0969 69.292 17.0804C69.2637 17.0477 69.2349 17.0153 69.2061 16.9828C69.1917 16.9664 69.1777 16.9498 69.1641 16.9331C69.1489 16.9177 69.134 16.902 69.1194 16.8857C69.1125 16.8779 69.1055 16.8702 69.0984 16.8624C69.0881 16.8511 69.0779 16.8396 69.0674 16.8282C69.0557 16.8153 69.0437 16.8024 69.032 16.7893C69.0239 16.7808 69.0161 16.7721 69.0085 16.7633C69.002 16.7557 68.9954 16.748 68.989 16.7404C68.9829 16.7344 68.9768 16.7283 68.9709 16.7222C68.9617 16.7129 68.9526 16.7034 68.9436 16.6936C68.9138 16.6619 68.8843 16.6302 68.8542 16.5986C68.8394 16.5828 68.8247 16.5667 68.8105 16.5503C68.7949 16.5354 68.7795 16.52 68.7644 16.5043Q68.7192 16.4574 68.6738 16.4108C68.6619 16.3987 68.6501 16.3864 68.6389 16.3738C68.6357 16.3702 68.6326 16.3667 68.6294 16.3632C68.6133 16.3485 68.5977 16.3335 68.5823 16.318C68.5518 16.2872 68.521 16.2565 68.4902 16.226C68.4746 16.2106 68.4597 16.1948 68.4451 16.179C68.4287 16.1646 68.4128 16.1498 68.3972 16.1345C68.3662 16.1041 68.335 16.0739 68.3035 16.0438C68.2983 16.0388 68.2932 16.0337 68.2881 16.0286C68.2776 16.0184 68.2676 16.0081 68.2576 15.9976C68.2412 15.9834 68.2249 15.9689 68.209 15.9539C68.1914 15.9371 68.1738 15.9205 68.1562 15.9041C68.1421 15.8909 68.1282 15.8778 68.114 15.8647C68.0981 15.8499 68.0825 15.8347 68.0674 15.8192C68.0508 15.8054 68.0344 15.7911 68.0183 15.7764C67.9863 15.7471 67.9541 15.7178 67.9216 15.6887C67.9055 15.6741 67.8896 15.6592 67.8743 15.6439C67.8574 15.6304 67.8408 15.6163 67.8245 15.6018C67.792 15.5729 67.7593 15.5442 67.7263 15.5156C67.71 15.5012 67.6938 15.4866 67.6782 15.4716C67.6699 15.465 67.6616 15.4584 67.6533 15.4515Q67.6404 15.441 67.6277 15.4302C67.6116 15.4164 67.5957 15.4026 67.5796 15.3889C67.5625 15.3745 67.5457 15.3601 67.5286 15.3457C67.5117 15.3315 67.4956 15.3171 67.4797 15.3025C67.4624 15.2894 67.4453 15.2759 67.4287 15.2618C67.4102 15.2465 67.3916 15.2312 67.373 15.2158C67.3579 15.2035 67.343 15.1912 67.3279 15.1788C67.311 15.165 67.2944 15.1509 67.2783 15.1364C67.2734 15.1328 67.2688 15.1293 67.2639 15.1256C67.2512 15.1162 67.239 15.1066 67.2266 15.0966C67.2102 15.0834 67.1938 15.0702 67.1772 15.057C67.1597 15.0431 67.1421 15.0291 67.1245 15.0151C67.1074 15.0015 67.0906 14.9875 67.0742 14.9734C67.0566 14.9608 67.0391 14.9479 67.0217 14.9344C67.0032 14.9199 66.9846 14.9055 66.9661 14.8911C66.9502 14.8789 66.9346 14.8668 66.9187 14.8546C66.9014 14.8413 66.8843 14.8278 66.8679 14.8137C66.8499 14.8015 66.8323 14.7888 66.8149 14.7756C66.78 14.7495 66.7454 14.7234 66.7104 14.6974C66.6929 14.6843 66.6755 14.671 66.6587 14.6573C66.6406 14.6454 66.6228 14.6329 66.6052 14.62C66.5701 14.5944 66.5347 14.5687 66.4993 14.5433C66.4814 14.5305 66.4641 14.5175 66.447 14.504C66.429 14.4923 66.4109 14.4801 66.3928 14.4675C66.3574 14.4424 66.3218 14.4175 66.2861 14.3927C66.2681 14.3801 66.2505 14.3673 66.2334 14.3542C66.2148 14.3428 66.1968 14.3309 66.1787 14.3186C66.1428 14.2941 66.1067 14.2697 66.0706 14.2454C66.0522 14.2332 66.0347 14.2206 66.0171 14.2076C65.9985 14.1965 65.98 14.1849 65.9617 14.1729C65.9255 14.1488 65.8889 14.125 65.8523 14.1012C65.834 14.0892 65.8159 14.077 65.7983 14.0643C65.7795 14.0536 65.761 14.0422 65.7424 14.0304C65.7246 14.019 65.7068 14.0077 65.6887 13.9963C65.6699 13.9844 65.6511 13.9725 65.6323 13.9607C65.6138 13.949 65.5955 13.937 65.5779 13.9247C65.5588 13.9142 65.54 13.9032 65.5215 13.8917C65.4844 13.8688 65.4473 13.8461 65.4099 13.8235C65.4009 13.818 65.3918 13.8124 65.3828 13.8066C65.3735 13.8007 65.364 13.7946 65.3547 13.7883C65.3357 13.7781 65.3167 13.7673 65.2979 13.7562C65.2605 13.7339 65.2229 13.7117 65.1853 13.6897C65.1663 13.6786 65.1477 13.6671 65.1296 13.6554C65.1104 13.6454 65.0911 13.635 65.072 13.624C65.0344 13.6024 64.9966 13.5808 64.9587 13.5594C64.9397 13.5487 64.9209 13.5376 64.9026 13.5261C64.8833 13.5165 64.864 13.5063 64.8447 13.4957C64.8066 13.4746 64.7686 13.4536 64.7302 13.4327C64.7109 13.4224 64.6921 13.4115 64.6736 13.4003C64.6643 13.3958 64.655 13.3912 64.646 13.3866C64.6389 13.3832 64.6321 13.3795 64.625 13.376C64.6218 13.3741 64.6184 13.3724 64.6152 13.3707C64.5767 13.3501 64.5381 13.3297 64.4995 13.3094C64.4802 13.2993 64.4609 13.2887 64.4424 13.2777C64.4226 13.2687 64.4028 13.2592 64.3833 13.2491C64.3447 13.2292 64.3059 13.2095 64.2671 13.1899C64.2476 13.1801 64.2285 13.1698 64.2095 13.1592C64.1897 13.1504 64.1699 13.1412 64.1504 13.1315C64.1113 13.1122 64.0723 13.093 64.033 13.074C64.0132 13.0643 63.9939 13.0543 63.9749 13.0441C63.9548 13.0356 63.9351 13.0266 63.915 13.0172C63.8982 13.0092 63.8813 13.0011 63.8643 12.9932C63.8418 12.9825 63.8193 12.9719 63.7966 12.9614C63.7769 12.9521 63.7573 12.9424 63.738 12.9324C63.7178 12.9242 63.6978 12.9156 63.6777 12.9065C63.6384 12.8884 63.5986 12.8705 63.5591 12.8527C63.5503 12.8488 63.5415 12.8447 63.5327 12.8406C63.5217 12.8354 63.5107 12.8301 63.5 12.8246C63.4797 12.8168 63.4597 12.8085 63.4397 12.7997C63.4187 12.7905 63.3979 12.7815 63.377 12.7723C63.3655 12.7673 63.3538 12.7623 63.3423 12.7573L63.3198 12.7477C63.2996 12.739 63.2798 12.7299 63.2603 12.7205C63.2397 12.7129 63.2195 12.705 63.1992 12.6964C63.1592 12.6796 63.1189 12.6627 63.0784 12.6461C63.0581 12.6378 63.0381 12.629 63.0183 12.6199C62.9978 12.6127 62.9775 12.605 62.957 12.5967C62.9167 12.5804 62.8762 12.5643 62.8359 12.5485C62.8154 12.5404 62.7954 12.532 62.7756 12.5232C62.7551 12.5162 62.7346 12.5089 62.7141 12.5011C62.7004 12.4957 62.6865 12.4905 62.6729 12.4852L62.6543 12.4781C62.6335 12.4702 62.6128 12.4624 62.592 12.4546C62.5715 12.4469 62.5513 12.4387 62.5312 12.4302C62.5105 12.4236 62.49 12.4165 62.4692 12.4089C62.4285 12.3939 62.3875 12.379 62.3462 12.3643C62.3254 12.3568 62.3052 12.349 62.2852 12.3407C62.2642 12.3345 62.2434 12.3278 62.2227 12.3204C62.1816 12.3062 62.1404 12.2919 62.0994 12.2778C62.0786 12.2708 62.0581 12.2632 62.0378 12.2554C62.0171 12.2494 61.9963 12.243 61.9756 12.2361C61.9343 12.2223 61.8928 12.2087 61.8513 12.1953C61.8306 12.1885 61.8098 12.1813 61.7896 12.1737C61.7686 12.1681 61.7476 12.162 61.7268 12.1554C61.6851 12.1422 61.6436 12.1293 61.6018 12.1163C61.5808 12.1099 61.5601 12.103 61.5396 12.0957C61.5183 12.0903 61.4973 12.0846 61.4763 12.0782C61.4346 12.0658 61.3928 12.0535 61.3508 12.0413C61.3298 12.0352 61.3091 12.0286 61.2886 12.0216C61.2676 12.0167 61.2463 12.0112 61.2253 12.0052Q61.1626 11.9875 61.0994 11.9702C61.0784 11.9644 61.0574 11.9581 61.0369 11.9514C61.0156 11.9469 60.9944 11.9418 60.9731 11.936C60.9309 11.9248 60.8887 11.9138 60.8464 11.9028C60.8252 11.8973 60.8042 11.8914 60.7832 11.885C60.762 11.8807 60.7407 11.8759 60.7192 11.8706C60.699 11.8655 60.6787 11.8604 60.6582 11.8553C60.6362 11.85 60.6143 11.8446 60.5923 11.8392C60.571 11.8341 60.5498 11.8285 60.5291 11.8225C60.5078 11.8185 60.4866 11.8141 60.4653 11.8091C60.4229 11.7992 60.3804 11.7894 60.3379 11.7798C60.3164 11.775 60.2954 11.7697 60.2744 11.7639C60.2529 11.7603 60.2317 11.7561 60.2102 11.7515C60.1675 11.7422 60.1248 11.733 60.082 11.7241C60.0605 11.7196 60.0393 11.7146 60.0181 11.7091C59.9966 11.7058 59.9751 11.702 59.9536 11.6976C59.9324 11.6934 59.9109 11.6891 59.8896 11.6848C59.8682 11.6805 59.8464 11.6764 59.825 11.6721C59.8035 11.668 59.7822 11.6633 59.7612 11.6582C59.7397 11.6553 59.7183 11.6517 59.6968 11.6478C59.6538 11.6398 59.6111 11.632 59.5681 11.6244C59.5466 11.6205 59.5251 11.6162 59.5039 11.6115C59.4824 11.6088 59.4609 11.6056 59.4392 11.6018C59.3962 11.5945 59.3533 11.5874 59.3101 11.5803C59.2883 11.5768 59.2668 11.5728 59.2456 11.5684C59.2239 11.5659 59.2021 11.5631 59.1804 11.5597C59.1372 11.5531 59.094 11.5465 59.0505 11.5402C59.0288 11.537 59.0076 11.5333 58.9861 11.5292C58.9646 11.5271 58.9429 11.5247 58.9214 11.5216C58.8782 11.5156 58.835 11.5098 58.7917 11.504C58.77 11.5012 58.7485 11.4978 58.7273 11.494C58.7056 11.4923 58.6838 11.4901 58.6621 11.4874C58.6189 11.4821 58.5754 11.4768 58.532 11.4718C58.5103 11.4692 58.4885 11.4662 58.467 11.4626C58.4453 11.4613 58.4236 11.4595 58.4016 11.457C58.3582 11.4524 58.3147 11.4478 58.271 11.4434C58.2493 11.4412 58.2275 11.4385 58.2061 11.4353C58.1843 11.4342 58.1624 11.4327 58.1406 11.4307C58.114 11.4282 58.0874 11.4258 58.061 11.4233C58.0442 11.4219 58.0273 11.4204 58.0105 11.4189C58.0002 11.4181 57.99 11.4171 57.9797 11.416C57.9683 11.4148 57.9568 11.4133 57.9456 11.4119C57.9326 11.4115 57.9194 11.4109 57.9065 11.41C57.8977 11.4095 57.8889 11.4089 57.8801 11.4082C57.8367 11.4048 57.7932 11.4016 57.7495 11.3984C57.7278 11.397 57.7058 11.3949 57.6843 11.3923C57.6626 11.392 57.6406 11.3911 57.6187 11.3896C57.575 11.387 57.5312 11.3843 57.4875 11.3818C57.4656 11.3806 57.4436 11.3789 57.4219 11.3767C57.4001 11.3766 57.3782 11.3761 57.356 11.375C57.3127 11.3729 57.2693 11.371 57.2256 11.3691C57.2039 11.3683 57.1821 11.3669 57.1604 11.365C57.1531 11.3651 57.1458 11.3651 57.1384 11.3651C57.124 11.3651 57.1096 11.3647 57.095 11.3643C57.0684 11.3634 57.0417 11.3625 57.0149 11.3618L56.9895 11.3611L56.9641 11.3605C56.9421 11.3599 56.9204 11.3588 56.8987 11.3572C56.877 11.3578 56.855 11.3579 56.833 11.3575C56.7893 11.3567 56.7454 11.3561 56.7017 11.3556C56.6797 11.3553 56.6577 11.3545 56.6357 11.3533C56.614 11.3542 56.592 11.3546 56.5701 11.3545L56.5518 11.3545C56.5359 11.3545 56.52 11.3544 56.5042 11.3544ZM73.0852 32.8999C73.0732 32.834 73.0657 32.7665 73.0632 32.6976L73.0627 32.6909C73.062 32.6768 73.0603 32.6509 73.0571 32.6139C73.0508 32.5399 73.0391 32.4224 73.0178 32.2672C72.9751 31.9567 72.8948 31.4989 72.7449 30.9432C72.4443 29.8293 71.8708 28.3433 70.7827 26.8594C68.7346 24.0662 64.688 21.0449 56.5042 20.8285C48.3201 21.0449 44.2737 24.0662 42.2253 26.8594C41.1372 28.3433 40.564 29.8293 40.2634 30.9432C40.1135 31.4989 40.033 31.9567 39.9902 32.2672C39.969 32.4224 39.9573 32.5399 39.9509 32.6139C39.9502 32.6246 39.9495 32.6344 39.9487 32.6433L39.9702 32.6433C39.9702 38.311 41.5708 42.22 44.3613 45.0941C47.1765 47.9935 51.3394 49.9838 56.7659 51.5106C61.9468 49.986 65.9905 47.9996 68.7483 45.1014C71.4446 42.2679 73.0376 38.4282 73.0852 32.8999ZM66.2686 33.5903C65.5979 33.5836 64.7976 33.8965 63.5386 34.9335C63.1353 35.2656 62.5391 35.208 62.2068 34.8046C62.0618 34.6284 61.991 34.4154 61.991 34.2036C61.991 33.9307 62.1084 33.6598 62.3357 33.4728C63.7051 32.3447 64.9417 31.6846 66.2876 31.6981C67.6082 31.7113 68.8135 32.3761 70.1064 33.2933C70.3665 33.4778 70.5051 33.7695 70.5051 34.0658C70.5051 34.2551 70.4485 34.4463 70.3306 34.6124C70.0283 35.0387 69.4377 35.139 69.0115 34.8367C67.7559 33.9459 66.9646 33.5973 66.2686 33.5903ZM45.967 36.4384C45.8276 36.5389 45.6821 36.649 45.5298 36.7692C45.1196 37.0929 44.5247 37.0228 44.2009 36.6125C44.064 36.439 43.9973 36.2323 43.9973 36.0271C43.9973 35.7473 44.1208 35.4705 44.3574 35.2837C45.7502 34.1846 47.0002 33.5503 48.3455 33.5918C49.6655 33.6326 50.8569 34.3223 52.1304 35.2664C52.3809 35.4519 52.5132 35.7377 52.5132 36.0272C52.5132 36.223 52.4526 36.4205 52.3269 36.5898C52.0159 37.0096 51.4233 37.0978 51.0034 36.7865C49.7666 35.8698 48.9829 35.5048 48.2871 35.4833C48.1089 35.4778 47.9209 35.4946 47.717 35.5415C48.302 35.7167 48.7283 36.2592 48.7283 36.9012C48.7283 37.6851 48.093 38.3204 47.3091 38.3204C46.5251 38.3204 45.8899 37.6851 45.8899 36.9012C45.8899 36.7391 45.917 36.5834 45.967 36.4384ZM65.2864 38.321C64.5027 38.321 63.8672 37.6857 63.8672 36.9017C63.8672 36.1179 64.5027 35.4825 65.2864 35.4825C66.0703 35.4825 66.7056 36.1179 66.7056 36.9017C66.7056 37.6857 66.0703 38.321 65.2864 38.321ZM52.9861 42.1055C52.9861 41.3217 53.6216 40.6862 54.4055 40.6862L57.2439 40.6862C58.0278 40.6862 58.6633 41.3217 58.6633 42.1055C58.6633 42.8893 58.0278 43.5247 57.2439 43.5247L54.4055 43.5247C53.6216 43.5247 52.9861 42.8893 52.9861 42.1055ZM46.8362 50.5505L46.8362 53.4598C46.8362 53.6257 46.8076 53.7849 46.7554 53.933C46.8076 54.0809 46.8362 54.2401 46.8362 54.4061C46.8362 58.3937 50.981 62.4486 56.5393 62.4486C59.2734 62.4486 61.8542 61.4423 63.7368 59.8975C65.6218 58.3508 66.697 56.3672 66.7058 54.4302C66.7056 54.4218 66.7056 54.4133 66.7056 54.4048C66.7056 54.2867 66.7205 54.1676 66.7507 54.0505C66.761 54.0106 66.7729 53.9714 66.7866 53.933C66.7344 53.7849 66.7058 53.6257 66.7058 53.4598L66.7058 50.3521C64.033 52.0155 60.8918 53.2642 57.4287 54.2743C57.0076 54.3972 56.5571 54.3995 56.1353 54.2819C52.6558 53.3112 49.5166 52.1202 46.8362 50.5505ZM25.0737 63.3948C25.8577 63.3948 26.4932 64.0302 26.4932 64.8141L26.4932 69.5449C26.4932 70.3287 25.8577 70.9642 25.0737 70.9642C24.29 70.9642 23.6545 70.3287 23.6545 69.5449L23.6545 64.8141C23.6545 64.0302 24.29 63.3948 25.0737 63.3948ZM15.5547 67.5951C16.1089 67.0408 17.0076 67.0408 17.562 67.5951L20.9072 70.9403C21.1843 71.2174 21.3228 71.5807 21.3228 71.9438C21.3228 72.3071 21.1843 72.6703 20.9072 72.9474C20.3528 73.5017 19.4543 73.5017 18.8999 72.9474L15.5547 69.6022C15.2776 69.3251 15.1392 68.9618 15.1392 68.5986C15.1392 68.2354 15.2776 67.8722 15.5547 67.5951ZM35.5154 69.545C35.5154 69.9082 35.377 70.2715 35.0999 70.5486L31.7546 73.8939C31.2002 74.4481 30.3018 74.4481 29.7473 73.8939C29.4702 73.6167 29.3318 73.2535 29.3318 72.8903C29.3318 72.5271 29.4702 72.1638 29.7473 71.8867L33.0925 68.5415C33.647 67.9872 34.5454 67.9872 35.0999 68.5415C35.377 68.8186 35.5154 69.1818 35.5154 69.545ZM25.074 81.8453C22.4612 81.8453 20.343 79.7272 20.343 77.1144C20.343 74.5016 22.4612 72.3834 25.074 72.3834C27.6868 72.3834 29.8047 74.5016 29.8047 77.1144C29.8047 79.7272 27.6868 81.8453 25.074 81.8453ZM0.672852 75.9075C1.33936 75.495 2.21411 75.701 2.62646 76.3677L13.3328 93.6725L31.6973 93.6725C32.481 93.6725 33.1165 94.308 33.1165 95.0918C33.1165 95.8756 32.481 96.5111 31.6973 96.5111L13.0691 96.5111C12.2498 96.5111 11.4888 96.087 11.0576 95.3901L0.212402 77.8611C0.0686035 77.6284 0 77.3705 0 77.1157C0 76.6404 0.23877 76.1759 0.672852 75.9075ZM18.9238 77.1144C18.9238 77.8982 18.2883 78.5336 17.5044 78.5336L12.7737 78.5336C11.9897 78.5336 11.3542 77.8982 11.3542 77.1144C11.3542 76.3304 11.9897 75.6951 12.7737 75.6951L17.5044 75.6951C18.2883 75.6951 18.9238 76.3304 18.9238 77.1144ZM38.7935 77.1144C38.7935 77.8982 38.158 78.5336 37.3743 78.5336L32.6433 78.5336C31.8594 78.5336 31.2241 77.8982 31.2241 77.1144C31.2241 76.3304 31.8594 75.6951 32.6433 75.6951L37.3743 75.6951C38.158 75.6951 38.7935 76.3304 38.7935 77.1144ZM20.9072 81.788C21.1843 82.0651 21.3228 82.4283 21.3228 82.7915C21.3228 83.1548 21.1843 83.5179 20.9072 83.7952L17.5618 87.1404C17.0076 87.6946 16.1089 87.6946 15.5547 87.1404C15.2776 86.8633 15.1392 86.5 15.1392 86.1368C15.1392 85.7736 15.2776 85.4103 15.5547 85.1332L18.8999 81.788C19.4543 81.2338 20.3528 81.2338 20.9072 81.788ZM28.8013 81.788C29.3555 81.2338 30.2542 81.2338 30.8083 81.788L34.1536 85.1332C34.4307 85.4103 34.5693 85.7736 34.5693 86.1368C34.5693 86.5 34.4307 86.8633 34.1536 87.1404C33.5994 87.6946 32.7007 87.6946 32.1465 87.1404L28.8013 83.7952C28.5239 83.5179 28.3855 83.1548 28.3855 82.7915C28.3855 82.4283 28.5239 82.0651 28.8013 81.788ZM26.4932 84.6838L26.4932 89.4148C26.4932 90.1986 25.8577 90.8341 25.0737 90.8341C24.29 90.8341 23.6545 90.1986 23.6545 89.4148L23.6545 84.6838C23.6545 83.9 24.29 83.2646 25.0737 83.2646C25.8577 83.2646 26.4932 83.9 26.4932 84.6838ZM52.9861 132.699L50.1477 132.699L50.1477 137.197L52.9861 137.197L52.9861 132.699ZM66.2329 132.699L55.8247 132.699L55.8247 139.553L55.8247 139.562L55.8247 148.79C55.9324 148.709 56.0476 148.637 56.1699 148.574L58.8679 147.199L65.3667 143.112L65.3667 139.562C65.3667 138.825 65.7041 138.166 66.2329 137.732L66.2329 132.699ZM71.9099 132.699L69.0713 132.699L69.0713 137.197L71.9099 137.197L71.9099 132.699ZM52.9861 140.035L49.2815 140.035L49.2815 143.373C49.2815 144.186 48.864 144.943 48.1755 145.375L41.3472 149.67L39.8311 150.443L45.3779 150.443L48.6543 148.623C50.1572 147.788 51.988 148.786 52.1558 150.443L52.9861 150.443L52.9861 140.035ZM68.2053 140.035L68.2053 143.373C68.2053 144.186 67.7876 144.943 67.0991 145.375L60.271 149.67L58.7546 150.443L64.3015 150.443L67.5779 148.623C69.0811 147.788 70.9119 148.786 71.0796 150.443L71.9099 150.443L71.9099 140.035L68.2053 140.035Z" fill-rule="evenodd" fill="#000000"/>
</svg>
