<svg width="144.000488" height="154.369507" viewBox="0 0 144 154.37" fill="none" xmlns="http://www.w3.org/2000/svg" xmlns:xlink="http://www.w3.org/1999/xlink">
	<desc>
			Created with Pixso.
	</desc>
	<defs/>
	<path id="Foreign languages" d="M140.339 22.9316C139.907 22.6877 139.46 22.4395 139.012 22.1909C136.499 20.7949 133.978 19.3947 133.978 18.7629C133.978 18.7405 133.981 18.719 133.988 18.6985C134.432 17.2959 134.667 15.8386 134.667 14.3676C134.667 13.0087 134.467 11.6381 134.047 10.2881C131.572 2.32104 122.395 -1.90967 113.549 0.838501C106.202 3.12109 101.395 9.49988 101.395 16.1606C101.395 17.5195 101.595 18.8903 102.015 20.2402C104.49 28.2073 113.667 32.438 122.513 29.6897C125.575 28.7384 128.196 27.0753 130.211 24.9769C130.618 24.5532 133.753 24.9493 136.93 25.3508C137.786 25.459 138.645 25.5675 139.454 25.6605C140.074 25.7318 140.666 25.7939 141.205 25.8398C142.706 25.9677 143.798 25.9691 143.971 25.689C143.991 25.6564 144 25.6205 144 25.5817C144 25.2123 143.117 24.572 141.874 23.8214C141.404 23.5377 140.883 23.2382 140.339 22.9316ZM121.679 27.0059C114.045 29.3778 106.633 25.634 104.698 19.4064C104.372 18.3546 104.214 17.2726 104.214 16.1893C104.214 10.8583 108.038 5.49365 114.383 3.52234C122.017 1.15051 129.428 4.89429 131.363 11.1219C131.696 12.1925 131.856 13.2825 131.856 14.3684C131.856 15.5432 131.669 16.7134 131.309 17.8492C131.206 18.1721 131.166 18.4785 131.166 18.7614C131.166 19.5204 131.457 20.1105 131.626 20.3962C131.884 20.8308 132.204 21.1556 132.42 21.3574C132.702 21.6195 133.029 21.8716 133.361 22.1053C133.188 22.0891 133.019 22.0742 132.854 22.0608C132.183 22.0063 131.502 21.97 130.919 21.9902C130.634 22.0002 130.275 22.0264 129.91 22.1042C129.671 22.1552 128.853 22.3339 128.185 23.03C126.498 24.7861 124.287 26.1956 121.679 27.0059ZM84.2744 4.53418C73.5168 3.34155 65.542 3.11804 60.0132 4.51538C57.2148 5.22253 54.9473 6.36682 53.2627 8.0929C51.5688 9.82849 50.5708 12.0428 50.1274 14.6973C50.1057 14.8268 50.0955 14.9545 50.0955 15.0798C50.0955 16.0646 50.7375 16.897 51.6165 17.2122L50.9058 23.4419C50.8953 23.5336 50.8901 23.6245 50.8901 23.7146C50.8901 24.9081 51.7869 25.9346 53.002 26.0693L53.2075 26.0922C53.325 26.1051 53.4412 26.1094 53.5559 26.1052L53.5559 28.7863C53.5559 29.212 53.5645 29.6304 53.5811 30.0416C51.1572 30.7474 49.1628 32.653 49.1628 35.1986C49.1628 35.262 49.1641 35.3258 49.1665 35.39C49.2935 38.6514 52.5896 40.667 55.8037 40.5454C55.8928 40.542 55.9827 40.5393 56.0737 40.5366L56.0742 40.5366C56.25 40.5314 56.4297 40.526 56.6128 40.5154C57.2627 41.5233 58.0132 42.4546 58.8613 43.3153C59.269 43.7294 59.6978 44.125 60.146 44.5035C60.1362 44.571 60.1311 44.6399 60.1311 44.71L60.1311 48.9655C60.123 49.0267 60.1189 49.0892 60.1189 49.1527C60.1189 49.8218 60.1934 50.4781 60.3352 51.1166L53.6833 53.5563C53.2578 53.7124 52.8862 53.9849 52.6121 54.3417L43.1938 66.6029L42.1333 59.27C42.0688 58.8248 41.8828 58.4261 41.6128 58.1019L41.3489 51.6371C41.3323 51.228 41.2095 50.8407 41.0034 50.5055C40.9587 50.1355 40.7668 49.783 40.4417 49.54L35.3044 45.7057C34.6704 45.2324 33.7686 45.3547 33.2903 45.9789C33.0947 46.2341 33.0002 46.5338 33.0002 46.8312C33.0002 46.9965 33.0293 47.1611 33.0867 47.317L28.9321 45.9573L26.2673 45.4243C25.6631 45.3035 24.5803 45.376 24.0015 46.3591C23.6995 46.8717 23.5229 47.4968 23.5229 48.2112C23.5229 49.1797 23.8477 50.3125 24.6255 51.5521C25.1316 52.3583 25.9246 52.9452 26.7275 53.3796C27.5464 53.8229 28.4927 54.17 29.4468 54.444C31.1831 54.9424 33.0872 55.2375 34.6157 55.3905L34.3833 57.9432L32.3381 58.2219C31.1357 58.3856 30.2747 59.4 30.2747 60.5544C30.2747 60.6968 30.2878 60.8413 30.3149 60.9866L33.8262 79.7621C34.113 81.2957 35.7993 82.1442 37.2234 81.4713L52.8669 74.0801C52.8665 74.2391 52.8662 74.4045 52.8657 74.5754C52.8647 75.0735 52.8643 75.6177 52.8643 76.1832C52.8643 77.3141 52.8667 78.5302 52.8748 79.6327C52.8877 81.4034 52.9971 82.665 53.5879 83.8046C54.0806 84.7546 54.8862 85.5433 55.8474 86.4846C55.9622 86.5969 56.0791 86.7114 56.198 86.8286C57.4241 88.0371 58.8127 88.9747 59.636 89.4844L59.636 127.766C59.5955 127.899 59.5735 128.039 59.5735 128.185L59.5735 133.611C58.7217 133.973 58.1245 134.818 58.1245 135.802L58.1245 141.761C57.0198 142.052 55.2363 142.597 53.5442 143.451C51.7571 144.354 49.676 145.798 49.0093 148.005C48.7898 148.732 48.7209 149.575 48.7209 150.355C48.7209 151.133 48.7896 151.848 48.8457 152.323C48.9902 153.544 50.0334 154.369 51.1721 154.369L59.4775 154.369C60.3394 154.369 61.1338 153.904 61.5547 153.152L66.1077 145.017L66.1077 152.941C66.1077 153.73 66.7471 154.37 67.5359 154.37C67.6584 154.37 67.7776 154.354 67.8911 154.325C68.0046 154.354 68.1235 154.37 68.2461 154.37C68.3286 154.37 68.4092 154.363 68.4878 154.349C68.5662 154.363 68.647 154.37 68.7292 154.37C69.5181 154.37 70.1575 153.73 70.1575 152.941L70.1575 134.865L70.1575 134.85L70.1575 128.604C70.198 128.471 70.22 128.331 70.22 128.185C70.22 128.109 70.2139 128.034 70.2024 127.961L73.2661 105.998L74.8804 105.998L77.9888 128.282L77.9888 152.941C77.9888 153.73 78.6282 154.37 79.417 154.37C79.4995 154.37 79.5801 154.363 79.6587 154.349C79.7371 154.363 79.8179 154.37 79.9001 154.37C80.0227 154.37 80.1416 154.354 80.2551 154.325C80.3687 154.354 80.4878 154.37 80.6104 154.37C81.3992 154.37 82.0386 153.73 82.0386 152.941L82.0386 145.017L86.5913 153.152C87.0122 153.904 87.8069 154.369 88.6687 154.369L96.9741 154.369C98.1128 154.369 99.1558 153.544 99.3005 152.323C99.3567 151.848 99.4253 151.133 99.4253 150.355C99.4253 149.575 99.3562 148.732 99.137 148.005C98.4702 145.798 96.3889 144.354 94.6021 143.451C92.9099 142.597 91.1265 142.052 90.0215 141.761L90.0215 135.802C90.0215 134.818 89.4246 133.973 88.5728 133.611L88.5728 88.621C89.1572 88.1376 89.8521 87.5284 90.562 86.8286C90.9285 86.4672 91.2087 86.2037 91.478 85.9506L91.4783 85.9503C91.6804 85.7601 91.8765 85.5758 92.0981 85.3604C92.5449 84.926 92.9773 84.4731 93.3333 83.9403C94.0969 82.7968 94.3545 81.5184 94.3682 79.6327C94.376 78.5304 94.3787 77.3145 94.3787 76.1837C94.3787 75.618 94.3782 75.0736 94.3772 74.5754L94.3765 74.3047L109.545 81.4716C110.969 82.1444 112.656 81.296 112.942 79.7625L116.454 60.9868C116.481 60.8416 116.494 60.697 116.494 60.5547C116.494 59.4003 115.633 58.386 114.43 58.2222L112.385 57.9436L112.153 55.3906C113.681 55.2377 115.585 54.9425 117.322 54.4441C118.276 54.1703 119.222 53.823 120.041 53.3799C120.844 52.9453 121.637 52.3584 122.143 51.5522C122.921 50.3126 123.246 49.1798 123.246 48.2113C123.246 47.4969 123.069 46.8719 122.767 46.3593C122.188 45.3762 121.105 45.3036 120.501 45.4244L117.836 45.9574L113.682 47.3171C113.739 47.1613 113.768 46.9966 113.768 46.8312C113.768 46.5338 113.674 46.2341 113.478 45.9789C113 45.3547 112.098 45.2324 111.464 45.7057L106.327 49.54C106.001 49.783 105.81 50.1355 105.765 50.5056C105.559 50.8409 105.436 51.2281 105.419 51.6372L105.156 58.1025C104.886 58.4265 104.7 58.8252 104.635 59.2703L103.575 66.6033L94.1785 54.3707C93.8701 53.9691 93.4392 53.6758 92.949 53.5333L85.8303 51.4662C86.043 50.7205 86.1577 49.9462 86.1577 49.1527L86.1577 49.145L86.1577 44.8855C86.7688 44.3892 87.3459 43.8623 87.887 43.3021C88.7231 42.4364 89.4644 41.4995 90.1069 40.4849C90.4341 40.5186 90.7522 40.5339 91.0547 40.5454C94.2688 40.667 97.5647 38.6514 97.6919 35.39C97.6943 35.3258 97.6956 35.262 97.6956 35.1986C97.6956 32.5894 95.6001 30.6526 93.095 29.991C93.1025 29.793 93.1084 29.5931 93.1121 29.3917C93.116 29.3491 93.1179 29.306 93.1179 29.2625L93.1179 19.2646C93.1179 19.0784 93.0823 18.9005 93.0173 18.7373C93.7383 17.9496 94.2561 16.9852 94.387 15.8383C94.4404 15.3704 94.4702 14.9166 94.4702 14.4785C94.4702 13.3324 94.2661 12.293 93.7454 11.3862C93.0122 10.1097 91.801 9.35059 90.3694 8.83398L89.668 8.57288C89.4775 7.25854 88.6997 6.28613 87.7065 5.64404C86.7244 5.00916 85.5056 4.67078 84.2744 4.53418ZM121.604 6.66528L121.604 6.66089C121.604 5.88464 120.976 5.26709 120.199 5.28076C119.421 5.29456 118.788 5.93652 118.786 6.71484L118.781 8.42847L118.781 8.43274C118.781 9.20898 119.408 9.82654 120.185 9.81287C120.963 9.79919 121.596 9.1571 121.598 8.37878L121.604 6.66528ZM117.186 6.73889C117.186 5.96265 116.558 5.34509 115.781 5.35876C115.003 5.37244 114.37 6.01453 114.368 6.79285L114.363 8.50635L114.363 8.51074C114.363 9.28699 114.99 9.90454 115.767 9.89075C116.545 9.87708 117.178 9.23511 117.181 8.45679L117.186 6.74316L117.186 6.73889ZM54.5242 16.793C54.5242 15.828 53.9236 14.9749 53.0432 14.636C53.4443 12.6904 54.2 11.2158 55.3052 10.0834C56.5166 8.84229 58.2546 7.90308 60.7058 7.28357C65.6763 6.02734 73.1775 6.17798 83.9507 7.37231C84.9109 7.47876 85.6587 7.72583 86.1489 8.04297C86.6089 8.34021 86.7986 8.66064 86.8435 9.01611C86.938 9.76453 87.3782 10.7706 88.4546 11.1715L89.3784 11.5155L89.3857 11.5181C90.4878 11.9149 90.9985 12.3477 91.2659 12.8132C91.4705 13.1697 91.6128 13.6838 91.6128 14.4865C91.6128 14.7888 91.5925 15.1322 91.5479 15.5234C91.4509 16.3723 90.7278 17.2788 89.2632 17.9733C87.8384 18.649 86.0247 18.9535 84.4502 18.7789L73.78 17.5959C67.6963 16.9215 63.4351 16.8342 60.2456 17.7043C57.4141 18.4768 55.5073 19.9769 53.9238 22.1893L54.509 17.059C54.5193 16.9696 54.5242 16.8807 54.5242 16.793ZM5.65625 24.6573C5.16064 24.8032 4.66504 24.9491 4.18506 25.0935C3.58594 25.2738 3.01099 25.4521 2.48901 25.6261C1.03906 26.1096 0 26.5598 0 26.9272C0 26.9479 0.00317383 26.9684 0.0100098 26.9885C0.113037 27.2985 1.18848 27.5311 2.69287 27.7285C3.22925 27.7988 3.81982 27.8646 4.44067 27.9279C5.24292 28.0095 6.09521 28.0868 6.94434 28.1639L6.94482 28.1639C10.1323 28.4531 13.2771 28.7384 13.5742 29.2358C15.0459 31.6996 17.209 33.8706 19.9683 35.4462C27.9382 39.9976 37.8643 37.8573 42.1382 30.6655C43.459 28.4432 44.0854 25.9985 44.0854 23.5469C44.0854 18.0648 40.9531 12.5477 35.4458 9.40283C27.4756 4.85144 17.5496 6.9917 13.2756 14.1835C11.9548 16.4058 11.3284 18.8505 11.3284 21.3021C11.3284 21.65 11.3411 21.9982 11.366 22.3458Q11.3667 22.3529 11.3667 22.3601C11.3667 22.9772 8.50684 23.8186 5.65625 24.6573ZM39.6978 29.2719C36.3391 34.9235 28.2441 36.9364 21.4041 33.0303C19.0627 31.6934 17.2461 29.8624 16.0178 27.8062C15.5222 26.9764 14.7546 26.6226 14.5312 26.521C14.1899 26.3656 13.8428 26.2627 13.5659 26.1918C13 26.0469 12.3264 25.9364 11.6592 25.8458C11.5107 25.8257 11.3577 25.8059 11.2007 25.7864C11.583 25.6294 11.9648 25.4531 12.304 25.2574C12.562 25.1083 12.9465 24.8632 13.2959 24.5004C13.5903 24.1943 14.1985 23.447 14.1985 22.3439C14.1985 22.2723 14.1958 22.1992 14.1904 22.1248C14.1702 21.842 14.1599 21.5594 14.1599 21.2776C14.1599 19.2972 14.665 17.3455 15.7161 15.577C19.075 9.92554 27.1699 7.9126 34.01 11.8187C38.731 14.5148 41.2446 19.1112 41.2446 23.5586C41.2446 25.5549 40.7383 27.5211 39.6978 29.2719ZM117.937 23.0082C121.597 22.9437 124.572 20.0144 124.583 16.4655L124.583 16.4464C124.583 12.9064 121.629 10.0919 117.975 10.1562C114.315 10.2207 111.34 13.1499 111.329 16.6989L111.329 16.7179C111.329 20.2579 114.284 23.0725 117.937 23.0082ZM121.765 16.5151C121.759 18.426 120.132 20.1512 117.945 20.1897C115.763 20.2281 114.147 18.566 114.147 16.6593L114.147 16.6493C114.153 14.7384 115.781 13.0132 117.967 12.9746C120.149 12.9362 121.765 14.5984 121.765 16.505L121.765 16.5151ZM25.803 16.0607L26.3167 16.4666C26.9329 16.9535 27.8198 16.8579 28.2976 16.2528C28.4971 16.0001 28.5935 15.6987 28.5935 15.3977C28.5935 14.9778 28.4055 14.559 28.0464 14.2753L27.1697 13.5824C26.1599 12.7844 24.7102 12.9232 23.9033 13.895L23.2029 14.7388C22.9895 14.9957 22.8857 15.308 22.8857 15.6201C22.8857 16.0284 23.0635 16.4366 23.406 16.7208C24.0107 17.2224 24.9001 17.1481 25.3926 16.5549L25.803 16.0607ZM25.0215 17.9491C23.821 18.064 22.9355 19.0614 22.9355 20.2365C22.9355 20.3254 22.9407 20.4155 22.9512 20.5062L23.9187 28.9407C24.0667 30.2294 25.2332 31.174 26.5244 31.0504L30.8762 30.6339C31.5964 30.5651 32.1277 29.9666 32.1277 29.2616C32.1277 29.2081 32.1245 29.1541 32.1184 29.0996C32.0298 28.3264 31.3296 27.7598 30.5549 27.8339L26.6709 28.2056L26.4011 25.8551L28.3628 25.6674C29.083 25.5984 29.6143 25 29.6143 24.2949C29.6143 24.2416 29.6111 24.1875 29.605 24.1331C29.5164 23.3599 28.8162 22.7931 28.0415 22.8673L26.0798 23.0549L25.8103 20.7045L29.6943 20.3328C30.4146 20.2639 30.9458 19.6654 30.9458 18.9604C30.9458 18.907 30.9429 18.853 30.9365 18.7986C30.8479 18.0253 30.1479 17.4586 29.3733 17.5327L25.0215 17.9491ZM60.896 41.3105C58.0449 38.4169 56.4126 34.4852 56.4126 28.7863L56.4126 24.0254C56.4126 23.9045 56.3975 23.7874 56.3694 23.6753C57.6125 21.994 58.989 21.0049 60.99 20.459C63.6016 19.7465 67.3733 19.7596 73.4563 20.4341L84.1262 21.6171C86.1467 21.8411 88.396 21.4857 90.2615 20.6537L90.2615 28.7863C90.2615 34.4841 88.6292 38.4214 85.8323 41.3179C83.0125 44.238 78.8765 46.2393 73.5798 47.7748C68.032 46.2371 63.7744 44.2321 60.896 41.3105ZM63.4568 30.1777C64.1511 30.171 64.9731 30.4908 66.2585 31.5345C66.6667 31.866 67.2664 31.8038 67.5979 31.3955C67.7412 31.2191 67.811 31.0068 67.811 30.7959C67.811 30.5189 67.6907 30.2444 67.459 30.0562C66.0601 28.9204 64.8027 28.2604 63.4385 28.2734C62.0989 28.2863 60.8735 28.9508 59.553 29.874C59.2883 30.0592 59.1465 30.3549 59.1465 30.6552C59.1465 30.8436 59.2021 31.0339 59.3184 31.2001C59.6196 31.631 60.2134 31.7361 60.6443 31.4347C61.925 30.5392 62.7375 30.1846 63.4568 30.1777ZM84.1802 33.0375C84.3276 33.1418 84.4817 33.2565 84.6428 33.382C85.0579 33.7048 85.6562 33.6301 85.979 33.2151C86.1143 33.0413 86.1797 32.8354 86.1797 32.6311C86.1797 32.3473 86.0535 32.0665 85.8123 31.8789C84.3901 30.7726 83.1191 30.1389 81.7554 30.1804C80.4165 30.2211 79.2051 30.911 77.9043 31.8616C77.6492 32.0481 77.5137 32.3376 77.5137 32.6312C77.5137 32.826 77.5735 33.0228 77.6973 33.1921C78.0076 33.6168 78.6033 33.7095 79.0278 33.3992C80.2896 32.4772 81.0945 32.1057 81.8135 32.0839C81.9966 32.0782 82.1892 32.0952 82.3977 32.142C81.7998 32.318 81.364 32.8641 81.364 33.5107C81.364 34.2996 82.0127 34.939 82.8127 34.939C83.613 34.939 84.2617 34.2996 84.2617 33.5107C84.2617 33.3448 84.2329 33.1855 84.1802 33.0375ZM63.0112 33.5107C63.0112 34.2996 63.6599 34.9391 64.46 34.9391C65.2603 34.9391 65.9089 34.2996 65.9089 33.5107C65.9089 32.7219 65.2603 32.0825 64.46 32.0825C63.6599 32.0825 63.0112 32.7219 63.0112 33.5107ZM94.8374 35.282C94.7966 36.3268 93.5984 37.6221 91.5427 37.6919C92.1394 36.228 92.5713 34.63 92.8303 32.8844C94.1392 33.3726 94.8384 34.3949 94.8384 35.2255C94.8384 35.2444 94.8381 35.2633 94.8374 35.282ZM53.8547 32.9536C54.1152 34.6681 54.5447 36.2402 55.137 37.6826C53.1907 37.5464 52.0605 36.2961 52.021 35.282C52.0203 35.2632 52.02 35.2444 52.02 35.2255C52.02 34.4324 52.6575 33.4644 53.8547 32.9536ZM72.6555 39.155C71.8667 39.155 71.2273 39.7944 71.2273 40.5833C71.2273 41.3721 71.8667 42.0115 72.6555 42.0115L75.5532 42.0115C76.342 42.0115 76.9814 41.3721 76.9814 40.5833C76.9814 39.7944 76.342 39.155 75.5532 39.155L72.6555 39.155ZM74.238 50.5579C77.5994 49.5918 80.6633 48.4089 83.3013 46.8566L83.3013 49.1528L83.3013 49.1595C83.2988 51.1058 82.2046 53.1083 80.2705 54.6725C78.3455 56.2297 75.7036 57.2462 72.9019 57.2462C67.3708 57.2462 63.2322 53.3918 62.9871 49.5151C62.9875 49.5004 62.9878 49.4856 62.9878 49.4708L62.9878 46.5317C65.8245 48.2506 69.1941 49.532 72.9536 50.5653C73.3726 50.6804 73.8193 50.6782 74.238 50.5579ZM38.4883 52.0715L38.7041 57.3547L37.3081 57.5449L37.5215 55.2003C37.5283 55.1273 37.5315 55.0549 37.5315 54.9833C37.5315 53.7327 36.5405 52.7131 35.3042 52.6062C33.8254 52.4784 31.9131 52.1996 30.2441 51.7206C29.4094 51.481 28.6782 51.2032 28.1064 50.8937C27.5186 50.5756 27.2073 50.282 27.0703 50.0636C26.5769 49.2773 26.4277 48.7144 26.4043 48.3446L28.197 48.7031L38.4883 52.0715ZM109.46 57.5452L108.064 57.3551L108.28 52.0717L118.571 48.7032L120.364 48.3447C120.341 48.7146 120.192 49.2776 119.698 50.0637C119.561 50.2821 119.25 50.5757 118.662 50.8938C118.09 51.2034 117.359 51.4811 116.524 51.7207C114.855 52.1997 112.943 52.4785 111.464 52.6064C110.228 52.7134 109.237 53.7328 109.237 54.9834C109.237 55.0551 109.24 55.1274 109.247 55.2004L109.46 57.5452ZM92.7417 70.5903C92.2437 70.6262 91.7781 70.9171 91.5459 71.3931C91.449 71.5917 91.4031 71.8014 91.4031 72.0078C91.4031 72.1965 91.4414 72.3824 91.5142 72.5546L91.5149 72.7377C91.5168 73.1937 91.519 73.8359 91.5205 74.5811C91.5215 75.0775 91.5222 75.6193 91.5222 76.1816C91.5222 77.3082 91.5195 78.5176 91.5117 79.6121C91.4998 81.2538 91.2744 81.8799 90.9578 82.3539C90.7734 82.6298 90.5166 82.9139 90.1069 83.3121C89.9753 83.4401 89.7976 83.6079 89.5964 83.798L89.5962 83.7983L89.5957 83.7987C89.2783 84.0985 88.9023 84.4535 88.5566 84.7943C87.3945 85.9397 86.2695 86.8229 85.7129 87.2397L61.4436 87.2397C60.8159 86.8688 59.3938 85.968 58.2034 84.7943L57.9961 84.5902C56.8501 83.4613 56.3953 83.0132 56.1238 82.4896C55.876 82.0115 55.7439 81.3688 55.7312 79.6121C55.7234 78.5181 55.7207 77.3093 55.7207 76.1831C55.7207 75.6202 55.7212 75.078 55.7224 74.5811C55.7239 73.8359 55.7261 73.1937 55.7278 72.7377C55.7288 72.5098 55.7297 72.3284 55.7302 72.2041L55.7312 72.0159L55.7312 72.0135L55.7312 72.0129L55.7312 72.0049C55.7312 71.2197 55.0969 70.5811 54.3108 70.5768C54.2312 70.5763 54.1531 70.5824 54.0769 70.5945C53.8201 70.5671 53.5527 70.6075 53.303 70.7256L36.5408 78.6454L33.2341 60.9644L39.3533 60.1309L40.5088 68.121C40.8098 70.2024 43.5083 70.8966 44.7937 69.2234L54.8223 56.1675L61.3596 53.7698C63.4507 57.4863 67.937 60.1027 72.9019 60.1027C76.375 60.1027 79.647 58.8508 82.0669 56.8934C83.0703 56.0818 83.9478 55.1301 84.6299 54.0765L91.9792 56.2108L101.975 69.2236C103.26 70.897 105.959 70.2026 106.26 68.1212L107.415 60.1311L113.534 60.9646L110.228 78.6456L93.8591 70.9119C93.6086 70.701 93.2849 70.5748 92.9321 70.5768C92.8674 70.5771 92.804 70.5818 92.7417 70.5903ZM62.4924 103.141L62.4924 90.0962L85.7163 90.0962L85.7163 103.141L62.4924 103.141ZM70.3818 105.998L67.4863 126.757L62.4924 126.757L62.4924 105.998L70.3818 105.998ZM85.7163 105.998L85.7163 126.757L80.6602 126.757L77.7644 105.998L85.7163 105.998ZM62.4924 131.992L62.4924 129.613L67.301 129.613L67.301 133.407L67.301 133.422L67.301 133.472C67.1428 133.439 66.979 133.422 66.811 133.422L62.4302 133.422L62.4302 132.411C62.4707 132.278 62.4924 132.137 62.4924 131.992ZM80.8455 129.613L85.7163 129.613L85.7163 133.422L81.3352 133.422C81.1672 133.422 81.0034 133.439 80.8455 133.472L80.8455 133.422L80.8455 133.417L80.8455 129.613ZM60.9812 136.278L60.9883 136.278L60.9939 136.278L61.0017 136.278C61.009 136.278 61.0164 136.278 61.0237 136.278L66.335 136.278L66.335 138.762L59.1985 151.513L51.6333 151.513C51.6001 151.136 51.5774 150.728 51.5774 150.331C51.5774 149.772 51.6221 149.234 51.7437 148.831C52.0479 147.825 53.1614 146.845 54.8323 146.001C56.4233 145.197 58.1667 144.693 59.1355 144.451C60.1833 144.19 60.9812 143.248 60.9812 142.107L60.9812 136.278ZM81.8113 136.278L87.1228 136.278C87.1301 136.278 87.1372 136.278 87.1445 136.278C87.1514 136.278 87.1582 136.278 87.165 136.278L87.165 142.107C87.165 143.248 87.9626 144.19 89.0105 144.451C89.9795 144.693 91.7227 145.197 93.314 146.001C94.9849 146.845 96.0984 147.825 96.4023 148.831C96.5242 149.234 96.5688 149.772 96.5688 150.331C96.5688 150.728 96.5461 151.136 96.5127 151.513L88.9478 151.513L81.8113 138.762L81.8113 136.278Z" fill-rule="evenodd" fill="#000000"/>
</svg>
