<svg width="60.049805" height="152.527588" viewBox="0 0 60.0498 152.528" fill="none" xmlns="http://www.w3.org/2000/svg" xmlns:xlink="http://www.w3.org/1999/xlink">
	<desc>
			Created with Pixso.
	</desc>
	<defs/>
	<path id="Missing limbs" d="M7.73755 26.6036C7.73755 26.7495 7.75757 26.8906 7.79468 27.0245C8.05835 33.197 10.0129 37.8875 13.4902 41.469C13.9878 41.9814 14.5139 42.4684 15.0671 42.9316L15.0671 47.469C15.0671 47.5514 15.0735 47.6322 15.0857 47.7112C6.01343 53.1179 0 63.0817 0 74.5382C0 75.0415 0.237549 75.4893 0.606689 75.7755C0.782959 76.1544 1.10669 76.4509 1.50391 76.5916L1.50391 106.504C1.50391 107.195 1.77881 107.859 2.26782 108.348L4.78662 110.867C5.27563 111.356 5.93896 111.63 6.63086 111.63L6.82471 111.63C7.30127 111.63 7.7478 111.503 8.13232 111.28L7.43799 115.941C7.20337 117.517 8.42432 118.933 10.0178 118.933L17.1531 118.933L17.1531 128.846C17.1531 130.289 18.3232 131.453 19.7612 131.453L20.283 131.453L20.283 150.754C20.283 151.618 20.9836 152.319 21.8479 152.319C22.7122 152.319 23.4128 151.618 23.4128 150.754L23.4128 131.453L23.9343 131.453C25.3748 131.453 26.5425 130.285 26.5425 128.845L26.5425 118.933L31.7598 118.933L31.7598 149.919C31.7598 151.359 32.9275 152.527 34.3679 152.527L47.2002 152.527C48.6406 152.527 49.8083 151.359 49.8083 149.919L49.8083 149.367C49.8083 148.308 49.1685 147.355 48.189 146.953L41.1492 144.07L41.1492 118.933L50.8679 118.933C52.4832 118.933 53.7102 117.48 53.439 115.888L49.6943 93.8875C51.042 93.7859 52.1038 92.6603 52.1038 91.2867L52.1038 76.1592L58.3633 76.1592C58.6206 76.1592 58.8635 76.097 59.0779 75.9869C59.6479 75.7533 60.0498 75.1926 60.0498 74.5382C60.0498 62.6683 52.7542 52.2659 43.2847 47.0171C43.2683 47.0082 43.2522 46.9995 43.2356 46.9911L43.2356 43.0139C43.8179 42.5217 44.3708 42.0026 44.8926 41.4543C48.5615 37.5986 50.5386 32.4595 50.5386 25.5601L50.5117 25.5601C50.5115 25.5427 50.511 25.5254 50.51 25.5082C50.5112 25.4823 50.512 25.4562 50.512 25.4299L50.512 25.2734C50.512 25.2472 50.5112 25.2211 50.51 25.1952C50.5112 25.1693 50.512 25.1432 50.512 25.1169L50.512 24.9604C50.512 24.9342 50.5112 24.9081 50.51 24.8822C50.5112 24.8563 50.512 24.8302 50.512 24.804L50.512 24.6475C50.512 24.6339 50.5117 24.6204 50.5115 24.6068C50.5112 24.5942 50.5107 24.5818 50.51 24.5692C50.5112 24.5433 50.512 24.5172 50.512 24.491L50.512 24.3345C50.512 24.3082 50.5112 24.2822 50.51 24.2562C50.5112 24.2303 50.512 24.2042 50.512 24.178L50.512 24.0215C50.512 23.9952 50.5112 23.9692 50.51 23.9432C50.5112 23.9174 50.512 23.8912 50.512 23.865L50.512 23.7085C50.512 23.6823 50.5112 23.6562 50.51 23.6302C50.5112 23.6044 50.512 23.5782 50.512 23.552L50.512 23.3955C50.512 23.3693 50.5112 23.3433 50.51 23.3173C50.5112 23.2914 50.512 23.2653 50.512 23.239L50.512 23.0825C50.512 23.0687 50.5117 23.0549 50.5115 23.0411C50.5112 23.0288 50.5107 23.0166 50.51 23.0043C50.5107 22.9913 50.5112 22.9783 50.5115 22.9652C50.5117 22.9521 50.512 22.9391 50.512 22.926L50.512 22.7695C50.512 22.7433 50.5112 22.7173 50.51 22.6913C50.5107 22.677 50.5112 22.6626 50.5117 22.6482C50.512 22.6365 50.512 22.6248 50.512 22.613L50.512 22.4565C50.512 22.4303 50.5112 22.4043 50.51 22.3783C50.5112 22.3524 50.512 22.3263 50.512 22.3L50.512 22.1436C50.512 22.1302 50.5117 22.1168 50.5115 22.1035C50.5112 22.0908 50.5107 22.078 50.51 22.0653C50.5112 22.0394 50.512 22.0133 50.512 21.9871L50.512 21.8307C50.512 21.8044 50.5112 21.7783 50.51 21.7523C50.5112 21.7264 50.512 21.7003 50.512 21.6742L50.512 21.5177C50.512 21.4915 50.5112 21.4653 50.51 21.4395C50.5112 21.4135 50.512 21.3873 50.512 21.3612L50.512 21.2047C50.512 21.1785 50.5112 21.1523 50.51 21.1265C50.5112 21.1005 50.512 21.0745 50.512 21.0482L50.512 20.8917C50.512 20.8655 50.5112 20.8394 50.51 20.8135C50.5112 20.7903 50.5117 20.767 50.512 20.7434C52.209 20.3688 53.7539 19.4692 54.9634 18.2817C58.6501 14.6622 58.7051 8.6936 55.0857 5.00684C51.6401 1.49744 46.0662 1.27881 42.3579 4.38794C42.3201 4.3595 42.2822 4.33105 42.2441 4.30286C42.2214 4.28601 42.1982 4.2699 42.175 4.25439C42.1533 4.23682 42.1311 4.2196 42.1084 4.20288C42.063 4.1698 42.0173 4.13684 41.9717 4.104C41.9487 4.08752 41.9255 4.07166 41.9021 4.05664C41.8801 4.03931 41.8574 4.02246 41.8345 4.00623C41.7886 3.97388 41.7427 3.94165 41.6968 3.90967C41.6736 3.89355 41.6501 3.87817 41.6262 3.8634C41.6042 3.84656 41.5813 3.83008 41.5581 3.81409C41.5117 3.78247 41.4653 3.75098 41.4187 3.7196C41.3953 3.70386 41.3716 3.68884 41.3474 3.67456C41.325 3.65796 41.302 3.64185 41.2786 3.62622C41.2317 3.59521 41.1846 3.56445 41.1375 3.53381C41.1138 3.51843 41.0898 3.50378 41.0654 3.48975C41.0427 3.47351 41.0195 3.45776 40.9958 3.44263C40.9485 3.41248 40.9011 3.38245 40.8538 3.35266C40.8298 3.33765 40.8057 3.32336 40.7812 3.30981C40.7583 3.29395 40.7349 3.27856 40.7109 3.26379C40.6631 3.23425 40.6152 3.20496 40.5671 3.1759C40.543 3.16125 40.5186 3.14734 40.4941 3.13416C40.4709 3.11865 40.447 3.10364 40.4229 3.08911C40.3745 3.06042 40.3262 3.03186 40.2776 3.00342C40.2532 2.98914 40.2288 2.97559 40.2039 2.96277C40.1804 2.94763 40.1565 2.93298 40.1318 2.91882C40.0833 2.89099 40.0347 2.86328 39.9858 2.83569C39.9614 2.82178 39.9365 2.80872 39.9116 2.79626C39.8879 2.78149 39.8638 2.76721 39.8391 2.75354C39.79 2.72632 39.741 2.69934 39.6917 2.67249C39.6667 2.65906 39.6418 2.64624 39.6165 2.63428C39.5928 2.61975 39.5684 2.60596 39.5435 2.59253C39.4939 2.56616 39.4441 2.53979 39.3945 2.51367C39.3694 2.50061 39.3442 2.48816 39.3188 2.47656C39.2947 2.46252 39.27 2.44897 39.2449 2.43604C39.1951 2.4104 39.1453 2.38501 39.0952 2.35974C39.0701 2.34705 39.0447 2.33508 39.019 2.32385C38.9949 2.31018 38.9702 2.29712 38.9448 2.28455C38.8945 2.25964 38.8442 2.23499 38.7937 2.21045C38.7683 2.19812 38.7427 2.18652 38.717 2.17566C38.6926 2.16235 38.6675 2.14966 38.6421 2.13745C38.5913 2.11328 38.5405 2.08936 38.4895 2.06567C38.4639 2.05371 38.4382 2.04248 38.4124 2.03198C38.3875 2.01904 38.3623 2.00671 38.3367 1.99487C38.2856 1.97168 38.2346 1.94861 38.1836 1.92566C38.158 1.91418 38.1321 1.90332 38.106 1.89331C38.0811 1.88074 38.0557 1.8689 38.03 1.85754C37.9788 1.83496 37.9272 1.81262 37.8757 1.79053C37.8499 1.77942 37.8237 1.76892 37.7976 1.75928C37.7725 1.74719 37.7468 1.7356 37.7207 1.72461C37.6689 1.70288 37.6172 1.68127 37.5652 1.65991C37.5391 1.64917 37.5127 1.63916 37.4863 1.62988C37.4612 1.61804 37.4353 1.60693 37.4089 1.59631C37.3572 1.57544 37.3052 1.55469 37.2532 1.53418C37.2268 1.52393 37.2004 1.51428 37.1741 1.50549C37.1487 1.49414 37.1228 1.4834 37.0964 1.47327C37.0442 1.45312 36.9919 1.43323 36.9395 1.41345C36.9131 1.40356 36.8865 1.39429 36.8599 1.38586C36.8342 1.37488 36.8081 1.3645 36.7817 1.35486C36.729 1.33545 36.6763 1.31628 36.6233 1.29736C36.5967 1.28772 36.5701 1.27893 36.5432 1.271C36.5173 1.26038 36.491 1.25037 36.4644 1.24097C36.4116 1.22253 36.3586 1.20422 36.3057 1.18616C36.2791 1.177 36.2522 1.1687 36.2256 1.16101C36.1997 1.15088 36.1733 1.14136 36.1465 1.13245C36.0935 1.11475 36.0403 1.09729 35.9868 1.07996C35.96 1.07129 35.9331 1.06335 35.9062 1.05615C35.8801 1.04626 35.8535 1.03711 35.8267 1.02869C35.7732 1.01172 35.7195 0.994995 35.6658 0.978516C35.6389 0.970215 35.6118 0.962646 35.5847 0.955811C35.5583 0.946411 35.5317 0.937622 35.5046 0.929565C35.4509 0.913452 35.3972 0.897583 35.3435 0.881958C35.3164 0.874146 35.2893 0.867065 35.2622 0.860718C35.2358 0.851685 35.2092 0.843384 35.1821 0.835693C35.1282 0.820435 35.0742 0.80542 35.0203 0.790649C34.9929 0.783203 34.9658 0.776489 34.9385 0.770508C34.9121 0.761963 34.8853 0.754028 34.8579 0.746704C34.8037 0.7323 34.7495 0.718018 34.6951 0.703979C34.6677 0.696899 34.6401 0.690674 34.6128 0.685059C34.5862 0.67688 34.5591 0.669434 34.5317 0.662476C34.4773 0.648926 34.4229 0.635498 34.3684 0.622314C34.3411 0.615723 34.3137 0.609863 34.2864 0.604736C34.2595 0.597046 34.2324 0.589966 34.2051 0.583496C34.1506 0.570801 34.0962 0.558228 34.0415 0.545898C34.0139 0.539673 33.9866 0.534302 33.959 0.529541C33.9321 0.522217 33.905 0.515503 33.8774 0.509521C33.8228 0.497559 33.7678 0.48584 33.7129 0.474365C33.6853 0.468506 33.6575 0.463501 33.6299 0.459229C33.6028 0.452271 33.5754 0.445923 33.5479 0.440308C33.4927 0.429199 33.4377 0.418335 33.3826 0.407593C33.355 0.402222 33.3274 0.397705 33.2998 0.393799C33.2729 0.387329 33.2456 0.38147 33.218 0.376343C33.1631 0.366089 33.1079 0.356079 33.053 0.346191C33.0251 0.341309 32.9973 0.337158 32.9697 0.333618C32.9426 0.327515 32.915 0.322144 32.8875 0.317383C32.832 0.307983 32.7769 0.298706 32.7214 0.289673C32.6936 0.285156 32.6658 0.281372 32.6379 0.278442C32.6106 0.272705 32.583 0.267578 32.5552 0.263306C32.4998 0.254639 32.4441 0.246338 32.3884 0.238159C32.3606 0.234009 32.3328 0.230713 32.3052 0.228149C32.2778 0.222778 32.2502 0.218262 32.2224 0.214355C32.1672 0.206665 32.1118 0.199097 32.0564 0.191772C32.0286 0.18811 32.0007 0.185181 31.9729 0.182983C31.9456 0.178101 31.9177 0.17395 31.8899 0.170532C31.8345 0.163574 31.7788 0.15686 31.7231 0.150391C31.6951 0.147095 31.667 0.144653 31.6392 0.142822C31.6116 0.138428 31.584 0.134644 31.5559 0.131592C31.5 0.125488 31.4441 0.119629 31.3882 0.114014C31.3601 0.111084 31.3323 0.109009 31.3044 0.107666C31.2769 0.103638 31.249 0.100342 31.2209 0.0976562C31.1655 0.0925293 31.1099 0.0875244 31.0542 0.0826416C31.0261 0.0803223 30.9983 0.0786133 30.9705 0.0777588C30.9429 0.0740967 30.9153 0.071167 30.8872 0.0689697C30.8313 0.0645752 30.7756 0.0604248 30.7197 0.0563965C30.6917 0.0544434 30.6636 0.0532227 30.6357 0.0527344C30.6082 0.0494385 30.5801 0.0469971 30.552 0.045166C30.4961 0.041626 30.4399 0.038208 30.3838 0.0351562C30.3557 0.0335693 30.3276 0.0327148 30.2996 0.0325928C30.2717 0.0297852 30.2437 0.02771 30.2156 0.0263672C30.1599 0.0236816 30.1042 0.0211182 30.0486 0.0189209C30.0205 0.0177002 29.9924 0.017334 29.9648 0.0177002C29.9373 0.0152588 29.9092 0.0135498 29.8811 0.0126953C29.8254 0.0107422 29.7695 0.00915527 29.7136 0.00769043C29.6855 0.00695801 29.6575 0.00695801 29.6296 0.00769043C29.6018 0.0057373 29.574 0.00439453 29.5457 0.00390625C29.4897 0.00292969 29.4336 0.0020752 29.3774 0.00146484C29.3494 0.00109863 29.3213 0.00158691 29.2932 0.00268555C29.2654 0.00109863 29.2373 0.000244141 29.209 0.00012207C29.1809 0 29.1528 0 29.1248 0C29.0967 0 29.0686 0 29.0405 0.00012207C29.0122 0.000244141 28.9841 0.00109863 28.9563 0.00268555C28.9282 0.00158691 28.9001 0.00109863 28.8721 0.00146484C28.8159 0.0020752 28.7598 0.00292969 28.7039 0.00390625C28.6755 0.00439453 28.6477 0.0057373 28.6199 0.00769043C28.592 0.00695801 28.5642 0.00695801 28.5359 0.00769043C28.48 0.00915527 28.4241 0.0107422 28.3684 0.0126953C28.3403 0.0135498 28.3125 0.0152588 28.2847 0.0177002C28.2571 0.017334 28.229 0.0177002 28.2012 0.0189209C28.1453 0.0211182 28.0896 0.0236816 28.0342 0.0263672C28.0059 0.02771 27.9778 0.0297852 27.95 0.0325928C27.9221 0.0327148 27.8938 0.0335693 27.8657 0.0351562C27.8096 0.038208 27.7537 0.041626 27.6975 0.045166C27.6694 0.046875 27.6416 0.0494385 27.6138 0.0527344C27.5859 0.0532227 27.5579 0.0544434 27.5298 0.0563965C27.4739 0.0604248 27.4182 0.0645752 27.3623 0.0689697C27.3345 0.071167 27.3066 0.0740967 27.2791 0.0777588C27.2512 0.0786133 27.2234 0.0803223 27.1953 0.0826416C27.1396 0.0875244 27.0842 0.0925293 27.0286 0.0976562C27.0005 0.100342 26.9727 0.103638 26.9451 0.107666C26.9172 0.109009 26.8894 0.111084 26.8613 0.114014C26.8054 0.119629 26.7495 0.125488 26.6938 0.131592C26.6658 0.134644 26.6379 0.138428 26.6104 0.142822C26.5825 0.144653 26.5544 0.147095 26.5266 0.150391C26.4707 0.15686 26.4153 0.163574 26.3596 0.170532C26.3318 0.17395 26.304 0.178101 26.2766 0.182983C26.2488 0.185181 26.2212 0.18811 26.1931 0.191772C26.1377 0.199097 26.0823 0.206665 26.0271 0.214355C25.9993 0.218262 25.9717 0.222778 25.9443 0.228027C25.9167 0.230713 25.8889 0.234009 25.8611 0.238159C25.8054 0.246338 25.75 0.254639 25.6943 0.263306C25.6665 0.267578 25.6389 0.272705 25.6116 0.278442C25.5837 0.281372 25.5559 0.285156 25.5281 0.289673C25.4727 0.298706 25.4175 0.307983 25.3621 0.317383C25.3345 0.322144 25.3069 0.327515 25.2798 0.333618C25.2522 0.337158 25.2244 0.341309 25.1968 0.346191C25.1416 0.356079 25.0867 0.366089 25.0317 0.376343C25.0039 0.38147 24.9766 0.387329 24.9497 0.393799C24.9221 0.397705 24.8945 0.402222 24.8669 0.407593C24.8118 0.418335 24.7568 0.429199 24.7017 0.440308C24.6741 0.445923 24.6467 0.452271 24.6196 0.459229C24.592 0.463501 24.5645 0.468506 24.5366 0.474365C24.4817 0.48584 24.427 0.497559 24.3721 0.509521C24.3445 0.515503 24.3174 0.522217 24.2905 0.529541C24.2629 0.534302 24.2356 0.539673 24.208 0.545898C24.1533 0.558228 24.0989 0.570801 24.0444 0.583496C24.0171 0.589966 23.99 0.597046 23.9631 0.604736C23.936 0.609863 23.9087 0.615723 23.8813 0.622314C23.8267 0.635498 23.7722 0.648926 23.7178 0.662476C23.6904 0.669312 23.6633 0.67688 23.6367 0.685059C23.6094 0.690674 23.5818 0.696899 23.5544 0.703979C23.5002 0.718018 23.4458 0.7323 23.3916 0.746704C23.3645 0.754028 23.3374 0.761963 23.311 0.770508C23.2837 0.776489 23.2566 0.783203 23.2292 0.790649C23.1753 0.80542 23.1213 0.820435 23.0674 0.835693C23.0403 0.843384 23.0137 0.851685 22.9873 0.860596C22.9602 0.867065 22.9331 0.874146 22.9062 0.881958C22.8523 0.897583 22.7986 0.913452 22.7449 0.929565C22.7178 0.937622 22.6912 0.946411 22.6648 0.955811C22.6377 0.962646 22.6106 0.970215 22.5837 0.978516C22.53 0.994995 22.4763 1.01172 22.4229 1.02869C22.396 1.03711 22.3694 1.04626 22.3433 1.05615C22.3164 1.06335 22.2896 1.07129 22.2627 1.07996C22.2092 1.09729 22.156 1.11475 22.103 1.13245C22.0762 1.14136 22.0498 1.15088 22.0239 1.16101C21.9973 1.1687 21.9705 1.177 21.9438 1.18616C21.8909 1.20422 21.8379 1.22253 21.7852 1.24097C21.7585 1.25037 21.7322 1.26038 21.7063 1.271C21.6794 1.27893 21.6528 1.28772 21.6262 1.29736C21.5732 1.31628 21.5205 1.33545 21.4678 1.35474C21.4414 1.3645 21.4153 1.37488 21.3896 1.38586C21.363 1.39429 21.3367 1.40356 21.3101 1.41345C21.2576 1.43323 21.2053 1.45312 21.1531 1.47327C21.1267 1.4834 21.1008 1.49414 21.0754 1.50549C21.0491 1.51428 21.0227 1.52393 20.9963 1.53418C20.9443 1.55469 20.8923 1.57544 20.8406 1.59631C20.8142 1.60681 20.7883 1.61804 20.7632 1.62988C20.7368 1.63916 20.7104 1.64917 20.6843 1.65991C20.6323 1.68127 20.5806 1.70288 20.5288 1.72461C20.5027 1.7356 20.4771 1.74719 20.4521 1.75928C20.4258 1.76892 20.3997 1.7793 20.3738 1.79053C20.3223 1.81262 20.2708 1.83496 20.2195 1.85754C20.1938 1.8689 20.1685 1.88074 20.1436 1.89331C20.1174 1.90332 20.0916 1.91406 20.0659 1.92566C20.0149 1.94861 19.9639 1.97168 19.9128 1.99487C19.8872 2.00671 19.8621 2.01904 19.8372 2.03198C19.8113 2.04248 19.7856 2.05371 19.76 2.06567C19.709 2.08936 19.6582 2.11328 19.6074 2.13745C19.582 2.14966 19.5569 2.16235 19.5325 2.17566C19.5068 2.18652 19.4812 2.19812 19.4558 2.21045C19.4053 2.23499 19.355 2.25964 19.3047 2.28455C19.2795 2.29712 19.2546 2.31018 19.2305 2.32385C19.2048 2.33508 19.1794 2.34705 19.1543 2.35974C19.1042 2.38501 19.0544 2.4104 19.0046 2.43604C18.9795 2.44897 18.9548 2.46252 18.9307 2.47656C18.9053 2.48816 18.8801 2.50061 18.8552 2.51367C18.8054 2.53979 18.7556 2.56616 18.7061 2.59253C18.6812 2.60583 18.6567 2.61975 18.6331 2.63428C18.6077 2.64624 18.5828 2.65906 18.5579 2.67249C18.5085 2.69934 18.4595 2.72632 18.4104 2.75354C18.3857 2.76721 18.3616 2.78149 18.3379 2.79626C18.313 2.80872 18.2883 2.82178 18.2637 2.83569C18.2148 2.86328 18.1663 2.89099 18.1177 2.91882C18.093 2.93298 18.0691 2.94763 18.0457 2.96277C18.0208 2.97559 17.9963 2.98914 17.9719 3.00342C17.9233 3.03186 17.875 3.06042 17.8267 3.08911C17.8025 3.10364 17.7786 3.11865 17.7554 3.13416C17.731 3.14734 17.7065 3.16125 17.6824 3.1759C17.6343 3.20496 17.5864 3.23425 17.5386 3.26379C17.5146 3.27856 17.4912 3.29395 17.4683 3.30981C17.4438 3.32336 17.4197 3.33765 17.3958 3.35266C17.3484 3.38245 17.301 3.41248 17.2537 3.44263C17.23 3.45776 17.2068 3.47351 17.1838 3.48975C17.1597 3.50378 17.1357 3.51843 17.1121 3.53381C17.0649 3.56445 17.0178 3.59521 16.9709 3.62622C16.9475 3.64185 16.9246 3.65796 16.9021 3.67456C16.8779 3.68884 16.8542 3.70386 16.8308 3.71973C16.7842 3.75098 16.7378 3.78247 16.6914 3.81409C16.6682 3.83008 16.6453 3.84656 16.6233 3.8634C16.5994 3.87817 16.5759 3.89355 16.5527 3.90967C16.5068 3.94165 16.4609 3.97388 16.415 4.00623C16.3918 4.02246 16.3694 4.03931 16.3474 4.05664C16.324 4.07178 16.3008 4.08752 16.2778 4.104C16.2322 4.13684 16.1865 4.1698 16.1411 4.20288C16.1184 4.2196 16.0962 4.23682 16.0745 4.25439C16.0513 4.2699 16.0281 4.28601 16.0054 4.30286C15.9604 4.3363 15.9153 4.37 15.8706 4.40381C15.8667 4.40674 15.8628 4.40979 15.8589 4.41272C12.1514 1.41492 6.66553 1.66846 3.25977 5.13757C-0.359863 8.82434 -0.304932 14.793 3.38184 18.4125C4.56885 19.5776 6.07837 20.4656 7.73804 20.8525C7.73779 20.8656 7.73755 20.8785 7.73755 20.8917L7.73755 21.0482C7.73755 21.0745 7.73828 21.1005 7.7395 21.1265C7.73828 21.1523 7.73755 21.1785 7.73755 21.2047L7.73755 21.3612C7.73755 21.3873 7.73828 21.4135 7.7395 21.4395C7.73828 21.4653 7.73755 21.4915 7.73755 21.5177L7.73755 21.6742C7.73755 21.7003 7.73828 21.7264 7.7395 21.7523C7.73828 21.7783 7.73755 21.8044 7.73755 21.8307L7.73755 21.9871C7.73755 22.0133 7.73828 22.0394 7.7395 22.0653C7.73828 22.0913 7.73755 22.1174 7.73755 22.1436L7.73755 22.3C7.73755 22.3263 7.73828 22.3524 7.7395 22.3783C7.73828 22.4043 7.73755 22.4303 7.73755 22.4565L7.73755 22.613C7.73755 22.6393 7.73828 22.6654 7.7395 22.6913C7.73828 22.7173 7.73755 22.7433 7.73755 22.7695L7.73755 22.926C7.73755 22.9523 7.73828 22.9784 7.7395 23.0043C7.73828 23.0303 7.73755 23.0563 7.73755 23.0825L7.73755 23.239C7.73755 23.2653 7.73828 23.2914 7.7395 23.3173C7.73828 23.3433 7.73755 23.3693 7.73755 23.3955L7.73755 23.552C7.73755 23.5782 7.73828 23.6044 7.7395 23.6302C7.73828 23.6562 7.73755 23.6823 7.73755 23.7085L7.73755 23.865C7.73755 23.8912 7.73828 23.9174 7.7395 23.9432C7.73828 23.9692 7.73755 23.9952 7.73755 24.0215L7.73755 24.178C7.73755 24.2042 7.73828 24.2303 7.7395 24.2562C7.73828 24.2822 7.73755 24.3082 7.73755 24.3345L7.73755 24.491C7.73755 24.5172 7.73828 24.5433 7.7395 24.5692C7.73828 24.5952 7.73755 24.6212 7.73755 24.6475L7.73755 24.804C7.73755 24.8302 7.73828 24.8563 7.7395 24.8822C7.73828 24.9081 7.73755 24.9342 7.73755 24.9604L7.73755 25.1169C7.73755 25.1432 7.73828 25.1693 7.7395 25.1952C7.73828 25.2211 7.73755 25.2472 7.73755 25.2734L7.73755 25.4299C7.73755 25.4562 7.73828 25.4823 7.7395 25.5082C7.73828 25.5341 7.73755 25.5602 7.73755 25.5864L7.73755 25.7429C7.73755 25.7692 7.73828 25.7953 7.7395 25.8212C7.73828 25.847 7.73755 25.8732 7.73755 25.8994L7.73755 26.0559C7.73755 26.0822 7.73828 26.1083 7.7395 26.1342C7.73828 26.16 7.73755 26.1862 7.73755 26.2124L7.73755 26.3689C7.73755 26.3951 7.73828 26.4213 7.7395 26.4471C7.73828 26.473 7.73755 26.4991 7.73755 26.5254L7.73755 26.6036ZM29.1248 3.12988C29.1006 3.12988 29.0764 3.12988 29.052 3.13C29.0278 3.13 29.0037 3.12964 28.9795 3.12854C28.9556 3.13 28.9312 3.13074 28.907 3.1311C28.8586 3.13159 28.8103 3.13232 28.762 3.13318C28.7378 3.13367 28.7136 3.13354 28.6897 3.13293C28.6658 3.13464 28.6416 3.13586 28.6174 3.13647C28.5693 3.1377 28.5212 3.13916 28.4731 3.14075C28.449 3.1416 28.425 3.14185 28.4011 3.14148C28.3772 3.14355 28.3533 3.14514 28.3291 3.14612C28.281 3.14807 28.2332 3.15015 28.1853 3.15247C28.1611 3.15369 28.137 3.1543 28.1128 3.15442C28.0889 3.15686 28.0647 3.15869 28.0403 3.16003C27.9922 3.16272 27.9438 3.16565 27.8958 3.1687C27.8716 3.17029 27.8474 3.17126 27.8235 3.17163C27.7996 3.17444 27.7756 3.17664 27.7515 3.17847C27.7034 3.18176 27.6553 3.18542 27.6074 3.18921C27.5833 3.19104 27.5593 3.19238 27.5354 3.19324C27.5117 3.19629 27.4878 3.19897 27.4636 3.20105C27.4158 3.20508 27.3682 3.20935 27.3203 3.21387C27.2961 3.21619 27.2722 3.2179 27.2483 3.21899C27.2246 3.22253 27.2007 3.22546 27.1765 3.22791C27.1284 3.23279 27.0803 3.23779 27.0325 3.24304C27.0083 3.24561 26.9844 3.24768 26.9602 3.24927C26.9365 3.25305 26.9128 3.25647 26.8887 3.25928C26.8408 3.26477 26.793 3.27051 26.7454 3.27649C26.7212 3.27942 26.6973 3.28186 26.6736 3.28369C26.6499 3.28796 26.6262 3.29163 26.6023 3.2948C26.5547 3.30103 26.5071 3.3075 26.4595 3.31409C26.4355 3.3175 26.4116 3.32031 26.3879 3.32251C26.3645 3.32703 26.3408 3.33105 26.3169 3.33459C26.269 3.34167 26.2214 3.34888 26.1736 3.3562C26.1497 3.35999 26.1257 3.36304 26.1021 3.36572C26.0784 3.37061 26.0547 3.375 26.0308 3.37891C25.9832 3.3866 25.9358 3.39453 25.8884 3.40271C25.8645 3.40674 25.8408 3.41028 25.8169 3.41321C25.7937 3.41846 25.77 3.42322 25.7463 3.42749C25.699 3.43591 25.6516 3.44446 25.6045 3.45325C25.5808 3.45764 25.5571 3.46155 25.5334 3.46484C25.5103 3.47046 25.4868 3.47559 25.4631 3.4801C25.4158 3.48938 25.3684 3.49866 25.3213 3.5083C25.2976 3.51306 25.2737 3.51721 25.25 3.521C25.2268 3.52698 25.2034 3.53247 25.1797 3.53735C25.1326 3.54736 25.0854 3.55737 25.0383 3.56763C25.0146 3.57275 24.9912 3.57739 24.9675 3.58142C24.9443 3.58765 24.9211 3.59351 24.8975 3.59888C24.8506 3.6095 24.8037 3.62024 24.7571 3.6311C24.7336 3.6366 24.7102 3.6416 24.6865 3.646C24.6638 3.65259 24.6406 3.65881 24.6172 3.66443C24.5703 3.67578 24.5237 3.68726 24.4768 3.69897C24.4534 3.70483 24.4299 3.71008 24.4062 3.71484C24.3833 3.72192 24.3601 3.72852 24.3367 3.7345C24.29 3.74658 24.2437 3.75879 24.197 3.77112C24.1736 3.77734 24.1504 3.78308 24.127 3.78809C24.1042 3.79553 24.0811 3.80237 24.0579 3.80884C24.0115 3.82153 23.9651 3.83447 23.9189 3.84753C23.8958 3.854 23.8726 3.86011 23.8491 3.86548C23.8267 3.87317 23.8037 3.88049 23.7805 3.88721C23.7344 3.90063 23.6882 3.91418 23.6423 3.92798C23.6191 3.93494 23.5959 3.94128 23.5725 3.94714C23.55 3.9552 23.5271 3.96289 23.5039 3.96997C23.458 3.98413 23.4119 3.99841 23.3662 4.01294C23.343 4.02026 23.3201 4.02698 23.2969 4.0332C23.2744 4.0415 23.2517 4.04956 23.2288 4.05701C23.1829 4.07178 23.1375 4.08679 23.0918 4.10193C23.0688 4.10962 23.0459 4.1167 23.0229 4.12317C23.0007 4.13196 22.9783 4.14014 22.9553 4.14795C22.9099 4.16345 22.8645 4.1792 22.8193 4.19507C22.7964 4.203 22.7734 4.21045 22.7505 4.21741C22.7283 4.22644 22.7058 4.23511 22.6831 4.24329C22.6377 4.25964 22.5925 4.276 22.5474 4.2926C22.5247 4.3009 22.502 4.30872 22.479 4.31592C22.457 4.32544 22.4348 4.33435 22.4121 4.3429C22.3672 4.35974 22.3223 4.37683 22.2773 4.39417C22.2549 4.40283 22.2322 4.41089 22.2097 4.41846C22.1877 4.42822 22.1658 4.4375 22.1433 4.44641C22.0986 4.46399 22.054 4.48169 22.0095 4.49963C21.9871 4.50867 21.9646 4.51709 21.9419 4.52502C21.9202 4.53516 21.8982 4.54492 21.8757 4.55408C21.8311 4.57239 21.7866 4.59094 21.7424 4.60962C21.7202 4.6189 21.6978 4.62781 21.6753 4.63599C21.6538 4.64648 21.6318 4.65649 21.6096 4.66602C21.5654 4.68506 21.5215 4.7041 21.4775 4.72339C21.4553 4.73315 21.4331 4.74231 21.4109 4.75085C21.3896 4.7616 21.3679 4.77197 21.3459 4.78186C21.302 4.80139 21.2583 4.82117 21.2148 4.84119C21.1929 4.8512 21.1707 4.86072 21.1484 4.86975C21.1272 4.88086 21.1057 4.89148 21.0837 4.90173C21.04 4.92212 20.9966 4.94263 20.9531 4.96326C20.9314 4.97363 20.9094 4.98352 20.8872 4.9928C20.8662 5.00427 20.845 5.01526 20.8232 5.02576C20.78 5.04675 20.7368 5.06799 20.6938 5.08923C20.6721 5.09998 20.6504 5.11011 20.6284 5.11975C20.6077 5.13147 20.5864 5.14282 20.5649 5.15369Q20.5007 5.18604 20.4368 5.21899C20.4153 5.2301 20.3936 5.2406 20.3718 5.25061C20.3513 5.26257 20.3301 5.27429 20.3088 5.28552C20.2661 5.30786 20.2236 5.33032 20.1812 5.35303C20.1599 5.36438 20.1384 5.37524 20.1169 5.38562C20.0964 5.39795 20.0754 5.40991 20.0542 5.42151C20.0122 5.44446 19.97 5.46753 19.928 5.49084C19.907 5.50256 19.8857 5.51367 19.8643 5.52429C19.844 5.53699 19.8235 5.54932 19.8025 5.56116C19.7607 5.58472 19.719 5.60852 19.6775 5.63232C19.6565 5.64441 19.6353 5.65588 19.614 5.66687C19.594 5.67993 19.5735 5.6925 19.5527 5.70471C19.5112 5.729 19.4697 5.75342 19.4285 5.77808C19.4077 5.79041 19.3867 5.80225 19.3657 5.8136C19.3457 5.8269 19.3254 5.83984 19.3049 5.85229C19.2639 5.8772 19.2229 5.90222 19.1819 5.92749C19.1614 5.94019 19.1409 5.95227 19.1199 5.96387C19.1003 5.97742 19.0803 5.99072 19.0598 6.00354C19.019 6.02905 18.9788 6.05469 18.9382 6.08044C18.918 6.09351 18.8975 6.10596 18.8767 6.11792C18.8572 6.13184 18.8374 6.14539 18.8171 6.15845C18.7769 6.18469 18.7366 6.21106 18.6965 6.23755C18.6763 6.25085 18.656 6.26367 18.6355 6.27588C18.6162 6.29016 18.5967 6.30396 18.5767 6.31738C18.5366 6.34424 18.4971 6.37109 18.4573 6.39819C18.4375 6.41187 18.4172 6.42493 18.397 6.4375C18.3779 6.4519 18.3586 6.46606 18.3389 6.47986C18.2996 6.5072 18.2603 6.53467 18.2212 6.56238C18.2014 6.57629 18.1814 6.58972 18.1614 6.60266C18.1426 6.61743 18.1233 6.63184 18.1038 6.646C18.0647 6.67407 18.0259 6.70215 17.9871 6.73047C17.9675 6.74475 17.9478 6.75842 17.928 6.77173C17.9094 6.78674 17.8904 6.80151 17.8711 6.81592C17.8325 6.84448 17.7942 6.87329 17.7559 6.9021C17.7366 6.91663 17.717 6.93066 17.6975 6.94421C17.6792 6.95959 17.6604 6.97461 17.6414 6.98926C17.6033 7.01843 17.5654 7.04773 17.5276 7.07715C17.5085 7.09204 17.4893 7.10632 17.4697 7.12012C17.4519 7.13586 17.4333 7.15112 17.4143 7.16614C17.3767 7.19604 17.3394 7.22595 17.3018 7.2561C17.283 7.27124 17.2639 7.28577 17.2449 7.29993C17.2271 7.31592 17.2087 7.33154 17.1902 7.3468C17.1531 7.3772 17.116 7.40771 17.0791 7.43835C17.0605 7.45374 17.0417 7.46863 17.0227 7.48303C17.0054 7.49927 16.9873 7.51514 16.969 7.53064C16.9324 7.56152 16.8958 7.59265 16.8596 7.62378C16.8413 7.63953 16.8228 7.65479 16.804 7.66943C16.7866 7.68604 16.7688 7.70215 16.7507 7.71802C16.7146 7.74951 16.6785 7.78125 16.6426 7.81311C16.6245 7.8291 16.6062 7.8446 16.5876 7.85962C16.5708 7.87634 16.5532 7.89282 16.5354 7.90894C16.4998 7.94104 16.4644 7.97327 16.429 8.00562C16.4111 8.02185 16.3931 8.0376 16.3748 8.05286C16.3582 8.06995 16.3408 8.08655 16.3232 8.10303C16.2883 8.13562 16.2534 8.16833 16.2185 8.20117C16.2009 8.21777 16.1831 8.23389 16.165 8.24939C16.1487 8.26672 16.1318 8.28369 16.1143 8.30042C16.0798 8.33362 16.0454 8.36694 16.011 8.40039C15.9939 8.41724 15.9763 8.43359 15.9585 8.44946C15.9424 8.46704 15.9255 8.48425 15.9084 8.50122C15.8745 8.53491 15.8406 8.56885 15.8069 8.60278C15.79 8.61987 15.7727 8.63647 15.7551 8.65259C15.7393 8.67041 15.7229 8.68787 15.7061 8.70508C15.6726 8.73938 15.6394 8.77368 15.6062 8.80823C15.5896 8.82556 15.5725 8.84241 15.5552 8.85889C15.5398 8.87695 15.5237 8.89465 15.5071 8.91223C15.4741 8.94702 15.4414 8.98193 15.4087 9.01697C15.3923 9.03467 15.3757 9.05176 15.3586 9.06848C15.3433 9.08679 15.3276 9.10474 15.3113 9.12256C15.2791 9.15784 15.2468 9.19324 15.2148 9.22876C15.1987 9.24658 15.1821 9.26404 15.1655 9.28101C15.1506 9.29956 15.135 9.31775 15.1191 9.33582C15.0874 9.37158 15.0559 9.40747 15.0244 9.44348C15.0085 9.46155 14.9924 9.47925 14.9761 9.49658C14.9612 9.51526 14.946 9.53381 14.9304 9.55212C14.8992 9.58838 14.8682 9.62488 14.8374 9.66138C14.8218 9.67981 14.8059 9.69775 14.7898 9.71521C14.7754 9.73425 14.7607 9.75293 14.7454 9.77148C14.7146 9.80823 14.6843 9.84521 14.6541 9.8822C14.6389 9.90076 14.6233 9.91895 14.6074 9.93677C14.5935 9.95593 14.5789 9.97485 14.564 9.99365C14.5339 10.0309 14.5042 10.0682 14.4746 10.1057C14.4597 10.1246 14.4443 10.1431 14.4287 10.161C14.415 10.1805 14.4009 10.1997 14.386 10.2188C14.3567 10.2565 14.3276 10.2943 14.2986 10.3324C14.2839 10.3514 14.269 10.3701 14.2539 10.3884C14.2405 10.4081 14.2266 10.4275 14.2122 10.4467C14.1833 10.4849 14.1548 10.5232 14.1265 10.5616C14.1123 10.5809 14.0977 10.5999 14.0828 10.6184C14.0696 10.6382 14.0559 10.6578 14.042 10.6774C14.0139 10.7159 13.9861 10.7548 13.9583 10.7936C13.9443 10.8132 13.9302 10.8324 13.9155 10.8511C13.9026 10.8711 13.8894 10.891 13.8757 10.9106C13.8481 10.9498 13.821 10.989 13.7939 11.0284C13.7803 11.0482 13.7664 11.0675 13.752 11.0865C13.7397 11.1068 13.7268 11.1268 13.7134 11.1467C13.6865 11.1863 13.6599 11.226 13.6335 11.2657C13.6204 11.2858 13.6067 11.3053 13.5928 11.3245C13.5806 11.345 13.5681 11.3652 13.5549 11.3854C13.5288 11.4253 13.5029 11.4655 13.4773 11.5056C13.4644 11.5258 13.4512 11.5457 13.4375 11.5651C13.4258 11.5857 13.4133 11.6062 13.4006 11.6265C13.3752 11.6669 13.3501 11.7074 13.325 11.748C13.3125 11.7684 13.2996 11.7885 13.2861 11.8081C13.2747 11.829 13.2629 11.8496 13.2505 11.8701C13.2258 11.9109 13.2012 11.9519 13.177 11.9928C13.1648 12.0134 13.1521 12.0337 13.1392 12.0536C13.1279 12.0746 13.1165 12.0955 13.1045 12.1162C13.0806 12.1573 13.0566 12.1987 13.033 12.2401C13.0212 12.2609 13.0088 12.2812 12.9961 12.3014C12.9856 12.3225 12.9744 12.3436 12.9626 12.3645C12.9395 12.4061 12.9163 12.4478 12.8933 12.4896C12.8818 12.5106 12.8699 12.5312 12.8574 12.5515C12.8472 12.5729 12.8364 12.5941 12.8252 12.6152C12.8025 12.6571 12.78 12.6992 12.7578 12.7413C12.7468 12.7626 12.7351 12.7834 12.7231 12.8038C12.7134 12.8254 12.7029 12.8468 12.6919 12.8682C12.6699 12.9104 12.6484 12.9529 12.627 12.9954C12.616 13.0167 12.6047 13.0377 12.5933 13.0583C12.5837 13.0801 12.5735 13.1017 12.563 13.123C12.542 13.1658 12.521 13.2085 12.5002 13.2513C12.4897 13.2729 12.479 13.2941 12.4678 13.3149C12.4585 13.3368 12.4487 13.3585 12.4385 13.3802C12.4182 13.4232 12.3979 13.4663 12.3779 13.5095C12.3679 13.5312 12.3574 13.5526 12.3464 13.5737C12.3376 13.5957 12.3284 13.6177 12.3186 13.6394C12.2988 13.6827 12.2795 13.7262 12.2603 13.7697C12.2505 13.7916 12.2405 13.8131 12.23 13.8344C12.2214 13.8564 12.2126 13.8784 12.2031 13.9004C12.1841 13.9441 12.1655 13.9878 12.147 14.0316C12.1377 14.0537 12.1279 14.0753 12.1179 14.0968C12.1099 14.119 12.1013 14.1412 12.092 14.1633C12.074 14.2074 12.0562 14.2515 12.0383 14.2955C12.0293 14.3177 12.02 14.3397 12.0103 14.3612C12.0027 14.3837 11.9944 14.406 11.9856 14.4283C11.9683 14.4725 11.9512 14.5168 11.9343 14.5613C11.9258 14.5836 11.9167 14.6056 11.9075 14.6273C11.9001 14.6498 11.8923 14.6722 11.884 14.6946C11.8674 14.7391 11.8511 14.7838 11.835 14.8285C11.8269 14.851 11.8181 14.873 11.8091 14.895C11.8022 14.9176 11.7949 14.9402 11.7871 14.9628C11.7712 15.0076 11.7556 15.0525 11.7402 15.0975C11.7324 15.1201 11.7244 15.1425 11.7156 15.1646C11.7092 15.1874 11.7021 15.2101 11.6946 15.2328C11.6797 15.2778 11.6648 15.3229 11.6501 15.3682C11.6428 15.3909 11.635 15.4132 11.627 15.4354C11.6208 15.4583 11.6143 15.4811 11.6072 15.5038C11.593 15.5491 11.5789 15.5945 11.5652 15.6399C11.5581 15.6627 11.5508 15.6853 11.543 15.7076C11.5371 15.7306 11.531 15.7535 11.5244 15.7765C11.511 15.822 11.4976 15.8677 11.4846 15.9135C11.478 15.9365 11.4712 15.9592 11.4636 15.9817C11.4583 16.0048 11.4526 16.0278 11.4463 16.0509Q11.4272 16.1195 11.4092 16.1882C11.4028 16.2113 11.3962 16.234 11.3892 16.2566C11.3845 16.2797 11.3792 16.3027 11.373 16.3259C11.3613 16.3718 11.3499 16.4178 11.3384 16.464C11.3328 16.4872 11.3264 16.51 11.3198 16.5327C11.3154 16.5559 11.3103 16.5792 11.3049 16.6024C11.2939 16.6487 11.2832 16.6949 11.2725 16.7413C11.2671 16.7646 11.2615 16.7877 11.2551 16.8105C11.251 16.8339 11.2466 16.8572 11.2415 16.8806C11.2312 16.9269 11.2212 16.9731 11.2117 17.0195C11.2065 17.0428 11.2012 17.066 11.1953 17.0889C11.1919 17.1122 11.1877 17.1355 11.1829 17.1588C11.1736 17.2053 11.1646 17.2518 11.1555 17.2985C11.1511 17.3219 11.146 17.3452 11.1406 17.3682C11.1375 17.3916 11.1338 17.415 11.1294 17.4385C11.1208 17.4852 11.1125 17.5321 11.1045 17.579C11.1003 17.6025 11.0957 17.6259 11.0908 17.649C11.0879 17.6725 11.0845 17.696 11.0808 17.7197C11.073 17.7665 11.0657 17.8132 11.0583 17.86C11.0547 17.8835 11.0505 17.9069 11.0459 17.9301C11.0435 17.9535 11.0405 17.9771 11.0371 18.0006C11.0303 18.0475 11.0237 18.0944 11.0173 18.1415C11.0161 18.149 11.0151 18.1567 11.0139 18.1643C13.8547 14.416 18.9915 10.9454 28.0815 10.4845L28.0815 10.4326C28.4346 10.4326 28.7825 10.4369 29.1248 10.4453C29.467 10.4369 29.8149 10.4326 30.168 10.4326L30.168 10.4845C39.2581 10.9454 44.3948 14.416 47.2356 18.1643C47.2344 18.1567 47.2334 18.1492 47.2322 18.1415C47.2258 18.0945 47.2192 18.0475 47.2124 18.0006C47.209 17.9771 47.2061 17.9535 47.2036 17.9301C47.199 17.9069 47.1948 17.8835 47.1912 17.8601C47.1877 17.838 47.1843 17.816 47.1809 17.7941C47.177 17.7693 47.1729 17.7445 47.1687 17.7197C47.165 17.6962 47.1616 17.6725 47.1589 17.649C47.1538 17.6259 47.1492 17.6025 47.145 17.579C47.137 17.5321 47.1287 17.4852 47.1201 17.4386C47.1157 17.415 47.1121 17.3916 47.1089 17.3682C47.1035 17.3452 47.0984 17.322 47.094 17.2985C47.085 17.252 47.0759 17.2053 47.0667 17.1588C47.0618 17.1355 47.0576 17.1122 47.0542 17.0889C47.0483 17.066 47.043 17.043 47.0381 17.0197C47.0283 16.9731 47.0183 16.9269 47.0081 16.8806C47.0029 16.8572 46.9985 16.8339 46.9944 16.8105C46.988 16.7877 46.9824 16.7646 46.9771 16.7413C46.9666 16.6949 46.9556 16.6487 46.9446 16.6024C46.9392 16.5792 46.9341 16.556 46.9297 16.5327C46.9231 16.5101 46.9167 16.4872 46.9111 16.464C46.8997 16.4178 46.8882 16.3718 46.8765 16.3259C46.8704 16.3029 46.865 16.2797 46.8604 16.2566C46.8533 16.2341 46.8467 16.2113 46.8406 16.1882C46.8284 16.1425 46.8159 16.0967 46.8032 16.0509C46.7969 16.0278 46.7913 16.0048 46.7859 15.9817C46.7783 15.9592 46.7715 15.9365 46.7649 15.9135C46.752 15.8678 46.7385 15.822 46.7253 15.7765C46.7185 15.7535 46.7124 15.7306 46.7065 15.7076C46.6987 15.6853 46.6914 15.6627 46.6843 15.6399C46.6707 15.5945 46.6565 15.5491 46.6423 15.5038C46.6353 15.4811 46.6287 15.4583 46.6226 15.4354C46.6145 15.4132 46.6067 15.3909 46.5994 15.3682C46.5847 15.323 46.5698 15.2778 46.5549 15.2328C46.5474 15.2101 46.5403 15.1874 46.5339 15.1646C46.5251 15.1425 46.5171 15.1202 46.5093 15.0975C46.5 15.0704 46.4907 15.0433 46.4812 15.0162C46.4751 14.9984 46.4688 14.9806 46.4624 14.9628C46.4546 14.9402 46.4473 14.9176 46.4404 14.895C46.4314 14.8732 46.4226 14.851 46.4146 14.8285Q46.3904 14.7615 46.3655 14.6946C46.3572 14.6722 46.3494 14.6498 46.342 14.6273C46.3328 14.6056 46.3237 14.5836 46.3152 14.5613C46.2983 14.5168 46.2812 14.4725 46.2639 14.4283C46.2551 14.406 46.2468 14.3837 46.2393 14.3612C46.2295 14.3397 46.2202 14.3177 46.2112 14.2955C46.1934 14.2515 46.1755 14.2074 46.1575 14.1633C46.1482 14.1412 46.1396 14.119 46.1318 14.0968C46.1216 14.0754 46.1118 14.0537 46.1025 14.0316C46.084 13.9878 46.0654 13.9441 46.0464 13.9004C46.0371 13.8784 46.0281 13.8564 46.0195 13.8344C46.0149 13.8248 46.0103 13.8153 46.0059 13.8057C46.0002 13.7938 45.9946 13.7819 45.9893 13.7698C45.97 13.7262 45.9507 13.6827 45.9312 13.6394C45.9211 13.6177 45.9119 13.5957 45.9031 13.5737C45.8921 13.5526 45.8816 13.5312 45.8716 13.5095C45.8516 13.4663 45.8313 13.4232 45.811 13.3802C45.8008 13.3585 45.791 13.3368 45.7817 13.3149C45.7705 13.2941 45.7598 13.2729 45.7493 13.2513C45.7285 13.2085 45.7078 13.1658 45.6865 13.123C45.676 13.1017 45.6658 13.0801 45.6562 13.0583C45.6448 13.0377 45.6335 13.0167 45.6226 12.9954C45.6011 12.9529 45.5796 12.9104 45.5576 12.8682C45.5542 12.8613 45.5508 12.8546 45.5474 12.8479C45.54 12.8333 45.5332 12.8186 45.5264 12.8038C45.5144 12.7833 45.5027 12.7626 45.4917 12.7413C45.4695 12.6992 45.447 12.6571 45.4243 12.6152C45.4131 12.5941 45.4023 12.5729 45.3921 12.5515C45.3796 12.5312 45.3677 12.5106 45.3562 12.4896C45.3455 12.47 45.3347 12.4504 45.324 12.4309C45.3115 12.4088 45.2993 12.3866 45.2869 12.3645C45.2751 12.3436 45.2639 12.3225 45.2534 12.3014C45.2407 12.2812 45.2285 12.2609 45.2166 12.2401C45.1929 12.1987 45.1689 12.1573 45.145 12.1162C45.1331 12.0955 45.1216 12.0746 45.1104 12.0536C45.0974 12.0337 45.0847 12.0134 45.0725 11.9928C45.0483 11.9519 45.0237 11.9109 44.999 11.8701C44.9866 11.8496 44.9749 11.829 44.9634 11.8081C44.95 11.7885 44.937 11.7684 44.9246 11.748C44.8994 11.7074 44.8743 11.6669 44.8489 11.6265C44.8362 11.6062 44.8237 11.5857 44.8123 11.5651C44.7983 11.5457 44.7852 11.5258 44.7722 11.5056C44.7466 11.4655 44.7207 11.4253 44.6946 11.3854C44.6814 11.3652 44.6689 11.345 44.6567 11.3245C44.6428 11.3053 44.6292 11.2858 44.616 11.2657C44.5896 11.226 44.563 11.1863 44.5361 11.1467C44.5227 11.1268 44.5098 11.1068 44.4976 11.0865C44.4832 11.0675 44.4692 11.0482 44.4556 11.0284C44.4285 10.989 44.4014 10.9498 44.3738 10.9106C44.3601 10.891 44.3469 10.8711 44.334 10.8511C44.3193 10.8324 44.3052 10.8132 44.2913 10.7936C44.2634 10.7548 44.2356 10.7159 44.2075 10.6772C44.1936 10.6578 44.1799 10.6382 44.1667 10.6184C44.1519 10.5999 44.1372 10.5809 44.123 10.5616C44.0947 10.5232 44.0662 10.4849 44.0374 10.4467C44.0229 10.4275 44.009 10.408 43.9956 10.3884C43.9805 10.3701 43.9656 10.3514 43.9509 10.3324C43.9219 10.2943 43.8928 10.2565 43.8635 10.2188C43.8486 10.1997 43.8345 10.1805 43.8208 10.161C43.8052 10.1431 43.7898 10.1246 43.7749 10.1057C43.7454 10.0682 43.7156 10.0309 43.6855 9.99365C43.6707 9.97485 43.656 9.95593 43.6421 9.93665C43.6262 9.91895 43.6106 9.90076 43.5955 9.8822C43.5652 9.84509 43.5349 9.80823 43.5042 9.77148C43.4888 9.75293 43.4741 9.73413 43.4597 9.71521C43.4436 9.69775 43.4277 9.67981 43.4121 9.66138C43.3813 9.62488 43.3503 9.58838 43.3191 9.55212C43.3035 9.53381 43.2883 9.51526 43.2734 9.49646C43.2571 9.47925 43.241 9.46155 43.2251 9.44348C43.1936 9.40747 43.1621 9.37158 43.1304 9.33569C43.1145 9.31775 43.0989 9.29944 43.084 9.28101C43.0674 9.26404 43.0508 9.24658 43.0347 9.22876C43.0027 9.19324 42.9705 9.15784 42.9382 9.12244C42.9219 9.10474 42.9062 9.08667 42.8909 9.06848C42.8738 9.05176 42.8572 9.03455 42.8408 9.01697C42.8081 8.98193 42.7754 8.94702 42.7424 8.91223C42.7258 8.89465 42.7097 8.87695 42.6943 8.85889C42.677 8.84241 42.6599 8.82556 42.6433 8.80811C42.6101 8.77368 42.5769 8.73938 42.5435 8.70508C42.5266 8.68787 42.5103 8.67041 42.4944 8.65259C42.4768 8.63647 42.4595 8.61987 42.4426 8.60278C42.4089 8.56885 42.375 8.53491 42.3411 8.50122C42.3237 8.48425 42.3071 8.46704 42.291 8.44946C42.2732 8.43359 42.2556 8.41724 42.2385 8.40039C42.2041 8.36694 42.1697 8.33362 42.135 8.30042C42.1177 8.28369 42.1008 8.26672 42.0845 8.24939C42.0664 8.23389 42.0486 8.21777 42.031 8.20117C41.9961 8.16833 41.9612 8.13562 41.9263 8.10303C41.9084 8.08655 41.8914 8.06982 41.8748 8.05286C41.8564 8.0376 41.8384 8.02185 41.8206 8.00549C41.7852 7.97314 41.7498 7.94104 41.7141 7.90894C41.6963 7.89282 41.6787 7.87634 41.6619 7.8595C41.6433 7.84448 41.625 7.8291 41.6069 7.81311C41.571 7.78125 41.5349 7.74951 41.4988 7.71802C41.4807 7.70215 41.4629 7.68591 41.4456 7.66943C41.4268 7.65479 41.4082 7.63953 41.3899 7.62378C41.3535 7.59265 41.3171 7.56152 41.2805 7.53064C41.2622 7.51514 41.2441 7.49915 41.2268 7.48303C41.2078 7.46863 41.189 7.45374 41.1704 7.43823C41.1335 7.40759 41.0964 7.37708 41.0593 7.3468C41.0408 7.33142 41.0225 7.3158 41.0046 7.29993C40.9854 7.28577 40.9666 7.27112 40.9478 7.25598C40.9102 7.22595 40.8728 7.19592 40.8352 7.16614C40.8162 7.15112 40.7976 7.13586 40.7795 7.12012C40.7603 7.10632 40.741 7.09204 40.7219 7.07715C40.6841 7.04773 40.6462 7.01843 40.6082 6.98926C40.5891 6.97461 40.5703 6.95959 40.552 6.94421C40.5325 6.93066 40.5129 6.91663 40.4937 6.9021C40.4553 6.87329 40.417 6.84448 40.3784 6.81592C40.3591 6.80151 40.3401 6.78674 40.3215 6.77173C40.3018 6.75842 40.282 6.74475 40.2625 6.73047C40.2236 6.70215 40.1848 6.67395 40.1458 6.646C40.1262 6.63184 40.1069 6.61743 40.0881 6.60266C40.0681 6.58972 40.0481 6.57629 40.0283 6.56238C39.9893 6.53467 39.95 6.5072 39.9106 6.47986C39.8909 6.46606 39.8713 6.4519 39.8525 6.4375C39.8323 6.42493 39.812 6.41187 39.7922 6.39819C39.7524 6.37109 39.7129 6.34424 39.6729 6.31738C39.6528 6.30396 39.6333 6.29004 39.614 6.27588C39.5935 6.26367 39.5732 6.25085 39.553 6.23755C39.5129 6.21106 39.4727 6.18469 39.4324 6.15845C39.4121 6.14539 39.3923 6.13184 39.3728 6.11792C39.3521 6.10596 39.3315 6.09351 39.3113 6.08044C39.2708 6.05469 39.2305 6.02905 39.1897 6.00354C39.1692 5.99072 39.1492 5.97742 39.1296 5.96387C39.1086 5.95227 39.0881 5.94006 39.0676 5.92749C39.0266 5.90222 38.9856 5.8772 38.9446 5.85229C38.9241 5.83972 38.9038 5.8269 38.8838 5.8136C38.8628 5.80225 38.8418 5.79041 38.821 5.77808C38.7798 5.75342 38.7383 5.729 38.6968 5.70471C38.676 5.6925 38.6555 5.67993 38.6355 5.66687C38.6143 5.65588 38.593 5.64441 38.572 5.63232C38.5305 5.60852 38.4888 5.58472 38.447 5.56116C38.426 5.54932 38.4055 5.53699 38.3853 5.52429C38.3638 5.51367 38.3425 5.50256 38.3215 5.49084Q38.2585 5.45593 38.1953 5.42151C38.1741 5.40991 38.1531 5.39795 38.1326 5.38562C38.1111 5.37524 38.0896 5.36438 38.0684 5.35303C38.0259 5.33032 37.9834 5.30786 37.9407 5.28552C37.9194 5.27429 37.8982 5.26257 37.8777 5.25061C37.856 5.2406 37.8342 5.2301 37.8127 5.21899C37.77 5.19702 37.7273 5.17529 37.6846 5.15369C37.6631 5.14282 37.6418 5.13147 37.6211 5.11975C37.5991 5.11011 37.5774 5.09998 37.5557 5.08923C37.5127 5.06799 37.4695 5.04675 37.4263 5.02576C37.4045 5.01526 37.3833 5.00427 37.3623 4.9928C37.3401 4.98352 37.3181 4.97363 37.2964 4.96326C37.2529 4.94263 37.2095 4.92212 37.1658 4.90173C37.1438 4.89148 37.1223 4.88086 37.1011 4.86975C37.0789 4.86072 37.0566 4.8512 37.0347 4.84119C36.9912 4.82117 36.9475 4.80139 36.9038 4.78186C36.8816 4.77197 36.8599 4.7616 36.8386 4.75085C36.8164 4.74231 36.7942 4.73315 36.772 4.72339C36.728 4.7041 36.6841 4.68506 36.6399 4.66602C36.6177 4.65649 36.5957 4.64648 36.5742 4.63599C36.5518 4.62781 36.5293 4.6189 36.5071 4.60962Q36.4407 4.58154 36.3738 4.55408C36.3513 4.54492 36.3293 4.53516 36.3076 4.52502C36.2849 4.51709 36.2625 4.50867 36.24 4.49963C36.1956 4.48169 36.1509 4.46399 36.1064 4.44641C36.084 4.4375 36.0618 4.42822 36.04 4.41846C36.0173 4.41089 35.9946 4.40283 35.9722 4.39417C35.9272 4.37683 35.8823 4.35986 35.8374 4.3429C35.8147 4.33435 35.7925 4.32544 35.7705 4.31592C35.7476 4.30872 35.7249 4.3009 35.7021 4.2926C35.657 4.276 35.6118 4.25964 35.5664 4.24329C35.5437 4.23511 35.5212 4.22644 35.499 4.21741C35.4761 4.21045 35.4531 4.203 35.4302 4.19507C35.385 4.1792 35.3396 4.16345 35.2942 4.14795C35.2712 4.14014 35.2488 4.13196 35.2266 4.12317C35.2036 4.1167 35.1807 4.10962 35.1577 4.10193C35.1123 4.08679 35.0667 4.07178 35.0208 4.05701C34.9978 4.04956 34.9751 4.0415 34.9526 4.0332C34.9297 4.02698 34.9065 4.02026 34.8835 4.01294C34.8376 3.99841 34.7915 3.98413 34.7456 3.96997C34.7224 3.96289 34.6995 3.9552 34.677 3.94714C34.6536 3.94128 34.6304 3.93494 34.6072 3.92798C34.5613 3.91418 34.5151 3.90063 34.469 3.88721C34.4458 3.88049 34.4229 3.87317 34.4004 3.86548C34.377 3.86011 34.3538 3.854 34.3306 3.84753C34.2844 3.83447 34.238 3.82153 34.1919 3.80884C34.1685 3.80237 34.1455 3.79553 34.1226 3.78821C34.0994 3.78308 34.0759 3.77734 34.0525 3.77112C34.0061 3.75879 33.9595 3.74658 33.9128 3.7345C33.8894 3.72852 33.8662 3.72192 33.8433 3.71484C33.8196 3.71008 33.7961 3.70483 33.7727 3.69897C33.7261 3.68726 33.6792 3.67578 33.6326 3.66443C33.6089 3.65881 33.5859 3.65259 33.563 3.646C33.5393 3.6416 33.5159 3.6366 33.4924 3.6311C33.4458 3.62024 33.3989 3.6095 33.3521 3.59888C33.3284 3.59351 33.3052 3.58777 33.282 3.58142C33.2583 3.57739 33.2349 3.57275 33.2112 3.56763C33.1641 3.55737 33.1172 3.54736 33.0698 3.53748C33.0461 3.53247 33.0227 3.52698 32.9995 3.521C32.9758 3.51733 32.9519 3.51306 32.9282 3.5083C32.8811 3.49866 32.8337 3.48938 32.7864 3.4801C32.7627 3.47559 32.7393 3.47046 32.7161 3.46484C32.6924 3.46155 32.6687 3.45764 32.645 3.45325C32.5979 3.44446 32.5505 3.43591 32.5034 3.42749C32.4795 3.42322 32.4561 3.41846 32.4326 3.41321C32.4089 3.41028 32.385 3.40674 32.3611 3.40271C32.3137 3.39453 32.2664 3.3866 32.2188 3.37891C32.1948 3.375 32.1711 3.37061 32.1477 3.36572C32.1238 3.36304 32.0999 3.35999 32.0759 3.3562C32.0281 3.34888 31.9805 3.34167 31.9326 3.33459C31.9087 3.33105 31.885 3.32703 31.8616 3.32251C31.8379 3.32031 31.814 3.3175 31.79 3.31409C31.7424 3.3075 31.6951 3.30103 31.6475 3.2948C31.6233 3.29163 31.5996 3.28796 31.5762 3.28369C31.5522 3.28186 31.5283 3.27942 31.5044 3.27649C31.4565 3.27051 31.4087 3.26477 31.3608 3.25928C31.3369 3.25647 31.313 3.25305 31.2893 3.24927C31.2654 3.24768 31.2412 3.24561 31.217 3.24304C31.1692 3.23779 31.1211 3.23279 31.073 3.22791C31.0488 3.22546 31.0251 3.22253 31.0012 3.21899C30.9773 3.2179 30.9534 3.21619 30.9292 3.21387C30.8816 3.20947 30.8337 3.20508 30.7859 3.20105C30.7617 3.19897 30.7378 3.19629 30.7141 3.19324C30.6902 3.19238 30.6663 3.19104 30.6421 3.18921C30.5942 3.18542 30.5461 3.18176 30.498 3.17847C30.4739 3.17664 30.45 3.17444 30.426 3.17163C30.4021 3.17126 30.3779 3.17029 30.3538 3.1687C30.3057 3.16565 30.2573 3.16272 30.2092 3.16003C30.1848 3.15869 30.1606 3.15686 30.1367 3.15442C30.1128 3.1543 30.0886 3.15369 30.0642 3.15247Q29.9924 3.14905 29.9204 3.14612C29.8962 3.14514 29.8723 3.14355 29.8486 3.14148C29.8247 3.14185 29.8005 3.1416 29.7764 3.14075C29.7283 3.13916 29.6802 3.1377 29.6321 3.13647C29.6079 3.13586 29.5837 3.13464 29.5598 3.13293C29.5359 3.13354 29.5117 3.13367 29.4875 3.13318C29.4392 3.13232 29.3909 3.13159 29.3425 3.1311C29.3184 3.13074 29.2942 3.13 29.27 3.12854C29.2461 3.12964 29.2217 3.13 29.1975 3.13C29.1733 3.12988 29.1489 3.12988 29.1248 3.12988ZM52.7708 16.0483C52.0557 16.7502 51.2036 17.2736 50.3108 17.559L50.3093 17.5482C50.3052 17.5201 50.3003 17.4922 50.2949 17.4646C50.292 17.4366 50.2883 17.4086 50.2842 17.3805C50.2754 17.3246 50.2666 17.2687 50.2573 17.2129C50.2527 17.1847 50.2473 17.1567 50.2412 17.1292C50.238 17.1011 50.2339 17.073 50.229 17.0448C50.2271 17.0344 50.2253 17.0239 50.2236 17.0135C50.2212 17.0006 50.219 16.9878 50.2168 16.975C50.2109 16.9423 50.2051 16.9097 50.1992 16.8771C50.1941 16.849 50.1882 16.8213 50.1816 16.7938C50.178 16.7659 50.1733 16.7379 50.168 16.71C50.1572 16.6543 50.1465 16.5986 50.1353 16.5432C50.1296 16.5153 50.1233 16.4877 50.1162 16.4604C50.1121 16.4326 50.1069 16.4048 50.1011 16.377C50.0896 16.3215 50.0776 16.2662 50.0654 16.2109C50.0593 16.183 50.0525 16.1555 50.0452 16.1283C50.0403 16.1005 50.0347 16.0725 50.0283 16.0447C50.0156 15.9894 50.0029 15.9341 49.9897 15.8789C49.9832 15.8512 49.9758 15.8237 49.9678 15.7968C49.9626 15.769 49.9565 15.7413 49.9497 15.7136C49.936 15.6586 49.9224 15.6038 49.9082 15.5488C49.9011 15.5212 49.8933 15.494 49.885 15.4672C49.8792 15.4397 49.8726 15.4121 49.8655 15.3846C49.8508 15.33 49.8359 15.2753 49.821 15.2207C49.8135 15.1932 49.8052 15.166 49.7964 15.1393C49.79 15.1118 49.783 15.0842 49.7751 15.0568C49.7598 15.0022 49.7439 14.9478 49.7278 14.8934C49.72 14.8661 49.7112 14.8391 49.7017 14.8125C49.6951 14.7852 49.6875 14.7578 49.6792 14.7306C49.6628 14.6764 49.646 14.6222 49.6292 14.5682C49.6206 14.541 49.6116 14.5143 49.6016 14.4879C49.5945 14.4607 49.5864 14.4336 49.5776 14.4065C49.5603 14.3527 49.5427 14.2988 49.5249 14.2452C49.5159 14.2181 49.5061 14.1914 49.4958 14.1652C49.4883 14.1381 49.4797 14.111 49.4705 14.084C49.4521 14.0304 49.4336 13.9768 49.4148 13.9235C49.4053 13.8966 49.3953 13.8701 49.3843 13.8441C49.3762 13.8171 49.3674 13.7903 49.3577 13.7634C49.3384 13.7102 49.3188 13.6571 49.2991 13.604C49.2893 13.5774 49.2786 13.5511 49.2676 13.5253C49.2588 13.4985 49.2495 13.4719 49.2393 13.4453C49.2192 13.3925 49.1987 13.3396 49.1782 13.287C49.1677 13.2605 49.1567 13.2344 49.145 13.2087C49.136 13.182 49.1262 13.1555 49.1155 13.129C49.0945 13.0765 49.073 13.024 49.0515 12.9717C49.0408 12.9453 49.0293 12.9194 49.0171 12.894C49.0076 12.8676 48.9973 12.8412 48.9863 12.8151C48.9641 12.7629 48.9419 12.7109 48.9197 12.6589C48.9082 12.6328 48.8965 12.6072 48.8838 12.582C48.8738 12.5558 48.863 12.5295 48.8516 12.5035C48.8289 12.4519 48.8057 12.4003 48.7822 12.3488C48.7705 12.3228 48.7583 12.2974 48.7454 12.2723C48.7349 12.2462 48.7236 12.2202 48.7117 12.1943C48.688 12.1431 48.6638 12.0918 48.6396 12.0408C48.6274 12.015 48.6147 11.9897 48.6013 11.965C48.5906 11.9391 48.5789 11.9133 48.5664 11.8877C48.5417 11.8368 48.5171 11.786 48.4919 11.7354C48.4792 11.71 48.4661 11.6849 48.4524 11.6604C48.4409 11.6348 48.429 11.6091 48.416 11.5837C48.3906 11.5333 48.365 11.483 48.3391 11.4327C48.3259 11.4075 48.3123 11.3827 48.2981 11.3585C48.2864 11.333 48.2739 11.3076 48.2605 11.2825C48.2344 11.2324 48.2078 11.1825 48.1809 11.1328C48.1675 11.1078 48.1533 11.0833 48.1389 11.0592C48.1267 11.0339 48.1138 11.0088 48.1001 10.9839C48.0728 10.9343 48.0454 10.8849 48.0178 10.8357C48.0039 10.8109 47.9895 10.7866 47.9746 10.7628C47.9619 10.7378 47.9485 10.7129 47.9346 10.6881C47.9065 10.6392 47.8784 10.5902 47.8499 10.5414C47.8357 10.5168 47.8208 10.4928 47.8054 10.4694C47.7922 10.4445 47.7786 10.4198 47.7639 10.3954C47.7351 10.3468 47.7063 10.2983 47.677 10.2501C47.6624 10.2257 47.647 10.202 47.6311 10.1788C47.6177 10.1542 47.6035 10.1298 47.5886 10.1056C47.5591 10.0575 47.5293 10.0095 47.4993 9.96179C47.4841 9.93774 47.4685 9.91418 47.4524 9.89124C47.4385 9.86682 47.4238 9.84265 47.4087 9.81873C47.3782 9.77124 47.3477 9.72388 47.3167 9.67651C47.3013 9.65283 47.2852 9.62952 47.2688 9.60693C47.2544 9.58276 47.2395 9.55884 47.2239 9.53516C47.1926 9.48816 47.1611 9.44128 47.1296 9.39453C47.1138 9.37097 47.0974 9.34802 47.0803 9.32568C47.0657 9.30176 47.0503 9.27808 47.0342 9.25476C47.0024 9.20825 46.9702 9.16187 46.9377 9.11572C46.9216 9.09241 46.9048 9.06982 46.8875 9.04773C46.8723 9.02405 46.8567 9.00061 46.8401 8.97742C46.8074 8.93152 46.7747 8.88574 46.7415 8.84021C46.7249 8.81714 46.7078 8.7948 46.6899 8.77307C46.6746 8.74963 46.6584 8.72656 46.6416 8.70374C46.6082 8.65833 46.5747 8.61316 46.5408 8.56799C46.5237 8.54529 46.5061 8.52332 46.4883 8.50171C46.4724 8.47864 46.4558 8.45569 46.4387 8.43323C46.4045 8.38843 46.3701 8.34375 46.3354 8.29919C46.3181 8.27673 46.3003 8.255 46.282 8.23376C46.2656 8.21094 46.2488 8.18835 46.2312 8.16602C46.1963 8.12183 46.1614 8.07776 46.126 8.03394C46.1084 8.01184 46.0901 7.99036 46.0713 7.96948C46.0549 7.94678 46.0376 7.92456 46.0198 7.90259C45.9841 7.85901 45.9482 7.81555 45.9124 7.77222C45.8943 7.75037 45.8757 7.72913 45.8567 7.70862C45.8398 7.68628 45.822 7.66431 45.804 7.64258C45.7676 7.59961 45.731 7.55664 45.6943 7.51392C45.6758 7.49231 45.657 7.47144 45.6375 7.45117C45.6204 7.4292 45.6023 7.40747 45.5837 7.38611C45.5466 7.34363 45.5095 7.30139 45.4722 7.25928C45.4534 7.23816 45.4343 7.21753 45.4146 7.19763C45.397 7.1759 45.3787 7.15454 45.3599 7.13342C45.322 7.09167 45.2842 7.05005 45.2463 7.00854C45.2271 6.98767 45.2075 6.96741 45.1875 6.94775C45.1697 6.92627 45.1509 6.90515 45.1316 6.8844C45.0933 6.84326 45.0547 6.80212 45.0161 6.76123C44.9966 6.74072 44.9768 6.7207 44.9563 6.70142C44.938 6.6803 44.9192 6.65942 44.8994 6.63904C44.8606 6.59851 44.8215 6.55811 44.7822 6.51794C44.7727 6.50818 44.7632 6.49866 44.7534 6.48926C47.2112 4.73914 50.676 4.98291 52.8523 7.19958C55.2607 9.65283 55.2239 13.6399 52.7708 16.0483ZM5.49316 7.3302C7.63013 5.15356 11.0098 4.87915 13.4583 6.52734C13.4219 6.56445 13.386 6.60168 13.3501 6.63904C13.3303 6.65942 13.3113 6.6803 13.293 6.70142C13.2727 6.72083 13.2529 6.74072 13.2334 6.76123C13.1948 6.80225 13.1562 6.84326 13.1179 6.88452C13.0986 6.90515 13.0798 6.92627 13.062 6.94775C13.042 6.96741 13.0225 6.98767 13.0032 7.00854C12.9653 7.05005 12.9275 7.09167 12.8896 7.13354C12.8708 7.15454 12.8525 7.1759 12.835 7.19763C12.8152 7.21765 12.7961 7.23816 12.7773 7.2594C12.74 7.30139 12.7029 7.34363 12.6658 7.38611C12.6472 7.40747 12.6292 7.4292 12.6118 7.45129C12.5925 7.47156 12.5737 7.49243 12.5552 7.51392C12.5186 7.55664 12.4819 7.59961 12.4456 7.64258C12.4275 7.66431 12.4097 7.68628 12.3928 7.70862C12.3738 7.72925 12.3552 7.75037 12.3372 7.77222C12.3013 7.81555 12.2654 7.85901 12.2297 7.90259C12.2119 7.92456 12.1946 7.9469 12.1782 7.96948C12.1594 7.99036 12.1411 8.01184 12.1235 8.03394C12.0881 8.07776 12.0532 8.12183 12.0183 8.16602C12.0007 8.18835 11.9839 8.21094 11.9675 8.23376C11.9492 8.255 11.9314 8.27686 11.9141 8.29919C11.8794 8.34375 11.845 8.38843 11.8108 8.43323C11.7937 8.45581 11.7771 8.47864 11.7612 8.50171C11.7434 8.52332 11.7258 8.54541 11.7087 8.56799C11.6748 8.61316 11.6414 8.65833 11.6079 8.70374C11.5911 8.72656 11.575 8.74963 11.5593 8.77307C11.5417 8.7948 11.5247 8.81726 11.5081 8.84021C11.4749 8.88586 11.4421 8.93152 11.4094 8.97754C11.3928 9.00061 11.3772 9.02405 11.3621 9.04773C11.3447 9.06982 11.3279 9.09241 11.3118 9.11572C11.2793 9.16187 11.2471 9.20825 11.2153 9.25476C11.1992 9.27808 11.1838 9.30176 11.1692 9.32568C11.1521 9.34814 11.1357 9.37109 11.1199 9.39453C11.0884 9.44128 11.0569 9.48816 11.0256 9.53516C11.01 9.55884 10.9951 9.58276 10.981 9.60693C10.9644 9.62952 10.9482 9.65283 10.9329 9.67651C10.9019 9.72388 10.8713 9.77124 10.8408 9.81873C10.8257 9.84265 10.811 9.86682 10.7971 9.89124C10.781 9.91418 10.7654 9.93774 10.7502 9.96179C10.7202 10.0095 10.6904 10.0575 10.6609 10.1056C10.646 10.1298 10.6318 10.1542 10.6184 10.1788C10.6025 10.202 10.5872 10.2258 10.5725 10.2501C10.5432 10.2983 10.5144 10.3468 10.4856 10.3954C10.4709 10.4198 10.4573 10.4445 10.4441 10.4694C10.4287 10.4928 10.4138 10.5168 10.3997 10.5414C10.3713 10.5902 10.343 10.6392 10.3149 10.6881C10.301 10.7129 10.2876 10.7378 10.2749 10.7628C10.26 10.7866 10.2456 10.8108 10.2317 10.8357C10.2041 10.8849 10.1768 10.9343 10.1494 10.9839C10.1357 11.0088 10.1228 11.0339 10.1106 11.0592C10.0962 11.0833 10.082 11.1078 10.0686 11.1328C10.0417 11.1825 10.0151 11.2324 9.98901 11.2825C9.97559 11.3076 9.96313 11.333 9.95142 11.3585C9.93726 11.3827 9.92358 11.4075 9.9104 11.4327C9.88452 11.483 9.85889 11.5333 9.8335 11.5837C9.82056 11.6091 9.80859 11.6348 9.79712 11.6604C9.78345 11.6849 9.77026 11.71 9.75757 11.7354C9.73242 11.786 9.70776 11.8368 9.68311 11.8877C9.67065 11.9133 9.65894 11.9391 9.64819 11.965C9.63477 11.9897 9.62207 12.015 9.60986 12.0406Q9.57349 12.1173 9.53784 12.1943C9.52588 12.2202 9.51465 12.2462 9.50415 12.2723C9.49121 12.2974 9.479 12.3228 9.46729 12.3488C9.44385 12.4003 9.42065 12.4518 9.39795 12.5035C9.38647 12.5295 9.37573 12.5558 9.36572 12.582C9.35303 12.6072 9.34131 12.6328 9.32983 12.6589C9.30762 12.7108 9.2854 12.7628 9.26343 12.8151C9.2522 12.8412 9.24194 12.8676 9.23242 12.894C9.22021 12.9194 9.20874 12.9453 9.198 12.9717C9.17651 13.024 9.15503 13.0764 9.13403 13.129C9.12329 13.1555 9.11353 13.182 9.10449 13.2087C9.09277 13.2344 9.08179 13.2604 9.07129 13.287C9.05078 13.3396 9.03027 13.3925 9.01025 13.4453C9 13.4718 8.99072 13.4985 8.98193 13.5253C8.97095 13.5511 8.96021 13.5774 8.95044 13.604C8.93066 13.6571 8.91113 13.7102 8.89185 13.7634C8.88208 13.7903 8.87329 13.8171 8.86523 13.8441C8.85449 13.8701 8.84424 13.8965 8.83472 13.9235C8.81592 13.9768 8.79736 14.0304 8.77905 14.084C8.76978 14.111 8.76123 14.1381 8.75366 14.1652C8.74341 14.1914 8.73364 14.2181 8.72461 14.2451C8.70679 14.2988 8.68921 14.3527 8.67188 14.4065C8.66309 14.4336 8.65503 14.4607 8.64795 14.4879C8.63794 14.5143 8.62891 14.541 8.62036 14.5682C8.60352 14.6222 8.58667 14.6763 8.57031 14.7305C8.56201 14.7578 8.55444 14.7852 8.54785 14.8125C8.53833 14.8391 8.52979 14.866 8.52173 14.8934C8.50562 14.9478 8.48999 15.0022 8.47437 15.0568C8.46655 15.0842 8.45947 15.1117 8.45312 15.1393C8.44434 15.166 8.43604 15.1932 8.42847 15.2207C8.41357 15.2753 8.39868 15.3298 8.38428 15.3846C8.37695 15.4121 8.37036 15.4397 8.3645 15.4672C8.3562 15.494 8.34839 15.5212 8.34131 15.5488C8.32715 15.6036 8.31348 15.6586 8.2998 15.7136C8.29297 15.7413 8.28687 15.769 8.28174 15.7966C8.27368 15.8237 8.26636 15.8511 8.25977 15.8789C8.24658 15.9341 8.23389 15.9893 8.22119 16.0447C8.21484 16.0725 8.20923 16.1003 8.20435 16.1282C8.19702 16.1554 8.19019 16.183 8.18408 16.2109C8.17188 16.2661 8.15991 16.3215 8.14844 16.3768C8.14258 16.4048 8.13745 16.4326 8.1333 16.4604C8.12622 16.4877 8.11987 16.5153 8.11426 16.5432C8.10327 16.5986 8.09229 16.6543 8.08154 16.7098C8.07617 16.7379 8.07153 16.7659 8.06787 16.7938C8.06128 16.8213 8.05542 16.849 8.05029 16.8771C8.04028 16.9329 8.03027 16.9888 8.02051 17.0448C8.01562 17.0729 8.01147 17.1011 8.0083 17.1292C8.0022 17.1567 7.99683 17.1847 7.99219 17.2129C7.98315 17.2687 7.97412 17.3245 7.96533 17.3805C7.96118 17.4086 7.95752 17.4366 7.95459 17.4646C7.94922 17.4922 7.94434 17.52 7.94019 17.5482C7.93506 17.5833 7.92993 17.6184 7.92505 17.6534C7.07227 17.3612 6.26025 16.8522 5.57471 16.1791C3.12134 13.7705 3.08447 9.78357 5.49316 7.3302ZM47.3872 26.7314C47.3855 26.7101 47.3843 26.6885 47.3833 26.6669C47.3833 26.6646 47.3831 26.6609 47.3828 26.656C47.3818 26.6404 47.3799 26.6117 47.3765 26.571C47.3696 26.4895 47.3567 26.3597 47.3333 26.1888C47.2861 25.8464 47.1973 25.3416 47.032 24.7289C46.7007 23.5007 46.0686 21.8621 44.8687 20.226C42.6104 17.146 38.1487 13.8148 29.1248 13.5762C20.1008 13.8148 15.6392 17.146 13.3806 20.226C12.1809 21.8621 11.5488 23.5007 11.2175 24.7289C11.0522 25.3416 10.9634 25.8464 10.9163 26.1888C10.9111 26.2267 10.9065 26.2625 10.9023 26.2963C11.0364 32.1504 12.7812 36.2456 15.7358 39.2887C18.8398 42.4856 23.4297 44.6801 29.4133 46.3638C33.9385 45.032 37.677 43.3807 40.5471 41.1635C40.6438 41.0637 40.7537 40.9768 40.8738 40.9055C41.5017 40.399 42.0857 39.8638 42.6252 39.2968C45.4517 36.3265 47.1787 32.3536 47.3872 26.7314ZM16.2349 31.1522C17.624 30.0559 18.5073 29.7222 19.2395 29.7335C18.3755 29.7338 17.6753 30.4343 17.6753 31.2985C17.6753 32.1627 18.376 32.8634 19.2402 32.8634C20.1045 32.8634 20.8052 32.1627 20.8052 31.2985C20.8052 30.4863 20.1865 29.8187 19.3948 29.7411C20.1328 29.8011 20.9768 30.2126 22.2703 31.1714C22.7332 31.5145 23.3865 31.4174 23.7297 30.9545C24.0728 30.4917 23.9756 29.8383 23.5127 29.4951C22.1086 28.4542 20.7952 27.6937 19.3396 27.6488C17.8562 27.603 16.478 28.3024 14.9421 29.5143C14.49 29.8712 14.4126 30.5272 14.7695 30.9795C15.1265 31.4319 15.7825 31.5092 16.2349 31.1522ZM36.0574 31.1522C37.4465 30.0559 38.3298 29.7222 39.062 29.7335C38.198 29.7336 37.4976 30.4342 37.4976 31.2985C37.4976 32.1627 38.198 32.8634 39.0623 32.8634C39.9268 32.8634 40.6272 32.1627 40.6272 31.2985C40.6272 30.486 40.0081 29.818 39.2158 29.741C39.9543 29.8007 40.7986 30.212 42.0928 31.1714C42.5557 31.5145 43.209 31.4174 43.552 30.9545C43.8953 30.4917 43.7981 29.8383 43.3352 29.4951C41.9312 28.4542 40.6177 27.6937 39.1621 27.6488C37.6787 27.603 36.3003 28.3024 34.7646 29.5143C34.3125 29.8712 34.2351 30.5272 34.592 30.9795C34.949 31.4319 35.605 31.5092 36.0574 31.1522ZM26.543 38.0792C26.543 37.215 25.8425 36.5143 24.9783 36.5143C24.1138 36.5143 23.4133 37.215 23.4133 38.0792C23.4133 39.5465 24.21 40.7556 25.2615 41.5443C26.3127 42.3326 27.6931 42.774 29.1514 42.774C30.6096 42.774 31.99 42.3326 33.041 41.5443C34.0928 40.7556 34.8894 39.5465 34.8894 38.0792C34.8894 37.215 34.1887 36.5143 33.3245 36.5143C32.4602 36.5143 31.7595 37.215 31.7595 38.0792C31.7595 38.3406 31.6218 38.6964 31.1631 39.0404C30.7039 39.3849 29.9978 39.6442 29.1514 39.6442C28.3047 39.6442 27.5986 39.3849 27.1394 39.0404C26.6807 38.6964 26.543 38.3406 26.543 38.0792ZM36.8323 54.5669C34.7561 56.2704 31.9106 57.3799 28.896 57.3799C23.1045 57.3799 18.197 53.306 18.197 47.469L18.197 45.1465C21.2104 46.9561 24.7649 48.3165 28.718 49.4193C29.1831 49.5491 29.6797 49.5465 30.1443 49.411C33.8479 48.3307 37.2175 47.0031 40.106 45.2506L40.106 47.469C40.106 50.2697 39.1135 52.6951 36.8323 54.5669ZM38.8176 56.9865C40.8945 55.2821 42.4673 53.019 43.0203 50.4908C50.6084 55.2092 56.3203 63.5829 56.8755 73.0293L46.8872 73.0293L46.8872 67.2913C46.8872 66.427 46.1865 65.7264 45.3223 65.7264C44.458 65.7264 43.7573 66.427 43.7573 67.2913L43.7573 73.551C43.7573 74.9915 44.925 76.1592 46.3655 76.1592L48.9739 76.1592L48.9739 90.7651L11.4158 90.7651L11.4158 76.6808L13.5022 76.6808C14.9426 76.6808 16.1104 75.5131 16.1104 74.0725L16.1104 67.2913C16.1104 66.427 15.4097 65.7263 14.5454 65.7263C13.6812 65.7263 12.9805 66.427 12.9805 67.2913L12.9805 73.5509L3.14648 73.5509C3.46118 64.1713 8.24536 56.0236 15.4331 51.1945C16.8909 56.4717 22.5156 60.5098 28.896 60.5098C32.6584 60.5098 36.2004 59.1339 38.8176 56.9865ZM9.43188 102.554L10.7224 93.8894C9.36206 93.8009 8.28589 92.6694 8.28589 91.2867L8.28589 76.6808L4.63379 76.6808L4.63379 106.287L6.30298 107.957L6.30298 105.162C6.30298 103.722 7.4707 102.554 8.91138 102.554L9.43188 102.554ZM13.8857 93.8949L10.6228 115.804L50.25 115.804L46.5208 93.8949L13.8857 93.8949ZM23.4126 118.933L20.2827 118.933L20.2827 128.323L23.4126 128.323L23.4126 118.933ZM34.8894 118.933L34.8894 138.443L38.0193 138.443L38.0193 118.933L34.8894 118.933ZM34.8894 141.573L34.8894 149.397L45.8979 149.397L39.6389 146.833C38.6592 146.432 38.0193 145.478 38.0193 144.42L38.0193 141.573L34.8894 141.573Z" fill-rule="evenodd" fill="#000000"/>
</svg>
