<svg width="87.000000" height="188.412109" viewBox="0 0 87 188.412" fill="none" xmlns="http://www.w3.org/2000/svg" xmlns:xlink="http://www.w3.org/1999/xlink">
	<desc>
			Created with Pixso.
	</desc>
	<defs/>
	<path id="Broken arm" d="M22.7471 24.7098C23.0073 30.5355 24.8604 34.9661 28.1475 38.3521C28.6196 38.8383 29.1187 39.3002 29.6436 39.7395L29.6436 45.8738C21.7422 50.5948 16.3066 58.9811 15.7891 68.709L15.7871 68.7484L15.7871 68.7878C15.7871 69.782 15.897 70.7954 16.1284 71.7213L16.1333 71.7418L18.2129 79.1556C18.5127 80.2236 19.4863 80.9618 20.5952 80.9618L24.8926 80.9618L24.8926 95.8081C24.8926 96.7104 25.3755 97.5 26.0972 97.9323L22.9004 119.396C22.6777 120.891 23.8364 122.235 25.3481 122.235L32.6128 122.235L32.6128 130.2C32.0469 130.654 31.6846 131.351 31.6846 132.132L31.6846 139.373C29.73 138.826 26.7759 138.528 24.5483 140.398C22.8721 141.804 22.6343 144.202 22.7354 146.107C22.8428 148.136 23.3701 150.251 23.8662 151.748C24.208 152.779 25.1709 153.412 26.1899 153.412L41.0259 153.412C42.3926 153.412 43.5 152.304 43.5 150.938L43.5 132.132C43.5 131.826 43.4448 131.533 43.3433 131.263L43.4941 131.277L44.3159 122.235L45.6533 122.235L46.4756 131.277L46.6265 131.263C46.5249 131.534 46.4692 131.827 46.4692 132.132L46.4692 150.938C46.4692 152.304 47.5771 153.412 48.9438 153.412L63.7793 153.412C64.7988 153.412 65.7612 152.779 66.1035 151.748C66.5996 150.251 67.127 148.136 67.2344 146.107C67.3354 144.202 67.0977 141.804 65.4214 140.398C63.1934 138.528 60.2397 138.826 58.2847 139.373L58.2847 132.132C58.2847 131.351 57.9224 130.654 57.3569 130.2L57.3569 122.235L64.1064 122.235C65.6353 122.235 66.7983 120.862 66.5469 119.354L64.5498 107.37C65.3906 107.266 66.1489 106.732 66.4995 105.906C66.8691 105.035 67.6167 103.165 67.833 101.661C67.9575 100.797 67.9526 99.7471 67.9258 98.9728C67.9199 98.798 67.9126 98.6324 67.9048 98.4803L68.7388 98.4803C70.1055 98.4803 71.2134 97.3726 71.2134 96.006L71.2134 70.0743C71.2134 59.6517 64.8984 50.4899 56.5649 45.5667L56.5649 39.6486C57.0449 39.2322 57.5034 38.7959 57.939 38.3381C61.1484 34.9653 62.9932 30.5571 63.2612 24.7593L63.2954 24.7596L63.4512 10.158L63.4512 10.15C63.4512 7.23413 61.3638 4.86804 58.6226 4.28052L58.6201 4.27942L58.6182 4.27844C58.6133 4.27576 58.6069 4.27136 58.6006 4.2655C58.5962 4.26135 58.5933 4.25757 58.5918 4.25513C57.9229 1.61316 55.3994 -0.203491 52.4805 0.0183105C49.478 0.220947 29.0728 3.19971 27.4653 3.43457L19.2358 3.43457C17.9614 3.43457 16.561 4.49756 16.8018 6.13684C17.0464 7.80603 17.7646 9.60449 18.7881 11.1014C19.7866 12.5623 21.2021 13.9143 22.9556 14.4331L22.7495 23.2594L22.7153 23.2594C22.7153 23.5719 22.7197 23.8807 22.728 24.1857L22.7158 24.7091L22.7471 24.7098ZM52.7012 2.97937C54.2437 2.86023 55.4155 3.79944 55.7144 4.98828C55.9893 6.08374 56.8916 6.94641 58 7.18384C59.4595 7.49646 60.4785 8.71948 60.4819 10.1429L60.3555 22.0022C59.7378 21.7791 59.2192 21.4259 58.7915 20.9795C58.0122 20.1665 57.4688 18.9706 57.2915 17.5148L56.5659 11.5629C56.4082 10.271 55.2949 9.36951 54.0571 9.36951L53.564 9.36951L52.502 9.46265C52.2656 9.4834 52.0366 9.53662 51.8208 9.61768C48.083 11.0222 44.1406 11.6831 40.0801 11.6831L24.0903 11.6831C24 11.6479 23.9116 11.6182 23.8252 11.5936C22.9683 11.3501 22.0396 10.5962 21.2393 9.42554C20.6021 8.49402 20.1284 7.41406 19.8779 6.40393L27.4951 6.40393C27.6128 6.40393 27.7329 6.39636 27.8618 6.37756C29.3066 6.16626 49.8418 3.1698 52.6851 2.98047L52.6929 2.97998L52.7012 2.97937ZM60.2715 25.0608C58.8389 24.749 57.6123 24.0402 56.6479 23.0341C55.3423 21.6721 54.5835 19.8383 54.3438 17.874L53.6694 12.3408L52.8159 12.4158C48.731 13.9435 44.4482 14.6523 40.0801 14.6523L25.9209 14.6523L25.6982 24.1783C25.8638 29.6146 27.5122 33.4351 30.2778 36.2837C33.2227 39.3165 37.5771 41.3984 43.2539 42.9957C47.4316 41.7662 50.9028 40.2496 53.5952 38.2303L53.5952 38.1053L53.7603 38.1053C54.4961 37.541 55.1729 36.9379 55.7881 36.2913C58.3521 33.5966 59.9624 30.0319 60.2715 25.0608ZM52.4072 26.2286C51.7124 26.218 50.8745 26.5345 49.5571 27.5746C49.1279 27.9132 48.5054 27.8398 48.167 27.4108C47.8281 26.9817 47.9014 26.3593 48.3306 26.0206C49.7876 24.8708 51.0952 24.2074 52.5024 24.2509C53.8833 24.2935 55.1294 25.015 56.4614 26.0024C56.9004 26.328 56.9927 26.9479 56.667 27.387C56.3418 27.8262 55.7217 27.9182 55.2827 27.5928C54.0557 26.683 53.2544 26.2927 52.5542 26.2357C53.3057 26.3093 53.8926 26.9427 53.8926 27.7133C53.8926 28.5332 53.228 29.1979 52.4077 29.1979C51.5879 29.1979 50.9233 28.5332 50.9233 27.7133C50.9233 26.8936 51.5874 26.229 52.4072 26.2286ZM33.6021 26.2286C32.9072 26.218 32.0693 26.5347 30.7515 27.5746C30.3223 27.9132 29.7002 27.8398 29.3613 27.4108C29.0229 26.9817 29.0962 26.3594 29.5254 26.0208C30.9819 24.871 32.2896 24.2075 33.6968 24.2509C35.0776 24.2935 36.3242 25.015 37.6562 26.0026C38.0952 26.328 38.1875 26.9479 37.8618 27.3871C37.5361 27.8262 36.9165 27.9183 36.4775 27.5928C35.25 26.683 34.4492 26.2927 33.749 26.2358C34.5 26.3093 35.0874 26.9427 35.0874 27.7133C35.0874 28.5332 34.4224 29.198 33.6025 29.198C32.7827 29.198 32.1182 28.5332 32.1182 27.7133C32.1182 26.8936 32.7822 26.2291 33.6021 26.2286ZM41.0254 34.6415C40.2056 34.6415 39.541 35.3062 39.541 36.1261C39.541 36.946 40.2056 37.6107 41.0254 37.6107L43.9946 37.6107C44.8149 37.6107 45.4795 36.946 45.4795 36.1261C45.4795 35.3062 44.8149 34.6415 43.9946 34.6415L41.0254 34.6415ZM53.5952 45.58C53.5889 45.5911 53.583 45.6023 53.5767 45.6136C53.5166 45.7249 53.4722 45.8403 53.4424 45.9575C46.6396 47.8922 39.4097 47.8655 32.6128 45.944L32.6128 41.8408C35.4717 43.5575 38.8438 44.8483 42.5942 45.8945C43.0352 46.0176 43.5063 46.0151 43.9473 45.8866C47.5454 44.8369 50.8115 43.5413 53.5952 41.8185L53.5952 45.58ZM48.5337 59.3851L21.1597 59.3851C23.2959 54.9012 26.7168 51.1383 30.9541 48.5509C38.1968 50.7665 45.9434 50.9685 53.2847 49.0763L48.5854 59.2582C48.5659 59.3 48.5488 59.3424 48.5337 59.3851ZM56.5552 49.076C57.4561 49.6898 58.3232 50.3585 59.1494 51.0768L55.5054 59.2769C55.4893 59.3127 55.4746 59.3488 55.4619 59.3851L51.7974 59.3851L56.5552 49.076ZM68.2441 77.0099L68.2441 70.0743C68.2441 63.7157 65.5674 57.8058 61.418 53.2842L58.2642 60.3804C58.3174 60.5336 58.3467 60.6982 58.3467 60.8698L58.3467 70.2723L59.8311 70.2723C60.9619 70.2723 62.0029 70.6947 62.876 71.2239C63.7568 71.7577 64.562 72.4578 65.2485 73.1533C66.6216 74.5436 67.6655 76.063 68.0483 76.6467C68.1255 76.7639 68.1904 76.8855 68.2441 77.0099ZM55.3774 62.3544L55.3774 77.9926L20.9707 77.9926L19.0039 70.9816C18.8452 70.339 18.7593 69.5927 18.7563 68.8265C18.8794 66.5778 19.2969 64.4083 19.9707 62.3544L55.3774 62.3544ZM58.3467 73.2416L58.3467 78.0914L65.4434 78.0914C65.0352 77.4863 64.187 76.3043 63.1357 75.2396C62.5503 74.6466 61.9375 74.127 61.3369 73.7632C60.729 73.3947 60.2261 73.2416 59.8311 73.2416L58.3467 73.2416ZM61.5137 95.5111L68.2441 95.5111L68.2441 79.5579C67.8662 80.4415 66.9893 81.0607 65.9678 81.0607L61.5137 81.0607L61.5137 95.5111ZM35.2852 95.3132L35.2783 95.3132L27.8618 95.3132L27.8618 80.9618L55.8721 80.9618L55.8721 81.0607L58.5444 81.0607L58.5444 95.3132L35.2852 95.3132ZM35.582 119.265L35.582 119.266L54.3877 119.266L54.3877 119.265L57.3569 119.265L57.3569 119.266L63.522 119.266L61.54 107.374C60.3008 107.239 59.3364 106.189 59.3364 104.914L59.3364 98.4803C59.0664 98.4803 58.813 98.4083 58.5952 98.2825L51.1279 98.2825L51.1211 98.2825L29.0469 98.2825L25.9219 119.266L32.6128 119.266L32.6128 119.265L35.582 119.265ZM62.3057 98.4803L64.9312 98.4803C64.9409 98.6561 64.9507 98.8579 64.9585 99.0752C64.9839 99.818 64.979 100.649 64.894 101.238C64.7568 102.192 64.2725 103.513 63.9023 104.419L62.3057 104.419L62.3057 98.4803ZM40.6597 129.658L35.582 129.658L35.582 122.235L41.3345 122.235L40.6597 129.658ZM54.3877 129.658L54.3877 122.235L48.6348 122.235L49.3096 129.658L54.3877 129.658ZM40.5308 132.627L40.5308 150.443L26.5659 150.443C26.1616 149.142 25.7812 147.477 25.7002 145.95C25.605 144.151 25.9517 143.096 26.457 142.672C27.6108 141.704 29.4834 141.778 31.2051 142.328C32.7041 142.808 34.6538 141.818 34.6538 139.898L34.6538 132.627L40.5308 132.627ZM49.4385 150.443L49.4385 132.627L55.3154 132.627L55.3154 139.898C55.3154 141.818 57.2651 142.808 58.7646 142.328C60.4863 141.778 62.3584 141.704 63.5127 142.672C64.0176 143.096 64.3647 144.151 64.269 145.95C64.1885 147.477 63.8081 149.142 63.4038 150.443L49.4385 150.443Z" fill-rule="evenodd" fill="#080A0D"/>
	<path id="Broken arm" d="M1.744 184.368C1.632 184.368 1.552 184.288 1.552 184.176L1.552 172.72C1.552 172.56 1.616 172.496 1.76 172.496L5.456 172.496C8.288 172.496 9.904 173.568 9.904 175.568C9.904 176.848 9.264 177.728 7.808 178.24C7.728 178.272 7.728 178.352 7.808 178.368C9.328 178.752 10.192 179.664 10.192 181.2C10.192 183.328 8.544 184.368 5.568 184.368L1.744 184.368ZM3.232 177.792L5.664 177.792C6.944 177.792 8.352 177.328 8.352 175.744C8.352 174.304 7.216 173.616 5.456 173.616L3.296 173.616C3.152 173.616 3.088 173.664 3.088 173.808L3.088 177.584C3.088 177.728 3.12 177.792 3.232 177.792ZM3.232 183.248L5.488 183.248C7.568 183.248 8.592 182.592 8.592 181.152C8.592 179.584 7.328 178.944 5.664 178.944L3.312 178.944C3.152 178.944 3.088 178.992 3.088 179.136L3.088 183.024C3.088 183.184 3.12 183.248 3.232 183.248ZM12.6435 184.368C12.4835 184.368 12.4195 184.304 12.4195 184.16L12.4195 176.096C12.4195 175.952 12.4835 175.888 12.5955 175.888L13.5235 175.888C13.6515 175.888 13.6995 175.952 13.6995 176.064L13.6995 177.104C13.6995 177.232 13.7795 177.264 13.8755 177.152C14.7075 176.176 15.5235 175.728 16.3555 175.728C16.7395 175.728 16.9155 175.792 16.9155 175.936L16.9155 176.896C16.9155 176.992 16.8675 177.04 16.7715 177.024C16.5795 176.992 16.3235 176.976 16.0515 176.976C15.1075 176.976 13.7635 177.904 13.7635 178.832L13.7635 184.128C13.7635 184.304 13.6835 184.368 13.5235 184.368L12.6435 184.368ZM21.8934 184.528C19.4614 184.528 17.8454 182.736 17.8454 180.176C17.8454 177.552 19.5254 175.728 21.9094 175.728C24.3254 175.728 25.9414 177.568 25.9414 180.16C25.9414 182.72 24.3094 184.528 21.8934 184.528ZM21.9254 183.52C23.5894 183.52 24.5654 182.24 24.5654 180.128C24.5654 178.032 23.5574 176.72 21.9094 176.72C20.2454 176.72 19.2214 178.032 19.2214 180.128C19.2214 182.224 20.2454 183.52 21.9254 183.52ZM35.2475 184.112C35.3275 184.24 35.2795 184.368 35.1035 184.368L33.9835 184.368C33.8395 184.368 33.7755 184.304 33.6955 184.176L31.2795 180.032C31.2315 179.936 31.1835 179.904 31.0875 180L29.3915 181.712C29.3115 181.792 29.2795 181.888 29.2795 182.032L29.2795 184.096C29.2795 184.304 29.2155 184.368 28.9915 184.368L28.1755 184.368C27.9835 184.368 27.9355 184.304 27.9355 184.144L27.9355 172.72C27.9355 172.56 27.9835 172.496 28.1115 172.496L29.0875 172.496C29.2155 172.496 29.2795 172.56 29.2795 172.704L29.2795 180.128C29.2795 180.304 29.3115 180.336 29.4395 180.192L33.3915 176.08C33.5195 175.936 33.5995 175.888 33.7275 175.888L34.7035 175.888C34.9275 175.888 34.9435 176.016 34.7835 176.192L32.2555 178.768C32.1915 178.848 32.1595 178.912 32.2395 179.04L35.2475 184.112ZM37.3936 180.656C37.3936 182.224 38.6256 183.504 40.1936 183.504C41.2656 183.504 42.0816 183.072 42.6896 182.176C42.7696 182.096 42.8176 182.08 42.9136 182.128L43.5856 182.464C43.6656 182.512 43.6816 182.592 43.6176 182.688C42.7696 183.984 41.6496 184.528 40.0656 184.528C37.6976 184.528 36.0016 182.768 36.0016 180.208C36.0016 177.44 37.7616 175.728 40.0496 175.728C42.3696 175.728 43.9056 177.328 43.9056 180.064C43.9056 180.24 43.9216 180.416 43.6656 180.416L37.5376 180.416C37.4416 180.416 37.3936 180.512 37.3936 180.656ZM37.4256 179.536L42.2896 179.536C42.5136 179.536 42.5616 179.504 42.5616 179.312C42.5616 177.936 41.6496 176.688 40.0816 176.688C38.3696 176.688 37.4096 178.112 37.4256 179.536ZM46.0185 184.368C45.8585 184.368 45.7945 184.304 45.7945 184.16L45.7945 176.096C45.7945 175.968 45.8585 175.888 45.9705 175.888L46.9305 175.888C47.0425 175.888 47.1065 175.952 47.1065 176.064L47.1065 176.992C47.1065 177.104 47.1385 177.136 47.2505 177.04C48.3225 176.208 49.0745 175.728 50.1945 175.728C51.8425 175.728 52.7705 176.704 52.7705 178.144L52.7705 184.112C52.7705 184.288 52.6905 184.368 52.5305 184.368L51.6345 184.368C51.4905 184.368 51.4265 184.304 51.4265 184.16L51.4265 178.448C51.4265 177.408 50.9145 176.784 49.7625 176.784C48.8025 176.784 48.1465 177.216 47.1385 178.08L47.1385 184.128C47.1385 184.304 47.0745 184.368 46.8985 184.368L46.0185 184.368ZM63.4557 183.344C62.6558 184.112 61.7438 184.528 60.6077 184.528C58.9598 184.528 57.9357 183.616 57.9357 182.208C57.9357 180.512 59.4238 179.504 62.1598 179.328L63.4077 179.232C63.5518 179.216 63.6637 179.152 63.6637 178.992L63.6637 178.56C63.6637 177.408 62.8958 176.688 61.6797 176.688C60.7518 176.688 59.9837 177.104 59.3918 177.968C59.3117 178.08 59.2798 178.112 59.1517 178.064L58.2878 177.776C58.2077 177.744 58.1758 177.68 58.2557 177.52C58.8797 176.416 60.0638 175.728 61.7438 175.728C63.8558 175.728 64.9597 176.784 64.9597 178.464L64.9597 184.128C64.9597 184.32 64.8958 184.368 64.7517 184.368L63.9357 184.368C63.7918 184.368 63.7277 184.272 63.7118 184.112L63.6958 183.376C63.6637 183.232 63.5838 183.216 63.4557 183.344ZM63.6637 180.304C63.6637 180.112 63.5998 180.048 63.4398 180.048L62.3838 180.144C60.4157 180.272 59.2798 180.912 59.2798 182.048C59.2798 182.976 59.9837 183.536 61.0877 183.536C61.7598 183.536 62.4157 183.264 62.8958 182.88C63.3758 182.496 63.6637 182.048 63.6637 181.632L63.6637 180.304ZM67.5654 184.368C67.4054 184.368 67.3414 184.304 67.3414 184.16L67.3414 176.096C67.3414 175.952 67.4054 175.888 67.5174 175.888L68.4454 175.888C68.5734 175.888 68.6214 175.952 68.6214 176.064L68.6214 177.104C68.6214 177.232 68.7014 177.264 68.7974 177.152C69.6294 176.176 70.4454 175.728 71.2774 175.728C71.6614 175.728 71.8374 175.792 71.8374 175.936L71.8374 176.896C71.8374 176.992 71.7894 177.04 71.6934 177.024C71.5014 176.992 71.2454 176.976 70.9734 176.976C70.0294 176.976 68.6854 177.904 68.6854 178.832L68.6854 184.128C68.6854 184.304 68.6054 184.368 68.4454 184.368L67.5654 184.368ZM73.6904 184.368C73.5304 184.368 73.4664 184.304 73.4664 184.16L73.4664 176.096C73.4664 175.968 73.5304 175.888 73.6424 175.888L74.6024 175.888C74.7144 175.888 74.7624 175.952 74.7624 176.064L74.7624 176.992C74.7624 177.104 74.8104 177.136 74.9224 177.04C75.9464 176.208 76.6824 175.728 77.7544 175.728C79.0184 175.728 79.7704 176.4 80.0264 177.136C80.0584 177.232 80.1544 177.184 80.2504 177.104C81.2584 176.256 82.0904 175.728 83.1464 175.728C84.6984 175.728 85.5944 176.688 85.5944 178.16L85.5944 184.112C85.5944 184.288 85.5144 184.368 85.3544 184.368L84.4584 184.368C84.3144 184.368 84.2504 184.304 84.2504 184.16L84.2504 178.448C84.2504 177.408 83.7704 176.784 82.7144 176.784C81.7544 176.784 80.9544 177.408 80.4264 177.872C80.2664 178.032 80.2024 178.144 80.2024 178.336L80.2024 184.112C80.2024 184.288 80.1064 184.368 79.9624 184.368L79.0664 184.368C78.9384 184.368 78.8584 184.304 78.8584 184.16L78.8584 178.448C78.8584 177.408 78.3944 176.784 77.3224 176.784C76.4104 176.784 75.7864 177.216 74.8104 178.08L74.8104 184.128C74.8104 184.304 74.7464 184.368 74.5704 184.368L73.6904 184.368Z" fill-rule="evenodd" fill="#080A0D"/>
</svg>
