<svg width="119.380615" height="189.000000" viewBox="0 0 119.381 189" fill="none" xmlns="http://www.w3.org/2000/svg" xmlns:xlink="http://www.w3.org/1999/xlink">
	<desc>
			Created with Pixso.
	</desc>
	<defs/>
	<path id="Dyslexia" d="M62.2686 0C60.9207 0 59.8276 1.09406 59.8276 2.4436L59.8276 24.6579C59.8276 26.0074 60.9207 27.1015 62.2686 27.1015L65.6143 27.1015L65.6143 31.97C65.6143 34.2638 68.4858 35.2936 69.9404 33.5215L75.2102 27.1015L116.94 27.1015C118.288 27.1015 119.381 26.0074 119.381 24.6579L119.381 2.4436C119.381 1.09399 118.288 0 116.94 0L62.2686 0ZM62.7566 24.1692L62.7566 2.93231L116.452 2.93231L116.452 24.1692L74.9795 24.1692C74.2495 24.1692 73.5576 24.4965 73.094 25.0613L68.543 30.6056L68.543 26.6128C68.543 25.2632 67.4502 24.1692 66.1023 24.1692L62.7566 24.1692ZM16.8716 32.7495L16.8716 41.5409C16.8716 43.7051 15.2798 45.5281 13.207 45.8785C12.6445 45.9736 12.0869 46.2531 11.6792 46.7123C11.3413 47.093 11.1006 47.6149 11.1006 48.207C11.1006 48.3645 11.1177 48.527 11.1543 48.6932C11.7378 51.3252 14.0679 53.2701 16.8716 53.2701C17.6807 53.2701 18.3359 52.6137 18.3359 51.804C18.3359 50.9942 17.6807 50.3378 16.8716 50.3378C15.688 50.3378 14.6831 49.6549 14.2188 48.6613C17.1206 47.947 19.3569 45.4916 19.7417 42.4698C20.4463 43.6395 21.2773 44.7113 22.23 45.694C22.6958 46.1741 23.188 46.6303 23.7056 47.0643L23.7056 52.7048C15.3892 57.5383 9.06152 66.6476 9.06152 77.0217L9.06152 105.367C9.06152 106.717 10.1543 107.811 11.5024 107.811L14.9258 107.811C14.9219 107.985 14.9189 108.169 14.9189 108.359C14.9189 108.955 14.9443 109.603 15.0259 110.17C15.2393 111.655 15.9766 113.501 16.3413 114.361C16.5791 114.922 17.0063 115.346 17.52 115.59C17.5181 115.602 17.5161 115.614 17.5146 115.627L16.061 126.246C16.0454 126.359 16.0381 126.471 16.0381 126.582C16.0381 127.907 17.1138 129.021 18.479 129.021L23.7056 129.021L23.7056 139.773L23.2173 139.773C22.4087 139.773 21.7529 140.429 21.7529 141.239L21.7529 141.249L21.7529 145.344L18.8242 145.344C15.5747 145.344 12.9668 147.955 12.9668 151.208L12.9668 151.697C12.9668 153.047 14.0596 154.141 15.4072 154.141L31.0278 154.141C31.8262 154.141 32.5352 153.757 32.9805 153.164C33.4258 153.757 34.1343 154.141 34.9326 154.141L50.5532 154.141C51.9014 154.141 52.9937 153.047 52.9937 151.697L52.9937 141.239C52.9937 140.601 52.5874 140.058 52.0195 139.857L52.0166 129.021L54.2935 129.021C55.6616 129.021 56.7349 127.905 56.7349 126.582C56.7349 126.456 56.7251 126.328 56.7046 126.199L55.0811 115.819C55.9604 115.757 56.7671 115.219 57.1304 114.361C57.4951 113.501 58.2324 111.655 58.4458 110.17C58.5273 109.603 58.5527 108.955 58.5527 108.359C58.5527 108.169 58.5503 107.985 58.5459 107.811L62.2686 107.811C63.6165 107.811 64.7092 106.717 64.7092 105.367L64.7092 77.0217C64.7092 66.7289 58.48 57.6812 50.2603 52.8192L50.2603 46.9743C50.7339 46.5632 51.186 46.1323 51.6157 45.6803C52.5376 44.7106 53.3447 43.6542 54.0332 42.5026C54.4302 45.5093 56.6606 47.9495 59.5522 48.6613C59.0879 49.6549 58.0825 50.3378 56.8989 50.3378C56.0903 50.3378 55.4346 50.9942 55.4346 51.804C55.4346 52.6137 56.0903 53.2701 56.8989 53.2701C59.7031 53.2701 62.033 51.3253 62.6165 48.6932C62.6533 48.527 62.6704 48.3646 62.6704 48.207C62.6704 47.6149 62.4294 47.093 62.0916 46.7123C61.6841 46.2531 61.1265 45.9736 60.564 45.8785C58.4912 45.5281 56.8989 43.7051 56.8989 41.541L56.8989 26.8795L56.8989 26.8629L56.8989 21.1124C56.8989 15.0325 52.0952 10.1334 46.0439 9.46198C45.7446 6.86725 43.541 4.88708 40.8013 4.88708L36.8853 4.88708C25.9502 4.88708 16.8716 13.387 16.8716 23.947L16.8716 32.7438L16.8716 32.7495ZM106.689 9.23419L106.689 7.81946L109.618 7.81946L109.618 11.7292L107.665 11.7292C106.317 11.7292 105.225 12.8232 105.225 14.1728L105.225 16.0762C105.225 16.8859 105.88 17.5424 106.689 17.5424C107.498 17.5424 108.153 16.8859 108.153 16.0762L108.153 14.6615L110.106 14.6615C111.454 14.6615 112.547 13.5675 112.547 12.2179L112.547 7.33075C112.547 5.9812 111.454 4.88721 110.106 4.88721L106.201 4.88721C104.853 4.88721 103.76 5.9812 103.76 7.33075L103.76 9.23419C103.76 10.0439 104.416 10.7003 105.225 10.7003C106.033 10.7003 106.689 10.0439 106.689 9.23419ZM89.426 12.9954L89.426 12.9862L89.426 12.9722C89.426 12.9645 89.4258 12.9568 89.4255 12.949L89.3906 8.42212L89.3906 8.41101L89.3906 8.39874L89.3904 8.39099L89.3904 8.38422L89.3901 8.37537L89.3833 7.48407C89.377 6.67438 88.7163 6.02716 87.9077 6.03845C87.2937 6.04706 86.771 6.43262 86.5576 6.97211L82.7542 7.02533C81.4128 7.04407 80.3328 8.14282 80.3328 9.48358L80.3328 9.50293L80.353 12.1216C80.3586 12.8344 80.6685 13.4716 81.158 13.9115C80.332 13.9614 79.6167 14.4211 79.21 15.0881L75.9695 14.7773L75.0498 11.3054L77.8054 9.22504C78.187 8.93689 78.3882 8.49774 78.3882 8.05328C78.3882 7.74597 78.292 7.43604 78.0928 7.17169C77.606 6.52521 76.6877 6.3963 76.042 6.88379L66.3022 14.2368C66.1082 14.3832 65.9609 14.5685 65.8628 14.7737C65.7986 14.908 65.7539 15.054 65.7329 15.2087C65.7302 15.2283 65.728 15.248 65.7261 15.2678C65.7217 15.314 65.7195 15.3597 65.7192 15.4052L65.7192 15.4094C65.7192 16.1561 66.2866 16.7944 67.0442 16.8671L74.5742 17.5892C74.6416 17.6006 74.7102 17.6072 74.7795 17.6089L78.864 18.0006L78.8718 19.0035C78.8823 20.353 79.9834 21.4318 81.3313 21.4129L87.5146 21.3264C87.6021 21.3252 87.6875 21.3163 87.7705 21.3005C87.8535 21.3139 87.939 21.3203 88.0261 21.3192C88.8308 21.3079 89.479 20.6486 89.479 19.8442L89.479 19.8325L89.426 12.9954ZM97.7693 7.35059C96.5879 6.7005 95.0793 7.11823 94.3994 8.28357L89.9458 15.9181C89.7227 16.3007 89.6165 16.7164 89.6165 17.1252C89.6165 17.9614 90.0603 18.7686 90.8538 19.2052L94.6902 21.3165C95.8716 21.9666 97.3801 21.5488 98.0601 20.3835L98.8804 18.9772C99.0144 18.7476 99.0779 18.4982 99.0779 18.253C99.0779 17.7513 98.8115 17.267 98.3357 17.005C97.627 16.6149 96.7217 16.8655 96.3137 17.5648L95.7395 18.549L92.7585 16.9086L96.72 10.118L99.7375 11.7787C99.6982 11.9115 99.6792 12.0469 99.6792 12.1812C99.6792 12.6829 99.9456 13.1672 100.422 13.4291C101.13 13.8192 102.036 13.5686 102.443 12.8694L102.514 12.749C102.737 12.3663 102.843 11.9506 102.843 11.5419C102.843 10.7057 102.399 9.8985 101.606 9.46185L97.7693 7.35059ZM19.8003 23.947C19.8003 15.1538 27.4165 7.81934 36.8853 7.81934L40.8013 7.81934C42.1802 7.81934 43.1499 8.84802 43.1499 10.0674C43.1499 11.3342 44.1626 12.2618 45.2969 12.3385C50.2139 12.6711 53.9702 16.5355 53.9702 21.1124L53.9702 27.3676C49.1401 27.3237 45.1836 23.2599 45.1836 18.0823C45.1836 17.5208 44.8682 17.0329 44.4053 16.7866C44.5952 15.946 44.6953 15.0714 44.6953 14.1728C44.6953 13.363 44.04 12.7066 43.231 12.7066C42.4224 12.7066 41.7666 13.363 41.7666 14.1728C41.7666 19.1322 37.6689 23.1978 32.5532 23.1978C28.3408 23.1978 24.3433 25.3029 22.0239 28.8757L19.8071 31.4154C19.8027 31.2174 19.8008 31.0173 19.8008 30.815L19.8008 26.8795L19.8003 26.8738L19.8003 23.947ZM83.2651 9.95068L86.4731 9.90582L86.4858 11.5471L83.2778 11.592L83.2651 9.95068ZM72.5247 13.2117L72.8604 14.4792L71.0728 14.3077L72.5247 13.2117ZM81.7839 16.8326L86.5264 16.7662L86.5391 18.4075L81.7966 18.4739L81.7839 16.8326ZM108.153 20.0374C108.153 19.2277 107.498 18.5712 106.689 18.5712C105.88 18.5712 105.225 19.2277 105.225 20.0374L105.225 20.5261C105.225 21.3358 105.88 21.9922 106.689 21.9922C107.498 21.9922 108.153 21.3358 108.153 20.5261L108.153 20.0374ZM42.5747 20.9285C43.7959 26.2608 48.377 30.2626 53.9702 30.3L53.9702 30.7893C53.9702 31.6414 53.9351 32.4551 53.8667 33.2327L53.1401 33.2327C52.9141 32.1175 51.9292 31.2781 50.7485 31.2781L44.5 31.2781C42.5308 31.2781 40.8311 32.3914 39.9282 34.2102L34.0376 34.2102C33.1353 32.3914 31.4351 31.2781 29.4658 31.2781L23.8164 31.2781L24.251 30.78C24.333 30.686 24.4048 30.5894 24.4668 30.4932C26.2305 27.7623 29.2988 26.13 32.5532 26.13C36.7031 26.13 40.3823 24.0748 42.5747 20.9285ZM29.5635 36.6538C30.3721 36.6538 31.0278 35.9974 31.0278 35.1876C31.0278 35.087 31.0176 34.9886 30.998 34.8937C31.2983 35.2191 31.541 35.6691 31.6812 36.2614C31.5186 36.9304 31.2231 37.3015 30.9209 37.5222C30.5786 37.7717 30.0928 37.9246 29.4658 37.9246C27.1104 37.9246 25.1255 37.2051 23.7095 35.045L23.7056 35.0373L23.7056 34.2104L28.4717 34.2104C28.2397 34.4698 28.0986 34.8123 28.0986 35.1876C28.0986 35.9974 28.7544 36.6538 29.5635 36.6538ZM48.1123 36.6537C48.9214 36.6537 49.5771 35.9973 49.5771 35.1876C49.5771 34.8122 49.436 34.4698 49.2041 34.2104L50.2603 34.2104L50.2603 35.0373L50.2563 35.045C48.8403 37.2051 46.8555 37.9246 44.5 37.9246C43.873 37.9246 43.3872 37.7717 43.0449 37.5222C42.7427 37.3015 42.4473 36.9304 42.2847 36.2614C42.6279 34.8071 43.5928 34.2104 44.5 34.2104L47.021 34.2104C46.7891 34.4698 46.6479 34.8122 46.6479 35.1876C46.6479 35.9973 47.3037 36.6537 48.1123 36.6537ZM52.9697 36.165L53.4155 36.165C52.7104 39.2708 51.3579 41.6981 49.4941 43.6589C48.8872 44.2975 48.2197 44.8933 47.4937 45.4507L47.3315 45.4507L47.3315 45.5737C44.6753 47.5679 41.2515 49.0657 37.1304 50.2798C31.5312 48.7025 27.2358 46.6465 24.3315 43.6514C22.4321 41.6927 21.0669 39.2688 20.3574 36.165L20.9961 36.165C21.0083 36.192 21.021 36.2188 21.0347 36.2453L21.1621 36.5006L21.2046 36.5671C23.3003 39.8312 26.377 40.8569 29.4658 40.8569C30.5518 40.8569 31.686 40.5919 32.645 39.8924C33.5239 39.2513 34.1533 38.3195 34.478 37.1425L39.4878 37.1425C39.8125 38.3195 40.4419 39.2513 41.3208 39.8924C42.2798 40.5919 43.4146 40.8569 44.5 40.8569C47.5894 40.8569 50.6655 39.8312 52.7612 36.5671L52.8042 36.5006L52.9316 36.2453C52.9448 36.2188 52.9575 36.192 52.9697 36.165ZM36.8853 42.0295C36.0767 42.0295 35.4209 42.686 35.4209 43.4957C35.4209 44.3054 36.0767 44.9619 36.8853 44.9619L39.814 44.9619C40.623 44.9619 41.2788 44.3054 41.2788 43.4957C41.2788 42.686 40.623 42.0295 39.814 42.0295L36.8853 42.0295ZM26.6343 53.1918L26.6343 49.1393C29.4541 50.8347 32.7808 52.1094 36.48 53.1426C36.915 53.2641 37.3799 53.2618 37.8145 53.1348C41.3638 52.0982 44.5854 50.8185 47.3315 49.1173L47.3315 52.832C47.3286 52.8372 47.3257 52.8425 47.3228 52.8477C47.3193 52.8536 47.3159 52.8596 47.3125 52.8655C47.2534 52.9753 47.2095 53.0894 47.1802 53.2051C40.4702 55.1157 33.3384 55.0892 26.6343 53.1918ZM19.0195 83.1791L19.0195 104.878L11.9902 104.878L11.9902 77.0217C11.9902 68.0952 17.3252 60.0644 24.5854 55.5941L24.8188 55.7109L24.9346 55.7466C32.8301 58.179 41.3374 58.1805 49.2427 55.6437L49.2578 55.6389C56.481 60.118 61.7803 68.125 61.7803 77.0217L61.7803 104.878L55.1416 104.878L55.1416 83.1791C55.1416 79.8777 55.874 76.5914 57.4199 73.5875L57.436 73.5555L57.939 72.4476C58.0283 72.2509 58.0708 72.0447 58.0708 71.8418C58.0708 71.2845 57.752 70.7518 57.2119 70.5062C56.4756 70.1711 55.6074 70.4971 55.2729 71.2343L54.7993 72.2772C53.0371 75.7155 52.2129 79.4548 52.2129 83.1791L52.2129 101.946L21.9482 101.946L21.9482 83.1791C21.9482 79.4548 21.124 75.7155 19.3618 72.2772L18.8882 71.2343C18.5537 70.4971 17.6855 70.1711 16.9492 70.5062C16.4092 70.7518 16.0903 71.2845 16.0903 71.8418C16.0903 72.0447 16.1323 72.2509 16.2217 72.4476L16.7251 73.5555L16.7412 73.5875C18.2871 76.5914 19.0195 79.8777 19.0195 83.1791ZM23.4067 113.382L23.4067 104.878L50.0649 104.878L50.0649 113.382C50.0649 114.605 50.9629 115.619 52.1353 115.798C52.1353 115.806 52.1348 115.815 52.1348 115.824C52.1348 115.899 52.1406 115.976 52.1528 116.053L53.7227 126.089L19.0386 126.089L20.416 116.025C20.4253 115.958 20.4297 115.891 20.4302 115.826L20.9663 115.826C22.314 115.826 23.4067 114.731 23.4067 113.382ZM17.8481 108.36C17.8481 108.177 17.8506 107.992 17.8555 107.811L20.478 107.811L20.478 112.893L18.9033 112.893C18.5376 111.999 18.0601 110.694 17.9248 109.752C17.8687 109.362 17.8481 108.866 17.8481 108.36ZM52.9937 107.811L55.6162 107.811C55.6211 107.992 55.624 108.177 55.624 108.36C55.624 108.866 55.603 109.362 55.5469 109.752C55.4116 110.694 54.9341 111.999 54.5688 112.893L52.9937 112.893L52.9937 107.811ZM29.5635 129.021L29.5635 139.773L26.6343 139.773L26.6343 129.021L29.5635 129.021ZM32.4922 129.021L43.231 129.021L43.231 139.773L42.7432 139.773C41.9341 139.773 41.2783 140.429 41.2783 141.239L41.2788 141.249L41.2788 145.344L38.3496 145.344C36.3057 145.344 34.5151 146.377 33.4683 147.954L33.4683 141.239C33.4683 140.6 33.061 140.057 32.4922 139.856L32.4922 129.021ZM49.0879 129.021L49.0903 139.773L46.1602 139.773L46.1602 129.021L49.0879 129.021ZM30.5396 142.705L30.5396 151.208L15.8955 151.208C15.8955 149.575 17.1924 148.276 18.8242 148.276L22.2412 148.276C23.5894 148.276 24.6821 147.182 24.6821 145.833L24.6821 142.705L30.5396 142.705ZM44.2075 142.705L50.0649 142.705L50.0649 151.208L35.4209 151.208C35.4209 149.575 36.7178 148.276 38.3496 148.276L41.7666 148.276C43.1147 148.276 44.2075 147.182 44.2075 145.833L44.2075 142.705Z" fill-rule="evenodd" fill="#080A0D"/>
	<path id="Dyslexia" d="M10.292 173.084C10.612 173.084 12.42 173.084 12.788 173.1C17.204 173.164 19.012 175.18 19.012 178.924C19.012 182.924 16.964 184.956 12.628 184.956L10.276 184.956C10.132 184.956 10.052 184.892 10.052 184.7L10.052 173.308C10.052 173.164 10.116 173.084 10.292 173.084ZM11.748 174.252C11.62 174.252 11.588 174.332 11.588 174.476L11.588 183.628C11.588 183.756 11.636 183.804 11.78 183.804L12.388 183.804C15.908 183.804 17.412 182.508 17.412 179.004C17.412 175.356 15.844 174.252 12.468 174.252L11.748 174.252ZM21.7429 187.596C21.1189 187.596 20.7669 187.596 20.7669 187.388L20.7669 186.764C20.7669 186.62 20.8469 186.556 21.2149 186.556L22.2229 186.556C23.1669 186.556 23.8389 185.116 23.5509 184.396L20.4949 176.748C20.4469 176.604 20.4949 176.476 20.6709 176.476L21.6629 176.476C21.7909 176.476 21.8709 176.54 21.9189 176.652L24.3029 182.86C24.3829 183.052 24.4949 183.068 24.5909 182.812L26.9429 176.652C26.9909 176.54 27.0709 176.476 27.1669 176.476L27.9189 176.476C28.0629 176.476 28.1269 176.604 28.0789 176.7L24.5589 185.708C23.9509 187.228 23.1349 187.596 21.7429 187.596ZM34.6012 178.348C34.1693 177.708 33.3853 177.26 32.3293 177.26C31.1772 177.26 30.3293 177.788 30.3293 178.62C30.3293 179.052 30.5693 179.484 31.6252 179.804L33.6572 180.412C35.1133 180.812 35.7373 181.612 35.7373 182.62C35.7373 184.124 34.2653 185.116 32.2812 185.116C30.6012 185.116 29.2572 184.38 28.7292 183.356C28.6653 183.244 28.6653 183.164 28.7612 183.1L29.3853 182.748C29.4972 182.684 29.5772 182.7 29.6252 182.764C30.1373 183.58 30.9692 184.14 32.2972 184.14C33.5293 184.124 34.4733 183.596 34.4733 182.764C34.4733 182.188 34.0413 181.788 32.9053 181.468L31.2572 181.004C29.6572 180.588 29.0812 179.836 29.0812 178.86C29.0653 177.34 30.3932 176.316 32.3452 176.316C33.7692 176.316 34.9372 176.908 35.5293 177.804C35.5933 177.9 35.6093 177.98 35.5133 178.028L34.8413 178.396C34.7612 178.444 34.6653 178.428 34.6012 178.348ZM39.0607 173.292L39.0607 184.684C39.0607 184.892 38.9808 184.956 38.7728 184.956L37.9408 184.956C37.7487 184.956 37.7008 184.892 37.7008 184.732L37.7168 173.308C37.7168 173.148 37.7808 173.084 37.9088 173.084L38.8688 173.084C38.9967 173.084 39.0607 173.148 39.0607 173.292ZM42.4249 181.244C42.4249 182.812 43.6569 184.092 45.2249 184.092C46.2969 184.092 47.1129 183.66 47.7209 182.764C47.8009 182.684 47.8489 182.668 47.9449 182.716L48.6169 183.052C48.6969 183.1 48.7129 183.18 48.6489 183.276C47.8009 184.572 46.6809 185.116 45.0969 185.116C42.7289 185.116 41.0329 183.356 41.0329 180.796C41.0329 178.028 42.7929 176.316 45.0809 176.316C47.4009 176.316 48.9369 177.916 48.9369 180.652C48.9369 180.828 48.9529 181.004 48.6969 181.004L42.5689 181.004C42.4729 181.004 42.4249 181.1 42.4249 181.244ZM42.4569 180.124L47.3209 180.124C47.5449 180.124 47.5929 180.092 47.5929 179.9C47.5929 178.524 46.6809 177.276 45.1129 177.276C43.4009 177.276 42.4409 178.7 42.4569 180.124ZM57.3319 184.62C57.5079 184.876 57.4759 184.956 57.2679 184.956L56.1479 184.956C56.0039 184.956 55.8759 184.908 55.8119 184.812L53.5559 181.708C53.4439 181.548 53.3959 181.548 53.2839 181.708L50.9319 184.812C50.8679 184.908 50.7559 184.956 50.5959 184.956L49.8439 184.956C49.6359 184.956 49.5079 184.86 49.7319 184.572L52.6439 180.86C52.7559 180.732 52.7399 180.636 52.6439 180.508L49.8599 176.732C49.7639 176.62 49.8279 176.476 49.9879 176.476L51.0599 176.476C51.2199 176.476 51.2839 176.508 51.3639 176.62L53.5239 179.548C53.6039 179.66 53.6839 179.676 53.7639 179.548L55.8599 176.62C55.9399 176.508 56.0039 176.476 56.1799 176.476L57.0119 176.476C57.1879 176.476 57.2039 176.588 57.1079 176.7L54.4039 180.316C54.2919 180.444 54.3239 180.54 54.4039 180.668L57.3319 184.62ZM60.515 173.324L60.515 174.652C60.515 174.844 60.451 174.956 60.227 174.956L59.299 174.956C59.107 174.956 59.059 174.844 59.059 174.684L59.059 173.34C59.059 173.18 59.139 173.084 59.283 173.084L60.291 173.084C60.419 173.084 60.515 173.18 60.515 173.324ZM60.451 176.684L60.451 184.684C60.451 184.892 60.387 184.956 60.163 184.956L59.347 184.956C59.155 184.956 59.107 184.892 59.107 184.732L59.107 176.7C59.107 176.54 59.171 176.476 59.299 176.476L60.275 176.476C60.403 176.476 60.451 176.54 60.451 176.684ZM67.8151 183.932C67.0151 184.7 66.1031 185.116 64.9671 185.116C63.3191 185.116 62.2951 184.204 62.2951 182.796C62.2951 181.1 63.7831 180.092 66.5191 179.916L67.7671 179.82C67.9111 179.804 68.0231 179.74 68.0231 179.58L68.0231 179.148C68.0231 177.996 67.2551 177.276 66.0391 177.276C65.1111 177.276 64.3431 177.692 63.7511 178.556C63.6711 178.668 63.6391 178.7 63.5111 178.652L62.6471 178.364C62.5671 178.332 62.5351 178.268 62.6151 178.108C63.2391 177.004 64.4231 176.316 66.1031 176.316C68.2151 176.316 69.3191 177.372 69.3191 179.052L69.3191 184.716C69.3191 184.908 69.2551 184.956 69.1111 184.956L68.2951 184.956C68.1511 184.956 68.0871 184.86 68.0711 184.7L68.0551 183.964C68.0231 183.82 67.9431 183.804 67.8151 183.932ZM68.0231 180.892C68.0231 180.7 67.9591 180.636 67.7991 180.636L66.7431 180.732C64.7751 180.86 63.6391 181.5 63.6391 182.636C63.6391 183.564 64.3431 184.124 65.4471 184.124C66.1191 184.124 66.7751 183.852 67.2551 183.468C67.7351 183.084 68.0231 182.636 68.0231 182.22L68.0231 180.892Z" fill-rule="evenodd" fill="#080A0D"/>
</svg>
