<svg width="67.290039" height="187.833252" viewBox="0 0 67.29 187.833" fill="none" xmlns="http://www.w3.org/2000/svg" xmlns:xlink="http://www.w3.org/1999/xlink">
	<desc>
			Created with Pixso.
	</desc>
	<defs/>
	<path id="Blind" d="M5.70264 47.5183L14.2554 47.5183L14.2554 49.1404L14.2422 49.1158C5.72217 53.7267 0 62.6556 0 72.9882L0 90.6761C0 91.5389 0.467773 92.334 1.22217 92.7531L5.01367 94.8595L8.44287 96.7372C8.59814 97.3708 8.88623 98.3961 9.33887 99.4364C9.63477 100.117 10.0381 100.893 10.5815 101.575C10.4995 101.754 10.4541 101.954 10.4541 102.164L10.4541 134.477C10.4541 135.789 11.5176 136.853 12.8301 136.853L14.2554 136.853L14.2554 140.281L8.09912 142.898C7.22217 143.27 6.65234 144.131 6.65234 145.084L6.65234 145.583C6.65234 146.908 7.73633 147.977 9.06104 147.958L20.9409 147.795C22.2402 147.777 23.2837 146.718 23.2837 145.419L23.2837 136.655C24.123 136.288 24.7095 135.451 24.7095 134.477L24.7095 115.945L27.0854 115.945C27.252 115.945 27.4121 115.916 27.5605 115.864L27.5605 134.477C27.5605 135.789 28.6245 136.853 29.9365 136.853L30.4116 136.853L30.4116 145.419C30.4116 146.718 31.4556 147.777 32.7549 147.795L44.6343 147.959C45.9595 147.977 47.043 146.908 47.043 145.583L47.043 145.084C47.043 144.131 46.4736 143.27 45.5967 142.898L39.4399 140.281L39.4399 136.853C40.7524 136.853 41.8159 135.789 41.8159 134.477L41.8159 127.407L65.1909 152.833L67.29 150.904L41.8159 123.194L41.8159 109.309C41.8252 110.613 42.8857 111.668 44.1919 111.668L46.5312 111.668C47.4507 111.668 48.3174 111.132 48.6938 110.244C49.0488 109.408 49.7666 107.613 49.9746 106.169C50.0942 105.339 50.0894 104.331 50.0635 103.587C50.0552 103.343 50.0439 103.118 50.0327 102.924L51.7949 102.924C53.1069 102.924 54.1709 101.861 54.1709 100.549L54.1709 72.9879C54.1709 62.9802 48.1069 54.183 40.1055 49.4556L40.1055 47.5183L49.3745 47.5183C50.4028 47.5183 51.3477 46.8496 51.6426 45.8164C53.2207 40.2867 53.2207 33.8779 53.2207 30.301L53.2207 30.2431C53.2207 27.2105 52.4424 19.7593 48.897 13.01C45.3091 6.18073 38.8262 0 27.5605 0C21.6509 0 17.022 1.51038 13.4282 3.96277C9.84473 6.40826 7.37549 9.73132 5.67871 13.2311C2.3042 20.1907 1.90088 28.0185 1.90088 31.684C1.90088 37.65 2.97852 43.5832 3.38916 45.6301C3.61328 46.7496 4.59668 47.5183 5.70264 47.5183ZM8.24414 14.4751C5.15625 20.8437 4.75195 28.1451 4.75195 31.684C4.75195 37.0211 5.66406 42.387 6.10498 44.6672L14.2554 44.6672L14.2554 44.1428C13.7607 43.7272 13.29 43.2908 12.8447 42.8318C9.71582 39.6094 7.94043 35.4017 7.66602 29.881C7.625 29.7483 7.60303 29.6073 7.60303 29.4612C7.60303 29.3524 7.61523 29.2464 7.63818 29.1446C7.63281 28.9353 7.62988 28.7242 7.62891 28.5112C7.56055 28.1172 7.62012 27.66 7.92871 27.2474C8.24805 26.8205 8.68945 26.6537 8.91113 26.5842C9.38916 26.4344 9.98486 26.4044 10.5073 26.3997C11.3872 26.3918 12.5698 26.4629 13.8394 26.5393C14.1621 26.5587 14.4907 26.5785 14.8218 26.5974C16.4946 26.6929 18.2964 26.7722 19.9814 26.7132C21.689 26.6534 23.1548 26.4539 24.2046 26.0562C24.604 25.9047 24.9839 25.4741 25.2739 24.6378C25.5532 23.832 25.6499 22.9201 25.6777 22.3055C25.7183 21.411 26.2944 20.3564 27.4844 20.1122C28.8188 19.8383 32.1582 19.5682 34.0508 22.8805C34.3862 23.4677 34.6177 24.0386 34.752 24.5931C34.8208 24.8776 35.1172 25.5806 35.5347 26.2219C35.7373 26.5333 35.9248 26.7613 36.0693 26.8942C36.0771 26.9014 36.0845 26.908 36.0913 26.9141L45.168 26.9141C45.9551 26.9141 46.5933 27.5523 46.5933 28.3396L46.5933 28.3466L46.5933 28.3553C46.5903 34.6323 44.7896 39.309 41.4502 42.8184C41.0244 43.266 40.5757 43.6922 40.1055 44.0985L40.1055 44.6672L49.0029 44.6672C50.3613 39.632 50.3696 33.782 50.3696 30.2431C50.3696 27.5121 49.6396 20.5546 46.3726 14.336C43.1479 8.19739 37.5137 2.85107 27.5605 2.85107C22.1611 2.85107 18.106 4.22253 15.0352 6.31781C11.9546 8.42017 9.77832 11.3109 8.24414 14.4751ZM33.145 27.777C33.2007 27.8626 33.2588 27.9492 33.3198 28.0356L26.3809 28.0356C27.2021 27.3423 27.6836 26.392 27.9678 25.5717C28.3096 24.5851 28.4468 23.5681 28.502 22.8337C29.4893 22.7208 30.7734 22.8922 31.5752 24.295C31.7964 24.6819 31.918 25.0037 31.9805 25.2632C32.1475 25.9535 32.6108 26.9562 33.145 27.777ZM36.1582 26.9675C36.168 26.9742 36.1729 26.9763 36.1729 26.9763C36.1729 26.9763 36.168 26.9725 36.1582 26.9675ZM14.8901 40.8457C12.5259 38.4108 11.0122 35.2366 10.5962 30.8868L12.4272 30.8868C12.8848 33.8472 15.4438 36.1138 18.5322 36.1138C21.6206 36.1138 24.1797 33.8472 24.6367 30.8868L29.5342 30.8868C29.9912 33.8474 32.5503 36.114 35.6387 36.114C38.7275 36.114 41.2866 33.8474 41.7437 30.8868L43.6255 30.8868C43.2109 35.2371 41.7041 38.4157 39.3848 40.853C36.6147 43.764 32.5532 45.7592 27.3496 47.2906C21.8989 45.7569 17.7178 43.7579 14.8901 40.8457ZM24.7095 38.4901C24.7095 37.7028 24.0713 37.0645 23.2837 37.0645C22.4966 37.0645 21.8584 37.7028 21.8584 38.4901C21.8584 39.8267 22.584 40.928 23.542 41.6465C24.4995 42.3647 25.7568 42.7667 27.0854 42.7667C28.4136 42.7667 29.6714 42.3647 30.6289 41.6465C31.5869 40.928 32.3125 39.8267 32.3125 38.4901C32.3125 37.7028 31.6743 37.0645 30.8867 37.0645C30.0996 37.0645 29.4614 37.7028 29.4614 38.4901C29.4614 38.7281 29.3359 39.0522 28.918 39.3657C28.4995 39.6794 27.8564 39.9156 27.0854 39.9156C26.3145 39.9156 25.6709 39.6794 25.2524 39.3657C24.835 39.0522 24.7095 38.7281 24.7095 38.4901ZM17.1064 50.7683L17.1064 46.1664C19.8569 47.8225 23.104 49.0664 26.7158 50.074C27.1396 50.1922 27.5923 50.1899 28.0151 50.0665C31.4595 49.0618 34.5869 47.8223 37.2544 46.1759L37.2544 49.4678C37.248 49.4786 37.2417 49.4896 37.2358 49.5006C37.0171 49.905 37.0137 50.3683 37.187 50.7585C30.6318 52.6392 23.6592 52.6208 17.1064 50.7683ZM40.1055 52.8317L40.1055 52.835L39.1147 53.1524C31.4194 55.619 23.1382 55.6174 15.4517 53.2524L15.3389 53.2177L14.2554 52.6758L14.2554 52.4062C7.37451 56.7132 2.85791 64.285 2.85107 72.9682C2.85107 72.9749 2.85107 72.9815 2.85107 72.9882L2.85107 90.3965L6.38672 92.3609L6.39453 92.3651L9.98242 94.33C10.6089 94.6729 11.0244 95.2626 11.1768 95.9113C11.2993 96.435 11.5518 97.3761 11.9536 98.2991C12.3755 99.2697 12.8657 99.9916 13.3496 100.323C13.8794 100.685 14.8081 100.848 16.0029 100.788C16.937 100.741 17.8579 100.567 18.5322 100.409L18.5322 99.9989L12.5869 94.0538L10.1387 92.4214C9.65576 92.0997 9.43262 91.5347 9.52344 90.9975C9.51025 90.9202 9.50342 90.8409 9.50342 90.7599L9.50342 78.9755C9.50342 75.7654 8.79053 72.5702 7.28613 69.6494L7.27002 69.6183L6.78027 68.5411C6.45459 67.8243 6.77148 66.9792 7.48828 66.6534C8.20508 66.3276 9.0498 66.6445 9.37598 67.3613L9.83691 68.3754C11.5522 71.7184 12.3545 75.3542 12.3545 78.9755L12.3545 90.4724L14.2075 91.7076C14.3379 91.7944 14.459 91.8938 14.5698 92.0044L19.7876 97.2225L42.0063 97.2225L42.0063 78.9755C42.0063 75.3542 42.8086 71.7184 44.5239 68.3754L44.9849 67.3613C45.311 66.6445 46.1562 66.3276 46.8726 66.6534C47.5894 66.9792 47.9062 67.8243 47.5806 68.5411L47.0908 69.6183L47.0752 69.6494C45.5703 72.5702 44.8574 75.7654 44.8574 78.9755L44.8574 100.073L51.3198 100.073L51.3198 72.9879C51.3198 64.7429 46.6333 57.2838 40.1055 52.8317ZM21.3833 100.074L21.3833 100.809C21.3833 100.86 21.3813 100.912 21.3784 100.963L27.5605 107.688L27.5605 100.074L21.3833 100.074ZM38.9648 120.093L30.4116 110.789L30.4116 100.074L38.9648 100.074L38.9648 120.093ZM42.7393 100.074C42.4902 100.078 42.2568 100.147 42.0547 100.263L41.8159 100.263L41.8159 100.074L42.7393 100.074ZM44.667 102.924L47.1768 102.924C47.1899 103.13 47.2041 103.393 47.2144 103.686C47.2388 104.399 47.2339 105.196 47.1523 105.762C47.0205 106.678 46.5557 107.947 46.2002 108.817L44.667 108.817L44.667 102.924ZM19.481 103.112C18.6968 103.309 17.458 103.569 16.147 103.635C15.2837 103.679 14.2705 103.646 13.3052 103.382L13.3052 134.002L15.6694 134.002L15.6812 134.002L21.8584 134.002L21.8584 115.469C21.8584 114.157 22.9224 113.094 24.2344 113.094L27.0854 113.094C27.252 113.094 27.4121 113.122 27.5605 113.175L27.5605 111.901L19.481 103.112ZM30.4116 134.002L38.9648 134.002L38.9648 124.306L30.4116 115.002L30.4116 134.002ZM33.2627 144.95L33.2627 136.853L36.5889 136.853L36.5889 140.596C36.5889 141.549 37.1587 142.409 38.0356 142.782L43.4683 145.091L33.2627 144.95ZM17.1064 140.596L17.1064 136.853L20.4326 136.853L20.4326 144.95L10.2275 145.091L15.6602 142.782C16.5371 142.409 17.1064 141.549 17.1064 140.596Z" fill-rule="evenodd" fill="#080A0D"/>
	<path id="Blind" d="M16.389 183.789C16.277 183.789 16.197 183.709 16.197 183.597L16.197 172.141C16.197 171.981 16.261 171.917 16.405 171.917L20.101 171.917C22.933 171.917 24.549 172.989 24.549 174.989C24.549 176.269 23.909 177.149 22.453 177.661C22.373 177.693 22.373 177.773 22.453 177.789C23.973 178.173 24.837 179.085 24.837 180.621C24.837 182.749 23.189 183.789 20.213 183.789L16.389 183.789ZM17.877 177.213L20.309 177.213C21.589 177.213 22.997 176.749 22.997 175.165C22.997 173.725 21.861 173.037 20.101 173.037L17.941 173.037C17.797 173.037 17.733 173.085 17.733 173.229L17.733 177.005C17.733 177.149 17.765 177.213 17.877 177.213ZM17.877 182.669L20.133 182.669C22.213 182.669 23.237 182.013 23.237 180.573C23.237 179.005 21.973 178.365 20.309 178.365L17.957 178.365C17.797 178.365 17.733 178.413 17.733 178.557L17.733 182.445C17.733 182.605 17.765 182.669 17.877 182.669ZM28.4245 172.125L28.4245 183.517C28.4245 183.725 28.3445 183.789 28.1365 183.789L27.3045 183.789C27.1125 183.789 27.0645 183.725 27.0645 183.565L27.0805 172.141C27.0805 171.981 27.1445 171.917 27.2725 171.917L28.2325 171.917C28.3605 171.917 28.4245 171.981 28.4245 172.125ZM32.3006 172.157L32.3006 173.485C32.3006 173.677 32.2366 173.789 32.0126 173.789L31.0846 173.789C30.8926 173.789 30.8446 173.677 30.8446 173.517L30.8446 172.173C30.8446 172.013 30.9246 171.917 31.0686 171.917L32.0766 171.917C32.2046 171.917 32.3006 172.013 32.3006 172.157ZM32.2366 175.517L32.2366 183.517C32.2366 183.725 32.1726 183.789 31.9486 183.789L31.1326 183.789C30.9406 183.789 30.8926 183.725 30.8926 183.565L30.8926 175.533C30.8926 175.373 30.9566 175.309 31.0846 175.309L32.0606 175.309C32.1886 175.309 32.2366 175.373 32.2366 175.517ZM34.9448 183.789C34.7848 183.789 34.7208 183.725 34.7208 183.581L34.7208 175.517C34.7208 175.389 34.7848 175.309 34.8968 175.309L35.8568 175.309C35.9688 175.309 36.0328 175.373 36.0328 175.485L36.0328 176.413C36.0328 176.525 36.0648 176.557 36.1768 176.461C37.2488 175.629 38.0008 175.149 39.1208 175.149C40.7688 175.149 41.6968 176.125 41.6968 177.565L41.6968 183.533C41.6968 183.709 41.6168 183.789 41.4568 183.789L40.5608 183.789C40.4168 183.789 40.3528 183.725 40.3528 183.581L40.3528 177.869C40.3528 176.829 39.8408 176.205 38.6888 176.205C37.7288 176.205 37.0728 176.637 36.0648 177.501L36.0648 183.549C36.0648 183.725 36.0008 183.789 35.8248 183.789L34.9448 183.789ZM50.0965 183.789C49.9525 183.789 49.8725 183.709 49.8725 183.565L49.8725 182.877C49.8725 182.717 49.7925 182.701 49.6645 182.813C49.2965 183.181 48.5445 183.949 47.1525 183.949C45.1525 183.949 43.6005 182.525 43.6005 179.677C43.6005 176.957 45.1525 175.149 47.3445 175.149C48.3845 175.149 49.0565 175.549 49.5845 175.997C49.7765 176.157 49.8405 176.109 49.8405 175.885L49.8405 172.125C49.8405 171.981 49.8885 171.917 50.0165 171.917L50.9925 171.917C51.1045 171.917 51.1685 171.981 51.1685 172.125L51.1685 183.533C51.1685 183.725 51.1205 183.789 50.9125 183.789L50.0965 183.789ZM49.8245 177.181C49.1685 176.525 48.5125 176.141 47.6645 176.141C46.0965 176.141 44.9765 177.357 44.9765 179.629C44.9765 181.981 46.1605 182.973 47.5685 182.973C48.8645 182.973 49.8245 181.917 49.8245 181.037L49.8245 177.181Z" fill-rule="evenodd" fill="#080A0D"/>
</svg>
