<svg width="88.000000" height="188.666687" viewBox="0 0 88 188.667" fill="none" xmlns="http://www.w3.org/2000/svg" xmlns:xlink="http://www.w3.org/1999/xlink">
	<desc>
			Created with Pixso.
	</desc>
	<defs/>
	<path id="Concussion" d="M27.8691 38.4153C24.0103 34.4412 21.9722 29.1416 21.9707 22.0359C21.9707 22.0187 21.9712 22.0013 21.9717 21.984L23.5786 22.0289C21.9766 21.9841 21.9717 21.9832 21.9717 21.9822L21.9717 21.9799L21.9717 21.9738L21.9722 21.9561C21.9727 21.9419 21.9736 21.9227 21.9746 21.8988C21.9771 21.8511 21.98 21.7843 21.9854 21.6998C21.9961 21.5309 22.0142 21.2908 22.0444 20.9895C22.1055 20.3876 22.2163 19.5388 22.418 18.5247C22.8198 16.5034 23.5889 13.7874 25.0654 11.0542C26.5454 8.3147 28.7505 5.53491 32.0229 3.44385C34.7339 1.7113 38.1177 0.490601 42.3169 0.118774C42.5044 0.0422363 42.71 0 42.9253 0C43.2891 0 43.647 0.00585938 44 0.0174561C44.3525 0.00585938 44.7109 0 45.0747 0C45.29 0 45.4951 0.0422363 45.6831 0.118774C49.8823 0.490601 53.2661 1.7113 55.9771 3.44385C59.2495 5.53491 61.4541 8.3147 62.9343 11.0542C62.9846 11.147 63.0339 11.2397 63.0823 11.3325C63.2844 11.5793 63.4448 11.8657 63.5508 12.1836L63.6631 12.52C64.6753 14.7397 65.2522 16.8661 65.5818 18.5247C65.7834 19.5388 65.8945 20.3876 65.9553 20.9895C65.9858 21.2908 66.0039 21.5309 66.0144 21.6998C66.0195 21.7843 66.0229 21.8511 66.0251 21.8988C66.0261 21.9227 66.0269 21.9419 66.0276 21.9561L66.0281 21.9738L66.0283 21.9822C66.0283 21.9832 66.0259 21.984 64.4216 22.0289L66.0283 21.984C66.0288 21.9967 66.0291 22.0095 66.0291 22.0222L66.0291 22.031L66.0291 22.0389C66.0271 29.1403 63.991 34.4307 60.2139 38.4001C59.7407 38.8971 59.2432 39.3708 58.7217 39.8228L58.7217 46.7454L61.9788 46.7454C62.4539 46.7454 62.9292 46.8727 63.3457 47.1212C67.9167 49.848 70.5186 53.3462 71.9353 57.5924C73.3218 61.7487 73.5513 66.5663 73.5513 71.8906L73.5513 95.7736C73.5513 96.2568 73.4209 96.7312 73.1738 97.1466L71.6167 99.7653L71.6167 100.582C71.6167 105.248 69.8557 109.703 66.6497 113.085C66.1335 113.63 65.4285 113.907 64.7241 113.907L60.6562 113.907L60.6562 128.465C61.2705 128.958 61.6641 129.714 61.6641 130.563L61.6641 138.424C63.7864 137.83 66.9934 137.507 69.4121 139.537C71.2319 141.064 71.49 143.667 71.3804 145.736C71.2639 147.938 70.6912 150.235 70.1526 151.86C69.7812 152.979 68.7363 153.667 67.6294 153.667L51.522 153.667C50.0386 153.667 48.8354 152.464 48.8354 150.98L48.8354 130.563C48.8354 130.354 48.8594 130.151 48.9048 129.955L43.5918 113.199L39.1094 129.906C39.105 129.923 39.1001 129.939 39.0952 129.955C39.1406 130.151 39.1646 130.354 39.1646 130.563L39.1646 150.98C39.1646 152.464 37.9614 153.667 36.478 153.667L20.3706 153.667C19.2637 153.667 18.2188 152.979 17.8477 151.86C17.3086 150.235 16.7363 147.938 16.6196 145.736C16.5098 143.667 16.7681 141.064 18.5879 139.537C21.0063 137.507 24.2139 137.83 26.3359 138.424L26.3359 130.563C26.3359 129.714 26.7295 128.958 27.3438 128.465L27.3438 127.135L27.3438 127.125L27.3438 113.907L23.4907 113.907C22.7861 113.907 22.0811 113.63 21.5649 113.085C18.3589 109.703 16.5981 105.248 16.5981 100.582L16.5981 100.086L14.7217 96.248C14.542 95.8806 14.4487 95.4771 14.4487 95.0681L14.4487 71.8906C14.4487 66.5695 14.6772 61.8737 16.0703 57.8411C17.4961 53.7126 20.1089 50.3644 24.6553 47.6577C25.0708 47.4103 25.5454 47.2826 26.021 47.2826L29.4932 47.2826L29.4932 40.0822L29.6865 40.0822C29.0459 39.5574 28.439 39.0026 27.8691 38.4153ZM58.9102 10.6621C57.7358 8.99158 56.2144 7.42126 54.2412 6.16028C51.731 4.5564 48.4136 3.4043 44 3.24316C39.5859 3.4043 36.2686 4.5564 33.7588 6.16028C33.689 6.20471 33.6201 6.24951 33.5518 6.29468L50.5801 12.0701L58.9102 10.6621ZM30.6699 8.72131C29.5288 9.93152 28.6226 11.2527 27.9019 12.5867C27.4092 13.4985 27.0049 14.413 26.6738 15.2958L43.4189 13.0454L30.6699 8.72131ZM60.6294 13.641C60.6401 13.6632 60.6504 13.6853 60.6606 13.7075L61.7437 16.9557L25.1963 22.3884C25.1953 22.2788 25.1948 22.1687 25.1948 22.0579L25.1953 22.0422C25.1968 22.0127 25.1992 21.9648 25.2031 21.8998C25.2109 21.7697 25.2256 21.5712 25.252 21.3141C25.3037 20.7993 25.4009 20.0531 25.5801 19.1532C25.6104 19.0002 25.6431 18.8431 25.6782 18.6824L50.689 15.3212L60.6294 13.641ZM25.4038 25.6167L62.5874 20.0895C62.6648 20.5762 62.7153 20.9907 62.748 21.3141C62.7739 21.5712 62.7888 21.7697 62.7969 21.8998C62.8008 21.9648 62.8032 22.0127 62.8047 22.0422L62.8052 22.0577C62.7998 28.4777 60.9829 32.9152 57.8784 36.1779C54.7461 39.4694 50.1538 41.7253 44.27 43.4569C38.1069 41.7228 33.3789 39.4624 30.1816 36.1697C27.6387 33.5503 25.9658 30.1743 25.4038 25.6167ZM35.4033 30.0881C35.4033 30.9784 34.6816 31.7001 33.7915 31.7001C32.9014 31.7001 32.1797 30.9784 32.1797 30.0881C32.1797 29.198 32.9014 28.4763 33.7915 28.4763C34.6816 28.4763 35.4033 29.198 35.4033 30.0881ZM55.8203 30.0881C55.8203 30.9784 55.0986 31.7001 54.2085 31.7001C53.3184 31.7001 52.5967 30.9784 52.5967 30.0881C52.5967 29.198 53.3184 28.4763 54.2085 28.4763C55.0986 28.4763 55.8203 29.198 55.8203 30.0881ZM42.9253 38.6851C42.0352 38.6851 41.3135 39.4067 41.3135 40.297C41.3135 41.1873 42.0352 41.9089 42.9253 41.9089L46.1489 41.9089C47.0396 41.9089 47.7612 41.1873 47.7612 40.297C47.7612 39.4067 47.0396 38.6851 46.1489 38.6851L42.9253 38.6851ZM45.0225 46.5957C48.9297 45.4561 52.4756 44.0492 55.498 42.1788L55.498 47.7C48.0635 49.8485 40.1514 49.8347 32.7168 47.733L32.7168 42.2031C35.8203 44.067 39.4819 45.4684 43.5537 46.6042C44.0327 46.7378 44.5439 46.7352 45.0225 46.5957ZM58.7217 50.0697L58.7217 49.9691L61.8262 49.9691C65.6418 52.2815 67.7153 55.1299 68.8772 58.6127C70.0825 62.2255 70.3274 66.5739 70.3274 71.8906L70.3274 95.626L68.6584 98.4331L60.6562 98.4331L60.6562 90.7546L61.6968 85.7593C61.8784 84.8877 61.3188 84.0341 60.4478 83.8525C59.5762 83.6709 58.7222 84.2302 58.541 85.1018L57.4888 90.1514C57.4512 90.3315 57.4321 90.5151 57.4321 90.6992L57.4321 127.125L57.4321 127.137L57.4321 127.877L51.6274 127.877L45.0078 106.999C44.9912 106.944 44.9722 106.891 44.9502 106.838C44.8638 106.63 44.7373 106.449 44.583 106.3C44.2915 106.019 43.9009 105.854 43.4902 105.847C43.4517 105.847 43.4136 105.847 43.375 105.849C43.1953 105.859 43.0205 105.899 42.8569 105.965C42.6372 106.054 42.4463 106.188 42.2915 106.351C42.1011 106.553 41.9658 106.801 41.8984 107.069L36.3159 127.877L30.5679 127.877L30.5674 90.7526C30.5674 90.4807 30.5264 90.2106 30.4453 89.9512L28.8823 84.9497C28.6167 84.1 27.7129 83.6265 26.8633 83.892C26.0132 84.1575 25.5396 85.0616 25.8052 85.9113L27.3438 90.8345L27.3438 98.5404L19.4307 98.5404L17.6724 94.9437L17.6724 71.8906C17.6724 66.5707 17.9185 62.364 19.1172 58.8937C20.27 55.557 22.333 52.8258 26.1733 50.5063L30.7305 50.5063L30.8457 50.5417C39.5366 53.2159 48.9004 53.2177 57.6021 50.4287L58.7217 50.0697ZM68.3552 101.657L63.5574 101.657L63.5574 104.773C63.5574 106.257 62.3547 107.459 60.8711 107.459L60.6562 107.459L60.6562 110.683L64.4814 110.683C66.7646 108.192 68.1172 105.024 68.3552 101.657ZM27.3438 110.683L27.3438 107.46C25.8599 107.46 24.6572 106.257 24.6572 104.773L24.6572 101.764L19.8677 101.764C20.1265 105.091 21.4741 108.219 23.7334 110.683L27.3438 110.683ZM35.9404 150.443L35.9404 131.1L29.5596 131.1L29.5596 138.995C29.5596 141.078 27.4429 142.153 25.8154 141.633C23.9458 141.035 21.9131 140.955 20.6602 142.006C20.1118 142.466 19.7354 143.611 19.8389 145.565C19.9268 147.223 20.3394 149.031 20.7783 150.443L35.9404 150.443ZM52.0596 150.443L52.0596 131.1L58.4399 131.1L58.4399 138.995C58.4399 141.078 60.5571 142.153 62.1846 141.633C64.0542 141.035 66.0869 140.955 67.3398 142.006C67.8882 142.466 68.2646 143.611 68.1611 145.565C68.0735 147.223 67.6604 149.031 67.2217 150.443L52.0596 150.443Z" fill-rule="evenodd" fill="#080A0D"/>
	<path id="Concussion" d="M6.048 172.591C8.208 172.591 10.128 174.095 10.384 175.871C10.416 176.063 10.384 176.095 10.272 176.111L9.072 176.207C8.96 176.223 8.944 176.175 8.912 176.047C8.592 174.687 7.552 173.759 6.096 173.759C3.872 173.759 2.64 175.391 2.64 178.703C2.64 181.919 3.824 183.567 6.176 183.567C7.68 183.567 8.672 182.879 9.296 181.279C9.312 181.215 9.376 181.183 9.488 181.215L10.432 181.439C10.48 181.455 10.544 181.503 10.512 181.663C10.064 183.183 8.528 184.783 6.112 184.783C2.928 184.783 1.04 182.463 1.04 178.671C1.04 174.879 2.928 172.591 6.048 172.591ZM16.0965 184.783C13.6645 184.783 12.0485 182.991 12.0485 180.431C12.0485 177.807 13.7285 175.983 16.1125 175.983C18.5285 175.983 20.1445 177.823 20.1445 180.415C20.1445 182.975 18.5125 184.783 16.0965 184.783ZM16.1285 183.775C17.7925 183.775 18.7685 182.495 18.7685 180.383C18.7685 178.287 17.7605 176.975 16.1125 176.975C14.4485 176.975 13.4245 178.287 13.4245 180.383C13.4245 182.479 14.4485 183.775 16.1285 183.775ZM22.3466 184.623C22.1866 184.623 22.1226 184.559 22.1226 184.415L22.1226 176.351C22.1226 176.223 22.1866 176.143 22.2986 176.143L23.2586 176.143C23.3706 176.143 23.4346 176.207 23.4346 176.319L23.4346 177.247C23.4346 177.359 23.4666 177.391 23.5786 177.295C24.6506 176.463 25.4026 175.983 26.5226 175.983C28.1706 175.983 29.0986 176.959 29.0986 178.399L29.0986 184.367C29.0986 184.543 29.0186 184.623 28.8586 184.623L27.9626 184.623C27.8186 184.623 27.7546 184.559 27.7546 184.415L27.7546 178.703C27.7546 177.663 27.2426 177.039 26.0906 177.039C25.1306 177.039 24.4746 177.471 23.4666 178.335L23.4666 184.383C23.4666 184.559 23.4026 184.623 23.2266 184.623L22.3466 184.623ZM34.9864 175.983C36.6344 175.983 37.6904 176.863 38.2984 177.967C38.3624 178.111 38.3304 178.175 38.2184 178.207L37.3384 178.415C37.2584 178.447 37.1944 178.415 37.1304 178.303C36.4744 177.423 35.9144 176.975 35.0664 176.975C33.4184 176.975 32.3464 178.271 32.3464 180.383C32.3464 182.511 33.4344 183.791 35.0984 183.791C36.1224 183.791 36.8424 183.279 37.4504 182.287C37.5144 182.191 37.5624 182.175 37.6584 182.223L38.3464 182.479C38.4264 182.511 38.4424 182.575 38.4104 182.687C37.8024 183.823 36.6824 184.783 34.9864 184.783C32.6184 184.783 30.9704 183.023 30.9704 180.415C30.9704 177.807 32.6504 175.983 34.9864 175.983ZM43.0182 183.727C43.9303 183.727 44.7622 183.183 45.5942 182.335L45.5942 176.367C45.5942 176.223 45.6743 176.143 45.8503 176.143L46.7303 176.143C46.8743 176.143 46.9543 176.207 46.9543 176.367L46.9222 184.415C46.9222 184.559 46.8743 184.623 46.7463 184.623L45.8182 184.623C45.6903 184.623 45.6423 184.575 45.6423 184.447L45.6423 183.503C45.6423 183.391 45.5942 183.359 45.4982 183.455C44.3143 184.463 43.4823 184.783 42.5863 184.783C41.1143 184.783 40.0262 183.823 40.0262 182.335L40.0262 176.383C40.0262 176.223 40.1063 176.143 40.2663 176.143L41.1623 176.143C41.3063 176.143 41.3703 176.207 41.3703 176.367L41.3703 181.983C41.3703 183.039 41.9943 183.727 43.0182 183.727ZM54.4919 178.015C54.0599 177.375 53.2759 176.927 52.2199 176.927C51.0679 176.927 50.2199 177.455 50.2199 178.287C50.2199 178.719 50.4599 179.151 51.5159 179.471L53.5479 180.079C55.0039 180.479 55.6279 181.279 55.6279 182.287C55.6279 183.791 54.1559 184.783 52.1719 184.783C50.4919 184.783 49.1479 184.047 48.6199 183.023C48.5559 182.911 48.5559 182.831 48.6519 182.767L49.2759 182.415C49.3879 182.351 49.4679 182.367 49.5159 182.431C50.0279 183.247 50.8599 183.807 52.1879 183.807C53.4199 183.791 54.3639 183.263 54.3639 182.431C54.3639 181.855 53.9319 181.455 52.7959 181.135L51.1479 180.671C49.5479 180.255 48.9719 179.503 48.9719 178.527C48.9559 177.007 50.2839 175.983 52.2359 175.983C53.6599 175.983 54.8279 176.575 55.4199 177.471C55.4839 177.567 55.4999 177.647 55.4039 177.695L54.7319 178.063C54.6519 178.111 54.5559 178.095 54.4919 178.015ZM62.6794 178.015C62.2474 177.375 61.4634 176.927 60.4074 176.927C59.2554 176.927 58.4074 177.455 58.4074 178.287C58.4074 178.719 58.6474 179.151 59.7034 179.471L61.7354 180.079C63.1914 180.479 63.8154 181.279 63.8154 182.287C63.8154 183.791 62.3434 184.783 60.3594 184.783C58.6794 184.783 57.3354 184.047 56.8074 183.023C56.7434 182.911 56.7434 182.831 56.8394 182.767L57.4634 182.415C57.5754 182.351 57.6554 182.367 57.7034 182.431C58.2154 183.247 59.0474 183.807 60.3754 183.807C61.6074 183.791 62.5514 183.263 62.5514 182.431C62.5514 181.855 62.1194 181.455 60.9834 181.135L59.3354 180.671C57.7354 180.255 57.1594 179.503 57.1594 178.527C57.1434 177.007 58.4714 175.983 60.4234 175.983C61.8474 175.983 63.0154 176.575 63.6074 177.471C63.6714 177.567 63.6874 177.647 63.5914 177.695L62.9194 178.063C62.8394 178.111 62.7434 178.095 62.6794 178.015ZM67.1869 172.991L67.1869 174.319C67.1869 174.511 67.1229 174.623 66.8989 174.623L65.9709 174.623C65.7789 174.623 65.7309 174.511 65.7309 174.351L65.7309 173.007C65.7309 172.847 65.8109 172.751 65.9549 172.751L66.9629 172.751C67.0909 172.751 67.1869 172.847 67.1869 172.991ZM67.1229 176.351L67.1229 184.351C67.1229 184.559 67.0589 184.623 66.8349 184.623L66.0189 184.623C65.8269 184.623 65.7789 184.559 65.7789 184.399L65.7789 176.367C65.7789 176.207 65.8429 176.143 65.9709 176.143L66.9469 176.143C67.0749 176.143 67.1229 176.207 67.1229 176.351ZM73.159 184.783C70.727 184.783 69.111 182.991 69.111 180.431C69.111 177.807 70.791 175.983 73.175 175.983C75.591 175.983 77.207 177.823 77.207 180.415C77.207 182.975 75.575 184.783 73.159 184.783ZM73.191 183.775C74.855 183.775 75.831 182.495 75.831 180.383C75.831 178.287 74.823 176.975 73.175 176.975C71.511 176.975 70.487 178.287 70.487 180.383C70.487 182.479 71.511 183.775 73.191 183.775ZM79.4091 184.623C79.2491 184.623 79.1851 184.559 79.1851 184.415L79.1851 176.351C79.1851 176.223 79.2491 176.143 79.3611 176.143L80.3211 176.143C80.4331 176.143 80.4971 176.207 80.4971 176.319L80.4971 177.247C80.4971 177.359 80.5291 177.391 80.6411 177.295C81.7131 176.463 82.4651 175.983 83.5851 175.983C85.2331 175.983 86.1611 176.959 86.1611 178.399L86.1611 184.367C86.1611 184.543 86.0811 184.623 85.9211 184.623L85.0251 184.623C84.8811 184.623 84.8171 184.559 84.8171 184.415L84.8171 178.703C84.8171 177.663 84.3051 177.039 83.1531 177.039C82.1931 177.039 81.5371 177.471 80.5291 178.335L80.5291 184.383C80.5291 184.559 80.4651 184.623 80.2891 184.623L79.4091 184.623Z" fill-rule="evenodd" fill="#080A0D"/>
</svg>
