<svg width="98.576172" height="187.526978" viewBox="0 0 98.5762 187.527" fill="none" xmlns="http://www.w3.org/2000/svg" xmlns:xlink="http://www.w3.org/1999/xlink">
	<desc>
			Created with Pixso.
	</desc>
	<defs/>
	<path id="Missing limbs" d="M26.6606 26.6036C26.6606 26.7495 26.6807 26.8906 26.7183 27.0245C26.9814 33.1971 28.936 37.8874 32.4136 41.469C32.9111 41.9815 33.4375 42.4684 33.9902 42.9316L33.9902 47.469C33.9902 47.5513 33.9971 47.6323 34.0093 47.7112C24.9365 53.1179 18.9233 63.0816 18.9233 74.5382C18.9233 75.0414 19.1606 75.4893 19.5298 75.7755C19.7065 76.1544 20.0298 76.4509 20.4272 76.5915L20.4272 106.504C20.4272 107.195 20.7021 107.859 21.1914 108.348L23.71 110.867C24.1992 111.356 24.8623 111.63 25.5542 111.63L25.748 111.63C26.2246 111.63 26.6714 111.503 27.0557 111.28L26.3613 115.941C26.1265 117.517 27.3477 118.934 28.9409 118.934L36.0762 118.934L36.0762 128.846C36.0762 130.289 37.2466 131.453 38.6846 131.453L39.2061 131.453L39.2061 150.754C39.2061 151.618 39.9067 152.319 40.771 152.319C41.6353 152.319 42.3359 151.618 42.3359 150.754L42.3359 131.453L42.8574 131.453C44.2983 131.453 45.4658 130.285 45.4658 128.845L45.4658 118.934L50.6831 118.934L50.6831 149.919C50.6831 151.359 51.8506 152.527 53.291 152.527L66.1235 152.527C67.564 152.527 68.7319 151.359 68.7319 149.919L68.7319 149.367C68.7319 148.308 68.0918 147.355 67.1123 146.953L60.0728 144.07L60.0728 118.934L69.791 118.934C71.4067 118.934 72.6333 117.48 72.3623 115.888L68.6177 93.8875C69.9653 93.7859 71.0269 92.6603 71.0269 91.2867L71.0269 76.1592L77.2866 76.1592C77.5439 76.1592 77.7871 76.097 78.001 75.9869C78.5713 75.7533 78.9731 75.1927 78.9731 74.5383C78.9731 62.6683 71.6772 52.2658 62.208 47.0172C62.1919 47.0081 62.1753 46.9995 62.1592 46.9911L62.1592 43.0139C62.7412 42.5217 63.2944 42.0026 63.8159 41.4543C67.4849 37.5986 69.4619 32.4594 69.4619 25.5601L69.4351 25.5601C69.4351 25.5427 69.4341 25.5254 69.4336 25.5082C69.4346 25.4822 69.4355 25.4562 69.4355 25.4299L69.4355 25.2734C69.4355 25.2472 69.4346 25.2211 69.4336 25.1952C69.4346 25.1693 69.4355 25.1432 69.4355 25.1169L69.4355 24.9604C69.4355 24.9342 69.4346 24.9081 69.4336 24.8822C69.4346 24.8563 69.4355 24.8302 69.4355 24.804L69.4355 24.6475C69.4355 24.6339 69.4351 24.6204 69.4346 24.6068C69.4346 24.5942 69.4341 24.5817 69.4336 24.5692C69.4346 24.5433 69.4355 24.5172 69.4355 24.491L69.4355 24.3345C69.4355 24.3083 69.4346 24.2822 69.4336 24.2562C69.4346 24.2303 69.4355 24.2042 69.4355 24.178L69.4355 24.0215C69.4355 23.9953 69.4346 23.9692 69.4336 23.9432C69.4346 23.9174 69.4355 23.8912 69.4355 23.865L69.4355 23.7086C69.4355 23.6823 69.4346 23.6562 69.4336 23.6303C69.4346 23.6044 69.4355 23.5782 69.4355 23.5521L69.4355 23.3956C69.4355 23.3693 69.4346 23.3432 69.4336 23.3173C69.4346 23.2914 69.4355 23.2653 69.4355 23.2391L69.4355 23.0826C69.4355 23.0687 69.4351 23.0549 69.4346 23.0411C69.4346 23.0289 69.4341 23.0165 69.4336 23.0043C69.4341 22.9913 69.4346 22.9783 69.4351 22.9651C69.4351 22.9521 69.4355 22.9391 69.4355 22.9261L69.4355 22.7696C69.4355 22.7433 69.4346 22.7173 69.4336 22.6913C69.4341 22.677 69.4346 22.6626 69.4351 22.6481C69.4351 22.6365 69.4355 22.6248 69.4355 22.6131L69.4355 22.4566C69.4355 22.4304 69.4346 22.4043 69.4336 22.3784C69.4346 22.3524 69.4355 22.3264 69.4355 22.3001L69.4355 22.1436C69.4355 22.1302 69.4351 22.1169 69.4351 22.1036C69.4346 22.0908 69.4341 22.0781 69.4336 22.0654C69.4346 22.0394 69.4355 22.0134 69.4355 21.9871L69.4355 21.8306C69.4355 21.8044 69.4346 21.7783 69.4336 21.7524C69.4346 21.7264 69.4355 21.7004 69.4355 21.6741L69.4355 21.5176C69.4355 21.4914 69.4346 21.4653 69.4336 21.4394C69.4346 21.4135 69.4355 21.3874 69.4355 21.3611L69.4355 21.2047C69.4355 21.1784 69.4346 21.1523 69.4336 21.1264C69.4346 21.1005 69.4355 21.0744 69.4355 21.0482L69.4355 20.8917C69.4355 20.8654 69.4346 20.8394 69.4336 20.8134C69.4346 20.7902 69.4351 20.7669 69.4355 20.7435C71.1323 20.3688 72.6772 19.4692 73.8867 18.2817C77.5732 14.6623 77.6284 8.69366 74.0088 5.0069C70.5635 1.49738 64.9893 1.27881 61.2812 4.38794C61.2432 4.3595 61.2056 4.33112 61.1675 4.30286C61.1445 4.28601 61.1216 4.26984 61.0986 4.25439C61.0767 4.23676 61.0547 4.2196 61.0317 4.20294C60.9863 4.1698 60.9409 4.13678 60.895 4.104C60.8721 4.08746 60.8486 4.07172 60.8252 4.05664C60.8032 4.03931 60.7808 4.02252 60.7578 4.00616C60.7119 3.97382 60.666 3.94165 60.6201 3.90967C60.5967 3.89355 60.5732 3.87811 60.5498 3.86346C60.5273 3.8465 60.5049 3.83008 60.4814 3.81415C60.4351 3.78247 60.3887 3.75098 60.3418 3.71967C60.3184 3.70392 60.2949 3.68884 60.271 3.6745C60.2485 3.6579 60.2256 3.64178 60.2017 3.62622C60.1548 3.59528 60.1079 3.56445 60.0605 3.53381C60.0371 3.51843 60.0132 3.50372 59.9888 3.48981C59.9663 3.47351 59.9429 3.45776 59.9189 3.44257C59.8721 3.41241 59.8247 3.38245 59.7769 3.3526C59.7529 3.33765 59.729 3.32336 59.7046 3.30975C59.6816 3.29388 59.6582 3.27856 59.6343 3.26373C59.5864 3.23425 59.5386 3.20502 59.4907 3.1759C59.4663 3.16125 59.4419 3.14734 59.4175 3.13416C59.394 3.11859 59.3706 3.10358 59.3462 3.08911C59.2979 3.06036 59.2495 3.0318 59.2012 3.00342C59.1768 2.98914 59.1519 2.97559 59.127 2.96277C59.1035 2.94763 59.0796 2.93298 59.0552 2.91888C59.0068 2.89099 58.958 2.86322 58.9092 2.83569C58.8848 2.82184 58.8599 2.80865 58.835 2.79626C58.811 2.78149 58.7871 2.76727 58.7622 2.75354C58.7134 2.72638 58.6641 2.69934 58.6147 2.67255C58.5903 2.659 58.5649 2.64624 58.54 2.63422C58.5161 2.61981 58.4917 2.6059 58.4668 2.59259C58.417 2.5661 58.3677 2.53986 58.3179 2.51373C58.2925 2.50061 58.2676 2.48822 58.2422 2.47656C58.2178 2.46246 58.1934 2.44897 58.168 2.43604C58.1187 2.4104 58.0684 2.38501 58.0186 2.35974C57.9932 2.34705 57.9678 2.33508 57.9424 2.32385C57.918 2.31018 57.8936 2.29706 57.8682 2.28455C57.8179 2.25964 57.7676 2.23499 57.7173 2.21045C57.6919 2.19812 57.666 2.18652 57.6406 2.17566C57.6157 2.16235 57.5908 2.1496 57.5654 2.13745C57.5146 2.11334 57.4639 2.08936 57.4131 2.06561C57.3872 2.05365 57.3613 2.04248 57.3354 2.03198C57.311 2.01904 57.2856 2.00665 57.2598 1.99493C57.209 1.97162 57.1582 1.94855 57.1069 1.92566C57.0811 1.91412 57.0552 1.90332 57.0293 1.89331C57.0044 1.8808 56.979 1.86884 56.9531 1.85754C56.9019 1.83502 56.8506 1.81268 56.7988 1.79053C56.7729 1.77936 56.7471 1.76898 56.7207 1.75934C56.6958 1.74713 56.6699 1.7356 56.644 1.72461C56.5923 1.70288 56.5405 1.68127 56.4888 1.65991C56.4624 1.64911 56.436 1.6391 56.4097 1.62988C56.3843 1.61804 56.3584 1.60687 56.3325 1.59631C56.2803 1.57544 56.2285 1.55469 56.1763 1.53418C56.1504 1.52386 56.124 1.51434 56.0977 1.50549C56.0723 1.49414 56.0464 1.4834 56.02 1.47327C55.9678 1.45312 55.915 1.43317 55.8628 1.41345C55.8364 1.4035 55.8096 1.39435 55.7832 1.38593C55.7573 1.37494 55.7314 1.36456 55.7051 1.3548C55.6523 1.33545 55.5996 1.31628 55.5469 1.2973C55.52 1.28778 55.4932 1.27899 55.4663 1.27094C55.4409 1.26031 55.4146 1.25031 55.3877 1.24097C55.335 1.22247 55.2822 1.20422 55.229 1.1861C55.2021 1.177 55.1758 1.16864 55.1489 1.16107C55.123 1.15088 55.0967 1.14136 55.0698 1.13245C55.0166 1.11475 54.9634 1.09723 54.9102 1.07996C54.8833 1.07123 54.8564 1.06329 54.8296 1.05609C54.8032 1.04633 54.7769 1.03717 54.75 1.02863C54.6963 1.01172 54.6431 0.994995 54.5894 0.978516C54.562 0.970154 54.5352 0.962646 54.5078 0.955872C54.4814 0.946411 54.4551 0.937622 54.4277 0.929565C54.374 0.913513 54.3203 0.897644 54.2666 0.881958C54.2397 0.874084 54.2124 0.867004 54.1855 0.860657C54.1592 0.851685 54.1323 0.843384 54.1055 0.835693C54.0518 0.820496 53.9976 0.805481 53.9434 0.790649C53.9165 0.783142 53.8892 0.776428 53.8618 0.770508C53.8354 0.761902 53.8086 0.753967 53.7812 0.746704C53.7271 0.7323 53.6729 0.718079 53.6182 0.704041C53.5908 0.69696 53.5635 0.690674 53.5361 0.68512C53.5093 0.676941 53.4824 0.669373 53.4551 0.662537C53.4004 0.648926 53.3462 0.635559 53.2915 0.622314C53.2642 0.615723 53.2368 0.609863 53.2095 0.604797C53.1831 0.597046 53.1558 0.589966 53.1284 0.583557C53.0742 0.570801 53.0195 0.558289 52.9648 0.545898C52.9375 0.539734 52.9097 0.534241 52.8823 0.529602C52.8555 0.522217 52.8281 0.515503 52.8008 0.509521C52.7461 0.497559 52.6909 0.48584 52.6362 0.474304C52.6084 0.468506 52.5811 0.463501 52.5532 0.459229C52.5264 0.452209 52.499 0.445923 52.4712 0.440369C52.416 0.429199 52.3608 0.418335 52.3057 0.407593C52.2783 0.402283 52.2505 0.397644 52.2231 0.393799C52.1963 0.387329 52.1689 0.38147 52.1411 0.376343C52.0864 0.366089 52.0312 0.356079 51.9761 0.346252C51.9482 0.341309 51.9209 0.337097 51.8931 0.333679C51.8662 0.327576 51.8384 0.322083 51.8105 0.317383C51.7554 0.307922 51.7002 0.298706 51.645 0.289734C51.6167 0.285156 51.5889 0.281433 51.5615 0.278381C51.5342 0.272644 51.5063 0.267639 51.4785 0.263306C51.4229 0.2547 51.3672 0.246277 51.3115 0.238098C51.2842 0.234009 51.2563 0.230652 51.2285 0.228088C51.2012 0.222778 51.1738 0.218201 51.146 0.214294C51.0903 0.206604 51.0352 0.199097 50.9795 0.191772C50.9517 0.18811 50.9238 0.185181 50.8965 0.183044C50.8687 0.178162 50.8413 0.17395 50.8135 0.170471C50.7578 0.163574 50.7021 0.156921 50.6465 0.150391C50.6182 0.147156 50.5903 0.144653 50.5625 0.142883C50.5352 0.138428 50.5073 0.134644 50.479 0.131592C50.4233 0.125488 50.3677 0.119629 50.3115 0.113953C50.2837 0.111145 50.2554 0.10907 50.2275 0.107727C50.2002 0.103638 50.1724 0.100281 50.1445 0.0976562C50.0889 0.0924683 50.0332 0.0874634 49.9775 0.0827026C49.9497 0.0802612 49.9219 0.0786133 49.894 0.0776978C49.8662 0.0740967 49.8384 0.071167 49.8105 0.0689697C49.7549 0.0645752 49.6987 0.0603638 49.6431 0.0564575C49.6147 0.0544434 49.5869 0.0531616 49.5591 0.0526733C49.5312 0.0494385 49.5034 0.046936 49.4751 0.045166C49.4194 0.041626 49.3633 0.038269 49.3071 0.0350952C49.2788 0.0335693 49.251 0.0327148 49.2231 0.0326538C49.1953 0.0297852 49.167 0.02771 49.1387 0.0263672C49.083 0.0236206 49.0273 0.0211792 48.9717 0.0188599C48.9438 0.0177612 48.916 0.017334 48.8882 0.0176392C48.8604 0.0152588 48.8325 0.0136108 48.8047 0.0126343C48.7485 0.0108032 48.6929 0.00909424 48.6367 0.00769043C48.6089 0.00695801 48.5811 0.00695801 48.5527 0.00769043C48.5254 0.00567627 48.4971 0.00445557 48.4692 0.00390625C48.4131 0.00286865 48.3569 0.00201416 48.3008 0.00140381C48.2725 0.00109863 48.2446 0.00152588 48.2168 0.00268555C48.189 0.00109863 48.1606 0.000244141 48.1323 0.000183105C48.1045 6.10352e-05 48.0762 0 48.0479 0C48.02 0 47.9917 6.10352e-05 47.9639 0.000183105C47.9355 0.000244141 47.9072 0.00109863 47.8794 0.00268555C47.8516 0.00152588 47.8237 0.00109863 47.7954 0.00140381C47.7393 0.00201416 47.6831 0.00286865 47.627 0.00390625C47.5991 0.00445557 47.5708 0.00567627 47.5435 0.00769043C47.5156 0.00695801 47.4873 0.00695801 47.4595 0.00769043C47.4033 0.00909424 47.3477 0.0108032 47.2915 0.0126343C47.2637 0.0136108 47.2358 0.0152588 47.208 0.0176392C47.1802 0.017334 47.1523 0.0177002 47.1245 0.0188599C47.0688 0.0211792 47.0132 0.0236206 46.9575 0.0263062C46.9292 0.02771 46.9009 0.0297852 46.8735 0.0326538C46.8452 0.0327148 46.8174 0.0335693 46.7891 0.0350952C46.7329 0.038269 46.6768 0.041626 46.6211 0.045166C46.5928 0.046936 46.5649 0.0494385 46.5371 0.0526733C46.5093 0.0531616 46.4814 0.0544434 46.4531 0.0563965C46.3975 0.0603638 46.3413 0.0645752 46.2856 0.0689697C46.2578 0.071167 46.23 0.0740967 46.2021 0.0776978C46.1748 0.0786133 46.1465 0.0802612 46.1187 0.0827026C46.063 0.0874634 46.0073 0.0924683 45.9521 0.0976562C45.9238 0.100281 45.896 0.103638 45.8687 0.107727C45.8408 0.10907 45.8125 0.111145 45.7847 0.113953C45.7285 0.119629 45.6729 0.125488 45.6172 0.131592C45.5889 0.134644 45.561 0.138367 45.5337 0.142883C45.5059 0.144653 45.478 0.147156 45.4497 0.150391C45.394 0.156921 45.3384 0.163574 45.2832 0.170471C45.2549 0.17395 45.2275 0.178162 45.2002 0.183044C45.1724 0.185181 45.1445 0.18811 45.1167 0.191772C45.061 0.199097 45.0059 0.206604 44.9502 0.214294C44.9224 0.218201 44.895 0.222778 44.8677 0.228088C44.8398 0.230652 44.8125 0.234009 44.7847 0.238098C44.729 0.246277 44.6733 0.2547 44.6177 0.263306C44.5898 0.267639 44.562 0.272644 44.5347 0.278381C44.5073 0.281433 44.4795 0.285156 44.4512 0.289734C44.396 0.298706 44.3408 0.307922 44.2856 0.317383C44.2578 0.322083 44.2305 0.327515 44.2031 0.333679C44.1753 0.337097 44.1479 0.341309 44.1201 0.346252C44.0649 0.356079 44.0098 0.366089 43.9551 0.376343C43.9272 0.38147 43.8999 0.387329 43.873 0.393799C43.8457 0.397644 43.8179 0.402283 43.7905 0.407593C43.7354 0.418335 43.6802 0.429199 43.625 0.440308C43.5972 0.445923 43.5698 0.452209 43.543 0.459167C43.5151 0.463501 43.4878 0.468506 43.46 0.474304C43.4053 0.48584 43.3501 0.497559 43.2954 0.509521C43.2681 0.515503 43.2407 0.522217 43.2139 0.529541C43.1865 0.534241 43.1587 0.539734 43.1313 0.545898C43.0767 0.558228 43.022 0.570801 42.9678 0.583557C42.9404 0.589966 42.9131 0.597046 42.8867 0.604797C42.8594 0.609863 42.832 0.615723 42.8047 0.622314C42.75 0.635559 42.6958 0.648926 42.6411 0.662537C42.6138 0.669373 42.5869 0.676941 42.5601 0.68512C42.5327 0.690674 42.5054 0.69696 42.478 0.704041C42.4233 0.718079 42.3691 0.7323 42.3149 0.746704C42.2876 0.753967 42.2607 0.761902 42.2344 0.770508C42.207 0.776428 42.1797 0.783142 42.1528 0.790588C42.0986 0.80542 42.0444 0.820496 41.9907 0.835693C41.9639 0.843384 41.937 0.851685 41.9106 0.860657C41.8838 0.867004 41.8564 0.874084 41.8296 0.881958C41.7759 0.897644 41.7222 0.913513 41.6685 0.929565C41.6411 0.937622 41.6147 0.946411 41.5884 0.955811C41.561 0.962646 41.5342 0.970154 41.5068 0.978516C41.4531 0.994995 41.3999 1.01172 41.3462 1.02863C41.3193 1.03711 41.293 1.04633 41.2666 1.05609C41.2397 1.06329 41.2129 1.07123 41.186 1.07996C41.1328 1.09723 41.0796 1.11475 41.0264 1.13245C40.9995 1.14136 40.9731 1.15088 40.9473 1.16107C40.9204 1.16864 40.894 1.177 40.8672 1.1861C40.814 1.20422 40.7612 1.22247 40.7085 1.24097C40.6816 1.25031 40.6558 1.26031 40.6299 1.27094C40.603 1.27899 40.5762 1.28778 40.5498 1.2973C40.4966 1.31628 40.4438 1.33545 40.3911 1.3548C40.3647 1.3645 40.3389 1.37488 40.313 1.38593C40.2866 1.39435 40.2598 1.4035 40.2334 1.41345C40.1812 1.43317 40.1284 1.45312 40.0762 1.47327C40.0498 1.4834 40.0239 1.49414 39.9985 1.50549C39.9722 1.51428 39.9458 1.52386 39.9199 1.53418C39.8677 1.55469 39.8159 1.57544 39.7637 1.59631C39.7378 1.60687 39.7119 1.61804 39.6865 1.62988C39.6602 1.6391 39.6338 1.64911 39.6074 1.65991C39.5557 1.68127 39.5039 1.70288 39.4521 1.72461C39.4263 1.7356 39.4004 1.74713 39.3755 1.75934C39.3491 1.76898 39.3232 1.77936 39.2974 1.79053C39.2456 1.81262 39.1943 1.83496 39.1431 1.85748C39.1172 1.86884 39.0918 1.8808 39.0669 1.89331C39.041 1.90332 39.0151 1.91412 38.9893 1.92566C38.938 1.94855 38.8872 1.97162 38.8364 1.99493C38.8105 2.00665 38.7852 2.01904 38.7607 2.03198C38.7349 2.04248 38.709 2.05365 38.6831 2.06561C38.6323 2.08936 38.5815 2.11334 38.5308 2.13745C38.5054 2.1496 38.4805 2.16235 38.4556 2.17566C38.4302 2.18652 38.4043 2.19812 38.3789 2.21045C38.3286 2.23499 38.2783 2.25964 38.228 2.28455C38.2026 2.29706 38.1782 2.31018 38.1538 2.32385C38.1284 2.33508 38.103 2.34705 38.0776 2.35974C38.0278 2.38501 37.9775 2.4104 37.9282 2.43604C37.9028 2.44897 37.8784 2.46246 37.854 2.47656C37.8286 2.48822 37.8037 2.50061 37.7783 2.51373C37.7285 2.53986 37.6792 2.5661 37.6294 2.59259C37.6045 2.6059 37.5801 2.61981 37.5562 2.63422C37.5312 2.64624 37.5059 2.659 37.4814 2.67255C37.4321 2.69934 37.3828 2.72638 37.334 2.75354C37.3091 2.76727 37.2852 2.78149 37.2612 2.79626C37.2363 2.80865 37.2114 2.82184 37.187 2.83569C37.1382 2.86322 37.0894 2.89099 37.041 2.91888C37.0166 2.93298 36.9927 2.94763 36.9692 2.96283C36.9443 2.97559 36.9194 2.98914 36.895 3.00342C36.8467 3.0318 36.7983 3.06036 36.75 3.08911C36.7256 3.10358 36.7021 3.11859 36.6787 3.13416C36.6543 3.14734 36.6299 3.16125 36.6055 3.1759C36.5576 3.20502 36.5098 3.23425 36.4619 3.26373C36.438 3.27856 36.4146 3.29388 36.3916 3.30981C36.3672 3.32336 36.3433 3.33765 36.3193 3.35266C36.2715 3.38245 36.2241 3.41241 36.1772 3.44257C36.1533 3.45776 36.1299 3.47351 36.1074 3.48981C36.083 3.50378 36.0591 3.51843 36.0356 3.53381C35.9883 3.56445 35.9414 3.59528 35.8945 3.62622C35.8706 3.64178 35.8477 3.6579 35.8252 3.6745C35.8013 3.68884 35.7778 3.70392 35.7544 3.71967C35.7075 3.75098 35.6611 3.78247 35.6147 3.81415C35.5913 3.83008 35.5688 3.8465 35.5464 3.86346C35.5229 3.87817 35.4995 3.89355 35.4761 3.90967C35.4302 3.94165 35.3843 3.97382 35.3384 4.00616C35.3154 4.02252 35.293 4.03931 35.271 4.05664C35.2476 4.07172 35.2241 4.08752 35.2012 4.104C35.1553 4.13678 35.1099 4.1698 35.0645 4.20294C35.0415 4.2196 35.0195 4.23676 34.9976 4.25439C34.9746 4.2699 34.9517 4.28601 34.9287 4.30286C34.8838 4.33636 34.8389 4.37 34.7939 4.40381C34.79 4.4068 34.7861 4.40979 34.7822 4.41278C31.0747 1.41498 25.5889 1.6684 22.1831 5.13757C18.5635 8.82434 18.6187 14.793 22.3052 18.4125C23.4922 19.5776 25.002 20.4656 26.6611 20.8525C26.6611 20.8655 26.6606 20.8786 26.6606 20.8917L26.6606 21.0482C26.6606 21.0744 26.6616 21.1005 26.6626 21.1264C26.6616 21.1523 26.6606 21.1784 26.6606 21.2047L26.6606 21.3611C26.6606 21.3874 26.6616 21.4135 26.6626 21.4394C26.6616 21.4653 26.6606 21.4914 26.6606 21.5176L26.6606 21.6741C26.6606 21.7004 26.6616 21.7264 26.6626 21.7524C26.6616 21.7783 26.6606 21.8044 26.6606 21.8306L26.6606 21.9871C26.6606 22.0134 26.6616 22.0394 26.6626 22.0654C26.6616 22.0913 26.6606 22.1174 26.6606 22.1436L26.6606 22.3001C26.6606 22.3264 26.6616 22.3524 26.6626 22.3784C26.6616 22.4043 26.6606 22.4304 26.6606 22.4566L26.6606 22.6131C26.6606 22.6393 26.6616 22.6654 26.6626 22.6913C26.6616 22.7173 26.6606 22.7433 26.6606 22.7696L26.6606 22.9261C26.6606 22.9523 26.6616 22.9784 26.6626 23.0043C26.6616 23.0302 26.6606 23.0563 26.6606 23.0826L26.6606 23.2391C26.6606 23.2653 26.6616 23.2914 26.6626 23.3173C26.6616 23.3432 26.6606 23.3693 26.6606 23.3956L26.6606 23.5521C26.6606 23.5782 26.6616 23.6044 26.6626 23.6303C26.6616 23.6562 26.6606 23.6823 26.6606 23.7086L26.6606 23.865C26.6606 23.8912 26.6616 23.9174 26.6626 23.9432C26.6616 23.9692 26.6606 23.9953 26.6606 24.0215L26.6606 24.178C26.6606 24.2042 26.6616 24.2303 26.6626 24.2562C26.6616 24.2822 26.6606 24.3083 26.6606 24.3345L26.6606 24.491C26.6606 24.5172 26.6616 24.5433 26.6626 24.5692C26.6616 24.5952 26.6606 24.6212 26.6606 24.6475L26.6606 24.804C26.6606 24.8302 26.6616 24.8563 26.6626 24.8822C26.6616 24.9081 26.6606 24.9342 26.6606 24.9604L26.6606 25.1169C26.6606 25.1432 26.6616 25.1693 26.6626 25.1952C26.6616 25.2211 26.6606 25.2472 26.6606 25.2734L26.6606 25.4299C26.6606 25.4562 26.6616 25.4822 26.6626 25.5082C26.6616 25.5341 26.6606 25.5602 26.6606 25.5864L26.6606 25.7429C26.6606 25.7692 26.6616 25.7952 26.6626 25.8212C26.6616 25.8471 26.6606 25.8732 26.6606 25.8994L26.6606 26.0559C26.6606 26.0822 26.6616 26.1082 26.6626 26.1342C26.6616 26.1601 26.6606 26.1862 26.6606 26.2124L26.6606 26.3689C26.6606 26.3951 26.6616 26.4212 26.6626 26.4471C26.6616 26.4731 26.6606 26.4991 26.6606 26.5254L26.6606 26.6036ZM48.0479 3.12982C48.0239 3.12982 47.9995 3.12988 47.9756 3.12994C47.9512 3.13007 47.9268 3.12958 47.9028 3.1286C47.8789 3.12994 47.8545 3.1308 47.8301 3.13104C47.7817 3.13159 47.7334 3.13232 47.6855 3.13324C47.6611 3.13367 47.6372 3.13354 47.6133 3.13293C47.5889 3.13464 47.5649 3.1358 47.541 3.13641C47.4927 3.1377 47.4443 3.1391 47.3965 3.14075C47.3721 3.14154 47.3481 3.14178 47.3242 3.14154C47.3008 3.14355 47.2764 3.14508 47.2524 3.14612C47.2046 3.14807 47.1567 3.15021 47.1089 3.15253C47.0845 3.15369 47.0601 3.1543 47.0361 3.15436C47.0122 3.1568 46.9878 3.15869 46.9639 3.1601C46.9155 3.16278 46.8672 3.16565 46.8193 3.1687C46.7949 3.17023 46.771 3.1712 46.7466 3.17163C46.7231 3.17444 46.6987 3.1767 46.6748 3.17841C46.6265 3.18182 46.5786 3.18542 46.5308 3.18915C46.5068 3.19104 46.4824 3.19238 46.4585 3.19318C46.4351 3.19635 46.4111 3.19891 46.3872 3.20099C46.3394 3.20514 46.2915 3.20941 46.2437 3.21387C46.2197 3.21613 46.1953 3.21783 46.1714 3.21899C46.1479 3.22247 46.124 3.22546 46.0996 3.22791C46.0518 3.23273 46.0039 3.23779 45.9556 3.24304C45.9316 3.24567 45.9077 3.24768 45.8838 3.24921C45.8599 3.25305 45.8359 3.25641 45.812 3.25922C45.7642 3.26477 45.7163 3.27057 45.6685 3.27649C45.6445 3.27948 45.6206 3.28186 45.5967 3.28375C45.5732 3.28796 45.5493 3.29163 45.5254 3.2948C45.478 3.30109 45.4302 3.3075 45.3828 3.31415C45.3589 3.3175 45.335 3.32025 45.311 3.32251C45.2876 3.32703 45.2642 3.33105 45.2402 3.33459C45.1924 3.34161 45.1445 3.34882 45.0972 3.3562C45.0732 3.35992 45.0493 3.3631 45.0254 3.36566C45.002 3.37061 44.978 3.375 44.9541 3.37891C44.9067 3.38666 44.8589 3.39459 44.8115 3.40265C44.7881 3.40674 44.7642 3.41022 44.7402 3.41315C44.7168 3.41846 44.6934 3.42322 44.6694 3.42743C44.6221 3.43591 44.5752 3.44452 44.5278 3.45331C44.5039 3.4577 44.4805 3.46155 44.457 3.46484C44.4336 3.47046 44.4102 3.47552 44.3867 3.48016C44.3394 3.48932 44.292 3.49872 44.2446 3.50824C44.2207 3.51306 44.1973 3.51727 44.1733 3.52094C44.1504 3.52692 44.1265 3.53241 44.103 3.53741C44.0557 3.5473 44.0088 3.55737 43.9619 3.56763C43.938 3.57275 43.9146 3.57733 43.8906 3.58136C43.8677 3.58771 43.8442 3.59357 43.8208 3.59888C43.7739 3.60944 43.7271 3.62024 43.6807 3.63116C43.6567 3.63666 43.6333 3.64154 43.6099 3.64594C43.5869 3.65259 43.564 3.65875 43.5405 3.66443C43.4937 3.67578 43.4468 3.68726 43.4004 3.69891C43.377 3.70477 43.353 3.71008 43.3296 3.71484C43.3066 3.72192 43.2837 3.72845 43.2603 3.7345C43.2134 3.74658 43.167 3.75879 43.1206 3.77118C43.0972 3.7774 43.0737 3.78302 43.0503 3.78815C43.0273 3.79553 43.0044 3.80243 42.981 3.80884C42.9346 3.82153 42.8887 3.83441 42.8423 3.84747C42.8188 3.85406 42.7959 3.86005 42.7725 3.86554C42.75 3.87323 42.7271 3.88043 42.7041 3.88721C42.6577 3.90063 42.6118 3.91418 42.5659 3.92798C42.5425 3.93494 42.519 3.94128 42.4961 3.94714C42.4731 3.9552 42.4507 3.96283 42.4272 3.96997C42.3813 3.98413 42.3354 3.99847 42.2896 4.01294C42.2666 4.02026 42.2432 4.02698 42.2202 4.03314C42.1978 4.04156 42.1748 4.0495 42.1519 4.05695C42.1064 4.07178 42.0605 4.08679 42.0151 4.10199C41.9922 4.10962 41.9692 4.11664 41.9463 4.12317C41.9243 4.1319 41.9014 4.1402 41.8789 4.14801C41.8335 4.16351 41.7881 4.1792 41.7427 4.19501C41.7197 4.20306 41.6968 4.21051 41.6738 4.21735C41.6519 4.2265 41.6294 4.23517 41.6064 4.24335C41.561 4.25958 41.5156 4.276 41.4707 4.2926C41.4478 4.30096 41.4253 4.30872 41.4023 4.31598C41.3804 4.32538 41.3579 4.33435 41.3354 4.3429C41.2905 4.3598 41.2456 4.37689 41.2007 4.39417C41.1782 4.40283 41.1558 4.41095 41.1328 4.41846C41.1113 4.42822 41.0889 4.43756 41.0664 4.44641C41.022 4.46399 40.9775 4.48169 40.9331 4.49963C40.9106 4.50867 40.8877 4.51715 40.8652 4.52509C40.8438 4.53522 40.8213 4.54486 40.7988 4.55408C40.7544 4.57245 40.71 4.59094 40.6655 4.60956C40.6436 4.61896 40.6211 4.62775 40.5986 4.63605C40.5771 4.64648 40.5552 4.65649 40.5332 4.66602C40.4888 4.685 40.4448 4.70416 40.4009 4.72345C40.3789 4.73315 40.3564 4.74231 40.334 4.75092C40.313 4.76166 40.291 4.77197 40.269 4.7818C40.2256 4.80145 40.1816 4.82123 40.1382 4.84113C40.1162 4.8512 40.0938 4.86072 40.0718 4.86969C40.0508 4.8808 40.0288 4.89148 40.0068 4.90173C39.9634 4.92206 39.9199 4.94263 39.8765 4.96326C39.8545 4.97369 39.8325 4.98352 39.8105 4.9928C39.7896 5.00421 39.7681 5.01526 39.7466 5.02582C39.7031 5.04681 39.6602 5.06793 39.6172 5.08923C39.5957 5.09998 39.5737 5.11011 39.5518 5.11975C39.5312 5.13147 39.5098 5.14276 39.4883 5.15363Q39.4243 5.1861 39.3604 5.21899C39.3389 5.23004 39.3169 5.2406 39.2954 5.25055C39.2744 5.26263 39.2534 5.27429 39.2319 5.28552C39.1895 5.30786 39.147 5.33038 39.1045 5.35303C39.083 5.36444 39.062 5.37524 39.04 5.38556C39.0195 5.39795 38.999 5.40991 38.9775 5.42151C38.9355 5.44446 38.8936 5.46759 38.8516 5.49084C38.8301 5.50256 38.8091 5.51373 38.7876 5.52435C38.7676 5.53699 38.7466 5.54926 38.7256 5.56116C38.6841 5.58472 38.6421 5.60846 38.6006 5.63239C38.5796 5.64441 38.5586 5.65588 38.5376 5.66687C38.5171 5.67987 38.4971 5.6925 38.4761 5.70471C38.4346 5.729 38.3931 5.75348 38.3516 5.77808C38.3311 5.79041 38.3101 5.80225 38.2891 5.81354C38.269 5.82684 38.249 5.83978 38.228 5.85229C38.187 5.8772 38.146 5.90228 38.1055 5.92749C38.085 5.94012 38.064 5.95227 38.0435 5.96387C38.0234 5.97748 38.0034 5.99066 37.9829 6.00354C37.9424 6.02899 37.9019 6.05463 37.8618 6.08044C37.8413 6.09344 37.8208 6.1059 37.7998 6.11786C37.7808 6.13177 37.7607 6.14532 37.7402 6.15851C37.7002 6.18469 37.6597 6.21106 37.6196 6.23755C37.5996 6.25085 37.5791 6.26361 37.5586 6.27588C37.5396 6.2901 37.52 6.30396 37.5 6.31744C37.46 6.34424 37.4204 6.37115 37.3809 6.39819C37.3608 6.4118 37.3408 6.42493 37.3203 6.43744C37.3013 6.45197 37.2822 6.46613 37.2622 6.47986C37.2227 6.5072 37.1836 6.53473 37.1445 6.56238C37.1245 6.57629 37.105 6.58972 37.0845 6.6026C37.0659 6.61743 37.0469 6.6319 37.0269 6.646C36.9883 6.67401 36.9492 6.70221 36.9102 6.73053C36.8911 6.74475 36.8711 6.75848 36.8511 6.77167C36.8325 6.7868 36.814 6.80151 36.7944 6.81592C36.7559 6.84454 36.7173 6.87329 36.6792 6.90216C36.6602 6.91669 36.6406 6.93066 36.6206 6.94421C36.6025 6.95953 36.584 6.97461 36.5645 6.98926C36.5269 7.01843 36.4888 7.04773 36.4512 7.07721C36.4321 7.09204 36.4126 7.10632 36.3931 7.12018C36.375 7.13586 36.3564 7.15118 36.3379 7.16614C36.3003 7.19598 36.2627 7.22595 36.2251 7.25604C36.2065 7.27118 36.1875 7.28583 36.168 7.29993C36.1504 7.31586 36.1323 7.33148 36.1133 7.34674C36.0762 7.37714 36.0396 7.40765 36.0024 7.43829C35.9839 7.45374 35.9653 7.46863 35.9463 7.48303C35.9287 7.49921 35.9106 7.51514 35.8921 7.53064C35.8555 7.56158 35.8193 7.59265 35.7827 7.62384C35.7646 7.63953 35.7461 7.65479 35.7271 7.66949C35.71 7.68597 35.6924 7.70215 35.6738 7.71802C35.6377 7.74957 35.6021 7.78125 35.5659 7.81305C35.5479 7.82904 35.5298 7.84454 35.5112 7.85956C35.4941 7.87634 35.4766 7.89276 35.4585 7.90894C35.4229 7.94098 35.3877 7.97321 35.3521 8.00555C35.3345 8.02185 35.3164 8.0376 35.2983 8.05286C35.2812 8.06989 35.2642 8.08661 35.2466 8.10303C35.2114 8.13562 35.1768 8.16833 35.1421 8.20123C35.1245 8.21777 35.1064 8.23383 35.0884 8.24945C35.0723 8.26672 35.0552 8.28375 35.0376 8.30042C35.0029 8.33362 34.9688 8.367 34.9346 8.40045C34.917 8.4173 34.8994 8.43359 34.8818 8.44946C34.8657 8.46704 34.8491 8.48425 34.832 8.50122C34.7979 8.53497 34.7642 8.56885 34.7305 8.60278C34.7134 8.61987 34.6958 8.63647 34.6787 8.65265C34.6626 8.67041 34.6465 8.68793 34.6294 8.70514C34.5962 8.73932 34.563 8.77368 34.5298 8.80817C34.5127 8.82556 34.4961 8.84247 34.4785 8.85889C34.4629 8.87689 34.4468 8.89471 34.4302 8.91217C34.3975 8.94702 34.3647 8.98193 34.332 9.01697C34.3154 9.03461 34.2988 9.05176 34.2817 9.06848C34.2666 9.08673 34.251 9.10474 34.2349 9.1225C34.2021 9.15784 34.1699 9.19324 34.1382 9.22876C34.1221 9.24664 34.1055 9.26404 34.0889 9.28101C34.0737 9.2995 34.0586 9.31775 34.0425 9.33575C34.0107 9.37152 33.979 9.40747 33.9478 9.44348C33.9321 9.46161 33.9155 9.47931 33.8994 9.49652C33.8848 9.51526 33.8696 9.53381 33.854 9.55206C33.8228 9.58838 33.7915 9.62488 33.7607 9.66144C33.7451 9.67981 33.7295 9.69769 33.7134 9.71521C33.6987 9.73419 33.6841 9.75293 33.6685 9.77142C33.6382 9.80823 33.6074 9.84515 33.5776 9.8822C33.562 9.90082 33.5469 9.91895 33.5308 9.93671C33.5166 9.95593 33.5024 9.97491 33.4873 9.99365C33.457 10.0309 33.4277 10.0682 33.3979 10.1058C33.3828 10.1246 33.3677 10.1431 33.3521 10.1611C33.3384 10.1805 33.3242 10.1997 33.3096 10.2188C33.2803 10.2565 33.251 10.2944 33.2222 10.3323C33.2075 10.3514 33.1924 10.3701 33.1772 10.3884C33.1636 10.408 33.1499 10.4275 33.1353 10.4467C33.1069 10.4849 33.0781 10.5233 33.0498 10.5616C33.0356 10.581 33.021 10.5999 33.0059 10.6183C32.9932 10.6382 32.9795 10.6579 32.9653 10.6773C32.937 10.716 32.9092 10.7548 32.8818 10.7936C32.8677 10.8132 32.8535 10.8323 32.8389 10.8511C32.8262 10.8712 32.813 10.891 32.7988 10.9107C32.7715 10.9498 32.7441 10.9891 32.7173 11.0284C32.7036 11.0482 32.6899 11.0676 32.6753 11.0865C32.6631 11.1068 32.6499 11.1269 32.6367 11.1467C32.6099 11.1863 32.5835 11.226 32.5571 11.2657C32.5435 11.2857 32.5303 11.3053 32.5161 11.3245C32.5039 11.345 32.4912 11.3652 32.4785 11.3854C32.4521 11.4254 32.4263 11.4654 32.4009 11.5056C32.3877 11.5258 32.3745 11.5456 32.3608 11.565C32.3491 11.5857 32.3369 11.6062 32.3242 11.6265C32.2988 11.6669 32.2734 11.7074 32.2485 11.748C32.2358 11.7684 32.2227 11.7885 32.2095 11.8081C32.1982 11.8289 32.186 11.8496 32.1738 11.8701C32.1489 11.9109 32.1245 11.9518 32.1001 11.9929C32.0879 12.0135 32.0752 12.0337 32.0625 12.0535C32.0513 12.0746 32.04 12.0955 32.0278 12.1161C32.0039 12.1573 31.98 12.1987 31.9565 12.2401C31.9443 12.2609 31.9321 12.2813 31.9194 12.3013C31.9087 12.3226 31.8975 12.3436 31.8857 12.3645C31.8628 12.4061 31.8394 12.4478 31.8169 12.4896C31.8052 12.5106 31.793 12.5312 31.7808 12.5515C31.7705 12.5728 31.7598 12.5941 31.7485 12.6152C31.7261 12.6572 31.7036 12.6992 31.6812 12.7414C31.6699 12.7626 31.6587 12.7834 31.6465 12.8038C31.6367 12.8254 31.626 12.8468 31.6152 12.8681C31.5933 12.9105 31.5718 12.9528 31.5503 12.9954C31.5396 13.0167 31.5283 13.0377 31.5166 13.0583C31.5068 13.0801 31.4971 13.1016 31.4863 13.1231C31.4653 13.1658 31.4443 13.2085 31.4233 13.2513C31.4131 13.2729 31.4023 13.2941 31.3911 13.3149C31.3818 13.3368 31.3721 13.3586 31.3618 13.3802C31.3413 13.4232 31.3213 13.4663 31.3013 13.5095C31.291 13.5312 31.2808 13.5527 31.27 13.5737C31.2612 13.5957 31.2515 13.6176 31.2417 13.6394C31.2222 13.6827 31.2026 13.7262 31.1836 13.7697C31.1738 13.7916 31.1636 13.8131 31.1533 13.8343C31.145 13.8564 31.1357 13.8785 31.1265 13.9004C31.1074 13.9441 31.0889 13.9878 31.0703 14.0316C31.061 14.0536 31.0513 14.0754 31.041 14.0967C31.0332 14.119 31.0244 14.1412 31.0156 14.1633C30.9976 14.2073 30.9795 14.2514 30.9619 14.2956C30.9526 14.3177 30.9434 14.3397 30.9336 14.3612C30.9258 14.3837 30.918 14.406 30.9092 14.4283C30.8916 14.4725 30.8745 14.5168 30.8574 14.5613C30.8491 14.5836 30.8403 14.6056 30.8306 14.6273C30.8232 14.6498 30.8159 14.6722 30.8076 14.6946C30.791 14.7391 30.7744 14.7838 30.7583 14.8284C30.75 14.851 30.7417 14.8731 30.7324 14.895C30.7256 14.9176 30.7183 14.9402 30.7104 14.9628C30.6943 15.0076 30.6792 15.0526 30.6636 15.0975C30.6558 15.1202 30.6475 15.1425 30.6392 15.1646C30.6323 15.1873 30.6255 15.2101 30.6182 15.2328C30.603 15.2778 30.5884 15.3229 30.5737 15.3681C30.5664 15.3908 30.5586 15.4133 30.5503 15.4354C30.5439 15.4582 30.5376 15.481 30.5303 15.5038C30.5161 15.5491 30.5024 15.5945 30.4883 15.6399C30.4814 15.6628 30.4741 15.6854 30.4663 15.7076C30.4604 15.7306 30.4546 15.7535 30.4478 15.7765C30.4341 15.8221 30.4209 15.8677 30.4082 15.9135C30.4014 15.9365 30.3945 15.9592 30.3867 15.9817C30.3818 16.0048 30.376 16.0278 30.3696 16.0509Q30.3506 16.1194 30.3325 16.1882C30.3262 16.2113 30.3198 16.2341 30.3125 16.2566C30.3076 16.2797 30.3022 16.3028 30.2964 16.3259C30.2847 16.3718 30.2729 16.4178 30.2617 16.4639C30.2559 16.4871 30.25 16.5101 30.2432 16.5327C30.2388 16.556 30.2339 16.5792 30.228 16.6024C30.2173 16.6486 30.2065 16.6949 30.1958 16.7413C30.1904 16.7646 30.1846 16.7877 30.1782 16.8105C30.1743 16.8339 30.1699 16.8572 30.1646 16.8806C30.1548 16.9268 30.1445 16.9732 30.1348 17.0196C30.1299 17.0429 30.1245 17.066 30.1187 17.0888C30.1152 17.1121 30.1108 17.1355 30.1064 17.1589C30.0972 17.2053 30.0879 17.2519 30.0791 17.2985C30.0742 17.322 30.0693 17.3452 30.064 17.3682C30.0605 17.3916 30.0571 17.415 30.0527 17.4385C30.0444 17.4853 30.0361 17.532 30.0278 17.5789C30.0239 17.6025 30.019 17.6259 30.0142 17.649C30.0112 17.6725 30.0078 17.6961 30.0039 17.7197C29.9966 17.7664 29.9888 17.8132 29.9814 17.86C29.978 17.8836 29.9736 17.9069 29.9692 17.93C29.9668 17.9535 29.9639 17.977 29.9604 18.0005C29.9536 18.0475 29.9468 18.0944 29.9404 18.1414C29.9395 18.1491 29.9385 18.1567 29.937 18.1644C32.7783 14.416 37.9146 10.9455 47.0049 10.4845L47.0049 10.4327C47.3579 10.4327 47.7056 10.437 48.0479 10.4454C48.3906 10.437 48.7383 10.4327 49.0913 10.4327L49.0913 10.4845C58.1816 10.9455 63.3179 14.416 66.1592 18.1644C66.1577 18.1567 66.1567 18.1491 66.1558 18.1415C66.1494 18.0944 66.1426 18.0475 66.1357 18.0006C66.1323 17.977 66.1294 17.9535 66.127 17.9301C66.1226 17.9069 66.1182 17.8836 66.1147 17.86C66.1113 17.8381 66.1079 17.8161 66.104 17.7941C66.1001 17.7693 66.0962 17.7445 66.0923 17.7197C66.0884 17.6961 66.085 17.6725 66.082 17.649C66.0771 17.6259 66.0723 17.6025 66.0684 17.579C66.0601 17.5321 66.0518 17.4853 66.0435 17.4385C66.0391 17.415 66.0356 17.3916 66.0322 17.3682C66.0269 17.3452 66.022 17.322 66.0171 17.2985C66.0083 17.2519 65.999 17.2053 65.9897 17.1589C65.9854 17.1355 65.981 17.1122 65.9775 17.0889C65.9717 17.066 65.9663 17.0429 65.9614 17.0196C65.9517 16.9732 65.9414 16.9269 65.9316 16.8806C65.9263 16.8572 65.9219 16.8339 65.918 16.8105C65.9116 16.7877 65.9058 16.7646 65.9004 16.7413C65.8896 16.6949 65.8789 16.6487 65.8682 16.6024C65.8623 16.5792 65.8574 16.556 65.853 16.5328C65.8462 16.5101 65.8403 16.4871 65.8345 16.464C65.8232 16.4178 65.8115 16.3718 65.7998 16.3259C65.7939 16.3028 65.7886 16.2797 65.7837 16.2566C65.7764 16.2341 65.77 16.2113 65.7637 16.1882C65.7515 16.1424 65.7393 16.0966 65.7266 16.0509C65.7202 16.0278 65.7144 16.0048 65.7095 15.9817C65.7017 15.9592 65.6948 15.9365 65.688 15.9135C65.6753 15.8677 65.6621 15.8221 65.6484 15.7765C65.6416 15.7535 65.6357 15.7306 65.6299 15.7076C65.6221 15.6854 65.6147 15.6628 65.6079 15.6399C65.5938 15.5945 65.5801 15.5491 65.5659 15.5038C65.5586 15.481 65.5522 15.4582 65.5459 15.4354C65.5376 15.4132 65.5298 15.3908 65.5225 15.3681C65.5078 15.3229 65.4932 15.2778 65.478 15.2328C65.4707 15.2101 65.4639 15.1873 65.457 15.1646C65.4487 15.1425 65.4404 15.1202 65.4326 15.0975C65.4233 15.0704 65.4141 15.0433 65.4048 15.0162C65.3984 14.9984 65.3921 14.9806 65.3857 14.9628C65.3779 14.9402 65.3706 14.9176 65.3638 14.895C65.3545 14.8731 65.3462 14.851 65.3379 14.8285Q65.3135 14.7614 65.2891 14.6946C65.2803 14.6722 65.2729 14.6498 65.2656 14.6273C65.2559 14.6056 65.2471 14.5836 65.2388 14.5613C65.2217 14.5169 65.2046 14.4725 65.187 14.4283C65.1782 14.406 65.1704 14.3837 65.1626 14.3612C65.1528 14.3397 65.1436 14.3178 65.1348 14.2956C65.1167 14.2514 65.0986 14.2073 65.0806 14.1633C65.0718 14.1412 65.063 14.119 65.0552 14.0967C65.0449 14.0754 65.0352 14.0536 65.0259 14.0316C65.0073 13.9878 64.9888 13.9441 64.9697 13.9004C64.9604 13.8785 64.9512 13.8564 64.9429 13.8343C64.9385 13.8248 64.9336 13.8153 64.9292 13.8057C64.9233 13.7938 64.918 13.7818 64.9126 13.7697C64.8936 13.7262 64.874 13.6828 64.8545 13.6395C64.8447 13.6176 64.835 13.5957 64.8262 13.5737C64.8154 13.5527 64.8052 13.5313 64.7949 13.5096C64.7749 13.4664 64.7549 13.4232 64.7344 13.3802C64.7241 13.3586 64.7144 13.3368 64.7051 13.3149C64.6938 13.2941 64.6831 13.2729 64.6729 13.2514C64.6519 13.2085 64.6309 13.1658 64.6099 13.1231C64.5991 13.1016 64.5894 13.0801 64.5796 13.0583C64.5679 13.0377 64.5566 13.0167 64.5459 12.9954C64.5244 12.9529 64.5029 12.9105 64.481 12.8681C64.4775 12.8614 64.4741 12.8546 64.4707 12.8478C64.4634 12.8333 64.4565 12.8185 64.4497 12.8038C64.4375 12.7834 64.4263 12.7626 64.415 12.7414C64.3926 12.6992 64.3701 12.6572 64.3477 12.6152C64.3364 12.5941 64.3257 12.5728 64.3154 12.5515C64.3032 12.5312 64.291 12.5106 64.2793 12.4896C64.2686 12.47 64.2578 12.4504 64.2471 12.431C64.2349 12.4088 64.2227 12.3867 64.2104 12.3645C64.1987 12.3436 64.1875 12.3226 64.1768 12.3014C64.1641 12.2813 64.1519 12.2609 64.1396 12.2401C64.1162 12.1987 64.0923 12.1573 64.0684 12.1161C64.0562 12.0955 64.0449 12.0746 64.0337 12.0535C64.021 12.0337 64.0083 12.0135 63.9961 11.9929C63.9717 11.9518 63.9473 11.9109 63.9224 11.8701C63.9102 11.8496 63.8979 11.8289 63.8867 11.8081C63.8735 11.7885 63.8604 11.7684 63.8477 11.748C63.8228 11.7074 63.7974 11.6669 63.772 11.6265C63.7593 11.6062 63.7471 11.5857 63.7354 11.5651C63.7217 11.5456 63.7085 11.5258 63.6953 11.5056C63.6699 11.4654 63.644 11.4254 63.6177 11.3854C63.605 11.3652 63.5923 11.345 63.5801 11.3245C63.5659 11.3053 63.5527 11.2857 63.5391 11.2657C63.5127 11.226 63.4863 11.1863 63.4595 11.1467C63.4463 11.1268 63.4331 11.1068 63.4209 11.0865C63.4062 11.0675 63.3926 11.0482 63.3789 11.0284C63.3521 10.9891 63.3247 10.9498 63.2974 10.9107C63.2832 10.891 63.27 10.8712 63.2573 10.8511C63.2427 10.8323 63.2285 10.8132 63.2144 10.7936C63.187 10.7548 63.1592 10.7159 63.1309 10.6773C63.1167 10.6579 63.103 10.6382 63.0903 10.6183C63.0752 10.5999 63.0605 10.581 63.0464 10.5616C63.0181 10.5232 62.9893 10.4849 62.9609 10.4467C62.9463 10.4274 62.9326 10.408 62.9189 10.3884C62.9038 10.3701 62.8887 10.3514 62.874 10.3323C62.8452 10.2944 62.8159 10.2565 62.7866 10.2187C62.772 10.1997 62.7578 10.1805 62.7441 10.1611C62.7285 10.1431 62.7134 10.1246 62.6982 10.1058C62.6689 10.0682 62.6392 10.0309 62.6089 9.99359C62.5938 9.97485 62.5796 9.95587 62.5654 9.93671C62.5493 9.91895 62.5342 9.90082 62.5186 9.8822C62.4888 9.84515 62.458 9.80823 62.4277 9.77142C62.4121 9.75293 62.3975 9.73419 62.3828 9.71521C62.3667 9.69769 62.3511 9.67981 62.3354 9.66138C62.3047 9.62482 62.2734 9.58838 62.2422 9.55206C62.2266 9.53381 62.2114 9.51526 62.1968 9.49652C62.1807 9.47925 62.1641 9.46161 62.1484 9.44342C62.1172 9.40741 62.0854 9.37152 62.0537 9.33575C62.0376 9.31775 62.0225 9.2995 62.0073 9.28094C61.9907 9.26404 61.9741 9.24664 61.958 9.22876C61.9263 9.19324 61.894 9.15778 61.8613 9.1225C61.8452 9.10474 61.8296 9.08673 61.8145 9.06842C61.7974 9.05176 61.7803 9.03461 61.7642 9.01697C61.7314 8.98193 61.6987 8.94696 61.666 8.91217C61.6494 8.89465 61.6333 8.87689 61.6177 8.85883C61.6001 8.84241 61.5835 8.82556 61.5664 8.80817C61.5332 8.77368 61.5 8.73932 61.4668 8.70508C61.4497 8.68787 61.4336 8.67035 61.4175 8.65259C61.3999 8.63647 61.3828 8.61987 61.3657 8.60278C61.332 8.56879 61.2983 8.53497 61.2642 8.50122C61.2471 8.48425 61.2305 8.46698 61.2144 8.44946C61.1968 8.43359 61.1792 8.41724 61.1616 8.40045C61.1274 8.36694 61.0933 8.33362 61.0586 8.30042C61.041 8.28369 61.0239 8.26672 61.0078 8.24945C60.9897 8.23383 60.9717 8.21777 60.9541 8.20117C60.9194 8.16833 60.8848 8.13562 60.8496 8.10297C60.832 8.08661 60.8149 8.06989 60.7979 8.05286C60.7798 8.0376 60.7617 8.02179 60.7441 8.00555C60.7085 7.97321 60.6729 7.94098 60.6377 7.90887C60.6196 7.89276 60.6021 7.87628 60.585 7.85956C60.5664 7.84454 60.5483 7.82904 60.5303 7.81305C60.4941 7.78125 60.4585 7.74957 60.4224 7.71802C60.4038 7.70215 60.3862 7.68597 60.3691 7.66943C60.3501 7.65472 60.3315 7.63953 60.3135 7.62384C60.2769 7.59265 60.2407 7.56158 60.2041 7.53064C60.1855 7.51508 60.1675 7.49921 60.1499 7.48297C60.1309 7.46857 60.1123 7.45367 60.0938 7.43829C60.0566 7.40765 60.02 7.37714 59.9829 7.34674C59.9639 7.33148 59.9458 7.31586 59.9282 7.29993C59.9087 7.28577 59.8896 7.27118 59.8711 7.25604C59.8335 7.22595 59.7959 7.19598 59.7583 7.16614C59.7397 7.15118 59.7212 7.1358 59.7031 7.12018C59.6836 7.10632 59.6641 7.09198 59.645 7.07715C59.6074 7.04773 59.5693 7.01843 59.5317 6.98926C59.5122 6.97455 59.4937 6.95953 59.4756 6.94415C59.4556 6.93066 59.436 6.91669 59.417 6.90216C59.3789 6.87323 59.3403 6.84448 59.3018 6.81592C59.2822 6.80151 59.2637 6.78674 59.2451 6.77167C59.2251 6.75848 59.2051 6.74475 59.186 6.73053C59.147 6.70221 59.1079 6.67401 59.0693 6.646C59.0493 6.6319 59.0303 6.61743 59.0117 6.6026C58.9912 6.58972 58.9717 6.57629 58.9517 6.56238C58.9126 6.53473 58.8735 6.5072 58.834 6.47986C58.814 6.46606 58.7949 6.45197 58.7759 6.43744C58.7554 6.42487 58.7354 6.4118 58.7153 6.39819C58.6758 6.37115 58.6362 6.34418 58.5962 6.31744C58.5762 6.30396 58.5566 6.2901 58.5376 6.27588C58.5171 6.26361 58.4966 6.25085 58.4766 6.23755C58.4365 6.21106 58.396 6.18469 58.356 6.15851C58.3354 6.14532 58.3154 6.13177 58.2964 6.11786C58.2754 6.1059 58.2549 6.09344 58.2344 6.08044C58.1943 6.05463 58.1538 6.02899 58.1133 6.00348C58.0928 5.99066 58.0728 5.97748 58.0527 5.96387C58.0322 5.95227 58.0112 5.94012 57.9907 5.92743C57.9502 5.90228 57.9092 5.8772 57.8682 5.85229C57.8472 5.83978 57.8271 5.82684 57.8071 5.81354C57.7861 5.80225 57.7651 5.79041 57.7446 5.77808C57.7031 5.75348 57.6616 5.729 57.6201 5.70471C57.5991 5.6925 57.5791 5.67987 57.5586 5.66687C57.5376 5.65588 57.5166 5.64441 57.4956 5.63239C57.4541 5.60846 57.4121 5.58472 57.3706 5.56116C57.3496 5.54926 57.3286 5.53699 57.3086 5.52435C57.2871 5.51373 57.2661 5.50256 57.2446 5.49084Q57.1816 5.45593 57.1187 5.42151C57.0972 5.40991 57.0767 5.39795 57.0562 5.38556C57.0342 5.37524 57.0132 5.36444 56.9917 5.35303C56.9492 5.33038 56.9067 5.30786 56.8643 5.28552C56.8428 5.27429 56.8218 5.26263 56.8008 5.25055C56.7793 5.2406 56.7573 5.23004 56.7358 5.21899C56.6934 5.19708 56.6509 5.17529 56.6079 5.15363C56.5864 5.14276 56.5649 5.13147 56.5444 5.11975C56.5225 5.11011 56.5005 5.09998 56.479 5.08923C56.436 5.06793 56.3931 5.04681 56.3496 5.02582C56.3281 5.01526 56.3066 5.00421 56.2856 4.9928C56.2637 4.98352 56.2417 4.97369 56.2197 4.96326C56.1763 4.94263 56.1328 4.92206 56.0894 4.90173C56.0674 4.89148 56.0459 4.8808 56.0244 4.86969C56.0024 4.86072 55.98 4.8512 55.958 4.84119C55.9146 4.82123 55.8706 4.80145 55.8271 4.7818C55.8052 4.77197 55.7832 4.76166 55.7622 4.75092C55.7397 4.74231 55.7173 4.73315 55.6953 4.72345C55.6514 4.70416 55.6074 4.685 55.563 4.66602C55.541 4.65649 55.519 4.64648 55.4976 4.63605C55.4751 4.62775 55.4526 4.61896 55.4307 4.60956Q55.3638 4.5816 55.2974 4.55408C55.2749 4.54486 55.2529 4.53522 55.231 4.52509C55.2085 4.51715 55.1855 4.50867 55.1631 4.49963C55.1187 4.48169 55.0742 4.46399 55.0298 4.44641C55.0073 4.43756 54.9849 4.42822 54.9634 4.41852C54.9404 4.41095 54.918 4.40283 54.8955 4.39417C54.8506 4.37689 54.8057 4.3598 54.7607 4.3429C54.7383 4.33435 54.7158 4.32538 54.6938 4.31598C54.6709 4.30872 54.6484 4.30096 54.6255 4.2926C54.5806 4.276 54.5352 4.25958 54.4897 4.24335C54.4668 4.23517 54.4443 4.2265 54.4224 4.21735C54.3994 4.21051 54.3765 4.20306 54.3535 4.19507C54.3081 4.1792 54.2632 4.16351 54.2173 4.14801C54.1948 4.1402 54.1724 4.1319 54.1499 4.12317C54.127 4.11664 54.104 4.10962 54.0811 4.10199C54.0356 4.08679 53.9897 4.07178 53.9443 4.05695C53.9214 4.0495 53.8984 4.04156 53.876 4.03314C53.853 4.02698 53.8296 4.02026 53.8066 4.01294C53.7607 3.99847 53.7148 3.98413 53.6689 3.96997C53.6455 3.96283 53.623 3.9552 53.6001 3.94714C53.5771 3.94128 53.5537 3.93494 53.5308 3.92798C53.4844 3.91425 53.4385 3.90063 53.3921 3.88721C53.3691 3.88043 53.3462 3.87323 53.3237 3.86554C53.3003 3.86005 53.2773 3.85406 53.2539 3.84747C53.2075 3.83441 53.1616 3.82153 53.1152 3.80884C53.0918 3.80243 53.0688 3.79553 53.0459 3.78815C53.0225 3.78302 52.999 3.7774 52.9761 3.77118C52.9292 3.75879 52.8828 3.74658 52.8359 3.73456C52.8125 3.72845 52.7896 3.72192 52.7666 3.71484C52.7432 3.71008 52.7192 3.70477 52.6958 3.69891C52.6494 3.68726 52.6025 3.67578 52.5557 3.66443C52.5322 3.65875 52.5093 3.65259 52.4863 3.64594C52.4629 3.64154 52.4395 3.63666 52.416 3.63116C52.3691 3.62024 52.3223 3.60944 52.2754 3.59888C52.252 3.59357 52.2285 3.58771 52.2056 3.58136C52.1816 3.57733 52.1582 3.57275 52.1343 3.56763C52.0874 3.55737 52.0405 3.5473 51.9932 3.53741C51.9697 3.53241 51.9463 3.52692 51.9229 3.52094C51.8989 3.51727 51.8755 3.51306 51.8516 3.50824C51.8042 3.49872 51.7568 3.48932 51.7095 3.48016C51.686 3.47559 51.6626 3.47046 51.6392 3.46484C51.6157 3.46155 51.5923 3.4577 51.5684 3.45331C51.521 3.44452 51.4741 3.43591 51.4268 3.42743C51.4028 3.42322 51.3794 3.41846 51.356 3.41321C51.332 3.41022 51.3086 3.40674 51.2847 3.40265C51.2373 3.39459 51.1895 3.38666 51.1421 3.37891C51.1182 3.375 51.0942 3.37061 51.0708 3.36566C51.0469 3.3631 51.0229 3.35992 50.999 3.3562C50.9517 3.34882 50.9038 3.34161 50.856 3.33459C50.832 3.33105 50.8086 3.32703 50.7852 3.32251C50.7612 3.32025 50.7373 3.3175 50.7134 3.31415C50.666 3.3075 50.6182 3.30109 50.5708 3.2948C50.5469 3.29163 50.5229 3.28796 50.4995 3.28375C50.4756 3.28186 50.4517 3.27948 50.4277 3.27649C50.3799 3.27057 50.332 3.26477 50.2842 3.25922C50.2603 3.25641 50.2363 3.25305 50.2124 3.24921C50.1885 3.24774 50.1646 3.24567 50.1406 3.24304C50.0923 3.23779 50.0444 3.23279 49.9966 3.22791C49.9722 3.22546 49.9482 3.22247 49.9248 3.21899C49.9009 3.21783 49.8765 3.21613 49.8525 3.21387C49.8047 3.20941 49.7568 3.20514 49.709 3.20099C49.6851 3.19891 49.6611 3.19635 49.6377 3.19318C49.6138 3.19238 49.5894 3.19104 49.5654 3.18915C49.5176 3.18542 49.4697 3.18182 49.4214 3.17841C49.3975 3.1767 49.373 3.17444 49.3496 3.17163C49.3252 3.1712 49.3013 3.17023 49.2773 3.1687C49.229 3.16565 49.1807 3.16278 49.1323 3.1601C49.1084 3.15869 49.084 3.1568 49.0601 3.15436C49.0361 3.1543 49.0117 3.15369 48.9873 3.15253Q48.9155 3.14905 48.8438 3.14612C48.8198 3.14508 48.7959 3.14355 48.772 3.14154C48.748 3.14178 48.7241 3.14154 48.6997 3.14075C48.6519 3.1391 48.6035 3.1377 48.5557 3.13641C48.5312 3.1358 48.5073 3.13464 48.4834 3.13293C48.459 3.13354 48.4351 3.13367 48.4106 3.13324C48.3628 3.13232 48.3145 3.13159 48.2661 3.13104C48.2417 3.1308 48.2173 3.12994 48.1934 3.1286C48.1694 3.12958 48.145 3.13007 48.1206 3.13C48.0967 3.12988 48.0723 3.12982 48.0479 3.12982ZM71.6938 16.0483C70.979 16.7502 70.127 17.2736 69.2344 17.559L69.2329 17.5483C69.2285 17.5201 69.2236 17.4922 69.2183 17.4646C69.2153 17.4366 69.2119 17.4086 69.2075 17.3805C69.1987 17.3245 69.1899 17.2687 69.1807 17.2129C69.1763 17.1847 69.1709 17.1567 69.1646 17.1292C69.1611 17.1011 69.1572 17.0729 69.1523 17.0448C69.1504 17.0344 69.1489 17.0239 69.147 17.0135C69.1445 17.0007 69.1426 16.9878 69.1401 16.975C69.1343 16.9423 69.1284 16.9097 69.1226 16.8771C69.1172 16.8491 69.1113 16.8213 69.105 16.7939C69.1011 16.7659 69.0967 16.7379 69.0913 16.7099C69.0806 16.6542 69.0698 16.5987 69.0586 16.5432C69.0527 16.5153 69.0469 16.4877 69.0396 16.4604C69.0352 16.4326 69.0303 16.4048 69.0244 16.3769C69.0127 16.3215 69.001 16.2662 68.9888 16.2109C68.9829 16.183 68.9761 16.1555 68.9683 16.1282C68.9634 16.1004 68.958 16.0726 68.9517 16.0447C68.939 15.9893 68.9263 15.9341 68.9131 15.8789C68.9062 15.8511 68.8994 15.8237 68.8911 15.7967C68.8857 15.769 68.8799 15.7413 68.873 15.7136C68.8594 15.6586 68.8457 15.6037 68.8315 15.5489C68.8247 15.5213 68.8169 15.4941 68.8081 15.4672C68.8027 15.4397 68.7959 15.4121 68.7886 15.3846C68.7739 15.3299 68.7593 15.2753 68.7446 15.2208C68.7368 15.1932 68.7285 15.1661 68.7197 15.1393C68.7134 15.1118 68.7065 15.0843 68.6987 15.0568C68.6831 15.0023 68.667 14.9478 68.6514 14.8934C68.6431 14.866 68.6343 14.8391 68.625 14.8125C68.6182 14.7852 68.6108 14.7578 68.6025 14.7305C68.5859 14.6763 68.5693 14.6223 68.5527 14.5682C68.5439 14.5411 68.5347 14.5143 68.5249 14.488C68.5176 14.4608 68.5098 14.4336 68.501 14.4065C68.4839 14.3526 68.4658 14.2988 68.4482 14.2452C68.439 14.2181 68.4297 14.1915 68.4194 14.1652C68.4116 14.1381 68.4028 14.111 68.394 14.084C68.3755 14.0304 68.3569 13.9769 68.3379 13.9235C68.3286 13.8965 68.3184 13.8701 68.3076 13.8441C68.2998 13.8171 68.2905 13.7902 68.2808 13.7634C68.2617 13.7102 68.2422 13.6571 68.2227 13.6041C68.2124 13.5774 68.2021 13.5511 68.1909 13.5253C68.1821 13.4985 68.1729 13.4719 68.1626 13.4453C68.1426 13.3924 68.1221 13.3397 68.1016 13.287C68.0913 13.2604 68.0801 13.2344 68.0684 13.2087C68.0591 13.1821 68.0493 13.1555 68.0391 13.129C68.0176 13.0765 67.9966 13.024 67.9746 12.9717C67.9639 12.9454 67.9526 12.9195 67.9404 12.894C67.9307 12.8676 67.9204 12.8412 67.9097 12.815C67.8877 12.7629 67.8652 12.7109 67.8428 12.659C67.8315 12.6329 67.8198 12.6072 67.8071 12.582C67.7974 12.5557 67.7866 12.5296 67.7749 12.5036C67.752 12.4518 67.729 12.4002 67.7056 12.3488C67.6938 12.3228 67.6816 12.2973 67.6685 12.2723C67.6582 12.2462 67.647 12.2202 67.6353 12.1944C67.6113 12.1431 67.5874 12.0918 67.563 12.0407C67.5508 12.015 67.5381 11.9897 67.5249 11.965C67.5137 11.9391 67.502 11.9133 67.4897 11.8877C67.4653 11.8369 67.4404 11.7861 67.415 11.7354C67.4028 11.7099 67.3896 11.6849 67.3755 11.6605C67.3643 11.6347 67.3521 11.6092 67.3394 11.5838C67.314 11.5333 67.2881 11.483 67.2622 11.4328C67.2495 11.4075 67.2358 11.3828 67.2217 11.3585C67.2095 11.3329 67.1973 11.3076 67.1841 11.2824C67.1577 11.2324 67.1309 11.1826 67.1045 11.1328C67.0908 11.1077 67.0767 11.0832 67.062 11.0592C67.0498 11.0339 67.0371 11.0088 67.0234 10.9839C66.9961 10.9343 66.9688 10.8849 66.9414 10.8356C66.9272 10.8109 66.9131 10.7866 66.8979 10.7629C66.8853 10.7377 66.8721 10.7128 66.8579 10.6882C66.8301 10.6391 66.8018 10.5902 66.7734 10.5414C66.7588 10.5168 66.7441 10.4928 66.7285 10.4694C66.7158 10.4445 66.7017 10.4198 66.6875 10.3954C66.6587 10.3468 66.6294 10.2984 66.6001 10.2501C66.5854 10.2258 66.5703 10.202 66.5547 10.1788C66.541 10.1541 66.5269 10.1297 66.5122 10.1055C66.4824 10.0575 66.4526 10.0096 66.4224 9.96179C66.4072 9.93774 66.3916 9.91418 66.3755 9.89124C66.3618 9.86682 66.3472 9.84271 66.332 9.81879C66.3013 9.77124 66.271 9.72382 66.2402 9.67657C66.2246 9.65277 66.2085 9.62958 66.1919 9.60693C66.1777 9.58276 66.1626 9.55884 66.147 9.53516C66.1157 9.48816 66.0845 9.44128 66.0527 9.39453C66.0371 9.37103 66.0205 9.34808 66.0039 9.32568C65.9893 9.30176 65.9736 9.27814 65.9575 9.2547C65.9258 9.20825 65.8936 9.16193 65.8613 9.11572C65.8447 9.09247 65.8281 9.06976 65.811 9.04767C65.7959 9.02399 65.7798 9.00061 65.7637 8.97748C65.731 8.93158 65.6978 8.8858 65.665 8.84015C65.6484 8.8172 65.6309 8.7948 65.6133 8.77301C65.5981 8.74963 65.582 8.7265 65.5649 8.70367C65.5317 8.65833 65.498 8.6131 65.4639 8.56805C65.4473 8.54535 65.4297 8.52325 65.4116 8.50177C65.396 8.47858 65.3794 8.45575 65.3618 8.43323C65.3276 8.38837 65.2935 8.34375 65.2588 8.29919C65.2417 8.27679 65.2236 8.255 65.2051 8.23376C65.189 8.21088 65.1724 8.18829 65.1548 8.16602C65.1196 8.12183 65.0845 8.07782 65.0493 8.03387C65.0317 8.01178 65.0132 7.9903 64.9946 7.96942C64.978 7.94684 64.9609 7.92456 64.9429 7.90259C64.9072 7.85901 64.8716 7.81549 64.8354 7.77216C64.8174 7.75037 64.7988 7.72919 64.7798 7.70862C64.7632 7.68628 64.7456 7.66425 64.7271 7.64258C64.6909 7.59955 64.6543 7.55664 64.6177 7.51392C64.5991 7.49237 64.5801 7.4715 64.561 7.45117C64.5435 7.42914 64.5259 7.40741 64.5068 7.38605C64.4702 7.34369 64.4331 7.30145 64.3955 7.25934C64.377 7.23816 64.3574 7.21759 64.3379 7.19763C64.3203 7.1759 64.3022 7.15454 64.2832 7.13348C64.2456 7.09167 64.2075 7.05005 64.1694 7.00854C64.1504 6.98761 64.1309 6.96735 64.1108 6.94775C64.0928 6.92627 64.0742 6.90515 64.0552 6.88446C64.0166 6.84326 63.978 6.80219 63.9395 6.76129C63.9199 6.74066 63.8999 6.72076 63.8799 6.70148C63.8613 6.6803 63.8423 6.65942 63.8228 6.63904C63.7837 6.59851 63.7446 6.55817 63.7056 6.51794C63.6958 6.50824 63.6865 6.49866 63.6768 6.48926C66.1348 4.73907 69.5996 4.98291 71.7754 7.19952C74.1841 9.65283 74.1475 13.6398 71.6938 16.0483ZM24.4165 7.3302C26.5532 5.1535 29.9331 4.87921 32.3813 6.52734C32.3452 6.56445 32.3091 6.60168 32.2734 6.63904C32.2539 6.65948 32.2349 6.6803 32.2163 6.70148C32.1963 6.72076 32.1763 6.74072 32.1567 6.76129C32.1182 6.80219 32.0796 6.84326 32.041 6.88446C32.022 6.90521 32.0034 6.92633 31.9854 6.94781C31.9653 6.96741 31.9458 6.98767 31.9268 7.00854C31.8887 7.05005 31.8506 7.09167 31.813 7.13348C31.7939 7.15454 31.7759 7.1759 31.7583 7.19769C31.7388 7.21759 31.7192 7.23816 31.7007 7.25934C31.6631 7.30145 31.626 7.34369 31.5894 7.38605C31.5703 7.40747 31.5527 7.4292 31.5352 7.45123C31.5161 7.4715 31.4971 7.49237 31.4785 7.51392C31.4419 7.55664 31.4053 7.59955 31.3691 7.64264C31.3506 7.66425 31.333 7.68628 31.3164 7.70862C31.2974 7.72919 31.2788 7.75037 31.2607 7.77216C31.2246 7.81549 31.189 7.85901 31.1533 7.90259C31.1353 7.92456 31.1182 7.94684 31.1016 7.96948C31.083 7.9903 31.0645 8.01184 31.0469 8.03387C31.0117 8.07782 30.9766 8.12189 30.9414 8.16608C30.9238 8.18829 30.9072 8.21088 30.8911 8.23383C30.8726 8.255 30.8545 8.27679 30.8374 8.29919C30.8027 8.34375 30.7686 8.38843 30.7344 8.43323C30.7168 8.45575 30.7002 8.47864 30.6846 8.50177C30.6665 8.52325 30.6489 8.54535 30.6323 8.56805C30.5981 8.6131 30.5645 8.65833 30.5312 8.70367C30.5142 8.7265 30.498 8.74963 30.4829 8.77307C30.4653 8.79486 30.4478 8.8172 30.4312 8.84015C30.3984 8.8858 30.3652 8.93158 30.3325 8.97748C30.3164 9.00061 30.3003 9.02399 30.2852 9.04767C30.2681 9.06976 30.2515 9.09247 30.2349 9.11572C30.2026 9.16193 30.1704 9.20825 30.1387 9.25476C30.1226 9.27814 30.1069 9.30176 30.0923 9.32568C30.0757 9.34808 30.0591 9.37103 30.0435 9.39453C30.0117 9.44128 29.9805 9.48816 29.9492 9.53516C29.9336 9.55884 29.9185 9.58276 29.9043 9.60693C29.8877 9.62958 29.8716 9.65277 29.856 9.67657C29.8252 9.72382 29.7949 9.77124 29.7642 9.81879C29.749 9.84271 29.7344 9.86688 29.7207 9.8913C29.7046 9.91425 29.689 9.93774 29.6738 9.96179C29.6436 10.0096 29.6138 10.0575 29.584 10.1055C29.5693 10.1297 29.5552 10.1542 29.5415 10.1788C29.5259 10.202 29.5107 10.2258 29.4961 10.2501C29.4668 10.2984 29.4375 10.3468 29.4087 10.3954C29.3945 10.4198 29.3804 10.4445 29.3677 10.4694C29.3521 10.4928 29.3374 10.5168 29.3228 10.5414C29.2944 10.5902 29.2661 10.6391 29.2383 10.6882C29.2241 10.7128 29.2109 10.7377 29.1982 10.7628C29.1831 10.7866 29.1689 10.8109 29.1548 10.8356C29.1274 10.8849 29.1001 10.9343 29.0728 10.9838C29.0591 11.0088 29.0464 11.0339 29.0342 11.0592C29.0195 11.0833 29.0054 11.1077 28.9917 11.1328C28.9653 11.1826 28.9385 11.2324 28.9121 11.2824C28.8989 11.3076 28.8867 11.3329 28.8745 11.3585C28.8604 11.3828 28.8467 11.4075 28.834 11.4328C28.8081 11.483 28.7822 11.5333 28.7568 11.5838C28.7441 11.6091 28.7319 11.6347 28.7207 11.6605C28.7065 11.6849 28.6934 11.7099 28.6812 11.7354C28.6558 11.7861 28.6309 11.8369 28.6064 11.8877C28.5942 11.9133 28.5825 11.9391 28.5713 11.965C28.5581 11.9897 28.5454 12.015 28.5332 12.0407Q28.4971 12.1174 28.4614 12.1944C28.4492 12.2202 28.438 12.2462 28.4277 12.2723C28.4146 12.2973 28.4023 12.3228 28.3906 12.3487C28.3672 12.4002 28.3442 12.4518 28.3213 12.5035C28.3096 12.5296 28.2988 12.5557 28.2891 12.582C28.2764 12.6072 28.2646 12.6329 28.2534 12.6589C28.231 12.7109 28.2085 12.7629 28.1865 12.815C28.1758 12.8412 28.1655 12.8676 28.1558 12.894C28.1436 12.9195 28.1323 12.9454 28.1216 12.9717C28.0996 13.024 28.0786 13.0765 28.0571 13.129C28.0469 13.1555 28.0371 13.182 28.0278 13.2087C28.0161 13.2343 28.0049 13.2604 27.9946 13.287C27.9741 13.3397 27.9536 13.3924 27.9336 13.4453C27.9233 13.4719 27.9141 13.4985 27.9053 13.5253C27.894 13.5511 27.8838 13.5774 27.8735 13.6041C27.854 13.657 27.8345 13.7102 27.8154 13.7634C27.8057 13.7902 27.7964 13.8171 27.7886 13.8441C27.7778 13.8701 27.7676 13.8965 27.7583 13.9234C27.7393 13.9769 27.7207 14.0304 27.7021 14.084C27.6934 14.111 27.6846 14.1381 27.6768 14.1652C27.6665 14.1914 27.6572 14.2181 27.6479 14.2452C27.6304 14.2988 27.6123 14.3526 27.5952 14.4065C27.5864 14.4336 27.5786 14.4607 27.5713 14.4879C27.5615 14.5143 27.5522 14.5411 27.5435 14.5682C27.5269 14.6222 27.5103 14.6763 27.4937 14.7305C27.4854 14.7578 27.478 14.7851 27.4712 14.8125C27.4619 14.8391 27.4531 14.866 27.4448 14.8934C27.4292 14.9478 27.4131 15.0022 27.3975 15.0568C27.3896 15.0842 27.3828 15.1118 27.3765 15.1393C27.3677 15.166 27.3594 15.1932 27.3521 15.2207C27.3369 15.2753 27.3223 15.3299 27.3076 15.3846C27.3003 15.4121 27.2935 15.4396 27.2881 15.4672C27.2793 15.494 27.2715 15.5212 27.2646 15.5488C27.2505 15.6037 27.2368 15.6586 27.2231 15.7136C27.2163 15.7413 27.2104 15.769 27.2051 15.7967C27.1973 15.8237 27.1899 15.8511 27.1831 15.8789C27.1699 15.9341 27.1572 15.9893 27.1445 16.0447C27.1382 16.0725 27.1328 16.1004 27.1279 16.1282C27.1201 16.1555 27.1133 16.183 27.1074 16.2109C27.0952 16.2662 27.0835 16.3215 27.0718 16.3769C27.0659 16.4047 27.061 16.4326 27.0566 16.4604C27.0493 16.4877 27.0435 16.5153 27.0376 16.5432C27.0264 16.5986 27.0156 16.6542 27.0049 16.7099C26.9995 16.7379 26.9951 16.7659 26.9912 16.7938C26.9849 16.8213 26.979 16.8491 26.9736 16.8771C26.9634 16.9329 26.9536 16.9888 26.9438 17.0447C26.939 17.0729 26.9351 17.1011 26.9316 17.1292C26.9253 17.1567 26.9199 17.1846 26.9155 17.2129C26.9062 17.2687 26.8975 17.3245 26.8887 17.3804C26.8843 17.4086 26.8809 17.4366 26.8779 17.4646C26.8726 17.4922 26.8677 17.5201 26.8633 17.5482C26.8584 17.5833 26.8535 17.6183 26.8486 17.6535C25.9956 17.3612 25.1836 16.8522 24.498 16.179C22.0444 13.7705 22.0078 9.78351 24.4165 7.3302ZM66.3105 26.7314C66.3091 26.71 66.3076 26.6885 66.3066 26.6668C66.3066 26.6645 66.3066 26.6609 66.3062 26.656C66.3052 26.6404 66.3032 26.6118 66.2998 26.571C66.293 26.4895 66.2798 26.3598 66.2563 26.1888C66.2095 25.8464 66.1206 25.3416 65.9556 24.7289C65.624 23.5007 64.9917 21.8621 63.792 20.226C61.5337 17.1461 57.0718 13.8148 48.0479 13.5761C39.0244 13.8148 34.5625 17.1461 32.3042 20.226C31.1045 21.8621 30.4722 23.5007 30.1406 24.7289C29.9756 25.3416 29.8867 25.8464 29.8398 26.1888C29.8345 26.2267 29.8296 26.2625 29.8257 26.2963C29.9595 32.1503 31.7046 36.2455 34.6592 39.2888C37.7632 42.4856 42.353 44.6801 48.3364 46.3638C52.8618 45.032 56.6001 43.3808 59.4702 41.1634C59.5669 41.0637 59.6768 40.9768 59.7969 40.9055C60.4248 40.3991 61.0093 39.8638 61.5488 39.2968C64.375 36.3266 66.1021 32.3537 66.3105 26.7314ZM35.1582 31.1522C36.5474 30.0559 37.4307 29.7222 38.1631 29.7335C37.2988 29.7338 36.5986 30.4343 36.5986 31.2984C36.5986 32.1627 37.2993 32.8633 38.1636 32.8633C39.0278 32.8633 39.7285 32.1627 39.7285 31.2984C39.7285 30.4863 39.1099 29.8187 38.3179 29.741C39.0562 29.8011 39.9004 30.2126 41.1934 31.1713C41.6562 31.5145 42.3101 31.4174 42.6528 30.9545C42.9961 30.4916 42.8989 29.8383 42.436 29.4951C41.0322 28.4542 39.7183 27.6937 38.2627 27.6487C36.7793 27.603 35.4014 28.3024 33.8657 29.5143C33.4131 29.8712 33.3359 30.5272 33.6929 30.9796C34.0498 31.4319 34.7061 31.5092 35.1582 31.1522ZM54.9805 31.1522C56.3696 30.0559 57.2529 29.7222 57.9854 29.7335C57.1211 29.7336 56.4209 30.4343 56.4209 31.2984C56.4209 32.1627 57.1216 32.8633 57.9858 32.8633C58.8501 32.8633 59.5508 32.1627 59.5508 31.2984C59.5508 30.4859 58.9316 29.8181 58.1392 29.7409C58.8774 29.8006 59.7217 30.212 61.0161 31.1713C61.479 31.5145 62.1323 31.4174 62.4756 30.9545C62.8184 30.4916 62.7217 29.8383 62.2588 29.4951C60.8545 28.4542 59.541 27.6937 58.0854 27.6487C56.6021 27.603 55.2236 28.3024 53.688 29.5143C53.2358 29.8712 53.1582 30.5272 53.5156 30.9796C53.8726 31.4319 54.5283 31.5092 54.9805 31.1522ZM45.4663 38.0793C45.4663 37.215 44.7656 36.5143 43.9014 36.5143C43.0371 36.5143 42.3364 37.215 42.3364 38.0793C42.3364 39.5466 43.1333 40.7556 44.1851 41.5443C45.2358 42.3327 46.6162 42.774 48.0747 42.774C49.5327 42.774 50.9131 42.3327 51.9644 41.5443C53.0161 40.7556 53.8125 39.5466 53.8125 38.0793C53.8125 37.215 53.1118 36.5143 52.2476 36.5143C51.3833 36.5143 50.6826 37.215 50.6826 38.0793C50.6826 38.3405 50.5454 38.6964 50.0864 39.0405C49.6274 39.3849 48.9209 39.6442 48.0747 39.6442C47.228 39.6442 46.522 39.3849 46.0625 39.0405C45.604 38.6964 45.4663 38.3405 45.4663 38.0793ZM55.7554 54.567C53.6797 56.2704 50.834 57.3799 47.8193 57.3799C42.0278 57.3799 37.1201 53.3061 37.1201 47.469L37.1201 45.1465C40.1338 46.9561 43.6885 48.3166 47.6411 49.4193C48.1064 49.549 48.603 49.5465 49.0674 49.411C52.771 48.3306 56.1406 47.003 59.0293 45.2506L59.0293 47.469C59.0293 50.2697 58.0366 52.6951 55.7554 54.567ZM57.7407 56.9865C59.8179 55.2821 61.3906 53.0191 61.9434 50.4908C69.5317 55.2093 75.2437 63.5828 75.7988 73.0294L65.8105 73.0294L65.8105 67.2913C65.8105 66.427 65.1099 65.7264 64.2456 65.7264C63.3813 65.7264 62.6807 66.427 62.6807 67.2913L62.6807 73.551C62.6807 74.9915 63.8486 76.1592 65.2891 76.1592L67.897 76.1592L67.897 90.7651L30.3394 90.7651L30.3394 76.6808L32.4253 76.6808C33.8662 76.6808 35.0337 75.5131 35.0337 74.0726L35.0337 67.2913C35.0337 66.4269 34.333 65.7263 33.4688 65.7263C32.6045 65.7263 31.9038 66.4269 31.9038 67.2913L31.9038 73.5509L22.0698 73.5509C22.3843 64.1712 27.1685 56.0236 34.3564 51.1945C35.814 56.4717 41.439 60.5098 47.8193 60.5098C51.582 60.5098 55.1235 59.134 57.7407 56.9865ZM28.355 102.554L29.6455 93.8893C28.2852 93.8009 27.2095 92.6694 27.2095 91.2867L27.2095 76.6808L23.5571 76.6808L23.5571 106.287L25.2266 107.957L25.2266 105.162C25.2266 103.722 26.394 102.554 27.8345 102.554L28.355 102.554ZM32.8091 93.8949L29.5464 115.804L69.1733 115.804L65.4438 93.8949L32.8091 93.8949ZM42.3359 118.934L39.2061 118.934L39.2061 128.323L42.3359 128.323L42.3359 118.934ZM53.813 118.934L53.813 138.443L56.9429 138.443L56.9429 118.934L53.813 118.934ZM53.813 141.573L53.813 149.397L64.8213 149.397L58.562 146.833C57.5825 146.432 56.9429 145.478 56.9429 144.42L56.9429 141.573L53.813 141.573Z" fill-rule="evenodd" fill="#080A0D"/>
	<path id="Missing limbs" d="M0.224242 183.483C0.0642422 183.483 0.000242233 183.403 0.000242233 183.243L0.000242233 171.835C0.000242233 171.659 0.0482422 171.611 0.192242 171.611L1.72824 171.611C1.90424 171.611 1.95224 171.659 2.00024 171.787L5.55224 180.955C5.63224 181.147 5.71224 181.147 5.80824 180.939L9.36024 171.819C9.39224 171.675 9.47224 171.611 9.60024 171.611L11.2162 171.611C11.3442 171.611 11.3922 171.675 11.3922 171.819L11.3922 183.243C11.3922 183.419 11.3122 183.483 11.1522 183.483L10.0962 183.483C9.92024 183.483 9.85624 183.419 9.85624 183.275L9.85624 174.123C9.85624 174.011 9.80824 174.043 9.77624 174.123L6.25624 183.275C6.19224 183.419 6.11224 183.483 5.95224 183.483L5.18424 183.483C5.00824 183.483 4.91224 183.419 4.86424 183.291L1.39224 174.219C1.36024 174.123 1.31224 174.123 1.31224 174.219L1.31224 183.275C1.31224 183.435 1.24824 183.483 1.08824 183.483L0.224242 183.483ZM15.5882 171.851L15.5882 173.179C15.5882 173.371 15.5242 173.483 15.3002 173.483L14.3722 173.483C14.1802 173.483 14.1322 173.371 14.1322 173.211L14.1322 171.867C14.1322 171.707 14.2122 171.611 14.3562 171.611L15.3642 171.611C15.4922 171.611 15.5882 171.707 15.5882 171.851ZM15.5242 175.211L15.5242 183.211C15.5242 183.419 15.4602 183.483 15.2362 183.483L14.4202 183.483C14.2282 183.483 14.1802 183.419 14.1802 183.259L14.1802 175.227C14.1802 175.067 14.2442 175.003 14.3722 175.003L15.3482 175.003C15.4762 175.003 15.5242 175.067 15.5242 175.211ZM23.0964 176.875C22.6644 176.235 21.8804 175.787 20.8244 175.787C19.6724 175.787 18.8244 176.315 18.8244 177.147C18.8244 177.579 19.0644 178.011 20.1204 178.331L22.1524 178.939C23.6084 179.339 24.2324 180.139 24.2324 181.147C24.2324 182.651 22.7604 183.643 20.7764 183.643C19.0964 183.643 17.7524 182.907 17.2244 181.883C17.1604 181.771 17.1604 181.691 17.2564 181.627L17.8804 181.275C17.9924 181.211 18.0724 181.227 18.1204 181.291C18.6324 182.107 19.4644 182.667 20.7924 182.667C22.0244 182.651 22.9684 182.123 22.9684 181.291C22.9684 180.715 22.5364 180.315 21.4004 179.995L19.7524 179.531C18.1524 179.115 17.5764 178.363 17.5764 177.387C17.5604 175.867 18.8884 174.843 20.8404 174.843C22.2644 174.843 23.4324 175.435 24.0244 176.331C24.0884 176.427 24.1044 176.507 24.0084 176.555L23.3364 176.923C23.2564 176.971 23.1604 176.955 23.0964 176.875ZM31.2839 176.875C30.8519 176.235 30.0679 175.787 29.0119 175.787C27.8599 175.787 27.0119 176.315 27.0119 177.147C27.0119 177.579 27.2519 178.011 28.3079 178.331L30.3399 178.939C31.7959 179.339 32.4199 180.139 32.4199 181.147C32.4199 182.651 30.9479 183.643 28.9639 183.643C27.2839 183.643 25.9399 182.907 25.4119 181.883C25.3479 181.771 25.3479 181.691 25.4439 181.627L26.0679 181.275C26.1799 181.211 26.2599 181.227 26.3079 181.291C26.8199 182.107 27.6519 182.667 28.9799 182.667C30.2119 182.651 31.1559 182.123 31.1559 181.291C31.1559 180.715 30.7239 180.315 29.5879 179.995L27.9399 179.531C26.3399 179.115 25.7639 178.363 25.7639 177.387C25.7479 175.867 27.0759 174.843 29.0279 174.843C30.4519 174.843 31.6199 175.435 32.2119 176.331C32.2759 176.427 32.2919 176.507 32.1959 176.555L31.5239 176.923C31.4439 176.971 31.3479 176.955 31.2839 176.875ZM35.7914 171.851L35.7914 173.179C35.7914 173.371 35.7274 173.483 35.5034 173.483L34.5754 173.483C34.3834 173.483 34.3354 173.371 34.3354 173.211L34.3354 171.867C34.3354 171.707 34.4154 171.611 34.5594 171.611L35.5674 171.611C35.6954 171.611 35.7914 171.707 35.7914 171.851ZM35.7274 175.211L35.7274 183.211C35.7274 183.419 35.6634 183.483 35.4394 183.483L34.6234 183.483C34.4314 183.483 34.3834 183.419 34.3834 183.259L34.3834 175.227C34.3834 175.067 34.4474 175.003 34.5754 175.003L35.5514 175.003C35.6794 175.003 35.7274 175.067 35.7274 175.211ZM38.4355 183.483C38.2755 183.483 38.2115 183.419 38.2115 183.275L38.2115 175.211C38.2115 175.083 38.2755 175.003 38.3875 175.003L39.3475 175.003C39.4595 175.003 39.5235 175.067 39.5235 175.179L39.5235 176.107C39.5235 176.219 39.5555 176.251 39.6675 176.155C40.7395 175.323 41.4915 174.843 42.6115 174.843C44.2595 174.843 45.1875 175.819 45.1875 177.259L45.1875 183.227C45.1875 183.403 45.1075 183.483 44.9475 183.483L44.0515 183.483C43.9075 183.483 43.8435 183.419 43.8435 183.275L43.8435 177.563C43.8435 176.523 43.3315 175.899 42.1795 175.899C41.2195 175.899 40.5635 176.331 39.5555 177.195L39.5555 183.243C39.5555 183.419 39.4915 183.483 39.3155 183.483L38.4355 183.483ZM55.2192 174.859C55.4272 174.859 55.5232 174.939 55.5232 175.115L55.5232 175.675C55.5232 175.883 55.4432 175.979 55.2032 175.963C54.8512 175.963 54.6112 175.995 54.3712 176.107C54.0832 176.219 54.0032 176.331 54.0512 176.475C54.1472 176.715 54.3232 177.019 54.3232 177.563C54.3232 178.987 53.2192 180.139 50.8512 180.139C49.2192 180.139 48.7232 180.475 48.7232 180.827C48.7232 181.163 49.1552 181.291 50.1792 181.355L52.2432 181.467C54.1312 181.579 54.9632 182.411 54.9632 183.691C54.9632 185.307 53.5072 186.283 50.8672 186.283C48.1632 186.283 46.7072 185.483 46.7072 184.027C46.7072 183.275 47.2352 182.699 48.2112 182.219C48.3232 182.171 48.3232 182.107 48.2112 182.043C47.7312 181.835 47.4752 181.531 47.4752 181.099C47.4752 180.635 47.9072 180.187 48.7392 179.899C48.8512 179.867 48.8512 179.787 48.7392 179.707C47.8112 179.227 47.3632 178.555 47.3632 177.563C47.3632 175.915 48.6592 174.875 50.9792 174.875C52.0832 174.875 52.8352 175.147 53.3792 175.595C53.5072 175.707 53.6032 175.691 53.7152 175.595C54.0672 175.259 54.6592 174.859 55.2192 174.859ZM50.8512 179.291C52.3552 179.291 53.0592 178.651 53.0592 177.547C53.0592 176.411 52.3232 175.723 50.8512 175.723C49.4272 175.723 48.6112 176.427 48.6112 177.547C48.6112 178.651 49.4112 179.291 50.8512 179.291ZM52.1152 182.603L49.4432 182.443C48.8832 182.411 47.9072 183.003 47.9072 183.867C47.9072 184.875 48.9472 185.451 51.0112 185.451C52.7712 185.451 53.7152 184.939 53.7152 183.851C53.7152 183.131 53.2832 182.667 52.1152 182.603ZM61.9777 171.819L61.9777 183.211C61.9777 183.419 61.8977 183.483 61.6897 183.483L60.8577 183.483C60.6657 183.483 60.6177 183.419 60.6177 183.259L60.6337 171.835C60.6337 171.675 60.6977 171.611 60.8257 171.611L61.7857 171.611C61.9137 171.611 61.9777 171.675 61.9777 171.819ZM65.8539 171.851L65.8539 173.179C65.8539 173.371 65.7899 173.483 65.5659 173.483L64.6379 173.483C64.4459 173.483 64.3979 173.371 64.3979 173.211L64.3979 171.867C64.3979 171.707 64.4779 171.611 64.6219 171.611L65.6299 171.611C65.7579 171.611 65.8539 171.707 65.8539 171.851ZM65.7899 175.211L65.7899 183.211C65.7899 183.419 65.7259 183.483 65.5019 183.483L64.6859 183.483C64.4939 183.483 64.4459 183.419 64.4459 183.259L64.4459 175.227C64.4459 175.067 64.5099 175.003 64.6379 175.003L65.6139 175.003C65.7419 175.003 65.7899 175.067 65.7899 175.211ZM68.498 183.483C68.338 183.483 68.274 183.419 68.274 183.275L68.274 175.211C68.274 175.083 68.338 175.003 68.45 175.003L69.41 175.003C69.522 175.003 69.57 175.067 69.57 175.179L69.57 176.107C69.57 176.219 69.618 176.251 69.73 176.155C70.754 175.323 71.49 174.843 72.562 174.843C73.826 174.843 74.578 175.515 74.834 176.251C74.866 176.347 74.962 176.299 75.058 176.219C76.066 175.371 76.898 174.843 77.954 174.843C79.506 174.843 80.402 175.803 80.402 177.275L80.402 183.227C80.402 183.403 80.322 183.483 80.162 183.483L79.266 183.483C79.122 183.483 79.058 183.419 79.058 183.275L79.058 177.563C79.058 176.523 78.578 175.899 77.522 175.899C76.562 175.899 75.762 176.523 75.234 176.987C75.074 177.147 75.01 177.259 75.01 177.451L75.01 183.227C75.01 183.403 74.914 183.483 74.77 183.483L73.874 183.483C73.746 183.483 73.666 183.419 73.666 183.275L73.666 177.563C73.666 176.523 73.202 175.899 72.13 175.899C71.218 175.899 70.594 176.331 69.618 177.195L69.618 183.243C69.618 183.419 69.554 183.483 69.378 183.483L68.498 183.483ZM83.542 183.483L83.03 183.483C82.838 183.483 82.774 183.419 82.774 183.227L82.774 171.835C82.774 171.675 82.854 171.611 82.966 171.611L83.958 171.611C84.07 171.611 84.118 171.675 84.118 171.835L84.118 175.755C84.118 175.979 84.214 175.979 84.358 175.851C84.646 175.579 85.478 174.843 86.918 174.843C89.254 174.843 90.342 176.731 90.342 179.195C90.342 181.931 88.998 183.643 86.694 183.643C85.222 183.643 84.406 182.811 84.086 182.379C84.006 182.283 83.926 182.299 83.91 182.427L83.83 183.227C83.798 183.419 83.734 183.483 83.542 183.483ZM84.118 177.003L84.118 180.619C84.118 181.771 85.254 182.683 86.406 182.683C87.846 182.683 88.95 181.643 88.95 179.227C88.95 177.067 88.102 175.819 86.518 175.819C85.51 175.819 84.678 176.331 84.118 177.003ZM97.4401 176.875C97.0081 176.235 96.2241 175.787 95.1681 175.787C94.0161 175.787 93.1681 176.315 93.1681 177.147C93.1681 177.579 93.4081 178.011 94.4641 178.331L96.4961 178.939C97.9521 179.339 98.5761 180.139 98.5761 181.147C98.5761 182.651 97.1041 183.643 95.1201 183.643C93.4401 183.643 92.0961 182.907 91.5681 181.883C91.5041 181.771 91.5041 181.691 91.6001 181.627L92.2241 181.275C92.3361 181.211 92.4161 181.227 92.4641 181.291C92.9761 182.107 93.8081 182.667 95.1361 182.667C96.3681 182.651 97.3121 182.123 97.3121 181.291C97.3121 180.715 96.8801 180.315 95.7441 179.995L94.0961 179.531C92.4961 179.115 91.9201 178.363 91.9201 177.387C91.9041 175.867 93.2321 174.843 95.1841 174.843C96.6081 174.843 97.7761 175.435 98.3681 176.331C98.4321 176.427 98.4481 176.507 98.3521 176.555L97.6801 176.923C97.6001 176.971 97.5041 176.955 97.4401 176.875Z" fill-rule="evenodd" fill="#080A0D"/>
</svg>
