<svg width="89.229492" height="188.437866" viewBox="0 0 89.2295 188.438" fill="none" xmlns="http://www.w3.org/2000/svg" xmlns:xlink="http://www.w3.org/1999/xlink">
	<desc>
			Created with Pixso.
	</desc>
	<defs/>
	<path id="Non-verbal" d="M21.1514 49.9146L30.1353 49.9146L30.1353 53.9332C21.7236 58.7977 16.3315 67.5366 16.1631 77.8672L16.1592 77.8672L16.1592 109.898C16.1592 110.56 16.4224 111.195 16.8901 111.663L19.3003 114.073C19.7681 114.541 20.4033 114.804 21.0649 114.804L21.2505 114.804C22.6289 114.804 23.7461 113.687 23.7461 112.308L23.7461 109.114L25.144 109.114L25.144 132.274C25.144 133.652 26.2612 134.77 27.6396 134.77L35.127 134.77L35.127 138.763L33.6294 138.763C32.8022 138.763 32.1318 139.433 32.1318 140.26L32.1318 144.453L29.1372 144.453C25.8145 144.453 23.1475 147.12 23.1475 150.443L23.1475 150.942C23.1475 152.321 24.2646 153.438 25.6431 153.438L41.6157 153.438C42.2998 153.438 42.9194 153.163 43.3701 152.717C43.8213 153.163 44.4409 153.438 45.125 153.438L61.0977 153.438C62.4761 153.438 63.5933 152.321 63.5933 150.942L63.5933 133.751C63.8975 133.338 64.0771 132.827 64.0771 132.274L64.0771 109.114L65.4746 109.114L65.4746 112.308C65.4746 113.687 66.5923 114.804 67.9707 114.804L68.1562 114.804C68.8179 114.804 69.4526 114.541 69.9209 114.073L72.3311 111.663C72.7988 111.195 73.062 110.56 73.062 109.898L73.062 101.332L73.062 101.327L73.062 101.321L73.062 79.3767C73.208 71.7789 71.5293 66.3589 68.5879 62.2208C65.6675 58.1115 61.6064 55.419 57.3027 53.09C57.2979 53.0875 57.2935 53.085 57.2886 53.0826L57.2886 49.9146L67.0254 49.9146C68.1055 49.9146 69.0981 49.2122 69.4077 48.1269C70.9204 42.8256 71.0654 37.2433 71.0654 31.7682C71.0654 28.5828 70.248 20.7557 66.5234 13.6661C62.7549 6.49243 55.9448 0 44.1113 0C34.1187 0 25.5229 4.8302 21.126 13.8984C17.5811 21.2089 17.1572 29.4315 17.1572 33.2818C17.1572 39.5486 18.2896 45.7811 18.7207 47.9313C18.9565 49.1071 19.9893 49.9146 21.1514 49.9146ZM23.8208 15.205C20.5771 21.8948 20.1523 29.5644 20.1523 33.2818C20.1523 38.8881 21.1104 44.5246 21.5737 46.9197L29.4219 46.9197C24.7271 42.5882 23.5312 38.7574 22.9795 30.7301C22.1431 18.5595 31.5972 8.99438 43.5854 8.95221C56.5498 8.90717 64.7417 18.4816 64.7417 30.9161C64.3525 38.3945 62.6484 42.4819 57.9321 46.9197L66.6348 46.9197C68.0615 41.6307 68.0703 35.4856 68.0703 31.7682C68.0703 28.8996 67.3037 21.5912 63.8721 15.059C60.4849 8.61078 54.5664 2.99487 44.1113 2.99487C35.2534 2.99487 27.7222 7.159 23.8208 15.205ZM27.5132 21.4357C30.6079 15.5876 37.0317 11.97 43.5957 11.9471C50.252 11.9239 56.9771 15.5625 59.9209 21.6575C52.1143 13.2532 35.4756 13.1793 27.5132 21.4357ZM43.8887 50.8536C38.1631 49.2425 33.771 47.1427 30.8008 44.0837C27.2085 40.3834 26.4087 35.6565 26.1689 30.7301C26.5825 22.2237 36.5146 18.6693 43.6123 18.4816C51.04 18.678 60.3574 22.385 61.0771 30.9161C61.4658 35.5276 59.7495 40.709 56.5308 44.0913C53.6211 47.1491 49.3545 49.2449 43.8887 50.8536ZM34.1211 33.4431C33.4219 33.4344 32.5776 33.7551 31.2529 34.8007C30.8203 35.1423 30.1924 35.0683 29.8506 34.6355C29.5093 34.2027 29.583 33.575 30.0161 33.2334C31.4854 32.0737 32.8042 31.4045 34.2236 31.4483C35.6167 31.4913 36.8735 32.2191 38.2168 33.2151C38.6597 33.5434 38.7529 34.1686 38.4243 34.6116C38.0962 35.0544 37.4707 35.1473 37.0278 34.819C35.7944 33.9044 34.9878 33.5103 34.2827 33.4509C35.0376 33.5282 35.626 34.1656 35.626 34.9405C35.626 35.7675 34.9556 36.4379 34.1284 36.4379C33.3013 36.4379 32.6309 35.7675 32.6309 34.9405C32.6309 34.116 33.2974 33.4471 34.1211 33.4431ZM53.0889 33.4431C52.3892 33.4344 51.5454 33.7551 50.2202 34.8007C49.7876 35.1423 49.1602 35.0683 48.8184 34.6355C48.4766 34.2027 48.5508 33.575 48.9834 33.2334C50.4531 32.0737 51.772 31.4045 53.1914 31.4483C54.584 31.4913 55.8408 32.2191 57.1846 33.2151C57.6274 33.5434 57.7202 34.1686 57.3921 34.6116C57.0635 35.0544 56.4385 35.1473 55.9956 34.819C54.7617 33.9043 53.9551 33.5102 53.2505 33.4509C54.0049 33.5281 54.5933 34.1656 54.5933 34.9405C54.5933 35.7675 53.9229 36.4379 53.0962 36.4379C52.269 36.4379 51.5986 35.7675 51.5986 34.9405C51.5986 34.116 52.2651 33.4471 53.0889 33.4431ZM33.1304 49.6733L33.1304 54.447C36.0967 55.7031 39.7842 56.15 43.6118 56.0192C47.3623 55.8911 51.1362 55.2122 54.2939 54.2964L54.2939 49.682C51.4917 51.4117 48.2065 52.7139 44.5879 53.7694C44.1436 53.8991 43.668 53.9015 43.2231 53.7774C39.4292 52.7191 36.019 51.4126 33.1304 49.6733ZM26.6411 99.8291C26.6533 99.8291 26.665 99.8293 26.6772 99.8295L62.5439 99.8295C62.5557 99.8293 62.5679 99.8291 62.5796 99.8291L70.0669 99.8291L70.0669 79.3767C70.0244 74.0002 69.3457 68.4567 66.147 63.9557C63.915 60.8157 60.8555 58.552 57.2759 56.5017C52.8711 57.9136 48.3506 58.854 43.7139 59.0123C39.3291 59.1621 34.813 58.6187 31.1284 56.8261C23.7837 61.2981 19.1543 69.1176 19.1543 78.3661L19.1543 99.8291L26.6411 99.8291ZM25.144 106.119L25.1436 102.824L19.1543 102.824L19.1543 109.691L20.7515 111.289L20.7515 108.615C20.7515 107.236 21.8687 106.119 23.2471 106.119L25.144 106.119ZM64.0771 106.119L65.9741 106.119C67.3521 106.119 68.4697 107.236 68.4697 108.615L68.4697 111.289L70.0669 109.691L70.0669 102.824L64.0771 102.824L64.0771 106.119ZM28.1387 102.824L61.0825 102.824L61.0825 131.775L28.1387 131.775L28.1387 102.824ZM41.1167 134.77L38.1216 134.77L38.1216 138.763L41.1167 138.763L41.1167 134.77ZM54.6089 134.77L44.1113 134.77L44.1113 140.248L44.1113 140.26L44.1113 140.271L44.1113 146.487C45.207 145.238 46.8164 144.453 48.6191 144.453L51.6138 144.453L51.6138 140.26C51.6138 139.433 52.2842 138.763 53.1113 138.763L54.6089 138.763L54.6089 134.77ZM60.5986 134.77L57.6035 134.77L57.6035 138.763L60.5986 138.763L60.5986 134.77ZM54.6089 141.758L60.5986 141.758L60.5986 150.443L45.624 150.443C45.624 148.774 46.9502 147.448 48.6191 147.448L52.1128 147.448C53.4912 147.448 54.6089 146.331 54.6089 144.952L54.6089 141.758ZM41.1167 150.443L41.1167 141.758L35.127 141.758L35.127 144.952C35.127 146.331 34.0093 147.448 32.6309 147.448L29.1372 147.448C27.4683 147.448 26.1421 148.774 26.1421 150.443L41.1167 150.443Z" fill-rule="evenodd" fill="#080A0D"/>
	<path id="Non-verbal" d="M9.44 172.522L10.384 172.522C10.512 172.522 10.56 172.57 10.56 172.714L10.56 184.202C10.56 184.33 10.48 184.394 10.352 184.394L9.568 184.394C9.424 184.394 9.328 184.394 9.232 184.266L3.056 175.29C2.96 175.146 2.88 175.178 2.88 175.306L2.88 184.186C2.88 184.33 2.816 184.394 2.656 184.394L1.76 184.394C1.616 184.394 1.552 184.33 1.552 184.186L1.552 172.746C1.552 172.57 1.6 172.522 1.76 172.522L2.672 172.522C2.848 172.522 2.912 172.554 3.008 172.682L9.008 181.466C9.136 181.626 9.248 181.562 9.248 181.418L9.248 172.714C9.248 172.586 9.296 172.522 9.44 172.522ZM16.8934 184.554C14.4614 184.554 12.8454 182.762 12.8454 180.202C12.8454 177.578 14.5254 175.754 16.9094 175.754C19.3254 175.754 20.9414 177.594 20.9414 180.186C20.9414 182.746 19.3094 184.554 16.8934 184.554ZM16.9254 183.546C18.5894 183.546 19.5654 182.266 19.5654 180.154C19.5654 178.058 18.5574 176.746 16.9094 176.746C15.2454 176.746 14.2214 178.058 14.2214 180.154C14.2214 182.25 15.2454 183.546 16.9254 183.546ZM23.1435 184.394C22.9835 184.394 22.9195 184.33 22.9195 184.186L22.9195 176.122C22.9195 175.994 22.9835 175.914 23.0955 175.914L24.0555 175.914C24.1675 175.914 24.2315 175.978 24.2315 176.09L24.2315 177.018C24.2315 177.13 24.2635 177.162 24.3755 177.066C25.4475 176.234 26.1995 175.754 27.3195 175.754C28.9675 175.754 29.8955 176.73 29.8955 178.17L29.8955 184.138C29.8955 184.314 29.8155 184.394 29.6555 184.394L28.7595 184.394C28.6155 184.394 28.5515 184.33 28.5515 184.186L28.5515 178.474C28.5515 177.434 28.0395 176.81 26.8875 176.81C25.9275 176.81 25.2715 177.242 24.2635 178.106L24.2635 184.154C24.2635 184.33 24.1995 184.394 24.0235 184.394L23.1435 184.394ZM36.1353 179.77L36.1353 180.474C36.1353 180.634 36.0553 180.698 35.8633 180.698L32.2313 180.698C32.0713 180.698 32.0233 180.65 32.0233 180.506L32.0233 179.802C32.0233 179.674 32.0713 179.626 32.1673 179.626L35.9753 179.61C36.0713 179.61 36.1353 179.674 36.1353 179.77ZM45.253 175.914C45.397 175.914 45.461 176.026 45.413 176.138L42.165 184.154C42.101 184.33 41.989 184.394 41.797 184.394L41.221 184.394C41.013 184.394 40.885 184.33 40.821 184.17L37.589 176.154C37.541 176.026 37.605 175.914 37.765 175.914L38.757 175.914C38.885 175.914 38.965 175.978 39.013 176.09L41.525 182.378C41.605 182.586 41.685 182.586 41.781 182.362L44.277 176.09C44.309 175.978 44.389 175.914 44.517 175.914L45.253 175.914ZM47.5811 180.682C47.5811 182.25 48.8131 183.53 50.3811 183.53C51.4531 183.53 52.2691 183.098 52.8771 182.202C52.9571 182.122 53.0051 182.106 53.1011 182.154L53.7731 182.49C53.8531 182.538 53.8691 182.618 53.8051 182.714C52.9571 184.01 51.8371 184.554 50.2531 184.554C47.8851 184.554 46.1891 182.794 46.1891 180.234C46.1891 177.466 47.9491 175.754 50.2371 175.754C52.5571 175.754 54.0931 177.354 54.0931 180.09C54.0931 180.266 54.1091 180.442 53.8531 180.442L47.7251 180.442C47.6291 180.442 47.5811 180.538 47.5811 180.682ZM47.6131 179.562L52.4771 179.562C52.7011 179.562 52.7491 179.53 52.7491 179.338C52.7491 177.962 51.8371 176.714 50.2691 176.714C48.5571 176.714 47.5971 178.138 47.6131 179.562ZM56.206 184.394C56.046 184.394 55.982 184.33 55.982 184.186L55.982 176.122C55.982 175.978 56.046 175.914 56.158 175.914L57.086 175.914C57.214 175.914 57.262 175.978 57.262 176.09L57.262 177.13C57.262 177.258 57.342 177.29 57.438 177.178C58.27 176.202 59.086 175.754 59.918 175.754C60.302 175.754 60.478 175.818 60.478 175.962L60.478 176.922C60.478 177.018 60.43 177.066 60.334 177.05C60.142 177.018 59.886 177.002 59.614 177.002C58.67 177.002 57.326 177.93 57.326 178.858L57.326 184.154C57.326 184.33 57.246 184.394 57.086 184.394L56.206 184.394ZM62.875 184.394L62.363 184.394C62.171 184.394 62.107 184.33 62.107 184.138L62.107 172.746C62.107 172.586 62.187 172.522 62.299 172.522L63.291 172.522C63.403 172.522 63.451 172.586 63.451 172.746L63.451 176.666C63.451 176.89 63.547 176.89 63.691 176.762C63.979 176.49 64.811 175.754 66.251 175.754C68.587 175.754 69.675 177.642 69.675 180.106C69.675 182.842 68.331 184.554 66.027 184.554C64.555 184.554 63.739 183.722 63.419 183.29C63.339 183.194 63.259 183.21 63.243 183.338L63.163 184.138C63.131 184.33 63.067 184.394 62.875 184.394ZM63.451 177.914L63.451 181.53C63.451 182.682 64.587 183.594 65.739 183.594C67.179 183.594 68.283 182.554 68.283 180.138C68.283 177.978 67.435 176.73 65.851 176.73C64.843 176.73 64.011 177.242 63.451 177.914ZM76.5651 183.37C75.7651 184.138 74.8531 184.554 73.7171 184.554C72.0691 184.554 71.0451 183.642 71.0451 182.234C71.0451 180.538 72.5331 179.53 75.2691 179.354L76.5171 179.258C76.6611 179.242 76.7731 179.178 76.7731 179.018L76.7731 178.586C76.7731 177.434 76.0051 176.714 74.7891 176.714C73.8611 176.714 73.0931 177.13 72.5011 177.994C72.4211 178.106 72.3891 178.138 72.2611 178.09L71.3971 177.802C71.3171 177.77 71.2851 177.706 71.3651 177.546C71.9891 176.442 73.1731 175.754 74.8531 175.754C76.9651 175.754 78.0691 176.81 78.0691 178.49L78.0691 184.154C78.0691 184.346 78.0051 184.394 77.8611 184.394L77.0451 184.394C76.9011 184.394 76.8371 184.298 76.8211 184.138L76.8051 183.402C76.7731 183.258 76.6931 183.242 76.5651 183.37ZM76.7731 180.33C76.7731 180.138 76.7091 180.074 76.5491 180.074L75.4931 180.17C73.5251 180.298 72.3891 180.938 72.3891 182.074C72.3891 183.002 73.0931 183.562 74.1971 183.562C74.8691 183.562 75.5251 183.29 76.0051 182.906C76.4851 182.522 76.7731 182.074 76.7731 181.658L76.7731 180.33ZM81.8108 172.73L81.8108 184.122C81.8108 184.33 81.7308 184.394 81.5228 184.394L80.6908 184.394C80.4987 184.394 80.4508 184.33 80.4508 184.17L80.4668 172.746C80.4668 172.586 80.5307 172.522 80.6588 172.522L81.6188 172.522C81.7467 172.522 81.8108 172.586 81.8108 172.73Z" fill-rule="evenodd" fill="#080A0D"/>
</svg>
