<svg width="71.128418" height="188.447754" viewBox="0 0 71.1284 188.448" fill="none" xmlns="http://www.w3.org/2000/svg" xmlns:xlink="http://www.w3.org/1999/xlink">
	<desc>
			Created with Pixso.
	</desc>
	<defs/>
	<path id="Deaf" d="M27.5444 0C16.3252 0 7.01123 8.71027 7.01123 19.5315C7.01123 19.9415 7.01025 20.3493 7.00928 20.7547C6.9917 27.9461 6.97607 34.4072 12.5356 40.1334C13.0054 40.6171 13.5015 41.077 14.0225 41.515L14.0225 47.4245C5.60303 52.4225 0 61.545 0 72.0165L0 93.6199C0 94.0011 0.0869141 94.3773 0.254395 94.7197L2.08252 98.4592C1.74512 103.139 3.39355 107.797 6.63281 111.215C7.11377 111.722 7.77148 111.981 8.42773 111.981L12.019 111.981C12.019 113.223 12.0273 125.38 12.105 125.703C12.269 126.347 12.7559 126.616 13.3213 126.691L13.3213 145.328L6.56299 148.097C5.62256 148.482 5.0083 149.398 5.0083 150.414L5.0083 150.944C5.0083 152.327 6.12939 153.448 7.51221 153.448L19.832 153.448C21.2148 153.448 22.3359 152.327 22.3359 150.944L22.3359 126.974C22.6445 126.779 22.8838 126.472 22.9858 126.092L27.1636 110.52L32.1216 126.157C32.2676 126.617 32.7002 127.007 33.0537 127.324L33.0537 150.944C33.0537 152.327 34.1748 153.448 35.5576 153.448L47.8774 153.448C49.2603 153.448 50.3813 152.327 50.3813 150.944C50.3813 149.744 50.0537 148.599 48.8267 148.097L42.0679 145.328L42.0679 127.621C42.6514 127.414 43.0693 126.858 43.0693 126.204C43.0693 114.376 43.0693 101.586 43.0693 89.5445L45.8809 68.4591L68.0479 73.6749C69.9419 74.1206 71.5981 72.3299 71.0068 70.4761L64.3594 49.6477C63.9175 48.2631 62.3936 47.5443 61.0439 48.0841L60.5684 48.2743C60.5015 48.2166 60.4263 48.1663 60.3438 48.1252L57.7305 46.8254L54.3882 38.9318C54.1533 38.3779 53.6572 37.9778 53.0664 37.8657L47.5078 36.8115C47.2788 36.7681 47.0488 36.7701 46.8276 36.8132C46.752 36.6982 46.6533 36.5959 46.5322 36.5139L45.4062 35.7505C47.5552 32.1139 48.0776 28.2931 48.0776 24.1389L48.0776 16.6268C48.0776 10.3964 43.1489 5.37616 36.9409 4.68811C36.6338 2.02917 34.373 0 31.562 0L27.5444 0ZM27.5444 3.00482C17.8296 3.00482 10.0161 10.5208 10.0161 19.5315L10.0161 22.816L10.0449 22.8156L10.0723 22.8154C10.9995 22.807 12.2461 22.882 13.584 22.9625C13.9243 22.9829 14.271 23.0038 14.6191 23.0237C16.3828 23.1244 18.2812 23.2079 20.0571 23.1458C21.8569 23.0827 23.4019 22.8725 24.5083 22.4533C24.9297 22.2936 25.3296 21.8398 25.6353 20.9584C25.9297 20.1092 26.0312 19.1481 26.061 18.5004C26.104 17.5576 26.7109 16.4462 27.9648 16.1888C29.3716 15.9001 32.8906 15.6155 34.8853 19.1064C35.2393 19.7252 35.4829 20.3269 35.6245 20.9114C35.6968 21.2112 36.0093 21.952 36.4492 22.6279C36.6187 22.8885 36.8008 23.1507 37.0361 23.3574L45.0728 23.3574L45.0728 16.6268C45.0728 11.9367 41.2188 7.97662 36.1743 7.63586C35.0107 7.55725 33.9717 6.60663 33.9717 5.30859C33.9717 4.05896 32.9766 3.00482 31.562 3.00482L27.5444 3.00482ZM40.2969 37.9072C40.3223 37.9833 40.353 38.0573 40.3882 38.1287C37.4902 41.3964 33.5791 43.1542 27.8237 44.8329C22.0786 43.2165 17.6719 41.1096 14.6914 38.0402C11.8979 35.1628 10.2305 31.3057 10.0581 25.8206C10.0718 25.8204 10.0854 25.8203 10.0996 25.8201C10.9126 25.8127 12.0137 25.8788 13.335 25.9579L13.335 25.958L13.335 25.958C13.6904 25.9793 14.062 26.0016 14.4478 26.0236C16.2231 26.125 18.2388 26.2161 20.1621 26.1487C22.062 26.0822 24.001 25.8588 25.5728 25.2632C27.2261 24.6367 28.0542 23.155 28.4746 21.9427C28.835 20.903 28.979 19.831 29.0371 19.0571C30.0781 18.938 31.4316 19.1187 32.2764 20.5972C32.5093 21.0049 32.6377 21.3441 32.7036 21.6176C32.8794 22.3451 33.3677 23.4019 33.9307 24.2669C34.2183 24.709 34.5728 25.175 34.979 25.5486C35.3403 25.8806 35.981 26.3623 36.8223 26.3623L45.0674 26.3623C44.917 29.6897 44.2324 31.7872 42.9141 34.0603L42.2661 33.6208C40.8403 32.6541 39.002 34.0497 39.5503 35.6825L40.2969 37.9072ZM56.0215 27.0453C56.8506 27.0072 57.5532 27.6483 57.5913 28.4771C57.6699 30.1794 57.4854 31.6752 56.6113 32.9802C55.7651 34.244 54.417 35.1046 52.7329 35.9109C51.9844 36.2693 51.0874 35.9531 50.729 35.2048C50.3706 34.4564 50.687 33.5591 51.4351 33.2008C53.0088 32.4474 53.7358 31.8739 54.1147 31.3083C54.4658 30.7838 54.6558 30.0546 54.5898 28.6152C54.5518 27.7864 55.1924 27.0835 56.0215 27.0453ZM38.562 30.0485C38.562 30.8782 37.8896 31.5509 37.0596 31.5509C36.23 31.5509 35.5571 30.8782 35.5571 30.0485C35.5571 29.2188 36.23 28.5461 37.0596 28.5461C37.8896 28.5461 38.562 29.2188 38.562 30.0485ZM19.5312 30.0485C19.5312 30.8783 18.8589 31.5509 18.0288 31.5509C17.1992 31.5509 16.5264 30.8783 16.5264 30.0485C16.5264 29.2188 17.1992 28.5461 18.0288 28.5461C18.8589 28.5461 19.5312 29.2188 19.5312 30.0485ZM60.5288 29.0483C61.3574 29.0101 62.0605 29.6512 62.0986 30.48C62.1768 32.1824 61.9927 33.6781 61.1187 34.9831C60.2725 36.2469 58.9243 37.1075 57.2402 37.9139C56.4917 38.2722 55.5947 37.9561 55.2363 37.2077C54.8779 36.4593 55.1938 35.5621 55.9424 35.2037C57.5156 34.4503 58.2432 33.8768 58.6221 33.3112C58.9731 32.7867 59.1631 32.0575 59.0972 30.6182C59.0586 29.7893 59.6997 29.0864 60.5288 29.0483ZM41.9365 36.0062L45.1899 38.2125L44.6235 38.9555L42.3101 37.1191L41.9365 36.0062ZM23.5376 36.0579C24.3677 36.0579 25.04 36.7305 25.04 37.5603C25.04 37.8111 25.1724 38.1528 25.6128 38.4831C26.0537 38.8138 26.7314 39.0627 27.5444 39.0627C28.3569 39.0627 29.0352 38.8138 29.4756 38.4831C29.916 38.1528 30.0483 37.8111 30.0483 37.5603C30.0483 36.7305 30.7212 36.0579 31.5508 36.0579C32.3804 36.0579 33.0532 36.7305 33.0532 37.5603C33.0532 38.969 32.2886 40.1298 31.2788 40.887C30.2695 41.6439 28.9443 42.0676 27.5444 42.0676C26.144 42.0676 24.8188 41.6439 23.8096 40.887C22.8003 40.1298 22.0352 38.969 22.0352 37.5603C22.0352 36.7305 22.708 36.0579 23.5376 36.0579ZM46.6089 41.1171C46.6294 40.9761 46.667 40.8369 46.7212 40.7025L47.4141 38.9915L47.3237 38.9744L46.1577 40.5052C46.3452 40.6698 46.5005 40.8758 46.6089 41.1171ZM49.5776 39.4017L48.7783 41.3749L49.7271 43.6142C49.9595 44.1632 49.7026 44.7968 49.1538 45.0293C48.6045 45.2618 47.9712 45.0052 47.7388 44.4562L47.3408 43.5174L47.3579 43.5744C47.5283 44.1458 47.2036 44.7471 46.6318 44.9176C46.1045 45.075 45.5513 44.8099 45.3354 44.3185L46.4297 46.9022L50.7983 48.9185C50.98 49.0023 51.1465 49.1159 51.291 49.2546L53.1802 51.0695C53.2188 51.1067 53.2539 51.1461 53.2861 51.1872L53.292 51.1848L57.9229 49.3325L56.6499 48.6993C56.2651 48.5081 55.9619 48.1855 55.7944 47.79L52.4746 39.9512L52.3696 39.9313L51.5938 41.3668L52.5889 43.0179C52.897 43.5286 52.7324 44.1921 52.2217 44.4999C51.7109 44.8077 51.0479 44.6433 50.7397 44.1327L49.6382 42.3054C49.3096 41.7599 49.2935 41.0813 49.5967 40.521L50.1436 39.509L49.5776 39.4017ZM42.6299 40.1296L43.3711 40.7178L43.1899 40.8271C42.4229 41.2894 42.1128 42.2452 42.4619 43.0698L44.4956 47.8723C44.6699 48.2844 44.9917 48.6168 45.3984 48.8043L49.8384 50.8536L51.6841 52.6266C51.7319 52.6726 51.7832 52.7133 51.8364 52.7487C51.5923 53.516 51.7148 54.3965 52.2808 55.0914L54.7925 58.1737L41.2666 48.1012L41.2666 41.5159C41.7388 41.0825 42.1929 40.6216 42.6299 40.1296ZM44.7559 42.4044L44.5718 42.5152L45.3242 44.292C45.311 44.2595 45.2993 44.226 45.2891 44.1917L44.7559 42.4044ZM17.0273 48.266L17.0273 43.6478C19.9263 45.3932 23.3481 46.7042 27.1553 47.7662C27.6011 47.8906 28.0762 47.8885 28.5215 47.7593C32.2715 46.6719 35.5049 45.4949 38.2617 43.7834L38.2617 48.7825L28.2339 58.5434L17.3169 48.4755C17.2271 48.3927 17.1299 48.3229 17.0273 48.266ZM43.2471 53.3226C43.2671 53.4244 43.2842 53.5262 43.2983 53.6281C43.4907 55.0096 43.1289 56.479 41.9512 57.535C40.7729 58.5909 39.1699 58.8825 37.6777 58.6659L37.6694 58.6647C37.6992 58.7908 37.7251 58.9169 37.7461 59.0429C37.9888 60.4794 37.668 62.0302 36.438 63.1325C35.208 64.2348 33.5181 64.4866 31.9678 64.222C30.6362 63.9947 29.3037 63.3798 28.1577 62.457C27.2295 63.168 26.2065 63.6926 25.1685 63.9875C23.5552 64.4459 21.7354 64.3793 20.3335 63.3322C18.9312 62.2851 18.4819 60.6575 18.6328 59.1068C18.6538 58.8915 18.686 58.6746 18.73 58.4569C17.2847 58.7717 15.7061 58.5999 14.4648 57.6731C13.1987 56.7277 12.6934 55.3019 12.7495 53.9064C12.7827 53.0805 13.0098 52.2356 13.4126 51.4299C7.07715 56.0997 3.00488 63.5679 3.00488 72.0165L3.00488 93.504L4.64355 96.8565L12.019 96.8565L12.019 89.5445L9.02734 67.107C8.91797 66.2845 9.49561 65.5288 10.3184 65.4192C11.1406 65.3095 11.8965 65.8874 12.0059 66.7098L15.0239 89.345L15.0239 96.1552L40.0645 96.1552L40.0645 89.345L43.0762 66.7562C43.0605 66.5956 43.0703 66.4296 43.1094 66.2636C43.2993 65.4559 44.1084 64.9552 44.916 65.1452L67.8755 70.5474L61.6602 51.0739L55.041 53.7216L59.6704 59.4033C61.5337 61.6902 58.5996 64.7552 56.2334 62.9934L43.2471 53.3226ZM16.647 51.9455L19.7524 54.8092C19.2173 55.24 18.6382 55.5147 18.105 55.6384C17.3638 55.8105 16.8042 55.6815 16.4478 55.4152C16.0913 55.1489 15.8379 54.6708 15.8662 53.9667C15.8911 53.3526 16.1372 52.6314 16.647 51.9455ZM36.2085 54.9742C36.8511 55.4553 37.543 55.731 38.1567 55.82C38.915 55.9302 39.4521 55.7527 39.771 55.4667C40.0903 55.1808 40.2979 54.6909 40.2002 53.9883C40.1152 53.379 39.8003 52.6802 39.2256 52.0374L36.2085 54.9742ZM22.4512 57.2978C22.0303 58.0038 21.7988 58.7054 21.7393 59.3184C21.6504 60.2341 21.9414 60.7947 22.3159 61.0743C22.6904 61.354 23.3457 61.5001 24.2983 61.2295C24.8066 61.0851 25.3521 60.8305 25.8872 60.4667L22.4512 57.2978ZM30.5132 60.5182L33.6592 57.4559C34.2271 58.1359 34.5537 58.8531 34.6597 59.48C34.7925 60.2662 34.5732 60.7819 34.2583 61.0643C33.9429 61.3466 33.3779 61.5341 32.5298 61.3892C31.8994 61.2816 31.1899 60.9954 30.5132 60.5182ZM34.8125 124.701L40.0645 124.701L40.0645 99.16L15.0239 99.16L15.0244 123.7L20.5166 123.7L25.585 104.808C25.7476 104.154 26.3628 103.671 27.0356 103.667C27.6934 103.663 28.2959 104.11 28.4844 104.743L34.8125 124.701ZM8.65381 108.976C6.36768 106.482 5.08252 103.26 5.01123 99.8613L9.51514 99.8613L9.51514 103.467C9.51514 104.85 10.6362 105.971 12.019 105.971L12.019 108.976L8.65381 108.976ZM16.3262 139.926L16.3262 126.704L19.3311 126.704L19.3311 139.926L16.3262 139.926ZM36.0581 127.706L36.0581 139.926L39.063 139.926L39.063 127.706L36.0581 127.706ZM16.3262 145.664L16.3262 142.931L19.3311 142.931L19.3311 150.443L8.76221 150.443L14.7715 147.981C15.7119 147.596 16.3262 146.681 16.3262 145.664ZM36.0581 150.443L36.0581 142.931L39.063 142.931L39.063 145.664C39.063 146.681 39.6777 147.596 40.6182 147.981L46.627 150.443L36.0581 150.443Z" fill-rule="evenodd" fill="#080A0D"/>
	<path id="Deaf" d="M19.3565 172.532C19.6765 172.532 21.4845 172.532 21.8525 172.548C26.2685 172.612 28.0765 174.628 28.0765 178.372C28.0765 182.372 26.0285 184.404 21.6925 184.404L19.3405 184.404C19.1965 184.404 19.1165 184.34 19.1165 184.148L19.1165 172.756C19.1165 172.612 19.1805 172.532 19.3565 172.532ZM20.8125 173.7C20.6845 173.7 20.6525 173.78 20.6525 173.924L20.6525 183.076C20.6525 183.204 20.7005 183.252 20.8445 183.252L21.4525 183.252C24.9725 183.252 26.4765 181.956 26.4765 178.452C26.4765 174.804 24.9085 173.7 21.5325 173.7L20.8125 173.7ZM31.2393 180.692C31.2393 182.26 32.4713 183.54 34.0393 183.54C35.1113 183.54 35.9273 183.108 36.5353 182.212C36.6153 182.132 36.6633 182.116 36.7593 182.164L37.4313 182.5C37.5113 182.548 37.5273 182.628 37.4633 182.724C36.6153 184.02 35.4953 184.564 33.9113 184.564C31.5433 184.564 29.8473 182.804 29.8473 180.244C29.8473 177.476 31.6073 175.764 33.8953 175.764C36.2153 175.764 37.7513 177.364 37.7513 180.1C37.7513 180.276 37.7673 180.452 37.5113 180.452L31.3833 180.452C31.2873 180.452 31.2393 180.548 31.2393 180.692ZM31.2713 179.572L36.1353 179.572C36.3593 179.572 36.4073 179.54 36.4073 179.348C36.4073 177.972 35.4953 176.724 33.9273 176.724C32.2153 176.724 31.2553 178.148 31.2713 179.572ZM44.5202 183.38C43.7202 184.148 42.8082 184.564 41.6722 184.564C40.0242 184.564 39.0002 183.652 39.0002 182.244C39.0002 180.548 40.4882 179.54 43.2242 179.364L44.4722 179.268C44.6162 179.252 44.7282 179.188 44.7282 179.028L44.7282 178.596C44.7282 177.444 43.9602 176.724 42.7442 176.724C41.8162 176.724 41.0482 177.14 40.4562 178.004C40.3762 178.116 40.3442 178.148 40.2162 178.1L39.3522 177.812C39.2722 177.78 39.2402 177.716 39.3202 177.556C39.9442 176.452 41.1282 175.764 42.8082 175.764C44.9202 175.764 46.0242 176.82 46.0242 178.5L46.0242 184.164C46.0242 184.356 45.9602 184.404 45.8162 184.404L45.0002 184.404C44.8562 184.404 44.7922 184.308 44.7762 184.148L44.7602 183.412C44.7282 183.268 44.6482 183.252 44.5202 183.38ZM44.7282 180.34C44.7282 180.148 44.6642 180.084 44.5042 180.084L43.4482 180.18C41.4802 180.308 40.3442 180.948 40.3442 182.084C40.3442 183.012 41.0482 183.572 42.1522 183.572C42.8242 183.572 43.4802 183.3 43.9602 182.916C44.4402 182.532 44.7282 182.084 44.7282 181.668L44.7282 180.34ZM52.4907 175.924C52.5867 175.924 52.6507 175.988 52.6507 176.084L52.6507 176.772C52.6507 176.884 52.5867 176.916 52.4907 176.916L50.6667 176.916C50.5867 176.916 50.5387 176.964 50.5387 177.06L50.5387 184.18C50.5387 184.34 50.4747 184.404 50.3467 184.404L49.3707 184.404C49.2427 184.404 49.1947 184.34 49.1947 184.196L49.1947 177.044C49.1947 176.964 49.1627 176.916 49.0827 176.916L47.5147 176.916C47.4027 176.916 47.3547 176.884 47.3547 176.772L47.3547 176.084C47.3547 175.988 47.4027 175.924 47.5307 175.924L49.0507 175.924C49.1627 175.924 49.1947 175.876 49.1947 175.764L49.1947 174.596C49.1947 173.252 49.8507 172.532 51.1947 172.532L52.5227 172.532C52.6667 172.532 52.7307 172.596 52.7307 172.724L52.7307 173.348C52.7307 173.444 52.6667 173.508 52.5547 173.508L51.4347 173.508C50.7627 173.508 50.5067 173.94 50.5067 174.66L50.5067 175.78C50.5067 175.892 50.5547 175.924 50.6507 175.924L52.4907 175.924Z" fill-rule="evenodd" fill="#080A0D"/>
</svg>
