<svg width="85.000000" height="183.754089" viewBox="0 0 85 183.754" fill="none" xmlns="http://www.w3.org/2000/svg" xmlns:xlink="http://www.w3.org/1999/xlink">
	<desc>
			Created with Pixso.
	</desc>
	<defs/>
	<path id="Hearing aid" d="M61.4336 19.8627C61.4336 19.8634 61.4302 19.8643 60.4751 19.8911L61.4336 19.8644C61.4429 20.2009 61.3374 20.514 61.1523 20.766C61.3066 21.0801 61.4023 21.4286 61.4263 21.798L61.9199 29.5195C62.0244 31.1489 60.7905 32.3014 59.4214 32.4326C59.1348 32.6858 58.8203 32.9104 58.4751 33.0966C57.1279 33.8235 55.5518 33.8376 53.8965 33.0869C53.1641 32.7546 52.8394 31.8915 53.1719 31.1589C53.5039 30.4264 54.3672 30.1018 55.0996 30.4341C55.6016 30.6616 56.0068 30.7411 56.3398 30.7323L31.6187 6.01123C29.5146 7.52148 28.0317 9.43237 26.9829 11.3732C25.8252 13.5157 25.2095 15.6737 24.8848 17.3065C24.7231 18.1198 24.6357 18.7939 24.5884 19.259C24.5649 19.4913 24.5518 19.6707 24.5444 19.7883C24.541 19.847 24.5386 19.8904 24.5376 19.917L24.5366 19.9314C24.5391 25.9181 25.2451 29.9607 27.019 33.2312C27.5747 34.2557 28.2451 35.2225 29.0532 36.1611L30.7202 32.4941C31.1143 31.6276 31.978 31.0712 32.9302 31.0712L40.2588 31.0712C41.4033 31.0712 42.3926 31.8708 42.6323 32.99L43.7461 38.1876C43.8472 38.6605 43.8032 39.1343 43.6416 39.5591C47.2646 38.0752 50.8613 36.2574 53.2275 34.3149C53.8491 33.8046 54.7671 33.8948 55.2773 34.5165C55.7749 35.1222 55.7017 36.009 55.1226 36.5262L55.1226 42.2374C55.1226 42.4077 55.0933 42.5712 55.0396 42.723C55.0933 42.8749 55.1226 43.0383 55.1226 43.2086C55.1226 43.7831 55.0645 44.348 54.9536 44.8997C63.1978 49.4065 69.6333 58.1079 70.1406 68.1481C70.1616 68.2467 70.1729 68.349 70.1729 68.4539L70.1729 69.3639C70.1729 69.3843 70.1729 69.4047 70.1729 69.425L70.1729 70.396L70.1729 70.4109L70.1729 73.2937L70.1729 73.2992L70.1729 73.309L70.1729 101.046C70.1729 101.379 70.1045 101.708 69.9722 102.012L68.9468 104.376C68.562 105.263 67.687 105.837 66.7202 105.837L60.9487 105.837C59.6079 105.837 58.521 104.75 58.521 103.409L58.521 99.8322C58.521 99.0042 58.9434 98.2332 59.6411 97.7871L61.3452 96.6975L59.3604 78.4471L57.5493 121.91C57.5317 122.407 57.2651 122.841 56.8706 123.09L56.8706 146.327C56.8706 147.667 55.7837 148.754 54.4429 148.754L42.5 148.754C41.1592 148.754 40.0728 147.667 40.0728 146.327L40.0728 145.813C40.0728 144.828 40.668 143.94 41.5801 143.567L48.1318 140.883L48.1318 123.301C47.4751 123.214 46.957 122.689 46.8794 122.029L43.7451 99.2334L42.1636 99.2334L39.084 121.63C39.0957 121.704 39.1016 121.78 39.1016 121.858C39.1016 122.377 38.8306 122.832 38.4219 123.09L38.4219 146.327C38.4219 147.667 37.335 148.754 35.9941 148.754L24.0513 148.754C22.7104 148.754 21.624 147.667 21.624 146.327L21.624 145.813C21.624 144.828 22.2192 143.94 23.1313 143.567L29.6831 140.883L29.6831 123.301C28.9707 123.206 28.4209 122.596 28.4209 121.858L28.4209 88.2141L20.7231 89.6758C20.5737 89.7041 20.4224 89.7183 20.2705 89.7183L19.1963 89.7183C17.856 89.7183 16.769 88.6316 16.769 87.2909L16.769 77.1442C15.6611 76.9192 14.8271 75.9396 14.8271 74.7653L14.8271 69.4297L14.8271 69.4252L14.8271 68.4539C14.8271 68.3567 14.8369 68.2617 14.855 68.1699C15.293 58.2531 20.9014 49.7377 29.1172 45.178C28.979 44.5372 28.9062 43.8789 28.9062 43.2086C28.9062 43.0383 28.9355 42.8749 28.9893 42.723C28.9355 42.5712 28.9062 42.4077 28.9062 42.2374L28.9062 40.1691C27.0376 38.4666 25.5688 36.6672 24.4585 34.62C24.2007 34.145 23.9639 33.6593 23.7466 33.1615C21.1582 33.2755 19.5264 31.3696 18.6724 29.4872C17.3745 26.6255 18.981 23.4569 21.6504 21.8729C21.6323 21.2362 21.624 20.5822 21.624 19.9098L21.624 19.8979C21.624 19.8807 21.6245 19.8635 21.625 19.8464L21.6255 19.8392C21.626 19.8263 21.6265 19.8091 21.6274 19.7875C21.6294 19.7443 21.6323 19.684 21.6372 19.6077C21.6465 19.455 21.6631 19.2379 21.6904 18.9658C21.7456 18.422 21.8457 17.6549 22.0278 16.7386C22.3911 14.9122 23.0859 12.4581 24.4199 9.98853C25.7578 7.51306 27.7495 5.00134 30.7065 3.11182C33.1562 1.54639 36.2139 0.443359 40.0083 0.107422C40.1777 0.038208 40.3633 0 40.5581 0C40.8867 0 41.2109 0.00537109 41.5298 0.0157471C41.8481 0.00537109 42.1719 0 42.5 0C42.6943 0 42.8799 0.038208 43.0498 0.1073C46.8442 0.443237 49.9014 1.54639 52.3516 3.11182C55.3086 5.00122 57.3003 7.51306 58.6377 9.9884C59.9722 12.458 60.667 14.9121 61.0303 16.7385C61.2124 17.6549 61.3125 18.4219 61.3677 18.9657C61.395 19.2379 61.4116 19.455 61.4209 19.6075C61.4258 19.684 61.4287 19.7443 61.4307 19.7874L61.4321 19.8181L61.4326 19.8391L61.4331 19.8551L61.4336 19.8606L61.4336 19.8627ZM56.3442 19.2296L41.7695 2.94031C45.6382 3.11829 48.5605 4.14636 50.7827 5.56641C53.2393 7.13599 54.9204 9.23633 56.0752 11.3732C57.2329 13.5156 57.8486 15.6737 58.1729 17.3064C58.3315 18.1027 58.4189 18.7657 58.4663 19.2296L56.3442 19.2296ZM58.5415 28.2782L34.6108 4.34729C35.5596 3.95081 36.605 3.62097 37.7578 3.37805C37.7935 3.42859 37.8325 3.47754 37.8745 3.52478L54.0542 21.6077C54.5747 22.1895 55.3184 22.5219 56.0986 22.5219L58.1733 22.5219L58.5415 28.2782ZM29.8774 25.2454C29.8774 26.0497 29.2251 26.7018 28.4209 26.7018C27.6162 26.7018 26.9644 26.0497 26.9644 25.2454C26.9644 24.4409 27.6162 23.7888 28.4209 23.7888C29.2251 23.7888 29.8774 24.4409 29.8774 25.2454ZM46.8696 26.7018C47.6738 26.7018 48.3257 26.0497 48.3257 25.2454C48.3257 24.4409 47.6738 23.7888 46.8696 23.7888C46.0649 23.7888 45.4131 24.4409 45.4131 25.2454C45.4131 26.0497 46.0649 26.7018 46.8696 26.7018ZM21.3257 28.2841C20.9751 27.512 21.1318 26.4027 21.873 25.4547C22.0391 27.0854 22.2954 28.5927 22.6621 30.0013C22.1758 29.7125 21.7231 29.1611 21.3257 28.2841ZM31.7158 37.3433L33.2427 33.9841L39.8662 33.9841L40.8086 38.3821L35.9023 40.1343L31.7158 37.3433ZM33.2759 36.4117C33.2759 35.6073 33.9277 34.9552 34.7324 34.9552L37.645 34.9552C38.4497 34.9552 39.1016 35.6073 39.1016 36.4117C39.1016 37.2161 38.4497 37.8682 37.645 37.8682L34.7324 37.8682C33.9277 37.8682 33.2759 37.2161 33.2759 36.4117ZM31.7939 42.5089C31.7803 42.5824 31.7607 42.6539 31.7363 42.723C31.79 42.8749 31.8193 43.0383 31.8193 43.2086C31.8193 47.3007 36.0728 51.4619 41.7769 51.4619C44.5825 51.4619 47.231 50.4292 49.1631 48.8439C51.105 47.2501 52.21 45.2041 52.21 43.2086C52.21 43.0383 52.2388 42.8749 52.2925 42.723C52.2388 42.5712 52.21 42.4077 52.21 42.2374L52.21 38.5739C47.5679 41.4109 41.3047 43.7094 37.0112 44.9717C36.3384 45.1694 35.6226 45.0597 35.0459 44.698C33.8765 43.9646 32.7939 43.2393 31.7939 42.5089ZM56.5947 75.0394C56.5845 74.9495 56.5791 74.8579 56.5791 74.7653L56.5791 68.4539C56.5791 67.6495 57.2314 66.9974 58.0356 66.9974C58.8398 66.9974 59.4922 67.6495 59.4922 68.4539L59.4922 74.2798L67.2598 74.2798L67.2598 69.3678C67.2363 60.1948 61.5381 51.981 53.9233 47.66C53.2021 48.9585 52.1943 50.1245 51.0107 51.0957C48.5752 53.0944 45.2783 54.3749 41.7769 54.3749C36.7749 54.3749 32.2715 51.7081 30.165 47.9319C22.7017 52.2384 17.7471 60.2126 17.7402 69.406L17.7402 74.2798L25.5078 74.2798L25.5078 68.4539C25.5078 67.6495 26.1602 66.9974 26.9644 66.9974C27.7686 66.9974 28.4209 67.6495 28.4209 68.4539L28.4209 74.7653C28.4209 75.5607 28.0381 76.2668 27.4473 76.7095C27.4487 76.7482 27.4497 76.787 27.4497 76.8262L27.4497 79.4259L34.0186 79.4259L37.6592 74.7336C38.1191 74.141 38.8271 73.7943 39.5771 73.7943L41.8687 73.7943C42.999 73.7943 43.9453 74.5824 44.1875 75.6392L45.5103 75.6392C46.8506 75.6392 47.9375 76.726 47.9375 78.0665L47.9375 82.5062C47.9375 83.4379 47.4043 84.2872 46.5654 84.6923L44.2529 85.8086L44.2061 85.8274C42.5737 86.4802 40.8364 86.8054 39.1016 86.8054L35.8403 86.8054L31.334 87.661L31.334 96.3204L55.3169 96.3204C55.4487 96.3204 55.5767 96.3379 55.6982 96.3708L56.5806 75.1897C56.5825 75.1389 56.5874 75.0887 56.5947 75.0394ZM19.6821 86.8054L19.6821 77.4304L24.5371 77.3225L24.5371 79.9114C24.5371 81.2521 25.6235 82.3389 26.9644 82.3389L34.2563 82.3389C35.0068 82.3389 35.7148 81.9921 36.1743 81.3994L39.8149 76.7072L41.395 76.7072C41.6372 77.7639 42.5835 78.552 43.7139 78.552L45.0244 78.552L45.0244 82.2015L43.0791 83.1407C41.811 83.6411 40.4575 83.8925 39.1016 83.8925L35.7944 83.8925C35.6426 83.8925 35.4907 83.9067 35.3418 83.9351L20.2246 86.8054L19.6821 86.8054ZM59.4106 77.2334C59.4165 77.2197 59.4224 77.2062 59.4287 77.1927L59.4126 77.1927L59.4106 77.2334ZM62.2026 77.6387C62.1851 77.4801 62.1431 77.3303 62.0806 77.1927L67.2603 77.1927L67.2603 100.945L66.4014 102.924L61.4341 102.924L61.4341 100.098L63.168 98.9894C63.9448 98.4927 64.373 97.5985 64.2734 96.6819L62.2026 77.6387ZM54.6968 120.401L49.5962 120.401L46.6855 99.2334L55.3169 99.2334C55.4067 99.2334 55.4946 99.2252 55.5796 99.2097L54.6968 120.401ZM36.3125 120.401L39.2231 99.2334L31.334 99.2334L31.334 120.401L36.3125 120.401ZM35.5088 123.314L32.5957 123.314L32.5957 135.646L35.5088 135.646L35.5088 123.314ZM53.9575 123.314L51.0444 123.314L51.0444 135.646L53.9575 135.646L53.9575 123.314ZM32.5957 138.559L35.5088 138.559L35.5088 145.841L25.2632 145.841L31.0889 143.455C32.0005 143.081 32.5957 142.194 32.5957 141.208L32.5957 138.559ZM53.9575 138.559L53.9575 145.841L43.7119 145.841L49.5376 143.455C50.4492 143.081 51.0444 142.194 51.0444 141.208L51.0444 138.559L53.9575 138.559Z" fill-rule="evenodd" fill="#080A0D"/>
	<path id="Hearing aid" d="M8.528 174.158L3.216 174.158C3.136 174.158 3.088 174.222 3.088 174.286L3.088 179.47C3.088 179.646 3.008 179.71 2.816 179.71L1.776 179.71C1.6 179.71 1.552 179.646 1.552 179.486L1.552 168.062C1.552 167.902 1.616 167.838 1.744 167.838L2.896 167.838C3.024 167.838 3.088 167.902 3.088 168.046L3.088 172.75C3.088 172.894 3.136 172.942 3.264 172.942L8.512 172.942C8.624 172.942 8.672 172.878 8.672 172.75L8.672 168.03C8.672 167.902 8.736 167.838 8.848 167.838L10.016 167.838C10.16 167.838 10.208 167.902 10.208 168.062L10.208 179.486C10.208 179.646 10.144 179.71 9.984 179.71L8.944 179.71C8.752 179.71 8.672 179.646 8.672 179.47L8.672 174.302C8.672 174.206 8.624 174.158 8.528 174.158ZM13.8936 175.998C13.8936 177.566 15.1256 178.846 16.6936 178.846C17.7656 178.846 18.5816 178.414 19.1896 177.518C19.2696 177.438 19.3176 177.422 19.4136 177.47L20.0856 177.806C20.1656 177.854 20.1816 177.934 20.1176 178.03C19.2696 179.326 18.1496 179.87 16.5656 179.87C14.1976 179.87 12.5016 178.11 12.5016 175.55C12.5016 172.782 14.2616 171.07 16.5496 171.07C18.8696 171.07 20.4056 172.67 20.4056 175.406C20.4056 175.582 20.4216 175.758 20.1656 175.758L14.0376 175.758C13.9416 175.758 13.8936 175.854 13.8936 175.998ZM13.9256 174.878L18.7896 174.878C19.0136 174.878 19.0616 174.846 19.0616 174.654C19.0616 173.278 18.1496 172.03 16.5816 172.03C14.8696 172.03 13.9096 173.454 13.9256 174.878ZM27.1745 178.686C26.3745 179.454 25.4625 179.87 24.3265 179.87C22.6785 179.87 21.6545 178.958 21.6545 177.55C21.6545 175.854 23.1425 174.846 25.8785 174.67L27.1265 174.574C27.2705 174.558 27.3825 174.494 27.3825 174.334L27.3825 173.902C27.3825 172.75 26.6145 172.03 25.3985 172.03C24.4705 172.03 23.7025 172.446 23.1105 173.31C23.0305 173.422 22.9985 173.454 22.8705 173.406L22.0065 173.118C21.9265 173.086 21.8945 173.022 21.9745 172.862C22.5985 171.758 23.7825 171.07 25.4625 171.07C27.5745 171.07 28.6785 172.126 28.6785 173.806L28.6785 179.47C28.6785 179.662 28.6145 179.71 28.4705 179.71L27.6545 179.71C27.5105 179.71 27.4465 179.614 27.4305 179.454L27.4145 178.718C27.3825 178.574 27.3025 178.558 27.1745 178.686ZM27.3825 175.646C27.3825 175.454 27.3185 175.39 27.1585 175.39L26.1025 175.486C24.1345 175.614 22.9985 176.254 22.9985 177.39C22.9985 178.318 23.7025 178.878 24.8065 178.878C25.4785 178.878 26.1345 178.606 26.6145 178.222C27.0945 177.838 27.3825 177.39 27.3825 176.974L27.3825 175.646ZM31.2841 179.71C31.1241 179.71 31.0601 179.646 31.0601 179.502L31.0601 171.438C31.0601 171.294 31.1241 171.23 31.2361 171.23L32.1641 171.23C32.2921 171.23 32.3401 171.294 32.3401 171.406L32.3401 172.446C32.3401 172.574 32.4201 172.606 32.5161 172.494C33.3481 171.518 34.1641 171.07 34.9961 171.07C35.3801 171.07 35.5561 171.134 35.5561 171.278L35.5561 172.238C35.5561 172.334 35.5081 172.382 35.4121 172.366C35.2201 172.334 34.9641 172.318 34.6921 172.318C33.7481 172.318 32.4041 173.246 32.4041 174.174L32.4041 179.47C32.4041 179.646 32.3241 179.71 32.1641 179.71L31.2841 179.71ZM38.5931 168.078L38.5931 169.406C38.5931 169.598 38.5291 169.71 38.3051 169.71L37.3771 169.71C37.1851 169.71 37.1371 169.598 37.1371 169.438L37.1371 168.094C37.1371 167.934 37.2171 167.838 37.3611 167.838L38.3691 167.838C38.4971 167.838 38.5931 167.934 38.5931 168.078ZM38.5291 171.438L38.5291 179.438C38.5291 179.646 38.4651 179.71 38.2411 179.71L37.4251 179.71C37.2331 179.71 37.1851 179.646 37.1851 179.486L37.1851 171.454C37.1851 171.294 37.2491 171.23 37.3771 171.23L38.3531 171.23C38.4811 171.23 38.5291 171.294 38.5291 171.438ZM41.2373 179.71C41.0773 179.71 41.0132 179.646 41.0132 179.502L41.0132 171.438C41.0132 171.31 41.0773 171.23 41.1893 171.23L42.1493 171.23C42.2612 171.23 42.3252 171.294 42.3252 171.406L42.3252 172.334C42.3252 172.446 42.3573 172.478 42.4692 172.382C43.5413 171.55 44.2933 171.07 45.4132 171.07C47.0612 171.07 47.9893 172.046 47.9893 173.486L47.9893 179.454C47.9893 179.63 47.9092 179.71 47.7493 179.71L46.8532 179.71C46.7093 179.71 46.6452 179.646 46.6452 179.502L46.6452 173.79C46.6452 172.75 46.1333 172.126 44.9813 172.126C44.0213 172.126 43.3652 172.558 42.3573 173.422L42.3573 179.47C42.3573 179.646 42.2933 179.71 42.1172 179.71L41.2373 179.71ZM58.021 171.086C58.229 171.086 58.325 171.166 58.325 171.342L58.325 171.902C58.325 172.11 58.245 172.206 58.005 172.19C57.653 172.19 57.413 172.222 57.173 172.334C56.885 172.446 56.805 172.558 56.853 172.702C56.949 172.942 57.125 173.246 57.125 173.79C57.125 175.214 56.021 176.366 53.653 176.366C52.021 176.366 51.525 176.702 51.525 177.054C51.525 177.39 51.957 177.518 52.981 177.582L55.045 177.694C56.933 177.806 57.765 178.638 57.765 179.918C57.765 181.534 56.309 182.51 53.669 182.51C50.965 182.51 49.509 181.71 49.509 180.254C49.509 179.502 50.037 178.926 51.013 178.446C51.125 178.398 51.125 178.334 51.013 178.27C50.533 178.062 50.277 177.758 50.277 177.326C50.277 176.862 50.709 176.414 51.541 176.126C51.653 176.094 51.653 176.014 51.541 175.934C50.613 175.454 50.165 174.782 50.165 173.79C50.165 172.142 51.461 171.102 53.781 171.102C54.885 171.102 55.637 171.374 56.181 171.822C56.309 171.934 56.405 171.918 56.517 171.822C56.869 171.486 57.461 171.086 58.021 171.086ZM53.653 175.518C55.157 175.518 55.861 174.878 55.861 173.774C55.861 172.638 55.125 171.95 53.653 171.95C52.229 171.95 51.413 172.654 51.413 173.774C51.413 174.878 52.213 175.518 53.653 175.518ZM54.917 178.83L52.245 178.67C51.685 178.638 50.709 179.23 50.709 180.094C50.709 181.102 51.749 181.678 53.813 181.678C55.573 181.678 56.517 181.166 56.517 180.078C56.517 179.358 56.085 178.894 54.917 178.83ZM68.2995 178.686C67.4995 179.454 66.5875 179.87 65.4515 179.87C63.8035 179.87 62.7795 178.958 62.7795 177.55C62.7795 175.854 64.2675 174.846 67.0035 174.67L68.2515 174.574C68.3955 174.558 68.5075 174.494 68.5075 174.334L68.5075 173.902C68.5075 172.75 67.7395 172.03 66.5235 172.03C65.5955 172.03 64.8275 172.446 64.2355 173.31C64.1555 173.422 64.1235 173.454 63.9955 173.406L63.1315 173.118C63.0515 173.086 63.0195 173.022 63.0995 172.862C63.7235 171.758 64.9075 171.07 66.5875 171.07C68.6995 171.07 69.8035 172.126 69.8035 173.806L69.8035 179.47C69.8035 179.662 69.7395 179.71 69.5955 179.71L68.7795 179.71C68.6355 179.71 68.5715 179.614 68.5555 179.454L68.5395 178.718C68.5075 178.574 68.4275 178.558 68.2995 178.686ZM68.5075 175.646C68.5075 175.454 68.4435 175.39 68.2835 175.39L67.2275 175.486C65.2595 175.614 64.1235 176.254 64.1235 177.39C64.1235 178.318 64.8275 178.878 65.9315 178.878C66.6035 178.878 67.2595 178.606 67.7395 178.222C68.2195 177.838 68.5075 177.39 68.5075 176.974L68.5075 175.646ZM73.5931 168.078L73.5931 169.406C73.5931 169.598 73.5291 169.71 73.3051 169.71L72.3771 169.71C72.1851 169.71 72.1371 169.598 72.1371 169.438L72.1371 168.094C72.1371 167.934 72.2171 167.838 72.3611 167.838L73.3691 167.838C73.4971 167.838 73.5931 167.934 73.5931 168.078ZM73.5291 171.438L73.5291 179.438C73.5291 179.646 73.4651 179.71 73.2411 179.71L72.4251 179.71C72.2331 179.71 72.1851 179.646 72.1851 179.486L72.1851 171.454C72.1851 171.294 72.2491 171.23 72.3771 171.23L73.3531 171.23C73.4811 171.23 73.5291 171.294 73.5291 171.438ZM82.0452 179.71C81.9013 179.71 81.8213 179.63 81.8213 179.486L81.8213 178.798C81.8213 178.638 81.7412 178.622 81.6133 178.734C81.2452 179.102 80.4932 179.87 79.1012 179.87C77.1012 179.87 75.5492 178.446 75.5492 175.598C75.5492 172.878 77.1012 171.07 79.2933 171.07C80.3333 171.07 81.0052 171.47 81.5332 171.918C81.7253 172.078 81.7893 172.03 81.7893 171.806L81.7893 168.046C81.7893 167.902 81.8372 167.838 81.9652 167.838L82.9413 167.838C83.0533 167.838 83.1172 167.902 83.1172 168.046L83.1172 179.454C83.1172 179.646 83.0693 179.71 82.8613 179.71L82.0452 179.71ZM81.7732 173.102C81.1172 172.446 80.4613 172.062 79.6133 172.062C78.0452 172.062 76.9252 173.278 76.9252 175.55C76.9252 177.902 78.1093 178.894 79.5173 178.894C80.8132 178.894 81.7732 177.838 81.7732 176.958L81.7732 173.102Z" fill-rule="evenodd" fill="#080A0D"/>
</svg>
