<svg width="144.734863" height="189.369263" viewBox="0 0 144.735 189.369" fill="none" xmlns="http://www.w3.org/2000/svg" xmlns:xlink="http://www.w3.org/1999/xlink">
	<desc>
			Created with Pixso.
	</desc>
	<defs/>
	<path id="Foreign languages" d="M140.707 22.9318C140.274 22.6879 139.827 22.4396 139.379 22.191C136.866 20.795 134.345 19.3948 134.345 18.7631C134.345 18.7406 134.348 18.7191 134.355 18.6986C134.799 17.296 135.034 15.8387 135.034 14.3677C135.034 13.0088 134.834 11.6382 134.415 10.2882C131.939 2.32117 122.762 -1.90955 113.916 0.838623C106.569 3.12122 101.762 9.5 101.762 16.1608C101.762 17.5197 101.962 18.8904 102.382 20.2404C104.857 28.2074 114.034 32.438 122.88 29.6898C125.942 28.7385 128.563 27.0754 130.579 24.9771C130.986 24.5533 134.12 24.9495 137.297 25.351C138.153 25.4591 139.012 25.5676 139.821 25.6606C140.441 25.7319 141.033 25.7941 141.572 25.84C143.073 25.9678 144.166 25.9692 144.338 25.6891C144.358 25.6565 144.368 25.6206 144.368 25.5818C144.368 25.2124 143.484 24.5721 142.241 23.8215C141.771 23.5378 141.25 23.2383 140.707 22.9318ZM122.046 27.006C114.412 29.3779 107 25.634 105.065 19.4065C104.739 18.3547 104.581 17.2727 104.581 16.1895C104.581 10.8584 108.405 5.49377 114.75 3.52246C122.384 1.15063 129.796 4.89441 131.73 11.1221C132.063 12.1926 132.224 13.2826 132.224 14.3685C132.224 15.5433 132.036 16.7135 131.676 17.8494C131.573 18.1722 131.533 18.4786 131.533 18.7615C131.533 19.5205 131.824 20.1106 131.994 20.3962C132.251 20.8309 132.571 21.1558 132.788 21.3575C133.069 21.6196 133.396 21.8717 133.729 22.1055C133.555 22.0892 133.386 22.0743 133.222 22.0609C132.55 22.0065 131.869 21.9701 131.286 21.9905C131.001 22.0004 130.642 22.0265 130.277 22.1044C130.039 22.1553 129.221 22.334 128.552 23.0302C126.865 24.7863 124.655 26.1956 122.046 27.006ZM84.6416 4.5343C73.8838 3.34167 65.9092 3.11816 60.3804 4.5155C57.582 5.22266 55.3145 6.36694 53.6299 8.09302C51.936 9.82861 50.938 12.043 50.4946 14.6974C50.4731 14.8269 50.4624 14.9546 50.4624 15.08C50.4624 16.0647 51.105 16.8971 51.9839 17.2123L51.2729 23.442C51.2627 23.5337 51.2573 23.6246 51.2573 23.7147C51.2573 24.9082 52.1543 25.9347 53.3691 26.0695L53.5747 26.0923C53.6919 26.1052 53.8086 26.1095 53.9233 26.1053L53.9233 28.7864C53.9233 29.2122 53.9316 29.6305 53.9482 30.0417C51.5244 30.7476 49.5298 32.6531 49.5298 35.1987C49.5298 35.2621 49.5312 35.3259 49.5337 35.3901C49.6606 38.6515 52.9565 40.6671 56.1709 40.5455C56.2598 40.5421 56.3501 40.5394 56.4409 40.5367L56.4414 40.5367C56.6172 40.5315 56.7969 40.5261 56.98 40.5155C57.6299 41.5234 58.3804 42.4547 59.2285 43.3154C59.6362 43.7295 60.0649 44.1251 60.5132 44.5037C60.5034 44.5712 60.4985 44.64 60.4985 44.7101L60.4985 48.9656C60.4902 49.0269 60.4863 49.0894 60.4863 49.1528C60.4863 49.8219 60.5605 50.4783 60.7026 51.1167L54.0508 53.5564C53.625 53.7125 53.2534 53.985 52.979 54.3418L43.561 66.603L42.5005 59.2701C42.436 58.825 42.25 58.4263 41.98 58.1021L41.7163 51.6372C41.6992 51.2281 41.5767 50.8408 41.3706 50.5056C41.3257 50.1355 41.1343 49.7831 40.8086 49.5402L35.6719 45.7058C35.0376 45.2325 34.1357 45.3549 33.6577 45.979C33.4619 46.2343 33.3672 46.5339 33.3672 46.8313C33.3672 46.9966 33.3965 47.1613 33.4536 47.3171L29.2993 45.9574L26.6348 45.4244C26.0303 45.3036 24.9473 45.3761 24.3687 46.3593C24.0669 46.8718 23.8901 47.4969 23.8901 48.2113C23.8901 49.1798 24.2148 50.3126 24.9927 51.5522C25.4985 52.3584 26.292 52.9453 27.0947 53.3798C27.9136 53.823 28.8599 54.1702 29.814 54.4441C31.5503 54.9425 33.4546 55.2377 34.9829 55.3906L34.7505 57.9434L32.7056 58.222C31.5029 58.3857 30.6416 59.4001 30.6416 60.5546C30.6416 60.6969 30.6548 60.8414 30.6821 60.9867L34.1934 79.7622C34.48 81.2958 36.1665 82.1443 37.5903 81.4714L53.2339 74.0802C53.2339 74.2393 53.2334 74.4047 53.2329 74.5754C53.2319 75.0736 53.2314 75.6178 53.2314 76.1833C53.2314 77.3142 53.2339 78.5303 53.2422 79.6328C53.2549 81.4036 53.3643 82.6652 53.9551 83.8047C54.4478 84.7548 55.2534 85.5435 56.2148 86.4847C56.3296 86.597 56.4463 86.7115 56.5649 86.8287C57.791 88.0374 59.1797 88.9749 60.0029 89.4845L60.0029 127.766C59.9624 127.899 59.9409 128.039 59.9409 128.185L59.9409 133.611C59.0889 133.974 58.4917 134.818 58.4917 135.802L58.4917 141.762C57.3867 142.052 55.6035 142.597 53.9111 143.451C52.1245 144.354 50.0435 145.798 49.3765 148.005C49.1572 148.732 49.0884 149.575 49.0884 150.355C49.0884 151.133 49.1567 151.848 49.2129 152.323C49.3574 153.544 50.4009 154.37 51.5391 154.37L59.8447 154.37C60.7065 154.37 61.501 153.904 61.9219 153.152L66.4746 145.017L66.4746 152.941C66.4746 153.73 67.1143 154.37 67.9033 154.37C68.0259 154.37 68.1445 154.354 68.2583 154.325C68.3716 154.354 68.4907 154.37 68.6133 154.37C68.6958 154.37 68.7764 154.363 68.855 154.349C68.9336 154.363 69.0142 154.37 69.0962 154.37C69.8853 154.37 70.5244 153.73 70.5244 152.941L70.5244 134.865L70.5249 134.85L70.5249 128.604C70.5654 128.471 70.5869 128.331 70.5869 128.185C70.5869 128.109 70.5811 128.034 70.5698 127.961L73.6333 105.998L75.2476 105.998L78.356 128.283L78.356 152.941C78.356 153.73 78.9956 154.37 79.7842 154.37C79.8667 154.37 79.9473 154.363 80.0259 154.349C80.1045 154.363 80.1851 154.37 80.2671 154.37C80.3896 154.37 80.5088 154.354 80.6226 154.325C80.7358 154.354 80.855 154.37 80.9775 154.37C81.7661 154.37 82.4058 153.73 82.4058 152.941L82.4058 145.017L86.9585 153.152C87.3794 153.904 88.1738 154.37 89.0356 154.37L97.3413 154.37C98.48 154.37 99.5229 153.544 99.6675 152.323C99.7241 151.848 99.7925 151.133 99.7925 150.355C99.7925 149.575 99.7236 148.732 99.5039 148.005C98.8374 145.798 96.7563 144.354 94.9692 143.451C93.2773 142.597 91.4937 142.052 90.3887 141.762L90.3887 135.802C90.3887 134.818 89.7915 133.974 88.9399 133.611L88.9399 88.6211C89.5244 88.1377 90.2192 87.5286 90.9292 86.8287C91.2959 86.4673 91.5757 86.2039 91.8452 85.9507L91.8452 85.9504C92.0479 85.7603 92.2437 85.5759 92.4653 85.3605C92.9121 84.9261 93.3447 84.4733 93.7002 83.9404C94.4644 82.7969 94.7217 81.5186 94.7354 79.6328C94.7432 78.5305 94.7461 77.3146 94.7461 76.1838C94.7461 75.6182 94.7451 75.0737 94.7441 74.5754L94.7437 74.3048L109.913 81.4717C111.336 82.1445 113.023 81.2961 113.31 79.7626L116.821 60.9871C116.848 60.8417 116.861 60.6971 116.861 60.5548C116.861 59.4004 116 58.3861 114.797 58.2223L112.752 57.9437L112.52 55.3907C114.048 55.2378 115.953 54.9426 117.689 54.4442C118.643 54.1704 119.589 53.8231 120.408 53.38C121.211 52.9454 122.004 52.3585 122.51 51.5524C123.288 50.3127 123.613 49.1799 123.613 48.2114C123.613 47.4971 123.436 46.8721 123.134 46.3594C122.555 45.3762 121.473 45.3037 120.868 45.4246L118.204 45.9575L114.049 47.3173C114.106 47.1614 114.135 46.9967 114.135 46.8313C114.135 46.5339 114.041 46.2343 113.845 45.979C113.367 45.3549 112.465 45.2325 111.831 45.7058L106.694 49.5402C106.369 49.7831 106.177 50.1356 106.132 50.5057C105.926 50.8411 105.803 51.2283 105.787 51.6373L105.522 58.1027C105.253 58.4268 105.067 58.8253 105.002 59.2704L103.942 66.6034L94.5459 54.3708C94.2373 53.9692 93.8066 53.6759 93.3164 53.5334L86.1978 51.4663C86.4102 50.7206 86.5249 49.9463 86.5249 49.1528L86.5249 49.1451L86.5249 44.8856C87.1362 44.3893 87.7134 43.8624 88.2544 43.3022C89.0903 42.4365 89.8315 41.4996 90.4741 40.485C90.8013 40.5187 91.1196 40.5341 91.4219 40.5455C94.6362 40.6671 97.9321 38.6515 98.0591 35.3901C98.0615 35.3259 98.0625 35.2621 98.0625 35.1987C98.0625 32.5896 95.9673 30.6527 93.4619 29.9911C93.4697 29.7931 93.4756 29.5933 93.4795 29.3918C93.4834 29.3492 93.4854 29.3062 93.4854 29.2626L93.4854 19.2648C93.4854 19.0785 93.4497 18.9006 93.3848 18.7374C94.1055 17.9497 94.6235 16.9854 94.7544 15.8384C94.8076 15.3705 94.8374 14.9167 94.8374 14.4786C94.8374 13.3325 94.6333 12.2931 94.1123 11.3864C93.3794 10.1099 92.168 9.35071 90.7363 8.83411L90.0352 8.573C89.8447 7.25867 89.0669 6.28625 88.0737 5.64417C87.0918 5.00928 85.873 4.6709 84.6416 4.5343ZM121.971 6.66541L121.971 6.66101C121.971 5.88477 121.343 5.26721 120.566 5.28088C119.788 5.29468 119.155 5.93665 119.153 6.71497L119.147 8.42859L119.147 8.43286C119.147 9.20911 119.776 9.82666 120.552 9.81299C121.331 9.79932 121.963 9.15723 121.966 8.37891L121.971 6.66541ZM117.553 6.73901C117.553 5.96277 116.925 5.34521 116.148 5.35889C115.37 5.37256 114.737 6.01465 114.735 6.79297L114.729 8.50647L114.729 8.51086C114.729 9.28711 115.358 9.90466 116.134 9.89087C116.913 9.8772 117.545 9.23523 117.548 8.45691L117.553 6.74329L117.553 6.73901ZM54.8916 16.7931C54.8916 15.8281 54.291 14.975 53.4106 14.6361C53.8115 12.6906 54.5674 11.2159 55.6724 10.0835C56.8838 8.84241 58.6216 7.9032 61.0728 7.28369C66.0435 6.02747 73.5449 6.1781 84.3179 7.37244C85.2783 7.47888 86.0259 7.72595 86.5161 8.04309C86.9761 8.34033 87.166 8.66077 87.2104 9.01624C87.3052 9.76465 87.7451 10.7708 88.8218 11.1716L89.7456 11.5156L89.7529 11.5182C90.855 11.915 91.3657 12.3478 91.6328 12.8134C91.8379 13.1698 91.98 13.684 91.98 14.4866C91.98 14.7889 91.9595 15.1323 91.915 15.5236C91.8184 16.3724 91.0947 17.2789 89.6304 17.9734C88.2056 18.6492 86.3921 18.9536 84.8174 18.7791L74.147 17.5961C68.0635 16.9216 63.8022 16.8344 60.6128 17.7045C57.7812 18.4769 55.8745 19.9771 54.291 22.1895L54.8765 17.0591C54.8862 16.9697 54.8916 16.8809 54.8916 16.7931ZM6.02344 24.6575C5.52783 24.8033 5.03223 24.9492 4.55225 25.0938C3.95312 25.2739 3.37793 25.4523 2.85645 25.6262C1.40625 26.1097 0.367188 26.5599 0.367188 26.9274C0.367188 26.948 0.370605 26.9685 0.376953 26.9886C0.480469 27.2986 1.55566 27.5312 3.06006 27.7286C3.59619 27.799 4.18701 27.8647 4.80762 27.928C5.60986 28.0096 6.4624 28.0869 7.31152 28.1641L7.31201 28.1641C10.4995 28.4532 13.6445 28.7385 13.9414 29.236C15.4131 31.6997 17.5762 33.8707 20.3354 35.4463C28.3057 39.9977 38.2314 37.8574 42.5054 30.6656C43.8262 28.4434 44.4526 25.9987 44.4526 23.547C44.4526 18.0649 41.3203 12.5479 35.813 9.40295C27.8428 4.85156 17.917 6.99182 13.6431 14.1836C12.3223 16.4059 11.6958 18.8506 11.6958 21.3022C11.6958 21.6501 11.708 21.9983 11.7334 22.3459Q11.7339 22.353 11.7339 22.3602C11.7339 22.9773 8.87402 23.8187 6.02344 24.6575ZM40.0649 29.272C36.7061 34.9236 28.6113 36.9365 21.771 33.0304C19.4302 31.6935 17.6133 29.8625 16.3853 27.8064C15.8892 26.9766 15.1216 26.6227 14.8984 26.5211C14.5571 26.3657 14.21 26.2628 13.9331 26.1919C13.3672 26.047 12.6934 25.9365 12.0264 25.8459C11.8779 25.8258 11.7246 25.806 11.5679 25.7865C11.9502 25.6295 12.332 25.4534 12.6709 25.2576C12.9292 25.1084 13.314 24.8633 13.6631 24.5005C13.9575 24.1945 14.5654 23.4471 14.5654 22.344C14.5654 22.2725 14.563 22.1993 14.5576 22.1249C14.5371 21.8422 14.5269 21.5596 14.5269 21.2777C14.5269 19.2974 15.0322 17.3457 16.0835 15.5771C19.4419 9.92566 27.5371 7.91272 34.377 11.8188C39.0981 14.5149 41.6118 19.1113 41.6118 23.5587C41.6118 25.5551 41.1055 27.5212 40.0649 29.272ZM118.304 23.0083C121.964 22.9438 124.939 20.0145 124.95 16.4656L124.95 16.4465C124.95 12.9065 121.996 10.092 118.343 10.1564C114.683 10.2208 111.707 13.15 111.697 16.699L111.696 16.718C111.696 20.2581 114.651 23.0726 118.304 23.0083ZM122.132 16.5153C122.126 18.4261 120.499 20.1514 118.312 20.1898C116.13 20.2283 114.515 18.5662 114.515 16.6594L114.515 16.6494C114.521 14.7385 116.148 13.0133 118.334 12.9747C120.517 12.9363 122.132 14.5985 122.132 16.5051L122.132 16.5153ZM26.1699 16.0608L26.6836 16.4667C27.3003 16.9536 28.187 16.858 28.6646 16.2529C28.8643 16.0002 28.9609 15.6989 28.9609 15.3978C28.9609 14.9779 28.7729 14.5591 28.4136 14.2754L27.5371 13.5825C26.5273 12.7845 25.0771 12.9233 24.2705 13.8951L23.5703 14.7389C23.3569 14.9958 23.2529 15.3081 23.2529 15.6202C23.2529 16.0286 23.4307 16.4368 23.7734 16.7209C24.3779 17.2225 25.2671 17.1482 25.7598 16.5551L26.1699 16.0608ZM25.3887 17.9492C24.1885 18.0641 23.3027 19.0615 23.3027 20.2366C23.3027 20.3256 23.3081 20.4156 23.3184 20.5063L24.2856 28.9408C24.4336 30.2295 25.6006 31.1741 26.8916 31.0505L31.2432 30.634C31.9634 30.5652 32.4946 29.9667 32.4946 29.2617C32.4946 29.2083 32.4917 29.1543 32.4854 29.0997C32.397 28.3265 31.6968 27.7599 30.9224 27.834L27.0381 28.2057L26.7686 25.8552L28.73 25.6675C29.4502 25.5985 29.9814 25.0001 29.9814 24.295C29.9814 24.2417 29.9785 24.1876 29.9722 24.1332C29.8833 23.36 29.1836 22.7932 28.4087 22.8674L26.4473 23.0551L26.1772 20.7046L30.0615 20.3329C30.7817 20.264 31.313 19.6655 31.313 18.9606C31.313 18.9071 31.3101 18.8531 31.3037 18.7987C31.2153 18.0254 30.5151 17.4587 29.7402 17.5328L25.3887 17.9492ZM61.2632 41.3107C58.4121 38.417 56.7798 34.4854 56.7798 28.7864L56.7798 24.0255C56.7798 23.9047 56.7646 23.7875 56.7363 23.6754C57.98 21.9941 59.356 21.005 61.3574 20.4591C63.9688 19.7466 67.7407 19.7598 73.8232 20.4342L84.4937 21.6172C86.5142 21.8412 88.7632 21.4858 90.6284 20.6538L90.6284 28.7864C90.6284 34.4843 88.9961 38.4215 86.1992 41.318C83.3794 44.2382 79.2437 46.2394 73.9468 47.7749C68.3994 46.2372 64.1416 44.2322 61.2632 41.3107ZM63.8237 30.1779C64.5181 30.1711 65.3403 30.491 66.6255 31.5347C67.0342 31.8661 67.6338 31.804 67.9648 31.3956C68.1084 31.2192 68.1782 31.007 68.1782 30.796C68.1782 30.519 68.0576 30.2445 67.8262 30.0563C66.4272 28.9205 65.1699 28.2605 63.8057 28.2736C62.4663 28.2864 61.2407 28.9509 59.9204 29.8741C59.6553 30.0593 59.5137 30.355 59.5137 30.6553C59.5137 30.8438 59.5693 31.0341 59.6855 31.2002C59.9868 31.6311 60.5806 31.7362 61.0117 31.4348C62.2925 30.5393 63.1045 30.1847 63.8237 30.1779ZM84.5474 33.0376C84.6948 33.142 84.8486 33.2566 85.0103 33.3821C85.4253 33.705 86.0234 33.6302 86.3462 33.2152C86.4814 33.0414 86.5469 32.8356 86.5469 32.6312C86.5469 32.3474 86.4209 32.0667 86.1792 31.879C84.7573 30.7727 83.4863 30.139 82.1226 30.1804C80.7837 30.2212 79.5723 30.9111 78.2715 31.8617C78.0161 32.0482 77.8809 32.3378 77.8809 32.6313C77.8809 32.8262 77.9404 33.0229 78.0645 33.1923C78.3745 33.6169 78.9702 33.7096 79.395 33.3993C80.6567 32.4773 81.4614 32.1058 82.1807 32.084C82.3638 32.0784 82.5566 32.0953 82.7646 32.1421C82.167 32.3181 81.731 32.8643 81.731 33.5109C81.731 34.2997 82.3799 34.9391 83.1802 34.9391C83.98 34.9391 84.6289 34.2997 84.6289 33.5109C84.6289 33.345 84.6001 33.1857 84.5474 33.0376ZM63.3784 33.5109C63.3784 34.2997 64.0269 34.9392 64.8271 34.9392C65.6274 34.9392 66.2764 34.2997 66.2764 33.5109C66.2764 32.722 65.6274 32.0826 64.8271 32.0826C64.0269 32.0826 63.3784 32.722 63.3784 33.5109ZM95.2046 35.2821C95.1641 36.3269 93.9658 37.6222 91.9102 37.692C92.5068 36.2281 92.9385 34.6301 93.1978 32.8845C94.5063 33.3727 95.2056 34.395 95.2056 35.2256C95.2056 35.2445 95.2051 35.2634 95.2046 35.2821ZM54.2217 32.9537C54.4824 34.6682 54.9116 36.2404 55.5044 37.6827C53.5581 37.5465 52.4277 36.2963 52.3882 35.2821C52.3877 35.2634 52.3872 35.2445 52.3872 35.2256C52.3872 34.4325 53.0249 33.4645 54.2217 32.9537ZM73.0225 39.1552C72.2339 39.1552 71.5942 39.7946 71.5942 40.5834C71.5942 41.3722 72.2339 42.0116 73.0225 42.0116L75.9204 42.0116C76.7095 42.0116 77.3486 41.3722 77.3486 40.5834C77.3486 39.7946 76.7095 39.1552 75.9204 39.1552L73.0225 39.1552ZM74.605 50.558C77.9668 49.5919 81.0303 48.4091 83.6685 46.8567L83.6685 49.153L83.6685 49.1597C83.666 51.106 82.5718 53.1084 80.6377 54.6726C78.7124 56.2299 76.0708 57.2463 73.269 57.2463C67.7378 57.2463 63.5991 53.392 63.354 49.5153C63.3545 49.5005 63.355 49.4858 63.355 49.4709L63.355 46.5319C66.1919 48.2507 69.561 49.5321 73.3208 50.5654C73.7397 50.6805 74.1865 50.6783 74.605 50.558ZM38.8555 52.0717L39.0713 57.3549L37.6753 57.545L37.8887 55.2004C37.8955 55.1274 37.8984 55.0551 37.8984 54.9834C37.8984 53.7328 36.9077 52.7133 35.6714 52.6064C34.1924 52.4785 32.2803 52.1997 30.6113 51.7207C29.7769 51.4811 29.0454 51.2034 28.4736 50.8938C27.8857 50.5757 27.5742 50.2821 27.4375 50.0637C26.9438 49.2775 26.7949 48.7145 26.7715 48.3447L28.5645 48.7032L38.8555 52.0717ZM109.827 57.5453L108.432 57.3552L108.647 52.0718L118.938 48.7034L120.731 48.3448C120.708 48.7147 120.559 49.2777 120.065 50.0638C119.928 50.2822 119.617 50.5758 119.029 50.8939C118.458 51.2035 117.726 51.4812 116.892 51.7208C115.223 52.1998 113.31 52.4786 111.832 52.6066C110.595 52.7134 109.604 53.7329 109.604 54.9835C109.604 55.0552 109.607 55.1276 109.614 55.2007L109.827 57.5453ZM93.1089 70.5905C92.6108 70.6263 92.145 70.9172 91.9131 71.3932C91.8159 71.5918 91.77 71.8015 91.77 72.0079C91.77 72.1967 91.8086 72.3826 91.8813 72.5547L91.8823 72.7378C91.8843 73.1938 91.8862 73.8361 91.8877 74.5812C91.8887 75.0776 91.8896 75.6194 91.8896 76.1818C91.8896 77.3083 91.8867 78.5177 91.8789 79.6121C91.8672 81.2539 91.6416 81.88 91.3252 82.354C91.1406 82.6299 90.8838 82.9141 90.4741 83.3123C90.3428 83.4402 90.165 83.608 89.9634 83.7981L89.9634 83.7985L89.9629 83.7988C89.6455 84.0986 89.2695 84.4536 88.9238 84.7944C87.7617 85.9398 86.6367 86.823 86.0801 87.2399L61.811 87.2399C61.1831 86.8689 59.7612 85.9681 58.5703 84.7944L58.3633 84.5903C57.2173 83.4614 56.7627 83.0133 56.4912 82.4897C56.2432 82.0116 56.1113 81.3689 56.0986 79.6121C56.0903 78.5182 56.0879 77.3094 56.0879 76.1832C56.0879 75.6204 56.0884 75.0781 56.0894 74.5812C56.0908 73.8361 56.0933 73.1938 56.0952 72.7378C56.0962 72.5099 56.0967 72.3285 56.0977 72.2042L56.0986 72.016L56.0986 72.0137L56.0986 72.0131L56.0986 72.005C56.0986 71.2198 55.4644 70.5812 54.6782 70.5769C54.5981 70.5764 54.52 70.5825 54.4438 70.5946C54.187 70.5673 53.9199 70.6077 53.6704 70.7257L36.9082 78.6455L33.6016 60.9645L39.7207 60.131L40.876 68.1211C41.1772 70.2025 43.8755 70.8967 45.1606 69.2235L55.1895 56.1676L61.7271 53.7698C63.8179 57.4865 68.3042 60.1028 73.269 60.1028C76.7422 60.1028 80.0142 58.851 82.4341 56.8936C83.4375 56.0819 84.3149 55.1302 84.9971 54.0767L92.3462 56.2109L102.342 69.2238C103.627 70.8971 106.326 70.2028 106.627 68.1213L107.782 60.1312L113.901 60.9647L110.595 78.6458L94.2266 70.912C93.9761 70.7012 93.6523 70.575 93.2993 70.5769C93.2349 70.5771 93.1714 70.5818 93.1089 70.5905ZM62.8599 103.141L62.8599 90.0963L86.0835 90.0963L86.0835 103.141L62.8599 103.141ZM70.749 105.998L67.8535 126.757L62.8599 126.757L62.8599 105.998L70.749 105.998ZM86.0835 105.998L86.0835 126.757L81.0273 126.757L78.1318 105.998L86.0835 105.998ZM62.8599 131.992L62.8599 129.613L67.668 129.613L67.668 133.407L67.668 133.422L67.668 133.472C67.5103 133.439 67.3462 133.422 67.1782 133.422L62.7974 133.422L62.7974 132.411C62.8379 132.278 62.8599 132.138 62.8599 131.992ZM81.2124 129.613L86.0835 129.613L86.0835 133.422L81.7021 133.422C81.5342 133.422 81.3706 133.439 81.2124 133.472L81.2124 133.422L81.2124 133.417L81.2124 129.613ZM61.3481 136.278L61.3555 136.278L61.3613 136.278L61.3691 136.279C61.3765 136.279 61.3833 136.278 61.3906 136.278L66.7021 136.278L66.7021 138.762L59.5654 151.513L52.0005 151.513C51.9673 151.136 51.9448 150.728 51.9448 150.331C51.9448 149.772 51.9893 149.234 52.1108 148.832C52.415 147.825 53.5283 146.845 55.1992 146.001C56.7905 145.197 58.5337 144.693 59.5029 144.451C60.5508 144.19 61.3481 143.248 61.3481 142.107L61.3481 136.278ZM82.1782 136.278L87.4897 136.278C87.4971 136.278 87.5044 136.279 87.5117 136.279C87.5186 136.279 87.5254 136.278 87.5322 136.278L87.5322 142.107C87.5322 143.248 88.3301 144.19 89.3779 144.451C90.3467 144.693 92.0898 145.197 93.6812 146.001C95.3521 146.845 96.4658 147.825 96.7695 148.832C96.8911 149.234 96.936 149.772 96.936 150.331C96.936 150.728 96.9136 151.136 96.8799 151.513L89.3149 151.513L82.1782 138.762L82.1782 136.278Z" fill-rule="evenodd" fill="#080A0D"/>
	<path id="Foreign languages" d="M1.552 173.677C1.552 173.517 1.616 173.453 1.744 173.453L8.784 173.453C8.896 173.453 8.944 173.517 8.944 173.629L8.944 174.445C8.944 174.573 8.88 174.637 8.736 174.637L3.296 174.637C3.136 174.637 3.088 174.669 3.088 174.829L3.088 178.765C3.088 178.893 3.136 178.941 3.264 178.941L7.536 178.941C7.664 178.941 7.712 178.989 7.712 179.101L7.712 179.949C7.712 180.061 7.664 180.093 7.536 180.093L3.264 180.093C3.136 180.093 3.088 180.141 3.088 180.269L3.088 185.117C3.088 185.261 3.024 185.325 2.864 185.325L1.776 185.325C1.6 185.325 1.552 185.261 1.552 185.101L1.552 173.677ZM13.1434 185.485C10.7114 185.485 9.09538 183.693 9.09538 181.133C9.09538 178.509 10.7754 176.685 13.1594 176.685C15.5754 176.685 17.1914 178.525 17.1914 181.117C17.1914 183.677 15.5594 185.485 13.1434 185.485ZM13.1754 184.477C14.8394 184.477 15.8154 183.197 15.8154 181.085C15.8154 178.989 14.8074 177.677 13.1594 177.677C11.4954 177.677 10.4714 178.989 10.4714 181.085C10.4714 183.181 11.4954 184.477 13.1754 184.477ZM19.3935 185.325C19.2335 185.325 19.1695 185.261 19.1695 185.117L19.1695 177.053C19.1695 176.909 19.2335 176.845 19.3455 176.845L20.2735 176.845C20.4015 176.845 20.4495 176.909 20.4495 177.021L20.4495 178.061C20.4495 178.189 20.5295 178.221 20.6255 178.109C21.4575 177.133 22.2735 176.685 23.1055 176.685C23.4895 176.685 23.6655 176.749 23.6655 176.893L23.6655 177.853C23.6655 177.949 23.6175 177.997 23.5215 177.981C23.3295 177.949 23.0735 177.933 22.8015 177.933C21.8575 177.933 20.5135 178.861 20.5135 179.789L20.5135 185.085C20.5135 185.261 20.4335 185.325 20.2735 185.325L19.3935 185.325ZM25.9874 181.613C25.9874 183.181 27.2194 184.461 28.7874 184.461C29.8594 184.461 30.6754 184.029 31.2834 183.133C31.3634 183.053 31.4114 183.037 31.5074 183.085L32.1794 183.421C32.2594 183.469 32.2754 183.549 32.2114 183.645C31.3634 184.941 30.2434 185.485 28.6594 185.485C26.2914 185.485 24.5954 183.725 24.5954 181.165C24.5954 178.397 26.3554 176.685 28.6434 176.685C30.9634 176.685 32.4994 178.285 32.4994 181.021C32.4994 181.197 32.5154 181.373 32.2594 181.373L26.1314 181.373C26.0354 181.373 25.9874 181.469 25.9874 181.613ZM26.0194 180.493L30.8834 180.493C31.1074 180.493 31.1554 180.461 31.1554 180.269C31.1554 178.893 30.2434 177.645 28.6754 177.645C26.9634 177.645 26.0034 179.069 26.0194 180.493ZM35.7962 173.693L35.7962 175.021C35.7962 175.213 35.7323 175.325 35.5083 175.325L34.5802 175.325C34.3882 175.325 34.3402 175.213 34.3402 175.053L34.3402 173.709C34.3402 173.549 34.4202 173.453 34.5643 173.453L35.5723 173.453C35.7002 173.453 35.7962 173.549 35.7962 173.693ZM35.7323 177.053L35.7323 185.053C35.7323 185.261 35.6683 185.325 35.4443 185.325L34.6283 185.325C34.4362 185.325 34.3882 185.261 34.3882 185.101L34.3882 177.069C34.3882 176.909 34.4523 176.845 34.5802 176.845L35.5563 176.845C35.6842 176.845 35.7323 176.909 35.7323 177.053ZM45.8804 176.701C46.0884 176.701 46.1844 176.781 46.1844 176.957L46.1844 177.517C46.1844 177.725 46.1044 177.821 45.8644 177.805C45.5124 177.805 45.2724 177.837 45.0324 177.949C44.7444 178.061 44.6644 178.173 44.7124 178.317C44.8084 178.557 44.9844 178.861 44.9844 179.405C44.9844 180.829 43.8804 181.981 41.5124 181.981C39.8804 181.981 39.3844 182.317 39.3844 182.669C39.3844 183.005 39.8164 183.133 40.8404 183.197L42.9044 183.309C44.7924 183.421 45.6244 184.253 45.6244 185.533C45.6244 187.149 44.1684 188.125 41.5284 188.125C38.8244 188.125 37.3684 187.325 37.3684 185.869C37.3684 185.117 37.8964 184.541 38.8724 184.061C38.9844 184.013 38.9844 183.949 38.8724 183.885C38.3924 183.677 38.1364 183.373 38.1364 182.941C38.1364 182.477 38.5684 182.029 39.4004 181.741C39.5124 181.709 39.5124 181.629 39.4004 181.549C38.4724 181.069 38.0244 180.397 38.0244 179.405C38.0244 177.757 39.3204 176.717 41.6404 176.717C42.7444 176.717 43.4964 176.989 44.0404 177.437C44.1684 177.549 44.2644 177.533 44.3764 177.437C44.7284 177.101 45.3204 176.701 45.8804 176.701ZM41.5124 181.133C43.0164 181.133 43.7204 180.493 43.7204 179.389C43.7204 178.253 42.9844 177.565 41.5124 177.565C40.0884 177.565 39.2724 178.269 39.2724 179.389C39.2724 180.493 40.0724 181.133 41.5124 181.133ZM42.7764 184.445L40.1044 184.285C39.5444 184.253 38.5684 184.845 38.5684 185.709C38.5684 186.717 39.6084 187.293 41.6724 187.293C43.4324 187.293 44.3764 186.781 44.3764 185.693C44.3764 184.973 43.9444 184.509 42.7764 184.445ZM48.0654 185.325C47.9054 185.325 47.8414 185.261 47.8414 185.117L47.8414 177.053C47.8414 176.925 47.9054 176.845 48.0174 176.845L48.9774 176.845C49.0894 176.845 49.1534 176.909 49.1534 177.021L49.1534 177.949C49.1534 178.061 49.1854 178.093 49.2974 177.997C50.3694 177.165 51.1214 176.685 52.2414 176.685C53.8894 176.685 54.8174 177.661 54.8174 179.101L54.8174 185.069C54.8174 185.245 54.7374 185.325 54.5774 185.325L53.6814 185.325C53.5374 185.325 53.4734 185.261 53.4734 185.117L53.4734 179.405C53.4734 178.365 52.9614 177.741 51.8094 177.741C50.8494 177.741 50.1934 178.173 49.1854 179.037L49.1854 185.085C49.1854 185.261 49.1214 185.325 48.9454 185.325L48.0654 185.325ZM61.9826 173.661L61.9826 185.053C61.9826 185.261 61.9026 185.325 61.6946 185.325L60.8626 185.325C60.6706 185.325 60.6226 185.261 60.6226 185.101L60.6386 173.677C60.6386 173.517 60.7026 173.453 60.8306 173.453L61.7906 173.453C61.9186 173.453 61.9826 173.517 61.9826 173.661ZM69.3307 184.301C68.5307 185.069 67.6188 185.485 66.4827 185.485C64.8347 185.485 63.8107 184.573 63.8107 183.165C63.8107 181.469 65.2988 180.461 68.0348 180.285L69.2828 180.189C69.4268 180.173 69.5387 180.109 69.5387 179.949L69.5387 179.517C69.5387 178.365 68.7708 177.645 67.5547 177.645C66.6267 177.645 65.8587 178.061 65.2667 178.925C65.1868 179.037 65.1547 179.069 65.0267 179.021L64.1628 178.733C64.0827 178.701 64.0508 178.637 64.1308 178.477C64.7548 177.373 65.9388 176.685 67.6188 176.685C69.7308 176.685 70.8347 177.741 70.8347 179.421L70.8347 185.085C70.8347 185.277 70.7708 185.325 70.6267 185.325L69.8108 185.325C69.6667 185.325 69.6028 185.229 69.5868 185.069L69.5707 184.333C69.5387 184.189 69.4587 184.173 69.3307 184.301ZM69.5387 181.261C69.5387 181.069 69.4747 181.005 69.3148 181.005L68.2588 181.101C66.2907 181.229 65.1547 181.869 65.1547 183.005C65.1547 183.933 65.8587 184.493 66.9628 184.493C67.6348 184.493 68.2907 184.221 68.7708 183.837C69.2507 183.453 69.5387 183.005 69.5387 182.589L69.5387 181.261ZM73.4404 185.325C73.2804 185.325 73.2164 185.261 73.2164 185.117L73.2164 177.053C73.2164 176.925 73.2804 176.845 73.3924 176.845L74.3524 176.845C74.4644 176.845 74.5284 176.909 74.5284 177.021L74.5284 177.949C74.5284 178.061 74.5604 178.093 74.6724 177.997C75.7444 177.165 76.4964 176.685 77.6164 176.685C79.2644 176.685 80.1924 177.661 80.1924 179.101L80.1924 185.069C80.1924 185.245 80.1124 185.325 79.9524 185.325L79.0564 185.325C78.9124 185.325 78.8484 185.261 78.8484 185.117L78.8484 179.405C78.8484 178.365 78.3364 177.741 77.1844 177.741C76.2244 177.741 75.5684 178.173 74.5604 179.037L74.5604 185.085C74.5604 185.261 74.4964 185.325 74.3204 185.325L73.4404 185.325ZM90.2241 176.701C90.4321 176.701 90.5281 176.781 90.5281 176.957L90.5281 177.517C90.5281 177.725 90.4481 177.821 90.2081 177.805C89.8561 177.805 89.6161 177.837 89.3761 177.949C89.0881 178.061 89.0081 178.173 89.0561 178.317C89.1521 178.557 89.3281 178.861 89.3281 179.405C89.3281 180.829 88.2241 181.981 85.8561 181.981C84.2241 181.981 83.7281 182.317 83.7281 182.669C83.7281 183.005 84.1601 183.133 85.1841 183.197L87.2481 183.309C89.1361 183.421 89.9681 184.253 89.9681 185.533C89.9681 187.149 88.5121 188.125 85.8721 188.125C83.1681 188.125 81.7121 187.325 81.7121 185.869C81.7121 185.117 82.2401 184.541 83.2161 184.061C83.3281 184.013 83.3281 183.949 83.2161 183.885C82.7361 183.677 82.4801 183.373 82.4801 182.941C82.4801 182.477 82.9121 182.029 83.7441 181.741C83.8561 181.709 83.8561 181.629 83.7441 181.549C82.8161 181.069 82.3681 180.397 82.3681 179.405C82.3681 177.757 83.6641 176.717 85.9841 176.717C87.0881 176.717 87.8401 176.989 88.3841 177.437C88.5121 177.549 88.6081 177.533 88.7201 177.437C89.0721 177.101 89.6641 176.701 90.2241 176.701ZM85.8561 181.133C87.3601 181.133 88.0641 180.493 88.0641 179.389C88.0641 178.253 87.3281 177.565 85.8561 177.565C84.4321 177.565 83.6161 178.269 83.6161 179.389C83.6161 180.493 84.4161 181.133 85.8561 181.133ZM87.1201 184.445L84.4481 184.285C83.8881 184.253 82.9121 184.845 82.9121 185.709C82.9121 186.717 83.9521 187.293 86.0161 187.293C87.7761 187.293 88.7201 186.781 88.7201 185.693C88.7201 184.973 88.2881 184.509 87.1201 184.445ZM95.0651 184.429C95.9771 184.429 96.8091 183.885 97.6411 183.037L97.6411 177.069C97.6411 176.925 97.7211 176.845 97.8971 176.845L98.7771 176.845C98.9211 176.845 99.0011 176.909 99.0011 177.069L98.9691 185.117C98.9691 185.261 98.9211 185.325 98.7931 185.325L97.8651 185.325C97.7371 185.325 97.6891 185.277 97.6891 185.149L97.6891 184.205C97.6891 184.093 97.6411 184.061 97.5451 184.157C96.3611 185.165 95.5291 185.485 94.6331 185.485C93.1611 185.485 92.0731 184.525 92.0731 183.037L92.0731 177.085C92.0731 176.925 92.1531 176.845 92.3131 176.845L93.2091 176.845C93.3531 176.845 93.4171 176.909 93.4171 177.069L93.4171 182.685C93.4171 183.741 94.0411 184.429 95.0651 184.429ZM106.331 184.301C105.531 185.069 104.619 185.485 103.483 185.485C101.835 185.485 100.811 184.573 100.811 183.165C100.811 181.469 102.299 180.461 105.035 180.285L106.283 180.189C106.427 180.173 106.539 180.109 106.539 179.949L106.539 179.517C106.539 178.365 105.771 177.645 104.555 177.645C103.627 177.645 102.859 178.061 102.267 178.925C102.187 179.037 102.155 179.069 102.027 179.021L101.163 178.733C101.083 178.701 101.051 178.637 101.131 178.477C101.755 177.373 102.939 176.685 104.619 176.685C106.731 176.685 107.835 177.741 107.835 179.421L107.835 185.085C107.835 185.277 107.771 185.325 107.627 185.325L106.811 185.325C106.667 185.325 106.603 185.229 106.587 185.069L106.571 184.333C106.539 184.189 106.459 184.173 106.331 184.301ZM106.539 181.261C106.539 181.069 106.475 181.005 106.315 181.005L105.259 181.101C103.291 181.229 102.155 181.869 102.155 183.005C102.155 183.933 102.859 184.493 103.963 184.493C104.635 184.493 105.291 184.221 105.771 183.837C106.251 183.453 106.539 183.005 106.539 182.589L106.539 181.261ZM117.88 176.701C118.088 176.701 118.184 176.781 118.184 176.957L118.184 177.517C118.184 177.725 118.104 177.821 117.864 177.805C117.512 177.805 117.272 177.837 117.032 177.949C116.744 178.061 116.664 178.173 116.712 178.317C116.808 178.557 116.984 178.861 116.984 179.405C116.984 180.829 115.88 181.981 113.512 181.981C111.88 181.981 111.384 182.317 111.384 182.669C111.384 183.005 111.816 183.133 112.84 183.197L114.904 183.309C116.792 183.421 117.624 184.253 117.624 185.533C117.624 187.149 116.168 188.125 113.528 188.125C110.824 188.125 109.368 187.325 109.368 185.869C109.368 185.117 109.896 184.541 110.872 184.061C110.984 184.013 110.984 183.949 110.872 183.885C110.392 183.677 110.136 183.373 110.136 182.941C110.136 182.477 110.568 182.029 111.4 181.741C111.512 181.709 111.512 181.629 111.4 181.549C110.472 181.069 110.024 180.397 110.024 179.405C110.024 177.757 111.32 176.717 113.64 176.717C114.744 176.717 115.496 176.989 116.04 177.437C116.168 177.549 116.264 177.533 116.376 177.437C116.728 177.101 117.32 176.701 117.88 176.701ZM113.512 181.133C115.016 181.133 115.72 180.493 115.72 179.389C115.72 178.253 114.984 177.565 113.512 177.565C112.088 177.565 111.272 178.269 111.272 179.389C111.272 180.493 112.072 181.133 113.512 181.133ZM114.776 184.445L112.104 184.285C111.544 184.253 110.568 184.845 110.568 185.709C110.568 186.717 111.608 187.293 113.672 187.293C115.432 187.293 116.376 186.781 116.376 185.693C116.376 184.973 115.944 184.509 114.776 184.445ZM120.456 181.613C120.456 183.181 121.688 184.461 123.256 184.461C124.328 184.461 125.144 184.029 125.752 183.133C125.832 183.053 125.88 183.037 125.976 183.085L126.648 183.421C126.728 183.469 126.744 183.549 126.68 183.645C125.832 184.941 124.712 185.485 123.128 185.485C120.76 185.485 119.064 183.725 119.064 181.165C119.064 178.397 120.824 176.685 123.112 176.685C125.432 176.685 126.968 178.285 126.968 181.021C126.968 181.197 126.984 181.373 126.728 181.373L120.6 181.373C120.504 181.373 120.456 181.469 120.456 181.613ZM120.488 180.493L125.352 180.493C125.576 180.493 125.624 180.461 125.624 180.269C125.624 178.893 124.712 177.645 123.144 177.645C121.432 177.645 120.472 179.069 120.488 180.493ZM133.945 178.717C133.513 178.077 132.729 177.629 131.673 177.629C130.521 177.629 129.673 178.157 129.673 178.989C129.673 179.421 129.913 179.853 130.969 180.173L133.001 180.781C134.457 181.181 135.081 181.981 135.081 182.989C135.081 184.493 133.609 185.485 131.625 185.485C129.945 185.485 128.601 184.749 128.073 183.725C128.009 183.613 128.009 183.533 128.105 183.469L128.729 183.117C128.841 183.053 128.921 183.069 128.969 183.133C129.481 183.949 130.313 184.509 131.641 184.509C132.873 184.493 133.817 183.965 133.817 183.133C133.817 182.557 133.385 182.157 132.249 181.837L130.601 181.373C129.001 180.957 128.425 180.205 128.425 179.229C128.409 177.709 129.737 176.685 131.689 176.685C133.113 176.685 134.281 177.277 134.873 178.173C134.937 178.269 134.953 178.349 134.857 178.397L134.185 178.765C134.105 178.813 134.009 178.797 133.945 178.717Z" fill-rule="evenodd" fill="#080A0D"/>
</svg>
