<svg width="98.640625" height="188.537842" viewBox="0 0 98.6406 188.538" fill="none" xmlns="http://www.w3.org/2000/svg" xmlns:xlink="http://www.w3.org/1999/xlink">
	<desc>
			Created with Pixso.
	</desc>
	<defs/>
	<path id="Tired" d="M23.1978 1.54773C23.1978 0.692993 23.8906 0.00012207 24.7451 0.00012207L28.748 0.00012207C30.3359 0.00012207 31.332 1.28955 31.332 2.6062C31.332 3.37 30.9971 4.14294 30.2471 4.67834L29.5747 5.15881L31.9673 5.15881C32.8223 5.15881 33.5151 5.85168 33.5151 6.70642C33.5151 7.56116 32.8223 8.25403 31.9673 8.25403L27.9648 8.25403C26.377 8.25403 25.3804 6.9646 25.3804 5.64807C25.3804 4.88428 25.7158 4.11133 26.4658 3.57581L27.1382 3.09534L24.7451 3.09534C23.8906 3.09534 23.1978 2.40247 23.1978 1.54773ZM12.8804 8.77002C12.8804 7.91528 13.5732 7.22241 14.4277 7.22241L20.3218 7.22241C21.896 7.22241 22.9062 8.50525 22.9062 9.82544C22.9062 10.5349 22.6143 11.2551 21.9614 11.7928L18.7417 14.4446L23.1978 14.4446C24.0522 14.4446 24.7451 15.1375 24.7451 15.9922C24.7451 16.8469 24.0522 17.5398 23.1978 17.5398L17.3037 17.5398C15.7295 17.5398 14.7192 16.257 14.7192 14.9369C14.7192 14.2274 15.0107 13.5071 15.6641 12.9694L18.8838 10.3176L14.4277 10.3176C13.5732 10.3176 12.8804 9.62476 12.8804 8.77002ZM23.0146 28.8883L23.0146 28.8879L22.9946 28.8679L23.001 28.8616L23.0063 28.8564L23.0151 28.8479C23.0918 20.5726 28.4883 12.6808 36.9399 9.49426L40.812 8.0343C43.5215 7.01294 46.438 8.14709 47.7002 10.5984C53.9341 9.00562 60.5088 12.0533 62.7729 18.0585L65.5024 25.2991C65.5083 25.3147 65.5142 25.3303 65.5195 25.3461C65.7959 26.0883 66.0386 26.8177 66.2495 27.535C66.2935 27.5596 66.3372 27.5865 66.3796 27.616L66.3286 27.6899C66.3794 27.6166 66.3799 27.6162 66.3799 27.6162L66.4226 27.6459L66.4778 27.6842L66.543 27.7297C66.6482 27.8031 66.8018 27.9106 66.9971 28.0486C67.3882 28.3243 67.947 28.7217 68.6221 29.2097C69.9705 30.1852 71.7871 31.527 73.6521 32.988C75.5122 34.4454 77.4436 36.0393 79.0115 37.5171C79.7949 38.2554 80.5076 38.9834 81.0815 39.6655C81.635 40.3235 82.1443 41.0367 82.418 41.741C82.6978 42.4607 82.8098 43.2119 82.8098 43.9572C82.8098 45.0349 82.5752 46.1 82.2734 47.0388C81.8186 48.455 81.1426 49.7928 80.5454 50.8278C82.0876 51.0525 84.1531 51.4622 86.1035 52.2048C88.228 53.0138 90.5439 54.3408 91.6487 56.5762C92.1938 57.6797 92.3943 58.9081 92.3943 60.1281C92.3943 61.2378 92.2285 62.3407 92.0056 63.3363C91.573 65.2701 90.8604 67.0754 90.3235 68.281C91.4729 68.7629 93.0947 69.5319 94.5852 70.5645C96.1963 71.6808 97.9531 73.3088 98.4724 75.4719C98.5879 75.9534 98.6406 76.4342 98.6406 76.9108C98.6406 78.4867 98.0645 80.0171 97.2827 81.3776C96.2544 83.1675 94.7539 84.8701 93.229 86.3427C90.1733 89.2938 86.7744 91.5532 86.071 92.0105C85.8369 92.1626 85.5977 92.2626 85.3601 92.3274L80.9751 93.5233L80.9751 101.234C80.9751 102.658 79.8203 103.813 78.3958 103.813L75.7817 103.813C75.7896 103.989 75.7969 104.182 75.8027 104.387C75.811 104.669 75.8169 104.983 75.8169 105.31C75.8169 105.958 75.7939 106.658 75.7205 107.266C75.5295 108.85 74.8689 110.836 74.5269 111.801C74.1577 112.841 73.1768 113.493 72.1191 113.493L70.1421 113.493C69.9656 113.493 69.793 113.475 69.6265 113.441L69.6265 129.485C69.6265 130.909 68.4714 132.064 67.0471 132.064L65.8418 132.064L65.8418 138.562L65.8418 138.578L65.8418 150.959C65.8418 152.383 64.687 153.538 63.2622 153.538L61.3389 153.538C60.1182 153.538 59.0957 152.69 58.8281 151.552L55.8359 153.214C55.4531 153.426 55.022 153.538 54.584 153.538L45.8623 153.538C44.6421 153.538 43.6196 152.69 43.3516 151.552L40.3599 153.214C39.9766 153.426 39.5454 153.538 39.1074 153.538L31.2778 153.538C29.8535 153.538 28.6987 152.383 28.6987 150.959L28.6987 150.703C28.6987 149.734 29.2427 148.846 30.1069 148.405L33.0488 146.906L40.1353 142.449L40.1353 138.578C40.1353 137.774 40.5029 137.056 41.0796 136.583L41.0796 132.064L34.0312 132.064C32.6064 132.064 31.4517 130.909 31.4517 129.485L31.4517 114.008C31.0205 114.332 30.4849 114.524 29.9038 114.524L27.9272 114.524C26.8696 114.524 25.8882 113.873 25.5195 112.833C25.1772 111.868 24.5166 109.882 24.3257 108.298C24.2524 107.69 24.2295 106.99 24.2295 106.341C24.2295 106.015 24.2349 105.701 24.2432 105.419C24.2529 105.076 24.2671 104.765 24.2803 104.516L23.7134 104.516C22.2891 104.516 21.1343 103.361 21.1343 101.937L21.1343 96.3823L15.9336 95.9348C15.6885 95.9137 15.4351 95.8583 15.1772 95.7506C14.4033 95.427 10.6543 93.8142 7.11865 91.4592C5.354 90.2841 3.57275 88.8783 2.23975 87.302C0.989258 85.8234 0.000488281 84.0339 0.000488281 82.0386C0.000488281 81.9282 0.00341797 81.8173 0.00976562 81.7057C0.132324 79.4846 1.56836 77.5677 2.95312 76.1804C4.23389 74.8971 5.69141 73.8497 6.73584 73.1693C5.9917 72.0797 4.9668 70.4315 4.19385 68.6067C3.5918 67.1849 3.07422 65.4982 3.07422 63.8207C3.07422 63.1711 3.15186 62.5231 3.33203 61.8922C4.01758 59.4949 6.05811 57.7739 8.00293 56.5969C9.78857 55.5162 11.7471 54.7426 13.2236 54.2449C12.4507 53.3339 11.5454 52.1389 10.8438 50.8275C10.207 49.6378 9.65186 48.1932 9.65186 46.7028C9.65186 46.3506 9.68262 45.996 9.75098 45.6415C9.89404 44.8997 10.2671 44.1064 10.6934 43.3599C11.1357 42.5859 11.7061 41.7418 12.3442 40.8749C13.6216 39.1399 15.2354 37.2253 16.8042 35.4578C18.3765 33.6857 19.9229 32.0398 21.0747 30.8381C21.6509 30.2369 22.1294 29.7457 22.4648 29.4043C22.6323 29.2335 22.7642 29.1002 22.854 29.0092L22.9092 28.9536L22.9575 28.905L22.9941 28.8682L22.9961 28.8699C22.9985 28.8721 23.0034 28.8771 23.0146 28.8883ZM26.1152 29.0371C26.1152 30.9335 26.4468 32.843 27.1426 34.6895L28.6567 38.7048C29.6851 36.4006 30.5073 33.8208 31.144 31.3889C32.0654 27.8683 32.5679 24.7784 32.7515 23.5294C32.8887 22.598 33.5166 21.8114 34.4038 21.4769L34.8848 21.2957C35.4819 21.0704 36.1475 21.0635 36.769 21.3179C38.1572 21.8855 43.3784 23.9658 49.1997 25.5879C52.1118 26.3992 55.1372 27.0854 57.8872 27.4165C59.8462 27.6523 61.5811 27.6967 63.0029 27.5193C62.8701 27.1171 62.7256 26.7089 62.5698 26.2948L62.5698 26.2946L59.8765 19.1505C58.1724 14.6299 53.0186 12.2135 48.0322 13.7181C46.8823 14.0653 45.5352 13.5266 45.0635 12.2754C44.6094 11.071 43.2676 10.4165 41.9043 10.9305L38.0317 12.3905C30.6587 15.1703 26.1152 22.0132 26.1152 29.0371ZM63.8062 30.5317C61.896 30.8274 59.7207 30.7549 57.5171 30.4895C54.5537 30.1328 51.3628 29.4037 48.3691 28.5695C42.6221 26.9683 37.4658 24.9413 35.7915 24.2617L35.7705 24.2695C35.5483 25.7262 35.0342 28.7499 34.1382 32.1729C33.272 35.4817 32.0239 39.2646 30.2822 42.3726C32.3169 46.1692 34.9292 48.5808 38.0503 50.0487C42.0381 51.9241 47.0513 52.3534 53.1753 51.8239C57.875 48.2753 61.2368 44.6929 62.9355 40.6749C63.7529 38.7424 64.2041 36.6641 64.2041 34.3773C64.2041 33.1578 64.0757 31.8792 63.8062 30.5317ZM56.7871 33.4069C56.7871 34.0664 56.3618 34.6776 55.6992 34.884C54.8828 35.1381 54.0151 34.6825 53.7612 33.8665C53.7134 33.7133 53.6909 33.5583 53.6909 33.4059C53.6909 32.7463 54.1157 32.1351 54.7788 31.9287C55.5947 31.6746 56.4624 32.1301 56.7163 32.9462C56.7642 33.0994 56.7871 33.2544 56.7871 33.4069ZM65.5796 42.3533C67.0615 42.2349 69.158 42.2941 71.9861 42.8463C75.0662 43.4476 77.1487 45.4758 78.5081 48.0787C78.8188 47.4484 79.1082 46.772 79.3267 46.092C79.585 45.2882 79.7144 44.5704 79.7144 43.9592C79.7144 43.5416 79.6541 43.1737 79.533 42.8621C79.4468 42.6404 79.2026 42.2401 78.7129 41.6582C78.2437 41.1005 77.6235 40.4623 76.8887 39.7695C75.4197 38.3851 73.572 36.8574 71.7432 35.4246C70.0764 34.1189 68.4443 32.9067 67.1619 31.9744C67.2539 32.7932 67.2993 33.5955 67.2993 34.3822C67.2993 37.0474 66.7788 39.5339 65.7866 41.8804C65.7197 42.0388 65.6504 42.1964 65.5796 42.3533ZM52.7539 34.8817C54.4287 35.4801 55.3657 35.5054 56.0513 35.2506C56.7627 34.9862 57.4453 34.3361 58.4043 32.9581C58.7295 32.4904 59.3726 32.3751 59.8403 32.7006C60.1284 32.901 60.2832 33.222 60.2832 33.5483C60.2832 33.7517 60.2231 33.9572 60.0981 34.1367C59.1108 35.5555 58.1196 36.6831 56.77 37.1848C55.394 37.696 53.8818 37.4758 52.0596 36.825C51.6377 36.6742 51.375 36.277 51.375 35.8533C51.375 35.7382 51.3945 35.621 51.4355 35.5062C51.627 34.9696 52.2173 34.6901 52.7539 34.8817ZM27.5225 44.4701L25.9482 40.2946C25.9268 40.2385 25.9053 40.1824 25.8838 40.126L25.8843 40.1259L24.2466 35.7814C23.8853 34.8231 23.606 33.8534 23.4058 32.8793L23.3091 32.98C22.1748 34.1635 20.6572 35.7789 19.1191 37.5122C17.5771 39.2499 16.0337 41.0845 14.8369 42.71C14.2383 43.5233 13.7427 44.2623 13.3809 44.8953C13.0039 45.5555 12.8354 45.9932 12.7905 46.2267C12.7617 46.3762 12.7471 46.5348 12.7471 46.702C12.7471 47.4402 13.0264 48.3457 13.5728 49.3673C14.2217 50.5802 15.1274 51.7327 15.8857 52.5908C16.3428 53.1085 16.5566 53.748 16.5566 54.3833C16.5566 55.5205 15.8711 56.6436 14.6709 57.0273C13.2622 57.4778 11.3066 58.2152 9.60547 59.2449C7.85156 60.3064 6.66357 61.5005 6.30811 62.7433C6.21387 63.0719 6.16943 63.4333 6.16943 63.8217C6.16943 64.8586 6.48877 66.088 7.04395 67.3998C7.78271 69.1442 8.81738 70.7532 9.5083 71.7356C9.8374 72.2035 9.99414 72.7406 9.99414 73.2723C9.99414 74.1692 9.54932 75.051 8.73975 75.5614C7.7793 76.1669 6.34326 77.1652 5.14404 78.3669C3.89648 79.6168 3.15771 80.8358 3.1001 81.8765C3.09717 81.9283 3.0957 81.9806 3.0957 82.0332C3.0957 82.9966 3.57764 84.0908 4.60303 85.3035C5.6709 86.5664 7.18652 87.7856 8.83447 88.8831C12.0054 90.9951 15.4048 92.4866 16.2842 92.8583L21.1343 93.2756L21.1343 61.9049C21.1343 57.804 21.7261 54.0048 23.1943 51.0249C24.3911 48.5955 26.1821 46.7015 28.6499 45.6882C28.5845 45.5875 28.5195 45.4858 28.4546 45.3833C28.0396 45.2365 27.6899 44.9143 27.5225 44.4701ZM40.0688 38.7745C40.1167 38.9277 40.1392 39.0828 40.1392 39.2351C40.1392 39.8948 39.7144 40.5059 39.0513 40.7123C38.2354 40.9664 37.3677 40.5109 37.1138 39.6948C37.0659 39.5416 37.0435 39.3866 37.0435 39.2343C37.0435 38.5747 37.4683 37.9635 38.1313 37.7571C38.9473 37.5029 39.8149 37.9585 40.0688 38.7745ZM36.2461 41.1409C37.9209 41.7393 38.8574 41.7644 39.543 41.5096C40.2544 41.2452 40.9375 40.5952 41.896 39.2172C42.2217 38.7495 42.8647 38.6342 43.3325 38.9596C43.6206 39.1602 43.7749 39.4811 43.7749 39.8074C43.7749 40.0107 43.7148 40.2162 43.5898 40.3958C42.6025 41.8147 41.6118 42.9423 40.2617 43.4438C38.8862 43.9552 37.3735 43.735 35.5518 43.084C35.1299 42.9333 34.8667 42.5361 34.8667 42.1124C34.8667 41.9972 34.8862 41.88 34.9272 41.7653C35.1191 41.2288 35.7095 40.9491 36.2461 41.1409ZM53.3906 44.4401C53.3906 44.9647 53.0859 45.4646 52.5742 45.6884L47.1274 48.0714C46.4385 48.3728 45.6357 48.0587 45.3345 47.3698C45.2568 47.192 45.2197 47.0068 45.2197 46.8246C45.2197 46.3 45.5249 45.8 46.0361 45.5764L51.4829 43.1934C52.1719 42.8918 52.9746 43.2061 53.2764 43.895C53.354 44.0726 53.3906 44.2579 53.3906 44.4401ZM30.6211 48.2792C28.5259 48.8657 27.0171 50.2693 25.9707 52.3928C24.7959 54.7771 24.2295 58.043 24.2295 61.9049L24.2295 101.421L31.4517 101.421L31.4517 100.552C31.4517 100.271 31.5269 100.007 31.6577 99.7798L31.6577 78.516C31.6577 75.0311 30.8838 71.5623 29.2505 68.3914L29.2329 68.3577L28.7012 67.1881C28.6069 66.9805 28.562 66.7628 28.562 66.5487C28.562 65.9604 28.8994 65.3981 29.4697 65.1388C30.248 64.7852 31.1655 65.1293 31.519 65.9073L32.0195 67.0083C33.8818 70.6376 34.7529 74.5847 34.7529 78.516L34.7529 98.3256L66.7373 98.3256L66.7373 78.516C66.7373 74.5847 67.6084 70.6376 69.4707 67.0083L69.9712 65.9073C70.325 65.1293 71.2424 64.7852 72.0205 65.1388C72.5908 65.3981 72.928 65.9604 72.928 66.5487C72.928 66.7628 72.8833 66.9805 72.7891 67.1881L72.2573 68.3577L72.24 68.3914C70.6064 71.5623 69.8325 75.0311 69.8325 78.516L69.8325 100.596L70.658 100.596L70.658 100.718L77.8799 100.718L77.8799 92.365C77.8799 92.3567 77.8796 92.3484 77.8796 92.3402C77.8796 92.3319 77.8799 92.3237 77.8799 92.3156L77.8799 61.2021C77.8799 57.3049 77.4348 53.6045 76.3423 50.7927C75.2568 47.9991 73.6448 46.3239 71.3928 45.8842C68.5571 45.3304 66.6514 45.3433 65.5049 45.4689C64.9312 45.5319 64.5449 45.6232 64.3242 45.6877C64.2139 45.7201 64.144 45.7457 64.1123 45.7582C64.105 45.7611 64.0996 45.7632 64.0962 45.7646C63.9155 45.8502 63.7256 45.8976 63.5366 45.9099C61.3784 48.996 58.4058 51.7659 54.915 54.3887C54.5322 54.6761 54.0737 54.8517 53.5981 54.8939C47.189 55.4626 41.4805 55.0823 36.7334 52.8496C34.4209 51.7621 32.3823 50.2573 30.6211 48.2792ZM80.3896 53.9344C80.8083 56.2527 80.9751 58.7407 80.9751 61.2021L80.9751 90.3149L84.4631 89.3638C85.2617 88.8402 88.3381 86.7631 91.0789 84.1162C92.5029 82.741 93.7749 81.2697 94.5991 79.8354C95.2405 78.7192 95.5442 77.7437 95.5442 76.9094C95.5442 76.6583 95.5168 76.42 95.4626 76.1945C95.2192 75.181 94.2739 74.1144 92.8223 73.1086C91.4265 72.1416 89.835 71.4171 88.7815 70.9938C87.7339 70.5729 87.093 69.552 87.093 68.4839C87.093 68.1097 87.1716 67.73 87.3389 67.368C87.8425 66.2775 88.5715 64.5089 88.9851 62.6604C89.1885 61.7512 89.2991 60.8948 89.2991 60.1257C89.2991 59.2783 89.165 58.5369 88.8738 57.9474C88.301 56.7886 86.918 55.827 85.002 55.0975C83.4495 54.5063 81.7593 54.1476 80.3896 53.9344ZM66.5312 101.421L34.5469 101.421L34.5469 128.969L66.5312 128.969L66.5312 101.421ZM72.6833 103.813L70.658 103.813L70.658 110.397L71.738 110.397C72.0771 109.405 72.5193 107.96 72.6475 106.896C72.7019 106.445 72.7214 105.88 72.7214 105.311C72.7214 105.029 72.7168 104.747 72.709 104.477C72.7019 104.234 72.6926 104.009 72.6833 103.813ZM29.3882 104.516L27.3799 104.516C27.3657 104.766 27.3486 105.114 27.3374 105.508C27.3296 105.778 27.3247 106.061 27.3247 106.343C27.3247 106.912 27.3442 107.477 27.3984 107.927C27.5269 108.991 27.9692 110.436 28.3081 111.429L29.3882 111.429L29.3882 104.516ZM47.27 135.998L47.27 132.064L44.1748 132.064L44.1748 135.998L47.27 135.998ZM56.5562 132.064L50.3652 132.064L50.3652 145.749L55.6118 142.449L55.6118 138.578C55.6118 137.774 55.9795 137.056 56.5562 136.583L56.5562 132.064ZM62.7466 135.998L62.7466 132.064L59.6514 132.064L59.6514 135.998L62.7466 135.998ZM43.2305 139.094L43.2305 142.734C43.2305 143.62 42.7749 144.445 42.0244 144.917L34.5786 149.6L32.9253 150.443L38.9736 150.443L42.5464 148.458C43.4702 147.945 44.5073 148.067 45.2695 148.594C45.3687 148.525 45.4731 148.461 45.583 148.405L47.27 147.546L47.27 139.094L43.2305 139.094ZM62.7466 150.443L62.7466 139.094L58.707 139.094L58.707 142.734C58.707 143.62 58.2515 144.445 57.501 144.917L50.3652 149.405L50.3652 150.443L54.4502 150.443L58.0229 148.458C59.6616 147.548 61.6582 148.635 61.8408 150.443L62.7466 150.443Z" fill-rule="evenodd" fill="#080A0D"/>
	<path id="Tired" d="M30.4923 173.63L30.4923 172.798C30.4923 172.686 30.5403 172.622 30.6843 172.622L39.2923 172.622C39.4203 172.622 39.4843 172.686 39.4843 172.798L39.4843 173.63C39.4843 173.758 39.4203 173.79 39.2923 173.79L36.0443 173.79C35.9163 173.79 35.8683 173.822 35.8683 173.95L35.8683 184.286C35.8683 184.446 35.8043 184.494 35.6763 184.494L34.5243 184.494C34.3963 184.494 34.3323 184.446 34.3323 184.286L34.3323 173.966C34.3323 173.822 34.3003 173.79 34.1723 173.79L30.6843 173.79C30.5563 173.79 30.4923 173.758 30.4923 173.63ZM42.7728 172.862L42.7728 174.19C42.7728 174.382 42.7088 174.494 42.4848 174.494L41.5568 174.494C41.3648 174.494 41.3168 174.382 41.3168 174.222L41.3168 172.878C41.3168 172.718 41.3968 172.622 41.5408 172.622L42.5488 172.622C42.6768 172.622 42.7728 172.718 42.7728 172.862ZM42.7088 176.222L42.7088 184.222C42.7088 184.43 42.6448 184.494 42.4208 184.494L41.6048 184.494C41.4128 184.494 41.3648 184.43 41.3648 184.27L41.3648 176.238C41.3648 176.078 41.4288 176.014 41.5568 176.014L42.5328 176.014C42.6608 176.014 42.7088 176.078 42.7088 176.222ZM45.4169 184.494C45.2569 184.494 45.1929 184.43 45.1929 184.286L45.1929 176.222C45.1929 176.078 45.2569 176.014 45.3689 176.014L46.2969 176.014C46.4249 176.014 46.4729 176.078 46.4729 176.19L46.4729 177.23C46.4729 177.358 46.5529 177.39 46.6489 177.278C47.4809 176.302 48.2969 175.854 49.1289 175.854C49.5129 175.854 49.6889 175.918 49.6889 176.062L49.6889 177.022C49.6889 177.118 49.6409 177.166 49.5449 177.15C49.3529 177.118 49.0969 177.102 48.8249 177.102C47.8809 177.102 46.5369 178.03 46.5369 178.958L46.5369 184.254C46.5369 184.43 46.4569 184.494 46.2969 184.494L45.4169 184.494ZM52.0108 180.782C52.0108 182.35 53.2428 183.63 54.8108 183.63C55.8828 183.63 56.6988 183.198 57.3068 182.302C57.3868 182.222 57.4348 182.206 57.5308 182.254L58.2028 182.59C58.2828 182.638 58.2988 182.718 58.2348 182.814C57.3868 184.11 56.2668 184.654 54.6828 184.654C52.3148 184.654 50.6188 182.894 50.6188 180.334C50.6188 177.566 52.3788 175.854 54.6668 175.854C56.9868 175.854 58.5228 177.454 58.5228 180.19C58.5228 180.366 58.5388 180.542 58.2828 180.542L52.1548 180.542C52.0588 180.542 52.0108 180.638 52.0108 180.782ZM52.0428 179.662L56.9068 179.662C57.1308 179.662 57.1788 179.63 57.1788 179.438C57.1788 178.062 56.2668 176.814 54.6988 176.814C52.9868 176.814 52.0268 178.238 52.0428 179.662ZM66.4437 184.494C66.2997 184.494 66.2197 184.414 66.2197 184.27L66.2197 183.582C66.2197 183.422 66.1397 183.406 66.0117 183.518C65.6437 183.886 64.8917 184.654 63.4997 184.654C61.4997 184.654 59.9477 183.23 59.9477 180.382C59.9477 177.662 61.4997 175.854 63.6917 175.854C64.7317 175.854 65.4037 176.254 65.9317 176.702C66.1237 176.862 66.1877 176.814 66.1877 176.59L66.1877 172.83C66.1877 172.686 66.2357 172.622 66.3637 172.622L67.3397 172.622C67.4517 172.622 67.5157 172.686 67.5157 172.83L67.5157 184.238C67.5157 184.43 67.4677 184.494 67.2597 184.494L66.4437 184.494ZM66.1717 177.886C65.5157 177.23 64.8597 176.846 64.0117 176.846C62.4437 176.846 61.3237 178.062 61.3237 180.334C61.3237 182.686 62.5077 183.678 63.9157 183.678C65.2117 183.678 66.1717 182.622 66.1717 181.742L66.1717 177.886Z" fill-rule="evenodd" fill="#080A0D"/>
</svg>
