<svg width="120.000000" height="190.023193" viewBox="0 0 120 190.023" fill="none" xmlns="http://www.w3.org/2000/svg" xmlns:xlink="http://www.w3.org/1999/xlink">
	<desc>
			Created with Pixso.
	</desc>
	<defs/>
	<path id="NC headphones" d="M76.9766 39.5551C78.9375 40.9277 81.2622 41.4314 83.4722 41.1278C89.4502 40.3068 93.0063 33.8118 92.1025 27.293C91.332 21.74 87.4507 17.076 82.6221 16.3237C82.6157 16.2615 82.6094 16.1993 82.6021 16.1373C82.5981 16.103 82.5933 16.069 82.5884 16.0352C82.585 16.0011 82.5811 15.967 82.5762 15.9329C82.5674 15.8647 82.5576 15.7969 82.5474 15.729C82.542 15.6952 82.5366 15.6615 82.5303 15.6279C82.5259 15.5942 82.5205 15.5605 82.5146 15.5267C82.5034 15.4596 82.4917 15.3927 82.479 15.3258C82.4727 15.2922 82.4663 15.259 82.459 15.226C82.4531 15.1925 82.4468 15.1592 82.4399 15.1257C82.4268 15.0592 82.4126 14.9928 82.3979 14.9266C82.3906 14.8933 82.3828 14.8604 82.3745 14.8276C82.3677 14.7946 82.3604 14.7614 82.3525 14.7283C82.3369 14.663 82.3208 14.5978 82.3042 14.5327C82.2959 14.5001 82.2871 14.4678 82.2778 14.4357C82.27 14.4032 82.2617 14.3707 82.2529 14.3383C82.2354 14.2736 82.2173 14.209 82.1987 14.1447C82.1895 14.1123 82.1797 14.0803 82.1694 14.0486C82.1606 14.0164 82.1514 13.9843 82.1416 13.9521C82.1221 13.8883 82.1021 13.8248 82.0815 13.7614C82.0718 13.7299 82.061 13.6985 82.0498 13.6675C82.0405 13.636 82.0303 13.6046 82.0195 13.5731C81.9985 13.5106 81.9766 13.4481 81.9546 13.3859C81.9434 13.3546 81.9321 13.3237 81.9199 13.293C81.9136 13.2745 81.9072 13.2561 81.9009 13.2375C81.896 13.225 81.8916 13.2123 81.8867 13.1997C81.8638 13.1378 81.8403 13.076 81.8164 13.0145C81.8047 12.984 81.7925 12.9537 81.7798 12.9237C81.7681 12.8932 81.7563 12.8628 81.7441 12.8324C81.7197 12.7721 81.6948 12.7119 81.6699 12.6519C81.6572 12.6218 81.644 12.5919 81.6304 12.5625C81.6182 12.5323 81.606 12.5024 81.5928 12.4725C81.5664 12.4128 81.54 12.3534 81.5132 12.2941C81.4995 12.2644 81.4858 12.235 81.4712 12.2058C81.4585 12.176 81.4453 12.1465 81.4312 12.1169C81.4038 12.059 81.3765 12.0011 81.3481 11.9435C81.334 11.9144 81.3198 11.8859 81.3047 11.8575C81.2915 11.8286 81.2773 11.7997 81.2632 11.771C81.2344 11.7136 81.2051 11.6565 81.1753 11.5996C81.1606 11.5709 81.1455 11.5427 81.1299 11.5148C81.1157 11.4861 81.1011 11.4576 81.0859 11.4292C81.0557 11.3728 81.0249 11.3167 80.9941 11.2606C80.979 11.2329 80.9634 11.2054 80.9473 11.1783C80.9326 11.1505 80.9175 11.1228 80.9019 11.0952C80.8706 11.0402 80.8389 10.9854 80.8071 10.9308C80.7974 10.9138 80.7871 10.8971 80.7769 10.8804C80.771 10.87 80.7646 10.8597 80.7578 10.8495C80.7427 10.8219 80.7266 10.7946 80.7104 10.7673C80.6777 10.713 80.645 10.6589 80.6118 10.605C80.5952 10.5781 80.5786 10.5515 80.561 10.5253C80.5522 10.5105 80.5435 10.4956 80.5347 10.4808C80.5269 10.4689 80.5195 10.4568 80.5117 10.4447C80.4785 10.3921 80.4453 10.3396 80.4111 10.2872C80.394 10.2609 80.377 10.235 80.3589 10.2094L80.3501 10.1953L80.3452 10.1874C80.3335 10.1685 80.3208 10.1495 80.3086 10.1306C80.2739 10.0786 80.2393 10.0267 80.2041 9.9751C80.1865 9.9491 80.1685 9.92358 80.1499 9.89832C80.1333 9.87219 80.1157 9.84631 80.0977 9.82056C80.0625 9.76965 80.0264 9.71887 79.9907 9.66821C79.9829 9.65784 79.9756 9.64758 79.9683 9.63733C79.9575 9.62268 79.9468 9.60815 79.9355 9.59375C79.9185 9.56848 79.9009 9.54333 79.8823 9.51831C79.8462 9.46851 79.8096 9.41895 79.7729 9.36938L79.769 9.36414C79.7646 9.3584 79.7603 9.35266 79.7559 9.34692L79.7461 9.33423L79.7407 9.3269C79.7324 9.31653 79.7246 9.30615 79.7163 9.2959C79.6987 9.27087 79.6802 9.24609 79.6616 9.22156C79.624 9.17236 79.5864 9.12341 79.5483 9.07458C79.5298 9.05017 79.5103 9.02625 79.4907 9.00269C79.4727 8.97815 79.4541 8.95386 79.4346 8.92969C79.397 8.88196 79.3589 8.83447 79.3203 8.78711C79.3013 8.76343 79.2817 8.73999 79.2617 8.71692C79.2432 8.69299 79.2241 8.66919 79.2046 8.64563C79.166 8.59863 79.127 8.55176 79.0874 8.505C79.0679 8.48157 79.0479 8.4585 79.0273 8.43579C79.0083 8.41211 78.9888 8.38867 78.9688 8.36536C78.9287 8.31921 78.8892 8.27332 78.8491 8.22742C78.8291 8.20471 78.8086 8.18225 78.7881 8.16028C78.769 8.13733 78.749 8.1145 78.729 8.09204C78.689 8.047 78.6484 8.0022 78.6079 7.95752C78.5874 7.93506 78.5669 7.91309 78.5459 7.89136C78.5264 7.86865 78.5059 7.84619 78.4854 7.82397C78.4443 7.77966 78.4028 7.73547 78.3613 7.69141C78.3408 7.66931 78.3193 7.64758 78.2983 7.62622C78.2778 7.60388 78.2573 7.58179 78.2363 7.55994C78.1948 7.51697 78.1533 7.474 78.1118 7.43127C78.0908 7.40979 78.0693 7.38879 78.0479 7.36804C78.0278 7.34631 78.0068 7.32483 77.9858 7.30359C77.9438 7.26123 77.9014 7.21887 77.8584 7.17676C77.8374 7.15564 77.8154 7.13489 77.7935 7.1145C77.7729 7.09314 77.7515 7.0719 77.73 7.0509C77.687 7.00916 77.644 6.96753 77.6006 6.92603C77.5786 6.9054 77.5571 6.88525 77.5352 6.86536C77.5142 6.84448 77.4927 6.82385 77.4712 6.80347C77.4277 6.76294 77.3843 6.72253 77.3408 6.68225C77.3188 6.66211 77.2969 6.64221 77.2744 6.6228C77.2529 6.60229 77.2314 6.58203 77.2095 6.56201C77.1655 6.52197 77.1211 6.48218 77.0771 6.4425C77.0547 6.42261 77.0322 6.40308 77.0093 6.38391C76.9878 6.36377 76.9658 6.34375 76.9434 6.3241C76.8989 6.28491 76.854 6.24597 76.8091 6.20728C76.7871 6.18787 76.7642 6.16895 76.7417 6.15039C76.7197 6.13074 76.6978 6.11133 76.6753 6.09229C76.6304 6.05408 76.5854 6.01599 76.54 5.97815C76.5176 5.95911 76.4946 5.94043 76.4717 5.92224C76.4492 5.90283 76.4268 5.88379 76.4038 5.86499C76.3584 5.82739 76.3125 5.78992 76.2666 5.75269C76.2437 5.73389 76.2202 5.71558 76.1968 5.69763C76.1743 5.67859 76.1514 5.65979 76.1284 5.64124C76.0825 5.60474 76.0366 5.56836 75.9907 5.53223C75.9678 5.51404 75.9443 5.49622 75.9209 5.47888C75.8984 5.46033 75.8755 5.44214 75.8525 5.42407C75.8062 5.38818 75.7598 5.35254 75.7129 5.31689C75.6895 5.29907 75.666 5.28149 75.6421 5.2644C75.6191 5.24622 75.5957 5.22827 75.5723 5.21057C75.5254 5.17529 75.478 5.14014 75.4307 5.1051C75.4072 5.08765 75.3833 5.07056 75.3594 5.05383C75.3364 5.03601 75.313 5.01855 75.2891 5.00122C75.2422 4.96692 75.1948 4.93286 75.1475 4.89893C75.124 4.88184 75.1001 4.86523 75.0757 4.84888C75.0527 4.83154 75.0288 4.81433 75.0049 4.79749C74.9575 4.76379 74.9097 4.73035 74.8618 4.6969C74.8374 4.68018 74.8135 4.66382 74.7891 4.64783C74.7651 4.63074 74.7417 4.61389 74.7173 4.59729C74.6689 4.56421 74.6206 4.53125 74.5718 4.49854C74.5479 4.48218 74.5234 4.46631 74.499 4.45081C74.4756 4.4342 74.4517 4.41772 74.4272 4.40161C74.3789 4.36951 74.3306 4.33765 74.2817 4.30579C74.2573 4.28979 74.2329 4.27429 74.2085 4.25916C74.1846 4.2428 74.1602 4.22668 74.1357 4.21094C74.0869 4.17932 74.0381 4.14807 73.9888 4.11682C73.9639 4.1012 73.939 4.08594 73.9141 4.07104C73.8901 4.05493 73.8657 4.03918 73.8408 4.02368C73.7915 3.9928 73.7422 3.96216 73.6924 3.93164C73.6675 3.91638 73.6431 3.90161 73.6177 3.88721C73.5938 3.87158 73.5693 3.85632 73.5444 3.84131C73.4951 3.81128 73.4453 3.78149 73.3955 3.75183C73.3706 3.73694 73.3457 3.72241 73.3203 3.70825C73.2959 3.69299 73.271 3.67798 73.2461 3.66321C73.1963 3.63391 73.146 3.60461 73.0957 3.57556C73.0703 3.56091 73.0454 3.54675 73.0195 3.53296C72.9951 3.51794 72.9697 3.50317 72.9448 3.48877C72.8945 3.46021 72.8438 3.43164 72.7935 3.40332C72.7681 3.38916 72.7427 3.37549 72.7173 3.36206C72.6929 3.34753 72.6675 3.33325 72.6421 3.31921C72.5918 3.29138 72.541 3.26355 72.4902 3.23596C72.4648 3.22217 72.4395 3.20874 72.4136 3.19568C72.3887 3.1814 72.3633 3.16736 72.3379 3.15369C72.2866 3.12646 72.2358 3.09924 72.1846 3.07227C72.1587 3.05872 72.1328 3.04565 72.1069 3.03284C72.0815 3.01892 72.0562 3.00525 72.0303 2.99182C71.979 2.96533 71.9277 2.93896 71.8765 2.91272C71.8506 2.89966 71.8247 2.88696 71.7988 2.87463C71.7734 2.86096 71.748 2.84778 71.7222 2.83484C71.6709 2.80896 71.6191 2.78333 71.5674 2.75781C71.5415 2.745 71.5156 2.73254 71.4893 2.72058C71.4639 2.70728 71.438 2.69434 71.4121 2.68164C71.3599 2.65649 71.3081 2.63135 71.2559 2.60645C71.2295 2.59399 71.2036 2.58191 71.1772 2.57019C71.1514 2.55725 71.1255 2.54456 71.0991 2.53223C71.0469 2.50781 70.9951 2.48352 70.9429 2.45935C70.9165 2.44727 70.8901 2.43567 70.8638 2.42432C70.8379 2.41174 70.812 2.39954 70.7856 2.38757C70.7334 2.36377 70.6807 2.34021 70.6284 2.31677C70.6021 2.30493 70.5752 2.29358 70.5488 2.28259C70.5229 2.27039 70.4966 2.25842 70.4702 2.24683C70.4175 2.22363 70.3643 2.20068 70.3115 2.17773C70.2847 2.16638 70.2583 2.15527 70.2314 2.14465C70.2051 2.13269 70.1787 2.12109 70.1523 2.10974C70.0991 2.0874 70.0464 2.06519 69.9932 2.04309C69.9668 2.03198 69.9399 2.02136 69.9131 2.01111C69.8867 1.99951 69.8604 1.98828 69.834 1.97742C69.7808 1.95569 69.7271 1.93408 69.6738 1.91272C69.647 1.90198 69.6201 1.8916 69.5933 1.88171C69.5669 1.87036 69.54 1.8595 69.5132 1.84888C69.4595 1.82788 69.4058 1.80688 69.3521 1.78613C69.3252 1.77576 69.2979 1.76562 69.271 1.7561C69.2441 1.74512 69.2173 1.7345 69.1904 1.72424C69.1367 1.70398 69.083 1.68384 69.0293 1.66382C69.002 1.65381 68.9751 1.64417 68.9478 1.63489C68.9214 1.62439 68.8945 1.61414 68.8672 1.60425C68.8135 1.58459 68.7593 1.56506 68.7051 1.54578C68.6777 1.53601 68.6504 1.52673 68.6235 1.51782C68.5967 1.50757 68.5693 1.49768 68.542 1.48816C68.4878 1.46912 68.4336 1.45032 68.3789 1.43164C68.3516 1.42224 68.3242 1.41321 68.2969 1.40466C68.2695 1.39478 68.2427 1.38525 68.2148 1.37598C68.1606 1.35779 68.106 1.3396 68.0518 1.32166C68.0239 1.31274 67.9966 1.30408 67.9692 1.2959C67.9424 1.28638 67.915 1.27722 67.8877 1.26843C67.833 1.25073 67.7778 1.2334 67.7231 1.21606C67.6953 1.2074 67.668 1.1991 67.6401 1.19128C67.6133 1.18213 67.5854 1.17322 67.5581 1.16479C67.5029 1.14783 67.4478 1.1311 67.3926 1.1145C67.3647 1.10608 67.3374 1.09827 67.3096 1.0907C67.2822 1.08191 67.2544 1.07336 67.2266 1.06519C67.1714 1.04907 67.1162 1.03296 67.061 1.01721C67.0332 1.00916 67.0059 1.00171 66.978 0.994507C66.9507 0.986084 66.9229 0.977905 66.895 0.970093C66.8398 0.95459 66.7842 0.939331 66.7285 0.924194C66.7007 0.916504 66.6729 0.909302 66.645 0.902588C66.6172 0.894409 66.5898 0.886597 66.5615 0.87915C66.5059 0.86438 66.4502 0.849731 66.3945 0.835205C66.3662 0.828003 66.3384 0.821167 66.3101 0.814697C66.2827 0.806885 66.2544 0.799438 66.2266 0.792358C66.1709 0.77832 66.1147 0.764404 66.0591 0.750732C66.0308 0.743774 66.0029 0.737305 65.9746 0.731323C65.9473 0.723877 65.9194 0.716797 65.8911 0.710083C65.835 0.696777 65.7788 0.683594 65.7227 0.670532C65.6943 0.66394 65.6665 0.657837 65.6382 0.652222C65.6104 0.645142 65.582 0.638306 65.5542 0.631958C65.4976 0.619385 65.4414 0.606934 65.3848 0.594604C65.3564 0.588379 65.3281 0.582642 65.2998 0.577271C65.272 0.570557 65.2437 0.564209 65.2153 0.558228C65.1592 0.546265 65.1025 0.534546 65.0459 0.523071C65.0176 0.517212 64.9893 0.511841 64.9609 0.506958C64.9331 0.50061 64.9048 0.494629 64.8765 0.489014C64.8198 0.477783 64.7632 0.466797 64.7065 0.455933C64.6782 0.450562 64.6494 0.445557 64.6211 0.440918C64.5928 0.434937 64.5645 0.429321 64.5361 0.424072C64.4795 0.413574 64.4224 0.40332 64.3652 0.393311C64.3369 0.388184 64.3081 0.383545 64.2798 0.379272C64.2515 0.373657 64.2231 0.368408 64.1943 0.363525C64.1372 0.353882 64.0806 0.34436 64.0234 0.335083C63.9946 0.330322 63.9663 0.32605 63.9375 0.322266C63.9092 0.317017 63.8809 0.312134 63.8521 0.307617C63.7949 0.298706 63.7378 0.289917 63.6807 0.281372C63.6519 0.2771 63.6235 0.273193 63.5947 0.269653C63.5664 0.264771 63.5376 0.260376 63.5088 0.256226C63.4517 0.248047 63.3945 0.23999 63.3369 0.232178C63.3081 0.228271 63.2793 0.224731 63.2505 0.22168C63.2222 0.217163 63.1934 0.213013 63.1646 0.209351C63.1069 0.201904 63.0498 0.194702 62.9922 0.187622C62.9634 0.184082 62.9346 0.18103 62.9058 0.178223C62.8774 0.174194 62.8486 0.17041 62.8198 0.167114C62.7622 0.1604 62.7046 0.153931 62.647 0.147705C62.6182 0.144531 62.5889 0.141846 62.5601 0.139526C62.5317 0.135742 62.5029 0.132446 62.4736 0.129517C62.416 0.123657 62.3584 0.11792 62.3003 0.112427C62.2715 0.109741 62.2427 0.107422 62.2139 0.105469C62.1851 0.102051 62.1558 0.0991211 62.127 0.0965576C62.0693 0.0915527 62.0112 0.0866699 61.9536 0.0819092C61.9243 0.0795898 61.8955 0.0776367 61.8667 0.0760498C61.8379 0.0731201 61.8091 0.0705566 61.7798 0.0684814C61.7222 0.064209 61.6641 0.0600586 61.606 0.0561523C61.5767 0.0541992 61.5479 0.0527344 61.519 0.0515137C61.4902 0.0489502 61.4609 0.046875 61.4321 0.0450439C61.374 0.041626 61.3159 0.0383301 61.2578 0.0351562C61.2285 0.0336914 61.1992 0.0324707 61.1704 0.0317383C61.1416 0.0296631 61.1123 0.027832 61.083 0.0264893C61.0249 0.0238037 60.9668 0.0213623 60.9087 0.019165C60.8794 0.0179443 60.8506 0.0172119 60.8213 0.0169678C60.7925 0.0151367 60.7632 0.0137939 60.7344 0.0129395C60.6763 0.0109863 60.6177 0.00939941 60.5596 0.00793457C60.5303 0.00720215 60.501 0.00683594 60.4722 0.00695801C60.4434 0.00561523 60.4141 0.00463867 60.3848 0.00415039C60.3267 0.00317383 60.2681 0.00231934 60.21 0.00170898C60.1807 0.00134277 60.1514 0.00146484 60.1221 0.00195312C60.0933 0.000976562 60.064 0.000488281 60.0347 0.000366211C60.0054 0.000244141 59.9761 0.000244141 59.9468 0.000244141C59.9175 0.000244141 59.8887 0.000244141 59.8594 0.000366211C59.8301 0.000488281 59.8008 0.000976562 59.7715 0.00195312C59.7427 0.00146484 59.7134 0.00134277 59.6841 0.00170898C59.6255 0.00231934 59.5674 0.00317383 59.5093 0.00415039C59.48 0.00463867 59.4507 0.00561523 59.4219 0.00695801C59.3926 0.00683594 59.3633 0.00720215 59.334 0.00793457C59.2759 0.00939941 59.2178 0.0109863 59.1597 0.0129395C59.1304 0.0137939 59.1011 0.0151367 59.0723 0.0169678C59.0435 0.0172119 59.0142 0.0179443 58.9849 0.019165C58.9268 0.0213623 58.8687 0.0239258 58.8105 0.0264893C58.7812 0.0279541 58.7524 0.0296631 58.7236 0.0318604C58.6943 0.0324707 58.6655 0.0336914 58.6362 0.0351562C58.5781 0.0383301 58.52 0.041626 58.4619 0.0450439C58.4326 0.046875 58.4038 0.0489502 58.375 0.0515137C58.3457 0.0527344 58.3169 0.0541992 58.2876 0.0561523C58.23 0.0600586 58.1719 0.064209 58.1138 0.0684814C58.085 0.0705566 58.0562 0.0731201 58.0273 0.0761719C57.9985 0.0776367 57.9692 0.0795898 57.9404 0.0819092C57.8823 0.0866699 57.8247 0.0915527 57.7671 0.0965576C57.7378 0.0991211 57.709 0.102051 57.6802 0.105469C57.6514 0.107422 57.6221 0.109741 57.5933 0.112427C57.5356 0.11792 57.4775 0.123657 57.4199 0.129517C57.3911 0.132446 57.3623 0.135864 57.3335 0.139526C57.3047 0.141846 57.2759 0.144531 57.2471 0.147705C57.1895 0.154053 57.1318 0.1604 57.0742 0.167114C57.0454 0.17041 57.0166 0.174194 56.9878 0.178223C56.9595 0.18103 56.9307 0.184082 56.9019 0.187622C56.8442 0.194702 56.7866 0.201904 56.7295 0.209351C56.7007 0.213013 56.6719 0.217163 56.6431 0.22168C56.6147 0.224731 56.5859 0.228271 56.5571 0.232178C56.4995 0.23999 56.4424 0.248047 56.3848 0.256226C56.356 0.260376 56.3276 0.264771 56.2988 0.269653C56.2705 0.273193 56.2417 0.2771 56.2129 0.281372C56.1558 0.289917 56.0986 0.298706 56.0415 0.307617C56.0127 0.312134 55.9844 0.317017 55.9561 0.322266C55.9277 0.32605 55.8989 0.330322 55.8701 0.335083C55.8135 0.34436 55.7563 0.353882 55.6997 0.363525C55.6709 0.368408 55.6426 0.373657 55.6143 0.379272C55.5854 0.383545 55.5571 0.388184 55.5283 0.393311C55.4717 0.40332 55.4146 0.413574 55.3579 0.424072C55.3291 0.429321 55.3008 0.434937 55.2725 0.440918C55.2441 0.445557 55.2158 0.450562 55.1875 0.455933C55.1309 0.466797 55.0737 0.477783 55.0176 0.489014C54.9888 0.494629 54.9609 0.50061 54.9326 0.506958C54.9043 0.511841 54.876 0.517212 54.8477 0.523071C54.791 0.534546 54.7349 0.546265 54.6782 0.558228C54.6499 0.564209 54.6221 0.570557 54.5938 0.577271C54.5654 0.582642 54.5371 0.588379 54.5088 0.594604C54.4526 0.606934 54.396 0.619385 54.3398 0.63208C54.3115 0.638428 54.2837 0.645142 54.2559 0.652222C54.2275 0.657837 54.1992 0.664062 54.1709 0.670532C54.1147 0.683594 54.0586 0.696777 54.0029 0.710083C53.9746 0.716797 53.9468 0.723877 53.9189 0.731323C53.8911 0.737427 53.8628 0.743896 53.835 0.750732C53.7788 0.764404 53.7231 0.77832 53.6675 0.792358C53.6392 0.799438 53.6113 0.806885 53.5835 0.814697C53.5557 0.821167 53.5273 0.828003 53.4995 0.835205C53.4438 0.849731 53.3877 0.86438 53.332 0.87915C53.3042 0.886597 53.2764 0.894409 53.249 0.902588C53.2212 0.909302 53.1929 0.916504 53.165 0.924194C53.1099 0.939331 53.0542 0.95459 52.9985 0.970093C52.9707 0.977905 52.9434 0.986084 52.916 0.994507C52.8882 1.00171 52.8604 1.00928 52.8325 1.01721C52.7773 1.03296 52.7222 1.04907 52.667 1.06519C52.6392 1.07336 52.6118 1.08191 52.5845 1.0907C52.5566 1.09827 52.5288 1.1062 52.501 1.1145C52.4458 1.1311 52.3906 1.14783 52.3359 1.16479C52.3081 1.17322 52.2808 1.18213 52.2534 1.19128C52.2261 1.19922 52.1982 1.2074 52.1709 1.21606C52.1157 1.2334 52.061 1.25085 52.0063 1.26843C51.979 1.27722 51.9517 1.28638 51.9248 1.2959C51.897 1.30408 51.8696 1.31274 51.8423 1.32178C51.7876 1.3396 51.7334 1.35779 51.6787 1.37598C51.6514 1.38525 51.624 1.39478 51.5972 1.40466C51.5698 1.41321 51.5425 1.42224 51.5151 1.43164C51.4604 1.45032 51.4058 1.46912 51.3516 1.48816C51.3242 1.49768 51.2974 1.50757 51.2705 1.51782C51.2432 1.52673 51.2158 1.53601 51.189 1.54578C51.1348 1.56506 51.0806 1.58459 51.0264 1.60425C50.9995 1.61414 50.9727 1.62439 50.9458 1.63489C50.9189 1.64417 50.8916 1.65381 50.8647 1.66382C50.811 1.68384 50.7568 1.70398 50.7036 1.72437C50.6763 1.73462 50.6494 1.74512 50.623 1.7561C50.5957 1.76575 50.5688 1.77576 50.5415 1.78613C50.4878 1.80688 50.4341 1.82788 50.3804 1.849C50.3535 1.8595 50.3271 1.87048 50.3008 1.88171C50.2739 1.8916 50.2466 1.90198 50.2202 1.91272C50.1665 1.93408 50.1133 1.95569 50.0601 1.97742C50.0332 1.98828 50.0068 1.99951 49.9805 2.01111C49.9541 2.02136 49.9272 2.0321 49.9004 2.04309C49.8477 2.06519 49.7944 2.0874 49.7417 2.10974C49.7148 2.12109 49.6885 2.13269 49.6626 2.14465C49.6357 2.15527 49.6089 2.16638 49.5825 2.17786C49.5293 2.20068 49.4766 2.22363 49.4238 2.24683C49.397 2.25842 49.3711 2.27039 49.3447 2.28259C49.3184 2.29358 49.292 2.30493 49.2656 2.31677C49.2129 2.34021 49.1606 2.36389 49.1079 2.38757C49.0815 2.39954 49.0557 2.41174 49.0298 2.42432C49.0034 2.43567 48.9775 2.44739 48.9512 2.45947C48.8989 2.48352 48.8467 2.50781 48.7949 2.53223C48.7686 2.54456 48.7427 2.55725 48.7168 2.57019C48.6904 2.58191 48.6641 2.59399 48.6382 2.60645C48.5859 2.63135 48.5337 2.65649 48.4819 2.68164C48.4556 2.69434 48.4302 2.70728 48.4043 2.72058C48.3784 2.73254 48.3521 2.745 48.3262 2.75781C48.2744 2.78333 48.2231 2.80896 48.1714 2.83484C48.1455 2.84778 48.1201 2.86108 48.0947 2.87463C48.0688 2.88696 48.043 2.89966 48.0176 2.91272C47.9658 2.93896 47.9146 2.96533 47.8638 2.99182C47.8379 3.00525 47.812 3.01892 47.7871 3.03284C47.7612 3.04565 47.7354 3.05872 47.7095 3.07227C47.6582 3.09924 47.6069 3.12646 47.5562 3.15369C47.5308 3.16736 47.5054 3.1814 47.48 3.19568C47.4546 3.20874 47.4287 3.22217 47.4033 3.23596C47.3525 3.26355 47.3022 3.29138 47.2515 3.31921C47.2261 3.33325 47.2012 3.34753 47.1763 3.36206C47.1509 3.37549 47.1255 3.38916 47.1006 3.40332C47.0498 3.43164 46.9995 3.46021 46.9492 3.48877C46.9238 3.5033 46.8989 3.51794 46.874 3.53296C46.8486 3.54675 46.8232 3.56104 46.7979 3.57556C46.748 3.60461 46.6978 3.63391 46.6479 3.66321C46.6226 3.67798 46.5981 3.69299 46.5732 3.70837C46.5483 3.72241 46.5229 3.73694 46.498 3.75183C46.4482 3.78149 46.3989 3.81128 46.3496 3.84131C46.3247 3.85632 46.3003 3.87158 46.2759 3.88721C46.251 3.90161 46.2261 3.9165 46.2017 3.93164C46.1519 3.96216 46.1025 3.99292 46.0532 4.02368C46.0283 4.03918 46.0039 4.05493 45.9795 4.07104C45.9546 4.08594 45.9297 4.1012 45.9053 4.11682C45.856 4.14807 45.8071 4.17944 45.7583 4.21094C45.7334 4.22668 45.7095 4.2428 45.6855 4.25916C45.6606 4.27429 45.6362 4.28992 45.6118 4.30579C45.5635 4.33765 45.5146 4.36963 45.4663 4.40161C45.4424 4.41772 45.4185 4.4342 45.3945 4.45081C45.3701 4.46631 45.3462 4.48218 45.3218 4.49854C45.2734 4.53125 45.2246 4.56421 45.1768 4.59729C45.1523 4.61389 45.1284 4.63074 45.105 4.64783C45.0806 4.66382 45.0562 4.68018 45.0322 4.6969C44.9844 4.73035 44.9365 4.76379 44.8887 4.79749C44.8647 4.81433 44.8413 4.83154 44.8179 4.849C44.7939 4.86523 44.77 4.88184 44.7461 4.89893C44.6987 4.93286 44.6519 4.96704 44.6045 5.00122C44.5811 5.01855 44.5576 5.03613 44.5342 5.05396C44.5103 5.07056 44.4868 5.08765 44.4629 5.1051C44.4155 5.14014 44.3687 5.17529 44.3213 5.21057C44.2979 5.22827 44.2749 5.24622 44.252 5.26453C44.228 5.28162 44.2046 5.29907 44.1812 5.31689C44.1343 5.35254 44.0879 5.38831 44.0415 5.42419C44.0181 5.44214 43.9951 5.46033 43.9727 5.47888C43.9492 5.49634 43.9263 5.51404 43.9028 5.53223C43.8569 5.56848 43.811 5.60474 43.7656 5.64124C43.7422 5.65979 43.7192 5.67859 43.6968 5.69763C43.6733 5.71558 43.6504 5.73389 43.627 5.75269C43.5811 5.78992 43.5356 5.82739 43.4897 5.86499C43.4673 5.88379 43.4443 5.90283 43.4224 5.92224C43.3994 5.94055 43.3765 5.95911 43.3535 5.97815C43.3086 6.01599 43.2637 6.05408 43.2188 6.09229C43.1963 6.11145 43.1738 6.13074 43.1523 6.15039C43.1294 6.16895 43.1069 6.18787 43.0845 6.20728C43.0396 6.24609 42.9951 6.28503 42.9507 6.3241C42.9282 6.34375 42.9062 6.36377 42.8843 6.38403C42.8618 6.4032 42.8394 6.42261 42.8169 6.44263C42.7725 6.48218 42.7285 6.52209 42.6846 6.56201C42.6621 6.58203 42.6406 6.60229 42.6191 6.6228C42.5972 6.64221 42.5747 6.66211 42.5532 6.68225C42.5093 6.72253 42.4658 6.76294 42.4229 6.80359C42.4014 6.82397 42.3799 6.8446 42.3589 6.86536C42.3369 6.88525 42.3149 6.9054 42.2935 6.92603C42.25 6.96753 42.2065 7.00916 42.1636 7.0509C42.1421 7.0719 42.1211 7.09314 42.1001 7.1145C42.0781 7.13489 42.0566 7.15564 42.0352 7.17688C41.9927 7.21899 41.9502 7.26123 41.9082 7.30359C41.8867 7.32483 41.8662 7.34644 41.8457 7.36804C41.8242 7.38879 41.8032 7.40991 41.7822 7.43127C41.7402 7.474 41.6987 7.51697 41.6577 7.55994C41.6362 7.58179 41.6157 7.604 41.5957 7.62634C41.5742 7.64758 41.5532 7.66931 41.5322 7.69141C41.4907 7.73547 41.4497 7.77966 41.4082 7.82397C41.3877 7.84619 41.3677 7.86865 41.3477 7.89136C41.3271 7.91309 41.3062 7.93518 41.2856 7.95752C41.2451 8.0022 41.2051 8.04712 41.1646 8.09204C41.1445 8.11462 41.125 8.13733 41.1055 8.16028C41.085 8.18237 41.0649 8.20471 41.0449 8.22742C41.0049 8.27332 40.9648 8.31921 40.9253 8.36536C40.9053 8.38867 40.8857 8.41211 40.8667 8.43579C40.8462 8.4585 40.8262 8.48157 40.8066 8.505C40.7671 8.55176 40.728 8.59863 40.689 8.64563C40.6694 8.66919 40.6504 8.69299 40.6318 8.71692C40.6123 8.73999 40.5928 8.76343 40.5732 8.78723C40.5352 8.83447 40.4971 8.88208 40.459 8.92969C40.4399 8.95386 40.4214 8.97815 40.4028 9.00269C40.3833 9.02625 40.3643 9.05029 40.3452 9.07458C40.3071 9.12341 40.2695 9.17236 40.2324 9.22156C40.2134 9.24622 40.1953 9.271 40.1772 9.29602C40.1582 9.32007 40.1396 9.3446 40.1211 9.36951C40.084 9.41895 40.0474 9.46863 40.0112 9.51843C39.9932 9.54333 39.9756 9.56848 39.958 9.59375C39.9395 9.61829 39.9214 9.64307 39.9033 9.66821C39.8672 9.71887 39.8315 9.76965 39.7959 9.82056C39.7783 9.84631 39.7607 9.87219 39.7437 9.89832C39.7256 9.92358 39.7075 9.94922 39.6899 9.9751C39.6548 10.0269 39.6196 10.0786 39.5854 10.1306C39.5679 10.1567 39.5513 10.183 39.5347 10.2094C39.5171 10.235 39.4995 10.261 39.4824 10.2872C39.4487 10.3396 39.415 10.3921 39.3818 10.4448C39.3652 10.4714 39.3486 10.4983 39.3325 10.5254C39.3154 10.5515 39.2983 10.5781 39.2817 10.605C39.2485 10.6589 39.2158 10.7131 39.1836 10.7673C39.167 10.7946 39.1514 10.822 39.1357 10.8495C39.1191 10.8762 39.1025 10.9033 39.0869 10.9308C39.0547 10.9855 39.0234 11.0403 38.9922 11.0952C38.9766 11.1228 38.9614 11.1505 38.9468 11.1783C38.9307 11.2054 38.915 11.2329 38.8994 11.2607C38.8687 11.3167 38.8384 11.3729 38.8081 11.4292C38.793 11.4576 38.7783 11.4862 38.7642 11.5148C38.7485 11.5427 38.7334 11.571 38.7183 11.5996C38.689 11.6566 38.6597 11.7137 38.6309 11.771C38.6162 11.7998 38.6025 11.8286 38.5889 11.8575C38.5742 11.8859 38.5596 11.9146 38.5454 11.9435C38.5176 12.0011 38.4897 12.059 38.4624 12.1169C38.4487 12.1465 38.4355 12.1761 38.4224 12.2059C38.4082 12.235 38.394 12.2644 38.3809 12.2942C38.354 12.3534 38.3271 12.413 38.3013 12.4725C38.2881 12.5024 38.2754 12.5325 38.2637 12.5625C38.25 12.592 38.2368 12.6218 38.2241 12.652C38.1987 12.7119 38.1738 12.7721 38.1494 12.8324C38.1372 12.8628 38.1255 12.8933 38.1143 12.9238C38.1016 12.9537 38.0894 12.984 38.0771 13.0146C38.0532 13.0762 38.0298 13.1378 38.0068 13.1998C37.9956 13.2308 37.9844 13.262 37.9741 13.2931C37.9619 13.3237 37.9502 13.3547 37.9395 13.386C37.917 13.4482 37.8955 13.5106 37.874 13.5732C37.8638 13.6046 37.8535 13.6361 37.8438 13.6675C37.833 13.6986 37.8223 13.7299 37.812 13.7615C37.7915 13.8248 37.7715 13.8884 37.7524 13.9521C37.7422 13.9843 37.7329 14.0165 37.7246 14.0486C37.7144 14.0804 37.7046 14.1124 37.6948 14.1448C37.6763 14.2091 37.6582 14.2736 37.6406 14.3383C37.6318 14.3707 37.6235 14.4032 37.6162 14.4357C37.6069 14.4678 37.5981 14.5002 37.5894 14.5328C37.5732 14.5979 37.5571 14.6631 37.5415 14.7284C37.5337 14.7615 37.5264 14.7946 37.5195 14.8276C37.5112 14.8604 37.5034 14.8934 37.4961 14.9266C37.4814 14.9929 37.4673 15.0593 37.4536 15.1259C37.4468 15.1592 37.4409 15.1926 37.4351 15.226C37.4277 15.259 37.4209 15.2924 37.4146 15.3259C37.4023 15.3927 37.3901 15.4597 37.3789 15.5267C37.3735 15.5605 37.3682 15.5944 37.3638 15.6281C37.3574 15.6615 37.3516 15.6952 37.3467 15.7291C37.3364 15.7969 37.3267 15.8649 37.3174 15.9329C37.313 15.967 37.3091 16.0011 37.3057 16.0352C37.3003 16.0691 37.2959 16.1031 37.292 16.1373C37.2842 16.2052 37.2769 16.2731 37.27 16.3412C32.4917 17.1455 28.6621 21.7814 27.8975 27.293C26.9932 33.8118 30.5493 40.3068 36.5273 41.1278C38.6738 41.4226 40.9277 40.9563 42.8516 39.6722C43.3218 40.2927 43.8311 40.8842 44.3779 41.4476C44.9902 42.0782 45.646 42.6697 46.3428 43.2255C46.3169 43.337 46.3032 43.4531 46.3032 43.5725L46.3032 48.6616C46.3032 48.7112 46.3057 48.7601 46.3105 48.8085C37.7754 53.6147 31.96 62.4784 31.5015 72.7908C31.4824 72.8873 31.4727 72.9872 31.4727 73.0894L31.4727 106.49C31.4727 106.799 31.5288 107.106 31.6387 107.395L32.7544 110.33C33.1299 111.317 34.0767 111.97 35.1328 111.97L41.1865 111.97C42.0229 111.97 42.7651 111.567 43.229 110.944L42.7534 127.98C42.7134 129.413 43.8638 130.596 45.2969 130.596L45.3828 130.596L45.3828 145.657C45.2896 145.727 45.2041 145.807 45.1279 145.897C42.0454 146.221 39.6553 148.797 39.6553 151.97L39.6553 152.479C39.6553 153.884 40.7944 155.023 42.1997 155.023L55.0933 155.023C56.5024 155.023 57.6436 153.878 57.6377 152.468L57.5459 130.595C58.9824 130.566 60.1147 129.351 60.0342 127.909L59.1611 112.275L61.6304 112.275L61.166 127.977C61.1235 129.411 62.2749 130.596 63.7095 130.596L63.7935 130.596L63.7935 145.876C60.5889 146.08 58.0659 148.71 58.0659 151.97L58.0659 152.479C58.0659 153.884 59.2051 155.023 60.6104 155.023L73.5078 155.023C74.9131 155.023 76.0527 153.884 76.0527 152.479L76.0527 130.596L76.4282 130.596C77.8774 130.596 79.0342 129.387 78.9702 127.939L78.1812 110.141C78.6455 110.64 79.3081 110.952 80.0439 110.952L86.0977 110.952C87.1543 110.952 88.1006 110.299 88.4761 109.312L89.5894 106.384C89.7036 106.083 89.7598 105.763 89.7549 105.441L89.2466 72.0481C89.2432 71.8325 89.1953 71.6281 89.1123 71.4434C88.1304 61.7535 81.8887 53.3939 73.8999 48.781C73.9028 48.7416 73.9043 48.7018 73.9043 48.6616L73.9043 43.5725C73.9043 43.3561 73.8594 43.15 73.7783 42.9634C74.3486 42.4802 74.8911 41.9709 75.4028 41.4331C75.9683 40.8386 76.4937 40.2131 76.9766 39.5551ZM77.7886 25.677L77.7886 25.6786L77.7886 25.6799L77.7886 25.6808L77.7886 25.6812C77.7939 25.8552 77.8276 26.0217 77.8853 26.1764C77.8032 32.1094 76.0728 36.2434 73.1626 39.3015C70.1582 42.4587 65.7534 44.6227 60.1094 46.2836C54.1978 44.6201 49.6631 42.452 46.5967 39.2936C43.561 36.1672 41.8179 31.9169 41.813 25.7576L41.8135 25.7422C41.8149 25.714 41.8169 25.668 41.8208 25.6056C41.8286 25.4808 41.8428 25.2904 41.8677 25.0438C41.9175 24.5502 42.0107 23.8344 42.1821 22.9711C42.5269 21.2379 43.1807 18.947 44.4092 16.6726C45.6348 14.4043 47.4199 12.1747 50.0273 10.5085C52.6265 8.84766 56.1279 7.69177 60.8813 7.69177C60.9121 7.69177 60.9429 7.69092 60.9731 7.68909C64.6045 7.99292 67.4033 9.02759 69.5737 10.4143C72.1812 12.0804 73.9658 14.3101 75.1914 16.5784C76.4204 18.8528 77.0742 21.1436 77.4185 22.8768C77.5903 23.7401 77.6831 24.4558 77.7334 24.9495C77.7583 25.196 77.7725 25.3865 77.7798 25.5114C77.7837 25.5737 77.7861 25.6196 77.7876 25.6479C77.7881 25.6621 77.7886 25.6719 77.7886 25.677ZM46.9248 30.7091C48.2764 29.6473 49.1416 29.3171 49.8599 29.3234C49.02 29.3318 48.3413 30.012 48.3413 30.85C48.3413 31.6932 49.0283 32.3767 49.8755 32.3767C50.7231 32.3767 51.4097 31.6932 51.4097 30.85C51.4097 30.0616 50.8096 29.4128 50.0386 29.3318C50.7627 29.3937 51.5898 29.797 52.8516 30.7277C53.3037 31.0614 53.9409 30.9652 54.2749 30.5128C54.6084 30.0604 54.5122 29.4232 54.0601 29.0896C52.6831 28.0739 51.397 27.3334 49.9731 27.2897C48.5225 27.2451 47.1729 27.9257 45.6675 29.1082C45.2251 29.4553 45.1484 30.0952 45.4956 30.5372C45.8428 30.9794 46.4824 31.0563 46.9248 30.7091ZM69.2935 29.3234C68.5752 29.3171 67.7104 29.6473 66.3579 30.7091C65.916 31.0563 65.2764 30.9794 64.9292 30.5374C64.582 30.0952 64.6587 29.4553 65.1011 29.1082C66.6064 27.9258 67.9561 27.2451 69.4067 27.2897C70.8306 27.3334 72.1167 28.0739 73.4937 29.0896C73.9458 29.4233 74.042 30.0605 73.7085 30.5128C73.3745 30.9652 72.7373 31.0614 72.2852 30.7278C71.0244 29.7977 70.1973 29.3943 69.4741 29.332C70.2441 29.4136 70.8438 30.0621 70.8438 30.85C70.8438 31.6932 70.1567 32.3767 69.3096 32.3767C68.4624 32.3767 67.7754 31.6932 67.7754 30.85C67.7754 30.0121 68.4536 29.3319 69.2935 29.3234ZM57.0283 37.4657C57.0283 36.6224 56.3447 35.939 55.5015 35.939C54.6582 35.939 53.9746 36.6224 53.9746 37.4657C53.9746 38.9004 54.7573 40.0802 55.7866 40.8483C56.8154 41.6163 58.1665 42.0458 59.5928 42.0458C61.019 42.0458 62.3696 41.6163 63.3989 40.8483C64.4282 40.0802 65.2109 38.9004 65.2109 37.4657C65.2109 36.6224 64.5273 35.939 63.6841 35.939C62.8408 35.939 62.1572 36.6224 62.1572 37.4657C62.1572 37.7173 62.0239 38.0642 61.5723 38.4012C61.1206 38.7384 60.4258 38.9924 59.5928 38.9924C58.7598 38.9924 58.0645 38.7384 57.6128 38.4012C57.1611 38.0642 57.0283 37.7173 57.0283 37.4657ZM70.8511 49.7074C70.8481 49.5643 70.8657 49.4197 70.9048 49.2778C70.9146 49.2416 70.9258 49.2059 70.938 49.1708C70.8818 49.0116 70.8511 48.8402 70.8511 48.6616L70.8511 45.0751C67.958 46.8604 64.5669 48.2046 60.8315 49.2942C60.3726 49.4281 59.8818 49.4305 59.4224 49.3024C55.6597 48.2527 52.2627 46.9667 49.3569 45.2753L49.3569 48.6616C49.3569 48.8401 49.3262 49.0115 49.27 49.1708C49.3262 49.33 49.3569 49.5013 49.3569 49.6799C49.3569 53.9629 53.8345 58.3313 59.8535 58.3313C62.813 58.3313 65.6055 57.2474 67.6416 55.5847C69.6802 53.9203 70.8408 51.7875 70.8511 49.7074ZM45.5259 52.9124C45.8867 52.6577 46.2544 52.4116 46.6284 52.1744C48.0034 57.3865 53.5571 61.3848 59.8535 61.3848C63.5386 61.3848 67.0083 60.0439 69.5728 57.9498C71.4595 56.4094 72.9229 54.3999 73.5586 52.1487C74.2139 52.5713 74.8535 53.0217 75.4746 53.498C75.4609 53.5803 75.4541 53.6649 75.4541 53.7512L75.4541 70.002C75.4541 70.4332 75.5635 70.8574 75.7725 71.2347L79.5005 77.9669L78.0581 90.901L43.1191 90.901L41.7285 77.9698L45.4585 71.2347C45.6675 70.8574 45.7769 70.4332 45.7769 70.002L45.7769 53.7512C45.7769 53.4414 45.6846 53.1531 45.5259 52.9124ZM42.7236 55.1952C37.6558 59.9381 34.5259 66.6407 34.5259 74.1074L34.5259 74.1111L34.5259 106.397L35.4839 108.917L40.6777 108.917L40.6777 105.112L38.6768 103.652C37.9888 103.15 37.5977 102.337 37.6348 101.485L38.6338 78.6207C38.6392 78.4996 38.6582 78.3823 38.6899 78.2705L38.6753 78.1362C38.6191 77.6152 38.7256 77.0897 38.9795 76.6313L42.7236 69.8705L42.7236 55.1952ZM82.3564 76.8436C82.498 77.0635 82.585 77.3226 82.5972 77.6027L83.5962 100.467C83.6333 101.318 83.2422 102.132 82.5537 102.634L80.5527 104.094L80.5527 107.898L85.7466 107.898L86.7007 105.39L86.229 74.4381C86.2056 74.3317 86.1934 74.2209 86.1934 74.1074C86.1934 67.2551 83.1548 60.9078 78.5073 56.1798L78.5073 69.8705L82.2505 76.6294C82.2891 76.6993 82.3247 76.7709 82.3564 76.8436ZM63.4585 82.4202C64.8799 82.4202 66.0322 81.2694 66.0352 79.8486L66.0352 79.8435L66.0352 71.1023C66.0361 71.0521 66.0332 71.0016 66.0269 70.9509C66.0249 70.9376 66.0234 70.9244 66.021 70.9113C65.9771 70.6493 65.8345 70.4207 65.6328 70.2651C65.4956 70.1594 65.3311 70.0875 65.1514 70.0619C65.0518 70.0475 64.9497 70.0475 64.8472 70.0634C64.8359 70.0652 64.8242 70.0671 64.8125 70.0693C64.7456 70.0819 64.6812 70.101 64.6196 70.1257L56.4199 73.2007C56.354 73.2235 56.291 73.2529 56.2324 73.288C56.1035 73.364 55.9961 73.4656 55.9141 73.5835C55.8281 73.7056 55.7686 73.8472 55.7422 74.0002C55.731 74.0653 55.7261 74.1317 55.7275 74.1987L55.7275 80.4103C55.561 80.3765 55.3892 80.3588 55.2124 80.3588C53.7896 80.3588 52.6357 81.5125 52.6357 82.9355C52.6357 84.3586 53.7896 85.5125 55.2124 85.5125C56.6357 85.5125 57.7891 84.3586 57.7891 82.9355C57.7891 82.9268 57.7891 82.918 57.7891 82.9091L57.7891 74.8888L63.9736 72.5696L63.9736 77.318C63.8071 77.2842 63.6348 77.2665 63.4585 77.2665C62.0352 77.2665 60.8813 78.4202 60.8813 79.8434C60.8813 81.2665 62.0352 82.4202 63.4585 82.4202ZM41.02 93.9545L43.7031 93.9545L43.4321 103.657C43.2539 103.323 43.001 103.028 42.6865 102.798L40.6973 101.346L41.02 93.9545ZM55.0083 127.542L56.9556 127.542L56.0825 111.908C56.001 110.449 57.1621 109.222 58.623 109.222L61.6382 109.222C61.6655 109.222 61.6934 109.222 61.7202 109.224L62.1577 94.4187C62.1626 94.256 62.1929 94.1001 62.2441 93.9545L46.7578 93.9545L45.8203 127.542L47.9189 127.542L47.9277 127.542L54.9995 127.542L55.0083 127.542ZM74.4233 127.542C74.436 127.542 74.4487 127.542 74.4614 127.543L74.4878 127.543C74.5005 127.542 74.5132 127.542 74.5259 127.542C74.5337 127.542 74.541 127.542 74.5488 127.542C74.5537 127.543 74.5586 127.543 74.5635 127.543L75.896 127.543L74.4326 94.5314C74.4238 94.3291 74.4546 94.1343 74.5181 93.9545L65.1235 93.9545C65.1851 94.1274 65.2158 94.3145 65.21 94.5089L64.2339 127.543L66.2896 127.543C66.3057 127.542 66.3218 127.542 66.3384 127.542L74.4233 127.542ZM77.3975 93.9545L80.2549 93.9545L80.5337 100.328L78.5439 101.78C78.2559 101.99 78.0195 102.255 77.8447 102.556L77.4829 94.3961C77.4761 94.2415 77.4468 94.0933 77.3975 93.9545ZM43.6392 149.771C43.063 150.325 42.7085 151.104 42.7085 151.97L54.582 151.97L54.4927 130.596L48.4365 130.596L48.4365 145.903L50.2935 146.431C51.1045 146.661 51.5752 147.506 51.3442 148.317C51.1138 149.128 50.2695 149.598 49.4585 149.368L47.2441 148.738L47.2471 148.74C47.9067 149.265 48.0156 150.226 47.4902 150.886C46.9653 151.545 46.0049 151.654 45.3452 151.129L43.6392 149.771ZM69.2158 146.431L66.8472 145.757L66.8472 130.596L72.999 130.596L72.999 151.97L61.1191 151.97C61.1191 150.987 61.5757 150.116 62.2949 149.559L64.2671 151.129C64.9268 151.654 65.8877 151.545 66.4126 150.886C66.938 150.226 66.8286 149.265 66.1689 148.74L66.1665 148.738L68.3804 149.368C69.1914 149.598 70.0361 149.128 70.2666 148.317C70.4971 147.506 70.0269 146.661 69.2158 146.431Z" fill-rule="evenodd" fill="#080A0D"/>
	<path id="NC headphones" d="M9.86969 174.107L10.8137 174.107C10.9417 174.107 10.9897 174.155 10.9897 174.299L10.9897 185.787C10.9897 185.915 10.9097 185.979 10.7817 185.979L9.99769 185.979C9.85369 185.979 9.75769 185.979 9.66169 185.851L3.48569 176.875C3.38969 176.731 3.30969 176.763 3.30969 176.891L3.30969 185.771C3.30969 185.915 3.24569 185.979 3.08569 185.979L2.18969 185.979C2.04569 185.979 1.98169 185.915 1.98169 185.771L1.98169 174.331C1.98169 174.155 2.02969 174.107 2.18969 174.107L3.10169 174.107C3.27769 174.107 3.34169 174.139 3.43769 174.267L9.43769 183.051C9.56569 183.211 9.67769 183.147 9.67769 183.003L9.67769 174.299C9.67769 174.171 9.72569 174.107 9.86969 174.107ZM18.5871 173.947C20.7471 173.947 22.6671 175.451 22.9231 177.227C22.9551 177.419 22.9231 177.451 22.8111 177.467L21.6111 177.563C21.4991 177.579 21.4831 177.531 21.4511 177.403C21.1311 176.043 20.0911 175.115 18.6351 175.115C16.4111 175.115 15.1791 176.747 15.1791 180.059C15.1791 183.275 16.3631 184.923 18.7151 184.923C20.2191 184.923 21.2111 184.235 21.8351 182.635C21.8511 182.571 21.9151 182.539 22.0271 182.571L22.9711 182.795C23.0191 182.811 23.0831 182.859 23.0511 183.019C22.6031 184.539 21.0671 186.139 18.6511 186.139C15.4671 186.139 13.5791 183.819 13.5791 180.027C13.5791 176.235 15.4671 173.947 18.5871 173.947ZM28.7451 185.979C28.6011 185.979 28.5371 185.915 28.5371 185.771L28.5371 174.315C28.5371 174.187 28.5851 174.107 28.7131 174.107L29.6571 174.107C29.7691 174.107 29.8331 174.171 29.8331 174.299L29.8331 178.571C29.8331 178.683 29.8651 178.715 29.9771 178.619C31.1131 177.755 31.8491 177.339 32.9371 177.339C34.6011 177.339 35.4971 178.299 35.4971 179.771L35.4971 185.723C35.4971 185.899 35.4171 185.979 35.2571 185.979L34.3611 185.979C34.2171 185.979 34.1531 185.915 34.1531 185.771L34.1531 180.059C34.1531 179.019 33.6411 178.395 32.4891 178.395C31.5291 178.395 30.8891 178.827 29.8811 179.691L29.8811 185.739C29.8811 185.915 29.8011 185.979 29.6251 185.979L28.7451 185.979ZM38.7608 182.267C38.7608 183.835 39.9928 185.115 41.5608 185.115C42.6328 185.115 43.4488 184.683 44.0568 183.787C44.1368 183.707 44.1848 183.691 44.2808 183.739L44.9528 184.075C45.0328 184.123 45.0488 184.203 44.9848 184.299C44.1368 185.595 43.0168 186.139 41.4328 186.139C39.0648 186.139 37.3688 184.379 37.3688 181.819C37.3688 179.051 39.1288 177.339 41.4168 177.339C43.7368 177.339 45.2728 178.939 45.2728 181.675C45.2728 181.851 45.2888 182.027 45.0328 182.027L38.9048 182.027C38.8088 182.027 38.7608 182.123 38.7608 182.267ZM38.7928 181.147L43.6568 181.147C43.8808 181.147 43.9288 181.115 43.9288 180.923C43.9288 179.547 43.0168 178.299 41.4488 178.299C39.7368 178.299 38.7768 179.723 38.7928 181.147ZM52.0417 184.955C51.2417 185.723 50.3297 186.139 49.1937 186.139C47.5457 186.139 46.5217 185.227 46.5217 183.819C46.5217 182.123 48.0097 181.115 50.7457 180.939L51.9937 180.843C52.1377 180.827 52.2497 180.763 52.2497 180.603L52.2497 180.171C52.2497 179.019 51.4817 178.299 50.2657 178.299C49.3377 178.299 48.5697 178.715 47.9777 179.579C47.8977 179.691 47.8657 179.723 47.7377 179.675L46.8737 179.387C46.7937 179.355 46.7617 179.291 46.8417 179.131C47.4657 178.027 48.6497 177.339 50.3297 177.339C52.4417 177.339 53.5457 178.395 53.5457 180.075L53.5457 185.739C53.5457 185.931 53.4817 185.979 53.3377 185.979L52.5217 185.979C52.3777 185.979 52.3137 185.883 52.2977 185.723L52.2817 184.987C52.2497 184.843 52.1697 184.827 52.0417 184.955ZM52.2497 181.915C52.2497 181.723 52.1857 181.659 52.0257 181.659L50.9697 181.755C49.0017 181.883 47.8657 182.523 47.8657 183.659C47.8657 184.587 48.5697 185.147 49.6737 185.147C50.3457 185.147 51.0017 184.875 51.4817 184.491C51.9617 184.107 52.2497 183.659 52.2497 183.243L52.2497 181.915ZM61.9593 185.979C61.8153 185.979 61.7353 185.899 61.7353 185.755L61.7353 185.067C61.7353 184.907 61.6553 184.891 61.5273 185.003C61.1593 185.371 60.4073 186.139 59.0153 186.139C57.0153 186.139 55.4633 184.715 55.4633 181.867C55.4633 179.147 57.0153 177.339 59.2073 177.339C60.2473 177.339 60.9193 177.739 61.4473 178.187C61.6393 178.347 61.7033 178.299 61.7033 178.075L61.7033 174.315C61.7033 174.171 61.7513 174.107 61.8793 174.107L62.8553 174.107C62.9673 174.107 63.0313 174.171 63.0313 174.315L63.0313 185.723C63.0313 185.915 62.9833 185.979 62.7753 185.979L61.9593 185.979ZM61.6873 179.371C61.0313 178.715 60.3753 178.331 59.5273 178.331C57.9593 178.331 56.8393 179.547 56.8393 181.819C56.8393 184.171 58.0233 185.163 59.4313 185.163C60.7273 185.163 61.6873 184.107 61.6873 183.227L61.6873 179.371ZM66.6094 177.499C66.7694 177.499 66.8334 177.579 66.8334 177.739L66.8334 178.411C66.8334 178.571 66.9134 178.587 67.0414 178.475C67.3934 178.123 68.0654 177.339 69.5534 177.339C71.5214 177.339 73.0574 178.731 73.0574 181.611C73.0574 184.475 71.5694 186.139 69.3774 186.139C68.3854 186.139 67.6334 185.787 67.1054 185.339C66.9134 185.163 66.8494 185.195 66.8494 185.435L66.8494 188.411C66.8494 188.555 66.8014 188.619 66.6734 188.619L65.6814 188.619C65.5854 188.619 65.5054 188.555 65.5054 188.411L65.5054 177.755C65.5054 177.579 65.5694 177.499 65.7614 177.499L66.6094 177.499ZM66.8494 184.107C67.4894 184.763 68.1614 185.163 69.0254 185.163C70.5774 185.163 71.6814 183.963 71.6814 181.627C71.6814 179.275 70.4974 178.315 69.1054 178.315C67.7774 178.315 66.8494 179.323 66.8494 180.155L66.8494 184.107ZM75.2763 185.979C75.1323 185.979 75.0683 185.915 75.0683 185.771L75.0683 174.315C75.0683 174.187 75.1163 174.107 75.2443 174.107L76.1883 174.107C76.3003 174.107 76.3643 174.171 76.3643 174.299L76.3643 178.571C76.3643 178.683 76.3963 178.715 76.5083 178.619C77.6443 177.755 78.3803 177.339 79.4683 177.339C81.1323 177.339 82.0283 178.299 82.0283 179.771L82.0283 185.723C82.0283 185.899 81.9483 185.979 81.7883 185.979L80.8923 185.979C80.7483 185.979 80.6843 185.915 80.6843 185.771L80.6843 180.059C80.6843 179.019 80.1723 178.395 79.0203 178.395C78.0603 178.395 77.4203 178.827 76.4123 179.691L76.4123 185.739C76.4123 185.915 76.3323 185.979 76.1563 185.979L75.2763 185.979ZM87.9481 186.139C85.5161 186.139 83.9001 184.347 83.9001 181.787C83.9001 179.163 85.5801 177.339 87.9641 177.339C90.3801 177.339 91.9961 179.179 91.9961 181.771C91.9961 184.331 90.3641 186.139 87.9481 186.139ZM87.9801 185.131C89.6441 185.131 90.6201 183.851 90.6201 181.739C90.6201 179.643 89.6121 178.331 87.9641 178.331C86.3001 178.331 85.2761 179.643 85.2761 181.739C85.2761 183.835 86.3001 185.131 87.9801 185.131ZM94.1982 185.979C94.0382 185.979 93.9742 185.915 93.9742 185.771L93.9742 177.707C93.9742 177.579 94.0382 177.499 94.1502 177.499L95.1102 177.499C95.2222 177.499 95.2862 177.563 95.2862 177.675L95.2862 178.603C95.2862 178.715 95.3182 178.747 95.4302 178.651C96.5022 177.819 97.2542 177.339 98.3742 177.339C100.022 177.339 100.95 178.315 100.95 179.755L100.95 185.723C100.95 185.899 100.87 185.979 100.71 185.979L99.8142 185.979C99.6702 185.979 99.6062 185.915 99.6062 185.771L99.6062 180.059C99.6062 179.019 99.0942 178.395 97.9422 178.395C96.9822 178.395 96.3262 178.827 95.3182 179.691L95.3182 185.739C95.3182 185.915 95.2542 185.979 95.0782 185.979L94.1982 185.979ZM104.214 182.267C104.214 183.835 105.446 185.115 107.014 185.115C108.086 185.115 108.902 184.683 109.51 183.787C109.59 183.707 109.638 183.691 109.734 183.739L110.406 184.075C110.486 184.123 110.502 184.203 110.438 184.299C109.59 185.595 108.47 186.139 106.886 186.139C104.518 186.139 102.822 184.379 102.822 181.819C102.822 179.051 104.582 177.339 106.87 177.339C109.19 177.339 110.726 178.939 110.726 181.675C110.726 181.851 110.742 182.027 110.486 182.027L104.358 182.027C104.262 182.027 104.214 182.123 104.214 182.267ZM104.246 181.147L109.11 181.147C109.334 181.147 109.382 181.115 109.382 180.923C109.382 179.547 108.47 178.299 106.902 178.299C105.19 178.299 104.23 179.723 104.246 181.147ZM117.703 179.371C117.271 178.731 116.487 178.283 115.431 178.283C114.279 178.283 113.431 178.811 113.431 179.643C113.431 180.075 113.671 180.507 114.727 180.827L116.759 181.435C118.215 181.835 118.839 182.635 118.839 183.643C118.839 185.147 117.367 186.139 115.383 186.139C113.703 186.139 112.359 185.403 111.831 184.379C111.767 184.267 111.767 184.187 111.863 184.123L112.487 183.771C112.599 183.707 112.679 183.723 112.727 183.787C113.239 184.603 114.071 185.163 115.399 185.163C116.631 185.147 117.575 184.619 117.575 183.787C117.575 183.211 117.143 182.811 116.007 182.491L114.359 182.027C112.759 181.611 112.183 180.859 112.183 179.883C112.167 178.363 113.495 177.339 115.447 177.339C116.871 177.339 118.039 177.931 118.631 178.827C118.695 178.923 118.711 179.003 118.615 179.051L117.943 179.419C117.863 179.467 117.767 179.451 117.703 179.371Z" fill-rule="evenodd" fill="#080A0D"/>
</svg>
