<svg width="96.000000" height="188.418030" viewBox="0 0 96 188.418" fill="none" xmlns="http://www.w3.org/2000/svg" xmlns:xlink="http://www.w3.org/1999/xlink">
	<desc>
			Created with Pixso.
	</desc>
	<defs/>
	<path id="Eye infection" d="M48 0C46.1587 0 44.0708 0.74231 42.0425 1.85876C39.9829 2.99255 37.8467 4.5885 35.8779 6.47168C31.979 10.201 28.5195 15.2706 27.8047 20.4102C27.7881 20.5283 27.7803 20.6443 27.7808 20.7577C27.7095 20.9316 27.6699 21.1223 27.6699 21.322L27.6699 28.264C27.6699 28.355 27.6782 28.444 27.6938 28.5304C27.9219 34.464 29.7827 38.9644 33.1133 42.3948C33.5864 42.8818 34.0864 43.3447 34.6118 43.785L34.6118 49.5079C26.1641 54.4121 19.7363 63.6545 19.7363 74.1802L19.7363 102.94C19.7363 104.309 20.8462 105.419 22.2158 105.419L25.6934 105.419C25.6763 106.152 25.6855 107.054 25.7949 107.813C26.0117 109.32 26.7607 111.193 27.1313 112.066C27.5244 112.992 28.4282 113.551 29.3882 113.551L31.8291 113.551C32.1089 113.551 32.3779 113.505 32.6284 113.419L32.6284 138.344C32.6284 139.543 33.4805 140.544 34.6118 140.774L34.6118 144.493L31.6367 144.493C28.3359 144.493 25.6865 147.142 25.6865 150.443L25.6865 150.939C25.6865 152.308 26.7964 153.418 28.166 153.418L44.0332 153.418C45.4023 153.418 46.5127 152.308 46.5127 150.939L46.5127 140.774C47.1177 140.651 47.6426 140.308 48 139.832C48.3579 140.308 48.8828 140.651 49.4878 140.774L49.4878 150.939C49.4878 152.308 50.5977 153.418 51.9668 153.418L67.8345 153.418C69.2036 153.418 70.3135 152.308 70.3135 150.939L70.3135 150.443C70.3135 147.142 67.6641 144.493 64.3633 144.493L61.3882 144.493L61.3882 140.774C62.52 140.544 63.3716 139.543 63.3716 138.344L63.3716 113.501C63.5317 113.534 63.6978 113.551 63.8672 113.551L66.3081 113.551C67.2681 113.551 68.1724 112.992 68.5654 112.066C68.9355 111.193 69.6846 109.32 69.9019 107.813C70.0107 107.054 70.0205 106.152 70.0034 105.419L73.7847 105.419C75.1538 105.419 76.2642 104.309 76.2642 102.94L76.2642 74.1802C76.2642 63.7369 69.9365 54.557 61.5864 49.624L61.5864 43.6937C62.0679 43.2766 62.5269 42.8394 62.9634 42.3809C66.2246 38.9539 68.0791 34.4602 68.3066 28.5297C68.3223 28.4435 68.3301 28.3547 68.3301 28.264L68.3301 27.3501L68.3301 27.2939L68.3301 27.2722L68.3301 26.1956L68.3394 26.1921L68.3301 26.166L68.3301 21.322C68.3301 21.1277 68.293 20.9419 68.2251 20.7717C68.2266 20.6572 68.2197 20.54 68.2041 20.4208C67.5312 15.2988 64.2617 10.2288 60.4224 6.48181C58.4868 4.59265 56.3574 2.99048 54.2495 1.85278C52.1611 0.725708 49.9912 0 48 0ZM37.9346 8.6217C36.6807 9.8208 35.5112 11.137 34.4917 12.5186C37.9062 11.4374 42.6006 10.413 48 10.413C53.5278 10.413 58.3169 11.4867 61.75 12.5958C60.7524 11.1797 59.5962 9.83289 58.3442 8.61096C56.5776 6.8866 54.668 5.45935 52.8364 4.47107C50.9854 3.47205 49.3145 2.9751 48 2.9751C46.8809 2.9751 45.311 3.45557 43.4771 4.46521C41.6743 5.45752 39.7437 6.89111 37.9346 8.6217ZM48 16.3633C40.3462 16.3633 34.1699 18.4507 30.9321 19.8239C31.1885 18.6735 31.6079 17.5093 32.1592 16.3571C32.3857 16.3784 32.6211 16.3479 32.8472 16.2581C35.9692 15.0177 41.4326 13.3881 48 13.3881C54.5674 13.3881 60.0308 15.0177 63.1528 16.2581C63.4058 16.3586 63.6699 16.3849 63.9209 16.3472C64.4473 17.5044 64.8462 18.6746 65.0879 19.8322C61.855 18.459 55.6694 16.3633 48 16.3633ZM65.355 23.1104C65.1357 23.0752 64.9165 23.0103 64.7031 22.9128C62.0244 21.6923 55.835 19.3384 48 19.3384C40.1655 19.3384 33.9761 21.6923 31.2974 22.9128C31.0835 23.0103 30.8647 23.0752 30.645 23.1104L30.645 27.2722C30.645 30.7865 31.2324 33.6558 32.3174 36.0369L49.665 29.7725C49.5493 29.2886 49.4878 28.7834 49.4878 28.264L49.4878 26.7765L57.9619 26.7765L65.355 24.1067L65.355 23.1104ZM38.5786 28.264C37.8828 28.2532 37.043 28.5704 35.7222 29.6127C35.2925 29.9519 34.6689 29.8784 34.3296 29.4485C33.9902 29.0186 34.0635 28.395 34.4937 28.0557C35.9531 26.9037 37.2632 26.2389 38.6733 26.2823C40.0571 26.3251 41.3057 27.048 42.6406 28.0375C43.0806 28.3636 43.1729 28.9847 42.8467 29.4247C42.5205 29.8647 41.8994 29.957 41.4595 29.6309C40.2295 28.7192 39.4272 28.3281 38.7251 28.2711C39.478 28.3447 40.0664 28.9795 40.0664 29.7516C40.0664 30.5732 39.4004 31.2393 38.5791 31.2393C37.7573 31.2393 37.0913 30.5732 37.0913 29.7516C37.0913 28.9302 37.7573 28.2642 38.5786 28.264ZM65.355 27.2699L65.355 27.3469C65.3408 33.2458 63.6655 37.327 60.8081 40.33C60.1914 40.9779 59.5137 41.5824 58.7759 42.1481L58.6113 42.1481L58.6113 42.2727C55.9131 44.296 52.4355 45.8156 48.249 47.0476C42.5615 45.4471 38.1982 43.3611 35.2476 40.3223C34.7397 39.7991 34.2695 39.2432 33.8389 38.6506L51.0264 32.4441C52.209 33.8308 53.9688 34.7102 55.9336 34.7102C59.4673 34.7102 62.3364 31.8674 62.3794 28.3444L65.355 27.2699ZM44.0332 36.6935C44.855 36.6935 45.521 37.3595 45.521 38.181C45.521 38.4294 45.6519 38.7677 46.0879 39.0947C46.5244 39.4221 47.1953 39.6686 48 39.6686C48.8047 39.6686 49.4761 39.4221 49.9126 39.0947C50.3486 38.7677 50.4795 38.4294 50.4795 38.181C50.4795 37.3595 51.1455 36.6935 51.9668 36.6935C52.7886 36.6935 53.4546 37.3595 53.4546 38.181C53.4546 39.5758 52.6973 40.7251 51.6978 41.4749C50.6987 42.2242 49.3862 42.6438 48 42.6438C46.6143 42.6438 45.3018 42.2242 44.3027 41.4749C43.3032 40.7251 42.5459 39.5758 42.5459 38.181C42.5459 37.3595 43.2119 36.6935 44.0332 36.6935ZM48.9438 49.9442C52.5493 48.8925 55.8223 47.5941 58.6113 45.868L58.6113 49.6371C58.6089 49.6416 58.606 49.6462 58.6035 49.6509C58.5996 49.6576 58.5962 49.6643 58.5923 49.671C58.5322 49.7825 58.4873 49.8983 58.458 50.0159C51.6416 51.9542 44.3975 51.9275 37.5869 50.0023L37.5869 45.8904C40.4517 47.6106 43.8306 48.9038 47.5884 49.9521C48.0303 50.0754 48.5024 50.073 48.9438 49.9442ZM22.7114 74.1802C22.7114 65.1233 28.1304 56.9752 35.5054 52.4395L35.7427 52.5582L35.8604 52.5945C43.8809 55.0623 52.5225 55.0638 60.5532 52.49L60.5688 52.485C67.9058 57.0295 73.2891 65.1536 73.2891 74.1802L73.2891 102.444L66.5449 102.444L66.5449 80.4281C66.5449 77.0785 67.2891 73.7441 68.8594 70.6964L68.876 70.6639L69.3867 69.5398C69.7271 68.7919 69.396 67.9099 68.6484 67.5701C67.9004 67.23 67.0186 67.5608 66.6782 68.3087L66.1973 69.3669C64.4072 72.8553 63.5698 76.6493 63.5698 80.4281L63.5698 99.469L32.8267 99.469L32.8267 80.4281C32.8267 76.6493 31.9893 72.8553 30.1992 69.3669L29.7183 68.3087C29.3784 67.5608 28.4966 67.23 27.7485 67.5701C27.0005 67.9099 26.6699 68.7919 27.0098 69.5398L27.521 70.6639L27.5376 70.6964C29.1079 73.7441 29.8516 77.0785 29.8516 80.4281L29.8516 102.444L22.7114 102.444L22.7114 74.1802ZM35.6035 102.642C35.6035 102.575 35.5991 102.509 35.5908 102.444L45.5337 102.444C45.5254 102.509 45.521 102.575 45.521 102.642L45.521 137.848L35.6035 137.848L35.6035 102.642ZM50.4795 102.642C50.4795 102.575 50.4751 102.509 50.4663 102.444L60.4097 102.444C60.4009 102.509 60.3965 102.575 60.3965 102.642L60.3965 137.848L50.4795 137.848L50.4795 102.642ZM28.7397 107.389C28.6621 106.85 28.6514 106.11 28.6694 105.419L31.3335 105.419L31.3335 110.576L29.7334 110.576C29.3623 109.668 28.8774 108.344 28.7397 107.389ZM67.0273 105.419L64.3633 105.419L64.3633 110.576L65.9629 110.576C66.334 109.668 66.8193 108.344 66.957 107.389C67.0347 106.85 67.0454 106.11 67.0273 105.419ZM37.5869 144.988L37.5869 141.815L43.5376 141.815L43.5376 150.443L28.6616 150.443C28.6616 148.785 29.979 147.468 31.6367 147.468L35.1079 147.468C36.4771 147.468 37.5869 146.358 37.5869 144.988ZM52.4629 150.443L52.4629 141.815L58.4131 141.815L58.4131 144.988C58.4131 146.358 59.5229 147.468 60.8921 147.468L64.3633 147.468C66.021 147.468 67.3384 148.785 67.3384 150.443L52.4629 150.443Z" fill-rule="evenodd" fill="#080A0D"/>
	<path id="Eye infection" d="M1.552 172.726C1.552 172.566 1.6 172.502 1.744 172.502L8.928 172.502C9.04 172.502 9.088 172.566 9.088 172.678L9.088 173.494C9.088 173.622 9.024 173.686 8.88 173.686L3.296 173.686C3.136 173.686 3.088 173.718 3.088 173.878L3.088 177.622C3.088 177.75 3.136 177.798 3.264 177.798L7.408 177.798C7.536 177.798 7.584 177.846 7.584 177.974L7.584 178.822C7.584 178.918 7.536 178.966 7.408 178.966L3.264 178.966C3.136 178.966 3.088 179.014 3.088 179.142L3.088 183.03C3.088 183.158 3.12 183.19 3.248 183.19L9.12 183.19C9.248 183.19 9.296 183.222 9.296 183.35L9.296 184.198C9.296 184.31 9.248 184.374 9.12 184.374L1.776 184.374C1.6 184.374 1.552 184.31 1.552 184.15L1.552 172.726ZM11.1023 187.014C10.4783 187.014 10.1263 187.014 10.1263 186.806L10.1263 186.182C10.1263 186.038 10.2063 185.974 10.5743 185.974L11.5823 185.974C12.5262 185.974 13.1982 184.534 12.9102 183.814L9.85425 176.166C9.80625 176.022 9.85425 175.894 10.0302 175.894L11.0223 175.894C11.1503 175.894 11.2303 175.958 11.2782 176.07L13.6623 182.278C13.7423 182.47 13.8542 182.486 13.9503 182.23L16.3022 176.07C16.3503 175.958 16.4303 175.894 16.5263 175.894L17.2782 175.894C17.4223 175.894 17.4862 176.022 17.4383 176.118L13.9183 185.126C13.3103 186.646 12.4943 187.014 11.1023 187.014ZM19.6436 180.662C19.6436 182.23 20.8756 183.51 22.4436 183.51C23.5156 183.51 24.3316 183.078 24.9396 182.182C25.0196 182.102 25.0676 182.086 25.1636 182.134L25.8356 182.47C25.9156 182.518 25.9316 182.598 25.8676 182.694C25.0196 183.99 23.8996 184.534 22.3156 184.534C19.9476 184.534 18.2516 182.774 18.2516 180.214C18.2516 177.446 20.0116 175.734 22.2996 175.734C24.6196 175.734 26.1556 177.334 26.1556 180.07C26.1556 180.246 26.1716 180.422 25.9156 180.422L19.7876 180.422C19.6916 180.422 19.6436 180.518 19.6436 180.662ZM19.6756 179.542L24.5396 179.542C24.7636 179.542 24.8116 179.51 24.8116 179.318C24.8116 177.942 23.8996 176.694 22.3316 176.694C20.6196 176.694 19.6596 178.118 19.6756 179.542ZM32.89 172.742L32.89 174.07C32.89 174.262 32.826 174.374 32.602 174.374L31.674 174.374C31.482 174.374 31.434 174.262 31.434 174.102L31.434 172.758C31.434 172.598 31.514 172.502 31.658 172.502L32.666 172.502C32.794 172.502 32.89 172.598 32.89 172.742ZM32.826 176.102L32.826 184.102C32.826 184.31 32.762 184.374 32.538 184.374L31.722 184.374C31.53 184.374 31.482 184.31 31.482 184.15L31.482 176.118C31.482 175.958 31.546 175.894 31.674 175.894L32.65 175.894C32.778 175.894 32.826 175.958 32.826 176.102ZM35.5341 184.374C35.3741 184.374 35.3101 184.31 35.3101 184.166L35.3101 176.102C35.3101 175.974 35.3741 175.894 35.4861 175.894L36.4461 175.894C36.5581 175.894 36.6221 175.958 36.6221 176.07L36.6221 176.998C36.6221 177.11 36.6541 177.142 36.7661 177.046C37.8381 176.214 38.5901 175.734 39.7101 175.734C41.3581 175.734 42.2861 176.71 42.2861 178.15L42.2861 184.118C42.2861 184.294 42.2061 184.374 42.0461 184.374L41.1501 184.374C41.0061 184.374 40.9421 184.31 40.9421 184.166L40.9421 178.454C40.9421 177.414 40.4301 176.79 39.2781 176.79C38.3181 176.79 37.6621 177.222 36.6541 178.086L36.6541 184.134C36.6541 184.31 36.5901 184.374 36.4141 184.374L35.5341 184.374ZM48.7388 175.894C48.8348 175.894 48.8988 175.958 48.8988 176.054L48.8988 176.742C48.8988 176.854 48.8348 176.886 48.7388 176.886L46.9147 176.886C46.8348 176.886 46.7868 176.934 46.7868 177.03L46.7868 184.15C46.7868 184.31 46.7228 184.374 46.5947 184.374L45.6188 184.374C45.4907 184.374 45.4427 184.31 45.4427 184.166L45.4427 177.014C45.4427 176.934 45.4108 176.886 45.3307 176.886L43.7627 176.886C43.6507 176.886 43.6027 176.854 43.6027 176.742L43.6027 176.054C43.6027 175.958 43.6507 175.894 43.7788 175.894L45.2988 175.894C45.4108 175.894 45.4427 175.846 45.4427 175.734L45.4427 174.566C45.4427 173.222 46.0988 172.502 47.4427 172.502L48.7708 172.502C48.9147 172.502 48.9788 172.566 48.9788 172.694L48.9788 173.318C48.9788 173.414 48.9147 173.478 48.8027 173.478L47.6828 173.478C47.0107 173.478 46.7547 173.91 46.7547 174.63L46.7547 175.75C46.7547 175.862 46.8027 175.894 46.8988 175.894L48.7388 175.894ZM51.0967 180.662C51.0967 182.23 52.3288 183.51 53.8968 183.51C54.9688 183.51 55.7848 183.078 56.3927 182.182C56.4728 182.102 56.5208 182.086 56.6167 182.134L57.2887 182.47C57.3688 182.518 57.3848 182.598 57.3208 182.694C56.4728 183.99 55.3527 184.534 53.7687 184.534C51.4007 184.534 49.7048 182.774 49.7048 180.214C49.7048 177.446 51.4647 175.734 53.7528 175.734C56.0728 175.734 57.6087 177.334 57.6087 180.07C57.6087 180.246 57.6247 180.422 57.3688 180.422L51.2407 180.422C51.1447 180.422 51.0967 180.518 51.0967 180.662ZM51.1287 179.542L55.9928 179.542C56.2168 179.542 56.2648 179.51 56.2648 179.318C56.2648 177.942 55.3527 176.694 53.7848 176.694C52.0728 176.694 51.1128 178.118 51.1287 179.542ZM63.0176 175.734C64.6656 175.734 65.7216 176.614 66.3296 177.718C66.3936 177.862 66.3616 177.926 66.2496 177.958L65.3696 178.166C65.2896 178.198 65.2256 178.166 65.1616 178.054C64.5056 177.174 63.9456 176.726 63.0976 176.726C61.4496 176.726 60.3776 178.022 60.3776 180.134C60.3776 182.262 61.4656 183.542 63.1296 183.542C64.1536 183.542 64.8736 183.03 65.4816 182.038C65.5456 181.942 65.5936 181.926 65.6896 181.974L66.3776 182.23C66.4576 182.262 66.4736 182.326 66.4416 182.438C65.8336 183.574 64.7136 184.534 63.0176 184.534C60.6496 184.534 59.0016 182.774 59.0016 180.166C59.0016 177.558 60.6816 175.734 63.0176 175.734ZM72.2384 176.886L70.2064 176.886C70.1264 176.886 70.0784 176.934 70.0784 177.03L70.0784 182.102C70.0784 183.11 70.4144 183.366 71.1024 183.366L72.2064 183.366C72.3184 183.366 72.3824 183.43 72.3824 183.542L72.3664 184.086C72.3664 184.214 72.3024 184.262 72.1744 184.294C71.8384 184.358 71.0384 184.374 70.6704 184.374C69.3264 184.374 68.7344 183.766 68.7344 182.406L68.7344 177.062C68.7344 176.95 68.6864 176.886 68.5744 176.886L67.2944 176.886C67.1664 176.886 67.1184 176.838 67.1184 176.726L67.1184 176.054C67.1184 175.942 67.1664 175.894 67.2784 175.894L68.6384 175.894C68.7024 175.894 68.7504 175.846 68.7504 175.766L68.9264 173.222C68.9264 173.078 68.9744 173.014 69.1024 173.014L69.9024 173.014C70.0304 173.014 70.0944 173.078 70.0944 173.238L70.0944 175.766C70.0944 175.846 70.1424 175.894 70.2224 175.894L72.2384 175.894C72.3504 175.894 72.4144 175.942 72.4144 176.038L72.4144 176.726C72.4144 176.838 72.3664 176.886 72.2384 176.886ZM75.5619 172.742L75.5619 174.07C75.5619 174.262 75.4979 174.374 75.2739 174.374L74.3459 174.374C74.1539 174.374 74.1059 174.262 74.1059 174.102L74.1059 172.758C74.1059 172.598 74.1859 172.502 74.3299 172.502L75.3379 172.502C75.4659 172.502 75.5619 172.598 75.5619 172.742ZM75.4979 176.102L75.4979 184.102C75.4979 184.31 75.4339 184.374 75.2099 184.374L74.3939 184.374C74.2019 184.374 74.1539 184.31 74.1539 184.15L74.1539 176.118C74.1539 175.958 74.2179 175.894 74.3459 175.894L75.3219 175.894C75.4499 175.894 75.4979 175.958 75.4979 176.102ZM81.534 184.534C79.102 184.534 77.486 182.742 77.486 180.182C77.486 177.558 79.166 175.734 81.55 175.734C83.966 175.734 85.582 177.574 85.582 180.166C85.582 182.726 83.95 184.534 81.534 184.534ZM81.566 183.526C83.23 183.526 84.206 182.246 84.206 180.134C84.206 178.038 83.198 176.726 81.55 176.726C79.886 176.726 78.862 178.038 78.862 180.134C78.862 182.23 79.886 183.526 81.566 183.526ZM87.7841 184.374C87.6241 184.374 87.5601 184.31 87.5601 184.166L87.5601 176.102C87.5601 175.974 87.6241 175.894 87.7361 175.894L88.6961 175.894C88.8081 175.894 88.8721 175.958 88.8721 176.07L88.8721 176.998C88.8721 177.11 88.9041 177.142 89.0161 177.046C90.0881 176.214 90.8401 175.734 91.9601 175.734C93.6081 175.734 94.5361 176.71 94.5361 178.15L94.5361 184.118C94.5361 184.294 94.4561 184.374 94.2961 184.374L93.4001 184.374C93.2561 184.374 93.1921 184.31 93.1921 184.166L93.1921 178.454C93.1921 177.414 92.6801 176.79 91.5281 176.79C90.5681 176.79 89.9121 177.222 88.9041 178.086L88.9041 184.134C88.9041 184.31 88.8401 184.374 88.6641 184.374L87.7841 184.374Z" fill-rule="evenodd" fill="#080A0D"/>
</svg>
