<svg width="127.169922" height="188.382812" viewBox="0 0 127.17 188.383" fill="none" xmlns="http://www.w3.org/2000/svg" xmlns:xlink="http://www.w3.org/1999/xlink">
	<desc>
			Created with Pixso.
	</desc>
	<defs/>
	<path id="Throat infection" d="M42.0435 24.9924L41.4761 25.5665C41.6416 25.7302 41.8364 25.8466 42.0435 25.9156L42.0435 26.0344C42.0435 26.0586 42.0439 26.0826 42.0449 26.1064C42.0439 26.1304 42.0435 26.1544 42.0435 26.1786L42.0435 26.3226C42.0435 26.3468 42.0439 26.3708 42.0449 26.3947C42.0439 26.4186 42.0435 26.4426 42.0435 26.4668L42.0435 26.6108C42.0435 26.635 42.0439 26.6591 42.0449 26.6829C42.0439 26.7068 42.0435 26.7308 42.0435 26.755L42.0435 26.899C42.0435 26.9232 42.0439 26.9473 42.0449 26.9711C42.0439 26.995 42.0435 27.019 42.0435 27.0432L42.0435 27.1873C42.0435 27.2114 42.0439 27.2355 42.0449 27.2593C42.0439 27.2832 42.0435 27.3073 42.0435 27.3314L42.0435 27.4755C42.0435 27.4996 42.0439 27.5237 42.0449 27.5476C42.0439 27.5714 42.0435 27.5955 42.0435 27.6196L42.0435 27.7637C42.0435 27.7878 42.0439 27.8119 42.0449 27.8358C42.0439 27.8596 42.0435 27.8837 42.0435 27.9078L42.0435 28.0519C42.0435 28.076 42.0439 28.1001 42.0449 28.124C42.0439 28.1478 42.0435 28.1719 42.0435 28.196L42.0435 28.3402C42.0435 28.3643 42.0439 28.3883 42.0449 28.4122C42.0439 28.436 42.0435 28.4601 42.0435 28.4843L42.0435 28.6284C42.0435 28.6525 42.0439 28.6765 42.0449 28.7004C42.0439 28.7242 42.0435 28.7483 42.0435 28.7725L42.0435 28.9166C42.0435 28.9408 42.0439 28.9647 42.0449 28.9886C42.0439 29.0125 42.0435 29.0365 42.0435 29.0607L42.0435 29.2048C42.0435 29.229 42.0439 29.2529 42.0449 29.2769C42.0439 29.3008 42.0435 29.3247 42.0435 29.3489L42.0435 29.4211C42.0435 31.3536 42.2119 33.1411 42.5454 34.7948C42.543 35.0128 42.5889 35.2321 42.6841 35.4349C43.2397 37.8276 44.1528 39.9313 45.4097 41.782C45.1836 42.1538 45.0542 42.5896 45.0542 43.0533L45.0542 51.645C45.0542 51.9648 45.1157 52.2725 45.229 52.5553C37.1025 57.5028 31.0039 66.3774 31.0039 76.4579C31.0039 81.6792 31.9131 85.4103 32.8574 87.8737C33.3291 89.1036 33.8071 90.0121 34.1802 90.6278C34.3667 90.9355 34.5269 91.1698 34.646 91.3341C34.6963 91.4037 34.7397 91.4606 34.7744 91.5054L40.1011 100.489C40.0991 100.52 40.0972 100.552 40.0952 100.586C40.0801 100.845 40.062 101.206 40.0498 101.617C40.0259 102.417 40.0225 103.485 40.1299 104.356C40.3169 105.868 40.9634 107.763 41.2954 108.677C41.6514 109.656 42.5781 110.266 43.5757 110.266L45.0542 110.266L45.0542 130.354C45.0542 131.708 46.1509 132.804 47.5039 132.804L54.0859 132.804L54.0859 137.261C53.5259 137.71 53.1675 138.4 53.1675 139.174L53.1675 142.84L46.2695 147.076L43.4014 148.504C42.5693 148.918 42.0435 149.767 42.0435 150.697L42.0435 150.933C42.0435 152.286 43.1401 153.383 44.4932 153.383L52.1436 153.383C52.5518 153.383 52.9531 153.281 53.3115 153.087L56.2886 151.472C56.5342 152.566 57.5112 153.383 58.6792 153.383L60.5977 153.383C61.9507 153.383 63.0474 152.286 63.0474 150.933L63.0474 132.804L64.1216 132.804L64.1221 150.933C64.1221 152.286 65.2188 153.383 66.5718 153.383L68.4902 153.383C69.6582 153.383 70.6353 152.566 70.8804 151.472L73.8579 153.087C74.2163 153.281 74.6177 153.383 75.0259 153.383L82.6763 153.383C84.0293 153.383 85.126 152.286 85.126 150.933L85.126 150.697C85.126 149.767 84.6001 148.918 83.7676 148.504L80.8999 147.076L74.002 142.84L74.002 139.174C74.002 138.4 73.6431 137.71 73.0835 137.261L73.0835 132.804L79.6655 132.804C81.0186 132.804 82.1152 131.708 82.1152 130.354L82.1152 110.266L83.5938 110.266C84.5913 110.266 85.5181 109.656 85.874 108.677C86.2061 107.763 86.8525 105.868 87.0396 104.356C87.147 103.485 87.1436 102.417 87.1196 101.617C87.1074 101.206 87.0894 100.845 87.0742 100.586C87.0723 100.552 87.0703 100.52 87.0684 100.489L92.3945 91.5054C92.4297 91.4606 92.4727 91.4037 92.5234 91.3341C92.6426 91.1698 92.8027 90.9355 92.9893 90.6278C93.3623 90.0121 93.8403 89.1036 94.312 87.8737C95.2563 85.4103 96.1655 81.6792 96.1655 76.4579C96.1655 65.7213 89.2471 56.3527 80.3286 51.6399C80.168 51.5549 79.9985 51.5027 79.8281 51.481C79.7964 51.3885 79.7554 51.3003 79.7065 51.2173L79.7065 41.3988C81.3877 38.3962 83.1191 33.9064 83.1191 29.421L83.1191 29.3489C83.1191 29.3247 83.1182 29.3008 83.1172 29.2769C83.1182 29.2529 83.1191 29.229 83.1191 29.2048L83.1191 29.0607C83.1191 29.0365 83.1182 29.0125 83.1172 28.9886C83.1182 28.9647 83.1191 28.9408 83.1191 28.9166L83.1191 28.7725C83.1191 28.7483 83.1182 28.7242 83.1172 28.7004C83.1182 28.6765 83.1191 28.6525 83.1191 28.6284L83.1191 28.4843C83.1191 28.4742 83.1187 28.4642 83.1187 28.4543C83.1187 28.4468 83.1182 28.4393 83.1182 28.4319C83.1177 28.4253 83.1177 28.4187 83.1172 28.4122C83.1182 28.3883 83.1191 28.3643 83.1191 28.3402L83.1191 28.196C83.1191 28.1719 83.1182 28.1478 83.1172 28.124C83.1177 28.118 83.1177 28.1121 83.1177 28.1061C83.1182 28.1013 83.1182 28.0964 83.1182 28.0916L83.1187 28.0819L83.1187 28.0673L83.1187 28.0585L83.1191 28.0519L83.1191 27.9078C83.1191 27.8837 83.1182 27.8596 83.1172 27.8358C83.1182 27.8119 83.1191 27.7878 83.1191 27.7637L83.1191 27.6196C83.1191 27.5955 83.1182 27.5714 83.1172 27.5476C83.1182 27.5237 83.1191 27.4996 83.1191 27.4755L83.1191 27.3314C83.1191 27.3073 83.1182 27.2832 83.1172 27.2593C83.1182 27.2355 83.1191 27.2114 83.1191 27.1873L83.1191 27.0432C83.1191 27.019 83.1182 26.995 83.1172 26.9711C83.1182 26.9473 83.1191 26.9232 83.1191 26.899L83.1191 26.755C83.1191 26.7308 83.1182 26.7068 83.1172 26.6829C83.1182 26.6591 83.1191 26.635 83.1191 26.6108L83.1191 26.4668C83.1191 26.4426 83.1182 26.4186 83.1172 26.3947C83.1182 26.3708 83.1191 26.3468 83.1191 26.3226L83.1191 26.1786C83.1191 26.1544 83.1182 26.1304 83.1172 26.1064C83.1172 26.1008 83.1177 26.0952 83.1177 26.0896C83.1182 26.0835 83.1182 26.0773 83.1187 26.0712C83.1187 26.059 83.1191 26.0468 83.1191 26.0344L83.1191 25.8903C83.1191 25.8662 83.1182 25.8422 83.1172 25.8182C83.1182 25.7944 83.1191 25.7704 83.1191 25.7462L83.1191 25.6021C83.1191 25.5779 83.1182 25.554 83.1172 25.53C83.1177 25.5211 83.1182 25.5122 83.1182 25.5033C83.1187 25.4951 83.1187 25.4871 83.1187 25.4789C83.1187 25.4719 83.1191 25.465 83.1191 25.458L83.1191 25.3138C83.1191 25.2897 83.1182 25.2657 83.1172 25.2418C83.1182 25.2179 83.1191 25.194 83.1191 25.1698L83.1191 25.0256C83.1191 25.0015 83.1182 24.9775 83.1172 24.9536C83.1182 24.9297 83.1191 24.9058 83.1191 24.8816L83.1191 24.7374C83.1191 24.7133 83.1182 24.6892 83.1172 24.6654C83.1182 24.6415 83.1191 24.6176 83.1191 24.5934L83.1191 24.5212L83.1187 24.489C83.1187 24.4722 83.1187 24.4553 83.1187 24.4384C83.1187 24.4106 83.1177 24.3831 83.1157 24.3556C83.1167 24.3282 83.1172 24.3005 83.1167 24.2728C83.1152 24.2177 83.1143 24.1626 83.1123 24.1075C83.1113 24.0798 83.1099 24.0524 83.1074 24.0251C83.1074 24.0065 83.1074 23.9877 83.1069 23.9689C83.1064 23.9601 83.1064 23.9514 83.106 23.9426Q83.1045 23.9142 83.103 23.8856L83.1021 23.8591C83.1006 23.839 83.0996 23.8188 83.0986 23.7987L83.0977 23.7781C83.0957 23.7505 83.0933 23.7231 83.0903 23.6959C83.0898 23.6686 83.0889 23.6411 83.0869 23.6135C83.083 23.5585 83.0786 23.5034 83.0742 23.4485C83.0718 23.4208 83.0688 23.3934 83.0649 23.3662C83.064 23.3389 83.062 23.3114 83.0591 23.2838C83.0566 23.2555 83.0537 23.2274 83.0508 23.1992L83.0464 23.1592L83.0425 23.1195C83.0391 23.092 83.0356 23.0648 83.0308 23.0378C83.0293 23.0106 83.0264 22.9832 83.0234 22.9557L83.0186 22.9167C83.1367 22.833 83.2705 22.7368 83.416 22.6295C83.9824 22.2124 84.7422 21.616 85.501 20.9065C86.2524 20.2036 87.0459 19.3507 87.644 18.4156C88.23 17.4993 88.7271 16.35 88.6348 15.1034C88.4814 13.0298 87.1611 11.8243 86.2422 11.0145C85.1943 10.0911 84.7256 9.67676 84.5947 9.03735C84.5615 8.87549 84.5288 8.7063 84.4956 8.53174C84.3105 7.56348 84.0933 6.43005 83.5352 5.45605C82.7993 4.17224 81.5786 3.2583 79.6377 2.55957C76.4141 1.39929 73.855 1.42212 71.3496 1.71021C70.6304 1.79297 69.939 1.89246 69.2476 1.99207C67.5059 2.24268 65.7666 2.49316 63.5981 2.47278C62.3525 2.46106 60.9707 2.19006 59.4556 1.80322C58.8716 1.65405 58.2271 1.47571 57.5669 1.29297C56.6377 1.03577 55.6763 0.769653 54.8057 0.563599C51.7739 -0.154053 48.21 -0.599487 45.5254 1.88367C44.7822 2.57117 44.3599 3.32056 44.1973 4.13989C44.0508 4.87671 44.1416 5.57642 44.2031 6.05396L44.208 6.09351C44.333 7.06104 44.4082 7.64258 43.8149 8.48792C43.4741 8.97388 42.9287 9.47534 42.1934 10.0299C41.7075 10.3966 41.2104 10.7355 40.6846 11.0941C40.3984 11.2889 40.104 11.4897 39.7979 11.704C38.9814 12.276 38.1147 12.9242 37.4307 13.665C36.7412 14.4115 36.1313 15.3655 36.0273 16.5538C35.9307 17.6638 36.395 18.807 36.8823 19.7174C37.3989 20.6838 38.0918 21.6572 38.7593 22.5045C39.4321 23.3585 40.1084 24.1206 40.6138 24.6671C40.8677 24.9412 41.0801 25.1632 41.231 25.318C41.3062 25.3954 41.3657 25.4559 41.4077 25.498C41.4282 25.519 41.4448 25.5354 41.4561 25.5469L41.4697 25.5604L41.4751 25.5657L41.4756 25.5662C41.4756 25.5663 41.4761 25.5664 42.0435 24.9924ZM47.5215 4.04175C48.9849 2.68848 51.0947 2.70618 54.1284 3.42432C54.998 3.63013 55.8145 3.85742 56.6621 4.09338C57.3193 4.27625 57.9946 4.46436 58.728 4.65161C60.2998 5.05298 61.96 5.39734 63.5708 5.41248C65.9805 5.43506 68.0508 5.13708 69.8545 4.87756C70.4976 4.78503 71.1069 4.69739 71.6855 4.63074C73.9121 4.37463 75.9814 4.36792 78.6416 5.32556C80.1699 5.87573 80.7061 6.43176 80.9849 6.91809C81.2793 7.43176 81.3911 7.99902 81.5825 8.96741C81.6221 9.16895 81.6655 9.38782 81.7144 9.6272C82.0527 11.2792 83.2749 12.3347 84.0796 13.0298C84.1567 13.0964 84.23 13.1598 84.2983 13.22C85.2085 14.022 85.6445 14.5314 85.7031 15.3204C85.728 15.6621 85.5942 16.1642 85.167 16.8318C84.752 17.4807 84.1509 18.1442 83.4932 18.759C83.064 19.1604 82.6284 19.5245 82.2368 19.8329C82.23 19.8126 82.2227 19.7925 82.2148 19.7723C82.1948 19.7214 82.1748 19.6707 82.1543 19.6199C82.1436 19.5945 82.1328 19.5695 82.1211 19.545C82.1157 19.5293 82.1099 19.5135 82.1035 19.4979L82.0991 19.4871L82.0957 19.4788L82.0918 19.4688C82.0708 19.4185 82.0493 19.3683 82.0278 19.3184C82.0249 19.3121 82.0225 19.306 82.0195 19.2999L82.0181 19.2959C82.0156 19.2913 82.0137 19.2865 82.0112 19.2819C82.0054 19.2692 81.9995 19.2566 81.9932 19.2441C81.9834 19.2189 81.9731 19.1937 81.9619 19.1686C81.9399 19.1189 81.917 19.0692 81.8945 19.0197C81.8828 18.9948 81.8706 18.9702 81.8579 18.9463C81.8477 18.9211 81.8369 18.8962 81.8252 18.8715C81.8018 18.8224 81.7783 18.7734 81.7544 18.7246C81.7422 18.7001 81.7295 18.676 81.7163 18.6525C81.7056 18.6278 81.6943 18.6031 81.6816 18.5787C81.6572 18.5303 81.6328 18.4819 81.6079 18.4336C81.5952 18.4093 81.582 18.3856 81.5684 18.3623C81.5566 18.3378 81.5449 18.3135 81.5317 18.2893C81.5063 18.2413 81.4805 18.1935 81.4546 18.1458C81.4414 18.1218 81.4277 18.0984 81.4136 18.0754C81.4014 18.0513 81.3892 18.0273 81.3755 18.0037C81.3491 17.9564 81.3223 17.9094 81.2954 17.8625C81.2817 17.839 81.2676 17.8159 81.2529 17.7933C81.2407 17.7695 81.2275 17.7458 81.2139 17.7224C81.186 17.6758 81.1582 17.6293 81.1304 17.583C81.1162 17.5596 81.1016 17.5367 81.0864 17.5145C81.0732 17.4908 81.0596 17.4675 81.0454 17.4443C81.0166 17.3984 80.9878 17.3528 80.959 17.3071C80.9443 17.2843 80.9292 17.262 80.9141 17.2401C80.9004 17.2169 80.8862 17.194 80.8716 17.1713C80.8423 17.1261 80.8125 17.0811 80.7827 17.0363C80.7676 17.0135 80.752 16.9916 80.7358 16.9701C80.7222 16.9471 80.7075 16.9244 80.6924 16.902C80.6621 16.8573 80.6313 16.8129 80.6006 16.7686C80.585 16.7462 80.5688 16.7246 80.5522 16.7035C80.5381 16.6808 80.5229 16.6584 80.5073 16.6364C80.4761 16.5927 80.4448 16.5492 80.4131 16.5059C80.3975 16.484 80.3809 16.4626 80.3643 16.442C80.3491 16.4197 80.334 16.3977 80.3179 16.3761C80.2856 16.333 80.2534 16.29 80.2207 16.2472C80.2046 16.2256 80.1875 16.2046 80.1704 16.1842C80.1553 16.1622 80.1392 16.1405 80.1226 16.1191C80.0898 16.0767 80.0566 16.0343 80.0229 15.9921C80.0063 15.9709 79.9893 15.9504 79.9717 15.9305C79.9561 15.9091 79.9399 15.8878 79.9229 15.8669C79.8896 15.8254 79.8555 15.7839 79.8218 15.7427C79.8047 15.7219 79.7866 15.7017 79.769 15.6821C79.7529 15.6609 79.7363 15.6399 79.7188 15.6193C79.6846 15.5782 79.6494 15.5374 79.6147 15.4967C79.5972 15.4762 79.5791 15.4563 79.5605 15.437C79.5444 15.416 79.5273 15.3953 79.5093 15.375C79.4741 15.3348 79.439 15.2949 79.4033 15.2551C79.3857 15.2351 79.3672 15.2157 79.3486 15.1969C79.332 15.1764 79.3145 15.1562 79.2969 15.1364C79.2607 15.0969 79.2246 15.0576 79.1885 15.0186C79.1704 14.9988 79.1519 14.9797 79.1323 14.9612C79.1152 14.9409 79.0977 14.921 79.0791 14.9015C79.0425 14.8627 79.0059 14.8239 78.9688 14.7853C78.9502 14.766 78.9312 14.7472 78.9116 14.7291C78.894 14.7092 78.876 14.6897 78.8574 14.6705C78.8203 14.6327 78.7827 14.595 78.7456 14.5574C78.7266 14.5385 78.7075 14.5201 78.6875 14.5024C78.6699 14.4829 78.6514 14.4637 78.6323 14.4451C78.5947 14.4077 78.5566 14.3706 78.5181 14.3336C78.499 14.3149 78.4795 14.297 78.4595 14.2795C78.4414 14.2604 78.4224 14.2415 78.4028 14.223C78.3643 14.1863 78.3257 14.1497 78.2866 14.1133C78.2671 14.0951 78.2471 14.0776 78.2271 14.0608C78.2085 14.042 78.1895 14.0236 78.1699 14.0056C78.1313 13.97 78.0918 13.9343 78.0527 13.8989C78.0327 13.8811 78.0127 13.8639 77.9922 13.8473C77.9736 13.8287 77.9541 13.8107 77.9341 13.793C77.8945 13.7578 77.8545 13.7229 77.8145 13.688C77.7944 13.6704 77.7739 13.6536 77.7529 13.6372C77.7339 13.619 77.7144 13.6012 77.6938 13.5839C77.6538 13.5494 77.6133 13.5153 77.5728 13.4811C77.5522 13.4641 77.5317 13.4476 77.5107 13.4319C77.4917 13.4142 77.4717 13.3969 77.4512 13.3799C77.4106 13.3463 77.3696 13.3129 77.3291 13.2795C77.3081 13.2628 77.2871 13.2467 77.2661 13.2312C77.2466 13.2137 77.2261 13.1967 77.2056 13.1801C77.1641 13.1471 77.1226 13.1143 77.0811 13.0815C77.0601 13.0649 77.0386 13.0492 77.0171 13.0341C76.9971 13.0168 76.9766 13 76.9551 12.9838C76.9136 12.9517 76.8721 12.9197 76.8301 12.8879C76.8091 12.8719 76.7876 12.8566 76.7661 12.8419C76.7461 12.8252 76.7256 12.809 76.7041 12.7931L76.6724 12.7695L76.645 12.7493C76.6226 12.7325 76.6001 12.7158 76.5771 12.6991C76.5557 12.6833 76.5342 12.6683 76.5122 12.6539C76.4917 12.6376 76.4707 12.6216 76.4492 12.606C76.4062 12.5751 76.3633 12.5443 76.3203 12.5138C76.2988 12.4984 76.2769 12.4838 76.2544 12.4697C76.2339 12.4536 76.2124 12.4379 76.1909 12.4227C76.1479 12.3928 76.105 12.3629 76.0615 12.3334C76.04 12.3184 76.0181 12.3041 75.9956 12.2905C75.9746 12.2748 75.9536 12.2595 75.9316 12.2448C75.8882 12.2155 75.8442 12.1862 75.8003 12.1571C75.7783 12.1425 75.7559 12.1285 75.7334 12.1152C75.7124 12.0997 75.6904 12.0848 75.6685 12.0703C75.6245 12.0415 75.5801 12.0129 75.5356 11.9844C75.5132 11.9701 75.4912 11.9565 75.4683 11.9437C75.4468 11.9286 75.4253 11.9141 75.4028 11.9C75.3589 11.8721 75.3145 11.8444 75.27 11.8168C75.2476 11.803 75.2246 11.7897 75.2021 11.7772C75.1807 11.7625 75.1587 11.7483 75.1362 11.7345C75.0913 11.7073 75.0464 11.6801 75.0015 11.6531C74.9785 11.6395 74.9556 11.6266 74.9326 11.6144C74.9106 11.6 74.8887 11.5861 74.8657 11.5726C74.8203 11.5459 74.7749 11.5193 74.7295 11.4929C74.7065 11.4797 74.6836 11.4673 74.6606 11.4554C74.6387 11.4414 74.6162 11.428 74.5938 11.4149C74.5483 11.3892 74.5029 11.3635 74.4575 11.338C74.4341 11.3251 74.4111 11.313 74.3877 11.3015C74.3657 11.2877 74.3433 11.2745 74.3203 11.2618C74.2744 11.2367 74.2285 11.2115 74.1821 11.1866C74.1592 11.1741 74.1357 11.1622 74.1118 11.151C74.0898 11.1376 74.0669 11.1248 74.0435 11.1123C73.9971 11.0876 73.9507 11.0632 73.9038 11.0388C73.8809 11.0267 73.8574 11.0154 73.834 11.0045C73.8115 10.9916 73.7886 10.9791 73.7656 10.9672C73.7192 10.9434 73.6729 10.9198 73.626 10.8964C73.6025 10.8845 73.5791 10.8734 73.5552 10.8629C73.5327 10.8502 73.5098 10.838 73.4858 10.8263C73.4395 10.8032 73.3921 10.7802 73.3452 10.7572C73.3213 10.7457 73.2979 10.7349 73.2734 10.7247C73.251 10.7123 73.2275 10.7004 73.2036 10.6891C73.1562 10.6665 73.1089 10.644 73.0615 10.6218C73.0381 10.6107 73.0142 10.6003 72.9902 10.5906C72.9673 10.5786 72.9438 10.5671 72.9204 10.5562C72.873 10.5344 72.8257 10.5128 72.7783 10.4913C72.7544 10.4806 72.7305 10.4705 72.7061 10.4611C72.6831 10.4493 72.6597 10.4381 72.6357 10.4275C72.5879 10.4064 72.54 10.3853 72.4922 10.3645C72.4683 10.354 72.4438 10.3441 72.4194 10.3351C72.3965 10.3236 72.3726 10.3126 72.3481 10.3024C72.3003 10.2817 72.252 10.2614 72.2036 10.2412C72.1797 10.2311 72.1558 10.2217 72.1313 10.213C72.1079 10.2019 72.0845 10.1914 72.0601 10.1815C72.0122 10.1617 71.9639 10.1422 71.916 10.1227C71.8916 10.1129 71.8672 10.1039 71.8428 10.0955C71.8193 10.0846 71.7954 10.0745 71.771 10.0648C71.7227 10.0457 71.6738 10.0266 71.6255 10.0078C71.6011 9.99829 71.5762 9.9895 71.5518 9.98145C71.5278 9.97095 71.5039 9.96106 71.479 9.95166C71.4302 9.93311 71.3813 9.91479 71.3325 9.89648C71.3081 9.88745 71.2837 9.87903 71.2588 9.87134C71.2354 9.86121 71.2109 9.85168 71.1865 9.84277C71.1382 9.82507 71.0894 9.80737 71.0405 9.78992C71.0156 9.78113 70.9912 9.77307 70.9663 9.76562C70.9424 9.75586 70.918 9.74658 70.8936 9.73804C70.8442 9.72083 70.7954 9.70374 70.7461 9.68689C70.7212 9.67847 70.6963 9.67065 70.6714 9.66357C70.647 9.65405 70.6226 9.64502 70.5977 9.63672C70.5483 9.62012 70.499 9.60376 70.4492 9.5874C70.4243 9.57935 70.3994 9.5719 70.375 9.56519C70.3506 9.55603 70.3262 9.54749 70.3018 9.53955C70.2524 9.5238 70.2031 9.50818 70.1533 9.49268C70.1284 9.48486 70.1035 9.47778 70.0786 9.47131C70.0542 9.46252 70.0298 9.45422 70.0049 9.44653C69.9551 9.4314 69.9053 9.41626 69.8555 9.40137C69.8306 9.39392 69.8052 9.38708 69.7803 9.38098C69.7559 9.37244 69.731 9.3645 69.7061 9.35706C69.6558 9.34253 69.606 9.328 69.5557 9.31372C69.5308 9.30652 69.5054 9.30017 69.4805 9.29431C69.4561 9.28613 69.4312 9.27856 69.4062 9.27161C69.3564 9.25769 69.3066 9.24402 69.2563 9.23047C69.2314 9.22363 69.2061 9.21753 69.1812 9.21204C69.1567 9.20422 69.1318 9.1969 69.1064 9.19019C69.0562 9.177 69.0063 9.16382 68.9561 9.15088C68.9307 9.14441 68.9053 9.13855 68.8799 9.13342C68.855 9.12585 68.8301 9.11877 68.8047 9.11243C68.7544 9.09973 68.7036 9.08728 68.6533 9.07483C68.6279 9.06873 68.6025 9.06323 68.5771 9.05835C68.5527 9.05115 68.5273 9.04443 68.502 9.03845C68.4517 9.02649 68.4014 9.01477 68.3511 9.00305C68.3257 8.99719 68.3003 8.99207 68.2754 8.98755C68.2505 8.98071 68.2251 8.97437 68.1997 8.96863C68.1494 8.95728 68.0986 8.94617 68.0483 8.93506C68.0225 8.92957 67.9971 8.92468 67.9717 8.92053C67.9468 8.91382 67.9214 8.90784 67.896 8.90234C67.8452 8.89172 67.7944 8.8811 67.7432 8.87061C67.7178 8.86536 67.6919 8.86084 67.6665 8.85693C67.6416 8.85071 67.6162 8.84497 67.5903 8.83984C67.54 8.82983 67.4893 8.81995 67.4385 8.81018C67.4131 8.8053 67.3877 8.80115 67.3623 8.79761C67.3374 8.79163 67.312 8.78625 67.2866 8.78149C67.2358 8.77209 67.1846 8.76282 67.1338 8.75366C67.1079 8.74902 67.0825 8.74512 67.0566 8.74194C67.0317 8.73621 67.0063 8.7312 66.9805 8.72668C66.9297 8.7179 66.8784 8.70923 66.8271 8.70068C66.8013 8.69641 66.7754 8.69275 66.75 8.68982C66.7246 8.68445 66.6992 8.67969 66.6733 8.67554C66.6504 8.67188 66.6274 8.66821 66.6045 8.66455Q66.5625 8.65796 66.5205 8.65149C66.4946 8.64758 66.4692 8.64429 66.4434 8.64172C66.4185 8.63672 66.3931 8.63232 66.3672 8.62842C66.3164 8.62097 66.2651 8.61353 66.2139 8.60632C66.188 8.60266 66.1626 8.59973 66.1367 8.59741C66.1113 8.59265 66.0859 8.5885 66.0601 8.58508C66.0088 8.57812 65.9575 8.57129 65.9058 8.5647C65.8799 8.5614 65.8545 8.55872 65.8286 8.55676C65.8032 8.55225 65.7773 8.54846 65.7515 8.54529C65.7002 8.53894 65.6484 8.53284 65.5972 8.52673C65.5713 8.5238 65.5459 8.52148 65.52 8.51978C65.4951 8.51562 65.4692 8.51221 65.4438 8.5094C65.3926 8.50366 65.3413 8.49817 65.29 8.4928C65.2642 8.49011 65.2383 8.48804 65.2124 8.48669C65.187 8.48291 65.1616 8.47974 65.1357 8.47717C65.084 8.47205 65.0327 8.46716 64.981 8.4624C64.9551 8.46008 64.9292 8.45837 64.9033 8.45728C64.8779 8.45374 64.8521 8.45081 64.8262 8.44861C64.7744 8.44421 64.7227 8.43982 64.6709 8.43567C64.645 8.43359 64.6196 8.43225 64.5938 8.43152C64.5684 8.42834 64.5425 8.42578 64.5166 8.42383C64.4653 8.42004 64.4141 8.41638 64.3628 8.41284C64.3369 8.41113 64.311 8.41003 64.2852 8.40955C64.2598 8.40662 64.2344 8.40442 64.2085 8.40283C64.1567 8.39954 64.105 8.39648 64.0537 8.39368C64.0273 8.39221 64.0015 8.39136 63.9761 8.39124C63.9502 8.38867 63.9243 8.38672 63.8984 8.38538C63.8467 8.38281 63.7949 8.38037 63.7432 8.37805C63.7173 8.37683 63.6914 8.37634 63.6655 8.37659C63.6396 8.37427 63.6138 8.37256 63.5879 8.37158C63.5366 8.36963 63.4854 8.3678 63.4336 8.36621C63.4077 8.36536 63.3823 8.36511 63.3564 8.3656C63.3311 8.36365 63.3052 8.3623 63.2793 8.36157C63.228 8.36023 63.1763 8.35901 63.1245 8.35791C63.0986 8.35742 63.0728 8.35754 63.0469 8.3584C63.0215 8.35669 62.9956 8.35559 62.9697 8.35522C62.918 8.35449 62.8662 8.35388 62.8145 8.35339C62.7881 8.35315 62.7622 8.35364 62.7368 8.35474C62.7109 8.35327 62.6851 8.35254 62.6587 8.35242L62.6274 8.35242L62.5811 8.35242C62.5552 8.35242 62.5293 8.35242 62.5034 8.35242C62.4771 8.35254 62.4512 8.35327 62.4258 8.35474C62.3999 8.35364 62.374 8.35315 62.3477 8.35339C62.2959 8.35388 62.2441 8.35449 62.1924 8.35522C62.1665 8.35559 62.1406 8.35669 62.1152 8.3584C62.0894 8.35754 62.0635 8.35742 62.0376 8.35791C61.9858 8.35901 61.9346 8.36023 61.8828 8.36157C61.8569 8.3623 61.8311 8.36365 61.8057 8.3656C61.7803 8.36511 61.7544 8.36536 61.7285 8.36621L61.7163 8.36658C61.6689 8.36816 61.6216 8.36975 61.5742 8.37158C61.5483 8.37256 61.5225 8.37427 61.4966 8.37659C61.4707 8.37634 61.4448 8.37683 61.4189 8.37805C61.3672 8.38037 61.3154 8.38281 61.2637 8.38538C61.2378 8.38672 61.2119 8.38867 61.186 8.39124C61.1606 8.39136 61.1348 8.39221 61.1084 8.39368C61.0571 8.39648 61.0054 8.39954 60.9541 8.40283C60.9282 8.40442 60.9023 8.40662 60.877 8.40955C60.8511 8.41003 60.8252 8.41113 60.7993 8.41284C60.748 8.41638 60.6968 8.42004 60.6455 8.42383C60.6196 8.42578 60.5938 8.42834 60.5684 8.43152C60.543 8.43225 60.5171 8.43359 60.4912 8.43567C60.4395 8.43982 60.3877 8.44421 60.3359 8.44861C60.3101 8.45081 60.2842 8.45374 60.2588 8.45728C60.2329 8.45837 60.207 8.46008 60.1812 8.4624C60.1294 8.46716 60.0781 8.47205 60.0264 8.47717C60.0005 8.47974 59.9751 8.48291 59.9497 8.48669C59.9238 8.48804 59.8984 8.49011 59.8726 8.4928C59.8208 8.49817 59.7695 8.50366 59.7183 8.50928C59.6929 8.51221 59.667 8.51562 59.6421 8.51978C59.6162 8.52148 59.5908 8.5238 59.5649 8.52673C59.5137 8.53284 59.4619 8.53894 59.4106 8.54529C59.3848 8.54846 59.3589 8.55225 59.3335 8.55676C59.3081 8.55872 59.2822 8.5614 59.2563 8.5647Q59.1792 8.57458 59.1021 8.58508C59.0762 8.5885 59.0508 8.59265 59.0254 8.59741C59 8.59973 58.9741 8.60266 58.9482 8.60632C58.897 8.61353 58.8462 8.62097 58.7949 8.62842C58.769 8.6322 58.7437 8.63672 58.7188 8.64172C58.6934 8.64429 58.6675 8.64758 58.6421 8.65149C58.5908 8.65942 58.54 8.66736 58.4888 8.67554C58.4629 8.67969 58.4375 8.68445 58.4121 8.68982C58.3867 8.69275 58.3608 8.69641 58.335 8.70068C58.2837 8.70923 58.2324 8.7179 58.1816 8.72668C58.1558 8.73108 58.1304 8.73621 58.1055 8.74194C58.0796 8.74512 58.0542 8.74902 58.0283 8.75366C57.9775 8.76282 57.9268 8.77209 57.876 8.78149C57.8501 8.78625 57.8247 8.79163 57.7998 8.79761C57.7744 8.80115 57.749 8.8053 57.7236 8.81018C57.6729 8.81995 57.6221 8.82983 57.5718 8.83984C57.5459 8.84497 57.5205 8.85059 57.4956 8.85693C57.4702 8.86084 57.4443 8.86536 57.4189 8.87061C57.3677 8.8811 57.3169 8.8916 57.2661 8.90234C57.2407 8.90784 57.2153 8.91382 57.1904 8.92041C57.165 8.92468 57.1396 8.92957 57.1138 8.93506C57.0635 8.94604 57.0127 8.95728 56.9624 8.96863C56.937 8.97437 56.9116 8.98071 56.8872 8.98755C56.8618 8.99207 56.8364 8.99719 56.811 9.00305C56.7607 9.01477 56.7104 9.02649 56.6602 9.03845C56.6348 9.04443 56.6099 9.05115 56.585 9.05835C56.5596 9.06323 56.5342 9.06873 56.5088 9.07483C56.4585 9.08728 56.4077 9.09973 56.3574 9.11243C56.332 9.11877 56.3071 9.12573 56.2822 9.13342C56.2568 9.13855 56.2314 9.14441 56.2061 9.15088C56.1558 9.16382 56.106 9.177 56.0557 9.19019C56.0303 9.1969 56.0054 9.20422 55.981 9.21204C55.9561 9.21753 55.9307 9.22363 55.9058 9.23047C55.8555 9.24402 55.8057 9.25769 55.7559 9.27161C55.731 9.27856 55.7061 9.28613 55.6816 9.29431C55.6567 9.30017 55.6313 9.30652 55.6064 9.31372C55.5562 9.328 55.5063 9.34253 55.4561 9.35706C55.4312 9.3645 55.4062 9.37244 55.3818 9.38098C55.3569 9.38708 55.3315 9.39392 55.3066 9.40137C55.2568 9.41626 55.207 9.4314 55.1572 9.44653C55.1323 9.45422 55.1079 9.4624 55.0835 9.47131C55.0586 9.47766 55.0337 9.48486 55.0088 9.49268C54.9595 9.50818 54.9097 9.5238 54.8608 9.53955C54.8359 9.54749 54.8115 9.55603 54.7876 9.56519C54.7627 9.5719 54.7378 9.57935 54.7129 9.5874C54.6636 9.60376 54.6138 9.62012 54.5645 9.63672C54.5396 9.64502 54.5151 9.65405 54.4907 9.66345C54.4658 9.67065 54.4409 9.67847 54.416 9.68689C54.3672 9.70374 54.3179 9.72083 54.2686 9.73792C54.2441 9.74658 54.2197 9.75586 54.1958 9.76562C54.1709 9.77307 54.1465 9.78113 54.1216 9.78992C54.0728 9.80737 54.0239 9.82495 53.9756 9.84277C53.9512 9.85168 53.9268 9.86121 53.9033 9.87122C53.8784 9.87903 53.854 9.88745 53.8296 9.89648C53.7808 9.91479 53.7319 9.93311 53.6831 9.95166C53.6587 9.96106 53.6343 9.97095 53.6104 9.98145C53.5859 9.9895 53.5615 9.99829 53.5366 10.0078C53.4883 10.0266 53.4395 10.0457 53.3911 10.0648C53.3667 10.0745 53.3428 10.0846 53.3193 10.0955C53.2949 10.1038 53.2705 10.1129 53.2461 10.1227C53.1982 10.1422 53.1499 10.1617 53.1021 10.1815C53.0776 10.1914 53.0542 10.2019 53.0308 10.2129C53.0063 10.2217 52.9824 10.2311 52.9585 10.2411C52.9102 10.2614 52.8618 10.2817 52.814 10.3024C52.7896 10.3126 52.7661 10.3236 52.7427 10.335C52.7183 10.3441 52.6938 10.3539 52.6699 10.3645C52.6221 10.3853 52.5742 10.4062 52.5264 10.4275C52.5024 10.4381 52.479 10.4493 52.4561 10.4611C52.4316 10.4705 52.4077 10.4806 52.3838 10.4913C52.3364 10.5128 52.2891 10.5344 52.2417 10.5562C52.2183 10.567 52.1948 10.5785 52.1719 10.5906C52.1479 10.6003 52.124 10.6107 52.1006 10.6218Q52.0293 10.6552 51.9585 10.6891C51.9346 10.7004 51.9111 10.7123 51.8887 10.7247C51.8643 10.7349 51.8408 10.7457 51.8169 10.7572C51.77 10.7802 51.7231 10.8031 51.6763 10.8263C51.6528 10.838 51.6294 10.8502 51.6069 10.8629C51.583 10.8733 51.5596 10.8845 51.5361 10.8962C51.4893 10.9198 51.4429 10.9434 51.3965 10.9672C51.3735 10.9791 51.3506 10.9916 51.3281 11.0045C51.3047 11.0153 51.2812 11.0267 51.2583 11.0388C51.2114 11.0632 51.165 11.0876 51.1187 11.1123C51.0952 11.1246 51.0723 11.1376 51.0503 11.151C51.0264 11.1622 51.0029 11.1741 50.98 11.1866C50.9336 11.2115 50.8877 11.2367 50.8418 11.2618C50.8188 11.2745 50.7964 11.2877 50.7744 11.3014C50.751 11.313 50.728 11.3251 50.7051 11.338C50.6592 11.3634 50.6138 11.3892 50.5684 11.4149C50.5459 11.4279 50.5234 11.4414 50.5015 11.4554C50.4785 11.4673 50.4556 11.4797 50.4326 11.4929C50.3872 11.5193 50.3418 11.5459 50.2964 11.5725C50.2734 11.5859 50.2515 11.6 50.2295 11.6144C50.2065 11.6266 50.1836 11.6395 50.1606 11.6531C50.1157 11.6801 50.0708 11.7073 50.0264 11.7345C50.0034 11.7482 49.9814 11.7625 49.96 11.7771C49.9375 11.7897 49.9146 11.8029 49.8921 11.8168C49.8477 11.8444 49.8037 11.8721 49.7593 11.8999C49.7368 11.9141 49.7153 11.9286 49.6938 11.9436C49.6714 11.9565 49.6489 11.9701 49.6265 11.9844C49.582 12.0128 49.5376 12.0415 49.4937 12.0703C49.4717 12.0847 49.4497 12.0997 49.4287 12.1152C49.4062 12.1285 49.3838 12.1425 49.3618 12.1571C49.3179 12.1862 49.2744 12.2155 49.2305 12.2448C49.209 12.2595 49.1875 12.2748 49.1665 12.2905C49.1445 12.3041 49.1221 12.3184 49.1006 12.3333C49.0571 12.3629 49.0142 12.3927 48.9712 12.4227C48.9497 12.4379 48.9282 12.4535 48.9077 12.4697C48.8853 12.4836 48.8633 12.4984 48.8418 12.5138C48.7988 12.5443 48.7559 12.5751 48.7129 12.606C48.6914 12.6215 48.6704 12.6376 48.6499 12.6539C48.6279 12.6683 48.6064 12.6833 48.585 12.6991C48.5425 12.7302 48.5 12.7616 48.458 12.7931C48.437 12.809 48.416 12.8252 48.396 12.8419C48.3745 12.8566 48.353 12.8719 48.332 12.8879C48.29 12.9197 48.2485 12.9517 48.207 12.9838C48.1855 13 48.165 13.0168 48.145 13.0341C48.1235 13.0492 48.1021 13.0649 48.0811 13.0814C48.0396 13.1141 47.998 13.1471 47.9565 13.1801C47.936 13.1967 47.916 13.2137 47.896 13.2312C47.875 13.2467 47.854 13.2628 47.8335 13.2795C47.7925 13.3129 47.7515 13.3463 47.7109 13.3799C47.6904 13.3969 47.6704 13.4141 47.6514 13.4319C47.6304 13.4476 47.6099 13.464 47.5894 13.4811C47.5488 13.5153 47.5083 13.5494 47.4683 13.5839C47.4478 13.6012 47.4282 13.619 47.4092 13.6372C47.3882 13.6534 47.3677 13.6704 47.3477 13.688C47.3076 13.7228 47.2676 13.7578 47.228 13.793C47.208 13.8107 47.1885 13.8287 47.1699 13.8473C47.1494 13.8638 47.1294 13.881 47.1094 13.8989C47.0703 13.9343 47.0308 13.9698 46.9922 14.0056C46.9727 14.0236 46.9536 14.042 46.9351 14.0607C46.915 14.0776 46.895 14.0951 46.8755 14.1133C46.8369 14.1497 46.7979 14.1863 46.7593 14.223C46.7397 14.2415 46.7212 14.2603 46.7026 14.2795C46.6826 14.2969 46.6631 14.3149 46.644 14.3336C46.6055 14.3706 46.5674 14.4077 46.5298 14.4451C46.5107 14.4637 46.4922 14.4829 46.4746 14.5024C46.4551 14.5201 46.4355 14.5385 46.4165 14.5574C46.3794 14.595 46.3418 14.6327 46.3052 14.6705C46.2861 14.6897 46.2681 14.7092 46.2505 14.7291C46.231 14.7472 46.2124 14.766 46.1934 14.7853C46.1567 14.8239 46.1196 14.8625 46.083 14.9015C46.0645 14.921 46.0469 14.9409 46.0298 14.9612C46.0107 14.9796 45.9917 14.9988 45.9736 15.0184C45.9375 15.0576 45.9014 15.0969 45.8657 15.1364C45.8477 15.1561 45.8301 15.1764 45.8135 15.1969C45.7949 15.2157 45.7764 15.2351 45.7588 15.2551C45.7231 15.2949 45.688 15.3348 45.6528 15.375C45.6353 15.3953 45.6182 15.416 45.6016 15.437C45.583 15.4563 45.5649 15.4762 45.5474 15.4967C45.5127 15.5374 45.478 15.5782 45.4434 15.6193C45.4258 15.6399 45.4092 15.6608 45.3931 15.6821C45.3755 15.7017 45.3579 15.7219 45.3403 15.7427C45.3066 15.7839 45.2729 15.8253 45.2393 15.8669C45.2222 15.8878 45.2061 15.9091 45.1904 15.9305C45.1729 15.9504 45.1558 15.9709 45.1392 15.9921C45.1055 16.0342 45.0723 16.0767 45.0396 16.1191C45.0229 16.1405 45.0068 16.1622 44.9917 16.1842C44.9746 16.2046 44.9575 16.2256 44.9414 16.2472C44.9087 16.29 44.8765 16.333 44.8442 16.3761C44.8281 16.3977 44.813 16.4197 44.7979 16.442C44.7812 16.4626 44.7646 16.4839 44.749 16.5057C44.7173 16.5492 44.686 16.5927 44.6548 16.6364C44.6392 16.6584 44.624 16.6808 44.6099 16.7034C44.5933 16.7245 44.5771 16.7462 44.562 16.7686C44.5308 16.8129 44.5 16.8573 44.4697 16.902C44.4546 16.9243 44.4399 16.947 44.4263 16.9701C44.4102 16.9916 44.3945 17.0135 44.3794 17.0361C44.3496 17.0811 44.3198 17.1261 44.2905 17.1713C44.2759 17.194 44.2617 17.2169 44.248 17.2401C44.2329 17.2618 44.2178 17.2842 44.2031 17.3071C44.1743 17.3527 44.1455 17.3984 44.1167 17.4443C44.1025 17.4674 44.0889 17.4908 44.0762 17.5145C44.0605 17.5367 44.0459 17.5596 44.0317 17.5829C44.0039 17.6293 43.9761 17.6758 43.9487 17.7224C43.9346 17.7458 43.9214 17.7694 43.9092 17.7933C43.8945 17.8159 43.8804 17.839 43.8667 17.8625C43.8398 17.9094 43.813 17.9564 43.7866 18.0035C43.7729 18.0273 43.7607 18.0513 43.7485 18.0754C43.7344 18.0984 43.7207 18.1217 43.7075 18.1456C43.6816 18.1934 43.6558 18.2412 43.6304 18.2893C43.6172 18.3134 43.6055 18.3378 43.5938 18.3622C43.5801 18.3855 43.5669 18.4093 43.5547 18.4336C43.5293 18.4818 43.5049 18.5303 43.4805 18.5787C43.4683 18.6031 43.4565 18.6277 43.4458 18.6525C43.4326 18.676 43.4199 18.7001 43.4077 18.7246C43.3843 18.7734 43.3604 18.8224 43.3369 18.8715C43.3252 18.8962 43.3145 18.9211 43.3042 18.9463C43.2915 18.9702 43.2793 18.9946 43.2676 19.0197C43.2451 19.0692 43.2227 19.1188 43.2002 19.1686C43.189 19.1936 43.1787 19.2189 43.1689 19.2441C43.1567 19.2684 43.1455 19.2931 43.1343 19.3182C43.1128 19.3683 43.0913 19.4185 43.0703 19.4688C43.0596 19.494 43.0498 19.5194 43.041 19.5449C43.0293 19.5695 43.0186 19.5945 43.0083 19.6199C42.9878 19.6705 42.9673 19.7214 42.9473 19.7723C42.9375 19.798 42.9282 19.8237 42.9194 19.8495C42.9087 19.8744 42.8984 19.8998 42.8887 19.9255C42.8691 19.9767 42.8501 20.028 42.8315 20.0793C42.8223 20.1052 42.8135 20.1311 42.8057 20.1571C42.7954 20.1823 42.7856 20.2079 42.7764 20.2339C42.7583 20.2855 42.7407 20.3372 42.7231 20.389C42.7144 20.4152 42.7065 20.4414 42.6992 20.4677C42.6895 20.493 42.6807 20.5189 42.6719 20.5452C42.6553 20.5974 42.6387 20.6497 42.6226 20.702C42.6143 20.7284 42.6069 20.7548 42.6006 20.7812C42.5913 20.8069 42.5825 20.833 42.5747 20.8595Q42.5518 20.9384 42.5293 21.0176C42.522 21.0442 42.5151 21.0708 42.5093 21.0974C42.5005 21.1233 42.4927 21.1495 42.4858 21.1763C42.4717 21.2292 42.4575 21.2823 42.4438 21.3356C42.437 21.3623 42.4312 21.3892 42.4258 21.4159C42.418 21.442 42.4106 21.4685 42.4043 21.4954C42.3916 21.5488 42.3789 21.6023 42.3667 21.6559C42.3604 21.6829 42.355 21.7098 42.3506 21.7367C42.3433 21.7631 42.3369 21.7898 42.3311 21.8169C42.3193 21.8706 42.3081 21.9246 42.2974 21.9785C42.292 22.0056 42.2871 22.0326 42.2832 22.0597C42.2783 22.0786 42.2744 22.0978 42.2705 22.1172C41.8975 21.6975 41.4805 21.2081 41.0684 20.6851C40.4526 19.9036 39.8765 19.0826 39.4741 18.3308C39.042 17.5231 38.9375 17.0242 38.9561 16.8098C38.9819 16.5153 39.1406 16.1469 39.5903 15.6593C40.0459 15.1663 40.689 14.6691 41.4844 14.1121C41.7256 13.9432 41.9873 13.7644 42.2583 13.5796L42.2583 13.5795C42.8223 13.1948 43.4253 12.7833 43.9639 12.377C44.7769 11.7635 45.6143 11.0416 46.2212 10.1766C47.4727 8.39368 47.269 6.83252 47.1338 5.79333C47.1299 5.76331 47.126 5.73376 47.1221 5.70471C47.0542 5.17615 47.0386 4.92444 47.0806 4.7124C47.1094 4.56885 47.1816 4.35645 47.5215 4.04175ZM62.5811 11.2921L62.5522 11.2922L62.5117 11.2922C62.4888 11.2924 62.4658 11.2919 62.4429 11.2909C62.4199 11.2921 62.397 11.2928 62.3735 11.2931Q62.3047 11.2937 62.2358 11.2947C62.2129 11.295 62.1899 11.2948 62.167 11.2942C62.144 11.2957 62.1211 11.2966 62.0981 11.2971C62.0522 11.2981 62.0063 11.2992 61.9609 11.3004C61.938 11.301 61.915 11.301 61.8921 11.3007C61.8696 11.3024 61.8467 11.3037 61.8237 11.3044C61.7778 11.3059 61.7324 11.3075 61.687 11.3092C61.6636 11.3102 61.6406 11.3105 61.6177 11.3103C61.5952 11.3124 61.5723 11.314 61.5488 11.3149C61.5029 11.317 61.457 11.3192 61.4111 11.3214C61.3882 11.3226 61.3652 11.3232 61.3423 11.3234C61.3193 11.3257 61.2969 11.3275 61.2734 11.3287C61.228 11.3314 61.1821 11.3341 61.1362 11.3369C61.1133 11.3384 61.0903 11.3392 61.0679 11.3396C61.0586 11.3407 61.0493 11.3417 61.04 11.3425L61.04 16.2604C61.2178 16.2505 61.3965 16.2417 61.5776 16.234L61.5776 16.192C61.9175 16.192 62.252 16.1954 62.5811 16.2023C62.9106 16.1954 63.2451 16.192 63.5845 16.192L63.5845 16.234C63.7651 16.2417 63.9443 16.2505 64.1221 16.2603L64.1221 11.3425C64.1128 11.3416 64.1035 11.3407 64.0942 11.3396C64.0718 11.3392 64.0488 11.3384 64.0259 11.3369C63.98 11.3341 63.9346 11.3314 63.8887 11.3287C63.8657 11.3275 63.8428 11.3257 63.8198 11.3234C63.7969 11.3232 63.7739 11.3226 63.751 11.3214C63.7051 11.3192 63.6592 11.317 63.6133 11.3149C63.5898 11.314 63.5669 11.3124 63.5444 11.3103C63.5215 11.3105 63.4985 11.3102 63.4751 11.3092C63.4297 11.3075 63.3843 11.3059 63.3384 11.3044C63.3154 11.3037 63.2925 11.3024 63.27 11.3007C63.2471 11.301 63.2241 11.301 63.2012 11.3004C63.1558 11.2992 63.1099 11.2981 63.064 11.2971C63.041 11.2966 63.0181 11.2957 62.9951 11.2942C62.9722 11.2948 62.9492 11.295 62.9263 11.2947C62.8804 11.2941 62.8345 11.2935 62.7886 11.2931C62.7651 11.2928 62.7422 11.2921 62.7192 11.2909C62.6963 11.2919 62.6733 11.2924 62.6504 11.2922C62.627 11.2922 62.604 11.2921 62.5811 11.2921ZM69.0127 12.2178C69.0552 12.2305 69.0977 12.2433 69.1396 12.2562L69.1396 16.8745C68.478 16.7427 67.7856 16.6279 67.0615 16.532L67.0615 11.7313C67.0698 11.7328 67.0781 11.734 67.0864 11.7354C67.1084 11.741 67.1309 11.746 67.1533 11.7506C67.1982 11.7599 67.2432 11.7692 67.2881 11.7787C67.3105 11.7834 67.333 11.7876 67.3555 11.7914C67.3774 11.7972 67.3999 11.8026 67.4224 11.8075C67.4668 11.8173 67.5117 11.827 67.5562 11.837C67.5786 11.842 67.6006 11.8466 67.623 11.8505C67.645 11.8567 67.667 11.8623 67.6895 11.8674C67.7339 11.8777 67.7778 11.8881 67.8223 11.8986C67.8447 11.9039 67.8667 11.9087 67.8892 11.9128C67.9111 11.9193 67.9331 11.9252 67.9556 11.9307Q68.0225 11.947 68.0889 11.9637C68.1113 11.9694 68.1333 11.9744 68.1558 11.9789C68.1777 11.9856 68.1997 11.9918 68.2217 11.9976C68.2661 12.0089 68.3101 12.0205 68.3545 12.0322C68.3765 12.0381 68.3984 12.0433 68.4209 12.0481C68.4424 12.0551 68.4644 12.0615 68.4863 12.0675C68.5303 12.0795 68.5742 12.0916 68.6177 12.1038C68.6396 12.1099 68.6621 12.1155 68.6841 12.1205C68.7056 12.1277 68.7271 12.1345 68.749 12.1407C68.7935 12.1533 68.8374 12.166 68.8813 12.1788C68.9033 12.1853 68.9253 12.1912 68.9473 12.1965C68.9688 12.2041 68.9907 12.2112 69.0127 12.2178ZM58.0757 11.7354C58.084 11.734 58.0923 11.7328 58.1001 11.7314L58.1001 16.532C57.3765 16.6279 56.6841 16.7427 56.0225 16.8746L56.0225 12.2562C56.0645 12.2433 56.1069 12.2305 56.1494 12.2178C56.1714 12.2112 56.1934 12.2041 56.2148 12.1965C56.2368 12.1912 56.2588 12.1853 56.2808 12.1788C56.3247 12.166 56.3691 12.1533 56.4131 12.1407C56.4351 12.1344 56.4565 12.1277 56.478 12.1205C56.5005 12.1155 56.5225 12.1099 56.5444 12.1038C56.5879 12.0916 56.6318 12.0795 56.6758 12.0675C56.6978 12.0615 56.7197 12.0551 56.7412 12.0481C56.7637 12.0433 56.7856 12.0381 56.8081 12.0322C56.8521 12.0205 56.896 12.0089 56.9404 11.9976C56.9624 11.9918 56.9849 11.9856 57.0063 11.9789C57.0288 11.9744 57.0508 11.9694 57.0732 11.9637C57.1177 11.9525 57.1621 11.9415 57.2065 11.9307C57.229 11.9252 57.251 11.9193 57.2729 11.9128C57.2954 11.9087 57.3174 11.9039 57.3398 11.8986C57.3843 11.8881 57.4282 11.8777 57.4727 11.8674C57.4951 11.8623 57.5171 11.8566 57.5391 11.8505C57.5615 11.8466 57.584 11.842 57.606 11.837C57.6504 11.827 57.6953 11.8173 57.7397 11.8075C57.7622 11.8026 57.7847 11.7972 57.8066 11.7913C57.8291 11.7876 57.8516 11.7834 57.874 11.7787C57.9189 11.7692 57.9639 11.7599 58.0088 11.7506C58.0312 11.746 58.0537 11.7408 58.0757 11.7354ZM74.1201 14.5684C74.1338 14.5786 74.1484 14.5886 74.1631 14.5985C74.1597 14.6392 74.1577 14.6803 74.1577 14.7218L74.1577 18.4058C73.5107 18.1252 72.8193 17.8647 72.0796 17.6283L72.0796 13.4108C72.1138 13.4274 72.1479 13.4441 72.1816 13.4609C72.2021 13.4711 72.2227 13.4806 72.2432 13.4896C72.2627 13.5007 72.2827 13.5114 72.3032 13.5216C72.3433 13.5419 72.3838 13.5624 72.4238 13.5829C72.4438 13.5933 72.4639 13.603 72.4844 13.6124C72.5039 13.6237 72.5234 13.6345 72.5435 13.645C72.584 13.666 72.624 13.6873 72.6641 13.7085C72.6846 13.7192 72.7046 13.7294 72.7251 13.739C72.7441 13.7506 72.7642 13.7618 72.7842 13.7727C72.8062 13.7848 72.8286 13.7968 72.8506 13.8088L72.894 13.8328L72.9033 13.8376C72.9229 13.8486 72.9429 13.859 72.9634 13.8689C72.9824 13.8807 73.002 13.8922 73.0215 13.9033C73.061 13.9253 73.1001 13.9475 73.1392 13.9697C73.1587 13.9808 73.1787 13.9916 73.1982 14.0017C73.2173 14.0138 73.2363 14.0255 73.2563 14.0369Q73.2798 14.0505 73.3032 14.0643C73.3267 14.078 73.3501 14.0917 73.3735 14.1055C73.3931 14.1169 73.4126 14.1281 73.4326 14.1385C73.4517 14.151 73.4707 14.1631 73.4902 14.1747C73.5288 14.1979 73.5674 14.2213 73.606 14.2448C73.625 14.2565 73.6445 14.2677 73.6641 14.2786C73.6826 14.2911 73.7017 14.3035 73.7207 14.3153C73.7588 14.339 73.7969 14.3628 73.835 14.3867C73.854 14.3988 73.873 14.4103 73.8926 14.4214C73.9111 14.4343 73.9297 14.4469 73.9487 14.4591C73.9868 14.4835 74.0249 14.5081 74.0625 14.5327L74.0684 14.5365L74.0786 14.5432C74.0845 14.5468 74.0903 14.5503 74.0957 14.5538C74.104 14.5587 74.1118 14.5636 74.1201 14.5684ZM52.9805 13.4609C53.0142 13.4442 53.0483 13.4275 53.0825 13.4109L53.0825 17.6283C52.3428 17.8647 51.6514 18.1252 51.0044 18.4058L51.0044 14.5951C51.0107 14.5908 51.0166 14.5867 51.0225 14.5824L51.0322 14.5754L51.042 14.5682C51.0615 14.5569 51.0806 14.545 51.0996 14.5326C51.1377 14.5081 51.1753 14.4835 51.2134 14.4591C51.2324 14.4469 51.251 14.4343 51.2695 14.4214C51.2891 14.4103 51.3081 14.3988 51.3271 14.3867C51.3652 14.3628 51.4033 14.339 51.4414 14.3153C51.4604 14.3035 51.4795 14.2911 51.498 14.2784C51.5176 14.2677 51.5371 14.2565 51.5562 14.2446C51.5947 14.2212 51.6333 14.1979 51.6719 14.1747C51.6914 14.1631 51.7109 14.151 51.7295 14.1385C51.7495 14.1281 51.769 14.1169 51.7886 14.1055C51.8276 14.0825 51.8667 14.0596 51.9062 14.0369C51.9258 14.0255 51.9448 14.0138 51.9639 14.0017C51.9834 13.9916 52.0034 13.9808 52.0229 13.9697C52.043 13.9583 52.063 13.9469 52.0835 13.9355C52.1025 13.9248 52.1216 13.9141 52.1406 13.9033C52.1602 13.8922 52.1797 13.8807 52.1987 13.8689C52.2192 13.859 52.2393 13.8486 52.2588 13.8376C52.2983 13.8159 52.3384 13.7942 52.3779 13.7727C52.3979 13.7618 52.418 13.7506 52.437 13.739C52.4575 13.7294 52.4775 13.7191 52.498 13.7085C52.5381 13.6871 52.5781 13.666 52.6187 13.645C52.6387 13.6345 52.6582 13.6237 52.6777 13.6124C52.6982 13.603 52.7183 13.5933 52.7383 13.5829C52.7783 13.5624 52.8188 13.5419 52.8589 13.5216C52.8794 13.5114 52.8994 13.5007 52.9189 13.4896C52.9395 13.4806 52.96 13.4711 52.9805 13.4609ZM48.0415 17.1133L48.0645 17.0878L48.0645 19.9999C46.9106 20.7747 45.9658 21.6191 45.1943 22.4849C45.1978 22.4681 45.2017 22.4513 45.2051 22.4346C45.2095 22.4137 45.2139 22.3928 45.2173 22.3719C45.2227 22.3514 45.228 22.3308 45.2329 22.3099C45.2422 22.2684 45.252 22.2271 45.2617 22.1857C45.2671 22.1649 45.2715 22.144 45.2754 22.1233C45.2817 22.103 45.2876 22.0825 45.2925 22.0618C45.3032 22.0205 45.314 21.9792 45.3252 21.9381C45.3306 21.9175 45.3354 21.8967 45.3403 21.8761C45.3467 21.8558 45.353 21.8354 45.3589 21.8148C45.3706 21.7738 45.3823 21.7329 45.3945 21.6919C45.4004 21.6714 45.4062 21.6508 45.4111 21.6301C45.4185 21.6101 45.4253 21.5898 45.4316 21.5693C45.4438 21.5286 45.457 21.4879 45.4702 21.4471C45.4766 21.4268 45.4829 21.4062 45.4883 21.3857C45.4961 21.3658 45.5034 21.3457 45.5103 21.3253C45.5239 21.2849 45.5376 21.2445 45.5518 21.2041C45.5586 21.1838 45.5654 21.1635 45.5713 21.1432C45.5796 21.1234 45.5874 21.1035 45.5947 21.0833C45.6094 21.0431 45.624 21.0029 45.6392 20.9628C45.647 20.9426 45.6543 20.9225 45.6606 20.9021C45.6694 20.8826 45.6777 20.8628 45.6855 20.8428C45.7012 20.8027 45.7168 20.7629 45.7329 20.723C45.7412 20.7031 45.7485 20.6831 45.7559 20.663C45.7651 20.6437 45.7739 20.624 45.7822 20.6041C45.7983 20.5646 45.8154 20.5251 45.8325 20.4857C45.8408 20.4659 45.8491 20.446 45.8569 20.426C45.8662 20.4069 45.8755 20.3875 45.8843 20.3677C45.9019 20.3284 45.9194 20.2892 45.9375 20.2501C45.9468 20.2303 45.9556 20.2106 45.9634 20.1907C45.9736 20.1718 45.9834 20.1525 45.9927 20.1328C46.0112 20.094 46.0298 20.0553 46.0488 20.0166C46.0581 19.9972 46.0674 19.9777 46.0757 19.958C46.0864 19.9392 46.0962 19.9202 46.106 19.9009C46.1255 19.8624 46.145 19.824 46.165 19.7855C46.1748 19.7662 46.1846 19.7468 46.1934 19.7273C46.2046 19.7087 46.2148 19.6899 46.2251 19.6707C46.2456 19.6324 46.2661 19.5944 46.2871 19.5563C46.2974 19.5372 46.3076 19.5181 46.3169 19.4987C46.3281 19.4805 46.3394 19.4618 46.3501 19.4429C46.3711 19.4052 46.3926 19.3677 46.4141 19.3301C46.4248 19.3113 46.4351 19.2922 46.4453 19.2731C46.457 19.255 46.4683 19.2366 46.4795 19.2179Q46.5127 19.1617 46.5464 19.106C46.5576 19.0873 46.5688 19.0684 46.5791 19.0494C46.5913 19.0315 46.603 19.0132 46.6147 18.9946C46.6377 18.9578 46.6606 18.921 46.6841 18.8843C46.6958 18.8658 46.707 18.8473 46.7178 18.8285C46.7305 18.8109 46.7427 18.7931 46.7544 18.7748C46.7783 18.7383 46.8022 18.702 46.8262 18.6658C46.8384 18.6475 46.8501 18.629 46.8613 18.6105C46.8745 18.593 46.8872 18.5753 46.8994 18.5571C46.9238 18.5211 46.9487 18.4851 46.9736 18.4491C46.9863 18.4312 46.9985 18.4128 47.0103 18.3945C47.0234 18.3773 47.0366 18.3599 47.0493 18.3419C47.0747 18.3065 47.1001 18.2711 47.1255 18.2358C47.1387 18.2181 47.1509 18.2002 47.1631 18.182C47.1768 18.1652 47.1904 18.1479 47.2031 18.1304C47.2295 18.0952 47.2559 18.0602 47.2822 18.0253C47.2959 18.0077 47.3086 17.99 47.3208 17.9719C47.335 17.9553 47.3491 17.9382 47.3623 17.9208C47.3896 17.8861 47.4165 17.8514 47.4438 17.8169C47.4575 17.7997 47.4707 17.7822 47.4834 17.7645C47.498 17.7483 47.5122 17.7316 47.5259 17.7145C47.5532 17.6804 47.5811 17.6465 47.6089 17.6125C47.623 17.5956 47.6367 17.5782 47.6499 17.5608C47.6646 17.5447 47.6792 17.5282 47.6934 17.5112C47.7217 17.4775 47.7505 17.444 47.7788 17.4104C47.7935 17.3936 47.8076 17.3765 47.8213 17.3591C47.8364 17.3433 47.8511 17.3269 47.8657 17.3102C47.8945 17.2771 47.9238 17.2441 47.9531 17.2113C47.9678 17.1948 47.9819 17.1781 47.9961 17.1611C48.0112 17.1455 48.0264 17.1296 48.0415 17.1133ZM79.957 22.4347C79.9604 22.4514 79.9644 22.4681 79.9678 22.4849C79.1963 21.6193 78.252 20.7748 77.0977 20L77.0977 17.0878L77.1206 17.1133C77.1357 17.1296 77.1509 17.1455 77.166 17.1611C77.1802 17.1781 77.1943 17.1948 77.209 17.2113C77.2217 17.2256 77.2344 17.2399 77.2471 17.2542C77.2637 17.2728 77.2798 17.2915 77.2964 17.3102C77.311 17.3269 77.3257 17.3433 77.3413 17.3591C77.3545 17.3765 77.3687 17.3936 77.3833 17.4104C77.4121 17.444 77.4404 17.4775 77.4688 17.5112C77.4829 17.5282 77.4976 17.5447 77.5122 17.5608C77.5195 17.5707 77.5273 17.5804 77.5352 17.5902C77.541 17.5977 77.5469 17.6051 77.5532 17.6125C77.5811 17.6465 77.6089 17.6804 77.6362 17.7145C77.6499 17.7316 77.6641 17.7483 77.6787 17.7645C77.6914 17.7822 77.7046 17.7997 77.7183 17.8169C77.7456 17.8514 77.7725 17.8861 77.7998 17.9208C77.813 17.9382 77.8271 17.9553 77.8413 17.972C77.8535 17.99 77.8667 18.0077 77.8799 18.0253L77.894 18.0439L77.9062 18.0599L77.9126 18.0685C77.9277 18.0891 77.9434 18.1097 77.959 18.1304C77.9717 18.1479 77.9854 18.1652 77.999 18.1821C78.0112 18.2002 78.0234 18.2181 78.0366 18.236Q78.0747 18.2888 78.1128 18.3419C78.1255 18.3599 78.1387 18.3773 78.1519 18.3945C78.1636 18.413 78.1758 18.4312 78.1885 18.4491C78.2134 18.4851 78.2383 18.5211 78.2627 18.5573C78.2749 18.5753 78.2876 18.5931 78.3008 18.6105C78.312 18.629 78.3237 18.6475 78.3359 18.6658C78.3599 18.702 78.3838 18.7384 78.4077 18.7748C78.4194 18.7931 78.4316 18.811 78.4443 18.8286C78.4551 18.8473 78.4663 18.8658 78.478 18.8843C78.5015 18.921 78.5244 18.9578 78.5474 18.9946C78.5591 19.0133 78.5708 19.0315 78.583 19.0494C78.5938 19.0685 78.6045 19.0873 78.6157 19.1061C78.6382 19.1432 78.6606 19.1805 78.6826 19.2179Q78.6992 19.246 78.7168 19.2731C78.7271 19.2922 78.7373 19.3113 78.748 19.3302C78.7695 19.3677 78.791 19.4053 78.8125 19.4429C78.8228 19.4618 78.834 19.4805 78.8452 19.4988C78.8511 19.5103 78.8569 19.5217 78.8628 19.5332L78.8643 19.5356C78.8677 19.5426 78.8716 19.5494 78.875 19.5563C78.896 19.5944 78.9165 19.6326 78.937 19.6708C78.9473 19.6899 78.9575 19.7087 78.9688 19.7273L78.9722 19.7345L78.9751 19.7408L78.9805 19.752C78.9834 19.7588 78.9868 19.7656 78.9902 19.7723Q78.9937 19.7789 78.9971 19.7856C79.0088 19.8082 79.0205 19.8309 79.0322 19.8536C79.04 19.8694 79.0483 19.8851 79.0562 19.9009C79.0659 19.9203 79.0757 19.9393 79.0864 19.958C79.0947 19.9777 79.104 19.9972 79.1138 20.0166C79.1323 20.0553 79.1514 20.0941 79.1694 20.1329C79.1787 20.1525 79.1885 20.1718 79.1987 20.1908C79.2065 20.2106 79.2153 20.2303 79.2246 20.2501C79.2334 20.2695 79.2422 20.2891 79.251 20.3086C79.2603 20.3282 79.269 20.348 79.2778 20.3678C79.2866 20.3875 79.2959 20.4069 79.3052 20.426C79.313 20.446 79.3213 20.4659 79.3296 20.4857C79.3354 20.4987 79.3408 20.5116 79.3462 20.5244C79.3521 20.5382 79.3579 20.552 79.3638 20.5658C79.3691 20.5786 79.375 20.5914 79.3804 20.6042C79.3887 20.6241 79.397 20.6437 79.4062 20.663C79.4106 20.6754 79.415 20.6879 79.4199 20.7002C79.4229 20.7079 79.4258 20.7155 79.4292 20.723C79.4453 20.7629 79.4609 20.8029 79.4766 20.8428C79.4844 20.8628 79.4927 20.8827 79.5015 20.9022C79.5083 20.9225 79.5151 20.9427 79.5229 20.9629C79.5381 21.0029 79.5527 21.0431 79.5674 21.0834C79.5747 21.1035 79.5825 21.1235 79.5908 21.1432C79.5967 21.1636 79.6035 21.1838 79.6104 21.2042C79.6245 21.2445 79.6387 21.2849 79.6519 21.3254C79.6587 21.3458 79.666 21.3658 79.6738 21.3857C79.6792 21.4062 79.6855 21.4268 79.6924 21.4473C79.7051 21.4879 79.7183 21.5286 79.731 21.5695C79.7368 21.59 79.7437 21.6102 79.751 21.6301C79.7529 21.639 79.7554 21.6479 79.7578 21.6569C79.7598 21.6637 79.7617 21.6705 79.7637 21.6775L79.7676 21.692C79.7798 21.7329 79.7915 21.7738 79.8032 21.8149C79.8091 21.8356 79.8154 21.856 79.8218 21.8761C79.8267 21.8969 79.8315 21.9175 79.8369 21.9382C79.8481 21.9794 79.8589 22.0205 79.8696 22.0618C79.8721 22.072 79.8745 22.0822 79.8774 22.0923C79.8804 22.1027 79.8833 22.113 79.8867 22.1233L79.8892 22.137L79.8916 22.1486C79.8945 22.161 79.8975 22.1733 79.9004 22.1857C79.9102 22.2271 79.9199 22.2686 79.9292 22.3101C79.9341 22.3308 79.9395 22.3516 79.9448 22.3719C79.9482 22.3928 79.9526 22.4137 79.957 22.4347ZM67.5718 19.5773C66.0933 19.3372 64.4365 19.1835 62.5811 19.1427C53.7988 19.3357 49.4766 22.0575 47.3276 24.5101C46.1943 25.8041 45.606 27.0883 45.3008 28.0347C45.1484 28.5083 45.0669 28.8956 45.0249 29.1538C45.0034 29.2827 44.9922 29.3788 44.9863 29.4365L44.9849 29.4525L44.9834 29.4668L44.9829 29.4717C44.9844 30.3331 45.0225 31.1549 45.0962 31.9395L46.356 30.8544C47.0029 29.92 47.77 29.2566 48.6548 28.827C49.5376 28.3986 50.4546 28.2428 51.3345 28.2018C52.1997 28.1615 53.103 28.2308 53.9507 28.2988L54.083 28.3094C54.9121 28.3761 55.7197 28.441 56.5596 28.441C58.6924 28.441 61.5122 27.4547 63.8052 25.7496C66.1079 24.0375 67.5718 21.8422 67.5718 19.59L67.5718 19.5773ZM80.0239 28.6058C79.9814 28.4346 79.9282 28.2429 79.8613 28.0347C79.5562 27.0883 78.9678 25.8041 77.834 24.5101C76.48 22.9646 74.2632 21.3123 70.6108 20.2531C70.8555 22.3708 72.3105 24.429 74.541 26.0674C76.1885 27.2781 78.1353 28.1613 80.0239 28.6058ZM80.0254 31.6115C77.4941 31.1284 74.9229 29.996 72.8003 28.4365C71.3198 27.349 69.9839 25.9954 69.042 24.4355C68.1392 25.8708 66.9014 27.1108 65.5596 28.1086C62.8662 30.1116 59.4453 31.3809 56.5596 31.3809C55.5972 31.3809 54.6812 31.307 53.8726 31.2418L53.7158 31.2292C52.8418 31.1592 52.1216 31.1082 51.4712 31.1384C50.8359 31.1681 50.3462 31.2739 49.939 31.4717C49.5459 31.6624 49.1494 31.9774 48.7563 32.5515C48.644 32.7163 48.4995 32.8881 48.3188 33.0436L45.6826 35.3143C46.2163 37.3319 47.0444 39.0507 48.1265 40.5353L77.0308 37.8558C77.417 37.8201 77.7891 37.8757 78.127 38.0042C78.9819 36.1068 79.7178 33.8771 80.0254 31.6115ZM50.1328 35.6605C51.4507 34.6449 52.3037 34.3188 53.0181 34.3207C52.2002 34.3357 51.5415 34.9879 51.5415 35.7904C51.5415 36.6022 52.2158 37.2603 53.0469 37.2603C53.8784 37.2603 54.5522 36.6022 54.5522 35.7904C54.5522 35.0336 53.9668 34.4104 53.2139 34.3293C53.9336 34.3909 54.7505 34.7844 55.9849 35.6781C56.4233 35.9955 57.0361 35.8973 57.3535 35.4589C57.6709 35.0205 57.5728 34.4078 57.1343 34.0905C55.7822 33.1118 54.5269 32.4045 53.1416 32.3628C51.731 32.3203 50.4141 32.9694 48.9365 34.108C48.5078 34.4385 48.4277 35.0537 48.7583 35.4824C49.0889 35.9111 49.7041 35.9908 50.1328 35.6605ZM69.2007 35.6605C70.5186 34.6449 71.3721 34.3188 72.0864 34.3207C71.2686 34.3357 70.6099 34.9879 70.6099 35.7904C70.6099 36.6022 71.2837 37.2603 72.1152 37.2603C72.9468 37.2603 73.6206 36.6022 73.6206 35.7904C73.6206 35.0337 73.0352 34.4105 72.2822 34.3293C73.002 34.391 73.8184 34.7845 75.0532 35.6781C75.4917 35.9955 76.104 35.8973 76.4214 35.4589C76.7388 35.0205 76.6406 34.4078 76.2021 34.0905C74.8501 33.1118 73.5947 32.4045 72.2095 32.3628C70.7993 32.3203 69.4824 32.9694 68.0044 34.108C67.5757 34.4385 67.4961 35.0537 67.8267 35.4824C68.1567 35.9111 68.772 35.9908 69.2007 35.6605ZM47.9937 43.5L76.7671 40.8328L76.7671 41.6604L47.9937 45.5725L47.9937 43.5ZM56.7139 47.3538L76.7671 44.6273L76.7671 47.3538L56.7139 47.3538ZM76.7671 51.1332L76.7671 50.2936L47.9937 50.2936L47.9937 51.2429L57.9282 53.2173L76.7671 51.1332ZM63.9214 55.5121L58.1763 56.1476C57.9272 56.1752 57.6753 56.1643 57.4292 56.1155L48.1523 54.2717C40.041 58.5845 33.9438 67.0317 33.9438 76.4579C33.9438 81.33 34.7905 84.7035 35.6025 86.8213C36.0093 87.882 36.4092 88.6332 36.6948 89.1045C36.8374 89.3403 36.9521 89.5066 37.0249 89.6067C37.061 89.6567 37.0869 89.6903 37.1011 89.7079L37.1064 89.715L37.1104 89.7198L37.1108 89.7205L37.1123 89.7223L37.1865 89.8087L42.3433 98.5066L45.0542 98.5066L45.0542 98.2289C43.7119 95.6078 43.0469 92.6904 43.0469 89.7852L43.0469 86.2573C43.0469 85.4456 43.7051 84.7875 44.5166 84.7875C45.3286 84.7875 45.9868 85.4456 45.9868 86.2573L45.9868 89.7852C45.9868 92.8802 46.8779 95.9562 48.6362 98.5066L78.5332 98.5066C80.292 95.9562 81.1826 92.8802 81.1826 89.7852L81.1826 86.2573C81.1826 85.4456 81.8408 84.7875 82.6528 84.7875C83.4644 84.7875 84.1226 85.4456 84.1226 86.2573L84.1226 89.7852C84.1226 92.6906 83.4575 95.6079 82.1152 98.2291L82.1152 98.5066L84.8262 98.5066L89.9829 89.8087L90.0571 89.7222L90.0586 89.7205L90.0591 89.7198C90.0605 89.7175 90.064 89.7135 90.0684 89.7079C90.0767 89.6971 90.0898 89.6807 90.1069 89.6581C90.1177 89.6434 90.1304 89.6263 90.1445 89.6067C90.2173 89.5066 90.332 89.3403 90.4746 89.1045C90.7603 88.6332 91.1602 87.882 91.5669 86.8213C92.3789 84.7035 93.2256 81.33 93.2256 76.4579C93.2256 67.3801 87.5708 59.2102 79.9077 54.7667L79.9077 82.3375C79.9077 83.1493 79.2495 83.8075 78.438 83.8075C77.626 83.8075 76.9678 83.1493 76.9678 82.3375L76.9678 54.0687L66.8608 55.1868L66.8608 82.3374C66.8608 83.1493 66.2031 83.8074 65.3911 83.8074C64.5791 83.8074 63.9214 83.1493 63.9214 82.3374L63.9214 55.5121ZM69.7065 74.6938C70.5186 74.6938 71.1768 75.3519 71.1768 76.1637L71.1768 82.0433C71.1768 82.8551 70.5186 83.5132 69.7065 83.5132C68.895 83.5132 68.2368 82.8551 68.2368 82.0433L68.2368 76.1637C68.2368 75.3519 68.895 74.6938 69.7065 74.6938ZM74.2227 74.6938C75.0342 74.6938 75.6924 75.3519 75.6924 76.1637L75.6924 82.0433C75.6924 82.8551 75.0342 83.5132 74.2227 83.5132C73.4106 83.5132 72.7524 82.8551 72.7524 82.0433L72.7524 76.1637C72.7524 75.3519 73.4106 74.6938 74.2227 74.6938ZM42.9883 101.704C42.9907 101.615 42.9937 101.529 42.9971 101.446L45.0542 101.446L45.0542 107.326L43.9346 107.326C43.6045 106.383 43.1729 105.007 43.0479 103.996C42.9692 103.359 42.9653 102.477 42.9883 101.704ZM47.9937 107.816L47.9937 101.446L79.1758 101.446L79.1758 129.865L47.9937 129.865L47.9937 107.834L47.9937 107.816ZM82.1152 107.326L82.1152 101.446L84.1724 101.446C84.1758 101.529 84.1787 101.615 84.1812 101.704C84.2041 102.477 84.2007 103.359 84.1216 103.996C83.9971 105.007 83.5649 106.383 83.2349 107.326L82.1152 107.326ZM60.1074 132.804L57.0259 132.804L57.0259 136.724L60.1074 136.724L60.1074 132.804ZM67.0615 136.724L70.1436 136.724L70.1436 132.804L67.0615 132.804L67.0615 136.724ZM56.1074 139.664L56.1074 143.114C56.1074 143.966 55.665 144.756 54.9395 145.202L47.6968 149.65L46.103 150.443L52.0195 150.443L55.5513 148.527C57.1128 147.681 58.9976 148.725 59.1582 150.443L60.1074 150.443L60.1074 139.664L56.1074 139.664ZM71.062 143.114L71.062 139.664L67.0615 139.664L67.0615 150.443L68.0112 150.443C68.1719 148.725 70.0566 147.681 71.6182 148.527L75.1499 150.443L81.0664 150.443L79.4727 149.65L72.2295 145.202C71.5039 144.756 71.062 143.966 71.062 143.114Z" fill-rule="evenodd" fill="#080A0D"/>
	<path id="Throat infection" d="M0.672 173.475L0.672 172.643C0.672 172.531 0.72 172.467 0.864 172.467L9.472 172.467C9.6 172.467 9.664 172.531 9.664 172.643L9.664 173.475C9.664 173.603 9.6 173.635 9.472 173.635L6.224 173.635C6.096 173.635 6.048 173.667 6.048 173.795L6.048 184.131C6.048 184.291 5.984 184.339 5.856 184.339L4.704 184.339C4.576 184.339 4.512 184.291 4.512 184.131L4.512 173.811C4.512 173.667 4.48 173.635 4.352 173.635L0.864 173.635C0.736 173.635 0.672 173.603 0.672 173.475ZM11.7685 184.339C11.6245 184.339 11.5605 184.275 11.5605 184.131L11.5605 172.675C11.5605 172.547 11.6085 172.467 11.7365 172.467L12.6805 172.467C12.7925 172.467 12.8565 172.531 12.8565 172.659L12.8565 176.931C12.8565 177.043 12.8885 177.075 13.0005 176.979C14.1365 176.115 14.8725 175.699 15.9605 175.699C17.6245 175.699 18.5205 176.659 18.5205 178.131L18.5205 184.083C18.5205 184.259 18.4405 184.339 18.2805 184.339L17.3845 184.339C17.2405 184.339 17.1765 184.275 17.1765 184.131L17.1765 178.419C17.1765 177.379 16.6645 176.755 15.5125 176.755C14.5525 176.755 13.9125 177.187 12.9045 178.051L12.9045 184.099C12.9045 184.275 12.8245 184.339 12.6485 184.339L11.7685 184.339ZM21.1122 184.339C20.9522 184.339 20.8883 184.275 20.8883 184.131L20.8883 176.067C20.8883 175.923 20.9522 175.859 21.0643 175.859L21.9923 175.859C22.1203 175.859 22.1683 175.923 22.1683 176.035L22.1683 177.075C22.1683 177.203 22.2482 177.235 22.3442 177.123C23.1763 176.147 23.9923 175.699 24.8242 175.699C25.2083 175.699 25.3843 175.763 25.3843 175.907L25.3843 176.867C25.3843 176.963 25.3363 177.011 25.2402 176.995C25.0483 176.963 24.7922 176.947 24.5203 176.947C23.5763 176.947 22.2323 177.875 22.2323 178.803L22.2323 184.099C22.2323 184.275 22.1523 184.339 21.9923 184.339L21.1122 184.339ZM30.3621 184.499C27.9301 184.499 26.3141 182.707 26.3141 180.147C26.3141 177.523 27.9941 175.699 30.3781 175.699C32.7941 175.699 34.4101 177.539 34.4101 180.131C34.4101 182.691 32.7781 184.499 30.3621 184.499ZM30.3941 183.491C32.0581 183.491 33.0341 182.211 33.0341 180.099C33.0341 178.003 32.0261 176.691 30.3781 176.691C28.7141 176.691 27.6901 178.003 27.6901 180.099C27.6901 182.195 28.7141 183.491 30.3941 183.491ZM41.2682 183.315C40.4683 184.083 39.5563 184.499 38.4202 184.499C36.7723 184.499 35.7482 183.587 35.7482 182.179C35.7482 180.483 37.2363 179.475 39.9723 179.299L41.2202 179.203C41.3643 179.187 41.4762 179.123 41.4762 178.963L41.4762 178.531C41.4762 177.379 40.7083 176.659 39.4922 176.659C38.5643 176.659 37.7962 177.075 37.2043 177.939C37.1242 178.051 37.0923 178.083 36.9642 178.035L36.1003 177.747C36.0202 177.715 35.9883 177.651 36.0682 177.491C36.6922 176.387 37.8763 175.699 39.5563 175.699C41.6683 175.699 42.7723 176.755 42.7723 178.435L42.7723 184.099C42.7723 184.291 42.7083 184.339 42.5643 184.339L41.7482 184.339C41.6043 184.339 41.5402 184.243 41.5243 184.083L41.5083 183.347C41.4762 183.203 41.3963 183.187 41.2682 183.315ZM41.4762 180.275C41.4762 180.083 41.4123 180.019 41.2523 180.019L40.1963 180.115C38.2282 180.243 37.0923 180.883 37.0923 182.019C37.0923 182.947 37.7962 183.507 38.9002 183.507C39.5723 183.507 40.2282 183.235 40.7083 182.851C41.1883 182.467 41.4762 182.019 41.4762 181.603L41.4762 180.275ZM49.2228 176.851L47.1908 176.851C47.1107 176.851 47.0628 176.899 47.0628 176.995L47.0628 182.067C47.0628 183.075 47.3988 183.331 48.0868 183.331L49.1908 183.331C49.3027 183.331 49.3667 183.395 49.3667 183.507L49.3507 184.051C49.3507 184.179 49.2868 184.227 49.1587 184.259C48.8228 184.323 48.0228 184.339 47.6548 184.339C46.3107 184.339 45.7188 183.731 45.7188 182.371L45.7188 177.027C45.7188 176.915 45.6707 176.851 45.5588 176.851L44.2788 176.851C44.1507 176.851 44.1027 176.803 44.1027 176.691L44.1027 176.019C44.1027 175.907 44.1507 175.859 44.2627 175.859L45.6227 175.859C45.6867 175.859 45.7347 175.811 45.7347 175.731L45.9108 173.187C45.9108 173.043 45.9588 172.979 46.0868 172.979L46.8867 172.979C47.0148 172.979 47.0788 173.043 47.0788 173.203L47.0788 175.731C47.0788 175.811 47.1268 175.859 47.2067 175.859L49.2228 175.859C49.3348 175.859 49.3988 175.907 49.3988 176.003L49.3988 176.691C49.3988 176.803 49.3507 176.851 49.2228 176.851ZM55.9837 172.707L55.9837 174.035C55.9837 174.227 55.9198 174.339 55.6958 174.339L54.7677 174.339C54.5757 174.339 54.5277 174.227 54.5277 174.067L54.5277 172.723C54.5277 172.563 54.6077 172.467 54.7518 172.467L55.7598 172.467C55.8877 172.467 55.9837 172.563 55.9837 172.707ZM55.9198 176.067L55.9198 184.067C55.9198 184.275 55.8558 184.339 55.6318 184.339L54.8158 184.339C54.6237 184.339 54.5757 184.275 54.5757 184.115L54.5757 176.083C54.5757 175.923 54.6398 175.859 54.7677 175.859L55.7438 175.859C55.8717 175.859 55.9198 175.923 55.9198 176.067ZM58.6279 184.339C58.4679 184.339 58.4039 184.275 58.4039 184.131L58.4039 176.067C58.4039 175.939 58.4679 175.859 58.5799 175.859L59.5399 175.859C59.6519 175.859 59.7159 175.923 59.7159 176.035L59.7159 176.963C59.7159 177.075 59.7479 177.107 59.8599 177.011C60.9319 176.179 61.6839 175.699 62.8039 175.699C64.4519 175.699 65.3799 176.675 65.3799 178.115L65.3799 184.083C65.3799 184.259 65.2999 184.339 65.1399 184.339L64.2439 184.339C64.0999 184.339 64.0359 184.275 64.0359 184.131L64.0359 178.419C64.0359 177.379 63.5239 176.755 62.3719 176.755C61.4119 176.755 60.7559 177.187 59.7479 178.051L59.7479 184.099C59.7479 184.275 59.6839 184.339 59.5079 184.339L58.6279 184.339ZM71.8325 175.859C71.9285 175.859 71.9925 175.923 71.9925 176.019L71.9925 176.707C71.9925 176.819 71.9285 176.851 71.8325 176.851L70.0085 176.851C69.9285 176.851 69.8805 176.899 69.8805 176.995L69.8805 184.115C69.8805 184.275 69.8165 184.339 69.6885 184.339L68.7125 184.339C68.5845 184.339 68.5365 184.275 68.5365 184.131L68.5365 176.979C68.5365 176.899 68.5045 176.851 68.4245 176.851L66.8565 176.851C66.7445 176.851 66.6965 176.819 66.6965 176.707L66.6965 176.019C66.6965 175.923 66.7445 175.859 66.8725 175.859L68.3925 175.859C68.5045 175.859 68.5365 175.811 68.5365 175.699L68.5365 174.531C68.5365 173.187 69.1925 172.467 70.5365 172.467L71.8645 172.467C72.0085 172.467 72.0725 172.531 72.0725 172.659L72.0725 173.283C72.0725 173.379 72.0085 173.443 71.8965 173.443L70.7765 173.443C70.1045 173.443 69.8485 173.875 69.8485 174.595L69.8485 175.715C69.8485 175.827 69.8965 175.859 69.9925 175.859L71.8325 175.859ZM74.1905 180.627C74.1905 182.195 75.4225 183.475 76.9905 183.475C78.0625 183.475 78.8785 183.043 79.4865 182.147C79.5665 182.067 79.6145 182.051 79.7105 182.099L80.3825 182.435C80.4625 182.483 80.4785 182.563 80.4145 182.659C79.5665 183.955 78.4465 184.499 76.8625 184.499C74.4945 184.499 72.7985 182.739 72.7985 180.179C72.7985 177.411 74.5585 175.699 76.8465 175.699C79.1665 175.699 80.7025 177.299 80.7025 180.035C80.7025 180.211 80.7185 180.387 80.4625 180.387L74.3345 180.387C74.2385 180.387 74.1905 180.483 74.1905 180.627ZM74.2225 179.507L79.0865 179.507C79.3105 179.507 79.3585 179.475 79.3585 179.283C79.3585 177.907 78.4465 176.659 76.8785 176.659C75.1665 176.659 74.2065 178.083 74.2225 179.507ZM86.1114 175.699C87.7594 175.699 88.8154 176.579 89.4234 177.683C89.4874 177.827 89.4554 177.891 89.3434 177.923L88.4634 178.131C88.3834 178.163 88.3194 178.131 88.2554 178.019C87.5994 177.139 87.0394 176.691 86.1914 176.691C84.5434 176.691 83.4714 177.987 83.4714 180.099C83.4714 182.227 84.5594 183.507 86.2234 183.507C87.2474 183.507 87.9674 182.995 88.5754 182.003C88.6394 181.907 88.6874 181.891 88.7834 181.939L89.4714 182.195C89.5514 182.227 89.5674 182.291 89.5354 182.403C88.9274 183.539 87.8074 184.499 86.1114 184.499C83.7434 184.499 82.0954 182.739 82.0954 180.131C82.0954 177.523 83.7754 175.699 86.1114 175.699ZM95.3321 176.851L93.3001 176.851C93.2201 176.851 93.1721 176.899 93.1721 176.995L93.1721 182.067C93.1721 183.075 93.5081 183.331 94.1961 183.331L95.3001 183.331C95.4121 183.331 95.4761 183.395 95.4761 183.507L95.4601 184.051C95.4601 184.179 95.3961 184.227 95.2681 184.259C94.9321 184.323 94.1321 184.339 93.7641 184.339C92.4201 184.339 91.8281 183.731 91.8281 182.371L91.8281 177.027C91.8281 176.915 91.7801 176.851 91.6681 176.851L90.3881 176.851C90.2601 176.851 90.2121 176.803 90.2121 176.691L90.2121 176.019C90.2121 175.907 90.2601 175.859 90.3721 175.859L91.7321 175.859C91.7961 175.859 91.8441 175.811 91.8441 175.731L92.0201 173.187C92.0201 173.043 92.0681 172.979 92.1961 172.979L92.9961 172.979C93.1241 172.979 93.1881 173.043 93.1881 173.203L93.1881 175.731C93.1881 175.811 93.2361 175.859 93.3161 175.859L95.3321 175.859C95.4441 175.859 95.5081 175.907 95.5081 176.003L95.5081 176.691C95.5081 176.803 95.4601 176.851 95.3321 176.851ZM98.6556 172.707L98.6556 174.035C98.6556 174.227 98.5916 174.339 98.3676 174.339L97.4396 174.339C97.2476 174.339 97.1996 174.227 97.1996 174.067L97.1996 172.723C97.1996 172.563 97.2796 172.467 97.4236 172.467L98.4316 172.467C98.5596 172.467 98.6556 172.563 98.6556 172.707ZM98.5916 176.067L98.5916 184.067C98.5916 184.275 98.5276 184.339 98.3036 184.339L97.4876 184.339C97.2956 184.339 97.2476 184.275 97.2476 184.115L97.2476 176.083C97.2476 175.923 97.3116 175.859 97.4396 175.859L98.4156 175.859C98.5436 175.859 98.5916 175.923 98.5916 176.067ZM104.628 184.499C102.196 184.499 100.58 182.707 100.58 180.147C100.58 177.523 102.26 175.699 104.644 175.699C107.06 175.699 108.676 177.539 108.676 180.131C108.676 182.691 107.044 184.499 104.628 184.499ZM104.66 183.491C106.324 183.491 107.3 182.211 107.3 180.099C107.3 178.003 106.292 176.691 104.644 176.691C102.98 176.691 101.956 178.003 101.956 180.099C101.956 182.195 102.98 183.491 104.66 183.491ZM110.878 184.339C110.718 184.339 110.654 184.275 110.654 184.131L110.654 176.067C110.654 175.939 110.718 175.859 110.83 175.859L111.79 175.859C111.902 175.859 111.966 175.923 111.966 176.035L111.966 176.963C111.966 177.075 111.998 177.107 112.11 177.011C113.182 176.179 113.934 175.699 115.054 175.699C116.702 175.699 117.63 176.675 117.63 178.115L117.63 184.083C117.63 184.259 117.55 184.339 117.39 184.339L116.494 184.339C116.35 184.339 116.286 184.275 116.286 184.131L116.286 178.419C116.286 177.379 115.774 176.755 114.622 176.755C113.662 176.755 113.006 177.187 111.998 178.051L111.998 184.099C111.998 184.275 111.934 184.339 111.758 184.339L110.878 184.339Z" fill-rule="evenodd" fill="#080A0D"/>
</svg>
