<svg width="106.000000" height="188.281738" viewBox="0 0 106 188.282" fill="none" xmlns="http://www.w3.org/2000/svg" xmlns:xlink="http://www.w3.org/1999/xlink">
	<desc>
			Created with Pixso.
	</desc>
	<defs/>
	<path id="Sun on screen" d="M56.2778 11.999C56.6123 5.48767 61.1406 0 67.6123 0C74.0952 0 78.6284 5.5072 78.9482 12.0338C78.9624 12.0428 78.9761 12.0521 78.9897 12.0616Q79.0527 12.1052 79.1147 12.1492C79.1357 12.1641 79.1562 12.1793 79.1763 12.1949C79.1973 12.2086 79.2188 12.223 79.2393 12.2379C79.2808 12.2677 79.3223 12.2976 79.3633 12.3276C79.3838 12.3428 79.4043 12.3584 79.4238 12.3744C79.4448 12.3883 79.4658 12.403 79.4863 12.4183C79.5273 12.4486 79.5679 12.4791 79.6084 12.5099C79.6289 12.5253 79.6489 12.5411 79.6685 12.5575C79.6895 12.5718 79.71 12.5867 79.73 12.6023C79.7705 12.6333 79.811 12.6644 79.8511 12.6957C79.8711 12.7114 79.8906 12.7277 79.9102 12.7443C79.9307 12.7589 79.9512 12.7743 79.9712 12.7902C80.0112 12.8219 80.0508 12.8536 80.0908 12.8856C80.1108 12.9017 80.1304 12.9182 80.1489 12.9352C80.1694 12.9502 80.1895 12.9658 80.2095 12.9821C80.249 13.0143 80.2881 13.0468 80.3276 13.0793C80.3472 13.0957 80.3662 13.1125 80.3848 13.1296C80.4053 13.145 80.4248 13.1609 80.4443 13.1775C80.4834 13.2103 80.522 13.2433 80.5605 13.2765C80.5801 13.2932 80.5991 13.3103 80.6177 13.3279C80.6377 13.3435 80.6572 13.3597 80.6763 13.3766C80.7148 13.4102 80.7534 13.4438 80.7915 13.4777C80.8105 13.4948 80.8291 13.5121 80.8472 13.5299C80.8672 13.5459 80.8862 13.5625 80.9053 13.5796C80.9434 13.6138 80.981 13.6481 81.0186 13.6825C81.0376 13.6997 81.0562 13.7174 81.0737 13.7356C81.083 13.7432 81.0918 13.751 81.1011 13.7588C81.1045 13.7621 81.1084 13.7654 81.1118 13.7687C81.1182 13.7744 81.125 13.7803 81.1309 13.7861C81.1685 13.8208 81.2056 13.8556 81.2427 13.8906C81.2612 13.9083 81.2793 13.9263 81.2969 13.9447C81.3159 13.9613 81.335 13.9784 81.3535 13.9962C81.3901 14.0316 81.4268 14.067 81.4634 14.1027C81.4819 14.1206 81.4995 14.1389 81.5166 14.1576C81.5356 14.1744 81.5542 14.192 81.5728 14.2101C81.6089 14.246 81.645 14.282 81.6807 14.3182C81.6987 14.3364 81.7163 14.355 81.7334 14.3739C81.752 14.3911 81.77 14.4088 81.7881 14.4272C81.8237 14.4636 81.8594 14.5002 81.8945 14.537C81.9126 14.5555 81.9297 14.5745 81.9463 14.5936C81.9648 14.6112 81.9829 14.6293 82.0005 14.6479C82.0356 14.6851 82.0703 14.7223 82.105 14.7596C82.1226 14.7784 82.1396 14.7976 82.1558 14.817C82.1738 14.8348 82.1919 14.8531 82.209 14.8722C82.2437 14.9098 82.2778 14.9475 82.312 14.9855C82.3291 15.0045 82.3457 15.0239 82.3618 15.0437C82.3794 15.0618 82.397 15.0803 82.4141 15.0996C82.4478 15.1378 82.4814 15.1761 82.5151 15.2145C82.5322 15.2339 82.5483 15.2537 82.564 15.2737C82.5815 15.292 82.5986 15.3109 82.6152 15.3304C82.6489 15.3693 82.6816 15.4082 82.7148 15.4471C82.7314 15.4668 82.7476 15.4868 82.7627 15.5071C82.7798 15.5258 82.7969 15.5449 82.813 15.5647C82.8457 15.604 82.8784 15.6434 82.9106 15.683C82.9268 15.7029 82.9424 15.7231 82.9575 15.7437C82.9741 15.7626 82.9907 15.782 83.0068 15.8021C83.0391 15.8419 83.0708 15.8818 83.1025 15.9219C83.1182 15.9421 83.1338 15.9626 83.1484 15.9834C83.165 16.0026 83.1812 16.0223 83.1968 16.0427C83.2285 16.083 83.2598 16.1235 83.2905 16.1642C83.3062 16.1847 83.3213 16.2054 83.3354 16.2264C83.3516 16.2458 83.3677 16.2659 83.3833 16.2865C83.4136 16.3274 83.4443 16.3684 83.4746 16.4095C83.4897 16.4302 83.5044 16.4512 83.5186 16.4724C83.5347 16.4922 83.5503 16.5125 83.5649 16.5333C83.5952 16.5747 83.625 16.6162 83.6548 16.6578C83.6694 16.6788 83.6841 16.7001 83.6978 16.7214C83.7134 16.7416 83.7285 16.7621 83.7432 16.7832C83.7725 16.8251 83.8018 16.8671 83.8306 16.9093C83.8452 16.9304 83.8594 16.9519 83.8726 16.9736C83.8877 16.9939 83.9028 17.0148 83.917 17.0361C83.9292 17.0541 83.9414 17.072 83.9536 17.09C83.9697 17.1145 83.9863 17.139 84.0024 17.1636C84.0166 17.1851 84.0303 17.2068 84.0435 17.2286C84.0581 17.2493 84.0728 17.2703 84.0869 17.2919C84.1147 17.3347 84.1426 17.3777 84.1699 17.4208C84.1841 17.4425 84.1973 17.4645 84.21 17.4866C84.2246 17.5073 84.2388 17.5287 84.2524 17.5505C84.2798 17.5939 84.3066 17.6373 84.3335 17.6809C84.3472 17.7028 84.3599 17.725 84.3721 17.7473C84.3862 17.7683 84.4004 17.7899 84.4136 17.812C84.4399 17.8558 84.4663 17.8997 84.4927 17.9437C84.4956 17.9492 84.499 17.9548 84.5024 17.9603C84.5117 17.9771 84.521 17.9939 84.5298 18.0109C84.5439 18.0321 84.5576 18.054 84.5703 18.0762C84.5962 18.1205 84.6216 18.1648 84.647 18.2092C84.6602 18.2317 84.6719 18.2543 84.6836 18.277C84.6973 18.2986 84.71 18.3206 84.7227 18.343C84.7476 18.3877 84.7725 18.4325 84.7974 18.4774C84.8096 18.5 84.8213 18.5228 84.8325 18.5458C84.8457 18.5676 84.8584 18.5898 84.8706 18.6125C84.895 18.6576 84.9189 18.7029 84.9429 18.7483C84.9551 18.7711 84.9663 18.7941 84.9771 18.8173C84.9897 18.8392 85.002 18.8617 85.0142 18.8846C85.0376 18.9302 85.061 18.9758 85.084 19.0216C85.0957 19.0446 85.1064 19.0677 85.1167 19.0911C85.1294 19.1133 85.1411 19.136 85.1528 19.1591C85.1753 19.205 85.1978 19.251 85.2202 19.2972C85.2314 19.3204 85.2422 19.3438 85.252 19.3673C85.2642 19.3898 85.2759 19.4126 85.2866 19.4359C85.3086 19.4823 85.3306 19.5287 85.3521 19.5753C85.3628 19.5988 85.373 19.6223 85.3823 19.646C85.394 19.6687 85.4053 19.6918 85.416 19.7153C85.437 19.762 85.458 19.8088 85.479 19.8557C85.4893 19.8793 85.499 19.9031 85.5083 19.9269C85.5195 19.9497 85.5303 19.973 85.5405 19.9967C85.561 20.0437 85.5811 20.0909 85.6011 20.1382C85.6108 20.162 85.6201 20.1859 85.6289 20.2098C85.6401 20.2329 85.6504 20.2563 85.6602 20.2803C85.6797 20.3278 85.6992 20.3752 85.7183 20.423C85.728 20.4469 85.7368 20.4711 85.7451 20.4952C85.7554 20.5184 85.7656 20.5421 85.7749 20.5662C85.7939 20.614 85.812 20.6619 85.8306 20.7097C85.8398 20.7339 85.8481 20.7581 85.856 20.7823C85.8662 20.8058 85.876 20.8296 85.8848 20.8538C85.9028 20.9019 85.9204 20.9501 85.938 20.9983C85.9468 21.0226 85.9546 21.047 85.9619 21.0714C85.9717 21.0951 85.981 21.119 85.9897 21.1434C86.0068 21.1919 86.0234 21.2404 86.04 21.2891C86.0483 21.3135 86.0562 21.338 86.063 21.3627C86.0684 21.3755 86.0732 21.3884 86.0776 21.4014C86.0796 21.4059 86.0811 21.4104 86.0825 21.415C86.085 21.4218 86.0874 21.4285 86.0894 21.4352C86.1055 21.4839 86.1216 21.5327 86.1372 21.5815C86.1455 21.6061 86.1523 21.6307 86.1592 21.6554C86.168 21.6793 86.1763 21.7035 86.1841 21.7281C86.1992 21.7772 86.2144 21.8263 86.2295 21.8754C86.2368 21.9001 86.2437 21.9249 86.25 21.9497C86.2583 21.9739 86.2661 21.9983 86.2734 22.0231C86.2783 22.0387 86.2827 22.0543 86.2871 22.0698L86.2959 22.0992C86.3027 22.1233 86.3096 22.1472 86.3164 22.1713C86.3237 22.1962 86.3301 22.2212 86.3354 22.2461C86.3438 22.2704 86.3511 22.295 86.3579 22.3199C86.3716 22.3694 86.3853 22.4189 86.3984 22.4686C86.4048 22.4935 86.4106 22.5186 86.416 22.5435C86.4238 22.5679 86.4307 22.5925 86.437 22.6176C86.4497 22.6672 86.4624 22.717 86.4746 22.767C86.481 22.7921 86.4863 22.8173 86.4912 22.8423C86.4985 22.8668 86.5049 22.8917 86.5112 22.9169C86.5229 22.9669 86.5347 23.017 86.5459 23.0673C86.5518 23.0925 86.5571 23.1177 86.561 23.1429C86.5679 23.1677 86.5742 23.1926 86.5796 23.218C86.5908 23.2681 86.6016 23.3182 86.6123 23.3685C86.6172 23.3938 86.6221 23.4191 86.626 23.4442C86.6323 23.469 86.6382 23.494 86.6431 23.5193C86.6533 23.5697 86.6631 23.62 86.6729 23.6705C86.6777 23.6959 86.6816 23.7213 86.6851 23.7467C86.6909 23.7715 86.6963 23.7968 86.7012 23.8221C86.7104 23.8728 86.7192 23.9235 86.728 23.9742C86.7324 23.9998 86.7363 24.0253 86.7393 24.0508C86.7446 24.0758 86.7495 24.1011 86.7539 24.1267C86.7622 24.1772 86.77 24.2279 86.7778 24.2787C86.7817 24.3042 86.7852 24.3296 86.7876 24.355C86.793 24.38 86.7974 24.4053 86.8008 24.4308C86.8081 24.4816 86.8154 24.5325 86.8223 24.5834C86.8262 24.609 86.8286 24.6346 86.8311 24.66C86.833 24.6715 86.835 24.6829 86.8369 24.6943C86.8389 24.7083 86.8408 24.7223 86.8428 24.7363C86.8491 24.7874 86.8555 24.8385 86.8618 24.8896C86.8647 24.9154 86.8672 24.941 86.8687 24.9667C86.873 24.9919 86.8765 25.0175 86.8794 25.0432C86.8848 25.0942 86.8901 25.1453 86.8955 25.1963C86.8979 25.2219 86.8999 25.2476 86.9014 25.2729C86.9048 25.2982 86.9082 25.3237 86.9102 25.3494C86.915 25.4004 86.9194 25.4515 86.9238 25.5028C86.9258 25.5286 86.9272 25.5542 86.9282 25.5797C86.9292 25.5894 86.9307 25.5989 86.9316 25.6085C86.9331 25.6244 86.9346 25.6404 86.936 25.6565C86.9399 25.7078 86.9434 25.7592 86.9468 25.8105C86.9487 25.8364 86.9497 25.8623 86.9497 25.8879C86.9502 25.8933 86.9512 25.8988 86.9517 25.9042C86.9521 25.913 86.9531 25.9216 86.9541 25.9304C86.9546 25.9419 86.9556 25.9534 86.9561 25.965C86.959 26.0161 86.9619 26.0674 86.9644 26.1187C86.9653 26.142 86.9658 26.1652 86.9658 26.1882L86.9658 26.1956C86.9683 26.2208 86.9702 26.2463 86.9712 26.2721C86.9731 26.3234 86.9751 26.3746 86.9766 26.4259C86.9771 26.4407 86.9771 26.4554 86.9771 26.4701C86.9771 26.4811 86.9771 26.4921 86.9766 26.5029C86.9785 26.5284 86.98 26.5541 86.9805 26.58C86.981 26.5959 86.981 26.6119 86.9814 26.6281Q86.9824 26.6812 86.9834 26.7343C86.9834 26.7406 86.9834 26.7469 86.9834 26.7533C86.9834 26.7728 86.9829 26.7922 86.9819 26.8116C86.9829 26.8252 86.9834 26.8389 86.9839 26.8527Q86.9844 26.8707 86.9844 26.8889L86.9849 26.9183L86.9849 26.9664L86.9849 27.0374C86.9849 27.0503 86.9844 27.0631 86.9844 27.0758C86.9839 27.0811 86.9839 27.0863 86.9839 27.0916C86.9834 27.0972 86.9834 27.1028 86.9829 27.1083C86.9844 27.1318 86.9849 27.1555 86.9849 27.1793L86.9849 27.3212C86.9849 27.345 86.9844 27.3687 86.9829 27.3922C86.9844 27.4156 86.9849 27.4393 86.9849 27.4631L86.9849 27.6051C86.9849 27.6199 86.9844 27.6346 86.9839 27.6493C86.9839 27.6548 86.9839 27.6604 86.9834 27.6659C86.9834 27.6693 86.9829 27.6726 86.9829 27.676C86.9844 27.6996 86.9849 27.7233 86.9849 27.7469L86.9849 27.8889C86.9849 27.9127 86.9844 27.9364 86.9829 27.9598C86.9844 27.9834 86.9849 28.0071 86.9849 28.0309L86.9849 28.1727C86.9849 28.1965 86.9844 28.2202 86.9829 28.2438C86.9844 28.2672 86.9849 28.2909 86.9849 28.3147L86.9849 28.4567C86.9849 28.4673 86.9844 28.478 86.9844 28.4886C86.9839 28.5017 86.9834 28.5146 86.9829 28.5276C86.9844 28.5511 86.9849 28.5748 86.9849 28.5985L86.9849 28.7405C86.9849 28.7488 86.9849 28.757 86.9844 28.7651C86.9844 28.7806 86.9839 28.7961 86.9829 28.8114C86.9844 28.835 86.9849 28.8586 86.9849 28.8824L86.9849 29.0243C86.9849 29.0481 86.9844 29.0718 86.9829 29.0953C86.9844 29.1188 86.9849 29.1425 86.9849 29.1663L86.9849 29.3082C86.9849 29.3163 86.9849 29.3243 86.9844 29.3324C86.9844 29.348 86.9839 29.3636 86.9829 29.3792C86.9834 29.3911 86.9839 29.4031 86.9844 29.4152C86.9844 29.4268 86.9849 29.4385 86.9849 29.4501L86.9849 29.592C86.9849 29.6158 86.9844 29.6395 86.9829 29.663C86.9844 29.6865 86.9849 29.7102 86.9849 29.734L86.9849 29.8759C86.9849 29.8997 86.9844 29.9233 86.9829 29.9469C86.9844 29.9703 86.9849 29.994 86.9849 30.0178L86.9849 30.1598C86.9849 30.1836 86.9844 30.2073 86.9829 30.2307C86.9844 30.2543 86.9849 30.278 86.9849 30.3016L86.9849 30.4436C86.9849 30.4534 86.9849 30.463 86.9844 30.4727C86.9844 30.4867 86.9839 30.5006 86.9829 30.5145C86.9839 30.5316 86.9844 30.5487 86.9844 30.5658L86.9849 30.5747L86.9849 30.5856L86.9849 30.7274C86.9849 30.7512 86.9844 30.7749 86.9829 30.7985C86.9844 30.8219 86.9849 30.8456 86.9849 30.8694L86.9849 31.0114C86.9849 31.0352 86.9844 31.0588 86.9829 31.0823C86.9844 31.1058 86.9849 31.1295 86.9849 31.1532L86.9849 31.2952C86.9849 31.319 86.9844 31.3427 86.9829 31.3661C86.9844 31.3896 86.9849 31.4133 86.9849 31.4371L86.9849 31.579C86.9849 31.6028 86.9844 31.6265 86.9829 31.65C86.9844 31.6735 86.9849 31.6971 86.9849 31.7209L86.9849 31.8629C86.9849 31.8867 86.9844 31.9104 86.9829 31.9338C86.9844 31.9574 86.9849 31.9811 86.9849 32.0048L86.9849 32.1467C86.9849 32.1705 86.9844 32.1942 86.9829 32.2177C86.9844 32.2412 86.9849 32.2649 86.9849 32.2887L86.9849 32.4305C86.9849 32.4543 86.9844 32.478 86.9829 32.5016C86.9844 32.525 86.9849 32.5487 86.9849 32.5725L86.9849 32.6433L87.0088 32.6433C87.0088 38.9004 85.2158 43.5613 81.8887 47.0582C81.4702 47.498 81.0293 47.9171 80.5679 48.317C80.6074 48.4474 80.6284 48.5856 80.6284 48.7289L80.6284 53.4598C80.6284 53.4977 80.627 53.5352 80.624 53.5724C88.2334 57.9879 94.1255 66.0923 94.7637 75.4337C94.8608 75.626 94.9155 75.8433 94.9155 76.0734L94.9155 92.1584C94.9155 93.4648 93.8564 94.5239 92.5503 94.5239L85.8325 94.5239L85.8325 130.334C85.8325 130.582 85.7939 130.822 85.7231 131.046L85.8325 131.046L85.8325 150.916C85.8325 152.223 84.7734 153.281 83.4668 153.281L81.7026 153.281C80.5835 153.281 79.646 152.504 79.4004 151.46L76.6567 152.984C76.3052 153.179 75.9102 153.281 75.5078 153.281L68.3281 153.281C67.5542 153.281 66.8672 152.91 66.4355 152.336C66.0039 152.91 65.3169 153.281 64.5435 153.281L62.7793 153.281C61.6602 153.281 60.7222 152.504 60.4766 151.46L57.7329 152.984C57.3813 153.179 56.9863 153.281 56.5845 153.281L49.4043 153.281C48.0981 153.281 47.0391 152.223 47.0391 150.916L47.0391 150.682C47.0391 149.793 47.5376 148.978 48.3301 148.574L51.0283 147.199L57.5269 143.112L57.5269 139.562C57.5269 138.825 57.8643 138.166 58.3931 137.732L58.3931 132.699L53.189 132.699C51.8828 132.699 50.8237 131.64 50.8237 130.334L50.8237 86.1707C50.8237 85.3868 51.459 84.7515 52.2432 84.7515C53.0269 84.7515 53.6621 85.3868 53.6621 86.1707L53.6621 129.861L82.9937 129.861L82.9937 94.5239L72.5737 94.5239C71.9844 94.5239 71.4165 94.3038 70.9805 93.907L67.3027 90.5558C66.8105 90.1075 66.5303 89.4728 66.5303 88.8073L66.5303 86.2921C66.5303 84.9857 67.5894 83.9266 68.896 83.9266L70.9126 83.9266C71.2104 83.0944 72.0176 82.4514 73.0464 82.5464C75.6357 82.7854 78.2476 84.1086 79.9829 86.1028L87.0625 86.1028C87.8462 86.1028 88.4819 86.7383 88.4819 87.5221C88.4819 88.3059 87.8462 88.9414 87.0625 88.9414L79.7808 88.9414C79.0161 88.9414 78.353 88.5746 77.9209 88.0591C76.8198 86.7454 75.1484 85.7949 73.4575 85.469C73.1333 86.231 72.3779 86.7651 71.4976 86.7651L69.3687 86.7651L69.3687 88.5984L72.7568 91.6853L92.0771 91.6853L92.0771 77.625C92.0161 77.4666 91.9824 77.2944 91.9824 77.1144C91.9824 68.6919 87.0703 61.0931 80.3062 56.7068C79.7173 58.7953 78.3657 60.6606 76.6216 62.0918C74.248 64.0393 71.0356 65.2871 67.623 65.2871C61.7935 65.2871 56.6587 61.5696 55.3843 56.7307C52.0918 58.8297 49.3535 61.6844 47.4111 65.0504C47.019 65.7292 46.1514 65.962 45.4722 65.5702C45.0166 65.3074 44.7622 64.8302 44.7622 64.3396C44.7622 64.0989 44.8232 63.855 44.9526 63.6316C47.3628 59.4551 50.8652 55.9878 55.0884 53.5979C55.084 53.5525 55.0815 53.5063 55.0815 53.4598L55.0815 48.7289C55.0815 48.6863 55.0835 48.6442 55.0869 48.6025C54.4941 48.1217 53.9341 47.6123 53.4087 47.0715C50.0591 43.6213 48.2676 39.0367 48.2168 32.9117C48.2002 32.825 48.1914 32.7352 48.1914 32.6434L48.1914 32.5725C48.1914 32.5487 48.1919 32.525 48.1929 32.5016C48.1919 32.478 48.1914 32.4543 48.1914 32.4305L48.1914 32.2887C48.1914 32.2649 48.1919 32.2412 48.1929 32.2177C48.1919 32.1942 48.1914 32.1705 48.1914 32.1467L48.1914 32.0048C48.1914 31.9811 48.1919 31.9574 48.1929 31.9338C48.1919 31.9104 48.1914 31.8867 48.1914 31.8629L48.1914 31.7209C48.1914 31.6971 48.1919 31.6735 48.1929 31.65C48.1919 31.6265 48.1914 31.6028 48.1914 31.579L48.1914 31.4371C48.1914 31.4133 48.1919 31.3896 48.1929 31.3661C48.1919 31.3427 48.1914 31.319 48.1914 31.2952L48.1914 31.1532C48.1914 31.1295 48.1919 31.1058 48.1929 31.0823C48.1919 31.0588 48.1914 31.0352 48.1914 31.0114L48.1914 30.8694C48.1914 30.8456 48.1919 30.8219 48.1929 30.7985C48.1924 30.7872 48.1919 30.776 48.1919 30.7648C48.1919 30.7594 48.1914 30.754 48.1914 30.7485C48.1914 30.7416 48.1914 30.7345 48.1914 30.7274L48.1914 30.5856C48.1914 30.5618 48.1919 30.5381 48.1929 30.5145C48.1919 30.4911 48.1914 30.4674 48.1914 30.4436L48.1914 30.3016C48.1914 30.278 48.1919 30.2543 48.1929 30.2307C48.1919 30.2073 48.1914 30.1836 48.1914 30.1598L48.1914 30.0178C48.1914 29.994 48.1919 29.9703 48.1929 29.9469C48.1919 29.9233 48.1914 29.8997 48.1914 29.8759L48.1914 29.734C48.1914 29.7102 48.1919 29.6865 48.1929 29.663C48.1919 29.6395 48.1914 29.6158 48.1914 29.592L48.1914 29.4501C48.1914 29.4264 48.1919 29.4027 48.1929 29.3792C48.1919 29.3557 48.1914 29.332 48.1914 29.3082L48.1914 29.1663C48.1914 29.1425 48.1919 29.1188 48.1929 29.0953C48.1919 29.0718 48.1914 29.0481 48.1914 29.0243L48.1914 28.8824C48.1914 28.8586 48.1919 28.835 48.1929 28.8114C48.1919 28.788 48.1914 28.7643 48.1914 28.7405L48.1914 28.5985C48.1914 28.5748 48.1919 28.5511 48.1929 28.5276C48.1919 28.5042 48.1914 28.4805 48.1914 28.4567L48.1914 28.3147C48.1914 28.2909 48.1919 28.2672 48.1929 28.2438Q48.1929 28.2344 48.1924 28.225C48.1919 28.2076 48.1914 28.1902 48.1914 28.1727L48.1914 28.0309C48.1914 28.0071 48.1919 27.9834 48.1929 27.9598C48.1919 27.9364 48.1914 27.9127 48.1914 27.8889L48.1914 27.7469C48.1914 27.7233 48.1919 27.6996 48.1929 27.676C48.1919 27.6526 48.1914 27.6289 48.1914 27.6051L48.1914 27.4631C48.1914 27.4393 48.1919 27.4156 48.1929 27.3922C48.1919 27.3687 48.1914 27.345 48.1914 27.3212L48.1914 27.1793C48.1914 27.1555 48.1919 27.1318 48.1929 27.1083C48.1919 27.0848 48.1914 27.0612 48.1914 27.0374L48.1914 26.9664C48.1914 26.9406 48.1914 26.9148 48.1914 26.889C48.1914 26.863 48.1924 26.8373 48.1938 26.8116C48.1934 26.7924 48.1929 26.7729 48.1929 26.7534Q48.1929 26.7439 48.1929 26.7344C48.1934 26.6829 48.1943 26.6315 48.1958 26.5801C48.1958 26.5697 48.1963 26.5593 48.1968 26.5491C48.1973 26.5337 48.1982 26.5183 48.1992 26.5031C48.1992 26.4922 48.1987 26.4812 48.1987 26.4702C48.1987 26.4556 48.1992 26.4408 48.1997 26.426C48.2012 26.3746 48.2031 26.3234 48.2051 26.2722C48.2061 26.2465 48.2075 26.2209 48.21 26.1956L48.21 26.1881C48.21 26.1652 48.2104 26.142 48.2119 26.1188C48.2134 26.0851 48.2148 26.0515 48.2168 26.0181C48.2178 26.0004 48.2188 25.9827 48.2197 25.9651C48.2212 25.9391 48.2236 25.9135 48.2261 25.8879C48.2266 25.8623 48.2275 25.8365 48.2295 25.8107C48.2324 25.7593 48.2363 25.7079 48.2402 25.6566C48.2422 25.6307 48.2446 25.6052 48.248 25.5798C48.2485 25.5543 48.25 25.5286 48.2524 25.5028C48.2563 25.4517 48.2612 25.4005 48.2656 25.3494C48.2681 25.3237 48.271 25.2982 48.2749 25.2731C48.2759 25.2476 48.2778 25.222 48.2808 25.1964C48.2856 25.1453 48.291 25.0942 48.2969 25.0433C48.2998 25.0176 48.3032 24.9919 48.3071 24.9667C48.3091 24.9412 48.311 24.9154 48.3145 24.8896C48.3203 24.8385 48.3267 24.7874 48.3335 24.7363C48.3364 24.7107 48.3403 24.6853 48.3452 24.6602C48.3472 24.6346 48.3501 24.6091 48.3535 24.5835C48.3604 24.5325 48.3677 24.4817 48.375 24.4309C48.3789 24.4054 48.3833 24.38 48.3882 24.3551C48.3906 24.3297 48.394 24.3042 48.3979 24.2787C48.4058 24.228 48.4141 24.1774 48.4224 24.1267C48.4268 24.1012 48.4312 24.0758 48.437 24.0508C48.4399 24.0254 48.4438 23.9999 48.4482 23.9742C48.457 23.9235 48.4658 23.8728 48.4751 23.8223C48.4795 23.7968 48.4849 23.7716 48.4907 23.7467C48.4946 23.7213 48.4985 23.696 48.5034 23.6705C48.5132 23.6201 48.5229 23.5697 48.5332 23.5194C48.5381 23.494 48.5439 23.469 48.5503 23.4443C48.5542 23.4191 48.5586 23.3938 48.564 23.3685C48.5747 23.3184 48.5854 23.2682 48.5962 23.218C48.6021 23.1927 48.6079 23.1677 48.6147 23.1431C48.6191 23.1178 48.624 23.0925 48.6299 23.0673C48.6416 23.0171 48.6533 22.9669 48.665 22.9169C48.6709 22.8917 48.6777 22.8669 48.6851 22.8424C48.6895 22.8173 48.6953 22.7921 48.7012 22.767C48.7139 22.7172 48.7261 22.6674 48.7388 22.6176C48.7451 22.5925 48.7524 22.5679 48.7603 22.5436C48.7651 22.5186 48.771 22.4935 48.7778 22.4686C48.791 22.4191 48.8042 22.3695 48.8179 22.3201C48.8247 22.295 48.8325 22.2704 48.8403 22.2461C48.8462 22.2212 48.8525 22.1963 48.8594 22.1713C48.8735 22.1218 48.8882 22.0724 48.9023 22.0231C48.9097 21.9983 48.9175 21.9739 48.9263 21.9497C48.9321 21.9249 48.939 21.9001 48.9468 21.8754C48.9614 21.8263 48.9766 21.7772 48.9922 21.7283C48.9995 21.7036 49.0083 21.6793 49.0171 21.6554C49.0234 21.6307 49.0308 21.6061 49.0386 21.5815C49.0547 21.5327 49.0703 21.4839 49.0864 21.4353C49.0947 21.4106 49.1035 21.3865 49.1128 21.3627C49.1201 21.3381 49.1274 21.3136 49.1357 21.2891C49.1523 21.2405 49.1694 21.1919 49.1865 21.1434C49.1953 21.119 49.2041 21.0951 49.2139 21.0714C49.2212 21.047 49.2295 21.0227 49.2383 20.9983C49.2559 20.9501 49.2734 20.9019 49.2915 20.8538C49.3003 20.8296 49.3101 20.8058 49.3198 20.7823C49.3276 20.7581 49.3364 20.7339 49.3457 20.7098C49.3638 20.6619 49.3823 20.614 49.4009 20.5663C49.4106 20.5421 49.4204 20.5184 49.4312 20.4952C49.4395 20.4711 49.4482 20.4469 49.458 20.423C49.4771 20.3754 49.4966 20.3278 49.5161 20.2803C49.5259 20.2565 49.5361 20.2329 49.5469 20.21C49.5557 20.1859 49.5649 20.162 49.5752 20.1382C49.5952 20.0909 49.6152 20.0437 49.6357 19.9967C49.646 19.973 49.6567 19.9497 49.668 19.9269C49.6772 19.9031 49.6865 19.8793 49.6973 19.8557C49.7178 19.8088 49.7388 19.762 49.7603 19.7153C49.7705 19.6918 49.7817 19.6687 49.7935 19.646C49.8032 19.6223 49.8135 19.5988 49.8242 19.5753C49.8457 19.5288 49.8677 19.4823 49.8892 19.4359C49.9004 19.4126 49.9121 19.3898 49.9243 19.3673C49.9341 19.3438 49.9448 19.3204 49.9561 19.2972C49.978 19.2511 50.0005 19.205 50.0234 19.1591C50.0347 19.136 50.0469 19.1133 50.0596 19.0911C50.0698 19.0677 50.0806 19.0446 50.0923 19.0216C50.1152 18.9758 50.1387 18.9302 50.1621 18.8846C50.1738 18.8617 50.1865 18.8392 50.1992 18.8173C50.21 18.7941 50.2212 18.7711 50.2334 18.7483C50.2573 18.7029 50.2812 18.6577 50.3057 18.6125C50.3179 18.5898 50.3306 18.5676 50.3438 18.5458C50.3545 18.5228 50.3662 18.5001 50.3789 18.4774C50.4033 18.4325 50.4282 18.3877 50.4531 18.343C50.4658 18.3206 50.479 18.2986 50.4927 18.277C50.5039 18.2543 50.5161 18.2317 50.5288 18.2094C50.5542 18.1648 50.5801 18.1205 50.6055 18.0762C50.6187 18.054 50.6323 18.0321 50.646 18.0109C50.6577 17.9883 50.6704 17.9659 50.6836 17.9437C50.7095 17.8997 50.7358 17.8558 50.7627 17.812C50.7759 17.7899 50.7896 17.7684 50.8042 17.7473C50.8164 17.725 50.8291 17.7029 50.8428 17.6809C50.8696 17.6373 50.8965 17.5939 50.9238 17.5505C50.9375 17.5287 50.9517 17.5073 50.9663 17.4866C50.979 17.4645 50.9922 17.4425 51.0059 17.4208C51.0337 17.3777 51.061 17.3347 51.0894 17.2919C51.103 17.2703 51.1177 17.2493 51.1328 17.2286C51.1455 17.2068 51.1592 17.1851 51.1733 17.1636C51.2017 17.121 51.2305 17.0785 51.2588 17.0361C51.2734 17.0148 51.2881 16.9939 51.3037 16.9736C51.3169 16.9519 51.3306 16.9304 51.3452 16.9093C51.3745 16.8671 51.4033 16.8251 51.4331 16.7832C51.4478 16.7621 51.4629 16.7416 51.4785 16.7214C51.4922 16.7001 51.5063 16.6788 51.5215 16.6578Q51.5659 16.5953 51.6108 16.5333C51.626 16.5125 51.6416 16.4922 51.6577 16.4724C51.6714 16.4512 51.686 16.4302 51.7017 16.4095C51.7319 16.3684 51.7622 16.3274 51.793 16.2865C51.8086 16.2659 51.8242 16.2458 51.8408 16.2264C51.855 16.2054 51.8701 16.1847 51.8857 16.1642C51.9165 16.1235 51.9478 16.083 51.979 16.0427C51.9951 16.0223 52.0112 16.0026 52.0278 15.9834C52.0425 15.9626 52.0576 15.9421 52.0737 15.9219C52.1055 15.8818 52.1372 15.8419 52.1689 15.8021C52.1851 15.782 52.2017 15.7626 52.2188 15.7437C52.2339 15.7231 52.2495 15.7029 52.2656 15.683C52.2979 15.6434 52.3301 15.604 52.3628 15.5647C52.3794 15.5449 52.396 15.5258 52.4136 15.5071C52.4287 15.4868 52.4448 15.4668 52.4614 15.4471C52.4941 15.4082 52.5273 15.3693 52.5605 15.3304C52.5771 15.3109 52.5947 15.292 52.6123 15.2736C52.6279 15.2537 52.644 15.2339 52.6611 15.2145C52.6943 15.176 52.728 15.1378 52.7622 15.0996C52.7793 15.0803 52.7964 15.0618 52.8145 15.0437C52.8301 15.0239 52.8467 15.0045 52.8643 14.9855C52.8984 14.9475 52.9326 14.9098 52.9668 14.8721C52.9844 14.8531 53.002 14.8348 53.02 14.817C53.0366 14.7976 53.0532 14.7784 53.0708 14.7596C53.1055 14.7222 53.1406 14.6849 53.1758 14.6479C53.1934 14.6293 53.2114 14.6111 53.23 14.5936C53.2466 14.5745 53.2637 14.5555 53.2812 14.537C53.3169 14.5002 53.3521 14.4636 53.3877 14.4272C53.4058 14.4088 53.4243 14.3911 53.4429 14.3739C53.4595 14.355 53.4771 14.3364 53.4951 14.3182C53.5312 14.282 53.5674 14.246 53.6035 14.2101C53.6216 14.192 53.6401 14.1744 53.6592 14.1576C53.6763 14.1389 53.6943 14.1206 53.7124 14.1027C53.749 14.067 53.7856 14.0316 53.8228 13.9962C53.8413 13.9784 53.8599 13.9613 53.8794 13.9447C53.897 13.9263 53.915 13.9082 53.9336 13.8906C53.9707 13.8556 54.0078 13.8208 54.0449 13.7861C54.064 13.7687 54.083 13.7518 54.1025 13.7355C54.1201 13.7174 54.1387 13.6997 54.1572 13.6825C54.1948 13.6481 54.2329 13.6138 54.2705 13.5796C54.2896 13.5625 54.3091 13.5459 54.3286 13.5299C54.3467 13.5121 54.3657 13.4948 54.3848 13.4777Q54.4419 13.4269 54.4995 13.3766C54.519 13.3597 54.5386 13.3435 54.5586 13.3279C54.5771 13.3103 54.5957 13.2932 54.6152 13.2765C54.6538 13.2433 54.6929 13.2103 54.7314 13.1775C54.751 13.1609 54.771 13.145 54.791 13.1296C54.8101 13.1124 54.8291 13.0957 54.8486 13.0793C54.8672 13.0638 54.8857 13.0485 54.9048 13.0331C54.9253 13.016 54.9458 12.999 54.9668 12.9821C54.9863 12.9658 55.0068 12.9502 55.0269 12.9352C55.0459 12.9182 55.0654 12.9017 55.0854 12.8856C55.125 12.8536 55.165 12.8219 55.2051 12.7902C55.2251 12.7743 55.2456 12.7589 55.2661 12.7443C55.2852 12.7277 55.3047 12.7114 55.3252 12.6957C55.3652 12.6644 55.4058 12.6333 55.4458 12.6023C55.4663 12.5867 55.4868 12.5718 55.5078 12.5574C55.5273 12.5411 55.5469 12.5253 55.5674 12.5099C55.6079 12.4791 55.6489 12.4486 55.6899 12.4183C55.7104 12.403 55.7314 12.3883 55.7524 12.3744C55.772 12.3583 55.792 12.3428 55.813 12.3276C55.854 12.2976 55.8955 12.2677 55.9365 12.2379C55.9575 12.2229 55.9785 12.2086 56 12.1949C56.02 12.1793 56.0405 12.1641 56.061 12.1492C56.103 12.1199 56.1445 12.0907 56.186 12.0616C56.207 12.047 56.2285 12.0331 56.25 12.0198C56.2593 12.0127 56.2686 12.0059 56.2778 11.999ZM67.6123 2.8385C63.5718 2.8385 60.2661 5.87964 59.3496 10.2725C59.3574 10.2692 59.3647 10.2657 59.3721 10.2623C59.3955 10.2518 59.4189 10.2421 59.4429 10.233C59.4653 10.2217 59.4883 10.2108 59.5117 10.2006C59.5581 10.1801 59.605 10.1598 59.6514 10.1398C59.6753 10.1296 59.6987 10.1202 59.7227 10.1115C59.7451 10.1005 59.7686 10.09 59.792 10.0801C59.8389 10.0603 59.8862 10.0406 59.9331 10.0214C59.957 10.0116 59.9805 10.0024 60.0044 9.99402C60.0273 9.9834 60.0508 9.97327 60.0747 9.96362C60.1216 9.9447 60.1689 9.9259 60.2163 9.90735C60.2397 9.89795 60.2637 9.88928 60.2876 9.88123C60.311 9.87097 60.3345 9.86121 60.3584 9.85205C60.4058 9.83374 60.4531 9.81567 60.5005 9.79785C60.5244 9.78882 60.5488 9.78052 60.5728 9.77283C60.5962 9.76282 60.6196 9.75342 60.6436 9.74463C60.6914 9.72705 60.7393 9.70972 60.7876 9.6925C60.8115 9.68384 60.8359 9.67578 60.8599 9.66858C60.8833 9.65894 60.9072 9.6499 60.9316 9.64136C60.9795 9.62463 61.0273 9.60803 61.0752 9.59155C61.0996 9.58337 61.124 9.57581 61.1479 9.56885C61.1719 9.55969 61.1953 9.55103 61.2197 9.54297C61.2681 9.52686 61.3164 9.51099 61.3647 9.49536C61.3887 9.48743 61.4131 9.48022 61.4375 9.47375C61.4614 9.46484 61.4854 9.45654 61.5098 9.44885C61.5586 9.43347 61.6069 9.41833 61.6558 9.40332C61.6802 9.39575 61.7046 9.38892 61.7295 9.38281C61.7534 9.37427 61.7773 9.36633 61.8018 9.35889C61.8506 9.34436 61.8994 9.32996 61.9482 9.3158C61.9727 9.30872 61.9971 9.30225 62.022 9.29651C62.0459 9.28833 62.0698 9.28076 62.0942 9.2738C62.1431 9.26001 62.1924 9.24634 62.2412 9.23291C62.2661 9.2262 62.2905 9.22009 62.3154 9.21472C62.3394 9.20691 62.3638 9.19971 62.3887 9.19312C62.4375 9.18005 62.4868 9.16711 62.5361 9.15442C62.561 9.14795 62.5859 9.14233 62.6108 9.13721C62.6348 9.12976 62.6597 9.12292 62.6841 9.1167C62.7334 9.10437 62.7832 9.09229 62.8325 9.08032C62.8574 9.07434 62.8818 9.06897 62.9067 9.06433C62.9312 9.05737 62.9556 9.0509 62.9805 9.04517C63.0298 9.03357 63.0791 9.02222 63.1289 9.01099C63.1538 9.00537 63.1787 9.00049 63.2036 8.99622C63.228 8.9895 63.2529 8.9834 63.2778 8.97803C63.3271 8.96716 63.377 8.95654 63.4268 8.94604C63.4521 8.9408 63.4771 8.93628 63.502 8.93237C63.5269 8.92603 63.5513 8.92029 63.5767 8.91528C63.6265 8.90515 63.6763 8.89526 63.7266 8.88562C63.7515 8.88074 63.7764 8.87659 63.8013 8.87305C63.8262 8.86719 63.8506 8.86182 63.876 8.85718C63.9258 8.8479 63.9756 8.83887 64.0254 8.82996C64.0508 8.82544 64.0757 8.82166 64.1006 8.81848C64.1255 8.81299 64.1504 8.80798 64.1758 8.80371C64.2256 8.79517 64.2759 8.78687 64.3262 8.77869C64.3516 8.77454 64.3765 8.77112 64.4019 8.76843C64.4263 8.76318 64.4517 8.75867 64.4771 8.75464C64.5273 8.74695 64.5776 8.73926 64.6279 8.73181C64.6533 8.72815 64.6787 8.7251 64.7036 8.72278C64.7285 8.71802 64.7534 8.71375 64.7788 8.71033C64.8286 8.70325 64.8789 8.69641 64.9292 8.68982C64.9546 8.68652 64.98 8.68384 65.0049 8.68188C65.0298 8.67749 65.0547 8.67371 65.0801 8.67053C65.1304 8.66431 65.1812 8.6582 65.2314 8.65234C65.2568 8.64929 65.2822 8.64709 65.3076 8.64551C65.3325 8.64136 65.3579 8.63794 65.3833 8.63525C65.4336 8.62976 65.4844 8.62439 65.5352 8.61926C65.5605 8.6167 65.5859 8.61475 65.6113 8.61353C65.6362 8.60986 65.6616 8.60681 65.687 8.60449C65.7373 8.59973 65.7876 8.59521 65.8379 8.59094C65.8633 8.58875 65.8887 8.58716 65.9141 8.5863C65.939 8.58313 65.9644 8.58044 65.9897 8.57837C66.04 8.57446 66.0908 8.57068 66.1416 8.56702C66.167 8.56531 66.1924 8.56409 66.2178 8.56372C66.2427 8.56079 66.2681 8.55847 66.2935 8.55688C66.3442 8.55359 66.395 8.55054 66.4463 8.54773C66.4717 8.54626 66.4971 8.54553 66.5225 8.54553C66.5479 8.54297 66.5732 8.54102 66.5986 8.53979C66.6494 8.53735 66.6997 8.53503 66.75 8.53296C66.7759 8.53198 66.8008 8.53162 66.8262 8.53186C66.8511 8.52979 66.8765 8.5282 66.9019 8.52734C66.9526 8.52563 67.0034 8.52417 67.0537 8.52283C67.0796 8.52222 67.105 8.52222 67.1299 8.52283C67.1553 8.52112 67.1807 8.5199 67.2061 8.51941C67.2568 8.51855 67.3076 8.5177 67.3589 8.51721C67.3843 8.51685 67.4097 8.51733 67.4351 8.51831C67.4604 8.51685 67.4858 8.51611 67.5117 8.51599Q67.5498 8.51587 67.5879 8.51587C67.6138 8.51587 67.6392 8.51599 67.6646 8.51599C67.6899 8.51611 67.7158 8.51685 67.7407 8.51831C67.7661 8.51733 67.7915 8.51685 67.8174 8.51721C67.8682 8.5177 67.9189 8.51855 67.9697 8.51941C67.9956 8.5199 68.0205 8.52112 68.0459 8.52283C68.0713 8.52222 68.0967 8.52222 68.1221 8.52283C68.1729 8.52417 68.2236 8.52563 68.2739 8.52734C68.2993 8.5282 68.3247 8.52979 68.3501 8.53186C68.375 8.53162 68.4004 8.53198 68.4258 8.53296C68.4766 8.53503 68.5269 8.53735 68.5771 8.53979C68.603 8.54102 68.6284 8.54297 68.6533 8.54553C68.6787 8.54553 68.7046 8.54626 68.73 8.54773C68.751 8.54895 68.7715 8.55005 68.7925 8.55127C68.8223 8.5531 68.8525 8.55493 68.8823 8.55688C68.9077 8.55847 68.9331 8.56079 68.9585 8.56372C68.9839 8.56409 69.0093 8.56531 69.0347 8.56702C69.0854 8.57068 69.1357 8.57446 69.1865 8.57837C69.2119 8.58044 69.2368 8.58301 69.2622 8.5863C69.2871 8.58716 69.3125 8.58875 69.3379 8.59094C69.3882 8.59521 69.439 8.59973 69.4893 8.60449C69.5146 8.60681 69.54 8.60986 69.5649 8.61353C69.5898 8.61475 69.6152 8.6167 69.6406 8.61926C69.6914 8.62439 69.7422 8.62976 69.793 8.63525C69.8184 8.63794 69.8438 8.64136 69.8687 8.64551C69.8936 8.64709 69.9189 8.64929 69.9443 8.65234C69.9951 8.6582 70.0454 8.66431 70.0957 8.67053C70.1211 8.67371 70.1465 8.67749 70.1709 8.68188C70.1963 8.68384 70.2217 8.68652 70.2466 8.68982C70.2969 8.69641 70.3472 8.70325 70.3975 8.71021C70.4229 8.71375 70.4478 8.71802 70.4727 8.72278C70.4976 8.7251 70.5229 8.72815 70.5479 8.73181C70.5986 8.73926 70.6489 8.74683 70.6992 8.75464C70.7246 8.75867 70.7495 8.76318 70.7744 8.76843C70.7993 8.77112 70.8247 8.77454 70.8501 8.77869C70.9004 8.78687 70.9502 8.79517 71.0005 8.80371C71.0259 8.80798 71.0508 8.81299 71.0752 8.81848C71.1001 8.82166 71.1255 8.82544 71.1504 8.82996C71.2007 8.83887 71.2505 8.8479 71.3003 8.85718C71.3252 8.86182 71.3501 8.86719 71.3745 8.87305C71.3994 8.87659 71.4243 8.88074 71.4497 8.88562C71.4995 8.89526 71.5493 8.90515 71.5996 8.91528C71.6245 8.92029 71.6494 8.92603 71.6738 8.93237C71.6987 8.93628 71.7241 8.9408 71.749 8.94604C71.7988 8.95654 71.8486 8.96716 71.8984 8.97803C71.9233 8.9834 71.9482 8.9895 71.9722 8.99622C71.9971 9.00049 72.0225 9.00537 72.0474 9.01099C72.0967 9.02222 72.146 9.03357 72.1958 9.04517C72.2202 9.0509 72.2451 9.05737 72.269 9.06433C72.2939 9.06897 72.3188 9.07434 72.3438 9.08032L72.3687 9.08643C72.3804 9.08923 72.3921 9.09204 72.4033 9.09485C72.4258 9.10034 72.4482 9.10583 72.4702 9.11145L72.4917 9.1167C72.5166 9.12292 72.541 9.12976 72.5654 9.13721C72.5903 9.14221 72.6152 9.14795 72.6396 9.15442C72.6646 9.16077 72.6895 9.16724 72.7139 9.17371C72.7383 9.18005 72.7632 9.18665 72.7876 9.19312C72.8125 9.19971 72.8369 9.20691 72.8608 9.21472C72.8853 9.22009 72.9102 9.2262 72.9351 9.23291C72.9839 9.24634 73.0327 9.26001 73.0815 9.2738C73.106 9.28076 73.1304 9.28833 73.1543 9.29639C73.1787 9.30225 73.2036 9.30859 73.228 9.3158C73.2769 9.32996 73.3252 9.34436 73.374 9.35889C73.3984 9.36621 73.4229 9.37427 73.4468 9.38281C73.4712 9.38892 73.4961 9.39575 73.5205 9.40332C73.5688 9.41833 73.6177 9.43347 73.666 9.44873C73.6904 9.45654 73.7148 9.46484 73.7383 9.47375C73.7627 9.48022 73.7871 9.48743 73.8115 9.49536C73.8599 9.51099 73.9082 9.52686 73.9565 9.54297C73.9805 9.55103 74.0044 9.55969 74.0278 9.56885C74.0522 9.57581 74.0767 9.58337 74.1006 9.59155C74.1489 9.60803 74.1968 9.62463 74.2446 9.64136C74.2686 9.6499 74.2925 9.65894 74.3159 9.66858C74.3403 9.67578 74.3647 9.68384 74.3887 9.6925C74.4365 9.70972 74.4844 9.72705 74.5322 9.74463C74.5562 9.75342 74.5801 9.76282 74.603 9.77283C74.6274 9.7804 74.6514 9.78882 74.6753 9.79773C74.7231 9.81567 74.7705 9.83374 74.8179 9.85205C74.8418 9.86121 74.8652 9.87097 74.8882 9.88123C74.9121 9.88928 74.936 9.89795 74.96 9.90735C75.0073 9.9259 75.0542 9.9447 75.1011 9.96362C75.125 9.97327 75.1484 9.9834 75.1714 9.99402C75.1953 10.0024 75.2192 10.0115 75.2432 10.0212C75.29 10.0406 75.3369 10.0603 75.3838 10.08C75.4077 10.09 75.4307 10.1005 75.4536 10.1115C75.4775 10.1202 75.501 10.1296 75.5244 10.1398C75.5713 10.1598 75.6177 10.1801 75.6646 10.2006C75.688 10.2108 75.7109 10.2217 75.7334 10.233C75.7568 10.2421 75.7803 10.2518 75.8037 10.2623C75.8291 10.2737 75.8545 10.2852 75.8799 10.2966C74.9707 5.89087 71.6602 2.8385 67.6123 2.8385ZM67.5879 11.3544C67.5659 11.3544 67.5439 11.3545 67.522 11.3545C67.5 11.3546 67.478 11.3542 67.4561 11.3533C67.4346 11.3545 67.4126 11.3552 67.3906 11.3556C67.3467 11.3561 67.3027 11.3567 67.2588 11.3575C67.2368 11.3579 67.2153 11.3578 67.1934 11.3572C67.1719 11.3588 67.1499 11.3599 67.1279 11.3605C67.1055 11.361 67.0825 11.3617 67.0601 11.3623C67.0391 11.3629 67.0181 11.3636 66.9971 11.3643C66.9751 11.365 66.9531 11.3652 66.9316 11.365C66.9102 11.3669 66.8882 11.3683 66.8662 11.3691C66.8462 11.37 66.8262 11.3708 66.8057 11.3717C66.7827 11.3728 66.7593 11.3739 66.7358 11.375C66.7139 11.3761 66.6919 11.3766 66.6699 11.3767C66.6484 11.3789 66.6265 11.3806 66.6045 11.3818C66.5605 11.3843 66.5171 11.387 66.4731 11.3896C66.4604 11.3905 66.4473 11.3911 66.4341 11.3916C66.4253 11.392 66.4165 11.3922 66.4077 11.3923C66.3862 11.3949 66.3643 11.397 66.3423 11.3984C66.2988 11.4016 66.2554 11.4048 66.2119 11.4082C66.1899 11.4099 66.168 11.4111 66.1465 11.4119C66.125 11.4147 66.1035 11.4171 66.0815 11.4189C66.0381 11.4227 65.9946 11.4266 65.9517 11.4307C65.9297 11.4327 65.9077 11.4342 65.8862 11.4353C65.8647 11.4385 65.8428 11.4412 65.8213 11.4434C65.7959 11.4459 65.771 11.4485 65.7461 11.451C65.7275 11.453 65.709 11.4551 65.6904 11.457C65.6685 11.4595 65.6465 11.4613 65.625 11.4626C65.6035 11.4662 65.582 11.4692 65.5601 11.4718C65.5166 11.4768 65.4731 11.4821 65.4297 11.4874C65.4082 11.4901 65.3867 11.4923 65.3647 11.494C65.3433 11.4978 65.3218 11.5012 65.3003 11.504C65.2568 11.5098 65.2139 11.5156 65.1709 11.5216C65.1489 11.5247 65.1274 11.5271 65.106 11.5292C65.0845 11.5333 65.063 11.537 65.0415 11.5402C64.998 11.5465 64.9546 11.5531 64.9116 11.5597C64.8896 11.5631 64.8682 11.5659 64.8467 11.5684C64.8252 11.5728 64.8037 11.5768 64.7822 11.5803C64.7388 11.5874 64.6958 11.5945 64.6528 11.6018C64.6313 11.6056 64.6094 11.6088 64.5879 11.6115C64.5669 11.6162 64.5454 11.6205 64.5239 11.6244C64.481 11.632 64.438 11.6398 64.3955 11.6478C64.374 11.6517 64.3525 11.6553 64.3311 11.6583C64.3101 11.6633 64.2886 11.668 64.2671 11.6721C64.2241 11.6804 64.1812 11.689 64.1387 11.6976C64.1172 11.702 64.0952 11.7058 64.0737 11.7091C64.0527 11.7146 64.0317 11.7196 64.0103 11.7241C63.9673 11.733 63.9243 11.7422 63.8818 11.7515C63.8604 11.7561 63.8389 11.7603 63.8179 11.7639C63.7969 11.7697 63.7754 11.775 63.7544 11.7798C63.7114 11.7894 63.6694 11.7992 63.627 11.8091C63.6055 11.8141 63.584 11.8186 63.563 11.8225C63.542 11.8286 63.521 11.8341 63.5 11.8392C63.4575 11.8496 63.415 11.86 63.3726 11.8706C63.3516 11.8759 63.3301 11.8807 63.3086 11.885C63.2881 11.8914 63.2671 11.8973 63.2456 11.9028C63.2031 11.9138 63.1611 11.9248 63.1191 11.936C63.0977 11.9418 63.0767 11.9469 63.0552 11.9515C63.0347 11.9581 63.0137 11.9645 62.9927 11.9702C62.9736 11.9755 62.9541 11.9808 62.9351 11.9861C62.9219 11.9897 62.9087 11.9934 62.8955 11.9972C62.8857 11.9999 62.8765 12.0026 62.8667 12.0052C62.8457 12.0112 62.8247 12.0167 62.8037 12.0216C62.7832 12.0287 62.7622 12.0352 62.7412 12.0413Q62.6782 12.0596 62.6157 12.0782C62.5947 12.0846 62.5737 12.0903 62.5527 12.0957C62.5322 12.103 62.5112 12.1099 62.4902 12.1163C62.4487 12.1293 62.4067 12.1422 62.3652 12.1554C62.3442 12.162 62.3232 12.1681 62.3022 12.1737C62.2822 12.1813 62.2617 12.1885 62.2407 12.1953C62.1992 12.2087 62.1577 12.2223 62.1167 12.2361C62.0957 12.243 62.0752 12.2494 62.0542 12.2554C62.0342 12.2633 62.0137 12.2708 61.9927 12.2778C61.9517 12.2919 61.9106 12.3062 61.8696 12.3206C61.8486 12.3278 61.8281 12.3345 61.8071 12.3407C61.7871 12.349 61.7666 12.3568 61.7456 12.3643L61.7085 12.3777C61.6802 12.3881 61.6514 12.3984 61.6226 12.4089C61.6021 12.4165 61.5815 12.4236 61.561 12.4302C61.541 12.4387 61.5205 12.4469 61.5 12.4546C61.4595 12.47 61.4185 12.4855 61.3779 12.5011C61.3706 12.5039 61.3633 12.5067 61.3555 12.5094C61.3428 12.5142 61.3296 12.5188 61.3164 12.5232C61.2969 12.532 61.2769 12.5404 61.2563 12.5485C61.2158 12.5645 61.1753 12.5804 61.1353 12.5967C61.1147 12.605 61.0942 12.6127 61.0737 12.6199C61.0542 12.629 61.0342 12.6378 61.0137 12.6461C61.0054 12.6494 60.9976 12.6528 60.9893 12.6561C60.9775 12.661 60.9663 12.6658 60.9546 12.6707C60.9341 12.6792 60.9131 12.6879 60.8926 12.6964C60.8726 12.705 60.8521 12.713 60.832 12.7205C60.8125 12.73 60.7925 12.739 60.7725 12.7477C60.7324 12.7649 60.6924 12.7822 60.6523 12.7997C60.6323 12.8085 60.6123 12.8168 60.5923 12.8246C60.5728 12.8344 60.5532 12.8438 60.5332 12.8527C60.4932 12.8705 60.4536 12.8884 60.4141 12.9065C60.394 12.9156 60.374 12.9242 60.354 12.9324C60.3442 12.9376 60.334 12.9427 60.3237 12.9478Q60.3096 12.9547 60.2954 12.9614C60.2559 12.9799 60.2163 12.9985 60.1768 13.0172C60.1572 13.0266 60.1372 13.0356 60.1172 13.0441C60.0981 13.0543 60.0786 13.0643 60.0591 13.074C60.02 13.093 59.981 13.1122 59.9419 13.1315C59.9219 13.1412 59.9023 13.1504 59.8823 13.1592C59.875 13.1633 59.8677 13.1676 59.8599 13.1716C59.8481 13.1779 59.8369 13.184 59.8247 13.1899C59.7861 13.2095 59.7476 13.2292 59.7085 13.2491C59.689 13.2592 59.6694 13.2687 59.6499 13.2778C59.6309 13.2887 59.6118 13.2993 59.5928 13.3094C59.5537 13.3297 59.5151 13.3502 59.4771 13.3707C59.4575 13.381 59.438 13.3909 59.4185 13.4003C59.3999 13.4115 59.3809 13.4224 59.3618 13.4327C59.3237 13.4536 59.2852 13.4746 59.2471 13.4957C59.228 13.5063 59.209 13.5165 59.1895 13.5261C59.1709 13.5376 59.1523 13.5487 59.1333 13.5594C59.0952 13.5808 59.0576 13.6024 59.02 13.624C59.001 13.635 58.9819 13.6454 58.9624 13.6554C58.9443 13.6671 58.9258 13.6786 58.9067 13.6897C58.8691 13.7117 58.8315 13.7339 58.7939 13.7562C58.7754 13.7673 58.7563 13.7781 58.7373 13.7883C58.7192 13.8004 58.7007 13.8121 58.6821 13.8235C58.645 13.8461 58.6079 13.8688 58.5708 13.8917C58.5522 13.9032 58.5332 13.9142 58.5142 13.9247C58.4966 13.937 58.4785 13.949 58.46 13.9607C58.4229 13.9838 58.3862 14.0071 58.3496 14.0304C58.3311 14.0422 58.3125 14.0536 58.2939 14.0643C58.2759 14.077 58.2583 14.0892 58.2397 14.1012C58.2031 14.125 58.1665 14.1488 58.1304 14.1729C58.1118 14.1849 58.0938 14.1965 58.0752 14.2076C58.0576 14.2206 58.0396 14.2332 58.0215 14.2454C57.9854 14.2697 57.9492 14.2941 57.9136 14.3186C57.8955 14.3309 57.877 14.3428 57.8589 14.3542C57.8418 14.3673 57.8242 14.3801 57.8062 14.3927C57.7705 14.4175 57.7349 14.4424 57.6992 14.4675C57.6812 14.4801 57.6631 14.4923 57.645 14.504C57.6279 14.5175 57.6104 14.5305 57.5928 14.5433C57.5576 14.5687 57.522 14.5942 57.4868 14.62C57.4692 14.6329 57.4512 14.6454 57.4331 14.6573C57.4165 14.671 57.3994 14.6843 57.3818 14.6974C57.3467 14.7234 57.312 14.7494 57.2773 14.7756C57.2598 14.7888 57.2422 14.8015 57.2241 14.8137C57.2075 14.8278 57.1909 14.8413 57.1733 14.8546C57.1392 14.8811 57.1045 14.9077 57.0703 14.9343C57.0532 14.9479 57.0356 14.9608 57.0181 14.9734C57.0015 14.9875 56.9849 15.0015 56.9678 15.0151C56.9336 15.0421 56.8994 15.0693 56.8657 15.0966C56.8486 15.1104 56.8311 15.1235 56.814 15.1364C56.7979 15.1509 56.7812 15.165 56.7642 15.1788C56.7305 15.2064 56.6968 15.2341 56.6636 15.2618C56.6465 15.2759 56.6299 15.2894 56.6123 15.3025C56.5967 15.3171 56.5801 15.3315 56.5635 15.3457C56.5303 15.3737 56.4976 15.4019 56.4644 15.4302C56.4478 15.4445 56.4312 15.4583 56.4141 15.4716C56.3984 15.4866 56.3823 15.5012 56.3657 15.5156C56.333 15.5442 56.3003 15.5729 56.2676 15.6018C56.2515 15.6163 56.2349 15.6304 56.2178 15.6439C56.2026 15.6592 56.1865 15.6741 56.1704 15.6887C56.1382 15.7178 56.106 15.7471 56.0737 15.7764C56.0659 15.7834 56.0581 15.7905 56.0503 15.7974C56.042 15.8048 56.0332 15.8121 56.0249 15.8192C56.0098 15.8347 55.9941 15.8499 55.978 15.8647C55.9463 15.8943 55.9146 15.924 55.8828 15.9539C55.8672 15.9689 55.8511 15.9834 55.8345 15.9976C55.8198 16.0132 55.8042 16.0287 55.7886 16.0438C55.7573 16.0739 55.7261 16.1041 55.6948 16.1345C55.6792 16.1498 55.6631 16.1646 55.647 16.179C55.6323 16.1948 55.6172 16.2106 55.6021 16.226C55.5708 16.2565 55.5405 16.2872 55.5098 16.318C55.4941 16.3335 55.4785 16.3485 55.4629 16.3632C55.4482 16.3793 55.4336 16.3951 55.4185 16.4108C55.3882 16.4419 55.3579 16.473 55.3276 16.5043C55.3125 16.52 55.2974 16.5354 55.2817 16.5503C55.2676 16.5667 55.2529 16.5828 55.2378 16.5986C55.208 16.6301 55.1782 16.6619 55.1484 16.6936C55.1338 16.7096 55.1187 16.7252 55.103 16.7404C55.0894 16.757 55.0752 16.7732 55.0601 16.7893C55.0308 16.8214 55.002 16.8535 54.9727 16.8857C54.958 16.902 54.9434 16.9177 54.9282 16.9331C54.9146 16.9498 54.9004 16.9664 54.8857 16.9828C54.8569 17.0153 54.8286 17.0477 54.7998 17.0804C54.7856 17.0969 54.771 17.1129 54.7563 17.1285C54.7427 17.1456 54.729 17.1624 54.7148 17.179C54.6865 17.2119 54.6582 17.245 54.6304 17.2781C54.6162 17.2948 54.6021 17.311 54.5874 17.3269C54.5742 17.3441 54.561 17.3611 54.5469 17.3779C54.519 17.4113 54.4917 17.4447 54.4644 17.4783C54.4502 17.4952 54.4365 17.5117 54.4219 17.5278C54.4092 17.5452 54.396 17.5624 54.3823 17.5793C54.355 17.6132 54.3281 17.6471 54.3013 17.681C54.2881 17.6982 54.2739 17.715 54.2598 17.7312C54.2476 17.7489 54.2344 17.7664 54.2212 17.7836C54.1943 17.8177 54.168 17.8522 54.1416 17.8866C54.1284 17.9039 54.1152 17.9209 54.1011 17.9374C54.0889 17.9552 54.0762 17.9729 54.0635 17.9902C54.0371 18.0249 54.0112 18.0597 53.9858 18.0946C53.9727 18.1121 53.9595 18.1293 53.9458 18.146C53.9341 18.1639 53.9219 18.1818 53.9092 18.1995C53.8838 18.2345 53.8584 18.2697 53.833 18.3049C53.8203 18.3226 53.8076 18.3401 53.7944 18.3571C53.7827 18.3752 53.7705 18.3933 53.7583 18.4111C53.7334 18.4467 53.7085 18.4822 53.6841 18.5178C53.6719 18.5358 53.6592 18.5533 53.646 18.5706C53.6348 18.589 53.623 18.6072 53.6108 18.6252C53.5869 18.6611 53.5625 18.697 53.5386 18.7332C53.5269 18.7512 53.5142 18.769 53.5015 18.7864C53.4907 18.8049 53.479 18.8234 53.4673 18.8416C53.4438 18.8778 53.4204 18.9142 53.397 18.9507C53.3853 18.969 53.373 18.9869 53.3608 19.0045C53.3501 19.0233 53.3389 19.0419 53.3276 19.0603C53.3042 19.0969 53.2817 19.1337 53.2588 19.1705C53.2476 19.189 53.2358 19.2072 53.2236 19.225C53.2134 19.2439 53.2026 19.2627 53.1914 19.2812C53.1689 19.3182 53.1465 19.3553 53.1245 19.3926C53.1206 19.3995 53.1162 19.4064 53.1118 19.4132C53.105 19.4248 53.0977 19.4363 53.0903 19.4476C53.0801 19.4667 53.0698 19.4856 53.0586 19.5044C53.0371 19.5417 53.0156 19.5792 52.9941 19.6167C52.9834 19.6356 52.9722 19.6542 52.9604 19.6724C52.9507 19.6915 52.9409 19.7107 52.9302 19.7296C52.9092 19.7673 52.8882 19.8052 52.8672 19.843C52.8569 19.8621 52.8462 19.8809 52.835 19.8992C52.8257 19.9186 52.8159 19.9379 52.8052 19.9569C52.7852 19.995 52.7646 20.0332 52.7446 20.0714C52.7344 20.0906 52.7236 20.1095 52.7129 20.1281C52.7041 20.1476 52.6943 20.167 52.6846 20.1864C52.6646 20.2247 52.645 20.2632 52.6255 20.3018C52.6157 20.3212 52.6055 20.3402 52.5952 20.3589C52.5864 20.3785 52.5771 20.3982 52.5679 20.4176C52.5483 20.4563 52.5298 20.4951 52.5107 20.5339C52.5015 20.5535 52.4917 20.5728 52.4814 20.5916C52.4731 20.6115 52.4644 20.6311 52.4551 20.6508C52.4478 20.6659 52.4404 20.681 52.4336 20.6962C52.4224 20.7201 52.4111 20.7441 52.3999 20.7681C52.3906 20.7878 52.3813 20.8071 52.3716 20.8263C52.3633 20.8462 52.355 20.8661 52.3462 20.8859C52.3281 20.9252 52.3105 20.9646 52.293 21.004C52.2842 21.0238 52.2754 21.0433 52.2656 21.0626C52.2578 21.0826 52.25 21.1027 52.2412 21.1226C52.2241 21.1621 52.207 21.2018 52.1904 21.2416C52.1821 21.2616 52.1733 21.2812 52.1641 21.3007C52.1567 21.3208 52.1489 21.3409 52.1406 21.3611C52.1348 21.3749 52.1294 21.3888 52.1235 21.4026L52.1162 21.4211C52.1104 21.4352 52.1045 21.4491 52.0991 21.4631L52.0918 21.481C52.084 21.5011 52.0752 21.521 52.0664 21.5405C52.0596 21.5608 52.0522 21.5812 52.0439 21.6013C52.0283 21.6415 52.0127 21.6816 51.9976 21.7219C51.9897 21.7422 51.9814 21.7621 51.9731 21.7817C51.9668 21.8022 51.9595 21.8225 51.9521 21.8429C51.937 21.8833 51.9219 21.9237 51.9072 21.9642C51.8999 21.9846 51.8921 22.0048 51.8843 22.0245C51.8779 22.0452 51.8711 22.0656 51.8638 22.0861C51.8496 22.1267 51.8354 22.1675 51.8213 22.2083C51.8145 22.2288 51.8071 22.249 51.7993 22.269C51.7935 22.2897 51.7871 22.3103 51.7803 22.3309C51.7666 22.3718 51.7529 22.4127 51.7397 22.4537C51.7334 22.4742 51.7261 22.4946 51.7188 22.5146C51.7134 22.5354 51.707 22.556 51.7007 22.5767C51.688 22.6178 51.6753 22.6589 51.6626 22.7002C51.6562 22.7209 51.6499 22.7413 51.6426 22.7616C51.6372 22.7825 51.6318 22.8032 51.6255 22.824C51.6138 22.8654 51.6016 22.9067 51.5898 22.9482C51.584 22.9691 51.5776 22.9897 51.5708 23.0101C51.5659 23.031 51.5605 23.052 51.5547 23.0729C51.5435 23.1144 51.5322 23.1559 51.521 23.1975C51.5156 23.2184 51.5098 23.239 51.5034 23.2594C51.499 23.2804 51.4941 23.3014 51.4888 23.3223C51.478 23.364 51.4673 23.4058 51.457 23.4475C51.4521 23.4685 51.4463 23.4894 51.4404 23.5099C51.436 23.531 51.4316 23.552 51.4268 23.5731C51.4165 23.615 51.4067 23.657 51.3975 23.6991C51.3926 23.7202 51.3872 23.7411 51.3813 23.7618C51.3779 23.783 51.3735 23.8042 51.3691 23.8253C51.3652 23.8424 51.3618 23.8594 51.3579 23.8765C51.3525 23.9015 51.3472 23.9264 51.3423 23.9514C51.3374 23.9725 51.3325 23.9935 51.3276 24.0143C51.3242 24.0354 51.3203 24.0565 51.3159 24.0778C51.314 24.0875 51.312 24.0974 51.3101 24.1072C51.3086 24.115 51.3071 24.1227 51.3057 24.1304C51.3008 24.155 51.2959 24.1797 51.2915 24.2043C51.2886 24.2183 51.2856 24.2319 51.2827 24.2456C51.2812 24.2529 51.2793 24.2603 51.2778 24.2676C51.2764 24.2772 51.2749 24.2869 51.2734 24.2965C51.2715 24.3081 51.2695 24.3197 51.2676 24.3314C51.2598 24.3738 51.2524 24.4163 51.2451 24.4587C51.2412 24.4801 51.2373 24.5013 51.2324 24.5222C51.23 24.5436 51.2271 24.5649 51.2236 24.5864C51.2163 24.6288 51.2095 24.6711 51.2031 24.7136C51.1997 24.735 51.1958 24.7562 51.1919 24.7771C51.1895 24.7985 51.187 24.8197 51.1841 24.8411C51.1777 24.8837 51.1719 24.9263 51.166 24.9689C51.165 24.9758 51.1641 24.9828 51.1626 24.9896C53.7393 21.5901 58.3979 18.4426 66.6421 18.0245L66.6421 17.9775C66.9624 17.9775 67.2773 17.9814 67.5879 17.989C67.8984 17.9814 68.2139 17.9775 68.5342 17.9775L68.5342 18.0245C76.7783 18.4426 81.4365 21.5901 84.0132 24.9896C84.0122 24.9827 84.0112 24.9757 84.0103 24.9689C84.0083 24.9537 84.0059 24.9386 84.0039 24.9235C84 24.896 83.9961 24.8685 83.9922 24.8411C83.9893 24.8197 83.9863 24.7983 83.9844 24.7771C83.98 24.7561 83.9761 24.735 83.9731 24.7136C83.9663 24.6711 83.9595 24.6288 83.9526 24.5864C83.9492 24.5649 83.9463 24.5436 83.9438 24.5222C83.939 24.5012 83.9351 24.4801 83.9312 24.4587C83.9238 24.4161 83.916 24.3738 83.9087 24.3313C83.9067 24.3203 83.9048 24.3093 83.9028 24.2983Q83.9004 24.283 83.8984 24.2676C83.8936 24.2467 83.8887 24.2256 83.8848 24.2043C83.8765 24.1621 83.8682 24.1199 83.8599 24.0778C83.8555 24.0565 83.8521 24.0354 83.8486 24.0142C83.8433 23.9935 83.8384 23.9725 83.834 23.9514C83.8296 23.931 83.8257 23.9108 83.8213 23.8905C83.8164 23.8688 83.8115 23.847 83.8071 23.8253C83.8022 23.8042 83.7983 23.783 83.7944 23.7618C83.7891 23.7411 83.7837 23.7202 83.7788 23.699C83.7734 23.6753 83.7681 23.6516 83.7622 23.6281C83.7583 23.6096 83.7539 23.5913 83.7495 23.5731C83.7461 23.5594 83.7432 23.5458 83.7402 23.5321C83.7388 23.5247 83.7373 23.5172 83.7358 23.5099C83.73 23.4893 83.7241 23.4685 83.7188 23.4475C83.7085 23.4056 83.6982 23.3639 83.6875 23.3223C83.6841 23.3087 83.6807 23.2952 83.6777 23.2817C83.6763 23.276 83.6753 23.2704 83.6738 23.2646L83.6729 23.2594C83.6709 23.2535 83.6689 23.2476 83.6675 23.2417C83.6631 23.2271 83.6587 23.2123 83.6548 23.1974C83.644 23.1559 83.6328 23.1144 83.6211 23.0729C83.6152 23.052 83.6104 23.031 83.6055 23.01C83.5986 22.9897 83.5923 22.9691 83.5864 22.9482C83.5747 22.9067 83.5625 22.8654 83.5503 22.824C83.5444 22.8032 83.5386 22.7823 83.5337 22.7616C83.5264 22.7413 83.5195 22.7208 83.5132 22.7002C83.501 22.6589 83.4883 22.6178 83.4751 22.5767C83.4717 22.5646 83.4678 22.5525 83.4644 22.5404C83.4619 22.5319 83.4595 22.5232 83.4575 22.5146C83.4531 22.5032 83.4492 22.4917 83.4448 22.4801C83.4419 22.4713 83.439 22.4625 83.436 22.4536C83.4229 22.4127 83.4097 22.3717 83.396 22.3309C83.3892 22.3103 83.3828 22.2897 83.377 22.269C83.3726 22.2582 83.3687 22.2473 83.3643 22.2363Q83.3618 22.229 83.3594 22.2217C83.3574 22.2173 83.356 22.2128 83.3545 22.2083C83.3408 22.1675 83.3267 22.1267 83.312 22.0861C83.3047 22.0656 83.2983 22.045 83.292 22.0245C83.2837 22.0046 83.2759 21.9846 83.2686 21.9642L83.2563 21.9304C83.2456 21.9012 83.2349 21.8721 83.2241 21.8429C83.2212 21.8353 83.2188 21.8278 83.2158 21.8202C83.2114 21.8074 83.207 21.7946 83.2031 21.7817C83.1943 21.7621 83.1865 21.7422 83.1787 21.7219C83.1631 21.6816 83.1475 21.6415 83.1318 21.6013C83.1284 21.5925 83.125 21.5837 83.1221 21.575C83.1177 21.5635 83.1138 21.552 83.1099 21.5405C83.1006 21.5209 83.0923 21.5011 83.084 21.481C83.0679 21.4409 83.0518 21.4009 83.0356 21.361C83.0273 21.3409 83.0195 21.3208 83.0122 21.3007C83.0029 21.2812 82.9941 21.2615 82.9858 21.2416C82.9766 21.2197 82.9673 21.1979 82.958 21.1761C82.9502 21.1582 82.9424 21.1404 82.9346 21.1226C82.9263 21.1027 82.918 21.0826 82.9106 21.0626C82.9009 21.0433 82.8916 21.0238 82.8828 21.004C82.8657 20.9646 82.8481 20.9252 82.8301 20.8859C82.8213 20.8661 82.8125 20.8462 82.8047 20.8263C82.7949 20.8071 82.7852 20.7878 82.7764 20.7681C82.7578 20.7289 82.7397 20.6898 82.7212 20.6508C82.7119 20.6311 82.7031 20.6115 82.6948 20.5916C82.6846 20.5726 82.6748 20.5535 82.6655 20.5339C82.6465 20.4951 82.6274 20.4563 82.6084 20.4176C82.5986 20.3981 82.5898 20.3785 82.5811 20.3589C82.5703 20.3401 82.5601 20.3212 82.5503 20.3018C82.5308 20.2632 82.5112 20.2247 82.4917 20.1863C82.4814 20.167 82.4722 20.1476 82.4629 20.1281C82.4521 20.1095 82.4419 20.0906 82.4316 20.0714C82.4116 20.0332 82.3911 19.995 82.3706 19.9569C82.3604 19.9379 82.3506 19.9186 82.3413 19.8992C82.335 19.8889 82.3291 19.8785 82.3228 19.868C82.3179 19.8599 82.3135 19.8514 82.3086 19.843C82.2881 19.8052 82.2671 19.7673 82.2461 19.7296C82.2354 19.7107 82.2251 19.6915 82.2153 19.6724C82.2041 19.6542 82.1929 19.6356 82.1821 19.6167C82.1606 19.5792 82.1392 19.5417 82.1172 19.5044C82.1143 19.4991 82.1113 19.494 82.1084 19.4888C82.1006 19.4751 82.0933 19.4614 82.0859 19.4475C82.0742 19.4296 82.0625 19.4113 82.0518 19.3926C82.042 19.3762 82.0322 19.36 82.0225 19.3436C82.0098 19.3229 81.9976 19.302 81.9849 19.2812C81.9736 19.2627 81.9629 19.2439 81.9526 19.225C81.9404 19.2072 81.9287 19.189 81.917 19.1705C81.9048 19.1505 81.8926 19.1306 81.8804 19.1108C81.8696 19.0939 81.8594 19.0771 81.8486 19.0603C81.8369 19.0419 81.8262 19.0233 81.8154 19.0045C81.8027 18.9869 81.791 18.969 81.7793 18.9507C81.7559 18.9142 81.7324 18.8778 81.7085 18.8416C81.6968 18.8234 81.6855 18.8049 81.6743 18.7864C81.6616 18.769 81.6494 18.7512 81.6372 18.7332C81.6133 18.697 81.5894 18.6611 81.5649 18.6252C81.5527 18.6072 81.541 18.589 81.5298 18.5706C81.5239 18.5626 81.5181 18.5546 81.5122 18.5465C81.5054 18.537 81.4985 18.5275 81.4922 18.5178C81.4673 18.4822 81.4429 18.4467 81.418 18.4111C81.4053 18.3933 81.3936 18.3752 81.3818 18.3571C81.3687 18.3401 81.3555 18.3228 81.3428 18.3049Q81.3203 18.2732 81.2974 18.2416C81.2876 18.2275 81.2773 18.2135 81.2671 18.1995C81.2593 18.189 81.252 18.1785 81.2446 18.168C81.2397 18.1606 81.2349 18.1533 81.23 18.146C81.2168 18.1293 81.2031 18.1121 81.1904 18.0946C81.1646 18.0597 81.1387 18.0249 81.1128 17.9902C81.0996 17.9729 81.0869 17.9552 81.0747 17.9374C81.061 17.9209 81.0474 17.9039 81.0342 17.8866C81.0078 17.8522 80.9814 17.8177 80.9551 17.7836C80.9414 17.7664 80.9287 17.7489 80.916 17.7312C80.9019 17.715 80.8882 17.6982 80.8745 17.681C80.8477 17.6471 80.8208 17.6132 80.7939 17.5793C80.7803 17.5624 80.7671 17.5452 80.7544 17.5277C80.749 17.5219 80.7437 17.5159 80.7383 17.5099C80.7295 17.4995 80.7207 17.489 80.7119 17.4783C80.6987 17.4624 80.686 17.4464 80.6729 17.4305C80.6582 17.413 80.6436 17.3954 80.6294 17.3779C80.6235 17.371 80.6177 17.364 80.6123 17.3571C80.6045 17.347 80.5962 17.337 80.5889 17.3269C80.5742 17.311 80.5596 17.2948 80.5459 17.2781C80.5176 17.245 80.4897 17.2119 80.4614 17.179C80.4473 17.1624 80.4331 17.1456 80.4199 17.1285C80.4053 17.1129 80.3906 17.0969 80.376 17.0804C80.3477 17.0477 80.3188 17.0153 80.29 16.9828C80.2759 16.9664 80.2617 16.9498 80.248 16.9331C80.2329 16.9177 80.2183 16.902 80.2036 16.8857C80.1963 16.8779 80.1895 16.8702 80.1826 16.8624C80.1719 16.8511 80.1616 16.8396 80.1514 16.8282C80.1396 16.8153 80.1279 16.8024 80.1157 16.7893C80.1079 16.7808 80.1001 16.7721 80.0928 16.7633C80.0859 16.7557 80.0796 16.748 80.0728 16.7404C80.0669 16.7344 80.061 16.7283 80.0547 16.7222C80.0454 16.7129 80.0366 16.7034 80.0273 16.6936C79.998 16.6619 79.9683 16.6301 79.9385 16.5986C79.9233 16.5828 79.9087 16.5667 79.8945 16.5503C79.8789 16.5354 79.8633 16.52 79.8481 16.5043Q79.8032 16.4574 79.7578 16.4108C79.7461 16.3987 79.7344 16.3864 79.7227 16.3738C79.7197 16.3702 79.7163 16.3667 79.7134 16.3632C79.6973 16.3485 79.6816 16.3335 79.6665 16.318C79.6357 16.2872 79.605 16.2565 79.5742 16.226C79.5586 16.2106 79.5435 16.1948 79.5288 16.179C79.5127 16.1646 79.4971 16.1498 79.4814 16.1345C79.4502 16.1041 79.4189 16.0739 79.3877 16.0438C79.3823 16.0388 79.377 16.0337 79.3721 16.0286C79.3618 16.0184 79.3516 16.0081 79.3413 15.9976C79.3252 15.9834 79.3091 15.9689 79.293 15.9539C79.2754 15.9371 79.2578 15.9205 79.2402 15.9041C79.2261 15.8909 79.2119 15.8778 79.1982 15.8647C79.1821 15.8499 79.1665 15.8347 79.1514 15.8192C79.1348 15.8054 79.1182 15.7911 79.1021 15.7764C79.0703 15.7471 79.0381 15.7178 79.0059 15.6887C78.9893 15.6741 78.9736 15.6592 78.958 15.6439C78.9414 15.6304 78.9248 15.6163 78.9082 15.6018C78.876 15.5729 78.8433 15.5442 78.8105 15.5156C78.7939 15.5012 78.7778 15.4866 78.7622 15.4716C78.7539 15.465 78.7456 15.4584 78.7373 15.4515Q78.7246 15.441 78.7119 15.4302C78.6958 15.4164 78.6797 15.4026 78.6636 15.3889C78.6465 15.3745 78.6294 15.3601 78.6123 15.3457C78.5957 15.3315 78.5796 15.3171 78.5635 15.3025C78.5464 15.2894 78.5293 15.2759 78.5127 15.2618C78.4941 15.2465 78.4756 15.2312 78.457 15.2158C78.4419 15.2035 78.4268 15.1912 78.4121 15.1788C78.395 15.165 78.3784 15.1509 78.3623 15.1364C78.3574 15.1328 78.3525 15.1293 78.3477 15.1256C78.3354 15.1162 78.3228 15.1066 78.3105 15.0966C78.2939 15.0834 78.2778 15.0702 78.2612 15.0571C78.2437 15.0431 78.2261 15.0291 78.2085 15.0151C78.1914 15.0015 78.1748 14.9875 78.1582 14.9734C78.1406 14.9608 78.123 14.9479 78.106 14.9343C78.0874 14.9199 78.0688 14.9055 78.0498 14.8911C78.0342 14.8789 78.0186 14.8668 78.0024 14.8546C77.9854 14.8413 77.9683 14.8278 77.9517 14.8137C77.9341 14.8015 77.9165 14.7888 77.8989 14.7756C77.8643 14.7495 77.8291 14.7234 77.7944 14.6974C77.7769 14.6843 77.7598 14.671 77.7427 14.6573C77.7246 14.6454 77.707 14.6329 77.689 14.62C77.6538 14.5944 77.6187 14.5687 77.5835 14.5433C77.5654 14.5305 77.5483 14.5175 77.5312 14.504C77.5127 14.4923 77.4946 14.4801 77.4771 14.4675C77.4414 14.4424 77.4058 14.4175 77.3701 14.3927C77.3521 14.3801 77.3345 14.3673 77.3174 14.3542C77.2988 14.3428 77.2808 14.3309 77.2627 14.3186C77.2266 14.2941 77.1904 14.2697 77.1543 14.2454C77.1362 14.2332 77.1187 14.2206 77.1011 14.2076C77.0825 14.1965 77.064 14.1849 77.0459 14.1729C77.0093 14.1488 76.9731 14.125 76.9365 14.1012C76.918 14.0892 76.8999 14.077 76.8823 14.0643C76.8638 14.0536 76.8447 14.0422 76.8267 14.0304C76.8086 14.019 76.7905 14.0077 76.7729 13.9963C76.7539 13.9844 76.7354 13.9725 76.7163 13.9607C76.6978 13.949 76.6797 13.937 76.6616 13.9247C76.6426 13.9142 76.624 13.9032 76.6055 13.8917C76.5684 13.8688 76.5312 13.8461 76.4941 13.8235C76.4849 13.818 76.4756 13.8124 76.4668 13.8066C76.4575 13.8007 76.4482 13.7946 76.439 13.7883C76.4199 13.7781 76.4009 13.7673 76.3818 13.7562C76.3442 13.7339 76.3071 13.7117 76.269 13.6897C76.2505 13.6786 76.2319 13.6671 76.2134 13.6554C76.1943 13.6454 76.1753 13.635 76.1562 13.624C76.1187 13.6024 76.0806 13.5808 76.043 13.5594C76.0239 13.5487 76.0049 13.5376 75.9868 13.5261C75.9673 13.5165 75.9478 13.5063 75.9287 13.4957C75.8906 13.4746 75.8525 13.4536 75.8145 13.4327C75.7949 13.4224 75.7764 13.4115 75.7578 13.4003C75.7485 13.3958 75.7393 13.3912 75.73 13.3866C75.7231 13.3832 75.7158 13.3795 75.709 13.376C75.7056 13.3741 75.7026 13.3724 75.6992 13.3707C75.6606 13.3501 75.6221 13.3297 75.5835 13.3094C75.564 13.2993 75.5449 13.2887 75.5264 13.2777C75.5063 13.2687 75.4868 13.2592 75.4673 13.2491C75.4287 13.2292 75.3901 13.2095 75.3511 13.1899C75.3315 13.1801 75.3125 13.1698 75.2935 13.1592C75.2734 13.1504 75.2539 13.1412 75.2344 13.1315C75.1953 13.1122 75.1562 13.093 75.1172 13.074C75.0972 13.0643 75.0781 13.0543 75.0586 13.0441C75.0391 13.0356 75.019 13.0266 74.999 13.0172C74.9824 13.0092 74.9653 13.0011 74.9482 12.9932C74.9258 12.9825 74.9033 12.9719 74.8809 12.9614C74.8608 12.9521 74.8413 12.9424 74.8218 12.9324C74.8018 12.9242 74.7817 12.9156 74.7617 12.9065C74.7222 12.8884 74.6826 12.8705 74.6431 12.8527C74.6343 12.8488 74.6255 12.8447 74.6167 12.8406C74.606 12.8354 74.5947 12.8301 74.584 12.8246C74.564 12.8168 74.5435 12.8085 74.5234 12.7997C74.5029 12.7905 74.4819 12.7815 74.4609 12.7723C74.4492 12.7673 74.438 12.7623 74.4263 12.7573L74.4038 12.7477C74.3838 12.739 74.3638 12.7299 74.3442 12.7205C74.3237 12.7129 74.3037 12.705 74.2832 12.6964C74.2432 12.6796 74.2026 12.6627 74.1626 12.6461C74.1421 12.6378 74.1221 12.629 74.1025 12.6199C74.082 12.6127 74.0615 12.605 74.041 12.5967C74.0005 12.5804 73.9604 12.5643 73.9199 12.5485C73.8994 12.5404 73.8794 12.532 73.8594 12.5232C73.8389 12.5162 73.8184 12.5089 73.7983 12.5011C73.7842 12.4957 73.7705 12.4905 73.7568 12.4852L73.7383 12.4781C73.7178 12.4702 73.6968 12.4624 73.6758 12.4546C73.6553 12.4469 73.6353 12.4387 73.6152 12.4302C73.5947 12.4236 73.5737 12.4165 73.5532 12.4089C73.5122 12.3939 73.4712 12.379 73.4302 12.3643C73.4097 12.3568 73.3892 12.349 73.3691 12.3407C73.3481 12.3345 73.3276 12.3278 73.3066 12.3204C73.2656 12.3062 73.2246 12.2919 73.1831 12.2778C73.1626 12.2708 73.1421 12.2632 73.1221 12.2554C73.1011 12.2494 73.0801 12.243 73.0596 12.2361C73.0181 12.2223 72.9771 12.2087 72.9355 12.1953C72.9146 12.1885 72.894 12.1813 72.8735 12.1737C72.8525 12.1681 72.8315 12.162 72.8105 12.1554C72.769 12.1422 72.7275 12.1293 72.6855 12.1163C72.6646 12.1099 72.644 12.103 72.6235 12.0957C72.6025 12.0903 72.5811 12.0846 72.5601 12.0782C72.5186 12.0658 72.4766 12.0535 72.4351 12.0413C72.4141 12.0352 72.3931 12.0286 72.3726 12.0216C72.3516 12.0167 72.3306 12.0112 72.3096 12.0052Q72.2466 11.9875 72.1836 11.9702C72.1621 11.9644 72.1416 11.9581 72.1206 11.9514C72.0996 11.9469 72.0781 11.9417 72.0571 11.936C72.0151 11.9248 71.9727 11.9138 71.9307 11.9028C71.9092 11.8973 71.8882 11.8914 71.8672 11.885C71.8462 11.8807 71.8247 11.8759 71.8032 11.8706C71.7832 11.8655 71.7627 11.8604 71.7422 11.8553C71.7202 11.85 71.6982 11.8446 71.6763 11.8392C71.6548 11.8341 71.6338 11.8285 71.6133 11.8225C71.5918 11.8185 71.5703 11.8141 71.5493 11.8091C71.5068 11.7992 71.4644 11.7894 71.4219 11.7798C71.4004 11.775 71.3794 11.7697 71.3584 11.7639C71.3369 11.7603 71.3154 11.7561 71.2939 11.7515C71.2515 11.7422 71.209 11.733 71.166 11.7241C71.1445 11.7196 71.123 11.7146 71.1021 11.7091C71.0806 11.7058 71.0591 11.702 71.0376 11.6976C71.0161 11.6934 70.9951 11.6891 70.9736 11.6848C70.9521 11.6805 70.9307 11.6764 70.9087 11.6721C70.8872 11.668 70.8662 11.6633 70.8452 11.6582C70.8237 11.6553 70.8022 11.6517 70.7808 11.6478C70.7378 11.6398 70.6948 11.632 70.6523 11.6244C70.6304 11.6205 70.6094 11.6162 70.5879 11.6115C70.5664 11.6088 70.5449 11.6056 70.5234 11.6018C70.4805 11.5945 70.437 11.5874 70.394 11.5803C70.3726 11.5768 70.3511 11.5728 70.3296 11.5684C70.3081 11.5659 70.2861 11.5631 70.2646 11.5597C70.2212 11.5531 70.1777 11.5465 70.1348 11.5402C70.1128 11.537 70.0913 11.5333 70.0703 11.5292C70.0488 11.5271 70.0269 11.5247 70.0054 11.5216C69.9624 11.5156 69.9189 11.5098 69.876 11.504C69.854 11.5012 69.8325 11.4978 69.811 11.494C69.7896 11.4923 69.7681 11.4901 69.7461 11.4874C69.7026 11.4821 69.6597 11.4768 69.6162 11.4718C69.5942 11.4692 69.5728 11.4662 69.5513 11.4626C69.5293 11.4613 69.5073 11.4595 69.4858 11.457C69.4424 11.4524 69.3984 11.4478 69.355 11.4434C69.333 11.4412 69.3115 11.4385 69.29 11.4353C69.2681 11.4342 69.2466 11.4327 69.2246 11.4307C69.1982 11.4282 69.1714 11.4258 69.145 11.4233C69.1279 11.4219 69.1113 11.4204 69.0947 11.4189C69.084 11.4181 69.0737 11.4171 69.0635 11.416C69.0522 11.4148 69.041 11.4133 69.0293 11.4119C69.0166 11.4115 69.0034 11.4109 68.9902 11.41C68.9814 11.4095 68.9731 11.4089 68.9644 11.4082C68.9209 11.4048 68.877 11.4016 68.8335 11.3984C68.8115 11.397 68.79 11.3949 68.7681 11.3923C68.7466 11.392 68.7246 11.3911 68.7026 11.3896C68.6592 11.387 68.6152 11.3843 68.5713 11.3818C68.5493 11.3806 68.5278 11.3789 68.5059 11.3767C68.4839 11.3766 68.4619 11.3761 68.4399 11.375C68.3965 11.3729 68.353 11.371 68.3096 11.3691C68.2876 11.3683 68.2661 11.3669 68.2446 11.365C68.2373 11.3651 68.2295 11.3651 68.2222 11.3651C68.208 11.3651 68.1934 11.3647 68.1792 11.3643C68.1523 11.3634 68.1255 11.3625 68.0991 11.3618L68.0737 11.3611L68.0483 11.3605C68.0264 11.3599 68.0044 11.3588 67.9824 11.3572C67.9609 11.3578 67.939 11.3579 67.917 11.3575C67.873 11.3567 67.8296 11.3561 67.7856 11.3556C67.7637 11.3552 67.7417 11.3545 67.7197 11.3533C67.6978 11.3542 67.6763 11.3546 67.6538 11.3545L67.6357 11.3545C67.6196 11.3545 67.604 11.3544 67.5879 11.3544ZM84.1694 32.8999C84.1572 32.834 84.1499 32.7665 84.147 32.6976L84.147 32.6909C84.146 32.6768 84.144 32.6509 84.1411 32.6139C84.1348 32.5399 84.123 32.4224 84.1021 32.2672C84.0591 31.9567 83.9785 31.4989 83.8286 30.9432C83.5283 29.8293 82.9551 28.3433 81.8667 26.8594C79.8184 24.0662 75.772 21.0449 67.5879 20.8285C59.4043 21.0449 55.3574 24.0662 53.3096 26.8594C52.2212 28.3433 51.6479 29.8293 51.3472 30.9432C51.1973 31.4989 51.1172 31.9567 51.0742 32.2672C51.0532 32.4224 51.041 32.5399 51.0352 32.6139C51.0342 32.6246 51.0332 32.6344 51.0327 32.6433L51.0542 32.6433C51.0542 38.311 52.6548 42.22 55.4453 45.0941C58.2603 47.9935 62.4233 49.9838 67.8501 51.5107C73.0308 49.986 77.0747 47.9995 79.832 45.1014C82.5283 42.2679 84.1216 38.4282 84.1694 32.8999ZM77.3525 33.5903C76.6821 33.5836 75.8818 33.8965 74.6226 34.9335C74.2192 35.2656 73.623 35.208 73.291 34.8046C73.1455 34.6284 73.0747 34.4154 73.0747 34.2036C73.0747 33.9307 73.1924 33.6598 73.4194 33.4728C74.7891 32.3447 76.0254 31.6846 77.3716 31.698C78.6924 31.7113 79.8975 32.3761 81.1904 33.2933C81.4507 33.4778 81.5894 33.7695 81.5894 34.0658C81.5894 34.2551 81.5327 34.4463 81.4146 34.6125C81.1123 35.0387 80.5215 35.139 80.0952 34.8367C78.8398 33.9459 78.0488 33.5973 77.3525 33.5903ZM57.0508 36.4384C56.9116 36.5389 56.7661 36.649 56.6138 36.7692C56.2036 37.0929 55.6084 37.0228 55.2847 36.6125C55.1479 36.439 55.0815 36.2323 55.0815 36.0271C55.0815 35.7473 55.2051 35.4705 55.4414 35.2837C56.834 34.1846 58.084 33.5503 59.4297 33.5918C60.7495 33.6326 61.9409 34.3223 63.2144 35.2664C63.4648 35.4519 63.5972 35.7377 63.5972 36.0272C63.5972 36.223 63.5366 36.4205 63.4111 36.5898C63.0996 37.0096 62.5073 37.0978 62.0874 36.7865C60.8506 35.8698 60.0669 35.5048 59.3711 35.4833C59.1929 35.4778 59.0049 35.4946 58.8008 35.5415C59.3862 35.7167 59.8125 36.2592 59.8125 36.9012C59.8125 37.6851 59.1768 38.3206 58.3931 38.3206C57.6094 38.3206 56.9736 37.6851 56.9736 36.9012C56.9736 36.7391 57.001 36.5835 57.0508 36.4384ZM76.3706 38.321C75.5864 38.321 74.9512 37.6857 74.9512 36.9017C74.9512 36.1179 75.5864 35.4825 76.3706 35.4825C77.1543 35.4825 77.7896 36.1179 77.7896 36.9017C77.7896 37.6857 77.1543 38.321 76.3706 38.321ZM64.0703 42.1055C64.0703 41.3215 64.7056 40.6862 65.4893 40.6862L68.3281 40.6862C69.1118 40.6862 69.7471 41.3215 69.7471 42.1055C69.7471 42.8893 69.1118 43.5247 68.3281 43.5247L65.4893 43.5247C64.7056 43.5247 64.0703 42.8893 64.0703 42.1055ZM57.9199 50.5505L57.9199 53.4598C57.9199 53.6257 57.8916 53.7849 57.8394 53.9329C57.8916 54.0809 57.9199 54.2401 57.9199 54.406C57.9199 58.3937 62.0649 62.4486 67.623 62.4486C70.3574 62.4486 72.938 61.4424 74.8208 59.8975C76.7056 58.3508 77.7808 56.3672 77.79 54.4302C77.7896 54.4218 77.7896 54.4133 77.7896 54.4048C77.7896 54.2867 77.8042 54.1676 77.835 54.0505C77.8452 54.0106 77.8569 53.9714 77.8706 53.9329C77.8184 53.7849 77.79 53.6257 77.79 53.4598L77.79 50.3521C75.1172 52.0155 71.9761 53.2642 68.5127 54.2743C68.0913 54.3972 67.6411 54.3995 67.2192 54.2819C63.7397 53.3112 60.6006 52.1202 57.9199 50.5505ZM36.1577 63.3948C36.9419 63.3948 37.5771 64.0302 37.5771 64.8141L37.5771 69.5449C37.5771 70.3287 36.9419 70.9642 36.1577 70.9642C35.374 70.9642 34.7388 70.3287 34.7388 69.5449L34.7388 64.8141C34.7388 64.0302 35.374 63.3948 36.1577 63.3948ZM26.6387 67.595C27.1929 67.0408 28.0918 67.0408 28.646 67.595L31.9912 70.9403C32.2681 71.2174 32.4067 71.5807 32.4067 71.9438C32.4067 72.3071 32.2681 72.6703 31.9912 72.9474C31.437 73.5017 30.5381 73.5017 29.9839 72.9474L26.6387 69.6022C26.3618 69.3251 26.2231 68.9618 26.2231 68.5986C26.2231 68.2354 26.3618 67.8722 26.6387 67.595ZM46.5996 69.545C46.5996 69.9082 46.4609 70.2715 46.1836 70.5486L42.8384 73.8938C42.2842 74.4481 41.3857 74.4481 40.8315 73.8938C40.5542 73.6167 40.4155 73.2535 40.4155 72.8903C40.4155 72.5271 40.5542 72.1638 40.8315 71.8867L44.1768 68.5415C44.731 67.9872 45.6294 67.9872 46.1836 68.5415C46.4609 68.8186 46.5996 69.1818 46.5996 69.545ZM36.1577 81.8453C33.5449 81.8453 31.4268 79.7272 31.4268 77.1144C31.4268 74.5016 33.5449 72.3834 36.1577 72.3834C38.7705 72.3834 40.8887 74.5016 40.8887 77.1144C40.8887 79.7272 38.7705 81.8453 36.1577 81.8453ZM11.7568 75.9075C12.4233 75.495 13.2979 75.701 13.7104 76.3677L24.4165 93.6725L42.7812 93.6725C43.5649 93.6725 44.2007 94.308 44.2007 95.0918C44.2007 95.8756 43.5649 96.5111 42.7812 96.5111L24.1533 96.5111C23.3335 96.5111 22.5728 96.087 22.1416 95.3901L11.2964 77.8611C11.1523 77.6284 11.084 77.3705 11.084 77.1157C11.084 76.6404 11.3228 76.1759 11.7568 75.9075ZM30.0078 77.1144C30.0078 77.8982 29.3721 78.5336 28.5884 78.5336L23.8574 78.5336C23.0737 78.5336 22.4385 77.8982 22.4385 77.1144C22.4385 76.3306 23.0737 75.6951 23.8574 75.6951L28.5884 75.6951C29.3721 75.6951 30.0078 76.3306 30.0078 77.1144ZM49.8774 77.1144C49.8774 77.8982 49.2422 78.5336 48.458 78.5336L43.7271 78.5336C42.9434 78.5336 42.3081 77.8982 42.3081 77.1144C42.3081 76.3306 42.9434 75.6951 43.7271 75.6951L48.458 75.6951C49.2422 75.6951 49.8774 76.3306 49.8774 77.1144ZM31.9912 81.788C32.2681 82.0651 32.4067 82.4283 32.4067 82.7915C32.4067 83.1548 32.2681 83.5179 31.9912 83.7952L28.646 87.1404C28.0918 87.6946 27.1929 87.6946 26.6387 87.1404C26.3618 86.8633 26.2231 86.5 26.2231 86.1368C26.2231 85.7736 26.3618 85.4104 26.6387 85.1332L29.9839 81.788C30.5381 81.2336 31.437 81.2336 31.9912 81.788ZM39.8853 81.788C40.4395 81.2336 41.3379 81.2336 41.8921 81.788L45.2373 85.1332C45.5146 85.4104 45.6533 85.7736 45.6533 86.1368C45.6533 86.5 45.5146 86.8633 45.2373 87.1404C44.6831 87.6946 43.7847 87.6946 43.2305 87.1404L39.8853 83.7952C39.6079 83.5179 39.4692 83.1548 39.4692 82.7915C39.4692 82.4283 39.6079 82.0651 39.8853 81.788ZM37.5771 84.6838L37.5771 89.4148C37.5771 90.1986 36.9419 90.8341 36.1577 90.8341C35.374 90.8341 34.7388 90.1986 34.7388 89.4148L34.7388 84.6838C34.7388 83.9 35.374 83.2646 36.1577 83.2646C36.9419 83.2646 37.5771 83.9 37.5771 84.6838ZM64.0703 132.699L61.2314 132.699L61.2314 137.197L64.0703 137.197L64.0703 132.699ZM77.3169 132.699L66.9087 132.699L66.9087 139.553L66.9087 139.562L66.9087 148.79C67.0161 148.709 67.1313 148.637 67.2539 148.574L69.9521 147.199L76.4507 143.112L76.4507 139.562C76.4507 138.825 76.7881 138.166 77.3169 137.732L77.3169 132.699ZM82.9937 132.699L80.1553 132.699L80.1553 137.197L82.9937 137.197L82.9937 132.699ZM64.0703 140.035L60.3657 140.035L60.3657 143.373C60.3657 144.186 59.9478 144.943 59.2598 145.375L52.4312 149.67L50.915 150.443L56.4619 150.443L59.7383 148.623C61.2412 147.788 63.0723 148.786 63.2397 150.443L64.0703 150.443L64.0703 140.035ZM79.2891 140.035L79.2891 143.373C79.2891 144.186 78.8716 144.943 78.1831 145.375L71.355 149.67L69.8389 150.443L75.3853 150.443L78.6621 148.623C80.165 147.788 81.9956 148.786 82.1636 150.443L82.9937 150.443L82.9937 140.035L79.2891 140.035Z" fill-rule="evenodd" fill="#080A0D"/>
	<path id="Sun on screen" d="M7.968 174.574C7.408 173.918 6.576 173.374 5.248 173.374C3.664 173.374 2.672 174.11 2.672 175.374C2.672 175.902 2.912 176.702 4.384 177.198L6.704 177.966C8.624 178.606 9.376 179.662 9.376 181.102C9.376 183.166 7.76 184.398 5.136 184.398C3.216 184.398 1.728 183.71 0.832 182.398C0.736 182.254 0.752 182.142 0.928 182.014L1.504 181.614C1.696 181.47 1.808 181.502 1.904 181.614C2.752 182.702 3.472 183.23 5.072 183.23C6.768 183.23 7.904 182.67 7.904 181.262C7.904 180.478 7.536 179.902 6.096 179.374L3.664 178.542C1.888 177.934 1.2 176.734 1.2 175.518C1.2 173.502 2.832 172.206 5.248 172.206C6.848 172.206 8.128 172.814 8.992 173.79C9.072 173.886 9.12 173.982 8.992 174.094L8.256 174.67C8.16 174.75 8.112 174.718 7.968 174.574ZM14.362 183.342C15.274 183.342 16.106 182.798 16.938 181.95L16.938 175.982C16.938 175.838 17.018 175.758 17.194 175.758L18.074 175.758C18.218 175.758 18.298 175.822 18.298 175.982L18.266 184.03C18.266 184.174 18.218 184.238 18.09 184.238L17.162 184.238C17.034 184.238 16.986 184.19 16.986 184.062L16.986 183.118C16.986 183.006 16.938 182.974 16.842 183.07C15.658 184.078 14.826 184.398 13.93 184.398C12.458 184.398 11.37 183.438 11.37 181.95L11.37 175.998C11.37 175.838 11.45 175.758 11.61 175.758L12.506 175.758C12.65 175.758 12.714 175.822 12.714 175.982L12.714 181.598C12.714 182.654 13.338 183.342 14.362 183.342ZM20.9716 184.238C20.8116 184.238 20.7476 184.174 20.7476 184.03L20.7476 175.966C20.7476 175.838 20.8116 175.758 20.9236 175.758L21.8836 175.758C21.9956 175.758 22.0596 175.822 22.0596 175.934L22.0596 176.862C22.0596 176.974 22.0916 177.006 22.2036 176.91C23.2756 176.078 24.0276 175.598 25.1476 175.598C26.7956 175.598 27.7236 176.574 27.7236 178.014L27.7236 183.982C27.7236 184.158 27.6436 184.238 27.4836 184.238L26.5876 184.238C26.4436 184.238 26.3796 184.174 26.3796 184.03L26.3796 178.318C26.3796 177.278 25.8676 176.654 24.7156 176.654C23.7556 176.654 23.0996 177.086 22.0916 177.95L22.0916 183.998C22.0916 184.174 22.0276 184.238 21.8516 184.238L20.9716 184.238ZM37.0809 184.398C34.6489 184.398 33.0329 182.606 33.0329 180.046C33.0329 177.422 34.7129 175.598 37.0969 175.598C39.5129 175.598 41.1289 177.438 41.1289 180.03C41.1289 182.59 39.4969 184.398 37.0809 184.398ZM37.1129 183.39C38.7769 183.39 39.7529 182.11 39.7529 179.998C39.7529 177.902 38.7449 176.59 37.0969 176.59C35.4329 176.59 34.4089 177.902 34.4089 179.998C34.4089 182.094 35.4329 183.39 37.1129 183.39ZM43.331 184.238C43.171 184.238 43.107 184.174 43.107 184.03L43.107 175.966C43.107 175.838 43.171 175.758 43.283 175.758L44.243 175.758C44.355 175.758 44.419 175.822 44.419 175.934L44.419 176.862C44.419 176.974 44.451 177.006 44.563 176.91C45.635 176.078 46.387 175.598 47.507 175.598C49.155 175.598 50.083 176.574 50.083 178.014L50.083 183.982C50.083 184.158 50.003 184.238 49.843 184.238L48.947 184.238C48.803 184.238 48.739 184.174 48.739 184.03L48.739 178.318C48.739 177.278 48.227 176.654 47.075 176.654C46.115 176.654 45.459 177.086 44.451 177.95L44.451 183.998C44.451 184.174 44.387 184.238 44.211 184.238L43.331 184.238ZM60.9762 177.63C60.5443 176.99 59.7603 176.542 58.7043 176.542C57.5522 176.542 56.7043 177.07 56.7043 177.902C56.7043 178.334 56.9443 178.766 58.0003 179.086L60.0322 179.694C61.4883 180.094 62.1123 180.894 62.1123 181.902C62.1123 183.406 60.6403 184.398 58.6562 184.398C56.9762 184.398 55.6323 183.662 55.1043 182.638C55.0402 182.526 55.0402 182.446 55.1362 182.382L55.7603 182.03C55.8722 181.966 55.9523 181.982 56.0003 182.046C56.5122 182.862 57.3442 183.422 58.6722 183.422C59.9043 183.406 60.8483 182.878 60.8483 182.046C60.8483 181.47 60.4163 181.07 59.2803 180.75L57.6323 180.286C56.0322 179.87 55.4562 179.118 55.4562 178.142C55.4403 176.622 56.7682 175.598 58.7202 175.598C60.1442 175.598 61.3122 176.19 61.9043 177.086C61.9683 177.182 61.9842 177.262 61.8883 177.31L61.2163 177.678C61.1362 177.726 61.0402 177.71 60.9762 177.63ZM67.5957 175.598C69.2438 175.598 70.2998 176.478 70.9078 177.582C70.9717 177.726 70.9398 177.79 70.8278 177.822L69.9478 178.03C69.8678 178.062 69.8037 178.03 69.7398 177.918C69.0837 177.038 68.5238 176.59 67.6758 176.59C66.0277 176.59 64.9557 177.886 64.9557 179.998C64.9557 182.126 66.0437 183.406 67.7077 183.406C68.7318 183.406 69.4518 182.894 70.0598 181.902C70.1237 181.806 70.1718 181.79 70.2678 181.838L70.9557 182.094C71.0358 182.126 71.0518 182.19 71.0198 182.302C70.4118 183.438 69.2917 184.398 67.5957 184.398C65.2278 184.398 63.5798 182.638 63.5798 180.03C63.5798 177.422 65.2598 175.598 67.5957 175.598ZM72.9716 184.238C72.8116 184.238 72.7476 184.174 72.7476 184.03L72.7476 175.966C72.7476 175.822 72.8116 175.758 72.9236 175.758L73.8516 175.758C73.9796 175.758 74.0276 175.822 74.0276 175.934L74.0276 176.974C74.0276 177.102 74.1076 177.134 74.2036 177.022C75.0356 176.046 75.8516 175.598 76.6836 175.598C77.0676 175.598 77.2436 175.662 77.2436 175.806L77.2436 176.766C77.2436 176.862 77.1956 176.91 77.0996 176.894C76.9076 176.862 76.6516 176.846 76.3796 176.846C75.4356 176.846 74.0916 177.774 74.0916 178.702L74.0916 183.998C74.0916 184.174 74.0116 184.238 73.8516 184.238L72.9716 184.238ZM79.5655 180.526C79.5655 182.094 80.7975 183.374 82.3655 183.374C83.4375 183.374 84.2535 182.942 84.8615 182.046C84.9415 181.966 84.9895 181.95 85.0855 181.998L85.7575 182.334C85.8375 182.382 85.8535 182.462 85.7895 182.558C84.9415 183.854 83.8215 184.398 82.2375 184.398C79.8695 184.398 78.1735 182.638 78.1735 180.078C78.1735 177.31 79.9335 175.598 82.2215 175.598C84.5415 175.598 86.0775 177.198 86.0775 179.934C86.0775 180.11 86.0935 180.286 85.8375 180.286L79.7095 180.286C79.6135 180.286 79.5655 180.382 79.5655 180.526ZM79.5975 179.406L84.4615 179.406C84.6855 179.406 84.7335 179.374 84.7335 179.182C84.7335 177.806 83.8215 176.558 82.2535 176.558C80.5415 176.558 79.5815 177.982 79.5975 179.406ZM88.8624 180.526C88.8624 182.094 90.0944 183.374 91.6624 183.374C92.7344 183.374 93.5504 182.942 94.1584 182.046C94.2384 181.966 94.2864 181.95 94.3824 181.998L95.0544 182.334C95.1344 182.382 95.1504 182.462 95.0864 182.558C94.2384 183.854 93.1184 184.398 91.5344 184.398C89.1664 184.398 87.4704 182.638 87.4704 180.078C87.4704 177.31 89.2304 175.598 91.5184 175.598C93.8384 175.598 95.3744 177.198 95.3744 179.934C95.3744 180.11 95.3904 180.286 95.1344 180.286L89.0064 180.286C88.9104 180.286 88.8624 180.382 88.8624 180.526ZM88.8944 179.406L93.7584 179.406C93.9824 179.406 94.0304 179.374 94.0304 179.182C94.0304 177.806 93.1184 176.558 91.5504 176.558C89.8384 176.558 88.8784 177.982 88.8944 179.406ZM97.4873 184.238C97.3272 184.238 97.2633 184.174 97.2633 184.03L97.2633 175.966C97.2633 175.838 97.3272 175.758 97.4392 175.758L98.3992 175.758C98.5113 175.758 98.5752 175.822 98.5752 175.934L98.5752 176.862C98.5752 176.974 98.6073 177.006 98.7193 176.91C99.7913 176.078 100.543 175.598 101.663 175.598C103.311 175.598 104.239 176.574 104.239 178.014L104.239 183.982C104.239 184.158 104.159 184.238 103.999 184.238L103.103 184.238C102.959 184.238 102.895 184.174 102.895 184.03L102.895 178.318C102.895 177.278 102.383 176.654 101.231 176.654C100.271 176.654 99.6152 177.086 98.6073 177.95L98.6073 183.998C98.6073 184.174 98.5433 184.238 98.3672 184.238L97.4873 184.238Z" fill-rule="evenodd" fill="#080A0D"/>
</svg>
