<svg width="116.000000" height="188.417969" viewBox="0 0 116 188.418" fill="none" xmlns="http://www.w3.org/2000/svg" xmlns:xlink="http://www.w3.org/1999/xlink">
	<desc>
			Created with Pixso.
	</desc>
	<defs/>
	<path id="Carrying a baby" d="M77.5366 16.4624L77.5366 23.9003C77.5366 29.9371 76.4858 35.8622 72.1699 40.3976C71.7871 40.8 71.5083 41.1594 71.0908 41.5299L71.0908 47.1066C71.0908 47.1462 71.0894 47.1857 71.0859 47.2246C76.2744 50.2351 80.7007 54.8818 83.3452 60.4572C83.8359 61.317 84.2202 62.2452 84.4814 63.2238C85.2896 65.5399 86.0654 68.3478 86.0654 70.8083L86.0654 87.6675C86.0654 89.0367 84.9556 90.1467 83.5864 90.1467L73.5698 90.1467L73.5698 103.138C73.5698 103.212 73.5645 103.284 73.5542 103.354C73.5649 103.446 73.5698 103.54 73.5698 103.634L73.5698 127.931C73.5698 128.101 73.5532 128.267 73.5205 128.427L73.5688 128.427L73.5713 138.925C74.1484 139.13 74.5615 139.68 74.5615 140.327L74.5615 150.939C74.5615 152.308 73.4517 153.418 72.0825 153.418L56.2148 153.418C55.4038 153.418 54.6841 153.029 54.2314 152.427C53.7793 153.029 53.0591 153.418 52.248 153.418L36.3809 153.418C35.0112 153.418 33.9014 152.308 33.9014 150.939L33.9014 150.443C33.9014 147.142 36.5508 144.493 39.8516 144.493L42.8267 144.493L42.8267 140.345C42.8267 140.339 42.8267 140.333 42.8267 140.327C42.8267 139.506 43.4927 138.84 44.3145 138.84L44.8105 138.84L44.8105 129.915C44.208 129.463 43.8188 128.742 43.8188 127.931L43.8188 103.634C43.8188 103.486 43.8315 103.342 43.8564 103.201C39.0083 101.697 35.4883 97.1766 35.4883 91.8331L35.4883 91.7499C35.4878 91.0928 35.4873 90.2427 35.6714 89.4274L31.1201 86.5443C30.4204 86.1011 29.9961 85.3303 29.9961 84.502L29.9961 77.7793C29.9561 77.6444 29.9346 77.5017 29.9346 77.3538L29.9346 69.916C29.9346 69.7145 29.9746 69.5225 30.0474 69.3473C30.8896 59.8473 36.395 51.7373 44.3213 47.2512C44.3169 47.2036 44.3145 47.1554 44.3145 47.1066L44.3145 42.2045C43.605 41.6459 42.9395 41.0496 42.3198 40.4115C39.4277 37.433 37.229 32.5779 36.8765 28.2638L36.8765 19.3384C36.8765 8.62415 46.0986 0 57.2065 0L61.1846 0C63.9678 0 66.2061 2.00916 66.5103 4.64172C72.6567 5.323 77.5366 10.2937 77.5366 16.4624ZM39.8516 19.3384C39.8516 10.4167 47.5879 2.9751 57.2065 2.9751L61.1846 2.9751C62.5854 2.9751 63.5703 4.0188 63.5703 5.2561C63.5703 6.54126 64.5991 7.48254 65.751 7.5603C70.7456 7.89771 74.5615 11.8187 74.5615 16.4624L74.5615 23.736C70.1299 23.1899 66.6479 19.2972 66.6279 14.4224L66.6279 14.3802C66.6279 13.5587 65.9619 12.8927 65.1406 12.8927C64.3188 12.8927 63.6528 13.5587 63.6528 14.3802L63.6528 14.4216C63.6299 19.4347 59.4761 23.5371 54.2935 23.5371C50.0146 23.5371 45.9541 25.673 43.5977 29.298L40.8804 32.4073C40.2085 30.3772 39.8516 28.0292 39.8516 25.2889L39.8516 19.3384ZM44.4546 38.339C43.5986 37.4578 42.8496 36.4836 42.2183 35.3977L45.8604 31.2302C45.9438 31.1348 46.0166 31.0367 46.0796 30.9391C46.2988 30.6001 46.5376 30.2777 46.7944 29.973C47.6211 29.439 48.2256 29.2546 48.7471 29.2557C47.9395 29.2717 47.29 29.9315 47.29 30.7429C47.29 31.5646 47.9561 32.2306 48.7773 32.2306C49.5991 32.2306 50.2651 31.5646 50.2651 30.7429C50.2651 29.9806 49.6914 29.3521 48.9521 29.2655C49.647 29.3307 50.4443 29.7234 51.6577 30.6227C52.0977 30.9489 52.7188 30.8566 53.0449 30.4166C53.3711 29.9767 53.2788 29.3556 52.8389 29.0294C51.8901 28.3259 50.9844 27.7571 50.043 27.4718C51.3521 26.8486 52.8037 26.5122 54.2935 26.5122C58.9199 26.5122 62.9707 24.0006 65.0806 20.2705C66.9282 23.823 70.4038 26.3405 74.5273 26.7253C74.2759 31.8994 72.647 35.5804 70.0146 38.3467C67.124 41.3843 62.8857 43.4663 57.4556 45.0643C51.7681 43.4639 47.4048 41.3779 44.4546 38.339ZM67.5898 29.2557C66.8994 29.2544 66.0649 29.5771 64.7632 30.6045C64.3335 30.9438 63.71 30.8704 63.3706 30.4404C63.0312 30.0105 63.1045 29.3868 63.5347 29.0476C64.9941 27.8955 66.3047 27.2307 67.7144 27.2743C69.0981 27.3169 70.3467 28.0399 71.6816 29.0294C72.1216 29.3556 72.2139 29.9767 71.8877 30.4166C71.5615 30.8566 70.9404 30.9489 70.5005 30.6227C69.2871 29.7231 68.4893 29.3304 67.7944 29.2655C68.5337 29.3518 69.1074 29.9803 69.1074 30.7429C69.1074 31.5646 68.4414 32.2306 67.6201 32.2306C66.7983 32.2306 66.1323 31.5646 66.1323 30.7429C66.1323 29.9315 66.7822 29.2717 67.5898 29.2557ZM54.7275 39.1727C54.7275 38.3512 55.3936 37.6852 56.2153 37.6852L59.1904 37.6852C60.0117 37.6852 60.6777 38.3512 60.6777 39.1727C60.6777 39.9944 60.0117 40.6604 59.1904 40.6604L56.2153 40.6604C55.3936 40.6604 54.7275 39.9944 54.7275 39.1727ZM47.2896 44.1979L47.2896 47.1066C47.2896 52.6039 51.9375 56.528 57.46 56.528C60.3257 56.528 63.0303 55.4733 65.0039 53.854C68.2095 51.2235 68.1714 48.3501 68.1265 44.9469C68.1211 44.5383 68.1157 44.1221 68.1157 43.6978C65.2627 45.5176 61.8853 46.8716 58.1504 47.9609C57.709 48.0897 57.2368 48.0922 56.7949 47.9689C53.252 46.9805 50.0454 45.7743 47.2896 44.1979ZM32.9097 71.9038L32.9097 73.4489L44.9067 73.4489C45.6938 73.4489 46.3325 74.0873 46.3325 74.8748C46.3325 75.6622 45.6938 76.3005 44.9067 76.3005L40.6392 76.3005L40.6392 81.4398L64.8984 57.9384L64.915 57.9554C65.9185 56.9562 67.1021 56.1378 68.4131 55.5533L68.4131 55.536L68.4521 55.536C69.896 54.8986 71.4932 54.5446 73.1733 54.5446C74.1377 54.5446 75.0747 54.6611 75.9707 54.8811C74.4121 53.2145 72.6523 51.7415 70.7529 50.5099C70.1357 52.6989 68.7188 54.6541 66.8911 56.1539C64.4033 58.1952 61.0361 59.5031 57.46 59.5031C51.3491 59.5031 45.9678 55.6066 44.6318 50.5348C37.5464 55.0513 32.9097 62.9052 32.9097 71.8994L32.9097 71.9038ZM76.6011 74.0559C76.4272 74.2041 76.2485 74.3466 76.0649 74.4833C79.4634 73.2902 81.9004 70.053 81.9004 66.2467C81.9004 65.5095 81.8091 64.7936 81.6367 64.1097C81.3623 63.3331 81.0493 62.5715 80.7002 61.8273C79.6865 60.1041 78.0977 58.7599 76.1978 58.058C78.5771 59.9076 80.1152 62.7096 80.1152 66.2465C80.1152 69.5028 78.7808 72.1975 76.6011 74.0559ZM64.4463 66.2467C64.4463 62.901 66.3291 59.9949 69.0928 58.5304C73.771 58.7981 77.1401 61.8317 77.1401 66.2465C77.1401 68.6315 76.1875 70.4987 74.6709 71.7917C73.2368 73.0143 71.2334 73.7738 68.9253 73.8718C66.2529 72.38 64.4463 69.5244 64.4463 66.2467ZM69.603 65.9491C70.4248 65.9491 71.0908 65.2831 71.0908 64.4614C71.0908 63.6399 70.4248 62.9739 69.603 62.9739C68.7812 62.9739 68.1152 63.6399 68.1152 64.4614C68.1152 65.2831 68.7812 65.9491 69.603 65.9491ZM61.7988 89.9966L58.4458 93.3495L56.0449 91.3907L56.2168 91.2253C56.6025 90.855 56.8203 90.3435 56.8203 89.809C56.8203 88.7241 55.9409 87.8447 54.856 87.8447L48.373 87.8447L42.6641 83.6202L61.5034 65.3696C61.4819 65.6592 61.4712 65.9517 61.4712 66.2467C61.4712 72.7097 66.7104 77.949 73.1733 77.949C73.4058 77.949 73.6372 77.9421 73.8662 77.9287L70.4746 81.3206L70.4141 81.3206C68.5952 79.2303 65.8579 77.8435 63.144 77.5929C62.0654 77.4934 61.2197 78.1672 60.9072 79.0396L58.7935 79.0396C57.4243 79.0396 56.314 80.1495 56.314 81.5189L56.314 84.1552C56.314 84.8527 56.6079 85.5179 57.1235 85.9878L60.9785 89.5001C61.2192 89.7194 61.498 89.887 61.7988 89.9966ZM71.5864 70.9078C72.4082 70.9078 73.0742 70.2418 73.0742 69.4202C73.0742 68.5986 72.4082 67.9326 71.5864 67.9326C70.7651 67.9326 70.0991 68.5986 70.0991 69.4202C70.0991 70.2418 70.7651 70.9078 71.5864 70.9078ZM83.0903 72.5936L83.0903 72.4619C83.0737 72.4889 83.0566 72.5157 83.0396 72.5426L83.0903 72.5936ZM74.6821 81.3206L77.8345 81.3206C78.6558 81.3206 79.3218 81.9865 79.3218 82.8081C79.3218 83.6296 78.6558 84.2957 77.8345 84.2957L70.2026 84.2957C69.4009 84.2957 68.7056 83.9111 68.2529 83.3708C67.0986 81.994 65.3467 80.9977 63.5747 80.6561C63.2354 81.4547 62.4434 82.0148 61.5205 82.0148L59.2896 82.0148L59.2896 83.936L62.8403 87.1716L83.0903 87.1716L83.0903 72.9121L74.6821 81.3206ZM32.9097 77.3538C32.9097 77.5017 32.8882 77.6444 32.8481 77.7793L32.8481 84.2631L45.7534 92.438L51.4233 97.25L54.5454 97.25L56.4189 95.3762L53.8623 93.2905C53.0669 92.6416 52.7998 91.6039 53.082 90.6964L48.23 90.6964C47.7124 90.6964 47.2085 90.5302 46.792 90.2222L38.7671 84.2839C38.1509 83.828 37.7871 83.1069 37.7871 82.3406L37.7871 76.3005L32.9097 76.3005L32.9097 77.3538ZM70.5947 101.155L70.5947 90.1467L65.856 90.1467L60.1128 95.8899C60.105 96.5109 59.8594 97.1309 59.3706 97.6006L57.4692 99.4274C57.0454 99.8347 56.4888 100.073 55.9038 100.099L55.7793 100.224L55.6577 100.102L55.6572 100.102L55.7793 100.224C55.4497 100.553 55.1011 100.864 54.7354 101.155L70.5947 101.155ZM38.4634 91.8331C38.4634 91.6024 38.4644 91.392 38.4683 91.1987L44.0596 94.7406L49.6992 99.5272C50.0215 99.8004 50.4067 99.9829 50.8169 100.06C49.7617 100.509 48.6055 100.759 47.3887 100.759C42.4585 100.759 38.4634 96.7635 38.4634 91.8331ZM46.7939 104.13L46.7939 127.435L51.6113 127.435L55.2231 114.342L55.2231 110.08C55.2231 109.259 55.8892 108.593 56.7109 108.593C57.5327 108.593 58.1987 109.259 58.1987 110.08L58.1987 114.139L65.9927 127.435L70.5947 127.435L70.5947 104.13L46.7939 104.13ZM64.6445 138.84L64.6445 130.171C64.2026 129.961 63.8252 129.621 63.5698 129.185L57.2085 118.333L54.3789 128.591C54.2607 129.018 54.0352 129.394 53.7358 129.691L53.7358 138.925C54.3135 139.129 54.7275 139.68 54.7275 140.327L54.7275 147.141C55.791 145.541 57.6094 144.493 59.686 144.493L62.6611 144.493L62.6611 140.345C62.6611 140.339 62.6611 140.333 62.6611 140.327C62.6611 139.506 63.3271 138.84 64.1484 138.84L64.6445 138.84ZM47.7856 130.411L50.7607 130.411L50.7607 138.84L47.7856 138.84L47.7856 130.411ZM67.6196 130.411L70.5942 130.411L70.5962 138.84L67.6196 138.84L67.6196 130.411ZM51.7524 150.443L51.7524 141.815L45.8018 141.815L45.8018 144.988C45.8018 146.358 44.6919 147.468 43.3228 147.468L39.8516 147.468C38.1938 147.468 36.8765 148.785 36.8765 150.443L51.7524 150.443ZM65.6362 141.815L71.5864 141.815L71.5864 150.443L56.7109 150.443C56.7109 148.785 58.0283 147.468 59.686 147.468L63.1567 147.468C64.5264 147.468 65.6362 146.358 65.6362 144.988L65.6362 141.815Z" fill-rule="evenodd" fill="#080A0D"/>
	<path id="Carrying a baby" d="M6.048 172.342C8.208 172.342 10.128 173.846 10.384 175.622C10.416 175.814 10.384 175.846 10.272 175.862L9.072 175.958C8.96 175.974 8.944 175.926 8.912 175.798C8.592 174.438 7.552 173.51 6.096 173.51C3.872 173.51 2.64 175.142 2.64 178.454C2.64 181.67 3.824 183.318 6.176 183.318C7.68 183.318 8.672 182.63 9.296 181.03C9.312 180.966 9.376 180.934 9.488 180.966L10.432 181.19C10.48 181.206 10.544 181.254 10.512 181.414C10.064 182.934 8.528 184.534 6.112 184.534C2.928 184.534 1.04 182.214 1.04 178.422C1.04 174.63 2.928 172.342 6.048 172.342ZM17.4245 183.35C16.6245 184.118 15.7125 184.534 14.5765 184.534C12.9285 184.534 11.9045 183.622 11.9045 182.214C11.9045 180.518 13.3925 179.51 16.1285 179.334L17.3765 179.238C17.5205 179.222 17.6325 179.158 17.6325 178.998L17.6325 178.566C17.6325 177.414 16.8645 176.694 15.6485 176.694C14.7205 176.694 13.9525 177.11 13.3605 177.974C13.2805 178.086 13.2485 178.118 13.1205 178.07L12.2565 177.782C12.1765 177.75 12.1445 177.686 12.2245 177.526C12.8485 176.422 14.0325 175.734 15.7125 175.734C17.8245 175.734 18.9285 176.79 18.9285 178.47L18.9285 184.134C18.9285 184.326 18.8645 184.374 18.7205 184.374L17.9045 184.374C17.7605 184.374 17.6965 184.278 17.6805 184.118L17.6645 183.382C17.6325 183.238 17.5525 183.222 17.4245 183.35ZM17.6325 180.31C17.6325 180.118 17.5685 180.054 17.4085 180.054L16.3525 180.15C14.3845 180.278 13.2485 180.918 13.2485 182.054C13.2485 182.982 13.9525 183.542 15.0565 183.542C15.7285 183.542 16.3845 183.27 16.8645 182.886C17.3445 182.502 17.6325 182.054 17.6325 181.638L17.6325 180.31ZM21.5341 184.374C21.3741 184.374 21.3101 184.31 21.3101 184.166L21.3101 176.102C21.3101 175.958 21.3741 175.894 21.4861 175.894L22.4141 175.894C22.5421 175.894 22.5901 175.958 22.5901 176.07L22.5901 177.11C22.5901 177.238 22.6701 177.27 22.7661 177.158C23.5981 176.182 24.4141 175.734 25.2461 175.734C25.6301 175.734 25.8061 175.798 25.8061 175.942L25.8061 176.902C25.8061 176.998 25.7581 177.046 25.6621 177.03C25.4701 176.998 25.2141 176.982 24.9421 176.982C23.9981 176.982 22.6541 177.91 22.6541 178.838L22.6541 184.134C22.6541 184.31 22.5741 184.374 22.4141 184.374L21.5341 184.374ZM27.6591 184.374C27.4991 184.374 27.4351 184.31 27.4351 184.166L27.4351 176.102C27.4351 175.958 27.4991 175.894 27.6111 175.894L28.5391 175.894C28.6671 175.894 28.7151 175.958 28.7151 176.07L28.7151 177.11C28.7151 177.238 28.7951 177.27 28.8911 177.158C29.7231 176.182 30.5391 175.734 31.3711 175.734C31.7551 175.734 31.9311 175.798 31.9311 175.942L31.9311 176.902C31.9311 176.998 31.8831 177.046 31.7871 177.03C31.5951 176.998 31.3391 176.982 31.0671 176.982C30.1231 176.982 28.7791 177.91 28.7791 178.838L28.7791 184.134C28.7791 184.31 28.6991 184.374 28.5391 184.374L27.6591 184.374ZM34.0241 187.014C33.4001 187.014 33.0481 187.014 33.0481 186.806L33.0481 186.182C33.0481 186.038 33.1281 185.974 33.4961 185.974L34.5041 185.974C35.4481 185.974 36.1201 184.534 35.8321 183.814L32.7761 176.166C32.7281 176.022 32.7761 175.894 32.9521 175.894L33.9441 175.894C34.0721 175.894 34.1521 175.958 34.2001 176.07L36.5841 182.278C36.6641 182.47 36.7761 182.486 36.8721 182.23L39.2241 176.07C39.2721 175.958 39.3521 175.894 39.4481 175.894L40.2001 175.894C40.3441 175.894 40.4081 176.022 40.3601 176.118L36.8401 185.126C36.2321 186.646 35.4161 187.014 34.0241 187.014ZM43.4525 172.742L43.4525 174.07C43.4525 174.262 43.3885 174.374 43.1645 174.374L42.2365 174.374C42.0445 174.374 41.9965 174.262 41.9965 174.102L41.9965 172.758C41.9965 172.598 42.0765 172.502 42.2205 172.502L43.2285 172.502C43.3565 172.502 43.4525 172.598 43.4525 172.742ZM43.3885 176.102L43.3885 184.102C43.3885 184.31 43.3245 184.374 43.1005 184.374L42.2845 184.374C42.0925 184.374 42.0445 184.31 42.0445 184.15L42.0445 176.118C42.0445 175.958 42.1085 175.894 42.2365 175.894L43.2125 175.894C43.3405 175.894 43.3885 175.958 43.3885 176.102ZM46.0966 184.374C45.9366 184.374 45.8726 184.31 45.8726 184.166L45.8726 176.102C45.8726 175.974 45.9366 175.894 46.0486 175.894L47.0086 175.894C47.1206 175.894 47.1846 175.958 47.1846 176.07L47.1846 176.998C47.1846 177.11 47.2166 177.142 47.3286 177.046C48.4006 176.214 49.1526 175.734 50.2726 175.734C51.9206 175.734 52.8486 176.71 52.8486 178.15L52.8486 184.118C52.8486 184.294 52.7686 184.374 52.6086 184.374L51.7126 184.374C51.5686 184.374 51.5046 184.31 51.5046 184.166L51.5046 178.454C51.5046 177.414 50.9926 176.79 49.8406 176.79C48.8806 176.79 48.2246 177.222 47.2166 178.086L47.2166 184.134C47.2166 184.31 47.1526 184.374 46.9766 184.374L46.0966 184.374ZM62.8804 175.75C63.0884 175.75 63.1844 175.83 63.1844 176.006L63.1844 176.566C63.1844 176.774 63.1044 176.87 62.8644 176.854C62.5124 176.854 62.2724 176.886 62.0324 176.998C61.7444 177.11 61.6644 177.222 61.7124 177.366C61.8084 177.606 61.9844 177.91 61.9844 178.454C61.9844 179.878 60.8804 181.03 58.5124 181.03C56.8804 181.03 56.3844 181.366 56.3844 181.718C56.3844 182.054 56.8164 182.182 57.8404 182.246L59.9044 182.358C61.7924 182.47 62.6244 183.302 62.6244 184.582C62.6244 186.198 61.1684 187.174 58.5284 187.174C55.8244 187.174 54.3684 186.374 54.3684 184.918C54.3684 184.166 54.8964 183.59 55.8724 183.11C55.9844 183.062 55.9844 182.998 55.8724 182.934C55.3924 182.726 55.1364 182.422 55.1364 181.99C55.1364 181.526 55.5684 181.078 56.4004 180.79C56.5124 180.758 56.5124 180.678 56.4004 180.598C55.4724 180.118 55.0244 179.446 55.0244 178.454C55.0244 176.806 56.3204 175.766 58.6404 175.766C59.7444 175.766 60.4964 176.038 61.0404 176.486C61.1684 176.598 61.2644 176.582 61.3764 176.486C61.7284 176.15 62.3204 175.75 62.8804 175.75ZM58.5124 180.182C60.0164 180.182 60.7204 179.542 60.7204 178.438C60.7204 177.302 59.9844 176.614 58.5124 176.614C57.0884 176.614 56.2724 177.318 56.2724 178.438C56.2724 179.542 57.0724 180.182 58.5124 180.182ZM59.7764 183.494L57.1044 183.334C56.5444 183.302 55.5684 183.894 55.5684 184.758C55.5684 185.766 56.6084 186.342 58.6724 186.342C60.4324 186.342 61.3764 185.83 61.3764 184.742C61.3764 184.022 60.9444 183.558 59.7764 183.494ZM73.1589 183.35C72.3589 184.118 71.4469 184.534 70.3109 184.534C68.6629 184.534 67.6389 183.622 67.6389 182.214C67.6389 180.518 69.1269 179.51 71.8629 179.334L73.1109 179.238C73.2549 179.222 73.3669 179.158 73.3669 178.998L73.3669 178.566C73.3669 177.414 72.5989 176.694 71.3829 176.694C70.4549 176.694 69.6869 177.11 69.0949 177.974C69.0149 178.086 68.9829 178.118 68.8549 178.07L67.9909 177.782C67.9109 177.75 67.8789 177.686 67.9589 177.526C68.5829 176.422 69.7669 175.734 71.4469 175.734C73.5589 175.734 74.6629 176.79 74.6629 178.47L74.6629 184.134C74.6629 184.326 74.5989 184.374 74.4549 184.374L73.6389 184.374C73.4949 184.374 73.4309 184.278 73.4149 184.118L73.3989 183.382C73.3669 183.238 73.2869 183.222 73.1589 183.35ZM73.3669 180.31C73.3669 180.118 73.3029 180.054 73.1429 180.054L72.0869 180.15C70.1189 180.278 68.9829 180.918 68.9829 182.054C68.9829 182.982 69.6869 183.542 70.7909 183.542C71.4629 183.542 72.1189 183.27 72.5989 182.886C73.0789 182.502 73.3669 182.054 73.3669 181.638L73.3669 180.31ZM81.25 184.374L80.738 184.374C80.546 184.374 80.482 184.31 80.482 184.118L80.482 172.726C80.482 172.566 80.562 172.502 80.674 172.502L81.666 172.502C81.778 172.502 81.826 172.566 81.826 172.726L81.826 176.646C81.826 176.87 81.922 176.87 82.066 176.742C82.354 176.47 83.186 175.734 84.626 175.734C86.962 175.734 88.05 177.622 88.05 180.086C88.05 182.822 86.706 184.534 84.402 184.534C82.93 184.534 82.114 183.702 81.794 183.27C81.714 183.174 81.634 183.19 81.618 183.318L81.538 184.118C81.506 184.31 81.442 184.374 81.25 184.374ZM81.826 177.894L81.826 181.51C81.826 182.662 82.962 183.574 84.114 183.574C85.554 183.574 86.658 182.534 86.658 180.118C86.658 177.958 85.81 176.71 84.226 176.71C83.218 176.71 82.386 177.222 81.826 177.894ZM94.9401 183.35C94.1401 184.118 93.2281 184.534 92.0921 184.534C90.4441 184.534 89.4201 183.622 89.4201 182.214C89.4201 180.518 90.9081 179.51 93.6441 179.334L94.8921 179.238C95.0361 179.222 95.1481 179.158 95.1481 178.998L95.1481 178.566C95.1481 177.414 94.3801 176.694 93.1641 176.694C92.2361 176.694 91.4681 177.11 90.8761 177.974C90.7961 178.086 90.7641 178.118 90.6361 178.07L89.7721 177.782C89.6921 177.75 89.6601 177.686 89.7401 177.526C90.3641 176.422 91.5481 175.734 93.2281 175.734C95.3401 175.734 96.4441 176.79 96.4441 178.47L96.4441 184.134C96.4441 184.326 96.3801 184.374 96.2361 184.374L95.4201 184.374C95.2761 184.374 95.2121 184.278 95.1961 184.118L95.1801 183.382C95.1481 183.238 95.0681 183.222 94.9401 183.35ZM95.1481 180.31C95.1481 180.118 95.0841 180.054 94.9241 180.054L93.8681 180.15C91.9001 180.278 90.7641 180.918 90.7641 182.054C90.7641 182.982 91.4681 183.542 92.5721 183.542C93.2441 183.542 93.9001 183.27 94.3801 182.886C94.8601 182.502 95.1481 182.054 95.1481 181.638L95.1481 180.31ZM99.5938 184.374L99.0817 184.374C98.8897 184.374 98.8258 184.31 98.8258 184.118L98.8258 172.726C98.8258 172.566 98.9057 172.502 99.0178 172.502L100.01 172.502C100.122 172.502 100.17 172.566 100.17 172.726L100.17 176.646C100.17 176.87 100.266 176.87 100.41 176.742C100.698 176.47 101.53 175.734 102.97 175.734C105.306 175.734 106.394 177.622 106.394 180.086C106.394 182.822 105.05 184.534 102.746 184.534C101.274 184.534 100.458 183.702 100.138 183.27C100.058 183.174 99.9778 183.19 99.9617 183.318L99.8818 184.118C99.8497 184.31 99.7858 184.374 99.5938 184.374ZM100.17 177.894L100.17 181.51C100.17 182.662 101.306 183.574 102.458 183.574C103.898 183.574 105.002 182.534 105.002 180.118C105.002 177.958 104.154 176.71 102.57 176.71C101.562 176.71 100.73 177.222 100.17 177.894ZM108.493 187.014C107.869 187.014 107.517 187.014 107.517 186.806L107.517 186.182C107.517 186.038 107.597 185.974 107.965 185.974L108.973 185.974C109.917 185.974 110.589 184.534 110.301 183.814L107.245 176.166C107.197 176.022 107.245 175.894 107.421 175.894L108.413 175.894C108.541 175.894 108.621 175.958 108.669 176.07L111.053 182.278C111.133 182.47 111.245 182.486 111.341 182.23L113.693 176.07C113.741 175.958 113.821 175.894 113.917 175.894L114.669 175.894C114.813 175.894 114.877 176.022 114.829 176.118L111.309 185.126C110.701 186.646 109.885 187.014 108.493 187.014Z" fill-rule="evenodd" fill="#080A0D"/>
</svg>
